<?xml version="1.0" encoding="UTF-8" standalone="no"?>
<svg
   version="1.1"
   width="41.998900cm"
   height="29.700220cm"
   viewBox="0 0 419989000 297002200"
   id="svg1148"
   sodipodi:docname="Bottom_Plate-Edge_Cuts.svg"
   inkscape:version="1.1.1 (1:1.1+202109281949+c3084ef5ed)"
   xmlns:inkscape="http://www.inkscape.org/namespaces/inkscape"
   xmlns:sodipodi="http://sodipodi.sourceforge.net/DTD/sodipodi-0.dtd"
   xmlns="http://www.w3.org/2000/svg"
   xmlns:svg="http://www.w3.org/2000/svg">
  <defs
     id="defs1152" />
  <sodipodi:namedview
     id="namedview1150"
     pagecolor="#ffffff"
     bordercolor="#cccccc"
     borderopacity="1"
     inkscape:pageshadow="0"
     inkscape:pageopacity="1"
     inkscape:pagecheckerboard="0"
     inkscape:document-units="cm"
     showgrid="false"
     inkscape:zoom="0.57726845"
     inkscape:cx="793.39171"
     inkscape:cy="560.39785"
     inkscape:window-width="1662"
     inkscape:window-height="1402"
     inkscape:window-x="2435"
     inkscape:window-y="189"
     inkscape:window-maximized="1"
     inkscape:current-layer="svg1148" />
  <title
     id="title2">SVG Picture created as Bottom_Plate-Edge_Cuts.svg date 2022/01/13 19:13:30 </title>
  <desc
     id="desc4">Picture generated by PCBNEW </desc>
  <g
     style="fill:#000000; fill-opacity:1.000000;stroke:#000000; stroke-opacity:1.000000; stroke-linecap:round; stroke-linejoin:round;"
     transform="translate(0 0) scale(1 1)"
     id="g6" />
  <g
     style="fill:#000000; fill-opacity:0.0;  stroke:#000000; stroke-width:0.000000; stroke-opacity:1;  stroke-linecap:round; stroke-linejoin:round;"
     id="g8" />
  <g
     style="fill:#000000; fill-opacity:0.0;  stroke:#000000; stroke-width:21200.000000; stroke-opacity:1;  stroke-linecap:round; stroke-linejoin:round;"
     id="g10" />
  <g
     style="fill:#000000; fill-opacity:0.0;  stroke:#000000; stroke-width:150000.000000; stroke-opacity:1;  stroke-linecap:round; stroke-linejoin:round;"
     id="g14">
    <rect
       x="299989000.000000"
       y="253002200.000000"
       width="108000000.000000"
       height="32000000.000000"
       rx="0.000000"
       id="rect12" />
  </g>
  <g
     style="fill:#000000; fill-opacity:0.0;  stroke:#000000; stroke-width:21200.000000; stroke-opacity:1;  stroke-linecap:round; stroke-linejoin:round;"
     id="g16" />
  <g
     style="fill:#000000; fill-opacity:0.0;  stroke:#000000; stroke-width:150000.000000; stroke-opacity:1;  stroke-linecap:round; stroke-linejoin:round;"
     id="g20">
    <rect
       x="10000000.000000"
       y="10000000.000000"
       width="399989000.000000"
       height="277002200.000000"
       rx="0.000000"
       id="rect18" />
  </g>
  <g
     style="fill:#000000; fill-opacity:0.0;  stroke:#000000; stroke-width:21200.000000; stroke-opacity:1;  stroke-linecap:round; stroke-linejoin:round;"
     id="g22" />
  <g
     style="fill:#000000; fill-opacity:0.0;  stroke:#000000; stroke-width:150000.000000; stroke-opacity:1;  stroke-linecap:round; stroke-linejoin:round;"
     id="g26">
    <rect
       x="12000000.000000"
       y="12000000.000000"
       width="395989000.000000"
       height="273002200.000000"
       rx="0.000000"
       id="rect24" />
  </g>
  <g
     style="fill:#000000; fill-opacity:0.0;  stroke:#000000; stroke-width:21200.000000; stroke-opacity:1;  stroke-linecap:round; stroke-linejoin:round;"
     id="g28" />
  <g
     style="fill:#000000; fill-opacity:0.0;  stroke:#000000; stroke-width:150000.000000; stroke-opacity:1;  stroke-linecap:round; stroke-linejoin:round;"
     id="g32">
    <path
       d="M60000000 12000000 L60000000 10000000 "
       id="path30" />
  </g>
  <g
     style="fill:#000000; fill-opacity:0.0;  stroke:#000000; stroke-width:21200.000000; stroke-opacity:1;  stroke-linecap:round; stroke-linejoin:round;"
     id="g34" />
  <g
     style="fill:#000000; fill-opacity:0.0;  stroke:#000000; stroke-width:150000.000000; stroke-opacity:1;  stroke-linecap:round; stroke-linejoin:round;"
     id="g38">
    <path
       d="M110000000 12000000 L110000000 10000000 "
       id="path36" />
  </g>
  <g
     style="fill:#000000; fill-opacity:0.0;  stroke:#000000; stroke-width:21200.000000; stroke-opacity:1;  stroke-linecap:round; stroke-linejoin:round;"
     id="g40" />
  <g
     style="fill:#000000; fill-opacity:0.0;  stroke:#000000; stroke-width:150000.000000; stroke-opacity:1;  stroke-linecap:round; stroke-linejoin:round;"
     id="g44">
    <path
       d="M160000000 12000000 L160000000 10000000 "
       id="path42" />
  </g>
  <g
     style="fill:#000000; fill-opacity:0.0;  stroke:#000000; stroke-width:21200.000000; stroke-opacity:1;  stroke-linecap:round; stroke-linejoin:round;"
     id="g46" />
  <g
     style="fill:#000000; fill-opacity:0.0;  stroke:#000000; stroke-width:150000.000000; stroke-opacity:1;  stroke-linecap:round; stroke-linejoin:round;"
     id="g50">
    <path
       d="M210000000 12000000 L210000000 10000000 "
       id="path48" />
  </g>
  <g
     style="fill:#000000; fill-opacity:0.0;  stroke:#000000; stroke-width:21200.000000; stroke-opacity:1;  stroke-linecap:round; stroke-linejoin:round;"
     id="g52" />
  <g
     style="fill:#000000; fill-opacity:0.0;  stroke:#000000; stroke-width:150000.000000; stroke-opacity:1;  stroke-linecap:round; stroke-linejoin:round;"
     id="g56">
    <path
       d="M260000000 12000000 L260000000 10000000 "
       id="path54" />
  </g>
  <g
     style="fill:#000000; fill-opacity:0.0;  stroke:#000000; stroke-width:21200.000000; stroke-opacity:1;  stroke-linecap:round; stroke-linejoin:round;"
     id="g58" />
  <g
     style="fill:#000000; fill-opacity:0.0;  stroke:#000000; stroke-width:150000.000000; stroke-opacity:1;  stroke-linecap:round; stroke-linejoin:round;"
     id="g62">
    <path
       d="M310000000 12000000 L310000000 10000000 "
       id="path60" />
  </g>
  <g
     style="fill:#000000; fill-opacity:0.0;  stroke:#000000; stroke-width:21200.000000; stroke-opacity:1;  stroke-linecap:round; stroke-linejoin:round;"
     id="g64" />
  <g
     style="fill:#000000; fill-opacity:0.0;  stroke:#000000; stroke-width:150000.000000; stroke-opacity:1;  stroke-linecap:round; stroke-linejoin:round;"
     id="g68">
    <path
       d="M360000000 12000000 L360000000 10000000 "
       id="path66" />
  </g>
  <g
     style="fill:#000000; fill-opacity:0.0;  stroke:#000000; stroke-width:21200.000000; stroke-opacity:1;  stroke-linecap:round; stroke-linejoin:round;"
     id="g70" />
  <g
     style="fill:#000000; fill-opacity:0.0;  stroke:#000000; stroke-width:150000.000000; stroke-opacity:1;  stroke-linecap:round; stroke-linejoin:round;"
     id="g82">
    <text
       x="35000000.000000"
       y="11650000.000000"
       textLength="1388095.000000"
       font-size="1733333.000000"
       lengthAdjust="spacingAndGlyphs"
       text-anchor="start"
       opacity="0"
       id="text72">1</text>
    <g
       class="stroked-text"
       id="g80">
      <desc
         id="desc74">1</desc>
      <path
         d="M36065476 11588095 L35322619 11588095 "
         id="path76" />
      <path
         d="M35694047 11588095 L35694047 10288095 L35570238 10473809 L35446428 10597619 L35322619 10659523 "
         id="path78" />
    </g>
  </g>
  <g
     style="fill:#000000; fill-opacity:0.0;  stroke:#000000; stroke-width:21200.000000; stroke-opacity:1;  stroke-linecap:round; stroke-linejoin:round;"
     id="g84" />
  <g
     style="fill:#000000; fill-opacity:0.0;  stroke:#000000; stroke-width:150000.000000; stroke-opacity:1;  stroke-linecap:round; stroke-linejoin:round;"
     id="g94">
    <text
       x="85000000.000000"
       y="11650000.000000"
       textLength="1388095.000000"
       font-size="1733333.000000"
       lengthAdjust="spacingAndGlyphs"
       text-anchor="start"
       opacity="0"
       id="text86">2</text>
    <g
       class="stroked-text"
       id="g92">
      <desc
         id="desc88">2</desc>
      <path
         d="M85322619 10411904 L85384523 10350000 L85508333 10288095 L85817857 10288095 L85941666 10350000 L86003571 10411904 L86065476 10535714 L86065476 10659523 L86003571 10845238 L85260714 11588095 L86065476 11588095 "
         id="path90" />
    </g>
  </g>
  <g
     style="fill:#000000; fill-opacity:0.0;  stroke:#000000; stroke-width:21200.000000; stroke-opacity:1;  stroke-linecap:round; stroke-linejoin:round;"
     id="g96" />
  <g
     style="fill:#000000; fill-opacity:0.0;  stroke:#000000; stroke-width:150000.000000; stroke-opacity:1;  stroke-linecap:round; stroke-linejoin:round;"
     id="g106">
    <text
       x="135000000.000000"
       y="11650000.000000"
       textLength="1388095.000000"
       font-size="1733333.000000"
       lengthAdjust="spacingAndGlyphs"
       text-anchor="start"
       opacity="0"
       id="text98">3</text>
    <g
       class="stroked-text"
       id="g104">
      <desc
         id="desc100">3</desc>
      <path
         d="M135260714 10288095 L136065476 10288095 L135632142 10783333 L135817857 10783333 L135941666 10845238 L136003571 10907142 L136065476 11030952 L136065476 11340476 L136003571 11464285 L135941666 11526190 L135817857 11588095 L135446428 11588095 L135322619 11526190 L135260714 11464285 "
         id="path102" />
    </g>
  </g>
  <g
     style="fill:#000000; fill-opacity:0.0;  stroke:#000000; stroke-width:21200.000000; stroke-opacity:1;  stroke-linecap:round; stroke-linejoin:round;"
     id="g108" />
  <g
     style="fill:#000000; fill-opacity:0.0;  stroke:#000000; stroke-width:150000.000000; stroke-opacity:1;  stroke-linecap:round; stroke-linejoin:round;"
     id="g120">
    <text
       x="185000000.000000"
       y="11650000.000000"
       textLength="1388095.000000"
       font-size="1733333.000000"
       lengthAdjust="spacingAndGlyphs"
       text-anchor="start"
       opacity="0"
       id="text110">4</text>
    <g
       class="stroked-text"
       id="g118">
      <desc
         id="desc112">4</desc>
      <path
         d="M185941666 10721428 L185941666 11588095 "
         id="path114" />
      <path
         d="M185632142 10226190 L185322619 11154761 L186127380 11154761 "
         id="path116" />
    </g>
  </g>
  <g
     style="fill:#000000; fill-opacity:0.0;  stroke:#000000; stroke-width:21200.000000; stroke-opacity:1;  stroke-linecap:round; stroke-linejoin:round;"
     id="g122" />
  <g
     style="fill:#000000; fill-opacity:0.0;  stroke:#000000; stroke-width:150000.000000; stroke-opacity:1;  stroke-linecap:round; stroke-linejoin:round;"
     id="g132">
    <text
       x="235000000.000000"
       y="11650000.000000"
       textLength="1388095.000000"
       font-size="1733333.000000"
       lengthAdjust="spacingAndGlyphs"
       text-anchor="start"
       opacity="0"
       id="text124">5</text>
    <g
       class="stroked-text"
       id="g130">
      <desc
         id="desc126">5</desc>
      <path
         d="M236003571 10288095 L235384523 10288095 L235322619 10907142 L235384523 10845238 L235508333 10783333 L235817857 10783333 L235941666 10845238 L236003571 10907142 L236065476 11030952 L236065476 11340476 L236003571 11464285 L235941666 11526190 L235817857 11588095 L235508333 11588095 L235384523 11526190 L235322619 11464285 "
         id="path128" />
    </g>
  </g>
  <g
     style="fill:#000000; fill-opacity:0.0;  stroke:#000000; stroke-width:21200.000000; stroke-opacity:1;  stroke-linecap:round; stroke-linejoin:round;"
     id="g134" />
  <g
     style="fill:#000000; fill-opacity:0.0;  stroke:#000000; stroke-width:150000.000000; stroke-opacity:1;  stroke-linecap:round; stroke-linejoin:round;"
     id="g144">
    <text
       x="285000000.000000"
       y="11650000.000000"
       textLength="1388095.000000"
       font-size="1733333.000000"
       lengthAdjust="spacingAndGlyphs"
       text-anchor="start"
       opacity="0"
       id="text136">6</text>
    <g
       class="stroked-text"
       id="g142">
      <desc
         id="desc138">6</desc>
      <path
         d="M285941666 10288095 L285694047 10288095 L285570238 10350000 L285508333 10411904 L285384523 10597619 L285322619 10845238 L285322619 11340476 L285384523 11464285 L285446428 11526190 L285570238 11588095 L285817857 11588095 L285941666 11526190 L286003571 11464285 L286065476 11340476 L286065476 11030952 L286003571 10907142 L285941666 10845238 L285817857 10783333 L285570238 10783333 L285446428 10845238 L285384523 10907142 L285322619 11030952 "
         id="path140" />
    </g>
  </g>
  <g
     style="fill:#000000; fill-opacity:0.0;  stroke:#000000; stroke-width:21200.000000; stroke-opacity:1;  stroke-linecap:round; stroke-linejoin:round;"
     id="g146" />
  <g
     style="fill:#000000; fill-opacity:0.0;  stroke:#000000; stroke-width:150000.000000; stroke-opacity:1;  stroke-linecap:round; stroke-linejoin:round;"
     id="g156">
    <text
       x="335000000.000000"
       y="11650000.000000"
       textLength="1388095.000000"
       font-size="1733333.000000"
       lengthAdjust="spacingAndGlyphs"
       text-anchor="start"
       opacity="0"
       id="text148">7</text>
    <g
       class="stroked-text"
       id="g154">
      <desc
         id="desc150">7</desc>
      <path
         d="M335260714 10288095 L336127380 10288095 L335570238 11588095 "
         id="path152" />
    </g>
  </g>
  <g
     style="fill:#000000; fill-opacity:0.0;  stroke:#000000; stroke-width:21200.000000; stroke-opacity:1;  stroke-linecap:round; stroke-linejoin:round;"
     id="g158" />
  <g
     style="fill:#000000; fill-opacity:0.0;  stroke:#000000; stroke-width:150000.000000; stroke-opacity:1;  stroke-linecap:round; stroke-linejoin:round;"
     id="g168">
    <text
       x="385000000.000000"
       y="11650000.000000"
       textLength="1388095.000000"
       font-size="1733333.000000"
       lengthAdjust="spacingAndGlyphs"
       text-anchor="start"
       opacity="0"
       id="text160">8</text>
    <g
       class="stroked-text"
       id="g166">
      <desc
         id="desc162">8</desc>
      <path
         d="M385570238 10845238 L385446428 10783333 L385384523 10721428 L385322619 10597619 L385322619 10535714 L385384523 10411904 L385446428 10350000 L385570238 10288095 L385817857 10288095 L385941666 10350000 L386003571 10411904 L386065476 10535714 L386065476 10597619 L386003571 10721428 L385941666 10783333 L385817857 10845238 L385570238 10845238 L385446428 10907142 L385384523 10969047 L385322619 11092857 L385322619 11340476 L385384523 11464285 L385446428 11526190 L385570238 11588095 L385817857 11588095 L385941666 11526190 L386003571 11464285 L386065476 11340476 L386065476 11092857 L386003571 10969047 L385941666 10907142 L385817857 10845238 "
         id="path164" />
    </g>
  </g>
  <g
     style="fill:#000000; fill-opacity:0.0;  stroke:#000000; stroke-width:21200.000000; stroke-opacity:1;  stroke-linecap:round; stroke-linejoin:round;"
     id="g170" />
  <g
     style="fill:#000000; fill-opacity:0.0;  stroke:#000000; stroke-width:150000.000000; stroke-opacity:1;  stroke-linecap:round; stroke-linejoin:round;"
     id="g174">
    <path
       d="M60000000 285002200 L60000000 287002200 "
       id="path172" />
  </g>
  <g
     style="fill:#000000; fill-opacity:0.0;  stroke:#000000; stroke-width:21200.000000; stroke-opacity:1;  stroke-linecap:round; stroke-linejoin:round;"
     id="g176" />
  <g
     style="fill:#000000; fill-opacity:0.0;  stroke:#000000; stroke-width:150000.000000; stroke-opacity:1;  stroke-linecap:round; stroke-linejoin:round;"
     id="g180">
    <path
       d="M110000000 285002200 L110000000 287002200 "
       id="path178" />
  </g>
  <g
     style="fill:#000000; fill-opacity:0.0;  stroke:#000000; stroke-width:21200.000000; stroke-opacity:1;  stroke-linecap:round; stroke-linejoin:round;"
     id="g182" />
  <g
     style="fill:#000000; fill-opacity:0.0;  stroke:#000000; stroke-width:150000.000000; stroke-opacity:1;  stroke-linecap:round; stroke-linejoin:round;"
     id="g186">
    <path
       d="M160000000 285002200 L160000000 287002200 "
       id="path184" />
  </g>
  <g
     style="fill:#000000; fill-opacity:0.0;  stroke:#000000; stroke-width:21200.000000; stroke-opacity:1;  stroke-linecap:round; stroke-linejoin:round;"
     id="g188" />
  <g
     style="fill:#000000; fill-opacity:0.0;  stroke:#000000; stroke-width:150000.000000; stroke-opacity:1;  stroke-linecap:round; stroke-linejoin:round;"
     id="g192">
    <path
       d="M210000000 285002200 L210000000 287002200 "
       id="path190" />
  </g>
  <g
     style="fill:#000000; fill-opacity:0.0;  stroke:#000000; stroke-width:21200.000000; stroke-opacity:1;  stroke-linecap:round; stroke-linejoin:round;"
     id="g194" />
  <g
     style="fill:#000000; fill-opacity:0.0;  stroke:#000000; stroke-width:150000.000000; stroke-opacity:1;  stroke-linecap:round; stroke-linejoin:round;"
     id="g198">
    <path
       d="M260000000 285002200 L260000000 287002200 "
       id="path196" />
  </g>
  <g
     style="fill:#000000; fill-opacity:0.0;  stroke:#000000; stroke-width:21200.000000; stroke-opacity:1;  stroke-linecap:round; stroke-linejoin:round;"
     id="g200" />
  <g
     style="fill:#000000; fill-opacity:0.0;  stroke:#000000; stroke-width:150000.000000; stroke-opacity:1;  stroke-linecap:round; stroke-linejoin:round;"
     id="g204">
    <path
       d="M310000000 285002200 L310000000 287002200 "
       id="path202" />
  </g>
  <g
     style="fill:#000000; fill-opacity:0.0;  stroke:#000000; stroke-width:21200.000000; stroke-opacity:1;  stroke-linecap:round; stroke-linejoin:round;"
     id="g206" />
  <g
     style="fill:#000000; fill-opacity:0.0;  stroke:#000000; stroke-width:150000.000000; stroke-opacity:1;  stroke-linecap:round; stroke-linejoin:round;"
     id="g210">
    <path
       d="M360000000 285002200 L360000000 287002200 "
       id="path208" />
  </g>
  <g
     style="fill:#000000; fill-opacity:0.0;  stroke:#000000; stroke-width:21200.000000; stroke-opacity:1;  stroke-linecap:round; stroke-linejoin:round;"
     id="g212" />
  <g
     style="fill:#000000; fill-opacity:0.0;  stroke:#000000; stroke-width:150000.000000; stroke-opacity:1;  stroke-linecap:round; stroke-linejoin:round;"
     id="g224">
    <text
       x="35000000.000000"
       y="286652200.000000"
       textLength="1388095.000000"
       font-size="1733333.000000"
       lengthAdjust="spacingAndGlyphs"
       text-anchor="start"
       opacity="0"
       id="text214">1</text>
    <g
       class="stroked-text"
       id="g222">
      <desc
         id="desc216">1</desc>
      <path
         d="M36065476 286590295 L35322619 286590295 "
         id="path218" />
      <path
         d="M35694047 286590295 L35694047 285290295 L35570238 285476009 L35446428 285599819 L35322619 285661723 "
         id="path220" />
    </g>
  </g>
  <g
     style="fill:#000000; fill-opacity:0.0;  stroke:#000000; stroke-width:21200.000000; stroke-opacity:1;  stroke-linecap:round; stroke-linejoin:round;"
     id="g226" />
  <g
     style="fill:#000000; fill-opacity:0.0;  stroke:#000000; stroke-width:150000.000000; stroke-opacity:1;  stroke-linecap:round; stroke-linejoin:round;"
     id="g236">
    <text
       x="85000000.000000"
       y="286652200.000000"
       textLength="1388095.000000"
       font-size="1733333.000000"
       lengthAdjust="spacingAndGlyphs"
       text-anchor="start"
       opacity="0"
       id="text228">2</text>
    <g
       class="stroked-text"
       id="g234">
      <desc
         id="desc230">2</desc>
      <path
         d="M85322619 285414104 L85384523 285352200 L85508333 285290295 L85817857 285290295 L85941666 285352200 L86003571 285414104 L86065476 285537914 L86065476 285661723 L86003571 285847438 L85260714 286590295 L86065476 286590295 "
         id="path232" />
    </g>
  </g>
  <g
     style="fill:#000000; fill-opacity:0.0;  stroke:#000000; stroke-width:21200.000000; stroke-opacity:1;  stroke-linecap:round; stroke-linejoin:round;"
     id="g238" />
  <g
     style="fill:#000000; fill-opacity:0.0;  stroke:#000000; stroke-width:150000.000000; stroke-opacity:1;  stroke-linecap:round; stroke-linejoin:round;"
     id="g248">
    <text
       x="135000000.000000"
       y="286652200.000000"
       textLength="1388095.000000"
       font-size="1733333.000000"
       lengthAdjust="spacingAndGlyphs"
       text-anchor="start"
       opacity="0"
       id="text240">3</text>
    <g
       class="stroked-text"
       id="g246">
      <desc
         id="desc242">3</desc>
      <path
         d="M135260714 285290295 L136065476 285290295 L135632142 285785533 L135817857 285785533 L135941666 285847438 L136003571 285909342 L136065476 286033152 L136065476 286342676 L136003571 286466485 L135941666 286528390 L135817857 286590295 L135446428 286590295 L135322619 286528390 L135260714 286466485 "
         id="path244" />
    </g>
  </g>
  <g
     style="fill:#000000; fill-opacity:0.0;  stroke:#000000; stroke-width:21200.000000; stroke-opacity:1;  stroke-linecap:round; stroke-linejoin:round;"
     id="g250" />
  <g
     style="fill:#000000; fill-opacity:0.0;  stroke:#000000; stroke-width:150000.000000; stroke-opacity:1;  stroke-linecap:round; stroke-linejoin:round;"
     id="g262">
    <text
       x="185000000.000000"
       y="286652200.000000"
       textLength="1388095.000000"
       font-size="1733333.000000"
       lengthAdjust="spacingAndGlyphs"
       text-anchor="start"
       opacity="0"
       id="text252">4</text>
    <g
       class="stroked-text"
       id="g260">
      <desc
         id="desc254">4</desc>
      <path
         d="M185941666 285723628 L185941666 286590295 "
         id="path256" />
      <path
         d="M185632142 285228390 L185322619 286156961 L186127380 286156961 "
         id="path258" />
    </g>
  </g>
  <g
     style="fill:#000000; fill-opacity:0.0;  stroke:#000000; stroke-width:21200.000000; stroke-opacity:1;  stroke-linecap:round; stroke-linejoin:round;"
     id="g264" />
  <g
     style="fill:#000000; fill-opacity:0.0;  stroke:#000000; stroke-width:150000.000000; stroke-opacity:1;  stroke-linecap:round; stroke-linejoin:round;"
     id="g274">
    <text
       x="235000000.000000"
       y="286652200.000000"
       textLength="1388095.000000"
       font-size="1733333.000000"
       lengthAdjust="spacingAndGlyphs"
       text-anchor="start"
       opacity="0"
       id="text266">5</text>
    <g
       class="stroked-text"
       id="g272">
      <desc
         id="desc268">5</desc>
      <path
         d="M236003571 285290295 L235384523 285290295 L235322619 285909342 L235384523 285847438 L235508333 285785533 L235817857 285785533 L235941666 285847438 L236003571 285909342 L236065476 286033152 L236065476 286342676 L236003571 286466485 L235941666 286528390 L235817857 286590295 L235508333 286590295 L235384523 286528390 L235322619 286466485 "
         id="path270" />
    </g>
  </g>
  <g
     style="fill:#000000; fill-opacity:0.0;  stroke:#000000; stroke-width:21200.000000; stroke-opacity:1;  stroke-linecap:round; stroke-linejoin:round;"
     id="g276" />
  <g
     style="fill:#000000; fill-opacity:0.0;  stroke:#000000; stroke-width:150000.000000; stroke-opacity:1;  stroke-linecap:round; stroke-linejoin:round;"
     id="g286">
    <text
       x="285000000.000000"
       y="286652200.000000"
       textLength="1388095.000000"
       font-size="1733333.000000"
       lengthAdjust="spacingAndGlyphs"
       text-anchor="start"
       opacity="0"
       id="text278">6</text>
    <g
       class="stroked-text"
       id="g284">
      <desc
         id="desc280">6</desc>
      <path
         d="M285941666 285290295 L285694047 285290295 L285570238 285352200 L285508333 285414104 L285384523 285599819 L285322619 285847438 L285322619 286342676 L285384523 286466485 L285446428 286528390 L285570238 286590295 L285817857 286590295 L285941666 286528390 L286003571 286466485 L286065476 286342676 L286065476 286033152 L286003571 285909342 L285941666 285847438 L285817857 285785533 L285570238 285785533 L285446428 285847438 L285384523 285909342 L285322619 286033152 "
         id="path282" />
    </g>
  </g>
  <g
     style="fill:#000000; fill-opacity:0.0;  stroke:#000000; stroke-width:21200.000000; stroke-opacity:1;  stroke-linecap:round; stroke-linejoin:round;"
     id="g288" />
  <g
     style="fill:#000000; fill-opacity:0.0;  stroke:#000000; stroke-width:150000.000000; stroke-opacity:1;  stroke-linecap:round; stroke-linejoin:round;"
     id="g298">
    <text
       x="335000000.000000"
       y="286652200.000000"
       textLength="1388095.000000"
       font-size="1733333.000000"
       lengthAdjust="spacingAndGlyphs"
       text-anchor="start"
       opacity="0"
       id="text290">7</text>
    <g
       class="stroked-text"
       id="g296">
      <desc
         id="desc292">7</desc>
      <path
         d="M335260714 285290295 L336127380 285290295 L335570238 286590295 "
         id="path294" />
    </g>
  </g>
  <g
     style="fill:#000000; fill-opacity:0.0;  stroke:#000000; stroke-width:21200.000000; stroke-opacity:1;  stroke-linecap:round; stroke-linejoin:round;"
     id="g300" />
  <g
     style="fill:#000000; fill-opacity:0.0;  stroke:#000000; stroke-width:150000.000000; stroke-opacity:1;  stroke-linecap:round; stroke-linejoin:round;"
     id="g310">
    <text
       x="385000000.000000"
       y="286652200.000000"
       textLength="1388095.000000"
       font-size="1733333.000000"
       lengthAdjust="spacingAndGlyphs"
       text-anchor="start"
       opacity="0"
       id="text302">8</text>
    <g
       class="stroked-text"
       id="g308">
      <desc
         id="desc304">8</desc>
      <path
         d="M385570238 285847438 L385446428 285785533 L385384523 285723628 L385322619 285599819 L385322619 285537914 L385384523 285414104 L385446428 285352200 L385570238 285290295 L385817857 285290295 L385941666 285352200 L386003571 285414104 L386065476 285537914 L386065476 285599819 L386003571 285723628 L385941666 285785533 L385817857 285847438 L385570238 285847438 L385446428 285909342 L385384523 285971247 L385322619 286095057 L385322619 286342676 L385384523 286466485 L385446428 286528390 L385570238 286590295 L385817857 286590295 L385941666 286528390 L386003571 286466485 L386065476 286342676 L386065476 286095057 L386003571 285971247 L385941666 285909342 L385817857 285847438 "
         id="path306" />
    </g>
  </g>
  <g
     style="fill:#000000; fill-opacity:0.0;  stroke:#000000; stroke-width:21200.000000; stroke-opacity:1;  stroke-linecap:round; stroke-linejoin:round;"
     id="g312" />
  <g
     style="fill:#000000; fill-opacity:0.0;  stroke:#000000; stroke-width:150000.000000; stroke-opacity:1;  stroke-linecap:round; stroke-linejoin:round;"
     id="g316">
    <path
       d="M10000000 60000000 L12000000 60000000 "
       id="path314" />
  </g>
  <g
     style="fill:#000000; fill-opacity:0.0;  stroke:#000000; stroke-width:21200.000000; stroke-opacity:1;  stroke-linecap:round; stroke-linejoin:round;"
     id="g318" />
  <g
     style="fill:#000000; fill-opacity:0.0;  stroke:#000000; stroke-width:150000.000000; stroke-opacity:1;  stroke-linecap:round; stroke-linejoin:round;"
     id="g322">
    <path
       d="M10000000 110000000 L12000000 110000000 "
       id="path320" />
  </g>
  <g
     style="fill:#000000; fill-opacity:0.0;  stroke:#000000; stroke-width:21200.000000; stroke-opacity:1;  stroke-linecap:round; stroke-linejoin:round;"
     id="g324" />
  <g
     style="fill:#000000; fill-opacity:0.0;  stroke:#000000; stroke-width:150000.000000; stroke-opacity:1;  stroke-linecap:round; stroke-linejoin:round;"
     id="g328">
    <path
       d="M10000000 160000000 L12000000 160000000 "
       id="path326" />
  </g>
  <g
     style="fill:#000000; fill-opacity:0.0;  stroke:#000000; stroke-width:21200.000000; stroke-opacity:1;  stroke-linecap:round; stroke-linejoin:round;"
     id="g330" />
  <g
     style="fill:#000000; fill-opacity:0.0;  stroke:#000000; stroke-width:150000.000000; stroke-opacity:1;  stroke-linecap:round; stroke-linejoin:round;"
     id="g334">
    <path
       d="M10000000 210000000 L12000000 210000000 "
       id="path332" />
  </g>
  <g
     style="fill:#000000; fill-opacity:0.0;  stroke:#000000; stroke-width:21200.000000; stroke-opacity:1;  stroke-linecap:round; stroke-linejoin:round;"
     id="g336" />
  <g
     style="fill:#000000; fill-opacity:0.0;  stroke:#000000; stroke-width:150000.000000; stroke-opacity:1;  stroke-linecap:round; stroke-linejoin:round;"
     id="g340">
    <path
       d="M10000000 260000000 L12000000 260000000 "
       id="path338" />
  </g>
  <g
     style="fill:#000000; fill-opacity:0.0;  stroke:#000000; stroke-width:21200.000000; stroke-opacity:1;  stroke-linecap:round; stroke-linejoin:round;"
     id="g342" />
  <g
     style="fill:#000000; fill-opacity:0.0;  stroke:#000000; stroke-width:150000.000000; stroke-opacity:1;  stroke-linecap:round; stroke-linejoin:round;"
     id="g354">
    <text
       x="11000000.000000"
       y="35650000.000000"
       textLength="1264286.000000"
       font-size="1733333.000000"
       lengthAdjust="spacingAndGlyphs"
       text-anchor="middle"
       opacity="0"
       id="text344">A</text>
    <g
       class="stroked-text"
       id="g352">
      <desc
         id="desc346">A</desc>
      <path
         d="M10690476 35216666 L11309523 35216666 "
         id="path348" />
      <path
         d="M10566666 35588095 L11000000 34288095 L11433333 35588095 "
         id="path350" />
    </g>
  </g>
  <g
     style="fill:#000000; fill-opacity:0.0;  stroke:#000000; stroke-width:21200.000000; stroke-opacity:1;  stroke-linecap:round; stroke-linejoin:round;"
     id="g356" />
  <g
     style="fill:#000000; fill-opacity:0.0;  stroke:#000000; stroke-width:150000.000000; stroke-opacity:1;  stroke-linecap:round; stroke-linejoin:round;"
     id="g366">
    <text
       x="11000000.000000"
       y="85650000.000000"
       textLength="1450000.000000"
       font-size="1733333.000000"
       lengthAdjust="spacingAndGlyphs"
       text-anchor="middle"
       opacity="0"
       id="text358">B</text>
    <g
       class="stroked-text"
       id="g364">
      <desc
         id="desc360">B</desc>
      <path
         d="M11092857 84907142 L11278571 84969047 L11340476 85030952 L11402380 85154761 L11402380 85340476 L11340476 85464285 L11278571 85526190 L11154761 85588095 L10659523 85588095 L10659523 84288095 L11092857 84288095 L11216666 84350000 L11278571 84411904 L11340476 84535714 L11340476 84659523 L11278571 84783333 L11216666 84845238 L11092857 84907142 L10659523 84907142 "
         id="path362" />
    </g>
  </g>
  <g
     style="fill:#000000; fill-opacity:0.0;  stroke:#000000; stroke-width:21200.000000; stroke-opacity:1;  stroke-linecap:round; stroke-linejoin:round;"
     id="g368" />
  <g
     style="fill:#000000; fill-opacity:0.0;  stroke:#000000; stroke-width:150000.000000; stroke-opacity:1;  stroke-linecap:round; stroke-linejoin:round;"
     id="g378">
    <text
       x="11000000.000000"
       y="135650000.000000"
       textLength="1450000.000000"
       font-size="1733333.000000"
       lengthAdjust="spacingAndGlyphs"
       text-anchor="middle"
       opacity="0"
       id="text370">C</text>
    <g
       class="stroked-text"
       id="g376">
      <desc
         id="desc372">C</desc>
      <path
         d="M11402380 135464285 L11340476 135526190 L11154761 135588095 L11030952 135588095 L10845238 135526190 L10721428 135402380 L10659523 135278571 L10597619 135030952 L10597619 134845238 L10659523 134597619 L10721428 134473809 L10845238 134350000 L11030952 134288095 L11154761 134288095 L11340476 134350000 L11402380 134411904 "
         id="path374" />
    </g>
  </g>
  <g
     style="fill:#000000; fill-opacity:0.0;  stroke:#000000; stroke-width:21200.000000; stroke-opacity:1;  stroke-linecap:round; stroke-linejoin:round;"
     id="g380" />
  <g
     style="fill:#000000; fill-opacity:0.0;  stroke:#000000; stroke-width:150000.000000; stroke-opacity:1;  stroke-linecap:round; stroke-linejoin:round;"
     id="g390">
    <text
       x="11000000.000000"
       y="185650000.000000"
       textLength="1450000.000000"
       font-size="1733333.000000"
       lengthAdjust="spacingAndGlyphs"
       text-anchor="middle"
       opacity="0"
       id="text382">D</text>
    <g
       class="stroked-text"
       id="g388">
      <desc
         id="desc384">D</desc>
      <path
         d="M10659523 185588095 L10659523 184288095 L10969047 184288095 L11154761 184350000 L11278571 184473809 L11340476 184597619 L11402380 184845238 L11402380 185030952 L11340476 185278571 L11278571 185402380 L11154761 185526190 L10969047 185588095 L10659523 185588095 "
         id="path386" />
    </g>
  </g>
  <g
     style="fill:#000000; fill-opacity:0.0;  stroke:#000000; stroke-width:21200.000000; stroke-opacity:1;  stroke-linecap:round; stroke-linejoin:round;"
     id="g392" />
  <g
     style="fill:#000000; fill-opacity:0.0;  stroke:#000000; stroke-width:150000.000000; stroke-opacity:1;  stroke-linecap:round; stroke-linejoin:round;"
     id="g404">
    <text
       x="11000000.000000"
       y="235650000.000000"
       textLength="1326190.000000"
       font-size="1733333.000000"
       lengthAdjust="spacingAndGlyphs"
       text-anchor="middle"
       opacity="0"
       id="text394">E</text>
    <g
       class="stroked-text"
       id="g402">
      <desc
         id="desc396">E</desc>
      <path
         d="M10721428 234907142 L11154761 234907142 "
         id="path398" />
      <path
         d="M11340476 235588095 L10721428 235588095 L10721428 234288095 L11340476 234288095 "
         id="path400" />
    </g>
  </g>
  <g
     style="fill:#000000; fill-opacity:0.0;  stroke:#000000; stroke-width:21200.000000; stroke-opacity:1;  stroke-linecap:round; stroke-linejoin:round;"
     id="g406" />
  <g
     style="fill:#000000; fill-opacity:0.0;  stroke:#000000; stroke-width:150000.000000; stroke-opacity:1;  stroke-linecap:round; stroke-linejoin:round;"
     id="g418">
    <text
       x="11000000.000000"
       y="285650000.000000"
       textLength="1264286.000000"
       font-size="1733333.000000"
       lengthAdjust="spacingAndGlyphs"
       text-anchor="middle"
       opacity="0"
       id="text408">F</text>
    <g
       class="stroked-text"
       id="g416">
      <desc
         id="desc410">F</desc>
      <path
         d="M11185714 284907142 L10752380 284907142 "
         id="path412" />
      <path
         d="M10752380 285588095 L10752380 284288095 L11371428 284288095 "
         id="path414" />
    </g>
  </g>
  <g
     style="fill:#000000; fill-opacity:0.0;  stroke:#000000; stroke-width:21200.000000; stroke-opacity:1;  stroke-linecap:round; stroke-linejoin:round;"
     id="g420" />
  <g
     style="fill:#000000; fill-opacity:0.0;  stroke:#000000; stroke-width:150000.000000; stroke-opacity:1;  stroke-linecap:round; stroke-linejoin:round;"
     id="g424">
    <path
       d="M409989000 60000000 L407989000 60000000 "
       id="path422" />
  </g>
  <g
     style="fill:#000000; fill-opacity:0.0;  stroke:#000000; stroke-width:21200.000000; stroke-opacity:1;  stroke-linecap:round; stroke-linejoin:round;"
     id="g426" />
  <g
     style="fill:#000000; fill-opacity:0.0;  stroke:#000000; stroke-width:150000.000000; stroke-opacity:1;  stroke-linecap:round; stroke-linejoin:round;"
     id="g430">
    <path
       d="M409989000 110000000 L407989000 110000000 "
       id="path428" />
  </g>
  <g
     style="fill:#000000; fill-opacity:0.0;  stroke:#000000; stroke-width:21200.000000; stroke-opacity:1;  stroke-linecap:round; stroke-linejoin:round;"
     id="g432" />
  <g
     style="fill:#000000; fill-opacity:0.0;  stroke:#000000; stroke-width:150000.000000; stroke-opacity:1;  stroke-linecap:round; stroke-linejoin:round;"
     id="g436">
    <path
       d="M409989000 160000000 L407989000 160000000 "
       id="path434" />
  </g>
  <g
     style="fill:#000000; fill-opacity:0.0;  stroke:#000000; stroke-width:21200.000000; stroke-opacity:1;  stroke-linecap:round; stroke-linejoin:round;"
     id="g438" />
  <g
     style="fill:#000000; fill-opacity:0.0;  stroke:#000000; stroke-width:150000.000000; stroke-opacity:1;  stroke-linecap:round; stroke-linejoin:round;"
     id="g442">
    <path
       d="M409989000 210000000 L407989000 210000000 "
       id="path440" />
  </g>
  <g
     style="fill:#000000; fill-opacity:0.0;  stroke:#000000; stroke-width:21200.000000; stroke-opacity:1;  stroke-linecap:round; stroke-linejoin:round;"
     id="g444" />
  <g
     style="fill:#000000; fill-opacity:0.0;  stroke:#000000; stroke-width:150000.000000; stroke-opacity:1;  stroke-linecap:round; stroke-linejoin:round;"
     id="g448">
    <path
       d="M409989000 260000000 L407989000 260000000 "
       id="path446" />
  </g>
  <g
     style="fill:#000000; fill-opacity:0.0;  stroke:#000000; stroke-width:21200.000000; stroke-opacity:1;  stroke-linecap:round; stroke-linejoin:round;"
     id="g450" />
  <g
     style="fill:#000000; fill-opacity:0.0;  stroke:#000000; stroke-width:150000.000000; stroke-opacity:1;  stroke-linecap:round; stroke-linejoin:round;"
     id="g462">
    <text
       x="408989000.000000"
       y="35650000.000000"
       textLength="1264286.000000"
       font-size="1733333.000000"
       lengthAdjust="spacingAndGlyphs"
       text-anchor="middle"
       opacity="0"
       id="text452">A</text>
    <g
       class="stroked-text"
       id="g460">
      <desc
         id="desc454">A</desc>
      <path
         d="M408679476 35216666 L409298523 35216666 "
         id="path456" />
      <path
         d="M408555666 35588095 L408989000 34288095 L409422333 35588095 "
         id="path458" />
    </g>
  </g>
  <g
     style="fill:#000000; fill-opacity:0.0;  stroke:#000000; stroke-width:21200.000000; stroke-opacity:1;  stroke-linecap:round; stroke-linejoin:round;"
     id="g464" />
  <g
     style="fill:#000000; fill-opacity:0.0;  stroke:#000000; stroke-width:150000.000000; stroke-opacity:1;  stroke-linecap:round; stroke-linejoin:round;"
     id="g474">
    <text
       x="408989000.000000"
       y="85650000.000000"
       textLength="1450000.000000"
       font-size="1733333.000000"
       lengthAdjust="spacingAndGlyphs"
       text-anchor="middle"
       opacity="0"
       id="text466">B</text>
    <g
       class="stroked-text"
       id="g472">
      <desc
         id="desc468">B</desc>
      <path
         d="M409081857 84907142 L409267571 84969047 L409329476 85030952 L409391380 85154761 L409391380 85340476 L409329476 85464285 L409267571 85526190 L409143761 85588095 L408648523 85588095 L408648523 84288095 L409081857 84288095 L409205666 84350000 L409267571 84411904 L409329476 84535714 L409329476 84659523 L409267571 84783333 L409205666 84845238 L409081857 84907142 L408648523 84907142 "
         id="path470" />
    </g>
  </g>
  <g
     style="fill:#000000; fill-opacity:0.0;  stroke:#000000; stroke-width:21200.000000; stroke-opacity:1;  stroke-linecap:round; stroke-linejoin:round;"
     id="g476" />
  <g
     style="fill:#000000; fill-opacity:0.0;  stroke:#000000; stroke-width:150000.000000; stroke-opacity:1;  stroke-linecap:round; stroke-linejoin:round;"
     id="g486">
    <text
       x="408989000.000000"
       y="135650000.000000"
       textLength="1450000.000000"
       font-size="1733333.000000"
       lengthAdjust="spacingAndGlyphs"
       text-anchor="middle"
       opacity="0"
       id="text478">C</text>
    <g
       class="stroked-text"
       id="g484">
      <desc
         id="desc480">C</desc>
      <path
         d="M409391380 135464285 L409329476 135526190 L409143761 135588095 L409019952 135588095 L408834238 135526190 L408710428 135402380 L408648523 135278571 L408586619 135030952 L408586619 134845238 L408648523 134597619 L408710428 134473809 L408834238 134350000 L409019952 134288095 L409143761 134288095 L409329476 134350000 L409391380 134411904 "
         id="path482" />
    </g>
  </g>
  <g
     style="fill:#000000; fill-opacity:0.0;  stroke:#000000; stroke-width:21200.000000; stroke-opacity:1;  stroke-linecap:round; stroke-linejoin:round;"
     id="g488" />
  <g
     style="fill:#000000; fill-opacity:0.0;  stroke:#000000; stroke-width:150000.000000; stroke-opacity:1;  stroke-linecap:round; stroke-linejoin:round;"
     id="g498">
    <text
       x="408989000.000000"
       y="185650000.000000"
       textLength="1450000.000000"
       font-size="1733333.000000"
       lengthAdjust="spacingAndGlyphs"
       text-anchor="middle"
       opacity="0"
       id="text490">D</text>
    <g
       class="stroked-text"
       id="g496">
      <desc
         id="desc492">D</desc>
      <path
         d="M408648523 185588095 L408648523 184288095 L408958047 184288095 L409143761 184350000 L409267571 184473809 L409329476 184597619 L409391380 184845238 L409391380 185030952 L409329476 185278571 L409267571 185402380 L409143761 185526190 L408958047 185588095 L408648523 185588095 "
         id="path494" />
    </g>
  </g>
  <g
     style="fill:#000000; fill-opacity:0.0;  stroke:#000000; stroke-width:21200.000000; stroke-opacity:1;  stroke-linecap:round; stroke-linejoin:round;"
     id="g500" />
  <g
     style="fill:#000000; fill-opacity:0.0;  stroke:#000000; stroke-width:150000.000000; stroke-opacity:1;  stroke-linecap:round; stroke-linejoin:round;"
     id="g512">
    <text
       x="408989000.000000"
       y="235650000.000000"
       textLength="1326190.000000"
       font-size="1733333.000000"
       lengthAdjust="spacingAndGlyphs"
       text-anchor="middle"
       opacity="0"
       id="text502">E</text>
    <g
       class="stroked-text"
       id="g510">
      <desc
         id="desc504">E</desc>
      <path
         d="M408710428 234907142 L409143761 234907142 "
         id="path506" />
      <path
         d="M409329476 235588095 L408710428 235588095 L408710428 234288095 L409329476 234288095 "
         id="path508" />
    </g>
  </g>
  <g
     style="fill:#000000; fill-opacity:0.0;  stroke:#000000; stroke-width:21200.000000; stroke-opacity:1;  stroke-linecap:round; stroke-linejoin:round;"
     id="g514" />
  <g
     style="fill:#000000; fill-opacity:0.0;  stroke:#000000; stroke-width:150000.000000; stroke-opacity:1;  stroke-linecap:round; stroke-linejoin:round;"
     id="g526">
    <text
       x="408989000.000000"
       y="285650000.000000"
       textLength="1264286.000000"
       font-size="1733333.000000"
       lengthAdjust="spacingAndGlyphs"
       text-anchor="middle"
       opacity="0"
       id="text516">F</text>
    <g
       class="stroked-text"
       id="g524">
      <desc
         id="desc518">F</desc>
      <path
         d="M409174714 284907142 L408741380 284907142 "
         id="path520" />
      <path
         d="M408741380 285588095 L408741380 284288095 L409360428 284288095 "
         id="path522" />
    </g>
  </g>
  <g
     style="fill:#000000; fill-opacity:0.0;  stroke:#000000; stroke-width:21200.000000; stroke-opacity:1;  stroke-linecap:round; stroke-linejoin:round;"
     id="g528" />
  <g
     style="fill:#000000; fill-opacity:0.0;  stroke:#000000; stroke-width:150000.000000; stroke-opacity:1;  stroke-linecap:round; stroke-linejoin:round;"
     id="g552">
    <text
       x="322989000.000000"
       y="280852200.000000"
       textLength="7007143.000000"
       font-size="2000000.000000"
       lengthAdjust="spacingAndGlyphs"
       text-anchor="start"
       opacity="0"
       id="text530">Date: </text>
    <g
       class="stroked-text"
       id="g550">
      <desc
         id="desc532">Date: </desc>
      <path
         d="M323421142 280780771 L323421142 279280771 L323778285 279280771 L323992571 279352200 L324135428 279495057 L324206857 279637914 L324278285 279923628 L324278285 280137914 L324206857 280423628 L324135428 280566485 L323992571 280709342 L323778285 280780771 L323421142 280780771 "
         id="path534" />
      <path
         d="M325564000 280780771 L325564000 279995057 L325492571 279852200 L325349714 279780771 L325064000 279780771 L324921142 279852200 "
         id="path536" />
      <path
         d="M325564000 280709342 L325421142 280780771 L325064000 280780771 L324921142 280709342 L324849714 280566485 L324849714 280423628 L324921142 280280771 L325064000 280209342 L325421142 280209342 L325564000 280137914 "
         id="path538" />
      <path
         d="M326064000 279780771 L326635428 279780771 "
         id="path540" />
      <path
         d="M326278285 279280771 L326278285 280566485 L326349714 280709342 L326492571 280780771 L326635428 280780771 "
         id="path542" />
      <path
         d="M327706857 280709342 L327564000 280780771 L327278285 280780771 L327135428 280709342 L327064000 280566485 L327064000 279995057 L327135428 279852200 L327278285 279780771 L327564000 279780771 L327706857 279852200 L327778285 279995057 L327778285 280137914 L327064000 280280771 "
         id="path544" />
      <path
         d="M328421142 280637914 L328492571 280709342 L328421142 280780771 L328349714 280709342 L328421142 280637914 L328421142 280780771 "
         id="path546" />
      <path
         d="M328421142 279852200 L328492571 279923628 L328421142 279995057 L328349714 279923628 L328421142 279852200 L328421142 279995057 "
         id="path548" />
    </g>
  </g>
  <g
     style="fill:#000000; fill-opacity:0.0;  stroke:#000000; stroke-width:21200.000000; stroke-opacity:1;  stroke-linecap:round; stroke-linejoin:round;"
     id="g554" />
  <g
     style="fill:#000000; fill-opacity:0.0;  stroke:#000000; stroke-width:150000.000000; stroke-opacity:1;  stroke-linecap:round; stroke-linejoin:round;"
     id="g558">
    <path
       d="M299989000 281502200 L407989000 281502200 "
       id="path556" />
  </g>
  <g
     style="fill:#000000; fill-opacity:0.0;  stroke:#000000; stroke-width:21200.000000; stroke-opacity:1;  stroke-linecap:round; stroke-linejoin:round;"
     id="g560" />
  <g
     style="fill:#000000; fill-opacity:0.0;  stroke:#000000; stroke-width:150000.000000; stroke-opacity:1;  stroke-linecap:round; stroke-linejoin:round;"
     id="g722">
    <text
       x="300989000.000000"
       y="283652200.000000"
       textLength="68578571.000000"
       font-size="2000000.000000"
       lengthAdjust="spacingAndGlyphs"
       text-anchor="start"
       opacity="0"
       id="text562">KiCad E.D.A.  pcbnew 6.0.0-d3dd2cf0fa~116~ubuntu20.04.1</text>
    <g
       class="stroked-text"
       id="g720">
      <desc
         id="desc564">KiCad E.D.A.  pcbnew 6.0.0-d3dd2cf0fa~116~ubuntu20.04.1</desc>
      <path
         d="M301421142 283580771 L301421142 282080771 "
         id="path566" />
      <path
         d="M302278285 283580771 L301635428 282723628 "
         id="path568" />
      <path
         d="M302278285 282080771 L301421142 282937914 "
         id="path570" />
      <path
         d="M302921142 283580771 L302921142 282580771 "
         id="path572" />
      <path
         d="M302921142 282080771 L302849714 282152200 L302921142 282223628 L302992571 282152200 L302921142 282080771 L302921142 282223628 "
         id="path574" />
      <path
         d="M304492571 283437914 L304421142 283509342 L304206857 283580771 L304064000 283580771 L303849714 283509342 L303706857 283366485 L303635428 283223628 L303564000 282937914 L303564000 282723628 L303635428 282437914 L303706857 282295057 L303849714 282152200 L304064000 282080771 L304206857 282080771 L304421142 282152200 L304492571 282223628 "
         id="path576" />
      <path
         d="M305778285 283580771 L305778285 282795057 L305706857 282652200 L305564000 282580771 L305278285 282580771 L305135428 282652200 "
         id="path578" />
      <path
         d="M305778285 283509342 L305635428 283580771 L305278285 283580771 L305135428 283509342 L305064000 283366485 L305064000 283223628 L305135428 283080771 L305278285 283009342 L305635428 283009342 L305778285 282937914 "
         id="path580" />
      <path
         d="M307135428 283580771 L307135428 282080771 "
         id="path582" />
      <path
         d="M307135428 283509342 L306992571 283580771 L306706857 283580771 L306564000 283509342 L306492571 283437914 L306421142 283295057 L306421142 282866485 L306492571 282723628 L306564000 282652200 L306706857 282580771 L306992571 282580771 L307135428 282652200 "
         id="path584" />
      <path
         d="M308992571 282795057 L309492571 282795057 "
         id="path586" />
      <path
         d="M309706857 283580771 L308992571 283580771 L308992571 282080771 L309706857 282080771 "
         id="path588" />
      <path
         d="M310349714 283437914 L310421142 283509342 L310349714 283580771 L310278285 283509342 L310349714 283437914 L310349714 283580771 "
         id="path590" />
      <path
         d="M311064000 283580771 L311064000 282080771 L311421142 282080771 L311635428 282152200 L311778285 282295057 L311849714 282437914 L311921142 282723628 L311921142 282937914 L311849714 283223628 L311778285 283366485 L311635428 283509342 L311421142 283580771 L311064000 283580771 "
         id="path592" />
      <path
         d="M312564000 283437914 L312635428 283509342 L312564000 283580771 L312492571 283509342 L312564000 283437914 L312564000 283580771 "
         id="path594" />
      <path
         d="M313206857 283152200 L313921142 283152200 "
         id="path596" />
      <path
         d="M313064000 283580771 L313564000 282080771 L314064000 283580771 "
         id="path598" />
      <path
         d="M314564000 283437914 L314635428 283509342 L314564000 283580771 L314492571 283509342 L314564000 283437914 L314564000 283580771 "
         id="path600" />
      <path
         d="M317564000 282580771 L317564000 284080771 "
         id="path602" />
      <path
         d="M317564000 282652200 L317706857 282580771 L317992571 282580771 L318135428 282652200 L318206857 282723628 L318278285 282866485 L318278285 283295057 L318206857 283437914 L318135428 283509342 L317992571 283580771 L317706857 283580771 L317564000 283509342 "
         id="path604" />
      <path
         d="M319564000 283509342 L319421142 283580771 L319135428 283580771 L318992571 283509342 L318921142 283437914 L318849714 283295057 L318849714 282866485 L318921142 282723628 L318992571 282652200 L319135428 282580771 L319421142 282580771 L319564000 282652200 "
         id="path606" />
      <path
         d="M320206857 283580771 L320206857 282080771 "
         id="path608" />
      <path
         d="M320206857 282652200 L320349714 282580771 L320635428 282580771 L320778285 282652200 L320849714 282723628 L320921142 282866485 L320921142 283295057 L320849714 283437914 L320778285 283509342 L320635428 283580771 L320349714 283580771 L320206857 283509342 "
         id="path610" />
      <path
         d="M321564000 282580771 L321564000 283580771 "
         id="path612" />
      <path
         d="M321564000 282723628 L321635428 282652200 L321778285 282580771 L321992571 282580771 L322135428 282652200 L322206857 282795057 L322206857 283580771 "
         id="path614" />
      <path
         d="M323492571 283509342 L323349714 283580771 L323064000 283580771 L322921142 283509342 L322849714 283366485 L322849714 282795057 L322921142 282652200 L323064000 282580771 L323349714 282580771 L323492571 282652200 L323564000 282795057 L323564000 282937914 L322849714 283080771 "
         id="path616" />
      <path
         d="M324064000 282580771 L324349714 283580771 L324635428 282866485 L324921142 283580771 L325206857 282580771 "
         id="path618" />
      <path
         d="M327564000 282080771 L327278285 282080771 L327135428 282152200 L327064000 282223628 L326921142 282437914 L326849714 282723628 L326849714 283295057 L326921142 283437914 L326992571 283509342 L327135428 283580771 L327421142 283580771 L327564000 283509342 L327635428 283437914 L327706857 283295057 L327706857 282937914 L327635428 282795057 L327564000 282723628 L327421142 282652200 L327135428 282652200 L326992571 282723628 L326921142 282795057 L326849714 282937914 "
         id="path620" />
      <path
         d="M328349714 283437914 L328421142 283509342 L328349714 283580771 L328278285 283509342 L328349714 283437914 L328349714 283580771 "
         id="path622" />
      <path
         d="M329349714 282080771 L329492571 282080771 L329635428 282152200 L329706857 282223628 L329778285 282366485 L329849714 282652200 L329849714 283009342 L329778285 283295057 L329706857 283437914 L329635428 283509342 L329492571 283580771 L329349714 283580771 L329206857 283509342 L329135428 283437914 L329064000 283295057 L328992571 283009342 L328992571 282652200 L329064000 282366485 L329135428 282223628 L329206857 282152200 L329349714 282080771 "
         id="path624" />
      <path
         d="M330492571 283437914 L330564000 283509342 L330492571 283580771 L330421142 283509342 L330492571 283437914 L330492571 283580771 "
         id="path626" />
      <path
         d="M331492571 282080771 L331635428 282080771 L331778285 282152200 L331849714 282223628 L331921142 282366485 L331992571 282652200 L331992571 283009342 L331921142 283295057 L331849714 283437914 L331778285 283509342 L331635428 283580771 L331492571 283580771 L331349714 283509342 L331278285 283437914 L331206857 283295057 L331135428 283009342 L331135428 282652200 L331206857 282366485 L331278285 282223628 L331349714 282152200 L331492571 282080771 "
         id="path628" />
      <path
         d="M332635428 283009342 L333778285 283009342 "
         id="path630" />
      <path
         d="M335135428 283580771 L335135428 282080771 "
         id="path632" />
      <path
         d="M335135428 283509342 L334992571 283580771 L334706857 283580771 L334564000 283509342 L334492571 283437914 L334421142 283295057 L334421142 282866485 L334492571 282723628 L334564000 282652200 L334706857 282580771 L334992571 282580771 L335135428 282652200 "
         id="path634" />
      <path
         d="M335706857 282080771 L336635428 282080771 L336135428 282652200 L336349714 282652200 L336492571 282723628 L336564000 282795057 L336635428 282937914 L336635428 283295057 L336564000 283437914 L336492571 283509342 L336349714 283580771 L335921142 283580771 L335778285 283509342 L335706857 283437914 "
         id="path636" />
      <path
         d="M337921142 283580771 L337921142 282080771 "
         id="path638" />
      <path
         d="M337921142 283509342 L337778285 283580771 L337492571 283580771 L337349714 283509342 L337278285 283437914 L337206857 283295057 L337206857 282866485 L337278285 282723628 L337349714 282652200 L337492571 282580771 L337778285 282580771 L337921142 282652200 "
         id="path640" />
      <path
         d="M339278285 283580771 L339278285 282080771 "
         id="path642" />
      <path
         d="M339278285 283509342 L339135428 283580771 L338849714 283580771 L338706857 283509342 L338635428 283437914 L338564000 283295057 L338564000 282866485 L338635428 282723628 L338706857 282652200 L338849714 282580771 L339135428 282580771 L339278285 282652200 "
         id="path644" />
      <path
         d="M339921142 282223628 L339992571 282152200 L340135428 282080771 L340492571 282080771 L340635428 282152200 L340706857 282223628 L340778285 282366485 L340778285 282509342 L340706857 282723628 L339849714 283580771 L340778285 283580771 "
         id="path646" />
      <path
         d="M342064000 283509342 L341921142 283580771 L341635428 283580771 L341492571 283509342 L341421142 283437914 L341349714 283295057 L341349714 282866485 L341421142 282723628 L341492571 282652200 L341635428 282580771 L341921142 282580771 L342064000 282652200 "
         id="path648" />
      <path
         d="M342492571 282580771 L343064000 282580771 "
         id="path650" />
      <path
         d="M342706857 283580771 L342706857 282295057 L342778285 282152200 L342921142 282080771 L343064000 282080771 "
         id="path652" />
      <path
         d="M343849714 282080771 L343992571 282080771 L344135428 282152200 L344206857 282223628 L344278285 282366485 L344349714 282652200 L344349714 283009342 L344278285 283295057 L344206857 283437914 L344135428 283509342 L343992571 283580771 L343849714 283580771 L343706857 283509342 L343635428 283437914 L343564000 283295057 L343492571 283009342 L343492571 282652200 L343564000 282366485 L343635428 282223628 L343706857 282152200 L343849714 282080771 "
         id="path654" />
      <path
         d="M344778285 282580771 L345349714 282580771 "
         id="path656" />
      <path
         d="M344992571 283580771 L344992571 282295057 L345064000 282152200 L345206857 282080771 L345349714 282080771 "
         id="path658" />
      <path
         d="M346492571 283580771 L346492571 282795057 L346421142 282652200 L346278285 282580771 L345992571 282580771 L345849714 282652200 "
         id="path660" />
      <path
         d="M346492571 283509342 L346349714 283580771 L345992571 283580771 L345849714 283509342 L345778285 283366485 L345778285 283223628 L345849714 283080771 L345992571 283009342 L346349714 283009342 L346492571 282937914 "
         id="path662" />
      <path
         d="M346992571 283009342 L347064000 282937914 L347206857 282866485 L347492571 283009342 L347635428 282937914 L347706857 282866485 "
         id="path664" />
      <path
         d="M349064000 283580771 L348206857 283580771 "
         id="path666" />
      <path
         d="M348635428 283580771 L348635428 282080771 L348492571 282295057 L348349714 282437914 L348206857 282509342 "
         id="path668" />
      <path
         d="M350492571 283580771 L349635428 283580771 "
         id="path670" />
      <path
         d="M350064000 283580771 L350064000 282080771 L349921142 282295057 L349778285 282437914 L349635428 282509342 "
         id="path672" />
      <path
         d="M351778285 282080771 L351492571 282080771 L351349714 282152200 L351278285 282223628 L351135428 282437914 L351064000 282723628 L351064000 283295057 L351135428 283437914 L351206857 283509342 L351349714 283580771 L351635428 283580771 L351778285 283509342 L351849714 283437914 L351921142 283295057 L351921142 282937914 L351849714 282795057 L351778285 282723628 L351635428 282652200 L351349714 282652200 L351206857 282723628 L351135428 282795057 L351064000 282937914 "
         id="path674" />
      <path
         d="M352349714 283009342 L352421142 282937914 L352564000 282866485 L352849714 283009342 L352992571 282937914 L353064000 282866485 "
         id="path676" />
      <path
         d="M354278285 282580771 L354278285 283580771 "
         id="path678" />
      <path
         d="M353635428 282580771 L353635428 283366485 L353706857 283509342 L353849714 283580771 L354064000 283580771 L354206857 283509342 L354278285 283437914 "
         id="path680" />
      <path
         d="M354992571 283580771 L354992571 282080771 "
         id="path682" />
      <path
         d="M354992571 282652200 L355135428 282580771 L355421142 282580771 L355564000 282652200 L355635428 282723628 L355706857 282866485 L355706857 283295057 L355635428 283437914 L355564000 283509342 L355421142 283580771 L355135428 283580771 L354992571 283509342 "
         id="path684" />
      <path
         d="M356992571 282580771 L356992571 283580771 "
         id="path686" />
      <path
         d="M356349714 282580771 L356349714 283366485 L356421142 283509342 L356564000 283580771 L356778285 283580771 L356921142 283509342 L356992571 283437914 "
         id="path688" />
      <path
         d="M357706857 282580771 L357706857 283580771 "
         id="path690" />
      <path
         d="M357706857 282723628 L357778285 282652200 L357921142 282580771 L358135428 282580771 L358278285 282652200 L358349714 282795057 L358349714 283580771 "
         id="path692" />
      <path
         d="M358849714 282580771 L359421142 282580771 "
         id="path694" />
      <path
         d="M359064000 282080771 L359064000 283366485 L359135428 283509342 L359278285 283580771 L359421142 283580771 "
         id="path696" />
      <path
         d="M360564000 282580771 L360564000 283580771 "
         id="path698" />
      <path
         d="M359921142 282580771 L359921142 283366485 L359992571 283509342 L360135428 283580771 L360349714 283580771 L360492571 283509342 L360564000 283437914 "
         id="path700" />
      <path
         d="M361206857 282223628 L361278285 282152200 L361421142 282080771 L361778285 282080771 L361921142 282152200 L361992571 282223628 L362064000 282366485 L362064000 282509342 L361992571 282723628 L361135428 283580771 L362064000 283580771 "
         id="path702" />
      <path
         d="M362992571 282080771 L363135428 282080771 L363278285 282152200 L363349714 282223628 L363421142 282366485 L363492571 282652200 L363492571 283009342 L363421142 283295057 L363349714 283437914 L363278285 283509342 L363135428 283580771 L362992571 283580771 L362849714 283509342 L362778285 283437914 L362706857 283295057 L362635428 283009342 L362635428 282652200 L362706857 282366485 L362778285 282223628 L362849714 282152200 L362992571 282080771 "
         id="path704" />
      <path
         d="M364135428 283437914 L364206857 283509342 L364135428 283580771 L364064000 283509342 L364135428 283437914 L364135428 283580771 "
         id="path706" />
      <path
         d="M365135428 282080771 L365278285 282080771 L365421142 282152200 L365492571 282223628 L365564000 282366485 L365635428 282652200 L365635428 283009342 L365564000 283295057 L365492571 283437914 L365421142 283509342 L365278285 283580771 L365135428 283580771 L364992571 283509342 L364921142 283437914 L364849714 283295057 L364778285 283009342 L364778285 282652200 L364849714 282366485 L364921142 282223628 L364992571 282152200 L365135428 282080771 "
         id="path708" />
      <path
         d="M366921142 282580771 L366921142 283580771 "
         id="path710" />
      <path
         d="M366564000 282009342 L366206857 283080771 L367135428 283080771 "
         id="path712" />
      <path
         d="M367706857 283437914 L367778285 283509342 L367706857 283580771 L367635428 283509342 L367706857 283437914 L367706857 283580771 "
         id="path714" />
      <path
         d="M369206857 283580771 L368349714 283580771 "
         id="path716" />
      <path
         d="M368778285 283580771 L368778285 282080771 L368635428 282295057 L368492571 282437914 L368349714 282509342 "
         id="path718" />
    </g>
  </g>
  <g
     style="fill:#000000; fill-opacity:0.0;  stroke:#000000; stroke-width:21200.000000; stroke-opacity:1;  stroke-linecap:round; stroke-linejoin:round;"
     id="g724" />
  <g
     style="fill:#000000; fill-opacity:0.0;  stroke:#000000; stroke-width:150000.000000; stroke-opacity:1;  stroke-linecap:round; stroke-linejoin:round;"
     id="g728">
    <path
       d="M299989000 278502200 L407989000 278502200 "
       id="path726" />
  </g>
  <g
     style="fill:#000000; fill-opacity:0.0;  stroke:#000000; stroke-width:21200.000000; stroke-opacity:1;  stroke-linecap:round; stroke-linejoin:round;"
     id="g730" />
  <g
     style="fill:#000000; fill-opacity:0.0;  stroke:#000000; stroke-width:300000.000000; stroke-opacity:1;  stroke-linecap:round; stroke-linejoin:round;"
     id="g760">
    <text
       x="385989000.000000"
       y="280852200.000000"
       textLength="10650000.000000"
       font-size="2000000.000000"
       lengthAdjust="spacingAndGlyphs"
       text-anchor="start"
       opacity="0"
       id="text732">Rev: v0.1</text>
    <g
       class="stroked-text"
       id="g758">
      <desc
         id="desc734">Rev: v0.1</desc>
      <path
         d="M387398285 280780771 L386898285 280066485 "
         id="path736" />
      <path
         d="M386541142 280780771 L386541142 279280771 L387112571 279280771 L387255428 279352200 L387326857 279423628 L387398285 279566485 L387398285 279780771 L387326857 279923628 L387255428 279995057 L387112571 280066485 L386541142 280066485 "
         id="path738" />
      <path
         d="M388612571 280709342 L388469714 280780771 L388184000 280780771 L388041142 280709342 L387969714 280566485 L387969714 279995057 L388041142 279852200 L388184000 279780771 L388469714 279780771 L388612571 279852200 L388684000 279995057 L388684000 280137914 L387969714 280280771 "
         id="path740" />
      <path
         d="M389184000 279780771 L389541142 280780771 L389898285 279780771 "
         id="path742" />
      <path
         d="M390469714 280637914 L390541142 280709342 L390469714 280780771 L390398285 280709342 L390469714 280637914 L390469714 280780771 "
         id="path744" />
      <path
         d="M390469714 279852200 L390541142 279923628 L390469714 279995057 L390398285 279923628 L390469714 279852200 L390469714 279995057 "
         id="path746" />
      <path
         d="M392184000 279780771 L392541142 280780771 L392898285 279780771 "
         id="path748" />
      <path
         d="M393755428 279280771 L393898285 279280771 L394041142 279352200 L394112571 279423628 L394184000 279566485 L394255428 279852200 L394255428 280209342 L394184000 280495057 L394112571 280637914 L394041142 280709342 L393898285 280780771 L393755428 280780771 L393612571 280709342 L393541142 280637914 L393469714 280495057 L393398285 280209342 L393398285 279852200 L393469714 279566485 L393541142 279423628 L393612571 279352200 L393755428 279280771 "
         id="path750" />
      <path
         d="M394898285 280637914 L394969714 280709342 L394898285 280780771 L394826857 280709342 L394898285 280637914 L394898285 280780771 "
         id="path752" />
      <path
         d="M396398285 280780771 L395541142 280780771 "
         id="path754" />
      <path
         d="M395969714 280780771 L395969714 279280771 L395826857 279495057 L395684000 279637914 L395541142 279709342 "
         id="path756" />
    </g>
  </g>
  <g
     style="fill:#000000; fill-opacity:0.0;  stroke:#000000; stroke-width:21200.000000; stroke-opacity:1;  stroke-linecap:round; stroke-linejoin:round;"
     id="g762" />
  <g
     style="fill:#000000; fill-opacity:0.0;  stroke:#000000; stroke-width:150000.000000; stroke-opacity:1;  stroke-linecap:round; stroke-linejoin:round;"
     id="g790">
    <text
       x="300989000.000000"
       y="280852200.000000"
       textLength="9604286.000000"
       font-size="2000000.000000"
       lengthAdjust="spacingAndGlyphs"
       text-anchor="start"
       opacity="0"
       id="text764">Size: A3</text>
    <g
       class="stroked-text"
       id="g788">
      <desc
         id="desc766">Size: A3</desc>
      <path
         d="M301349714 280709342 L301564000 280780771 L301921142 280780771 L302064000 280709342 L302135428 280637914 L302206857 280495057 L302206857 280352200 L302135428 280209342 L302064000 280137914 L301921142 280066485 L301635428 279995057 L301492571 279923628 L301421142 279852200 L301349714 279709342 L301349714 279566485 L301421142 279423628 L301492571 279352200 L301635428 279280771 L301992571 279280771 L302206857 279352200 "
         id="path768" />
      <path
         d="M302849714 280780771 L302849714 279780771 "
         id="path770" />
      <path
         d="M302849714 279280771 L302778285 279352200 L302849714 279423628 L302921142 279352200 L302849714 279280771 L302849714 279423628 "
         id="path772" />
      <path
         d="M303421142 279780771 L304206857 279780771 L303421142 280780771 L304206857 280780771 "
         id="path774" />
      <path
         d="M305349714 280709342 L305206857 280780771 L304921142 280780771 L304778285 280709342 L304706857 280566485 L304706857 279995057 L304778285 279852200 L304921142 279780771 L305206857 279780771 L305349714 279852200 L305421142 279995057 L305421142 280137914 L304706857 280280771 "
         id="path776" />
      <path
         d="M306064000 280637914 L306135428 280709342 L306064000 280780771 L305992571 280709342 L306064000 280637914 L306064000 280780771 "
         id="path778" />
      <path
         d="M306064000 279852200 L306135428 279923628 L306064000 279995057 L305992571 279923628 L306064000 279852200 L306064000 279995057 "
         id="path780" />
      <path
         d="M307849714 280352200 L308564000 280352200 "
         id="path782" />
      <path
         d="M307706857 280780771 L308206857 279280771 L308706857 280780771 "
         id="path784" />
      <path
         d="M309064000 279280771 L309992571 279280771 L309492571 279852200 L309706857 279852200 L309849714 279923628 L309921142 279995057 L309992571 280137914 L309992571 280495057 L309921142 280637914 L309849714 280709342 L309706857 280780771 L309278285 280780771 L309135428 280709342 L309064000 280637914 "
         id="path786" />
    </g>
  </g>
  <g
     style="fill:#000000; fill-opacity:0.0;  stroke:#000000; stroke-width:21200.000000; stroke-opacity:1;  stroke-linecap:round; stroke-linejoin:round;"
     id="g792" />
  <g
     style="fill:#000000; fill-opacity:0.0;  stroke:#000000; stroke-width:150000.000000; stroke-opacity:1;  stroke-linecap:round; stroke-linejoin:round;"
     id="g820">
    <text
       x="385989000.000000"
       y="283652200.000000"
       textLength="8507143.000000"
       font-size="2000000.000000"
       lengthAdjust="spacingAndGlyphs"
       text-anchor="start"
       opacity="0"
       id="text794">Id: 1/1</text>
    <g
       class="stroked-text"
       id="g818">
      <desc
         id="desc796">Id: 1/1</desc>
      <path
         d="M386421142 283580771 L386421142 282080771 "
         id="path798" />
      <path
         d="M387778285 283580771 L387778285 282080771 "
         id="path800" />
      <path
         d="M387778285 283509342 L387635428 283580771 L387349714 283580771 L387206857 283509342 L387135428 283437914 L387064000 283295057 L387064000 282866485 L387135428 282723628 L387206857 282652200 L387349714 282580771 L387635428 282580771 L387778285 282652200 "
         id="path802" />
      <path
         d="M388492571 283437914 L388564000 283509342 L388492571 283580771 L388421142 283509342 L388492571 283437914 L388492571 283580771 "
         id="path804" />
      <path
         d="M388492571 282652200 L388564000 282723628 L388492571 282795057 L388421142 282723628 L388492571 282652200 L388492571 282795057 "
         id="path806" />
      <path
         d="M391135428 283580771 L390278285 283580771 "
         id="path808" />
      <path
         d="M390706857 283580771 L390706857 282080771 L390564000 282295057 L390421142 282437914 L390278285 282509342 "
         id="path810" />
      <path
         d="M392849714 282009342 L391564000 283937914 "
         id="path812" />
      <path
         d="M394135428 283580771 L393278285 283580771 "
         id="path814" />
      <path
         d="M393706857 283580771 L393706857 282080771 L393564000 282295057 L393421142 282437914 L393278285 282509342 "
         id="path816" />
    </g>
  </g>
  <g
     style="fill:#000000; fill-opacity:0.0;  stroke:#000000; stroke-width:21200.000000; stroke-opacity:1;  stroke-linecap:round; stroke-linejoin:round;"
     id="g822" />
  <g
     style="fill:#000000; fill-opacity:0.0;  stroke:#000000; stroke-width:150000.000000; stroke-opacity:1;  stroke-linecap:round; stroke-linejoin:round;"
     id="g826">
    <path
       d="M299989000 274502200 L407989000 274502200 "
       id="path824" />
  </g>
  <g
     style="fill:#000000; fill-opacity:0.0;  stroke:#000000; stroke-width:21200.000000; stroke-opacity:1;  stroke-linecap:round; stroke-linejoin:round;"
     id="g828" />
  <g
     style="fill:#000000; fill-opacity:0.0;  stroke:#000000; stroke-width:400000.000000; stroke-opacity:1;  stroke-linecap:round; stroke-linejoin:round;"
     id="g872">
    <text
       x="300989000.000000"
       y="277302200.000000"
       textLength="18933452.000000"
       font-size="2666666.000000"
       lengthAdjust="spacingAndGlyphs"
       text-anchor="start"
       opacity="0"
       id="text830">Title: Wubbo</text>
    <g
       class="stroked-text"
       id="g870">
      <desc
         id="desc832">Title: Wubbo</desc>
      <path
         d="M301701380 275206961 L302844238 275206961 "
         id="path834" />
      <path
         d="M302022809 277206961 L302272809 275206961 "
         id="path836" />
      <path
         d="M303260904 277206961 L303427571 275873628 "
         id="path838" />
      <path
         d="M303510904 275206961 L303403761 275302200 L303487095 275397438 L303594238 275302200 L303510904 275206961 L303487095 275397438 "
         id="path840" />
      <path
         d="M304094238 275873628 L304856142 275873628 "
         id="path842" />
      <path
         d="M304463285 275206961 L304249000 276921247 L304320428 277111723 L304499000 277206961 L304689476 277206961 "
         id="path844" />
      <path
         d="M305641857 277206961 L305463285 277111723 L305391857 276921247 L305606142 275206961 "
         id="path846" />
      <path
         d="M307177571 277111723 L306975190 277206961 L306594238 277206961 L306415666 277111723 L306344238 276921247 L306439476 276159342 L306558523 275968866 L306760904 275873628 L307141857 275873628 L307320428 275968866 L307391857 276159342 L307368047 276349819 L306391857 276540295 "
         id="path848" />
      <path
         d="M308141857 277016485 L308225190 277111723 L308118047 277206961 L308034714 277111723 L308141857 277016485 L308118047 277206961 "
         id="path850" />
      <path
         d="M308272809 275968866 L308356142 276064104 L308249000 276159342 L308165666 276064104 L308272809 275968866 L308249000 276159342 "
         id="path852" />
      <path
         d="M310653761 275206961 L310879952 277206961 L311439476 275778390 L311641857 277206961 L312368047 275206961 "
         id="path854" />
      <path
         d="M313903761 275873628 L313737095 277206961 "
         id="path856" />
      <path
         d="M313046619 275873628 L312915666 276921247 L312987095 277111723 L313165666 277206961 L313451380 277206961 L313653761 277111723 L313760904 277016485 "
         id="path858" />
      <path
         d="M314689476 277206961 L314939476 275206961 "
         id="path860" />
      <path
         d="M314844238 275968866 L315046619 275873628 L315427571 275873628 L315606142 275968866 L315689476 276064104 L315760904 276254580 L315689476 276826009 L315570428 277016485 L315463285 277111723 L315260904 277206961 L314879952 277206961 L314701380 277111723 "
         id="path862" />
      <path
         d="M316499000 277206961 L316749000 275206961 "
         id="path864" />
      <path
         d="M316653761 275968866 L316856142 275873628 L317237095 275873628 L317415666 275968866 L317499000 276064104 L317570428 276254580 L317499000 276826009 L317379952 277016485 L317272809 277111723 L317070428 277206961 L316689476 277206961 L316510904 277111723 "
         id="path866" />
      <path
         d="M318594238 277206961 L318415666 277111723 L318332333 277016485 L318260904 276826009 L318332333 276254580 L318451380 276064104 L318558523 275968866 L318760904 275873628 L319046619 275873628 L319225190 275968866 L319308523 276064104 L319379952 276254580 L319308523 276826009 L319189476 277016485 L319082333 277111723 L318879952 277206961 L318594238 277206961 "
         id="path868" />
    </g>
  </g>
  <g
     style="fill:#000000; fill-opacity:0.0;  stroke:#000000; stroke-width:21200.000000; stroke-opacity:1;  stroke-linecap:round; stroke-linejoin:round;"
     id="g874" />
  <g
     style="fill:#000000; fill-opacity:0.0;  stroke:#000000; stroke-width:150000.000000; stroke-opacity:1;  stroke-linecap:round; stroke-linejoin:round;"
     id="g968">
    <text
       x="300989000.000000"
       y="273452200.000000"
       textLength="33091429.000000"
       font-size="2000000.000000"
       lengthAdjust="spacingAndGlyphs"
       text-anchor="start"
       opacity="0"
       id="text876">File: Bottom_Plate.kicad_pcb</text>
    <g
       class="stroked-text"
       id="g966">
      <desc
         id="desc878">File: Bottom_Plate.kicad_pcb</desc>
      <path
         d="M301921142 272595057 L301421142 272595057 "
         id="path880" />
      <path
         d="M301421142 273380771 L301421142 271880771 L302135428 271880771 "
         id="path882" />
      <path
         d="M302706857 273380771 L302706857 272380771 "
         id="path884" />
      <path
         d="M302706857 271880771 L302635428 271952200 L302706857 272023628 L302778285 271952200 L302706857 271880771 L302706857 272023628 "
         id="path886" />
      <path
         d="M303635428 273380771 L303492571 273309342 L303421142 273166485 L303421142 271880771 "
         id="path888" />
      <path
         d="M304778285 273309342 L304635428 273380771 L304349714 273380771 L304206857 273309342 L304135428 273166485 L304135428 272595057 L304206857 272452200 L304349714 272380771 L304635428 272380771 L304778285 272452200 L304849714 272595057 L304849714 272737914 L304135428 272880771 "
         id="path890" />
      <path
         d="M305492571 273237914 L305564000 273309342 L305492571 273380771 L305421142 273309342 L305492571 273237914 L305492571 273380771 "
         id="path892" />
      <path
         d="M305492571 272452200 L305564000 272523628 L305492571 272595057 L305421142 272523628 L305492571 272452200 L305492571 272595057 "
         id="path894" />
      <path
         d="M307849714 272595057 L308064000 272666485 L308135428 272737914 L308206857 272880771 L308206857 273095057 L308135428 273237914 L308064000 273309342 L307921142 273380771 L307349714 273380771 L307349714 271880771 L307849714 271880771 L307992571 271952200 L308064000 272023628 L308135428 272166485 L308135428 272309342 L308064000 272452200 L307992571 272523628 L307849714 272595057 L307349714 272595057 "
         id="path896" />
      <path
         d="M309064000 273380771 L308921142 273309342 L308849714 273237914 L308778285 273095057 L308778285 272666485 L308849714 272523628 L308921142 272452200 L309064000 272380771 L309278285 272380771 L309421142 272452200 L309492571 272523628 L309564000 272666485 L309564000 273095057 L309492571 273237914 L309421142 273309342 L309278285 273380771 L309064000 273380771 "
         id="path898" />
      <path
         d="M309992571 272380771 L310564000 272380771 "
         id="path900" />
      <path
         d="M310206857 271880771 L310206857 273166485 L310278285 273309342 L310421142 273380771 L310564000 273380771 "
         id="path902" />
      <path
         d="M310849714 272380771 L311421142 272380771 "
         id="path904" />
      <path
         d="M311064000 271880771 L311064000 273166485 L311135428 273309342 L311278285 273380771 L311421142 273380771 "
         id="path906" />
      <path
         d="M312135428 273380771 L311992571 273309342 L311921142 273237914 L311849714 273095057 L311849714 272666485 L311921142 272523628 L311992571 272452200 L312135428 272380771 L312349714 272380771 L312492571 272452200 L312564000 272523628 L312635428 272666485 L312635428 273095057 L312564000 273237914 L312492571 273309342 L312349714 273380771 L312135428 273380771 "
         id="path908" />
      <path
         d="M313278285 273380771 L313278285 272380771 "
         id="path910" />
      <path
         d="M313278285 272523628 L313349714 272452200 L313492571 272380771 L313706857 272380771 L313849714 272452200 L313921142 272595057 L313921142 273380771 "
         id="path912" />
      <path
         d="M313921142 272595057 L313992571 272452200 L314135428 272380771 L314349714 272380771 L314492571 272452200 L314564000 272595057 L314564000 273380771 "
         id="path914" />
      <path
         d="M314921142 273523628 L316064000 273523628 "
         id="path916" />
      <path
         d="M316421142 273380771 L316421142 271880771 L316992571 271880771 L317135428 271952200 L317206857 272023628 L317278285 272166485 L317278285 272380771 L317206857 272523628 L317135428 272595057 L316992571 272666485 L316421142 272666485 "
         id="path918" />
      <path
         d="M318135428 273380771 L317992571 273309342 L317921142 273166485 L317921142 271880771 "
         id="path920" />
      <path
         d="M319349714 273380771 L319349714 272595057 L319278285 272452200 L319135428 272380771 L318849714 272380771 L318706857 272452200 "
         id="path922" />
      <path
         d="M319349714 273309342 L319206857 273380771 L318849714 273380771 L318706857 273309342 L318635428 273166485 L318635428 273023628 L318706857 272880771 L318849714 272809342 L319206857 272809342 L319349714 272737914 "
         id="path924" />
      <path
         d="M319849714 272380771 L320421142 272380771 "
         id="path926" />
      <path
         d="M320064000 271880771 L320064000 273166485 L320135428 273309342 L320278285 273380771 L320421142 273380771 "
         id="path928" />
      <path
         d="M321492571 273309342 L321349714 273380771 L321064000 273380771 L320921142 273309342 L320849714 273166485 L320849714 272595057 L320921142 272452200 L321064000 272380771 L321349714 272380771 L321492571 272452200 L321564000 272595057 L321564000 272737914 L320849714 272880771 "
         id="path930" />
      <path
         d="M322206857 273237914 L322278285 273309342 L322206857 273380771 L322135428 273309342 L322206857 273237914 L322206857 273380771 "
         id="path932" />
      <path
         d="M322921142 273380771 L322921142 271880771 "
         id="path934" />
      <path
         d="M323064000 272809342 L323492571 273380771 "
         id="path936" />
      <path
         d="M323492571 272380771 L322921142 272952200 "
         id="path938" />
      <path
         d="M324135428 273380771 L324135428 272380771 "
         id="path940" />
      <path
         d="M324135428 271880771 L324064000 271952200 L324135428 272023628 L324206857 271952200 L324135428 271880771 L324135428 272023628 "
         id="path942" />
      <path
         d="M325492571 273309342 L325349714 273380771 L325064000 273380771 L324921142 273309342 L324849714 273237914 L324778285 273095057 L324778285 272666485 L324849714 272523628 L324921142 272452200 L325064000 272380771 L325349714 272380771 L325492571 272452200 "
         id="path944" />
      <path
         d="M326778285 273380771 L326778285 272595057 L326706857 272452200 L326564000 272380771 L326278285 272380771 L326135428 272452200 "
         id="path946" />
      <path
         d="M326778285 273309342 L326635428 273380771 L326278285 273380771 L326135428 273309342 L326064000 273166485 L326064000 273023628 L326135428 272880771 L326278285 272809342 L326635428 272809342 L326778285 272737914 "
         id="path948" />
      <path
         d="M328135428 273380771 L328135428 271880771 "
         id="path950" />
      <path
         d="M328135428 273309342 L327992571 273380771 L327706857 273380771 L327564000 273309342 L327492571 273237914 L327421142 273095057 L327421142 272666485 L327492571 272523628 L327564000 272452200 L327706857 272380771 L327992571 272380771 L328135428 272452200 "
         id="path952" />
      <path
         d="M328492571 273523628 L329635428 273523628 "
         id="path954" />
      <path
         d="M329992571 272380771 L329992571 273880771 "
         id="path956" />
      <path
         d="M329992571 272452200 L330135428 272380771 L330421142 272380771 L330564000 272452200 L330635428 272523628 L330706857 272666485 L330706857 273095057 L330635428 273237914 L330564000 273309342 L330421142 273380771 L330135428 273380771 L329992571 273309342 "
         id="path958" />
      <path
         d="M331992571 273309342 L331849714 273380771 L331564000 273380771 L331421142 273309342 L331349714 273237914 L331278285 273095057 L331278285 272666485 L331349714 272523628 L331421142 272452200 L331564000 272380771 L331849714 272380771 L331992571 272452200 "
         id="path960" />
      <path
         d="M332635428 273380771 L332635428 271880771 "
         id="path962" />
      <path
         d="M332635428 272452200 L332778285 272380771 L333064000 272380771 L333206857 272452200 L333278285 272523628 L333349714 272666485 L333349714 273095057 L333278285 273237914 L333206857 273309342 L333064000 273380771 L332778285 273380771 L332635428 273309342 "
         id="path964" />
    </g>
  </g>
  <g
     style="fill:#000000; fill-opacity:0.0;  stroke:#000000; stroke-width:21200.000000; stroke-opacity:1;  stroke-linecap:round; stroke-linejoin:round;"
     id="g970" />
  <g
     style="fill:#000000; fill-opacity:0.0;  stroke:#000000; stroke-width:150000.000000; stroke-opacity:1;  stroke-linecap:round; stroke-linejoin:round;"
     id="g974">
    <path
       d="M299989000 268502200 L407989000 268502200 "
       id="path972" />
  </g>
  <g
     style="fill:#000000; fill-opacity:0.0;  stroke:#000000; stroke-width:21200.000000; stroke-opacity:1;  stroke-linecap:round; stroke-linejoin:round;"
     id="g976" />
  <g
     style="fill:#000000; fill-opacity:0.0;  stroke:#000000; stroke-width:150000.000000; stroke-opacity:1;  stroke-linecap:round; stroke-linejoin:round;"
     id="g1002">
    <text
       x="300989000.000000"
       y="270752200.000000"
       textLength="8221429.000000"
       font-size="2000000.000000"
       lengthAdjust="spacingAndGlyphs"
       text-anchor="start"
       opacity="0"
       id="text978">Sheet: </text>
    <g
       class="stroked-text"
       id="g1000">
      <desc
         id="desc980">Sheet: </desc>
      <path
         d="M301349714 270609342 L301564000 270680771 L301921142 270680771 L302064000 270609342 L302135428 270537914 L302206857 270395057 L302206857 270252200 L302135428 270109342 L302064000 270037914 L301921142 269966485 L301635428 269895057 L301492571 269823628 L301421142 269752200 L301349714 269609342 L301349714 269466485 L301421142 269323628 L301492571 269252200 L301635428 269180771 L301992571 269180771 L302206857 269252200 "
         id="path982" />
      <path
         d="M302849714 270680771 L302849714 269180771 "
         id="path984" />
      <path
         d="M303492571 270680771 L303492571 269895057 L303421142 269752200 L303278285 269680771 L303064000 269680771 L302921142 269752200 L302849714 269823628 "
         id="path986" />
      <path
         d="M304778285 270609342 L304635428 270680771 L304349714 270680771 L304206857 270609342 L304135428 270466485 L304135428 269895057 L304206857 269752200 L304349714 269680771 L304635428 269680771 L304778285 269752200 L304849714 269895057 L304849714 270037914 L304135428 270180771 "
         id="path988" />
      <path
         d="M306064000 270609342 L305921142 270680771 L305635428 270680771 L305492571 270609342 L305421142 270466485 L305421142 269895057 L305492571 269752200 L305635428 269680771 L305921142 269680771 L306064000 269752200 L306135428 269895057 L306135428 270037914 L305421142 270180771 "
         id="path990" />
      <path
         d="M306564000 269680771 L307135428 269680771 "
         id="path992" />
      <path
         d="M306778285 269180771 L306778285 270466485 L306849714 270609342 L306992571 270680771 L307135428 270680771 "
         id="path994" />
      <path
         d="M307635428 270537914 L307706857 270609342 L307635428 270680771 L307564000 270609342 L307635428 270537914 L307635428 270680771 "
         id="path996" />
      <path
         d="M307635428 269752200 L307706857 269823628 L307635428 269895057 L307564000 269823628 L307635428 269752200 L307635428 269895057 "
         id="path998" />
    </g>
  </g>
  <g
     style="fill:#000000; fill-opacity:0.0;  stroke:#000000; stroke-width:21200.000000; stroke-opacity:1;  stroke-linecap:round; stroke-linejoin:round;"
     id="g1004" />
  <g
     style="fill:#000000; fill-opacity:0.0;  stroke:#000000; stroke-width:300000.000000; stroke-opacity:1;  stroke-linecap:round; stroke-linejoin:round;"
     id="g1044">
    <text
       x="300989000.000000"
       y="267752200.000000"
       textLength="13721429.000000"
       font-size="2000000.000000"
       lengthAdjust="spacingAndGlyphs"
       text-anchor="start"
       opacity="0"
       id="text1006">cache.works</text>
    <g
       class="stroked-text"
       id="g1042">
      <desc
         id="desc1008">cache.works</desc>
      <path
         d="M302184000 267609342 L302041142 267680771 L301755428 267680771 L301612571 267609342 L301541142 267537914 L301469714 267395057 L301469714 266966485 L301541142 266823628 L301612571 266752200 L301755428 266680771 L302041142 266680771 L302184000 266752200 "
         id="path1010" />
      <path
         d="M303469714 267680771 L303469714 266895057 L303398285 266752200 L303255428 266680771 L302969714 266680771 L302826857 266752200 "
         id="path1012" />
      <path
         d="M303469714 267609342 L303326857 267680771 L302969714 267680771 L302826857 267609342 L302755428 267466485 L302755428 267323628 L302826857 267180771 L302969714 267109342 L303326857 267109342 L303469714 267037914 "
         id="path1014" />
      <path
         d="M304826857 267609342 L304684000 267680771 L304398285 267680771 L304255428 267609342 L304184000 267537914 L304112571 267395057 L304112571 266966485 L304184000 266823628 L304255428 266752200 L304398285 266680771 L304684000 266680771 L304826857 266752200 "
         id="path1016" />
      <path
         d="M305469714 267680771 L305469714 266180771 "
         id="path1018" />
      <path
         d="M306112571 267680771 L306112571 266895057 L306041142 266752200 L305898285 266680771 L305684000 266680771 L305541142 266752200 L305469714 266823628 "
         id="path1020" />
      <path
         d="M307398285 267609342 L307255428 267680771 L306969714 267680771 L306826857 267609342 L306755428 267466485 L306755428 266895057 L306826857 266752200 L306969714 266680771 L307255428 266680771 L307398285 266752200 L307469714 266895057 L307469714 267037914 L306755428 267180771 "
         id="path1022" />
      <path
         d="M308112571 267537914 L308184000 267609342 L308112571 267680771 L308041142 267609342 L308112571 267537914 L308112571 267680771 "
         id="path1024" />
      <path
         d="M308684000 266680771 L308969714 267680771 L309255428 266966485 L309541142 267680771 L309826857 266680771 "
         id="path1026" />
      <path
         d="M310612571 267680771 L310469714 267609342 L310398285 267537914 L310326857 267395057 L310326857 266966485 L310398285 266823628 L310469714 266752200 L310612571 266680771 L310826857 266680771 L310969714 266752200 L311041142 266823628 L311112571 266966485 L311112571 267395057 L311041142 267537914 L310969714 267609342 L310826857 267680771 L310612571 267680771 "
         id="path1028" />
      <path
         d="M311755428 267680771 L311755428 266680771 "
         id="path1030" />
      <path
         d="M311755428 266966485 L311826857 266823628 L311898285 266752200 L312041142 266680771 L312184000 266680771 "
         id="path1032" />
      <path
         d="M312684000 267680771 L312684000 266180771 "
         id="path1034" />
      <path
         d="M312826857 267109342 L313255428 267680771 "
         id="path1036" />
      <path
         d="M313255428 266680771 L312684000 267252200 "
         id="path1038" />
      <path
         d="M313826857 267609342 L313969714 267680771 L314255428 267680771 L314398285 267609342 L314469714 267466485 L314469714 267395057 L314398285 267252200 L314255428 267180771 L314041142 267180771 L313898285 267109342 L313826857 266966485 L313826857 266895057 L313898285 266752200 L314041142 266680771 L314255428 266680771 L314398285 266752200 "
         id="path1040" />
    </g>
  </g>
  <g
     style="fill:#000000; fill-opacity:0.0;  stroke:#000000; stroke-width:21200.000000; stroke-opacity:1;  stroke-linecap:round; stroke-linejoin:round;"
     id="g1046" />
  <g
     style="fill:#000000; fill-opacity:0.0;  stroke:#000000; stroke-width:150000.000000; stroke-opacity:1;  stroke-linecap:round; stroke-linejoin:round;"
     id="g1054">
    <text
       x="300989000.000000"
       y="264752200.000000"
       textLength="390000.000000"
       font-size="2000000.000000"
       lengthAdjust="spacingAndGlyphs"
       text-anchor="start"
       opacity="0"
       id="text1048" />
    <g
       class="stroked-text"
       id="g1052">
      <desc
         id="desc1050" />
    </g>
  </g>
  <g
     style="fill:#000000; fill-opacity:0.0;  stroke:#000000; stroke-width:21200.000000; stroke-opacity:1;  stroke-linecap:round; stroke-linejoin:round;"
     id="g1056" />
  <g
     style="fill:#000000; fill-opacity:0.0;  stroke:#000000; stroke-width:150000.000000; stroke-opacity:1;  stroke-linecap:round; stroke-linejoin:round;"
     id="g1064">
    <text
       x="300989000.000000"
       y="261752200.000000"
       textLength="150000.000000"
       font-size="2000000.000000"
       lengthAdjust="spacingAndGlyphs"
       text-anchor="start"
       opacity="0"
       id="text1058" />
    <g
       class="stroked-text"
       id="g1062">
      <desc
         id="desc1060" />
    </g>
  </g>
  <g
     style="fill:#000000; fill-opacity:0.0;  stroke:#000000; stroke-width:21200.000000; stroke-opacity:1;  stroke-linecap:round; stroke-linejoin:round;"
     id="g1066" />
  <g
     style="fill:#000000; fill-opacity:0.0;  stroke:#000000; stroke-width:150000.000000; stroke-opacity:1;  stroke-linecap:round; stroke-linejoin:round;"
     id="g1074">
    <text
       x="300989000.000000"
       y="258752200.000000"
       textLength="150000.000000"
       font-size="2000000.000000"
       lengthAdjust="spacingAndGlyphs"
       text-anchor="start"
       opacity="0"
       id="text1068" />
    <g
       class="stroked-text"
       id="g1072">
      <desc
         id="desc1070" />
    </g>
  </g>
  <g
     style="fill:#000000; fill-opacity:0.0;  stroke:#000000; stroke-width:21200.000000; stroke-opacity:1;  stroke-linecap:round; stroke-linejoin:round;"
     id="g1076" />
  <g
     style="fill:#000000; fill-opacity:0.0;  stroke:#000000; stroke-width:150000.000000; stroke-opacity:1;  stroke-linecap:round; stroke-linejoin:round;"
     id="g1084">
    <text
       x="300989000.000000"
       y="255752200.000000"
       textLength="150000.000000"
       font-size="2000000.000000"
       lengthAdjust="spacingAndGlyphs"
       text-anchor="start"
       opacity="0"
       id="text1078" />
    <g
       class="stroked-text"
       id="g1082">
      <desc
         id="desc1080" />
    </g>
  </g>
  <g
     style="fill:#000000; fill-opacity:0.0;  stroke:#000000; stroke-width:21200.000000; stroke-opacity:1;  stroke-linecap:round; stroke-linejoin:round;"
     id="g1086" />
  <g
     style="fill:#000000; fill-opacity:0.0;  stroke:#000000; stroke-width:150000.000000; stroke-opacity:1;  stroke-linecap:round; stroke-linejoin:round;"
     id="g1090">
    <path
       d="M319989000 278502200 L319989000 281502200 "
       id="path1088" />
  </g>
  <g
     style="fill:#000000; fill-opacity:0.0;  stroke:#000000; stroke-width:21200.000000; stroke-opacity:1;  stroke-linecap:round; stroke-linejoin:round;"
     id="g1092" />
  <g
     style="fill:#000000; fill-opacity:0.0;  stroke:#000000; stroke-width:150000.000000; stroke-opacity:1;  stroke-linecap:round; stroke-linejoin:round;"
     id="g1096">
    <path
       d="M383989000 278502200 L383989000 285002200 "
       id="path1094" />
  </g>
  <g
     style="fill:#d0d2cd;fill-opacity:0;stroke:#d0d2cd;stroke-width:150000;stroke-linecap:round;stroke-linejoin:round;stroke-opacity:1"
     id="g1122"
     transform="translate(147639250,156051000)">
    <path
       d="M 104544530,-51844172 A 199999990,199999990 0 0 0 -2083171.9,-49308466"
       id="path1098" />
    <path
       d="M -5611243.1,-46442887 A 69999994,69999994 0 0 0 -10622661,9179340.1"
       id="path1100" />
    <path
       d="M 104544530,-51844172 102813370,-45601818"
       id="path1102" />
    <path
       d="M 110309220,31062252 A 70000000,70000000 0 0 0 117237990,-46442886"
       id="path1104" />
    <path
       d="M 111755860,-43121846 113489970,-49374846"
       id="path1106" />
    <path
       d="M 117237990,-46442887 A 5999994,5999994 0 0 0 113709920,-49308466"
       id="path1108" />
    <path
       d="M -2083173.1,-49308466 A 6000001,6000001 0 0 0 -5611244.2,-46442886"
       id="path1110" />
    <path
       d="M 103920860,33045467 A 499999940,499999940 0 0 0 -5334370,13275473"
       id="path1112" />
    <path
       d="M 102813370,-45601818 111755860,-43121846"
       id="path1114" />
    <path
       d="M 113709920,-49308466 A 204401220,204401220 0 0 0 113489970,-49374846"
       id="path1116" />
    <path
       d="M 103920860,33045467 A 5999999,5999999 0 0 0 110309220,31062252"
       id="path1118" />
    <path
       d="M -10622661,9179340.9 A 6000001,6000001 0 0 0 -5334370,13275474"
       id="path1120" />
  </g>
  <g
     style="fill:#D0D2CD; fill-opacity:0.0;  stroke:#D0D2CD; stroke-width:50000.000000; stroke-opacity:1;  stroke-linecap:round; stroke-linejoin:round;"
     id="g1146">
    <circle
       cx="54990000.000000"
       cy="-17165000.000000"
       r="1666666.000000"
       id="circle1124" />
    <path
       d="M52490000 -17165000 L57490000 -17165000 "
       id="path1126" />
    <path
       d="M54990000 -19665000 L54990000 -14665000 "
       id="path1128" />
    <g
       id="g1130" />
    <g
       id="g1132" />
    <g
       id="g1134" />
    <g
       id="g1136" />
    <g
       id="g1138" />
    <g
       id="g1140" />
    <g
       id="g1142" />
    <g
       id="g1144" />
  </g>
</svg>
