M48
; DRILL file {KiCad 6.0.4-6f826c9f35~116~ubuntu20.04.1} date vr 03 jun 2022 00:30:45 CEST
; FORMAT={-:-/ absolute / inch / decimal}
; #@! TF.CreationDate,2022-06-03T00:30:45+02:00
; #@! TF.GenerationSoftware,Kicad,Pcbnew,6.0.4-6f826c9f35~116~ubuntu20.04.1
; #@! TF.FileFunction,Plated,1,2,PTH
FMAT,2
INCH
; #@! TA.AperFunction,Plated,PTH,ViaDrill
T1C0.0079
; #@! TA.AperFunction,Plated,PTH,ComponentDrill
T2C0.0079
; #@! TA.AperFunction,Plated,PTH,ComponentDrill
T3C0.0118
; #@! TA.AperFunction,Plated,PTH,ViaDrill
T4C0.0157
; #@! TA.AperFunction,Plated,PTH,ComponentDrill
T5C0.0157
; #@! TA.AperFunction,Plated,PTH,ComponentDrill
T6C0.0197
; #@! TA.AperFunction,Plated,PTH,ComponentDrill
T7C0.0236
; #@! TA.AperFunction,Plated,PTH,ComponentDrill
T8C0.0250
; #@! TA.AperFunction,Plated,PTH,ComponentDrill
T9C0.0315
; #@! TA.AperFunction,Plated,PTH,ComponentDrill
T10C0.0866
%
G90
G05
T1
X4.0626Y1.2807
X4.1693Y1.2972
X4.1713Y1.6683
X4.189Y0.2972
X4.189Y0.2559
X4.2096Y1.6575
X4.2106Y1.2953
X4.2579Y0.7352
X4.2884Y0.6014
X4.2904Y1.2264
X4.2963Y0.9734
X4.3209Y1.0433
X4.3307Y0.1575
X4.3646Y1.1699
X4.374Y0.7933
X4.374Y0.1575
X4.4173Y0.6929
X4.4173Y0.1575
X4.4594Y0.6929
X4.4606Y0.1575
X4.4689Y0.5486
X4.5016Y0.1575
X4.5028Y0.6929
X4.6339Y0.1575
X4.6346Y0.6929
X4.6634Y0.1575
X4.6772Y0.6929
X4.7067Y0.1575
X4.7213Y0.6929
X4.7465Y0.1575
X4.7638Y0.6929
X4.7713Y0.9622
T2
X4.4921Y1.094
X4.4921Y1.032
X4.5685Y1.094
X4.5685Y1.032
T3
X4.5179Y1.6446
X4.555Y1.7863
T4
X4.1142Y1.7116
X4.1413Y1.4644
X4.2392Y1.1752
X4.2504Y1.4648
X4.2904Y0.9006
X4.3002Y1.6565
X4.4551Y1.3827
X4.5866Y1.4134
X4.587Y1.2591
X4.7945Y1.0591
T5
X-0.2665Y-0.2817
X-0.2475Y-0.2358
X-0.2475Y-0.3276
X-0.2016Y-0.2167
X-0.2016Y-0.3467
X-0.1556Y-0.2358
X-0.1556Y-0.3276
X-0.1366Y-0.2817
X-0.1362Y1.7553
X-0.1172Y1.8012
X-0.1172Y1.7094
X-0.0713Y1.8203
X-0.0713Y1.6904
X-0.0253Y1.8012
X-0.0253Y1.7094
X-0.0063Y1.7553
X0.9846Y1.0648
X1.0036Y1.1107
X1.0036Y1.0188
X1.0496Y1.1297
X1.0496Y0.9998
X1.0955Y1.1107
X1.0955Y1.0188
X1.1145Y1.0648
X1.7346Y1.8148
X1.7346Y0.3148
X1.7536Y1.8607
X1.7536Y1.7688
X1.7536Y0.3607
X1.7536Y0.2688
X1.7996Y1.8797
X1.7996Y1.7498
X1.7996Y0.3797
X1.7996Y0.2498
X1.8455Y1.8607
X1.8455Y1.7688
X1.8455Y0.3607
X1.8455Y0.2688
X1.8645Y1.8148
X1.8645Y0.3148
X2.4846Y1.0648
X2.5036Y1.1107
X2.5036Y1.0188
X2.5496Y1.1297
X2.5496Y0.9998
X2.5955Y1.1107
X2.5955Y1.0188
X2.6145Y1.0648
X3.3685Y2.0057
X3.3875Y2.0516
X3.3875Y1.9598
X3.4335Y2.0707
X3.4335Y1.9407
X3.4794Y2.0516
X3.4794Y1.9598
X3.4984Y2.0057
X3.7098Y-0.4959
X3.7289Y-0.4499
X3.7289Y-0.5418
X3.7748Y-0.4309
X3.7748Y-0.5608
X3.8207Y-0.4499
X3.8207Y-0.5418
X3.8398Y-0.4959
T6
X2.6669Y0.1528
X2.7654Y0.1528
T9
X4.5331Y0.5563
X4.5331Y0.4776
X4.5331Y0.3988
X4.5331Y0.3201
X4.6484Y0.5571
X4.6484Y0.4783
X4.6484Y0.3996
X4.6484Y0.3209
X4.8279Y1.1821
X4.8429Y1.1048
X4.858Y1.0275
X4.873Y0.9502
T10
X-0.2016Y-0.2817
X-0.0713Y1.7553
X1.0496Y1.0648
X1.7996Y1.8148
X1.7996Y0.3148
X2.5496Y1.0648
X3.4335Y2.0057
X3.7748Y-0.4959
T7
G00X4.0203Y1.841
M15
G01X4.0118Y1.8106
M16
G05
G00X4.0644Y2.0003
M15
G01X4.0518Y1.9548
M16
G05
G00X4.4467Y1.7227
M15
G01X4.4383Y1.6924
M16
G05
G00X4.4909Y1.8821
M15
G01X4.4782Y1.8365
M16
G05
T8
G00X-0.2289Y0.5016
M15
G01X-0.2538Y0.4995
M16
G05
G00X-0.0256Y0.4364
M15
G01X-0.0505Y0.4343
M16
G05
G00X0.1633Y0.536
M15
G01X0.1384Y0.5338
M16
G05
G00X0.477Y0.5634
M15
G01X0.4521Y0.5612
M16
G05
G00X0.5354Y-0.1033
M15
G01X0.5105Y-0.1055
M16
G05
G00X0.6803Y0.4982
M15
G01X0.6554Y0.496
M16
G05
G00X0.7387Y-0.1685
M15
G01X0.7138Y-0.1707
M16
G05
G00X0.8692Y0.5977
M15
G01X0.8443Y0.5955
M16
G05
G00X0.9276Y-0.069
M15
G01X0.9027Y-0.0712
M16
G05
G00X1.1747Y1.6043
M15
G01X1.1497Y1.603
M16
G05
G00X1.2097Y0.936
M15
G01X1.1847Y0.9347
M16
G05
G00X1.2447Y0.2676
M15
G01X1.2197Y0.2663
M16
G05
G00X1.3756Y1.5321
M15
G01X1.3506Y1.5308
M16
G05
G00X1.4106Y0.8637
M15
G01X1.3856Y0.8624
M16
G05
G00X1.4456Y0.1953
M15
G01X1.4207Y0.194
M16
G05
G00X1.5678Y1.625
M15
G01X1.5428Y1.6236
M16
G05
G00X1.6028Y0.9566
M15
G01X1.5779Y0.9553
M16
G05
G00X1.6379Y0.2882
M15
G01X1.6129Y0.2869
M16
G05
G00X2.013Y1.6957
M15
G01X1.988Y1.6957
M16
G05
G00X2.013Y1.0264
M15
G01X1.988Y1.0264
M16
G05
G00X2.013Y0.3572
M15
G01X1.988Y0.3572
M16
G05
G00X2.2099Y1.6131
M15
G01X2.1849Y1.6131
M16
G05
G00X2.2099Y0.9438
M15
G01X2.1849Y0.9438
M16
G05
G00X2.2099Y0.2745
M15
G01X2.1849Y0.2745
M16
G05
G00X2.4067Y1.6957
M15
G01X2.3817Y1.6957
M16
G05
G00X2.4067Y1.0264
M15
G01X2.3817Y1.0264
M16
G05
G00X2.4067Y0.3572
M15
G01X2.3817Y0.3572
M16
G05
G00X2.727Y0.2423
M15
G01X2.702Y0.2427
M16
G05
G00X2.7387Y0.9115
M15
G01X2.7137Y0.9119
M16
G05
G00X2.7503Y1.5807
M15
G01X2.7253Y1.5811
M16
G05
G00X2.9224Y0.1562
M15
G01X2.8974Y0.1566
M16
G05
G00X2.934Y0.8254
M15
G01X2.909Y0.8258
M16
G05
G00X2.9457Y1.4946
M15
G01X2.9207Y1.495
M16
G05
G00X3.0923Y-0.68
M15
G01X3.0678Y-0.6753
M16
G05
G00X3.1206Y0.2354
M15
G01X3.0956Y0.2359
M16
G05
G00X3.1323Y0.9046
M15
G01X3.1073Y0.905
M16
G05
G00X3.144Y1.5738
M15
G01X3.119Y1.5742
M16
G05
G00X3.2698Y-0.7988
M15
G01X3.2452Y-0.794
M16
G05
G00X3.4374Y0.0364
M15
G01X3.4125Y0.0373
M16
G05
G00X3.4608Y0.7053
M15
G01X3.4358Y0.7061
M16
G05
G00X3.4788Y-0.7552
M15
G01X3.4543Y-0.7504
M16
G05
G00X3.4842Y1.3742
M15
G01X3.4592Y1.375
M16
G05
G00X3.6313Y-0.0531
M15
G01X3.6063Y-0.0522
M16
G05
G00X3.6546Y0.6158
M15
G01X3.6297Y0.6166
M16
G05
G00X3.678Y1.2847
M15
G01X3.653Y1.2855
M16
G05
G00X3.8309Y0.0226
M15
G01X3.8059Y0.0235
M16
G05
G00X3.8543Y0.6915
M15
G01X3.8293Y0.6924
M16
G05
G00X3.8776Y1.3604
M15
G01X3.8526Y1.3613
M16
G05
G00X4.2227Y-0.9013
M15
G01X4.2118Y-0.9238
M16
G05
G00X4.3833Y-0.7607
M15
G01X4.3724Y-0.7831
M16
G05
G00X4.3953Y-0.5475
M15
G01X4.3844Y-0.5699
M16
G05
T0
M30
