M48
; DRILL file {KiCad 6.0.4-6f826c9f35~116~ubuntu20.04.1} date vr 03 jun 2022 00:30:45 CEST
; FORMAT={-:-/ absolute / inch / decimal}
; #@! TF.CreationDate,2022-06-03T00:30:45+02:00
; #@! TF.GenerationSoftware,Kicad,Pcbnew,6.0.4-6f826c9f35~116~ubuntu20.04.1
; #@! TF.FileFunction,NonPlated,1,2,NPTH
FMAT,2
INCH
; #@! TA.AperFunction,NonPlated,NPTH,ComponentDrill
T1C0.0354
; #@! TA.AperFunction,NonPlated,NPTH,ComponentDrill
T2C0.0670
; #@! TA.AperFunction,NonPlated,NPTH,ComponentDrill
T3C0.1181
; #@! TA.AperFunction,NonPlated,NPTH,ComponentDrill
T4C0.1350
%
G90
G05
T1
X4.679Y1.5214
X4.7213Y1.4111
T2
X-0.274Y0.6479
X-0.274Y0.6479
X0.1574Y0.6856
X0.1574Y0.6856
X0.4319Y0.7096
X0.4319Y0.7096
X0.4903Y0.0429
X0.4903Y0.0429
X0.8633Y0.7474
X0.8633Y0.7474
X0.9217Y0.0806
X0.9217Y0.0806
X1.1347Y1.7521
X1.1347Y1.7521
X1.1697Y1.0837
X1.1697Y1.0837
X1.2047Y0.4153
X1.2047Y0.4153
X1.5672Y1.7747
X1.5672Y1.7747
X1.6022Y1.1064
X1.6022Y1.1064
X1.6372Y0.438
X1.6372Y0.438
X1.9808Y1.8453
X1.9808Y1.1761
X1.9808Y0.5068
X1.9808Y1.8453
X1.9808Y1.1761
X1.9808Y0.5068
X2.4139Y1.8453
X2.4139Y1.8453
X2.4139Y1.1761
X2.4139Y1.1761
X2.4139Y0.5068
X2.4139Y0.5068
X2.6974Y0.3924
X2.6974Y0.3924
X2.7091Y1.0616
X2.7091Y1.0616
X2.7208Y1.7308
X2.7208Y1.7308
X3.0893Y-0.527
X3.0893Y-0.527
X3.1304Y0.3849
X3.1304Y0.3849
X3.1421Y1.0541
X3.1421Y1.0541
X3.1538Y1.7233
X3.1538Y1.7233
X3.4105Y0.187
X3.4105Y0.187
X3.4339Y0.8559
X3.4339Y0.8559
X3.4572Y1.5248
X3.4572Y1.5248
X3.5144Y-0.6097
X3.5144Y-0.6097
X3.8433Y0.1719
X3.8433Y0.1719
X3.8667Y0.8408
X3.8667Y0.8408
X3.89Y1.5097
X3.89Y1.5097
X4.0741Y-0.8647
X4.0741Y-0.8647
X4.264Y-0.4754
X4.264Y-0.4754
T3
X-0.2673Y0.7967
X-0.0787Y0.9001
X0.1249Y0.831
X0.4387Y0.8584
X0.497Y0.1917
X0.6272Y0.9619
X0.6855Y0.2951
X0.8309Y0.8927
X0.8892Y0.226
X1.1466Y1.9005
X1.1816Y1.2322
X1.2167Y0.5638
X1.3387Y1.9973
X1.3737Y1.329
X1.4087Y0.6606
X1.5398Y1.9211
X1.5748Y1.2528
X1.6098Y0.5844
X2.0005Y1.993
X2.0005Y1.3237
X2.0005Y0.6544
X2.1974Y2.0796
X2.1974Y1.4103
X2.1974Y0.741
X2.3942Y1.993
X2.3942Y1.3237
X2.3942Y0.6544
X2.7197Y0.5397
X2.7313Y1.2089
X2.743Y1.8781
X2.918Y0.6229
X2.9297Y1.2921
X2.9414Y1.9612
X3.1133Y0.5328
X3.125Y1.202
X3.1367Y1.8712
X3.1368Y-0.3859
X3.3465Y-0.3384
X3.4353Y0.3339
X3.4587Y1.0028
X3.482Y1.6717
X3.5232Y-0.461
X3.6351Y0.4136
X3.6584Y1.0825
X3.6818Y1.7513
X3.8288Y0.3201
X3.8521Y0.989
X3.8755Y1.6579
X3.9501Y-0.7823
X3.9585Y-0.5674
X4.1227Y-0.4284
T4
X-0.0583Y0.6667
X-0.0583Y0.6667
X-0.0583Y0.6667
X0.6476Y0.7285
X0.6476Y0.7285
X0.6476Y0.7285
X0.706Y0.0618
X0.706Y0.0618
X0.706Y0.0618
X1.3509Y1.7634
X1.3509Y1.7634
X1.3509Y1.7634
X1.386Y1.095
X1.386Y1.095
X1.386Y1.095
X1.421Y0.4267
X1.421Y0.4267
X1.421Y0.4267
X2.1974Y1.8453
X2.1974Y1.8453
X2.1974Y1.8453
X2.1974Y1.1761
X2.1974Y1.1761
X2.1974Y1.1761
X2.1974Y0.5068
X2.1974Y0.5068
X2.1974Y0.5068
X2.9139Y0.3887
X2.9139Y0.3887
X2.9139Y0.3887
X2.9256Y1.0578
X2.9256Y1.0578
X2.9256Y1.0578
X2.9373Y1.727
X2.9373Y1.727
X2.9373Y1.727
X3.3018Y-0.5684
X3.3018Y-0.5684
X3.3018Y-0.5684
X3.6269Y0.1795
X3.6269Y0.1795
X3.6269Y0.1795
X3.6503Y0.8483
X3.6503Y0.8483
X3.6503Y0.8483
X3.6736Y1.5172
X3.6736Y1.5172
X3.6736Y1.5172
X4.1691Y-0.6701
X4.1691Y-0.6701
X4.1691Y-0.6701
T0
M30
