M48
METRIC,TZ
T1C0.400
T2C2.200
%
G90
G05
T1
X148086Y-169785
X148569Y-168618
X148569Y-170952
X149736Y-168135
X149736Y-171435
X150903Y-168618
X150903Y-170952
X151386Y-169785
X152143Y-134215
X152627Y-133048
X152627Y-135381
X153793Y-132565
X153793Y-135865
X154960Y-133048
X154960Y-135381
X155443Y-134215
X183533Y-144246
X183955Y-143056
X184077Y-145386
X185094Y-142512
X185267Y-145808
X186285Y-142934
X186407Y-145264
X186828Y-144074
X201560Y-124226
X201981Y-123035
X202104Y-125365
X203121Y-122491
X203294Y-125787
X203554Y-162273
X203975Y-161083
X204098Y-163413
X204312Y-122913
X204434Y-125243
X204855Y-124053
X205115Y-160539
X205288Y-163835
X206306Y-160961
X206428Y-163291
X206849Y-162101
X213107Y-185025
X213590Y-183858
X213590Y-186192
X213609Y-115673
X214092Y-114506
X214092Y-116839
X214757Y-183375
X214757Y-186675
X215259Y-114023
X215259Y-117323
X215923Y-183858
X215923Y-186192
X216407Y-185025
X216426Y-114506
X216426Y-116839
X216909Y-115673
X221581Y-142252
X222002Y-141062
X222124Y-143392
X223142Y-140518
X223315Y-143814
X224333Y-140940
X224455Y-143270
X224876Y-142080
X269250Y-134476
X269733Y-133309
X269733Y-135643
X270900Y-132826
X270900Y-136126
X272067Y-133309
X272067Y-135643
X272550Y-134476
X274076Y-174103
X274559Y-172936
X274559Y-175270
X275726Y-172453
X275726Y-175753
X276893Y-172936
X276893Y-175270
X277376Y-174103
T2
X149736Y-169785
X153793Y-134215
X185181Y-144160
X203208Y-124139
X205202Y-162187
X214757Y-185025
X215259Y-115673
X223228Y-142166
X270900Y-134476
X275726Y-174103
T0
M30
