%TF.GenerationSoftware,KiCad,Pcbnew,6.0.2-378541a8eb~116~ubuntu20.04.1*%
%TF.CreationDate,2022-03-20T18:22:01+01:00*%
%TF.ProjectId,Wubbo,57756262-6f2e-46b6-9963-61645f706362,v0.1*%
%TF.SameCoordinates,Original*%
%TF.FileFunction,Soldermask,Bot*%
%TF.FilePolarity,Negative*%
%FSLAX46Y46*%
G04 Gerber Fmt 4.6, Leading zero omitted, Abs format (unit mm)*
G04 Created by KiCad (PCBNEW 6.0.2-378541a8eb~116~ubuntu20.04.1) date 2022-03-20 18:22:01*
%MOMM*%
%LPD*%
G01*
G04 APERTURE LIST*
G04 Aperture macros list*
%AMRoundRect*
0 Rectangle with rounded corners*
0 $1 Rounding radius*
0 $2 $3 $4 $5 $6 $7 $8 $9 X,Y pos of 4 corners*
0 Add a 4 corners polygon primitive as box body*
4,1,4,$2,$3,$4,$5,$6,$7,$8,$9,$2,$3,0*
0 Add four circle primitives for the rounded corners*
1,1,$1+$1,$2,$3*
1,1,$1+$1,$4,$5*
1,1,$1+$1,$6,$7*
1,1,$1+$1,$8,$9*
0 Add four rect primitives between the rounded corners*
20,1,$1+$1,$2,$3,$4,$5,0*
20,1,$1+$1,$4,$5,$6,$7,0*
20,1,$1+$1,$6,$7,$8,$9,0*
20,1,$1+$1,$8,$9,$2,$3,0*%
%AMHorizOval*
0 Thick line with rounded ends*
0 $1 width*
0 $2 $3 position (X,Y) of the first rounded end (center of the circle)*
0 $4 $5 position (X,Y) of the second rounded end (center of the circle)*
0 Add line between two ends*
20,1,$1,$2,$3,$4,$5,0*
0 Add two circle primitives to create the rounded ends*
1,1,$1,$2,$3*
1,1,$1,$4,$5*%
G04 Aperture macros list end*
%ADD10C,0.010000*%
%ADD11C,1.801800*%
%ADD12C,3.529000*%
%ADD13HorizOval,1.200000X-0.449383X-0.023551X0.449383X0.023551X0*%
%ADD14O,2.100000X1.200000*%
%ADD15RoundRect,0.050000X-0.425000X0.425000X-0.425000X-0.425000X0.425000X-0.425000X0.425000X0.425000X0*%
%ADD16O,0.950000X0.950000*%
%ADD17HorizOval,1.200000X-0.197267X-0.404457X0.197267X0.404457X0*%
%ADD18C,0.800000*%
%ADD19HorizOval,1.200000X-0.449931X0.007854X0.449931X-0.007854X0*%
%ADD20C,4.500000*%
%ADD21HorizOval,1.200000X-0.448288X-0.039220X0.448288X0.039220X0*%
%ADD22C,1.000000*%
%ADD23HorizOval,1.200000X-0.449726X0.015705X0.449726X-0.015705X0*%
%ADD24HorizOval,1.100000X-0.160343X-0.578178X0.160343X0.578178X0*%
%ADD25HorizOval,1.100000X-0.106895X-0.385452X0.106895X0.385452X0*%
%ADD26RoundRect,0.050000X-0.300520X-0.520517X0.520517X-0.300520X0.300520X0.520517X-0.520517X0.300520X0*%
%ADD27HorizOval,0.950000X0.000000X0.000000X0.000000X0.000000X0*%
%ADD28HorizOval,1.200000X-0.441732X0.085864X0.441732X-0.085864X0*%
%ADD29RoundRect,0.050000X-0.806216X-0.340060X0.552198X-0.678751X0.806216X0.340060X-0.552198X0.678751X0*%
%ADD30RoundRect,0.300000X-0.350000X-0.625000X0.350000X-0.625000X0.350000X0.625000X-0.350000X0.625000X0*%
%ADD31O,1.300000X1.850000*%
%ADD32RoundRect,0.050000X-0.552616X0.323443X-0.194248X-0.610137X0.552616X-0.323443X0.194248X0.610137X0*%
%ADD33RoundRect,0.050000X-0.825614X0.057977X-0.574757X-0.595529X0.825614X-0.057977X0.574757X0.595529X0*%
G04 APERTURE END LIST*
D10*
%TO.C,Ref\u002A\u002A*%
X49222645Y-8484570D02*
X49256509Y-8492613D01*
X49256509Y-8492613D02*
X49435609Y-8559346D01*
X49435609Y-8559346D02*
X49612720Y-8663898D01*
X49612720Y-8663898D02*
X49781795Y-8801950D01*
X49781795Y-8801950D02*
X49936790Y-8969181D01*
X49936790Y-8969181D02*
X49954268Y-8991149D01*
X49954268Y-8991149D02*
X50090619Y-9192616D01*
X50090619Y-9192616D02*
X50193486Y-9402611D01*
X50193486Y-9402611D02*
X50263364Y-9617135D01*
X50263364Y-9617135D02*
X50300746Y-9832189D01*
X50300746Y-9832189D02*
X50306128Y-10043774D01*
X50306128Y-10043774D02*
X50280004Y-10247893D01*
X50280004Y-10247893D02*
X50222870Y-10440545D01*
X50222870Y-10440545D02*
X50135219Y-10617733D01*
X50135219Y-10617733D02*
X50017546Y-10775457D01*
X50017546Y-10775457D02*
X49870345Y-10909719D01*
X49870345Y-10909719D02*
X49704358Y-11011523D01*
X49704358Y-11011523D02*
X49632311Y-11045680D01*
X49632311Y-11045680D02*
X49573057Y-11068166D01*
X49573057Y-11068166D02*
X49513368Y-11081848D01*
X49513368Y-11081848D02*
X49440018Y-11089593D01*
X49440018Y-11089593D02*
X49339779Y-11094268D01*
X49339779Y-11094268D02*
X49319416Y-11094953D01*
X49319416Y-11094953D02*
X49217709Y-11097239D01*
X49217709Y-11097239D02*
X49125637Y-11097422D01*
X49125637Y-11097422D02*
X49055184Y-11095579D01*
X49055184Y-11095579D02*
X49024416Y-11093020D01*
X49024416Y-11093020D02*
X48889787Y-11068663D01*
X48889787Y-11068663D02*
X48781506Y-11037860D01*
X48781506Y-11037860D02*
X48683599Y-10995072D01*
X48683599Y-10995072D02*
X48594992Y-10944141D01*
X48594992Y-10944141D02*
X48386976Y-10793748D01*
X48386976Y-10793748D02*
X48207969Y-10621978D01*
X48207969Y-10621978D02*
X48059361Y-10432732D01*
X48059361Y-10432732D02*
X47942540Y-10229912D01*
X47942540Y-10229912D02*
X47858897Y-10017420D01*
X47858897Y-10017420D02*
X47809820Y-9799159D01*
X47809820Y-9799159D02*
X47796699Y-9579030D01*
X47796699Y-9579030D02*
X47820922Y-9360935D01*
X47820922Y-9360935D02*
X47883879Y-9148777D01*
X47883879Y-9148777D02*
X47923868Y-9059002D01*
X47923868Y-9059002D02*
X47984128Y-8957117D01*
X47984128Y-8957117D02*
X49142376Y-8957117D01*
X49142376Y-8957117D02*
X49163747Y-9014708D01*
X49163747Y-9014708D02*
X49216505Y-9089328D01*
X49216505Y-9089328D02*
X49276902Y-9158596D01*
X49276902Y-9158596D02*
X49398119Y-9319133D01*
X49398119Y-9319133D02*
X49483153Y-9493892D01*
X49483153Y-9493892D02*
X49531520Y-9677472D01*
X49531520Y-9677472D02*
X49542732Y-9864467D01*
X49542732Y-9864467D02*
X49516305Y-10049477D01*
X49516305Y-10049477D02*
X49451752Y-10227098D01*
X49451752Y-10227098D02*
X49383524Y-10344281D01*
X49383524Y-10344281D02*
X49321109Y-10448010D01*
X49321109Y-10448010D02*
X49292381Y-10528853D01*
X49292381Y-10528853D02*
X49296819Y-10588856D01*
X49296819Y-10588856D02*
X49314400Y-10614933D01*
X49314400Y-10614933D02*
X49366479Y-10638607D01*
X49366479Y-10638607D02*
X49437188Y-10625133D01*
X49437188Y-10625133D02*
X49492070Y-10596771D01*
X49492070Y-10596771D02*
X49605114Y-10502802D01*
X49605114Y-10502802D02*
X49695341Y-10377747D01*
X49695341Y-10377747D02*
X49760605Y-10227465D01*
X49760605Y-10227465D02*
X49798755Y-10057815D01*
X49798755Y-10057815D02*
X49807644Y-9874657D01*
X49807644Y-9874657D02*
X49798204Y-9761953D01*
X49798204Y-9761953D02*
X49765341Y-9577607D01*
X49765341Y-9577607D02*
X49718822Y-9406184D01*
X49718822Y-9406184D02*
X49661035Y-9251160D01*
X49661035Y-9251160D02*
X49594369Y-9116011D01*
X49594369Y-9116011D02*
X49521215Y-9004211D01*
X49521215Y-9004211D02*
X49443961Y-8919238D01*
X49443961Y-8919238D02*
X49364998Y-8864567D01*
X49364998Y-8864567D02*
X49286713Y-8843673D01*
X49286713Y-8843673D02*
X49211498Y-8860033D01*
X49211498Y-8860033D02*
X49187876Y-8874116D01*
X49187876Y-8874116D02*
X49150912Y-8911829D01*
X49150912Y-8911829D02*
X49142376Y-8957117D01*
X49142376Y-8957117D02*
X47984128Y-8957117D01*
X47984128Y-8957117D02*
X48004301Y-8923010D01*
X48004301Y-8923010D02*
X48104326Y-8795072D01*
X48104326Y-8795072D02*
X48214333Y-8685930D01*
X48214333Y-8685930D02*
X48324709Y-8606323D01*
X48324709Y-8606323D02*
X48333240Y-8601567D01*
X48333240Y-8601567D02*
X48488168Y-8535738D01*
X48488168Y-8535738D02*
X48667980Y-8489541D01*
X48667980Y-8489541D02*
X48859269Y-8464560D01*
X48859269Y-8464560D02*
X49048627Y-8462375D01*
X49048627Y-8462375D02*
X49222645Y-8484570D01*
X49222645Y-8484570D02*
X49222645Y-8484570D01*
G36*
X48104326Y-8795072D02*
G01*
X48214333Y-8685930D01*
X48324709Y-8606323D01*
X48333240Y-8601567D01*
X48488168Y-8535738D01*
X48667980Y-8489541D01*
X48859269Y-8464560D01*
X49048627Y-8462375D01*
X49222645Y-8484570D01*
X49256509Y-8492613D01*
X49435609Y-8559346D01*
X49612720Y-8663898D01*
X49781795Y-8801950D01*
X49936790Y-8969181D01*
X49954268Y-8991149D01*
X50090619Y-9192616D01*
X50193486Y-9402611D01*
X50263364Y-9617135D01*
X50300746Y-9832189D01*
X50306128Y-10043774D01*
X50280004Y-10247893D01*
X50222870Y-10440545D01*
X50135219Y-10617733D01*
X50017546Y-10775457D01*
X49870345Y-10909719D01*
X49704358Y-11011523D01*
X49632311Y-11045680D01*
X49573057Y-11068166D01*
X49513368Y-11081848D01*
X49440018Y-11089593D01*
X49339779Y-11094268D01*
X49319416Y-11094953D01*
X49217709Y-11097239D01*
X49125637Y-11097422D01*
X49055184Y-11095579D01*
X49024416Y-11093020D01*
X48889787Y-11068663D01*
X48781506Y-11037860D01*
X48683599Y-10995072D01*
X48594992Y-10944141D01*
X48386976Y-10793748D01*
X48207969Y-10621978D01*
X48059361Y-10432732D01*
X47942540Y-10229912D01*
X47858897Y-10017420D01*
X47809820Y-9799159D01*
X47796699Y-9579030D01*
X47820922Y-9360935D01*
X47883879Y-9148777D01*
X47923868Y-9059002D01*
X47984128Y-8957117D01*
X49142376Y-8957117D01*
X49163747Y-9014708D01*
X49216505Y-9089328D01*
X49276902Y-9158596D01*
X49398119Y-9319133D01*
X49483153Y-9493892D01*
X49531520Y-9677472D01*
X49542732Y-9864467D01*
X49516305Y-10049477D01*
X49451752Y-10227098D01*
X49383524Y-10344281D01*
X49321109Y-10448010D01*
X49292381Y-10528853D01*
X49296819Y-10588856D01*
X49314400Y-10614933D01*
X49366479Y-10638607D01*
X49437188Y-10625133D01*
X49492070Y-10596771D01*
X49605114Y-10502802D01*
X49695341Y-10377747D01*
X49760605Y-10227465D01*
X49798755Y-10057815D01*
X49807644Y-9874657D01*
X49798204Y-9761953D01*
X49765341Y-9577607D01*
X49718822Y-9406184D01*
X49661035Y-9251160D01*
X49594369Y-9116011D01*
X49521215Y-9004211D01*
X49443961Y-8919238D01*
X49364998Y-8864567D01*
X49286713Y-8843673D01*
X49211498Y-8860033D01*
X49187876Y-8874116D01*
X49150912Y-8911829D01*
X49142376Y-8957117D01*
X47984128Y-8957117D01*
X48004301Y-8923010D01*
X48104326Y-8795072D01*
G37*
X48104326Y-8795072D02*
X48214333Y-8685930D01*
X48324709Y-8606323D01*
X48333240Y-8601567D01*
X48488168Y-8535738D01*
X48667980Y-8489541D01*
X48859269Y-8464560D01*
X49048627Y-8462375D01*
X49222645Y-8484570D01*
X49256509Y-8492613D01*
X49435609Y-8559346D01*
X49612720Y-8663898D01*
X49781795Y-8801950D01*
X49936790Y-8969181D01*
X49954268Y-8991149D01*
X50090619Y-9192616D01*
X50193486Y-9402611D01*
X50263364Y-9617135D01*
X50300746Y-9832189D01*
X50306128Y-10043774D01*
X50280004Y-10247893D01*
X50222870Y-10440545D01*
X50135219Y-10617733D01*
X50017546Y-10775457D01*
X49870345Y-10909719D01*
X49704358Y-11011523D01*
X49632311Y-11045680D01*
X49573057Y-11068166D01*
X49513368Y-11081848D01*
X49440018Y-11089593D01*
X49339779Y-11094268D01*
X49319416Y-11094953D01*
X49217709Y-11097239D01*
X49125637Y-11097422D01*
X49055184Y-11095579D01*
X49024416Y-11093020D01*
X48889787Y-11068663D01*
X48781506Y-11037860D01*
X48683599Y-10995072D01*
X48594992Y-10944141D01*
X48386976Y-10793748D01*
X48207969Y-10621978D01*
X48059361Y-10432732D01*
X47942540Y-10229912D01*
X47858897Y-10017420D01*
X47809820Y-9799159D01*
X47796699Y-9579030D01*
X47820922Y-9360935D01*
X47883879Y-9148777D01*
X47923868Y-9059002D01*
X47984128Y-8957117D01*
X49142376Y-8957117D01*
X49163747Y-9014708D01*
X49216505Y-9089328D01*
X49276902Y-9158596D01*
X49398119Y-9319133D01*
X49483153Y-9493892D01*
X49531520Y-9677472D01*
X49542732Y-9864467D01*
X49516305Y-10049477D01*
X49451752Y-10227098D01*
X49383524Y-10344281D01*
X49321109Y-10448010D01*
X49292381Y-10528853D01*
X49296819Y-10588856D01*
X49314400Y-10614933D01*
X49366479Y-10638607D01*
X49437188Y-10625133D01*
X49492070Y-10596771D01*
X49605114Y-10502802D01*
X49695341Y-10377747D01*
X49760605Y-10227465D01*
X49798755Y-10057815D01*
X49807644Y-9874657D01*
X49798204Y-9761953D01*
X49765341Y-9577607D01*
X49718822Y-9406184D01*
X49661035Y-9251160D01*
X49594369Y-9116011D01*
X49521215Y-9004211D01*
X49443961Y-8919238D01*
X49364998Y-8864567D01*
X49286713Y-8843673D01*
X49211498Y-8860033D01*
X49187876Y-8874116D01*
X49150912Y-8911829D01*
X49142376Y-8957117D01*
X47984128Y-8957117D01*
X48004301Y-8923010D01*
X48104326Y-8795072D01*
X38338030Y-12580977D02*
X38397882Y-12582426D01*
X38397882Y-12582426D02*
X38440368Y-12585114D01*
X38440368Y-12585114D02*
X38469053Y-12589160D01*
X38469053Y-12589160D02*
X38487505Y-12594682D01*
X38487505Y-12594682D02*
X38499289Y-12601799D01*
X38499289Y-12601799D02*
X38507972Y-12610631D01*
X38507972Y-12610631D02*
X38517120Y-12621295D01*
X38517120Y-12621295D02*
X38524315Y-12628621D01*
X38524315Y-12628621D02*
X38561436Y-12673290D01*
X38561436Y-12673290D02*
X38589009Y-12732422D01*
X38589009Y-12732422D02*
X38609446Y-12814119D01*
X38609446Y-12814119D02*
X38625162Y-12926483D01*
X38625162Y-12926483D02*
X38631170Y-12987363D01*
X38631170Y-12987363D02*
X38654725Y-13170734D01*
X38654725Y-13170734D02*
X38693584Y-13382232D01*
X38693584Y-13382232D02*
X38744997Y-13611694D01*
X38744997Y-13611694D02*
X38806214Y-13848955D01*
X38806214Y-13848955D02*
X38874485Y-14083853D01*
X38874485Y-14083853D02*
X38947060Y-14306223D01*
X38947060Y-14306223D02*
X39021190Y-14505902D01*
X39021190Y-14505902D02*
X39077932Y-14638522D01*
X39077932Y-14638522D02*
X39111733Y-14715091D01*
X39111733Y-14715091D02*
X39137070Y-14778899D01*
X39137070Y-14778899D02*
X39149563Y-14818711D01*
X39149563Y-14818711D02*
X39150166Y-14823730D01*
X39150166Y-14823730D02*
X39140277Y-14837805D01*
X39140277Y-14837805D02*
X39106440Y-14846689D01*
X39106440Y-14846689D02*
X39042400Y-14851284D01*
X39042400Y-14851284D02*
X38950614Y-14852500D01*
X38950614Y-14852500D02*
X38717857Y-14861176D01*
X38717857Y-14861176D02*
X38518280Y-14888456D01*
X38518280Y-14888456D02*
X38346173Y-14936217D01*
X38346173Y-14936217D02*
X38195829Y-15006334D01*
X38195829Y-15006334D02*
X38061537Y-15100684D01*
X38061537Y-15100684D02*
X37986676Y-15169323D01*
X37986676Y-15169323D02*
X37935392Y-15226896D01*
X37935392Y-15226896D02*
X37867812Y-15311936D01*
X37867812Y-15311936D02*
X37790184Y-15416083D01*
X37790184Y-15416083D02*
X37708760Y-15530975D01*
X37708760Y-15530975D02*
X37637895Y-15635901D01*
X37637895Y-15635901D02*
X37519942Y-15810553D01*
X37519942Y-15810553D02*
X37416928Y-15951561D01*
X37416928Y-15951561D02*
X37324329Y-16062877D01*
X37324329Y-16062877D02*
X37237620Y-16148450D01*
X37237620Y-16148450D02*
X37152276Y-16212231D01*
X37152276Y-16212231D02*
X37063772Y-16258170D01*
X37063772Y-16258170D02*
X36967586Y-16290218D01*
X36967586Y-16290218D02*
X36864039Y-16311546D01*
X36864039Y-16311546D02*
X36663658Y-16330905D01*
X36663658Y-16330905D02*
X36478658Y-16319802D01*
X36478658Y-16319802D02*
X36398500Y-16305223D01*
X36398500Y-16305223D02*
X36224482Y-16246817D01*
X36224482Y-16246817D02*
X36072436Y-16152734D01*
X36072436Y-16152734D02*
X35942686Y-16023677D01*
X35942686Y-16023677D02*
X35835558Y-15860350D01*
X35835558Y-15860350D02*
X35751376Y-15663457D01*
X35751376Y-15663457D02*
X35690467Y-15433702D01*
X35690467Y-15433702D02*
X35653155Y-15171788D01*
X35653155Y-15171788D02*
X35639952Y-14882500D01*
X35639952Y-14882500D02*
X35890037Y-14882500D01*
X35890037Y-14882500D02*
X35903502Y-15148526D01*
X35903502Y-15148526D02*
X35934851Y-15394711D01*
X35934851Y-15394711D02*
X35965341Y-15540416D01*
X35965341Y-15540416D02*
X36013935Y-15694245D01*
X36013935Y-15694245D02*
X36076142Y-15826866D01*
X36076142Y-15826866D02*
X36147903Y-15930919D01*
X36147903Y-15930919D02*
X36214540Y-15992203D01*
X36214540Y-15992203D02*
X36303507Y-16048330D01*
X36303507Y-16048330D02*
X36362972Y-16075044D01*
X36362972Y-16075044D02*
X36393635Y-16072592D01*
X36393635Y-16072592D02*
X36398500Y-16057522D01*
X36398500Y-16057522D02*
X36387319Y-16028132D01*
X36387319Y-16028132D02*
X36358806Y-15978322D01*
X36358806Y-15978322D02*
X36337896Y-15946397D01*
X36337896Y-15946397D02*
X36227877Y-15750121D01*
X36227877Y-15750121D02*
X36145861Y-15525204D01*
X36145861Y-15525204D02*
X36092593Y-15275394D01*
X36092593Y-15275394D02*
X36068821Y-15004443D01*
X36068821Y-15004443D02*
X36075291Y-14716099D01*
X36075291Y-14716099D02*
X36080553Y-14653783D01*
X36080553Y-14653783D02*
X36130606Y-14291485D01*
X36130606Y-14291485D02*
X36209269Y-13959719D01*
X36209269Y-13959719D02*
X36316960Y-13657432D01*
X36316960Y-13657432D02*
X36454100Y-13383572D01*
X36454100Y-13383572D02*
X36621110Y-13137086D01*
X36621110Y-13137086D02*
X36743387Y-12993729D01*
X36743387Y-12993729D02*
X36798126Y-12932424D01*
X36798126Y-12932424D02*
X36837900Y-12883085D01*
X36837900Y-12883085D02*
X36856727Y-12853358D01*
X36856727Y-12853358D02*
X36856969Y-12848580D01*
X36856969Y-12848580D02*
X36827893Y-12847805D01*
X36827893Y-12847805D02*
X36774378Y-12872663D01*
X36774378Y-12872663D02*
X36702139Y-12919078D01*
X36702139Y-12919078D02*
X36616894Y-12982970D01*
X36616894Y-12982970D02*
X36524358Y-13060262D01*
X36524358Y-13060262D02*
X36430248Y-13146876D01*
X36430248Y-13146876D02*
X36407196Y-13169456D01*
X36407196Y-13169456D02*
X36293065Y-13288201D01*
X36293065Y-13288201D02*
X36205826Y-13394518D01*
X36205826Y-13394518D02*
X36138285Y-13500547D01*
X36138285Y-13500547D02*
X36083247Y-13618431D01*
X36083247Y-13618431D02*
X36033515Y-13760313D01*
X36033515Y-13760313D02*
X36009308Y-13840878D01*
X36009308Y-13840878D02*
X35954092Y-14075823D01*
X35954092Y-14075823D02*
X35915618Y-14335105D01*
X35915618Y-14335105D02*
X35894171Y-14607678D01*
X35894171Y-14607678D02*
X35890037Y-14882500D01*
X35890037Y-14882500D02*
X35639952Y-14882500D01*
X35639952Y-14882500D02*
X35639765Y-14878418D01*
X35639765Y-14878418D02*
X35643983Y-14672583D01*
X35643983Y-14672583D02*
X35672739Y-14322111D01*
X35672739Y-14322111D02*
X35726676Y-13999570D01*
X35726676Y-13999570D02*
X35805179Y-13706143D01*
X35805179Y-13706143D02*
X35907635Y-13443018D01*
X35907635Y-13443018D02*
X36033428Y-13211378D01*
X36033428Y-13211378D02*
X36181944Y-13012410D01*
X36181944Y-13012410D02*
X36352570Y-12847299D01*
X36352570Y-12847299D02*
X36544691Y-12717230D01*
X36544691Y-12717230D02*
X36693799Y-12646807D01*
X36693799Y-12646807D02*
X36730850Y-12633100D01*
X36730850Y-12633100D02*
X36768644Y-12622238D01*
X36768644Y-12622238D02*
X36812729Y-12613795D01*
X36812729Y-12613795D02*
X36868655Y-12607346D01*
X36868655Y-12607346D02*
X36941972Y-12602467D01*
X36941972Y-12602467D02*
X37038230Y-12598733D01*
X37038230Y-12598733D02*
X37162979Y-12595719D01*
X37162979Y-12595719D02*
X37321767Y-12593001D01*
X37321767Y-12593001D02*
X37414500Y-12591636D01*
X37414500Y-12591636D02*
X37653446Y-12588149D01*
X37653446Y-12588149D02*
X37853627Y-12585188D01*
X37853627Y-12585188D02*
X38018610Y-12582872D01*
X38018610Y-12582872D02*
X38151960Y-12581318D01*
X38151960Y-12581318D02*
X38257245Y-12580647D01*
X38257245Y-12580647D02*
X38338030Y-12580977D01*
X38338030Y-12580977D02*
X38338030Y-12580977D01*
G36*
X35643983Y-14672583D02*
G01*
X35672739Y-14322111D01*
X35726676Y-13999570D01*
X35805179Y-13706143D01*
X35907635Y-13443018D01*
X36033428Y-13211378D01*
X36181944Y-13012410D01*
X36352570Y-12847299D01*
X36544691Y-12717230D01*
X36693799Y-12646807D01*
X36730850Y-12633100D01*
X36768644Y-12622238D01*
X36812729Y-12613795D01*
X36868655Y-12607346D01*
X36941972Y-12602467D01*
X37038230Y-12598733D01*
X37162979Y-12595719D01*
X37321767Y-12593001D01*
X37414500Y-12591636D01*
X37653446Y-12588149D01*
X37853627Y-12585188D01*
X38018610Y-12582872D01*
X38151960Y-12581318D01*
X38257245Y-12580647D01*
X38338030Y-12580977D01*
X38397882Y-12582426D01*
X38440368Y-12585114D01*
X38469053Y-12589160D01*
X38487505Y-12594682D01*
X38499289Y-12601799D01*
X38507972Y-12610631D01*
X38517120Y-12621295D01*
X38524315Y-12628621D01*
X38561436Y-12673290D01*
X38589009Y-12732422D01*
X38609446Y-12814119D01*
X38625162Y-12926483D01*
X38631170Y-12987363D01*
X38654725Y-13170734D01*
X38693584Y-13382232D01*
X38744997Y-13611694D01*
X38806214Y-13848955D01*
X38874485Y-14083853D01*
X38947060Y-14306223D01*
X39021190Y-14505902D01*
X39077932Y-14638522D01*
X39111733Y-14715091D01*
X39137070Y-14778899D01*
X39149563Y-14818711D01*
X39150166Y-14823730D01*
X39140277Y-14837805D01*
X39106440Y-14846689D01*
X39042400Y-14851284D01*
X38950614Y-14852500D01*
X38717857Y-14861176D01*
X38518280Y-14888456D01*
X38346173Y-14936217D01*
X38195829Y-15006334D01*
X38061537Y-15100684D01*
X37986676Y-15169323D01*
X37935392Y-15226896D01*
X37867812Y-15311936D01*
X37790184Y-15416083D01*
X37708760Y-15530975D01*
X37637895Y-15635901D01*
X37519942Y-15810553D01*
X37416928Y-15951561D01*
X37324329Y-16062877D01*
X37237620Y-16148450D01*
X37152276Y-16212231D01*
X37063772Y-16258170D01*
X36967586Y-16290218D01*
X36864039Y-16311546D01*
X36663658Y-16330905D01*
X36478658Y-16319802D01*
X36398500Y-16305223D01*
X36224482Y-16246817D01*
X36072436Y-16152734D01*
X35942686Y-16023677D01*
X35835558Y-15860350D01*
X35751376Y-15663457D01*
X35690467Y-15433702D01*
X35653155Y-15171788D01*
X35639952Y-14882500D01*
X35890037Y-14882500D01*
X35903502Y-15148526D01*
X35934851Y-15394711D01*
X35965341Y-15540416D01*
X36013935Y-15694245D01*
X36076142Y-15826866D01*
X36147903Y-15930919D01*
X36214540Y-15992203D01*
X36303507Y-16048330D01*
X36362972Y-16075044D01*
X36393635Y-16072592D01*
X36398500Y-16057522D01*
X36387319Y-16028132D01*
X36358806Y-15978322D01*
X36337896Y-15946397D01*
X36227877Y-15750121D01*
X36145861Y-15525204D01*
X36092593Y-15275394D01*
X36068821Y-15004443D01*
X36075291Y-14716099D01*
X36080553Y-14653783D01*
X36130606Y-14291485D01*
X36209269Y-13959719D01*
X36316960Y-13657432D01*
X36454100Y-13383572D01*
X36621110Y-13137086D01*
X36743387Y-12993729D01*
X36798126Y-12932424D01*
X36837900Y-12883085D01*
X36856727Y-12853358D01*
X36856969Y-12848580D01*
X36827893Y-12847805D01*
X36774378Y-12872663D01*
X36702139Y-12919078D01*
X36616894Y-12982970D01*
X36524358Y-13060262D01*
X36430248Y-13146876D01*
X36407196Y-13169456D01*
X36293065Y-13288201D01*
X36205826Y-13394518D01*
X36138285Y-13500547D01*
X36083247Y-13618431D01*
X36033515Y-13760313D01*
X36009308Y-13840878D01*
X35954092Y-14075823D01*
X35915618Y-14335105D01*
X35894171Y-14607678D01*
X35890037Y-14882500D01*
X35639952Y-14882500D01*
X35639765Y-14878418D01*
X35643983Y-14672583D01*
G37*
X35643983Y-14672583D02*
X35672739Y-14322111D01*
X35726676Y-13999570D01*
X35805179Y-13706143D01*
X35907635Y-13443018D01*
X36033428Y-13211378D01*
X36181944Y-13012410D01*
X36352570Y-12847299D01*
X36544691Y-12717230D01*
X36693799Y-12646807D01*
X36730850Y-12633100D01*
X36768644Y-12622238D01*
X36812729Y-12613795D01*
X36868655Y-12607346D01*
X36941972Y-12602467D01*
X37038230Y-12598733D01*
X37162979Y-12595719D01*
X37321767Y-12593001D01*
X37414500Y-12591636D01*
X37653446Y-12588149D01*
X37853627Y-12585188D01*
X38018610Y-12582872D01*
X38151960Y-12581318D01*
X38257245Y-12580647D01*
X38338030Y-12580977D01*
X38397882Y-12582426D01*
X38440368Y-12585114D01*
X38469053Y-12589160D01*
X38487505Y-12594682D01*
X38499289Y-12601799D01*
X38507972Y-12610631D01*
X38517120Y-12621295D01*
X38524315Y-12628621D01*
X38561436Y-12673290D01*
X38589009Y-12732422D01*
X38609446Y-12814119D01*
X38625162Y-12926483D01*
X38631170Y-12987363D01*
X38654725Y-13170734D01*
X38693584Y-13382232D01*
X38744997Y-13611694D01*
X38806214Y-13848955D01*
X38874485Y-14083853D01*
X38947060Y-14306223D01*
X39021190Y-14505902D01*
X39077932Y-14638522D01*
X39111733Y-14715091D01*
X39137070Y-14778899D01*
X39149563Y-14818711D01*
X39150166Y-14823730D01*
X39140277Y-14837805D01*
X39106440Y-14846689D01*
X39042400Y-14851284D01*
X38950614Y-14852500D01*
X38717857Y-14861176D01*
X38518280Y-14888456D01*
X38346173Y-14936217D01*
X38195829Y-15006334D01*
X38061537Y-15100684D01*
X37986676Y-15169323D01*
X37935392Y-15226896D01*
X37867812Y-15311936D01*
X37790184Y-15416083D01*
X37708760Y-15530975D01*
X37637895Y-15635901D01*
X37519942Y-15810553D01*
X37416928Y-15951561D01*
X37324329Y-16062877D01*
X37237620Y-16148450D01*
X37152276Y-16212231D01*
X37063772Y-16258170D01*
X36967586Y-16290218D01*
X36864039Y-16311546D01*
X36663658Y-16330905D01*
X36478658Y-16319802D01*
X36398500Y-16305223D01*
X36224482Y-16246817D01*
X36072436Y-16152734D01*
X35942686Y-16023677D01*
X35835558Y-15860350D01*
X35751376Y-15663457D01*
X35690467Y-15433702D01*
X35653155Y-15171788D01*
X35639952Y-14882500D01*
X35890037Y-14882500D01*
X35903502Y-15148526D01*
X35934851Y-15394711D01*
X35965341Y-15540416D01*
X36013935Y-15694245D01*
X36076142Y-15826866D01*
X36147903Y-15930919D01*
X36214540Y-15992203D01*
X36303507Y-16048330D01*
X36362972Y-16075044D01*
X36393635Y-16072592D01*
X36398500Y-16057522D01*
X36387319Y-16028132D01*
X36358806Y-15978322D01*
X36337896Y-15946397D01*
X36227877Y-15750121D01*
X36145861Y-15525204D01*
X36092593Y-15275394D01*
X36068821Y-15004443D01*
X36075291Y-14716099D01*
X36080553Y-14653783D01*
X36130606Y-14291485D01*
X36209269Y-13959719D01*
X36316960Y-13657432D01*
X36454100Y-13383572D01*
X36621110Y-13137086D01*
X36743387Y-12993729D01*
X36798126Y-12932424D01*
X36837900Y-12883085D01*
X36856727Y-12853358D01*
X36856969Y-12848580D01*
X36827893Y-12847805D01*
X36774378Y-12872663D01*
X36702139Y-12919078D01*
X36616894Y-12982970D01*
X36524358Y-13060262D01*
X36430248Y-13146876D01*
X36407196Y-13169456D01*
X36293065Y-13288201D01*
X36205826Y-13394518D01*
X36138285Y-13500547D01*
X36083247Y-13618431D01*
X36033515Y-13760313D01*
X36009308Y-13840878D01*
X35954092Y-14075823D01*
X35915618Y-14335105D01*
X35894171Y-14607678D01*
X35890037Y-14882500D01*
X35639952Y-14882500D01*
X35639765Y-14878418D01*
X35643983Y-14672583D01*
X44258123Y-6708478D02*
X44553942Y-6715143D01*
X44553942Y-6715143D02*
X44858630Y-6726760D01*
X44858630Y-6726760D02*
X45164017Y-6742942D01*
X45164017Y-6742942D02*
X45461932Y-6763300D01*
X45461932Y-6763300D02*
X45744205Y-6787447D01*
X45744205Y-6787447D02*
X46002665Y-6814994D01*
X46002665Y-6814994D02*
X46229142Y-6845554D01*
X46229142Y-6845554D02*
X46281298Y-6853866D01*
X46281298Y-6853866D02*
X46534303Y-6902967D01*
X46534303Y-6902967D02*
X46772127Y-6963370D01*
X46772127Y-6963370D02*
X46990844Y-7033347D01*
X46990844Y-7033347D02*
X47186528Y-7111173D01*
X47186528Y-7111173D02*
X47355255Y-7195120D01*
X47355255Y-7195120D02*
X47493097Y-7283464D01*
X47493097Y-7283464D02*
X47596130Y-7374477D01*
X47596130Y-7374477D02*
X47656580Y-7458650D01*
X47656580Y-7458650D02*
X47671570Y-7492699D01*
X47671570Y-7492699D02*
X47676318Y-7525030D01*
X47676318Y-7525030D02*
X47668286Y-7563415D01*
X47668286Y-7563415D02*
X47644935Y-7615626D01*
X47644935Y-7615626D02*
X47603726Y-7689434D01*
X47603726Y-7689434D02*
X47553869Y-7773118D01*
X47553869Y-7773118D02*
X47447704Y-7977474D01*
X47447704Y-7977474D02*
X47353245Y-8215775D01*
X47353245Y-8215775D02*
X47272441Y-8480773D01*
X47272441Y-8480773D02*
X47207244Y-8765219D01*
X47207244Y-8765219D02*
X47159603Y-9061864D01*
X47159603Y-9061864D02*
X47133138Y-9336539D01*
X47133138Y-9336539D02*
X47126466Y-9451007D01*
X47126466Y-9451007D02*
X47119906Y-9540394D01*
X47119906Y-9540394D02*
X47108648Y-9607922D01*
X47108648Y-9607922D02*
X47087881Y-9656813D01*
X47087881Y-9656813D02*
X47052796Y-9690290D01*
X47052796Y-9690290D02*
X46998582Y-9711577D01*
X46998582Y-9711577D02*
X46920429Y-9723895D01*
X46920429Y-9723895D02*
X46813526Y-9730468D01*
X46813526Y-9730468D02*
X46673063Y-9734518D01*
X46673063Y-9734518D02*
X46533768Y-9738095D01*
X46533768Y-9738095D02*
X46367378Y-9743347D01*
X46367378Y-9743347D02*
X46194100Y-9749707D01*
X46194100Y-9749707D02*
X46025275Y-9756695D01*
X46025275Y-9756695D02*
X45872243Y-9763832D01*
X45872243Y-9763832D02*
X45746347Y-9770641D01*
X45746347Y-9770641D02*
X45711833Y-9772790D01*
X45711833Y-9772790D02*
X45605051Y-9778431D01*
X45605051Y-9778431D02*
X45467549Y-9783634D01*
X45467549Y-9783634D02*
X45304657Y-9788356D01*
X45304657Y-9788356D02*
X45121703Y-9792553D01*
X45121703Y-9792553D02*
X44924016Y-9796179D01*
X44924016Y-9796179D02*
X44716924Y-9799191D01*
X44716924Y-9799191D02*
X44505756Y-9801544D01*
X44505756Y-9801544D02*
X44295839Y-9803193D01*
X44295839Y-9803193D02*
X44092504Y-9804095D01*
X44092504Y-9804095D02*
X43901078Y-9804204D01*
X43901078Y-9804204D02*
X43726891Y-9803476D01*
X43726891Y-9803476D02*
X43575270Y-9801867D01*
X43575270Y-9801867D02*
X43451544Y-9799332D01*
X43451544Y-9799332D02*
X43361041Y-9795827D01*
X43361041Y-9795827D02*
X43320000Y-9792739D01*
X43320000Y-9792739D02*
X43024472Y-9751365D01*
X43024472Y-9751365D02*
X42766195Y-9694079D01*
X42766195Y-9694079D02*
X42542244Y-9618311D01*
X42542244Y-9618311D02*
X42349694Y-9521489D01*
X42349694Y-9521489D02*
X42185620Y-9401043D01*
X42185620Y-9401043D02*
X42047095Y-9254403D01*
X42047095Y-9254403D02*
X41931196Y-9078998D01*
X41931196Y-9078998D02*
X41834998Y-8872258D01*
X41834998Y-8872258D02*
X41755574Y-8631612D01*
X41755574Y-8631612D02*
X41691436Y-8361591D01*
X41691436Y-8361591D02*
X41653015Y-8112094D01*
X41653015Y-8112094D02*
X41644698Y-7893991D01*
X41644698Y-7893991D02*
X42287390Y-7893991D01*
X42287390Y-7893991D02*
X42305081Y-7929897D01*
X42305081Y-7929897D02*
X42312924Y-7942022D01*
X42312924Y-7942022D02*
X42346968Y-7981565D01*
X42346968Y-7981565D02*
X42388057Y-7991631D01*
X42388057Y-7991631D02*
X42420211Y-7988050D01*
X42420211Y-7988050D02*
X42478842Y-7972442D01*
X42478842Y-7972442D02*
X42554480Y-7944523D01*
X42554480Y-7944523D02*
X42603562Y-7922978D01*
X42603562Y-7922978D02*
X42707587Y-7880558D01*
X42707587Y-7880558D02*
X42831799Y-7842956D01*
X42831799Y-7842956D02*
X42980297Y-7809412D01*
X42980297Y-7809412D02*
X43157181Y-7779166D01*
X43157181Y-7779166D02*
X43366552Y-7751457D01*
X43366552Y-7751457D02*
X43612509Y-7725525D01*
X43612509Y-7725525D02*
X43722166Y-7715469D01*
X43722166Y-7715469D02*
X43840877Y-7707437D01*
X43840877Y-7707437D02*
X43995437Y-7700778D01*
X43995437Y-7700778D02*
X44179384Y-7695491D01*
X44179384Y-7695491D02*
X44386257Y-7691572D01*
X44386257Y-7691572D02*
X44609595Y-7689020D01*
X44609595Y-7689020D02*
X44842935Y-7687830D01*
X44842935Y-7687830D02*
X45079815Y-7688002D01*
X45079815Y-7688002D02*
X45313775Y-7689532D01*
X45313775Y-7689532D02*
X45538353Y-7692418D01*
X45538353Y-7692418D02*
X45747085Y-7696656D01*
X45747085Y-7696656D02*
X45933512Y-7702246D01*
X45933512Y-7702246D02*
X46091172Y-7709183D01*
X46091172Y-7709183D02*
X46201622Y-7716454D01*
X46201622Y-7716454D02*
X46364483Y-7727963D01*
X46364483Y-7727963D02*
X46490188Y-7732124D01*
X46490188Y-7732124D02*
X46583369Y-7728382D01*
X46583369Y-7728382D02*
X46648654Y-7716183D01*
X46648654Y-7716183D02*
X46690672Y-7694974D01*
X46690672Y-7694974D02*
X46714054Y-7664200D01*
X46714054Y-7664200D02*
X46717604Y-7654714D01*
X46717604Y-7654714D02*
X46722836Y-7610955D01*
X46722836Y-7610955D02*
X46700728Y-7580563D01*
X46700728Y-7580563D02*
X46644821Y-7556580D01*
X46644821Y-7556580D02*
X46619857Y-7549423D01*
X46619857Y-7549423D02*
X46509374Y-7526034D01*
X46509374Y-7526034D02*
X46361470Y-7504491D01*
X46361470Y-7504491D02*
X46181022Y-7484911D01*
X46181022Y-7484911D02*
X45972906Y-7467409D01*
X45972906Y-7467409D02*
X45742000Y-7452100D01*
X45742000Y-7452100D02*
X45493179Y-7439100D01*
X45493179Y-7439100D02*
X45231320Y-7428524D01*
X45231320Y-7428524D02*
X44961301Y-7420488D01*
X44961301Y-7420488D02*
X44687998Y-7415107D01*
X44687998Y-7415107D02*
X44416288Y-7412496D01*
X44416288Y-7412496D02*
X44151047Y-7412772D01*
X44151047Y-7412772D02*
X43897152Y-7416049D01*
X43897152Y-7416049D02*
X43659481Y-7422444D01*
X43659481Y-7422444D02*
X43442909Y-7432071D01*
X43442909Y-7432071D02*
X43252314Y-7445046D01*
X43252314Y-7445046D02*
X43092572Y-7461485D01*
X43092572Y-7461485D02*
X43064529Y-7465230D01*
X43064529Y-7465230D02*
X42900535Y-7496620D01*
X42900535Y-7496620D02*
X42742966Y-7542508D01*
X42742966Y-7542508D02*
X42598872Y-7599635D01*
X42598872Y-7599635D02*
X42475305Y-7664740D01*
X42475305Y-7664740D02*
X42379315Y-7734566D01*
X42379315Y-7734566D02*
X42317954Y-7805853D01*
X42317954Y-7805853D02*
X42314544Y-7811906D01*
X42314544Y-7811906D02*
X42290462Y-7861298D01*
X42290462Y-7861298D02*
X42287390Y-7893991D01*
X42287390Y-7893991D02*
X41644698Y-7893991D01*
X41644698Y-7893991D02*
X41644390Y-7885931D01*
X41644390Y-7885931D02*
X41666453Y-7682298D01*
X41666453Y-7682298D02*
X41720092Y-7500388D01*
X41720092Y-7500388D02*
X41806200Y-7339398D01*
X41806200Y-7339398D02*
X41925667Y-7198522D01*
X41925667Y-7198522D02*
X42079384Y-7076956D01*
X42079384Y-7076956D02*
X42268242Y-6973893D01*
X42268242Y-6973893D02*
X42493130Y-6888530D01*
X42493130Y-6888530D02*
X42754941Y-6820061D01*
X42754941Y-6820061D02*
X43054565Y-6767682D01*
X43054565Y-6767682D02*
X43392892Y-6730586D01*
X43392892Y-6730586D02*
X43505587Y-6722077D01*
X43505587Y-6722077D02*
X43725775Y-6711557D01*
X43725775Y-6711557D02*
X43979344Y-6707153D01*
X43979344Y-6707153D02*
X44258123Y-6708478D01*
X44258123Y-6708478D02*
X44258123Y-6708478D01*
G36*
X41666453Y-7682298D02*
G01*
X41720092Y-7500388D01*
X41806200Y-7339398D01*
X41925667Y-7198522D01*
X42079384Y-7076956D01*
X42268242Y-6973893D01*
X42493130Y-6888530D01*
X42754941Y-6820061D01*
X43054565Y-6767682D01*
X43392892Y-6730586D01*
X43505587Y-6722077D01*
X43725775Y-6711557D01*
X43979344Y-6707153D01*
X44258123Y-6708478D01*
X44553942Y-6715143D01*
X44858630Y-6726760D01*
X45164017Y-6742942D01*
X45461932Y-6763300D01*
X45744205Y-6787447D01*
X46002665Y-6814994D01*
X46229142Y-6845554D01*
X46281298Y-6853866D01*
X46534303Y-6902967D01*
X46772127Y-6963370D01*
X46990844Y-7033347D01*
X47186528Y-7111173D01*
X47355255Y-7195120D01*
X47493097Y-7283464D01*
X47596130Y-7374477D01*
X47656580Y-7458650D01*
X47671570Y-7492699D01*
X47676318Y-7525030D01*
X47668286Y-7563415D01*
X47644935Y-7615626D01*
X47603726Y-7689434D01*
X47553869Y-7773118D01*
X47447704Y-7977474D01*
X47353245Y-8215775D01*
X47272441Y-8480773D01*
X47207244Y-8765219D01*
X47159603Y-9061864D01*
X47133138Y-9336539D01*
X47126466Y-9451007D01*
X47119906Y-9540394D01*
X47108648Y-9607922D01*
X47087881Y-9656813D01*
X47052796Y-9690290D01*
X46998582Y-9711577D01*
X46920429Y-9723895D01*
X46813526Y-9730468D01*
X46673063Y-9734518D01*
X46533768Y-9738095D01*
X46367378Y-9743347D01*
X46194100Y-9749707D01*
X46025275Y-9756695D01*
X45872243Y-9763832D01*
X45746347Y-9770641D01*
X45711833Y-9772790D01*
X45605051Y-9778431D01*
X45467549Y-9783634D01*
X45304657Y-9788356D01*
X45121703Y-9792553D01*
X44924016Y-9796179D01*
X44716924Y-9799191D01*
X44505756Y-9801544D01*
X44295839Y-9803193D01*
X44092504Y-9804095D01*
X43901078Y-9804204D01*
X43726891Y-9803476D01*
X43575270Y-9801867D01*
X43451544Y-9799332D01*
X43361041Y-9795827D01*
X43320000Y-9792739D01*
X43024472Y-9751365D01*
X42766195Y-9694079D01*
X42542244Y-9618311D01*
X42349694Y-9521489D01*
X42185620Y-9401043D01*
X42047095Y-9254403D01*
X41931196Y-9078998D01*
X41834998Y-8872258D01*
X41755574Y-8631612D01*
X41691436Y-8361591D01*
X41653015Y-8112094D01*
X41644698Y-7893991D01*
X42287390Y-7893991D01*
X42305081Y-7929897D01*
X42312924Y-7942022D01*
X42346968Y-7981565D01*
X42388057Y-7991631D01*
X42420211Y-7988050D01*
X42478842Y-7972442D01*
X42554480Y-7944523D01*
X42603562Y-7922978D01*
X42707587Y-7880558D01*
X42831799Y-7842956D01*
X42980297Y-7809412D01*
X43157181Y-7779166D01*
X43366552Y-7751457D01*
X43612509Y-7725525D01*
X43722166Y-7715469D01*
X43840877Y-7707437D01*
X43995437Y-7700778D01*
X44179384Y-7695491D01*
X44386257Y-7691572D01*
X44609595Y-7689020D01*
X44842935Y-7687830D01*
X45079815Y-7688002D01*
X45313775Y-7689532D01*
X45538353Y-7692418D01*
X45747085Y-7696656D01*
X45933512Y-7702246D01*
X46091172Y-7709183D01*
X46201622Y-7716454D01*
X46364483Y-7727963D01*
X46490188Y-7732124D01*
X46583369Y-7728382D01*
X46648654Y-7716183D01*
X46690672Y-7694974D01*
X46714054Y-7664200D01*
X46717604Y-7654714D01*
X46722836Y-7610955D01*
X46700728Y-7580563D01*
X46644821Y-7556580D01*
X46619857Y-7549423D01*
X46509374Y-7526034D01*
X46361470Y-7504491D01*
X46181022Y-7484911D01*
X45972906Y-7467409D01*
X45742000Y-7452100D01*
X45493179Y-7439100D01*
X45231320Y-7428524D01*
X44961301Y-7420488D01*
X44687998Y-7415107D01*
X44416288Y-7412496D01*
X44151047Y-7412772D01*
X43897152Y-7416049D01*
X43659481Y-7422444D01*
X43442909Y-7432071D01*
X43252314Y-7445046D01*
X43092572Y-7461485D01*
X43064529Y-7465230D01*
X42900535Y-7496620D01*
X42742966Y-7542508D01*
X42598872Y-7599635D01*
X42475305Y-7664740D01*
X42379315Y-7734566D01*
X42317954Y-7805853D01*
X42314544Y-7811906D01*
X42290462Y-7861298D01*
X42287390Y-7893991D01*
X41644698Y-7893991D01*
X41644390Y-7885931D01*
X41666453Y-7682298D01*
G37*
X41666453Y-7682298D02*
X41720092Y-7500388D01*
X41806200Y-7339398D01*
X41925667Y-7198522D01*
X42079384Y-7076956D01*
X42268242Y-6973893D01*
X42493130Y-6888530D01*
X42754941Y-6820061D01*
X43054565Y-6767682D01*
X43392892Y-6730586D01*
X43505587Y-6722077D01*
X43725775Y-6711557D01*
X43979344Y-6707153D01*
X44258123Y-6708478D01*
X44553942Y-6715143D01*
X44858630Y-6726760D01*
X45164017Y-6742942D01*
X45461932Y-6763300D01*
X45744205Y-6787447D01*
X46002665Y-6814994D01*
X46229142Y-6845554D01*
X46281298Y-6853866D01*
X46534303Y-6902967D01*
X46772127Y-6963370D01*
X46990844Y-7033347D01*
X47186528Y-7111173D01*
X47355255Y-7195120D01*
X47493097Y-7283464D01*
X47596130Y-7374477D01*
X47656580Y-7458650D01*
X47671570Y-7492699D01*
X47676318Y-7525030D01*
X47668286Y-7563415D01*
X47644935Y-7615626D01*
X47603726Y-7689434D01*
X47553869Y-7773118D01*
X47447704Y-7977474D01*
X47353245Y-8215775D01*
X47272441Y-8480773D01*
X47207244Y-8765219D01*
X47159603Y-9061864D01*
X47133138Y-9336539D01*
X47126466Y-9451007D01*
X47119906Y-9540394D01*
X47108648Y-9607922D01*
X47087881Y-9656813D01*
X47052796Y-9690290D01*
X46998582Y-9711577D01*
X46920429Y-9723895D01*
X46813526Y-9730468D01*
X46673063Y-9734518D01*
X46533768Y-9738095D01*
X46367378Y-9743347D01*
X46194100Y-9749707D01*
X46025275Y-9756695D01*
X45872243Y-9763832D01*
X45746347Y-9770641D01*
X45711833Y-9772790D01*
X45605051Y-9778431D01*
X45467549Y-9783634D01*
X45304657Y-9788356D01*
X45121703Y-9792553D01*
X44924016Y-9796179D01*
X44716924Y-9799191D01*
X44505756Y-9801544D01*
X44295839Y-9803193D01*
X44092504Y-9804095D01*
X43901078Y-9804204D01*
X43726891Y-9803476D01*
X43575270Y-9801867D01*
X43451544Y-9799332D01*
X43361041Y-9795827D01*
X43320000Y-9792739D01*
X43024472Y-9751365D01*
X42766195Y-9694079D01*
X42542244Y-9618311D01*
X42349694Y-9521489D01*
X42185620Y-9401043D01*
X42047095Y-9254403D01*
X41931196Y-9078998D01*
X41834998Y-8872258D01*
X41755574Y-8631612D01*
X41691436Y-8361591D01*
X41653015Y-8112094D01*
X41644698Y-7893991D01*
X42287390Y-7893991D01*
X42305081Y-7929897D01*
X42312924Y-7942022D01*
X42346968Y-7981565D01*
X42388057Y-7991631D01*
X42420211Y-7988050D01*
X42478842Y-7972442D01*
X42554480Y-7944523D01*
X42603562Y-7922978D01*
X42707587Y-7880558D01*
X42831799Y-7842956D01*
X42980297Y-7809412D01*
X43157181Y-7779166D01*
X43366552Y-7751457D01*
X43612509Y-7725525D01*
X43722166Y-7715469D01*
X43840877Y-7707437D01*
X43995437Y-7700778D01*
X44179384Y-7695491D01*
X44386257Y-7691572D01*
X44609595Y-7689020D01*
X44842935Y-7687830D01*
X45079815Y-7688002D01*
X45313775Y-7689532D01*
X45538353Y-7692418D01*
X45747085Y-7696656D01*
X45933512Y-7702246D01*
X46091172Y-7709183D01*
X46201622Y-7716454D01*
X46364483Y-7727963D01*
X46490188Y-7732124D01*
X46583369Y-7728382D01*
X46648654Y-7716183D01*
X46690672Y-7694974D01*
X46714054Y-7664200D01*
X46717604Y-7654714D01*
X46722836Y-7610955D01*
X46700728Y-7580563D01*
X46644821Y-7556580D01*
X46619857Y-7549423D01*
X46509374Y-7526034D01*
X46361470Y-7504491D01*
X46181022Y-7484911D01*
X45972906Y-7467409D01*
X45742000Y-7452100D01*
X45493179Y-7439100D01*
X45231320Y-7428524D01*
X44961301Y-7420488D01*
X44687998Y-7415107D01*
X44416288Y-7412496D01*
X44151047Y-7412772D01*
X43897152Y-7416049D01*
X43659481Y-7422444D01*
X43442909Y-7432071D01*
X43252314Y-7445046D01*
X43092572Y-7461485D01*
X43064529Y-7465230D01*
X42900535Y-7496620D01*
X42742966Y-7542508D01*
X42598872Y-7599635D01*
X42475305Y-7664740D01*
X42379315Y-7734566D01*
X42317954Y-7805853D01*
X42314544Y-7811906D01*
X42290462Y-7861298D01*
X42287390Y-7893991D01*
X41644698Y-7893991D01*
X41644390Y-7885931D01*
X41666453Y-7682298D01*
X55994575Y-9037185D02*
X56037009Y-9055251D01*
X56037009Y-9055251D02*
X56089706Y-9096014D01*
X56089706Y-9096014D02*
X56123530Y-9126810D01*
X56123530Y-9126810D02*
X56232424Y-9244651D01*
X56232424Y-9244651D02*
X56342865Y-9393332D01*
X56342865Y-9393332D02*
X56447664Y-9562273D01*
X56447664Y-9562273D02*
X56537275Y-9735806D01*
X56537275Y-9735806D02*
X56601737Y-9880593D01*
X56601737Y-9880593D02*
X56647885Y-10003138D01*
X56647885Y-10003138D02*
X56678594Y-10116619D01*
X56678594Y-10116619D02*
X56696738Y-10234210D01*
X56696738Y-10234210D02*
X56705192Y-10369089D01*
X56705192Y-10369089D02*
X56706897Y-10513333D01*
X56706897Y-10513333D02*
X56705920Y-10639583D01*
X56705920Y-10639583D02*
X56702656Y-10734400D01*
X56702656Y-10734400D02*
X56695788Y-10808673D01*
X56695788Y-10808673D02*
X56684001Y-10873291D01*
X56684001Y-10873291D02*
X56665980Y-10939143D01*
X56665980Y-10939143D02*
X56649138Y-10991243D01*
X56649138Y-10991243D02*
X56553746Y-11212030D01*
X56553746Y-11212030D02*
X56424123Y-11408520D01*
X56424123Y-11408520D02*
X56262118Y-11578563D01*
X56262118Y-11578563D02*
X56069576Y-11720010D01*
X56069576Y-11720010D02*
X55979194Y-11770814D01*
X55979194Y-11770814D02*
X55863162Y-11826395D01*
X55863162Y-11826395D02*
X55768860Y-11857844D01*
X55768860Y-11857844D02*
X55683502Y-11865438D01*
X55683502Y-11865438D02*
X55594303Y-11849455D01*
X55594303Y-11849455D02*
X55488478Y-11810172D01*
X55488478Y-11810172D02*
X55427333Y-11782803D01*
X55427333Y-11782803D02*
X55346572Y-11745712D01*
X55346572Y-11745712D02*
X55279814Y-11715447D01*
X55279814Y-11715447D02*
X55236769Y-11696391D01*
X55236769Y-11696391D02*
X55227054Y-11692394D01*
X55227054Y-11692394D02*
X55216635Y-11667442D01*
X55216635Y-11667442D02*
X55230225Y-11610186D01*
X55230225Y-11610186D02*
X55266993Y-11522603D01*
X55266993Y-11522603D02*
X55326109Y-11406671D01*
X55326109Y-11406671D02*
X55406518Y-11264750D01*
X55406518Y-11264750D02*
X55497968Y-11107580D01*
X55497968Y-11107580D02*
X55572573Y-10972929D01*
X55572573Y-10972929D02*
X55632176Y-10853743D01*
X55632176Y-10853743D02*
X55678619Y-10742970D01*
X55678619Y-10742970D02*
X55713742Y-10633558D01*
X55713742Y-10633558D02*
X55739388Y-10518452D01*
X55739388Y-10518452D02*
X55757399Y-10390600D01*
X55757399Y-10390600D02*
X55769616Y-10242950D01*
X55769616Y-10242950D02*
X55777881Y-10068448D01*
X55777881Y-10068448D02*
X55782362Y-9916725D01*
X55782362Y-9916725D02*
X55938581Y-9916725D01*
X55938581Y-9916725D02*
X55946643Y-9967771D01*
X55946643Y-9967771D02*
X55974243Y-10041666D01*
X55974243Y-10041666D02*
X55996617Y-10092363D01*
X55996617Y-10092363D02*
X56032760Y-10178150D01*
X56032760Y-10178150D02*
X56064860Y-10264670D01*
X56064860Y-10264670D02*
X56083013Y-10322833D01*
X56083013Y-10322833D02*
X56117187Y-10423876D01*
X56117187Y-10423876D02*
X56160076Y-10508407D01*
X56160076Y-10508407D02*
X56206637Y-10568658D01*
X56206637Y-10568658D02*
X56251823Y-10596862D01*
X56251823Y-10596862D02*
X56261717Y-10598000D01*
X56261717Y-10598000D02*
X56313072Y-10584060D01*
X56313072Y-10584060D02*
X56339483Y-10563859D01*
X56339483Y-10563859D02*
X56361971Y-10507988D01*
X56361971Y-10507988D02*
X56366354Y-10424322D01*
X56366354Y-10424322D02*
X56354692Y-10322290D01*
X56354692Y-10322290D02*
X56329046Y-10211318D01*
X56329046Y-10211318D02*
X56291476Y-10100833D01*
X56291476Y-10100833D02*
X56244042Y-10000264D01*
X56244042Y-10000264D02*
X56202177Y-9935625D01*
X56202177Y-9935625D02*
X56131119Y-9859474D01*
X56131119Y-9859474D02*
X56065243Y-9823262D01*
X56065243Y-9823262D02*
X56005998Y-9827570D01*
X56005998Y-9827570D02*
X55978307Y-9846003D01*
X55978307Y-9846003D02*
X55949366Y-9879234D01*
X55949366Y-9879234D02*
X55938581Y-9916725D01*
X55938581Y-9916725D02*
X55782362Y-9916725D01*
X55782362Y-9916725D02*
X55784037Y-9860042D01*
X55784037Y-9860042D02*
X55785149Y-9814833D01*
X55785149Y-9814833D02*
X55789717Y-9635956D01*
X55789717Y-9635956D02*
X55794081Y-9494176D01*
X55794081Y-9494176D02*
X55798668Y-9384259D01*
X55798668Y-9384259D02*
X55803902Y-9300974D01*
X55803902Y-9300974D02*
X55810208Y-9239089D01*
X55810208Y-9239089D02*
X55818013Y-9193370D01*
X55818013Y-9193370D02*
X55827741Y-9158586D01*
X55827741Y-9158586D02*
X55839817Y-9129505D01*
X55839817Y-9129505D02*
X55841069Y-9126916D01*
X55841069Y-9126916D02*
X55874478Y-9070688D01*
X55874478Y-9070688D02*
X55910987Y-9043774D01*
X55910987Y-9043774D02*
X55950720Y-9035653D01*
X55950720Y-9035653D02*
X55994575Y-9037185D01*
X55994575Y-9037185D02*
X55994575Y-9037185D01*
G36*
X55785149Y-9814833D02*
G01*
X55789717Y-9635956D01*
X55794081Y-9494176D01*
X55798668Y-9384259D01*
X55803902Y-9300974D01*
X55810208Y-9239089D01*
X55818013Y-9193370D01*
X55827741Y-9158586D01*
X55839817Y-9129505D01*
X55841069Y-9126916D01*
X55874478Y-9070688D01*
X55910987Y-9043774D01*
X55950720Y-9035653D01*
X55994575Y-9037185D01*
X56037009Y-9055251D01*
X56089706Y-9096014D01*
X56123530Y-9126810D01*
X56232424Y-9244651D01*
X56342865Y-9393332D01*
X56447664Y-9562273D01*
X56537275Y-9735806D01*
X56601737Y-9880593D01*
X56647885Y-10003138D01*
X56678594Y-10116619D01*
X56696738Y-10234210D01*
X56705192Y-10369089D01*
X56706897Y-10513333D01*
X56705920Y-10639583D01*
X56702656Y-10734400D01*
X56695788Y-10808673D01*
X56684001Y-10873291D01*
X56665980Y-10939143D01*
X56649138Y-10991243D01*
X56553746Y-11212030D01*
X56424123Y-11408520D01*
X56262118Y-11578563D01*
X56069576Y-11720010D01*
X55979194Y-11770814D01*
X55863162Y-11826395D01*
X55768860Y-11857844D01*
X55683502Y-11865438D01*
X55594303Y-11849455D01*
X55488478Y-11810172D01*
X55427333Y-11782803D01*
X55346572Y-11745712D01*
X55279814Y-11715447D01*
X55236769Y-11696391D01*
X55227054Y-11692394D01*
X55216635Y-11667442D01*
X55230225Y-11610186D01*
X55266993Y-11522603D01*
X55326109Y-11406671D01*
X55406518Y-11264750D01*
X55497968Y-11107580D01*
X55572573Y-10972929D01*
X55632176Y-10853743D01*
X55678619Y-10742970D01*
X55713742Y-10633558D01*
X55739388Y-10518452D01*
X55757399Y-10390600D01*
X55769616Y-10242950D01*
X55777881Y-10068448D01*
X55782362Y-9916725D01*
X55938581Y-9916725D01*
X55946643Y-9967771D01*
X55974243Y-10041666D01*
X55996617Y-10092363D01*
X56032760Y-10178150D01*
X56064860Y-10264670D01*
X56083013Y-10322833D01*
X56117187Y-10423876D01*
X56160076Y-10508407D01*
X56206637Y-10568658D01*
X56251823Y-10596862D01*
X56261717Y-10598000D01*
X56313072Y-10584060D01*
X56339483Y-10563859D01*
X56361971Y-10507988D01*
X56366354Y-10424322D01*
X56354692Y-10322290D01*
X56329046Y-10211318D01*
X56291476Y-10100833D01*
X56244042Y-10000264D01*
X56202177Y-9935625D01*
X56131119Y-9859474D01*
X56065243Y-9823262D01*
X56005998Y-9827570D01*
X55978307Y-9846003D01*
X55949366Y-9879234D01*
X55938581Y-9916725D01*
X55782362Y-9916725D01*
X55784037Y-9860042D01*
X55785149Y-9814833D01*
G37*
X55785149Y-9814833D02*
X55789717Y-9635956D01*
X55794081Y-9494176D01*
X55798668Y-9384259D01*
X55803902Y-9300974D01*
X55810208Y-9239089D01*
X55818013Y-9193370D01*
X55827741Y-9158586D01*
X55839817Y-9129505D01*
X55841069Y-9126916D01*
X55874478Y-9070688D01*
X55910987Y-9043774D01*
X55950720Y-9035653D01*
X55994575Y-9037185D01*
X56037009Y-9055251D01*
X56089706Y-9096014D01*
X56123530Y-9126810D01*
X56232424Y-9244651D01*
X56342865Y-9393332D01*
X56447664Y-9562273D01*
X56537275Y-9735806D01*
X56601737Y-9880593D01*
X56647885Y-10003138D01*
X56678594Y-10116619D01*
X56696738Y-10234210D01*
X56705192Y-10369089D01*
X56706897Y-10513333D01*
X56705920Y-10639583D01*
X56702656Y-10734400D01*
X56695788Y-10808673D01*
X56684001Y-10873291D01*
X56665980Y-10939143D01*
X56649138Y-10991243D01*
X56553746Y-11212030D01*
X56424123Y-11408520D01*
X56262118Y-11578563D01*
X56069576Y-11720010D01*
X55979194Y-11770814D01*
X55863162Y-11826395D01*
X55768860Y-11857844D01*
X55683502Y-11865438D01*
X55594303Y-11849455D01*
X55488478Y-11810172D01*
X55427333Y-11782803D01*
X55346572Y-11745712D01*
X55279814Y-11715447D01*
X55236769Y-11696391D01*
X55227054Y-11692394D01*
X55216635Y-11667442D01*
X55230225Y-11610186D01*
X55266993Y-11522603D01*
X55326109Y-11406671D01*
X55406518Y-11264750D01*
X55497968Y-11107580D01*
X55572573Y-10972929D01*
X55632176Y-10853743D01*
X55678619Y-10742970D01*
X55713742Y-10633558D01*
X55739388Y-10518452D01*
X55757399Y-10390600D01*
X55769616Y-10242950D01*
X55777881Y-10068448D01*
X55782362Y-9916725D01*
X55938581Y-9916725D01*
X55946643Y-9967771D01*
X55974243Y-10041666D01*
X55996617Y-10092363D01*
X56032760Y-10178150D01*
X56064860Y-10264670D01*
X56083013Y-10322833D01*
X56117187Y-10423876D01*
X56160076Y-10508407D01*
X56206637Y-10568658D01*
X56251823Y-10596862D01*
X56261717Y-10598000D01*
X56313072Y-10584060D01*
X56339483Y-10563859D01*
X56361971Y-10507988D01*
X56366354Y-10424322D01*
X56354692Y-10322290D01*
X56329046Y-10211318D01*
X56291476Y-10100833D01*
X56244042Y-10000264D01*
X56202177Y-9935625D01*
X56131119Y-9859474D01*
X56065243Y-9823262D01*
X56005998Y-9827570D01*
X55978307Y-9846003D01*
X55949366Y-9879234D01*
X55938581Y-9916725D01*
X55782362Y-9916725D01*
X55784037Y-9860042D01*
X55785149Y-9814833D01*
X40875261Y-15279229D02*
X40881865Y-15361564D01*
X40881865Y-15361564D02*
X40884139Y-15436312D01*
X40884139Y-15436312D02*
X40882449Y-15477002D01*
X40882449Y-15477002D02*
X40875250Y-15540416D01*
X40875250Y-15540416D02*
X40610666Y-15552215D01*
X40610666Y-15552215D02*
X40504176Y-15558561D01*
X40504176Y-15558561D02*
X40408962Y-15567156D01*
X40408962Y-15567156D02*
X40335315Y-15576881D01*
X40335315Y-15576881D02*
X40293526Y-15586616D01*
X40293526Y-15586616D02*
X40293166Y-15586769D01*
X40293166Y-15586769D02*
X40211673Y-15640382D01*
X40211673Y-15640382D02*
X40143187Y-15718714D01*
X40143187Y-15718714D02*
X40103058Y-15802321D01*
X40103058Y-15802321D02*
X40088109Y-15892859D01*
X40088109Y-15892859D02*
X40082953Y-16014439D01*
X40082953Y-16014439D02*
X40087415Y-16156959D01*
X40087415Y-16156959D02*
X40101323Y-16310318D01*
X40101323Y-16310318D02*
X40113250Y-16397666D01*
X40113250Y-16397666D02*
X40131246Y-16542286D01*
X40131246Y-16542286D02*
X40141352Y-16685502D01*
X40141352Y-16685502D02*
X40143531Y-16818218D01*
X40143531Y-16818218D02*
X40137744Y-16931338D01*
X40137744Y-16931338D02*
X40123955Y-17015767D01*
X40123955Y-17015767D02*
X40115879Y-17040221D01*
X40115879Y-17040221D02*
X40061478Y-17122626D01*
X40061478Y-17122626D02*
X39975123Y-17197033D01*
X39975123Y-17197033D02*
X39867193Y-17255266D01*
X39867193Y-17255266D02*
X39821992Y-17271671D01*
X39821992Y-17271671D02*
X39728735Y-17293752D01*
X39728735Y-17293752D02*
X39615178Y-17310183D01*
X39615178Y-17310183D02*
X39498499Y-17319366D01*
X39498499Y-17319366D02*
X39395880Y-17319702D01*
X39395880Y-17319702D02*
X39351250Y-17315474D01*
X39351250Y-17315474D02*
X39223713Y-17285182D01*
X39223713Y-17285182D02*
X39077889Y-17232405D01*
X39077889Y-17232405D02*
X38933677Y-17165268D01*
X38933677Y-17165268D02*
X38759476Y-17053579D01*
X38759476Y-17053579D02*
X38593315Y-16906273D01*
X38593315Y-16906273D02*
X38439397Y-16729892D01*
X38439397Y-16729892D02*
X38301928Y-16530978D01*
X38301928Y-16530978D02*
X38185111Y-16316072D01*
X38185111Y-16316072D02*
X38093151Y-16091717D01*
X38093151Y-16091717D02*
X38030253Y-15864454D01*
X38030253Y-15864454D02*
X38007623Y-15724341D01*
X38007623Y-15724341D02*
X37996463Y-15552610D01*
X37996463Y-15552610D02*
X38004882Y-15409769D01*
X38004882Y-15409769D02*
X38032317Y-15298392D01*
X38032317Y-15298392D02*
X38078208Y-15221056D01*
X38078208Y-15221056D02*
X38124690Y-15186810D01*
X38124690Y-15186810D02*
X38173484Y-15172576D01*
X38173484Y-15172576D02*
X38191953Y-15187055D01*
X38191953Y-15187055D02*
X38178801Y-15229193D01*
X38178801Y-15229193D02*
X38178214Y-15230295D01*
X38178214Y-15230295D02*
X38158872Y-15304181D01*
X38158872Y-15304181D02*
X38160718Y-15408291D01*
X38160718Y-15408291D02*
X38182101Y-15537209D01*
X38182101Y-15537209D02*
X38221368Y-15685515D01*
X38221368Y-15685515D02*
X38276868Y-15847792D01*
X38276868Y-15847792D02*
X38346948Y-16018623D01*
X38346948Y-16018623D02*
X38429956Y-16192589D01*
X38429956Y-16192589D02*
X38523788Y-16363505D01*
X38523788Y-16363505D02*
X38586249Y-16464109D01*
X38586249Y-16464109D02*
X38656225Y-16567809D01*
X38656225Y-16567809D02*
X38728486Y-16667786D01*
X38728486Y-16667786D02*
X38797801Y-16757221D01*
X38797801Y-16757221D02*
X38858942Y-16829296D01*
X38858942Y-16829296D02*
X38906677Y-16877194D01*
X38906677Y-16877194D02*
X38929849Y-16892896D01*
X38929849Y-16892896D02*
X38933784Y-16885383D01*
X38933784Y-16885383D02*
X38913061Y-16853586D01*
X38913061Y-16853586D02*
X38872067Y-16804019D01*
X38872067Y-16804019D02*
X38863741Y-16794676D01*
X38863741Y-16794676D02*
X38718876Y-16611990D01*
X38718876Y-16611990D02*
X38583081Y-16399034D01*
X38583081Y-16399034D02*
X38463160Y-16167810D01*
X38463160Y-16167810D02*
X38365921Y-15930319D01*
X38365921Y-15930319D02*
X38353991Y-15895727D01*
X38353991Y-15895727D02*
X38318379Y-15764094D01*
X38318379Y-15764094D02*
X38297839Y-15631474D01*
X38297839Y-15631474D02*
X38292023Y-15505278D01*
X38292023Y-15505278D02*
X38300583Y-15392912D01*
X38300583Y-15392912D02*
X38323168Y-15301786D01*
X38323168Y-15301786D02*
X38359429Y-15239308D01*
X38359429Y-15239308D02*
X38385850Y-15219466D01*
X38385850Y-15219466D02*
X38413008Y-15216070D01*
X38413008Y-15216070D02*
X38478445Y-15212329D01*
X38478445Y-15212329D02*
X38578110Y-15208356D01*
X38578110Y-15208356D02*
X38707953Y-15204261D01*
X38707953Y-15204261D02*
X38863920Y-15200157D01*
X38863920Y-15200157D02*
X39041962Y-15196156D01*
X39041962Y-15196156D02*
X39238027Y-15192370D01*
X39238027Y-15192370D02*
X39448064Y-15188909D01*
X39448064Y-15188909D02*
X39541750Y-15187549D01*
X39541750Y-15187549D02*
X39759117Y-15184292D01*
X39759117Y-15184292D02*
X39966324Y-15180753D01*
X39966324Y-15180753D02*
X40159010Y-15177036D01*
X40159010Y-15177036D02*
X40332814Y-15173245D01*
X40332814Y-15173245D02*
X40483373Y-15169484D01*
X40483373Y-15169484D02*
X40606327Y-15165858D01*
X40606327Y-15165858D02*
X40697313Y-15162470D01*
X40697313Y-15162470D02*
X40751969Y-15159426D01*
X40751969Y-15159426D02*
X40762228Y-15158391D01*
X40762228Y-15158391D02*
X40860873Y-15144872D01*
X40860873Y-15144872D02*
X40875261Y-15279229D01*
X40875261Y-15279229D02*
X40875261Y-15279229D01*
G36*
X40875261Y-15279229D02*
G01*
X40881865Y-15361564D01*
X40884139Y-15436312D01*
X40882449Y-15477002D01*
X40875250Y-15540416D01*
X40610666Y-15552215D01*
X40504176Y-15558561D01*
X40408962Y-15567156D01*
X40335315Y-15576881D01*
X40293526Y-15586616D01*
X40293166Y-15586769D01*
X40211673Y-15640382D01*
X40143187Y-15718714D01*
X40103058Y-15802321D01*
X40088109Y-15892859D01*
X40082953Y-16014439D01*
X40087415Y-16156959D01*
X40101323Y-16310318D01*
X40113250Y-16397666D01*
X40131246Y-16542286D01*
X40141352Y-16685502D01*
X40143531Y-16818218D01*
X40137744Y-16931338D01*
X40123955Y-17015767D01*
X40115879Y-17040221D01*
X40061478Y-17122626D01*
X39975123Y-17197033D01*
X39867193Y-17255266D01*
X39821992Y-17271671D01*
X39728735Y-17293752D01*
X39615178Y-17310183D01*
X39498499Y-17319366D01*
X39395880Y-17319702D01*
X39351250Y-17315474D01*
X39223713Y-17285182D01*
X39077889Y-17232405D01*
X38933677Y-17165268D01*
X38759476Y-17053579D01*
X38593315Y-16906273D01*
X38439397Y-16729892D01*
X38301928Y-16530978D01*
X38185111Y-16316072D01*
X38093151Y-16091717D01*
X38030253Y-15864454D01*
X38007623Y-15724341D01*
X37996463Y-15552610D01*
X38004882Y-15409769D01*
X38032317Y-15298392D01*
X38078208Y-15221056D01*
X38124690Y-15186810D01*
X38173484Y-15172576D01*
X38191953Y-15187055D01*
X38178801Y-15229193D01*
X38178214Y-15230295D01*
X38158872Y-15304181D01*
X38160718Y-15408291D01*
X38182101Y-15537209D01*
X38221368Y-15685515D01*
X38276868Y-15847792D01*
X38346948Y-16018623D01*
X38429956Y-16192589D01*
X38523788Y-16363505D01*
X38586249Y-16464109D01*
X38656225Y-16567809D01*
X38728486Y-16667786D01*
X38797801Y-16757221D01*
X38858942Y-16829296D01*
X38906677Y-16877194D01*
X38929849Y-16892896D01*
X38933784Y-16885383D01*
X38913061Y-16853586D01*
X38872067Y-16804019D01*
X38863741Y-16794676D01*
X38718876Y-16611990D01*
X38583081Y-16399034D01*
X38463160Y-16167810D01*
X38365921Y-15930319D01*
X38353991Y-15895727D01*
X38318379Y-15764094D01*
X38297839Y-15631474D01*
X38292023Y-15505278D01*
X38300583Y-15392912D01*
X38323168Y-15301786D01*
X38359429Y-15239308D01*
X38385850Y-15219466D01*
X38413008Y-15216070D01*
X38478445Y-15212329D01*
X38578110Y-15208356D01*
X38707953Y-15204261D01*
X38863920Y-15200157D01*
X39041962Y-15196156D01*
X39238027Y-15192370D01*
X39448064Y-15188909D01*
X39541750Y-15187549D01*
X39759117Y-15184292D01*
X39966324Y-15180753D01*
X40159010Y-15177036D01*
X40332814Y-15173245D01*
X40483373Y-15169484D01*
X40606327Y-15165858D01*
X40697313Y-15162470D01*
X40751969Y-15159426D01*
X40762228Y-15158391D01*
X40860873Y-15144872D01*
X40875261Y-15279229D01*
G37*
X40875261Y-15279229D02*
X40881865Y-15361564D01*
X40884139Y-15436312D01*
X40882449Y-15477002D01*
X40875250Y-15540416D01*
X40610666Y-15552215D01*
X40504176Y-15558561D01*
X40408962Y-15567156D01*
X40335315Y-15576881D01*
X40293526Y-15586616D01*
X40293166Y-15586769D01*
X40211673Y-15640382D01*
X40143187Y-15718714D01*
X40103058Y-15802321D01*
X40088109Y-15892859D01*
X40082953Y-16014439D01*
X40087415Y-16156959D01*
X40101323Y-16310318D01*
X40113250Y-16397666D01*
X40131246Y-16542286D01*
X40141352Y-16685502D01*
X40143531Y-16818218D01*
X40137744Y-16931338D01*
X40123955Y-17015767D01*
X40115879Y-17040221D01*
X40061478Y-17122626D01*
X39975123Y-17197033D01*
X39867193Y-17255266D01*
X39821992Y-17271671D01*
X39728735Y-17293752D01*
X39615178Y-17310183D01*
X39498499Y-17319366D01*
X39395880Y-17319702D01*
X39351250Y-17315474D01*
X39223713Y-17285182D01*
X39077889Y-17232405D01*
X38933677Y-17165268D01*
X38759476Y-17053579D01*
X38593315Y-16906273D01*
X38439397Y-16729892D01*
X38301928Y-16530978D01*
X38185111Y-16316072D01*
X38093151Y-16091717D01*
X38030253Y-15864454D01*
X38007623Y-15724341D01*
X37996463Y-15552610D01*
X38004882Y-15409769D01*
X38032317Y-15298392D01*
X38078208Y-15221056D01*
X38124690Y-15186810D01*
X38173484Y-15172576D01*
X38191953Y-15187055D01*
X38178801Y-15229193D01*
X38178214Y-15230295D01*
X38158872Y-15304181D01*
X38160718Y-15408291D01*
X38182101Y-15537209D01*
X38221368Y-15685515D01*
X38276868Y-15847792D01*
X38346948Y-16018623D01*
X38429956Y-16192589D01*
X38523788Y-16363505D01*
X38586249Y-16464109D01*
X38656225Y-16567809D01*
X38728486Y-16667786D01*
X38797801Y-16757221D01*
X38858942Y-16829296D01*
X38906677Y-16877194D01*
X38929849Y-16892896D01*
X38933784Y-16885383D01*
X38913061Y-16853586D01*
X38872067Y-16804019D01*
X38863741Y-16794676D01*
X38718876Y-16611990D01*
X38583081Y-16399034D01*
X38463160Y-16167810D01*
X38365921Y-15930319D01*
X38353991Y-15895727D01*
X38318379Y-15764094D01*
X38297839Y-15631474D01*
X38292023Y-15505278D01*
X38300583Y-15392912D01*
X38323168Y-15301786D01*
X38359429Y-15239308D01*
X38385850Y-15219466D01*
X38413008Y-15216070D01*
X38478445Y-15212329D01*
X38578110Y-15208356D01*
X38707953Y-15204261D01*
X38863920Y-15200157D01*
X39041962Y-15196156D01*
X39238027Y-15192370D01*
X39448064Y-15188909D01*
X39541750Y-15187549D01*
X39759117Y-15184292D01*
X39966324Y-15180753D01*
X40159010Y-15177036D01*
X40332814Y-15173245D01*
X40483373Y-15169484D01*
X40606327Y-15165858D01*
X40697313Y-15162470D01*
X40751969Y-15159426D01*
X40762228Y-15158391D01*
X40860873Y-15144872D01*
X40875261Y-15279229D01*
%TD*%
D11*
%TO.C,SW12*%
X41585304Y11124784D03*
X30600381Y10549088D03*
D12*
X36092843Y10836936D03*
X36092843Y10836936D03*
D13*
X36401625Y4945022D03*
X41284867Y7303824D03*
X31298572Y6780464D03*
%TD*%
D12*
%TO.C,SW8*%
X55813372Y29871818D03*
D11*
X50313372Y29871818D03*
X61313371Y29871818D03*
D12*
X55813372Y29871818D03*
D14*
X55813372Y23971818D03*
X50813372Y26071818D03*
X60813372Y26071818D03*
%TD*%
D15*
%TO.C,J2*%
X118975000Y10385000D03*
D16*
X117975000Y10385000D03*
X116975000Y10385000D03*
X115975000Y10385000D03*
%TD*%
D11*
%TO.C,SW17*%
X103483368Y-21962868D03*
D12*
X105894409Y-17019501D03*
X105894409Y-17019501D03*
D11*
X108305450Y-12076135D03*
D17*
X111197294Y-19605891D03*
X111501682Y-14191341D03*
X107117971Y-23179282D03*
%TD*%
D18*
%TO.C,R_TACT1*%
X98407730Y52153266D03*
X97972270Y50406734D03*
%TD*%
D11*
%TO.C,SW9*%
X68810901Y26965217D03*
D12*
X74310063Y26869229D03*
D11*
X79809224Y26773241D03*
D12*
X74310063Y26869229D03*
D19*
X74207094Y20970128D03*
X79242982Y22982546D03*
X69244505Y23157070D03*
%TD*%
D18*
%TO.C,*%
X-160000Y44585000D03*
X-3460000Y44585000D03*
X-2976726Y45751726D03*
X-1810000Y46235000D03*
X-643274Y43418274D03*
D20*
X-1810000Y44585000D03*
D18*
X-643274Y45751726D03*
X-1810000Y42935000D03*
X-2976726Y43418274D03*
%TD*%
D11*
%TO.C,SW1*%
X-6960719Y16455953D03*
D12*
X-1481648Y16935310D03*
D11*
X3997422Y17414666D03*
D12*
X-1481648Y16935310D03*
D21*
X-967429Y11057761D03*
X-6131430Y12713991D03*
X3830517Y13585549D03*
%TD*%
D18*
%TO.C,REF\u002A\u002A*%
X97530000Y-12595000D03*
X95880000Y-14245000D03*
D20*
X95880000Y-12595000D03*
D18*
X94713274Y-11428274D03*
X94713274Y-13761726D03*
X94230000Y-12595000D03*
X97046726Y-11428274D03*
X95880000Y-10945000D03*
X97046726Y-13761726D03*
%TD*%
D12*
%TO.C,SW11*%
X17931505Y1568803D03*
D11*
X23410575Y2048159D03*
X12452434Y1089446D03*
D12*
X17931505Y1568803D03*
D21*
X18445724Y-4308746D03*
X13281723Y-2652516D03*
X23243670Y-1780958D03*
%TD*%
D11*
%TO.C,SW4*%
X80105915Y43770651D03*
D12*
X74606754Y43866639D03*
D11*
X69107592Y43962627D03*
D12*
X74606754Y43866639D03*
D19*
X74503785Y37967538D03*
X79539673Y39979956D03*
X69541196Y40154480D03*
%TD*%
D20*
%TO.C,*%
X-5120000Y-7155000D03*
D18*
X-5120000Y-5505000D03*
X-3953274Y-5988274D03*
X-6770000Y-7155000D03*
X-6286726Y-5988274D03*
X-5120000Y-8805000D03*
X-3953274Y-8321726D03*
X-6286726Y-8321726D03*
X-3470000Y-7155000D03*
%TD*%
D12*
%TO.C,SW6*%
X16449857Y18504113D03*
X16449857Y18504113D03*
D11*
X21928927Y18983469D03*
X10970786Y18024756D03*
D21*
X16964076Y12626564D03*
X21762022Y15154352D03*
X11800075Y14282794D03*
%TD*%
D22*
%TO.C,SW_POW1*%
X118845530Y38643632D03*
X119920633Y35842891D03*
%TD*%
D11*
%TO.C,SW10*%
X98213309Y21356133D03*
D12*
X92716660Y21548080D03*
X92716660Y21548080D03*
D11*
X87220010Y21740027D03*
D23*
X92510753Y15651674D03*
X97580996Y17575897D03*
X87587088Y17924892D03*
%TD*%
D12*
%TO.C,SW5*%
X93309951Y38537724D03*
D11*
X98806600Y38345777D03*
X87813301Y38729671D03*
D12*
X93309951Y38537724D03*
D23*
X93104044Y32641318D03*
X98174287Y34565541D03*
X88180379Y34914536D03*
%TD*%
D24*
%TO.C,J1*%
X103076568Y50230074D03*
D25*
X102007615Y46375552D03*
X112838821Y43371793D03*
D24*
X113907776Y47226314D03*
%TD*%
D12*
%TO.C,SW14*%
X74013372Y9871818D03*
X74013372Y9871818D03*
D11*
X68514210Y9967806D03*
X79512533Y9775830D03*
D19*
X73910403Y3972717D03*
X78946291Y5985135D03*
X68947814Y6159659D03*
%TD*%
D20*
%TO.C,*%
X87210000Y50945000D03*
D18*
X88376726Y49778274D03*
X88860000Y50945000D03*
X86043274Y49778274D03*
X85560000Y50945000D03*
X87210000Y49295000D03*
X87210000Y52595000D03*
X88376726Y52111726D03*
X86043274Y52111726D03*
%TD*%
D12*
%TO.C,SW7*%
X35203132Y27813638D03*
X35203132Y27813638D03*
D11*
X40695593Y28101486D03*
X29710670Y27525790D03*
D13*
X35511914Y21921724D03*
X30408861Y23757166D03*
X40395156Y24280526D03*
%TD*%
D26*
%TO.C,J3*%
X122031181Y32020926D03*
D27*
X122290000Y31055000D03*
X122548819Y30089074D03*
X122807638Y29123149D03*
%TD*%
D11*
%TO.C,SW2*%
X28820958Y44502493D03*
D12*
X34313420Y44790341D03*
X34313420Y44790341D03*
D11*
X39805881Y45078189D03*
D13*
X34622202Y38898427D03*
X29519149Y40733869D03*
X39505444Y41257229D03*
%TD*%
D11*
%TO.C,SW13*%
X61313371Y12871818D03*
X50313372Y12871818D03*
D12*
X55813372Y12871818D03*
X55813372Y12871818D03*
D14*
X55813372Y6971818D03*
X50813372Y9071818D03*
X60813372Y9071818D03*
%TD*%
D11*
%TO.C,SW16*%
X89265623Y-15485922D03*
X78467724Y-13387024D03*
D12*
X83866674Y-14436473D03*
X83866674Y-14436473D03*
D28*
X82740901Y-20228073D03*
X78233464Y-17212611D03*
X88049736Y-19120701D03*
%TD*%
D15*
%TO.C,J3*%
X118950000Y12910000D03*
D16*
X117950000Y12910000D03*
X116950000Y12910000D03*
X115950000Y12910000D03*
%TD*%
D11*
%TO.C,SW15*%
X86626718Y4750383D03*
X97620017Y4366489D03*
D12*
X92123368Y4558436D03*
X92123368Y4558436D03*
D23*
X91917461Y-1337970D03*
X86993796Y935248D03*
X96987704Y586253D03*
%TD*%
D18*
%TO.C,REF\u002A\u002A*%
X28332447Y26133233D03*
X46619247Y9667725D03*
X43485413Y47171837D03*
X46791956Y6372247D03*
X64646140Y29688617D03*
X27910897Y24942813D03*
X63628429Y26814690D03*
X65958683Y26936813D03*
X66380233Y28127233D03*
X26771063Y24399140D03*
X44797956Y44420032D03*
X48353340Y8106340D03*
X65836559Y29267067D03*
X25036970Y25960524D03*
D20*
X44711601Y46067771D03*
D18*
X44625247Y47715510D03*
X47809667Y9246175D03*
X47931790Y6915921D03*
X26598354Y27694617D03*
X25580643Y24820690D03*
D20*
X46705601Y8019986D03*
D18*
X27788774Y27273067D03*
X45479413Y9124051D03*
X64818848Y26393140D03*
X46359340Y46154126D03*
X45937790Y44963706D03*
X43063863Y45981417D03*
X63084755Y27954524D03*
X25458520Y27150944D03*
D20*
X26684709Y26046879D03*
D18*
X63506305Y29144944D03*
X45601536Y6793797D03*
X45815667Y47293960D03*
X43607536Y44841582D03*
X45057863Y7933632D03*
D20*
X64732494Y28040879D03*
%TD*%
D12*
%TO.C,SW3*%
X55813372Y46871818D03*
D11*
X50313372Y46871818D03*
D12*
X55813372Y46871818D03*
D11*
X61313371Y46871818D03*
D14*
X55813372Y40971818D03*
X50813372Y43071818D03*
X60813372Y43071818D03*
%TD*%
D18*
%TO.C,R_TACT2*%
X97972270Y50405973D03*
X98407730Y52152505D03*
D29*
X99762349Y50145167D03*
X96269284Y51016085D03*
X100110716Y51542393D03*
X96617651Y52413311D03*
%TD*%
D30*
%TO.C,BAT*%
X118950000Y23350000D03*
D31*
X120950000Y23350000D03*
%TD*%
D32*
%TO.C,SW_POW2*%
X119654850Y33437904D03*
D22*
X119920633Y35842891D03*
D32*
X119101977Y41045035D03*
X117038764Y40253042D03*
D22*
X118845530Y38643632D03*
D32*
X121718063Y34229898D03*
D33*
X116933652Y38713090D03*
X118008756Y35912349D03*
X118546308Y34511978D03*
%TD*%
M02*
