%TF.GenerationSoftware,KiCad,Pcbnew,6.0.2-378541a8eb~116~ubuntu20.04.1*%
%TF.CreationDate,2022-03-20T18:22:01+01:00*%
%TF.ProjectId,Wubbo,57756262-6f2e-46b6-9963-61645f706362,v0.1*%
%TF.SameCoordinates,Original*%
%TF.FileFunction,Paste,Top*%
%TF.FilePolarity,Positive*%
%FSLAX46Y46*%
G04 Gerber Fmt 4.6, Leading zero omitted, Abs format (unit mm)*
G04 Created by KiCad (PCBNEW 6.0.2-378541a8eb~116~ubuntu20.04.1) date 2022-03-20 18:22:01*
%MOMM*%
%LPD*%
G01*
G04 APERTURE LIST*
G04 Aperture macros list*
%AMRoundRect*
0 Rectangle with rounded corners*
0 $1 Rounding radius*
0 $2 $3 $4 $5 $6 $7 $8 $9 X,Y pos of 4 corners*
0 Add a 4 corners polygon primitive as box body*
4,1,4,$2,$3,$4,$5,$6,$7,$8,$9,$2,$3,0*
0 Add four circle primitives for the rounded corners*
1,1,$1+$1,$2,$3*
1,1,$1+$1,$4,$5*
1,1,$1+$1,$6,$7*
1,1,$1+$1,$8,$9*
0 Add four rect primitives between the rounded corners*
20,1,$1+$1,$2,$3,$4,$5,0*
20,1,$1+$1,$4,$5,$6,$7,0*
20,1,$1+$1,$6,$7,$8,$9,0*
20,1,$1+$1,$8,$9,$2,$3,0*%
%AMRotRect*
0 Rectangle, with rotation*
0 The origin of the aperture is its center*
0 $1 length*
0 $2 width*
0 $3 Rotation angle, in degrees counterclockwise*
0 Add horizontal line*
21,1,$1,$2,0,0,$3*%
G04 Aperture macros list end*
%ADD10RoundRect,0.200000X0.275000X-0.200000X0.275000X0.200000X-0.275000X0.200000X-0.275000X-0.200000X0*%
%ADD11RoundRect,0.225000X-0.250000X0.225000X-0.250000X-0.225000X0.250000X-0.225000X0.250000X0.225000X0*%
%ADD12R,0.375000X0.500000*%
%ADD13R,0.300000X0.650000*%
%ADD14RoundRect,0.218750X0.256250X-0.218750X0.256250X0.218750X-0.256250X0.218750X-0.256250X-0.218750X0*%
%ADD15RoundRect,0.150000X0.150000X-0.587500X0.150000X0.587500X-0.150000X0.587500X-0.150000X-0.587500X0*%
%ADD16RoundRect,0.200000X-0.275000X0.200000X-0.275000X-0.200000X0.275000X-0.200000X0.275000X0.200000X0*%
%ADD17RotRect,1.400000X1.050000X166.000000*%
%ADD18R,0.600000X0.450000*%
%ADD19RoundRect,0.200000X-0.200000X-0.275000X0.200000X-0.275000X0.200000X0.275000X-0.200000X0.275000X0*%
%ADD20RoundRect,0.225000X0.225000X0.250000X-0.225000X0.250000X-0.225000X-0.250000X0.225000X-0.250000X0*%
%ADD21R,0.700000X1.524000*%
%ADD22R,1.524000X0.700000*%
%ADD23RotRect,1.000000X0.800000X111.000000*%
%ADD24RotRect,0.700000X1.500000X111.000000*%
%ADD25RoundRect,0.150000X-0.587500X-0.150000X0.587500X-0.150000X0.587500X0.150000X-0.587500X0.150000X0*%
%ADD26RotRect,0.600000X1.150000X344.500000*%
%ADD27RotRect,0.300000X1.150000X344.500000*%
%ADD28RoundRect,0.150000X-0.512500X-0.150000X0.512500X-0.150000X0.512500X0.150000X-0.512500X0.150000X0*%
G04 APERTURE END LIST*
D10*
%TO.C,R9*%
X110050000Y29700000D03*
X110050000Y31350000D03*
%TD*%
D11*
%TO.C,C1*%
X108575000Y28050000D03*
X108575000Y26500000D03*
%TD*%
D12*
%TO.C,ESD1*%
X106962500Y35750000D03*
D13*
X106425000Y35825000D03*
D12*
X105887500Y35750000D03*
X105887500Y34050000D03*
D13*
X106425000Y33975000D03*
D12*
X106962500Y34050000D03*
%TD*%
D14*
%TO.C,D1*%
X113980000Y27655000D03*
X113980000Y29230000D03*
%TD*%
D15*
%TO.C,U2*%
X105125000Y23062500D03*
X107025000Y23062500D03*
X106075000Y24937500D03*
%TD*%
D16*
%TO.C,R1*%
X107860000Y40740000D03*
X107860000Y39090000D03*
%TD*%
D17*
%TO.C,R_TACT1*%
X99762349Y50145928D03*
X96269284Y51016846D03*
X100110716Y51543154D03*
X96617651Y52414072D03*
%TD*%
D18*
%TO.C,D3*%
X107125000Y27975000D03*
X105025000Y27975000D03*
%TD*%
D16*
%TO.C,R4*%
X110025000Y22800000D03*
X110025000Y21150000D03*
%TD*%
D19*
%TO.C,R8*%
X119400000Y29350000D03*
X121050000Y29350000D03*
%TD*%
D20*
%TO.C,C2*%
X106850000Y20900000D03*
X105300000Y20900000D03*
%TD*%
D21*
%TO.C,U1*%
X122103372Y18721818D03*
X121003372Y18721818D03*
X119903372Y18721818D03*
X118803372Y18721818D03*
X117703372Y18721818D03*
X116603372Y18721818D03*
X115503372Y18721818D03*
X114403372Y18721818D03*
X113303372Y18721818D03*
X112203372Y18721818D03*
X111103372Y18721818D03*
X110003372Y18721818D03*
X108903372Y18721818D03*
D22*
X107403372Y17471818D03*
X107403372Y16371818D03*
X107403372Y15271818D03*
X107403372Y14171818D03*
X107403372Y13071818D03*
X107403372Y11971818D03*
X107403372Y10871818D03*
X107403372Y9771818D03*
X107403372Y8671818D03*
X107403372Y7571818D03*
X107403372Y6471818D03*
D21*
X108903372Y5221818D03*
X110003372Y5221818D03*
X111103372Y5221818D03*
X112203372Y5221818D03*
X113303372Y5221818D03*
X114403372Y5221818D03*
X115503372Y5221818D03*
X116603372Y5221818D03*
X117703372Y5221818D03*
X118803372Y5221818D03*
X119903372Y5221818D03*
X121003372Y5221818D03*
X122103372Y5221818D03*
%TD*%
D19*
%TO.C,R5*%
X111800000Y21150000D03*
X113450000Y21150000D03*
%TD*%
D23*
%TO.C,SW_POW1*%
X119654850Y33437904D03*
X119101977Y41045035D03*
X117038764Y40253042D03*
X121718063Y34229898D03*
D24*
X118546308Y34511978D03*
X117471204Y37312719D03*
X116933652Y38713090D03*
%TD*%
D16*
%TO.C,R2*%
X105150000Y40710000D03*
X105150000Y39060000D03*
%TD*%
%TO.C,R6*%
X113980000Y26092500D03*
X113980000Y24442500D03*
%TD*%
D25*
%TO.C,Q1*%
X105512500Y31600000D03*
X105512500Y29700000D03*
X107387500Y30650000D03*
%TD*%
D16*
%TO.C,R7*%
X116340000Y26120000D03*
X116340000Y24470000D03*
%TD*%
%TO.C,R3*%
X103775000Y8000000D03*
X103775000Y6350000D03*
%TD*%
D26*
%TO.C,J1*%
X110227611Y42918108D03*
X109480797Y43125218D03*
D27*
X108806256Y43312285D03*
X108324440Y43445904D03*
X107842625Y43579523D03*
X107360810Y43713142D03*
X106878995Y43846761D03*
X106397180Y43980380D03*
X105915364Y44114000D03*
X105433549Y44247619D03*
D26*
X104759008Y44434686D03*
X104012194Y44641795D03*
%TD*%
D28*
%TO.C,U3*%
X118962500Y27675000D03*
X118962500Y26725000D03*
X118962500Y25775000D03*
X121237500Y25775000D03*
X121237500Y27675000D03*
%TD*%
D15*
%TO.C,Q2*%
X110300000Y24887500D03*
X112200000Y24887500D03*
X111250000Y26762500D03*
%TD*%
D14*
%TO.C,D2*%
X116340000Y27657500D03*
X116340000Y29232500D03*
%TD*%
M02*
