<?xml version="1.0" standalone="no"?>
 <!DOCTYPE svg PUBLIC "-//W3C//DTD SVG 1.1//EN" 
 "http://www.w3.org/Graphics/SVG/1.1/DTD/svg11.dtd"> 
<svg
  xmlns:svg="http://www.w3.org/2000/svg"
  xmlns="http://www.w3.org/2000/svg"
  xmlns:xlink="http://www.w3.org/1999/xlink"
  version="1.1"
  width="16.624300cm" height="9.171940cm" viewBox="0 0 166243000 91719400">
<title>SVG Picture created as Wubbo-brd.svg date 2022/04/14 15:51:59 </title>
  <desc>Picture generated by PCBNEW </desc>
<g style="fill:#000000; fill-opacity:1.000000;stroke:#000000; stroke-opacity:1.000000;
stroke-linecap:round; stroke-linejoin:round;"
 transform="translate(0 0) scale(1 1)">
</g>
<g style="fill:#000000; fill-opacity:0.0; 
stroke:#000000; stroke-width:0.000000; stroke-opacity:1; 
stroke-linecap:round; stroke-linejoin:round;">
</g>
<g style="fill:#000000; fill-opacity:0.0; 
stroke:#000000; stroke-width:150000.000000; stroke-opacity:1; 
stroke-linecap:round; stroke-linejoin:round;">
<g transform="rotate(-90.000000 163702729.000000 46108182.000000)">
<text x="163702729.000000" y="46608182.000000"
textLength="12626190.000000" font-size="1333333.000000" lengthAdjust="spacingAndGlyphs"
text-anchor="middle" opacity="0">Antenna keepout</text>
</g>
<g class="stroked-text"><desc>Antenna keepout</desc>
<path d="M163869395 52155802
L163869395 51679611
" />
<path d="M164155109 52251040
L163155109 51917706
L164155109 51584373
" />
<path d="M163488443 51251040
L164155109 51251040
" />
<path d="M163583681 51251040
L163536062 51203421
L163488443 51108182
L163488443 50965325
L163536062 50870087
L163631300 50822468
L164155109 50822468
" />
<path d="M163488443 50489135
L163488443 50108182
" />
<path d="M163155109 50346278
L164012252 50346278
L164107490 50298659
L164155109 50203421
L164155109 50108182
" />
<path d="M164107490 49393897
L164155109 49489135
L164155109 49679611
L164107490 49774849
L164012252 49822468
L163631300 49822468
L163536062 49774849
L163488443 49679611
L163488443 49489135
L163536062 49393897
L163631300 49346278
L163726538 49346278
L163821776 49822468
" />
<path d="M163488443 48917706
L164155109 48917706
" />
<path d="M163583681 48917706
L163536062 48870087
L163488443 48774849
L163488443 48631992
L163536062 48536754
L163631300 48489135
L164155109 48489135
" />
<path d="M163488443 48012944
L164155109 48012944
" />
<path d="M163583681 48012944
L163536062 47965325
L163488443 47870087
L163488443 47727230
L163536062 47631992
L163631300 47584373
L164155109 47584373
" />
<path d="M164155109 46679611
L163631300 46679611
L163536062 46727230
L163488443 46822468
L163488443 47012944
L163536062 47108182
" />
<path d="M164107490 46679611
L164155109 46774849
L164155109 47012944
L164107490 47108182
L164012252 47155802
L163917014 47155802
L163821776 47108182
L163774157 47012944
L163774157 46774849
L163726538 46679611
" />
<path d="M164155109 45441516
L163155109 45441516
" />
<path d="M163774157 45346278
L164155109 45060563
" />
<path d="M163488443 45060563
L163869395 45441516
" />
<path d="M164107490 44251040
L164155109 44346278
L164155109 44536754
L164107490 44631992
L164012252 44679611
L163631300 44679611
L163536062 44631992
L163488443 44536754
L163488443 44346278
L163536062 44251040
L163631300 44203421
L163726538 44203421
L163821776 44679611
" />
<path d="M164107490 43393897
L164155109 43489135
L164155109 43679611
L164107490 43774849
L164012252 43822468
L163631300 43822468
L163536062 43774849
L163488443 43679611
L163488443 43489135
L163536062 43393897
L163631300 43346278
L163726538 43346278
L163821776 43822468
" />
<path d="M163488443 42917706
L164488443 42917706
" />
<path d="M163536062 42917706
L163488443 42822468
L163488443 42631992
L163536062 42536754
L163583681 42489135
L163678919 42441516
L163964633 42441516
L164059871 42489135
L164107490 42536754
L164155109 42631992
L164155109 42822468
L164107490 42917706
" />
<path d="M164155109 41870087
L164107490 41965325
L164059871 42012944
L163964633 42060563
L163678919 42060563
L163583681 42012944
L163536062 41965325
L163488443 41870087
L163488443 41727230
L163536062 41631992
L163583681 41584373
L163678919 41536754
L163964633 41536754
L164059871 41584373
L164107490 41631992
L164155109 41727230
L164155109 41870087
" />
<path d="M163488443 40679611
L164155109 40679611
" />
<path d="M163488443 41108182
L164012252 41108182
L164107490 41060563
L164155109 40965325
L164155109 40822468
L164107490 40727230
L164059871 40679611
" />
<path d="M163488443 40346278
L163488443 39965325
" />
<path d="M163155109 40203421
L164012252 40203421
L164107490 40155802
L164155109 40060563
L164155109 39965325
" />
</g><path d="M83824721 55260391
L65849390 56202439
" />
<path d="M82935010 38283689
L83824721 55260391
" />
<path d="M64959679 39225737
L65849390 56202439
" />
<path d="M64959679 39225737
L82935010 38283689
" />
<path d="M85112729 19708182
L85112729 36708182
" />
<path d="M103112729 19708182
L103112729 36708182
" />
<path d="M85112729 19708182
L103112729 19708182
" />
<path d="M103112729 36708182
L85112729 36708182
" />
<path d="M140499357 63284200
L155778856 70736509
" />
<path d="M155778856 70736509
L147888175 86914802
" />
<path d="M132608676 79462493
L140499357 63284200
" />
<path d="M132608676 79462493
L147888175 86914802
" />
<path d="M103759136 22554994
L121756395 22869137
" />
<path d="M103759136 22554994
L103462445 39552405
" />
<path d="M121756395 22869137
L121459704 39866548
" />
<path d="M121459704 39866548
L103462445 39552405
" />
</g>
<g style="fill:#000000; fill-opacity:0.0; 
stroke:#000000; stroke-width:120000.000000; stroke-opacity:1; 
stroke-linecap:round; stroke-linejoin:round;">
<path d="M160902729 55608182
L160902729 36608182
" />
<path d="M160902729 36608182
L165902729 36608182
" />
<path d="M165902729 55608182
L160902729 55608182
" />
<path d="M165902729 36608182
L165902729 55608182
" />
</g>
<g style="fill:#000000; fill-opacity:0.0; 
stroke:#000000; stroke-width:150000.000000; stroke-opacity:1; 
stroke-linecap:round; stroke-linejoin:round;">
<path d="M46524285 48827943
L28592781 50396747
" />
<path d="M27111133 33461437
L28592781 50396747
" />
<path d="M45042637 31892633
L46524285 48827943
" />
<path d="M27111133 33461437
L45042637 31892633
" />
<path d="M65937438 64194450
L48005934 65763254
" />
<path d="M64455790 47259140
L65937438 64194450
" />
<path d="M46524286 48827944
L64455790 47259140
" />
<path d="M46524286 48827944
L48005934 65763254
" />
<path d="M122053086 5871727
L121756395 22869138
" />
<path d="M104055827 5557584
L122053086 5871727
" />
<path d="M104055827 5557584
L103759136 22554995
" />
<path d="M121756395 22869138
L103759136 22554995
" />
<path d="M45042638 31892634
L46524286 48827944
" />
<path d="M62974142 30323830
L64455790 47259140
" />
<path d="M45042638 31892634
L62974142 30323830
" />
<path d="M64455790 47259140
L46524286 48827944
" />
<path d="M140307180 28351193
L139713889 45340837
" />
<path d="M122318145 27723003
L140307180 28351193
" />
<path d="M122318145 27723003
L121724854 44712647
" />
<path d="M139713889 45340837
L121724854 44712647
" />
<path d="M122911436 10733359
L122318145 27723003
" />
<path d="M140900471 11361549
L140307180 28351193
" />
<path d="M122911436 10733359
L140900471 11361549
" />
<path d="M140307180 28351193
L122318145 27723003
" />
<path d="M121163013 56863959
L103165754 56549816
" />
<path d="M103462445 39552405
L121459704 39866548
" />
<path d="M103462445 39552405
L103165754 56549816
" />
<path d="M121459704 39866548
L121163013 56863959
" />
<path d="M64069968 22249035
L82045299 21306987
" />
<path d="M64069968 22249035
L64959679 39225737
" />
<path d="M82935010 38283689
L64959679 39225737
" />
<path d="M82045299 21306987
L82935010 38283689
" />
<path d="M82045298 21306986
L64069967 22249034
" />
<path d="M63180256 5272332
L64069967 22249034
" />
<path d="M63180256 5272332
L81155587 4330284
" />
<path d="M81155587 4330284
L82045298 21306986
" />
<path d="M103112729 36708182
L103112729 53708182
" />
<path d="M85112729 36708182
L103112729 36708182
" />
<path d="M103112729 53708182
L85112729 53708182
" />
<path d="M85112729 36708182
L85112729 53708182
" />
<path d="M114953263 62455361
L111709510 79143023
" />
<path d="M132622552 65889923
L129378799 82577585
" />
<path d="M129378799 82577585
L111709510 79143023
" />
<path d="M114953263 62455361
L132622552 65889923
" />
<path d="M139120597 62330481
L121131562 61702291
" />
<path d="M139713888 45340837
L139120597 62330481
" />
<path d="M121724853 44712647
L139713888 45340837
" />
<path d="M121724853 44712647
L121131562 61702291
" />
<path d="M103112729 19708182
L85112729 19708182
" />
<path d="M85112729 2708182
L103112729 2708182
" />
<path d="M85112729 2708182
L85112729 19708182
" />
<path d="M103112729 2708182
L103112729 19708182
" />
<g >
</g>
<g >
</g>
<g >
</g>
<g >
</g>
<g >
</g>
<g >
</g>
<g >
</g>
<g >
</g>
<g >
</g>
<g >
</g>
<g >
</g>
<g >
</g>
<g >
</g>
<g >
</g>
<g >
</g>
<g >
</g>
<g >
</g>
<g >
</g>
<g >
</g>
<g >
</g>
<g >
</g>
<g >
</g>
<g >
</g>
<g >
</g>
<g >
</g>
<g >
</g>
<g >
</g>
<g >
</g>
<g >
</g>
<g >
</g>
<g >
</g>
<g >
</g>
<g >
</g>
<g >
</g>
<g >
</g>
<g >
</g>
<g >
</g>
<g >
</g>
<g >
</g>
<g >
</g>
<g >
</g>
<g >
</g>
<g >
</g>
<g >
</g>
<g >
</g>
<g >
</g>
<g >
</g>
<g >
</g>
<g >
</g>
<g >
</g>
<g >
</g>
<g >
</g>
<g >
</g>
<g >
</g>
<g >
</g>
<g >
</g>
<g >
</g>
<g >
</g>
</g>
<g style="fill:#000000; fill-opacity:0.0; 
stroke:#000000; stroke-width:150000.000000; stroke-opacity:1; 
stroke-linecap:round; stroke-linejoin:round;">
<path d="M142843886.868480 6235828.523508 A199999988.000000 199999988.000000 0.0 0 0 36216184.984480 8771533.948681" />
<path d="M32688112.506493 11637112.183737 A69999999.000000 69999999.000000 0.0 0 0 27676696.083917 67259339.972147" />
<path d="M142843887 6235828
L141112729 12478182
" />
<path d="M148608577.244653 89142252.197237 A70000000.000000 70000000.000000 0.0 0 0 155537344.410173 11637113.775824" />
<path d="M150055219 14958154
L151789330 8705154
" />
<path d="M155537319.755814 11637126.250238 A5999974.000000 5999974.000000 0.0 0 0 152009273.089965 8771533.702533" />
<path d="M36216183.922771 8771533.744640 A6000001.000000 6000001.000000 0.0 0 0 32688112.809249 11637113.895747" />
<path d="M142220214.949548 91125467.168900 A499999936.000000 499999936.000000 0.0 0 0 32964986.992001 71355473.117874" />
<path d="M141112729 12478182
L150055219 14958154
" />
<path d="M152009272.996165 8771534.012682 A204401178.000000 204401178.000000 0.0 0 0 151789328.997954 8705154.006792" />
<path d="M142220197.425798 91125522.486929 A6000020.000000 6000020.000000 0.0 0 0 148608575.945681 89142251.956210" />
<path d="M27676696.398816 67259340.867627 A6000001.000000 6000001.000000 0.0 0 0 32964987.033166 71355473.511267" />
<g >
</g>
<g >
</g>
<g >
</g>
<g >
</g>
<g >
</g>
<g >
</g>
<g >
</g>
<g >
</g>
<g >
</g>
<g >
</g>
<g >
</g>
<g >
</g>
<g >
</g>
<g >
</g>
<g >
</g>
<g >
</g>
<g >
</g>
<g >
</g>
<g >
</g>
<g >
</g>
<g >
</g>
<g >
</g>
<g >
</g>
<g >
</g>
<g >
</g>
<g >
</g>
<g >
</g>
<g >
</g>
<g >
</g>
<g >
</g>
<g >
</g>
<g >
</g>
<g >
</g>
<g >
</g>
<g >
</g>
<g >
</g>
<g >
</g>
<g >
</g>
<g >
</g>
<g >
</g>
<g >
</g>
<g >
</g>
<g >
</g>
<g >
</g>
<g >
</g>
<g >
</g>
<g >
</g>
<g >
</g>
<g >
</g>
<g >
</g>
<g >
</g>
<g >
</g>
<g >
</g>
<g >
</g>
<g >
</g>
<g >
</g>
<g >
</g>
<g >
</g>
</g> 
</svg>
