M48
; DRILL file {KiCad 6.0.2-378541a8eb~116~ubuntu20.04.1} date zo 20 mrt 2022 18:23:18 CET
; FORMAT={-:-/ absolute / metric / decimal}
; #@! TF.CreationDate,2022-03-20T18:23:18+01:00
; #@! TF.GenerationSoftware,Kicad,Pcbnew,6.0.2-378541a8eb~116~ubuntu20.04.1
; #@! TF.FileFunction,Plated,1,2,PTH
FMAT,2
METRIC
; #@! TA.AperFunction,Plated,PTH,ViaDrill
T1C0.200
; #@! TA.AperFunction,Plated,PTH,ViaDrill
T2C0.400
; #@! TA.AperFunction,Plated,PTH,ComponentDrill
T3C0.400
; #@! TA.AperFunction,Plated,PTH,ComponentDrill
T4C0.500
; #@! TA.AperFunction,Plated,PTH,ComponentDrill
T5C0.600
; #@! TA.AperFunction,Plated,PTH,ComponentDrill
T6C0.635
; #@! TA.AperFunction,Plated,PTH,ComponentDrill
T7C0.750
; #@! TA.AperFunction,Plated,PTH,ComponentDrill
T8C2.200
%
G90
G05
T1
X99.85Y49.005
X105.9Y32.95
X105.95Y42.375
X106.225Y6.5
X106.364Y7.55
X106.925Y42.1
X106.93Y41.125
X106.95Y32.9
X108.15Y18.675
X108.925Y15.275
X108.975Y31.15
X109.125Y24.725
X109.75Y26.5
X110.1Y3.825
X110.86Y29.715
X111.09Y3.705
X111.1Y20.15
X112.18Y3.635
X112.2Y17.575
X113.0Y28.325
X113.27Y17.545
X113.273Y3.65
X113.51Y13.935
X114.34Y3.635
X114.37Y17.545
X117.15Y3.785
X117.95Y3.575
X119.11Y3.145
X119.57Y17.145
X119.58Y15.135
X120.16Y2.935
X120.28Y17.205
X121.11Y17.195
T2
X104.5Y43.475
X105.19Y37.195
X107.675Y29.85
X107.96Y37.205
X108.975Y22.875
X109.225Y42.075
X116.5Y35.9
X117.225Y33.975
X122.475Y25.825
T3
X-6.77Y-7.155
X-6.287Y-5.988
X-6.287Y-8.322
X-5.12Y-5.505
X-5.12Y-8.805
X-3.953Y-5.988
X-3.953Y-8.322
X-3.47Y-7.155
X-3.46Y44.585
X-2.977Y45.752
X-2.977Y43.418
X-1.81Y46.235
X-1.81Y42.935
X-0.643Y45.752
X-0.643Y43.418
X-0.16Y44.585
X25.037Y25.961
X25.459Y27.151
X25.581Y24.821
X26.598Y27.695
X26.771Y24.399
X27.789Y27.273
X27.911Y24.943
X28.332Y26.133
X43.064Y45.981
X43.485Y47.172
X43.608Y44.842
X44.625Y47.716
X44.798Y44.42
X45.058Y7.934
X45.479Y9.124
X45.602Y6.794
X45.816Y47.294
X45.938Y44.964
X46.359Y46.154
X46.619Y9.668
X46.792Y6.372
X47.81Y9.246
X47.932Y6.916
X48.353Y8.106
X63.085Y27.955
X63.506Y29.145
X63.628Y26.815
X64.646Y29.689
X64.819Y26.393
X65.837Y29.267
X65.959Y26.937
X66.38Y28.127
X85.56Y50.945
X86.043Y52.112
X86.043Y49.778
X87.21Y52.595
X87.21Y49.295
X88.377Y52.112
X88.377Y49.778
X88.86Y50.945
X94.23Y-12.595
X94.713Y-11.428
X94.713Y-13.762
X95.88Y-10.945
X95.88Y-14.245
X97.047Y-11.428
X97.047Y-13.762
X97.53Y-12.595
T4
X115.95Y12.91
X115.975Y10.385
X116.95Y12.91
X116.975Y10.385
X117.95Y12.91
X117.975Y10.385
X118.95Y12.91
X118.975Y10.385
X122.031Y32.021
X122.29Y31.055
X122.549Y30.089
X122.808Y29.123
T7
X118.95Y23.35
X120.95Y23.35
T8
X-5.12Y-7.155
X-1.81Y44.585
X26.685Y26.047
X44.712Y46.068
X46.706Y8.02
X64.732Y28.041
X87.21Y50.945
X95.88Y-12.595
T5
X102.115Y46.761G85X101.901Y45.99
G05
X103.237Y50.808G85X102.916Y49.652
G05
X112.946Y43.757G85X112.732Y42.986
G05
X114.068Y47.804G85X113.747Y46.648
G05
T6
X-5.815Y12.742G85X-6.448Y12.686
G05
X-0.651Y11.085G85X-1.284Y11.03
G05
X4.147Y13.613G85X3.514Y13.558
G05
X12.116Y14.31G85X11.484Y14.255
G05
X13.598Y-2.625G85X12.965Y-2.68
G05
X17.28Y12.654G85X16.648Y12.599
G05
X18.762Y-4.281G85X18.129Y-4.336
G05
X22.078Y15.182G85X21.446Y15.127
G05
X23.56Y-1.753G85X22.927Y-1.809
G05
X29.836Y40.75G85X29.202Y40.717
G05
X30.726Y23.774G85X30.092Y23.741
G05
X31.616Y6.797G85X30.982Y6.764
G05
X34.939Y38.915G85X34.305Y38.882
G05
X35.829Y21.938G85X35.195Y21.905
G05
X36.719Y4.962G85X36.085Y4.928
G05
X39.823Y41.274G85X39.188Y41.241
G05
X40.712Y24.297G85X40.078Y24.264
G05
X41.602Y7.32G85X40.968Y7.287
G05
X51.131Y43.072G85X50.496Y43.072
G05
X51.131Y26.072G85X50.496Y26.072
G05
X51.131Y9.072G85X50.496Y9.072
G05
X56.131Y40.972G85X55.496Y40.972
G05
X56.131Y23.972G85X55.496Y23.972
G05
X56.131Y6.972G85X55.496Y6.972
G05
X61.131Y43.072G85X60.496Y43.072
G05
X61.131Y26.072G85X60.496Y26.072
G05
X61.131Y9.072G85X60.496Y9.072
G05
X69.265Y6.154G85X68.63Y6.165
G05
X69.562Y23.152G85X68.927Y23.163
G05
X69.859Y40.149G85X69.224Y40.16
G05
X74.228Y3.967G85X73.593Y3.978
G05
X74.525Y20.965G85X73.89Y20.976
G05
X74.821Y37.962G85X74.186Y37.973
G05
X78.545Y-17.273G85X77.922Y-17.152
G05
X79.264Y5.98G85X78.629Y5.991
G05
X79.56Y22.977G85X78.926Y22.988
G05
X79.857Y39.974G85X79.222Y39.985
G05
X83.053Y-20.289G85X82.429Y-20.167
G05
X87.311Y0.924G85X86.676Y0.946
G05
X87.904Y17.914G85X87.27Y17.936
G05
X88.361Y-19.181G85X87.738Y-19.06
G05
X88.498Y34.903G85X87.863Y34.926
G05
X92.235Y-1.349G85X91.6Y-1.327
G05
X92.828Y15.641G85X92.193Y15.663
G05
X93.421Y32.63G85X92.787Y32.652
G05
X97.305Y0.575G85X96.67Y0.597
G05
X97.898Y17.565G85X97.264Y17.587
G05
X98.492Y34.554G85X97.857Y34.577
G05
X107.257Y-22.894G85X106.979Y-23.465
G05
X111.336Y-19.321G85X111.058Y-19.891
G05
X111.641Y-13.906G85X111.362Y-14.477
G05
T0
M30
