<?xml version="1.0" standalone="no"?>
 <!DOCTYPE svg PUBLIC "-//W3C//DTD SVG 1.1//EN" 
 "http://www.w3.org/Graphics/SVG/1.1/DTD/svg11.dtd"> 
<svg
  xmlns:svg="http://www.w3.org/2000/svg"
  xmlns="http://www.w3.org/2000/svg"
  xmlns:xlink="http://www.w3.org/1999/xlink"
  version="1.1"
  width="14.218920cm" height="9.131300cm" viewBox="0 0 142189200 91313000">
<title>SVG Picture created as Wubbo-brd.svg date 2022/06/25 21:59:30 </title>
  <desc>Picture generated by PCBNEW </desc>
<g style="fill:#000000; fill-opacity:1.000000;stroke:#000000; stroke-opacity:1.000000;
stroke-linecap:round; stroke-linejoin:round;"
 transform="translate(0 0) scale(1 1)">
</g>
<g style="fill:#000000; fill-opacity:0.0; 
stroke:#000000; stroke-width:0.000000; stroke-opacity:1; 
stroke-linecap:round; stroke-linejoin:round;">
</g>
<g style="fill:#000000; fill-opacity:0.0; 
stroke:#000000; stroke-width:120000.000000; stroke-opacity:1; 
stroke-linecap:round; stroke-linejoin:round;">
<path d="M47913209 43182776
L48563761 43749505
" />
<path d="M59806619 41407890
L57250127 41541871
" />
<path d="M48259520 38708520
L47614470 39393217
" />
<path d="M52403265 45741291
L57546207 45471761
" />
<path d="M59959963 44333875
L59806619 41407890
" />
<path d="M57250127 41541871
L57186277 40323543
" />
<path d="M57546207 45471761
L57493348 44463145
" />
<path d="M57186277 40323543
L52722403 40557484
" />
<path d="M45387808 42954632
L45231324 39968730
" />
<path d="M52250204 39190324
L51485093 38539474
" />
<path d="M45387808 42954632
L47894369 42823269
" />
<path d="M47614470 39393217
L47638021 39842601
" />
<path d="M57493348 44463145
L59959963 44333875
" />
<path d="M47894369 42823269
L47913209 43182776
" />
<path d="M52363490 44982332
L52403265 45741291
" />
<path d="M47638021 39842601
L45231324 39968730
" />
<path d="M51485093 38539474
L48259520 38708520
" />
<path d="M52303064 40198939
L52250204 39190324
" />
<path d="M48563761 43749505
L50825184 43626207
" />
<path d="M52363489.855887 44982332.005792 A1418269.000000 1418269.000000 0.0 0 0 50825183.958345 43626206.514260" />
<path d="M52303065.018128 40198938.967673 A373268.000000 373268.000000 0.0 0 0 52722402.950926 40557483.607062" />
<path d="M67842613 24025510
L68462613 24625510
" />
<path d="M79812613 22875510
L77252613 22875510
" />
<path d="M68422613 19575510
L67742613 20225510
" />
<path d="M72192613 26815510
L77342613 26815510
" />
<path d="M79812613 25805510
L79812613 22875510
" />
<path d="M77252613 22875510
L77252613 21655510
" />
<path d="M77342613 26815510
L77342613 25805510
" />
<path d="M77252613 21655510
L72782613 21655510
" />
<path d="M65332613 23665510
L65332613 20675510
" />
<path d="M72382613 20265510
L71652613 19575510
" />
<path d="M65332613 23665510
L67842613 23665510
" />
<path d="M67742613 20225510
L67742613 20675510
" />
<path d="M77342613 25805510
L79812613 25805510
" />
<path d="M67842613 23665510
L67842613 24025510
" />
<path d="M72192613 26055510
L72192613 26815510
" />
<path d="M67742613 20675510
L65332613 20675510
" />
<path d="M71652613 19575510
L68422613 19575510
" />
<path d="M72382613 21275510
L72382613 20265510
" />
<path d="M68462613 24625510
L70727389 24620734
" />
<path d="M72192612.630042 26055509.995490 A1418269.000000 1418269.000000 0.0 0 0 70727388.999034 24620733.970890" />
<path d="M72382613.325117 21275510.006704 A373269.000000 373269.000000 0.0 0 0 72782612.995886 21655509.942865" />
<path d="M115537766 75197596
L116348833 74903367
" />
<path d="M119751455 63934905
L118629225 66235818
" />
<path d="M111792388 72725544
L112078512 73621666
" />
<path d="M119952316 72510898
L122209927 67882109
" />
<path d="M122384922 65219332
L119751455 63934905
" />
<path d="M118629225 66235818
L117532697 65701005
" />
<path d="M122209927 67882109
L121302145 67439354
" />
<path d="M117532697 65701005
L115573178 69718614
" />
<path d="M114113889 77295756
L111426494 75985026
" />
<path d="M114148505 69468796
L113208327 69822440
" />
<path d="M114113889 77295756
L115214200 75039783
" />
<path d="M112078512 73621666
L112482969 73818933
" />
<path d="M121302145 67439354
L122384922 65219332
" />
<path d="M115214200 75039783
L115537766 75197596
" />
<path d="M119269232 72177736
L119952316 72510898
" />
<path d="M112482969 73818933
L111426494 75985026
" />
<path d="M113208327 69822440
L111792388 72725544
" />
<path d="M115056287 69911551
L114148505 69468796
" />
<path d="M116348833 74903367
L117337352 72865706
" />
<path d="M119269232.309666 72177735.384256 A1418270.000000 1418270.000000 0.0 0 0 117337351.611446 72865705.826203" />
<path d="M115056286.830839 69911551.329416 A373270.000000 373270.000000 0.0 0 0 115573178.262199 69718614.105303" />
<path d="M86410317 26989755
L87019751 27600484
" />
<path d="M98398565 26048836
L95838954 26004158
" />
<path d="M87067892 22550555
L86376652 23188589
" />
<path d="M90710963 29855248
L95860178 29945128
" />
<path d="M98347429 28978389
L98398565 26048836
" />
<path d="M95838954 26004158
L95860246 24784343
" />
<path d="M95860178 29945128
L95877805 28935282
" />
<path d="M95860246 24784343
L91390927 24706331
" />
<path d="M83906983 26586005
L83959165 23596460
" />
<path d="M91015247 23309562
L90297400 22606927
" />
<path d="M83906983 26586005
L86416600 26629810
" />
<path d="M86376652 23188589
L86368798 23638520
" />
<path d="M95877805 28935282
L98347429 28978389
" />
<path d="M86416600 26629810
L86410317 26989755
" />
<path d="M90724226 29095364
L90710963 29855248
" />
<path d="M86368798 23638520
L83959165 23596460
" />
<path d="M90297400 22606927
L87067892 22550555
" />
<path d="M90997620 24319408
L91015247 23309562
" />
<path d="M87019751 27600484
L89284266 27635235
" />
<path d="M90724225.911815 29095363.997385 A1418269.000000 1418269.000000 0.0 0 0 89284265.992872 27635234.546998" />
<path d="M90997620.463791 24319408.017665 A373269.000000 373269.000000 0.0 0 0 91390927.008369 24706331.153604" />
<path d="M10203152 37171993
L10873086 37715673
" />
<path d="M22027373 34983115
L19477115 35206234
" />
<path d="M10393101 32688376
L9772340 33395169
" />
<path d="M14779763 39572249
L19910166 39123397
" />
<path d="M22282739 37901965
L22027373 34983115
" />
<path d="M19477115 35206234
L19370785 33990876
" />
<path d="M19910166 39123397
L19822138 38117240
" />
<path d="M19370785 33990876
L14917794 34380462
" />
<path d="M7671327 37032124
L7410731 34053502
" />
<path d="M14398170 33030614
L13610810 32406863
" />
<path d="M7671327 37032124
L10171776 36813363
" />
<path d="M9772340 33395169
L9811560 33843456
" />
<path d="M19822138 38117240
L22282739 37901965
" />
<path d="M10171776 36813363
L10203152 37171993
" />
<path d="M14713525 38815141
L14779763 39572249
" />
<path d="M9811560 33843456
L7410731 34053502
" />
<path d="M13610810 32406863
L10393101 32688376
" />
<path d="M14486197 34036770
L14398170 33030614
" />
<path d="M10873086 37715673
L13128827 37513527
" />
<path d="M14713523.836054 38815141.087550 A1418269.000000 1418269.000000 0.0 0 0 13128827.056368 37513527.465700" />
<path d="M14486198.695456 34036769.886835 A373268.000000 373268.000000 0.0 0 0 14917793.942234 34380461.640106" />
<path d="M29616305 52538500
L30286239 53082180
" />
<path d="M41440526 50349622
L38890268 50572741
" />
<path d="M29806254 48054883
L29185493 48761676
" />
<path d="M34192916 54938756
L39323319 54489904
" />
<path d="M41695892 53268472
L41440526 50349622
" />
<path d="M38890268 50572741
L38783938 49357383
" />
<path d="M39323319 54489904
L39235291 53483747
" />
<path d="M38783938 49357383
L34330947 49746969
" />
<path d="M27084480 52398631
L26823884 49420009
" />
<path d="M33811323 48397121
L33023963 47773370
" />
<path d="M27084480 52398631
L29584929 52179870
" />
<path d="M29185493 48761676
L29224713 49209963
" />
<path d="M39235291 53483747
L41695892 53268472
" />
<path d="M29584929 52179870
L29616305 52538500
" />
<path d="M34126678 54181648
L34192916 54938756
" />
<path d="M29224713 49209963
L26823884 49420009
" />
<path d="M33023963 47773370
L29806254 48054883
" />
<path d="M33899350 49403277
L33811323 48397121
" />
<path d="M30286239 53082180
L32541980 52880034
" />
<path d="M34126676.836054 54181648.087550 A1418269.000000 1418269.000000 0.0 0 0 32541980.056368 52880034.465700" />
<path d="M33899351.695456 49403276.886835 A373268.000000 373268.000000 0.0 0 0 34330946.942234 49746968.640106" />
<path d="M86707008 9992345
L87316442 10603074
" />
<path d="M98695256 9051426
L96135645 9006748
" />
<path d="M87364583 5553145
L86673343 6191179
" />
<path d="M91007654 12857838
L96156869 12947718
" />
<path d="M98644120 11980979
L98695256 9051426
" />
<path d="M96135645 9006748
L96156937 7786933
" />
<path d="M96156869 12947718
L96174496 11937872
" />
<path d="M96156937 7786933
L91687618 7708921
" />
<path d="M84203674 9588595
L84255856 6599050
" />
<path d="M91311938 6312152
L90594091 5609517
" />
<path d="M84203674 9588595
L86713291 9632400
" />
<path d="M86673343 6191179
L86665489 6641110
" />
<path d="M96174496 11937872
L98644120 11980979
" />
<path d="M86713291 9632400
L86707008 9992345
" />
<path d="M91020917 12097954
L91007654 12857838
" />
<path d="M86665489 6641110
L84255856 6599050
" />
<path d="M90594091 5609517
L87364583 5553145
" />
<path d="M91294311 7321998
L91311938 6312152
" />
<path d="M87316442 10603074
L89580957 10637825
" />
<path d="M91020916.911815 12097953.997385 A1418269.000000 1418269.000000 0.0 0 0 89580956.992872 10637824.546998" />
<path d="M91294311.463791 7321998.017665 A373269.000000 373269.000000 0.0 0 0 91687618.008369 7708921.153604" />
<path d="M28134657 35603190
L28804591 36146870
" />
<path d="M39958878 33414312
L37408620 33637431
" />
<path d="M28324606 31119573
L27703845 31826366
" />
<path d="M32711268 38003446
L37841671 37554594
" />
<path d="M40214244 36333162
L39958878 33414312
" />
<path d="M37408620 33637431
L37302290 32422073
" />
<path d="M37841671 37554594
L37753643 36548437
" />
<path d="M37302290 32422073
L32849299 32811659
" />
<path d="M25602832 35463321
L25342236 32484699
" />
<path d="M32329675 31461811
L31542315 30838060
" />
<path d="M25602832 35463321
L28103281 35244560
" />
<path d="M27703845 31826366
L27743065 32274653
" />
<path d="M37753643 36548437
L40214244 36333162
" />
<path d="M28103281 35244560
L28134657 35603190
" />
<path d="M32645030 37246338
L32711268 38003446
" />
<path d="M27743065 32274653
L25342236 32484699
" />
<path d="M31542315 30838060
L28324606 31119573
" />
<path d="M32417702 32467967
L32329675 31461811
" />
<path d="M28804591 36146870
L31060332 35944724
" />
<path d="M32645028.836054 37246338.087550 A1418269.000000 1418269.000000 0.0 0 0 31060332.056368 35944724.465700" />
<path d="M32417703.695456 32467966.886835 A373268.000000 373268.000000 0.0 0 0 32849298.942234 32811658.640106" />
<path d="M104888586 32273806
L105487269 32895078
" />
<path d="M116891429 31542253
L114332988 31452910
" />
<path d="M105623536 27846758
L104921265 28472631
" />
<path d="M109138567 35213919
L114285429 35393651
" />
<path d="M116789173 34470468
L116891429 31542253
" />
<path d="M114332988 31452910
L114375566 30233654
" />
<path d="M114285429 35393651
L114320678 34384267
" />
<path d="M114375566 30233654
L109908289 30077653
" />
<path d="M102392679 31826427
L102497028 28838249
" />
<path d="M109557043 28674540
L108851568 27959484
" />
<path d="M102392679 31826427
L104901150 31914025
" />
<path d="M104921265 28472631
L104905560 28922356
" />
<path d="M114320678 34384267
L116789173 34470468
" />
<path d="M104901150 31914025
L104888586 32273806
" />
<path d="M109165090 34454382
L109138567 35213919
" />
<path d="M104905560 28922356
L102497028 28838249
" />
<path d="M108851568 27959484
L105623536 27846758
" />
<path d="M109521794 29683925
L109557043 28674540
" />
<path d="M105487269 32895078
L107750832 32969344
" />
<path d="M109165089.366167 34454381.970127 A1418269.000000 1418269.000000 0.0 0 0 107750831.999833 32969344.097178" />
<path d="M109521794.188676 29683925.010486 A373269.000000 373269.000000 0.0 0 0 109908288.991807 30077652.778547" />
<path d="M105481877 15284162
L106080560 15905434
" />
<path d="M117484720 14552609
L114926279 14463266
" />
<path d="M106216827 10857114
L105514556 11482987
" />
<path d="M109731858 18224275
L114878720 18404007
" />
<path d="M117382464 17480824
L117484720 14552609
" />
<path d="M114926279 14463266
L114968857 13244010
" />
<path d="M114878720 18404007
L114913969 17394623
" />
<path d="M114968857 13244010
L110501580 13088009
" />
<path d="M102985970 14836783
L103090319 11848605
" />
<path d="M110150334 11684896
L109444859 10969840
" />
<path d="M102985970 14836783
L105494441 14924381
" />
<path d="M105514556 11482987
L105498851 11932712
" />
<path d="M114913969 17394623
L117382464 17480824
" />
<path d="M105494441 14924381
L105481877 15284162
" />
<path d="M109758381 17464738
L109731858 18224275
" />
<path d="M105498851 11932712
L103090319 11848605
" />
<path d="M109444859 10969840
L106216827 10857114
" />
<path d="M110115085 12694281
L110150334 11684896
" />
<path d="M106080560 15905434
L108344123 15979700
" />
<path d="M109758380.366167 17464737.970127 A1418269.000000 1418269.000000 0.0 0 0 108344122.999833 15979700.097178" />
<path d="M110115085.188676 12694281.010486 A373269.000000 373269.000000 0.0 0 0 110501579.991807 13088008.778547" />
<path d="M86113626 43987166
L86723060 44597895
" />
<path d="M98101874 43046247
L95542263 43001569
" />
<path d="M86771201 39547966
L86079961 40186000
" />
<path d="M90414272 46852659
L95563487 46942539
" />
<path d="M98050738 45975800
L98101874 43046247
" />
<path d="M95542263 43001569
L95563555 41781754
" />
<path d="M95563487 46942539
L95581114 45932693
" />
<path d="M95563555 41781754
L91094236 41703742
" />
<path d="M83610292 43583416
L83662474 40593871
" />
<path d="M90718556 40306973
L90000709 39604338
" />
<path d="M83610292 43583416
L86119909 43627221
" />
<path d="M86079961 40186000
L86072107 40635931
" />
<path d="M95581114 45932693
L98050738 45975800
" />
<path d="M86119909 43627221
L86113626 43987166
" />
<path d="M90427535 46092775
L90414272 46852659
" />
<path d="M86072107 40635931
L83662474 40593871
" />
<path d="M90000709 39604338
L86771201 39547966
" />
<path d="M90700929 41316819
L90718556 40306973
" />
<path d="M86723060 44597895
L88987575 44632646
" />
<path d="M90427534.911815 46092774.997385 A1418269.000000 1418269.000000 0.0 0 0 88987574.992872 44632645.546998" />
<path d="M90700929.463791 41316819.017665 A373269.000000 373269.000000 0.0 0 0 91094236.008369 41703742.153604" />
<path d="M47023498 26206074
L47674050 26772803
" />
<path d="M58916908 24431188
L56360416 24565169
" />
<path d="M47369809 21731818
L46724759 22416515
" />
<path d="M51513554 28764589
L56656496 28495059
" />
<path d="M59070252 27357173
L58916908 24431188
" />
<path d="M56360416 24565169
L56296566 23346841
" />
<path d="M56656496 28495059
L56603637 27486443
" />
<path d="M56296566 23346841
L51832692 23580782
" />
<path d="M44498097 25977930
L44341613 22992028
" />
<path d="M51360493 22213622
L50595382 21562772
" />
<path d="M44498097 25977930
L47004658 25846567
" />
<path d="M46724759 22416515
L46748310 22865899
" />
<path d="M56603637 27486443
L59070252 27357173
" />
<path d="M47004658 25846567
L47023498 26206074
" />
<path d="M51473779 28005630
L51513554 28764589
" />
<path d="M46748310 22865899
L44341613 22992028
" />
<path d="M50595382 21562772
L47369809 21731818
" />
<path d="M51413353 23222237
L51360493 22213622
" />
<path d="M47674050 26772803
L49935473 26649505
" />
<path d="M51473778.855887 28005630.005792 A1418269.000000 1418269.000000 0.0 0 0 49935472.958345 26649504.514260" />
<path d="M51413354.018128 23222236.967673 A373268.000000 373268.000000 0.0 0 0 51832691.950926 23580781.607062" />
<path d="M46133786 9229371
L46784338 9796100
" />
<path d="M58027196 7454485
L55470704 7588466
" />
<path d="M46480097 4755115
L45835047 5439812
" />
<path d="M50623842 11787886
L55766784 11518356
" />
<path d="M58180540 10380470
L58027196 7454485
" />
<path d="M55470704 7588466
L55406854 6370138
" />
<path d="M55766784 11518356
L55713925 10509740
" />
<path d="M55406854 6370138
L50942980 6604079
" />
<path d="M43608385 9001227
L43451901 6015325
" />
<path d="M50470781 5236919
L49705670 4586069
" />
<path d="M43608385 9001227
L46114946 8869864
" />
<path d="M45835047 5439812
L45858598 5889196
" />
<path d="M55713925 10509740
L58180540 10380470
" />
<path d="M46114946 8869864
L46133786 9229371
" />
<path d="M50584067 11028927
L50623842 11787886
" />
<path d="M45858598 5889196
L43451901 6015325
" />
<path d="M49705670 4586069
L46480097 4755115
" />
<path d="M50523641 6245534
L50470781 5236919
" />
<path d="M46784338 9796100
L49045761 9672802
" />
<path d="M50584066.855887 11028927.005792 A1418269.000000 1418269.000000 0.0 0 0 49045760.958345 9672801.514260" />
<path d="M50523642.018128 6245533.967673 A373268.000000 373268.000000 0.0 0 0 50942979.950926 6604078.607062" />
<path d="M67842613 41025510
L68462613 41625510
" />
<path d="M79812613 39875510
L77252613 39875510
" />
<path d="M68422613 36575510
L67742613 37225510
" />
<path d="M72192613 43815510
L77342613 43815510
" />
<path d="M79812613 42805510
L79812613 39875510
" />
<path d="M77252613 39875510
L77252613 38655510
" />
<path d="M77342613 43815510
L77342613 42805510
" />
<path d="M77252613 38655510
L72782613 38655510
" />
<path d="M65332613 40665510
L65332613 37675510
" />
<path d="M72382613 37265510
L71652613 36575510
" />
<path d="M65332613 40665510
L67842613 40665510
" />
<path d="M67742613 37225510
L67742613 37675510
" />
<path d="M77342613 42805510
L79812613 42805510
" />
<path d="M67842613 40665510
L67842613 41025510
" />
<path d="M72192613 43055510
L72192613 43815510
" />
<path d="M67742613 37675510
L65332613 37675510
" />
<path d="M71652613 36575510
L68422613 36575510
" />
<path d="M72382613 38275510
L72382613 37265510
" />
<path d="M68462613 41625510
L70727389 41620734
" />
<path d="M72192612.630042 43055509.995490 A1418269.000000 1418269.000000 0.0 0 0 70727388.999034 41620733.970890" />
<path d="M72382613.325117 38275510.006704 A373269.000000 373269.000000 0.0 0 0 72782612.995886 38655509.942865" />
<path d="M96709609 67982242
L97203733 68689520
" />
<path d="M108679117 69137354
L106166152 68648883
" />
<path d="M98128053 63724670
L97336521 64232978
" />
<path d="M100447331 71551001
L105502711 72533667
" />
<path d="M108120047 72013522
L108679117 69137354
" />
<path d="M106166152 68648883
L106398938 67451298
" />
<path d="M105502711 72533667
L105695428 71542224
" />
<path d="M106398938 67451298
L102011065 66598382
" />
<path d="M94314416 67149925
L94884935 64214860
" />
<path d="M101883639 65157596
L101298709 64340983
" />
<path d="M94314416 67149925
L96778301 67628856
" />
<path d="M97336521 64232978
L97250657 64674710
" />
<path d="M105695428 71542224
L108120047 72013522
" />
<path d="M96778301 67628856
L96709609 67982242
" />
<path d="M100592345 70804964
L100447331 71551001
" />
<path d="M97250657 64674710
L94884935 64214860
" />
<path d="M101298709 64340983
L98128053 63724670
" />
<path d="M101690922 66149040
L101883639 65157596
" />
<path d="M97203733 68689520
L99427810 69116971
" />
<path d="M100592345.203030 70804964.042040 A1418269.000000 1418269.000000 0.0 0 0 99427810.041784 69116970.739091" />
<path d="M101690922.228493 66149040.049324 A373269.000000 373269.000000 0.0 0 0 102011064.975497 66598382.203040" />
<path d="M104295294 49263450
L104893977 49884722
" />
<path d="M116298137 48531897
L113739696 48442554
" />
<path d="M105030244 44836402
L104327973 45462275
" />
<path d="M108545275 52203563
L113692137 52383295
" />
<path d="M116195881 51460112
L116298137 48531897
" />
<path d="M113739696 48442554
L113782274 47223298
" />
<path d="M113692137 52383295
L113727386 51373911
" />
<path d="M113782274 47223298
L109314997 47067297
" />
<path d="M101799387 48816071
L101903736 45827893
" />
<path d="M108963751 45664184
L108258276 44949128
" />
<path d="M101799387 48816071
L104307858 48903669
" />
<path d="M104327973 45462275
L104312268 45912000
" />
<path d="M113727386 51373911
L116195881 51460112
" />
<path d="M104307858 48903669
L104295294 49263450
" />
<path d="M108571798 51444026
L108545275 52203563
" />
<path d="M104312268 45912000
L101903736 45827893
" />
<path d="M108258276 44949128
L105030244 44836402
" />
<path d="M108928502 46673569
L108963751 45664184
" />
<path d="M104893977 49884722
L107157540 49958988
" />
<path d="M108571797.366167 51444025.970127 A1418269.000000 1418269.000000 0.0 0 0 107157539.999833 49958988.097178" />
<path d="M108928502.188676 46673569.010486 A373269.000000 373269.000000 0.0 0 0 109314996.991807 47067296.778547" />
<path d="M67842613 7025510
L68462613 7625510
" />
<path d="M79812613 5875510
L77252613 5875510
" />
<path d="M68422613 2575510
L67742613 3225510
" />
<path d="M72192613 9815510
L77342613 9815510
" />
<path d="M79812613 8805510
L79812613 5875510
" />
<path d="M77252613 5875510
L77252613 4655510
" />
<path d="M77342613 9815510
L77342613 8805510
" />
<path d="M77252613 4655510
L72782613 4655510
" />
<path d="M65332613 6665510
L65332613 3675510
" />
<path d="M72382613 3265510
L71652613 2575510
" />
<path d="M65332613 6665510
L67842613 6665510
" />
<path d="M67742613 3225510
L67742613 3675510
" />
<path d="M77342613 8805510
L79812613 8805510
" />
<path d="M67842613 6665510
L67842613 7025510
" />
<path d="M72192613 9055510
L72192613 9815510
" />
<path d="M67742613 3675510
L65332613 3675510
" />
<path d="M71652613 2575510
L68422613 2575510
" />
<path d="M72382613 4275510
L72382613 3265510
" />
<path d="M68462613 7625510
L70727389 7620734
" />
<path d="M72192612.630042 9055509.995490 A1418269.000000 1418269.000000 0.0 0 0 70727388.999034 7620733.970890" />
<path d="M72382613.325117 4275510.006704 A373269.000000 373269.000000 0.0 0 0 72782612.995886 4655509.942865" />
<g >
</g>
<g >
</g>
<g >
</g>
<g >
</g>
<g >
</g>
<g >
</g>
<g >
</g>
<g >
</g>
<g >
</g>
<g >
</g>
<g >
</g>
<g >
</g>
<g >
</g>
<g >
</g>
<g >
</g>
<g >
</g>
<g >
</g>
<g >
</g>
<g >
</g>
<g >
</g>
<g >
</g>
<g >
</g>
<g >
</g>
<g >
</g>
<g >
</g>
<g >
</g>
<g >
</g>
<g >
</g>
<g >
</g>
<g >
</g>
<g >
</g>
<g >
</g>
<g >
</g>
<g >
</g>
<g >
</g>
<g >
</g>
<g >
</g>
<g >
</g>
<g >
</g>
<g >
</g>
<g >
</g>
<g >
</g>
<g >
</g>
<g >
</g>
<g >
</g>
<g >
</g>
<g >
</g>
<g >
</g>
<g >
</g>
<g >
</g>
<g >
</g>
<g >
</g>
<g >
</g>
<g >
</g>
<g >
</g>
<g >
</g>
<g >
</g>
<g >
</g>
<g >
</g>
<g >
</g>
</g>
<g style="fill:#000000; fill-opacity:0.0; 
stroke:#000000; stroke-width:120000.000000; stroke-opacity:1; 
stroke-linecap:round; stroke-linejoin:round;">
</g>
<g style="fill:#000000; fill-opacity:1.0; 
stroke:#000000; stroke-width:1.000000; stroke-opacity:1; 
stroke-linecap:round; stroke-linejoin:round;">
<circle cx="126665629.000000" cy="22245818.000000" r="1750000.000000" /> 
</g>
<g style="fill:#000000; fill-opacity:1.0; 
stroke:#000000; stroke-width:100000.000000; stroke-opacity:1; 
stroke-linecap:round; stroke-linejoin:round;">
</g>
<g style="fill:#000000; fill-opacity:0.0; 
stroke:#000000; stroke-width:100000.000000; stroke-opacity:1; 
stroke-linecap:round; stroke-linejoin:round;">
<path d="M86211629 70536818
L39311629 70536818
" />
<path d="M39311629 70536818
L39311629 52946818
" />
<path d="M39311629 52946818
L86211629 52946818
" />
<path d="M86211629 52946818
L86211629 70536818
" />
</g>
<g style="fill:#000000; fill-opacity:1.0; 
stroke:#000000; stroke-width:21200.000000; stroke-opacity:1; 
stroke-linecap:round; stroke-linejoin:round;">
<path style="fill:#000000; fill-opacity:1.0; 
stroke:#000000; stroke-width:21200.000000; stroke-opacity:1; 
stroke-linecap:round; stroke-linejoin:round;fill-rule:evenodd;"
d="M 86211629.000000,70536818.000000
39311629.000000,70536818.000000
39311629.000000,52946818.000000
86211629.000000,52946818.000000
" /> 
</g>
<g style="fill:#000000; fill-opacity:1.0; 
stroke:#000000; stroke-width:1.000000; stroke-opacity:1; 
stroke-linecap:round; stroke-linejoin:round;">
<circle cx="9571629.000000" cy="21991818.000000" r="1750000.000000" /> 
<circle cx="5507629.000000" cy="57297818.000000" r="1750000.000000" /> 
<circle cx="70531629.000000" cy="72791818.000000" r="1750000.000000" /> 
<circle cx="131371629.000000" cy="61761818.000000" r="1750000.000000" /> 
<circle cx="70991629.000000" cy="3501818.000000" r="1750000.000000" /> 
</g>
<g style="fill:#000000; fill-opacity:0.0; 
stroke:#000000; stroke-width:150000.000000; stroke-opacity:1; 
stroke-linecap:round; stroke-linejoin:round;">
<path d="M127751601.050643 8571971.841140 A118187075.000000 118187075.000000 0.0 0 0 118806159.043130 6102645.815852" />
</g>
<g style="fill:#000000; fill-opacity:0.0; 
stroke:#000000; stroke-width:200000.000000; stroke-opacity:1; 
stroke-linecap:round; stroke-linejoin:round;">
<path d="M46243429 51783362
L44943293 51851499
" />
<path d="M44943293 51851499
L44875056 50549446
" />
<path d="M44875056 50549446
L46175191 50481309
" />
<path d="M46175191 50481309
L46243429 51783362
" />
</g>
<g style="fill:#000000; fill-opacity:1.0; 
stroke:#000000; stroke-width:21200.000000; stroke-opacity:1; 
stroke-linecap:round; stroke-linejoin:round;">
<path style="fill:#000000; fill-opacity:1.0; 
stroke:#000000; stroke-width:21200.000000; stroke-opacity:1; 
stroke-linecap:round; stroke-linejoin:round;fill-rule:evenodd;"
d="M 46243429.000000,51783362.000000
44943293.000000,51851499.000000
44875056.000000,50549446.000000
46175191.000000,50481309.000000
" /> 
</g>
<g style="fill:#000000; fill-opacity:1.0; 
stroke:#000000; stroke-width:200000.000000; stroke-opacity:1; 
stroke-linecap:round; stroke-linejoin:round;">
</g>
<g style="fill:#000000; fill-opacity:0.0; 
stroke:#000000; stroke-width:200000.000000; stroke-opacity:1; 
stroke-linecap:round; stroke-linejoin:round;">
<path d="M56231642 51259902
L54931506 51328039
" />
<path d="M54931506 51328039
L54863268 50025986
" />
<path d="M54863268 50025986
L56163404 49957849
" />
<path d="M56163404 49957849
L56231642 51259902
" />
</g>
<g style="fill:#000000; fill-opacity:1.0; 
stroke:#000000; stroke-width:21200.000000; stroke-opacity:1; 
stroke-linecap:round; stroke-linejoin:round;">
<path style="fill:#000000; fill-opacity:1.0; 
stroke:#000000; stroke-width:21200.000000; stroke-opacity:1; 
stroke-linecap:round; stroke-linejoin:round;fill-rule:evenodd;"
d="M 56231642.000000,51259902.000000
54931506.000000,51328039.000000
54863268.000000,50025986.000000
56163404.000000,49957849.000000
" /> 
</g>
<g style="fill:#000000; fill-opacity:1.0; 
stroke:#000000; stroke-width:200000.000000; stroke-opacity:1; 
stroke-linecap:round; stroke-linejoin:round;">
</g>
<g style="fill:#000000; fill-opacity:0.0; 
stroke:#000000; stroke-width:200000.000000; stroke-opacity:1; 
stroke-linecap:round; stroke-linejoin:round;">
<path d="M51346482 53618804
L50046346 53686942
" />
<path d="M50046346 53686942
L49978109 52384889
" />
<path d="M49978109 52384889
L51278244 52316751
" />
<path d="M51278244 52316751
L51346482 53618804
" />
</g>
<g style="fill:#000000; fill-opacity:1.0; 
stroke:#000000; stroke-width:21200.000000; stroke-opacity:1; 
stroke-linecap:round; stroke-linejoin:round;">
<path style="fill:#000000; fill-opacity:1.0; 
stroke:#000000; stroke-width:21200.000000; stroke-opacity:1; 
stroke-linecap:round; stroke-linejoin:round;fill-rule:evenodd;"
d="M 51346482.000000,53618804.000000
50046346.000000,53686942.000000
49978109.000000,52384889.000000
51278244.000000,52316751.000000
" /> 
</g>
<g style="fill:#000000; fill-opacity:1.0; 
stroke:#000000; stroke-width:1.000000; stroke-opacity:1; 
stroke-linecap:round; stroke-linejoin:round;">
<circle cx="54897387.000000" cy="50677013.000000" r="751920.000000" /> 
<circle cx="44909174.000000" cy="51200473.000000" r="751920.000000" /> 
<circle cx="46209310.000000" cy="51132336.000000" r="751920.000000" /> 
<circle cx="56197523.000000" cy="50608876.000000" r="751919.000000" /> 
<circle cx="50012228.000000" cy="53035915.000000" r="751919.000000" /> 
<circle cx="51312363.000000" cy="52967778.000000" r="751920.000000" /> 
<circle cx="50354472.000000" cy="47109882.000000" r="1912701.000000" /> 
<circle cx="44862010.000000" cy="47397730.000000" r="1061248.000000" /> 
<circle cx="55846934.000000" cy="46822034.000000" r="1061249.000000" /> 
</g>
<g style="fill:#000000; fill-opacity:1.0; 
stroke:#000000; stroke-width:200000.000000; stroke-opacity:1; 
stroke-linecap:round; stroke-linejoin:round;">
</g>
<g style="fill:#000000; fill-opacity:0.0; 
stroke:#000000; stroke-width:200000.000000; stroke-opacity:1; 
stroke-linecap:round; stroke-linejoin:round;">
<path d="M65725001 32526920
L64423081 32526920
" />
<path d="M64423081 32526920
L64423081 31223080
" />
<path d="M64423081 31223080
L65725001 31223080
" />
<path d="M65725001 31223080
L65725001 32526920
" />
</g>
<g style="fill:#000000; fill-opacity:1.0; 
stroke:#000000; stroke-width:21200.000000; stroke-opacity:1; 
stroke-linecap:round; stroke-linejoin:round;">
<path style="fill:#000000; fill-opacity:1.0; 
stroke:#000000; stroke-width:21200.000000; stroke-opacity:1; 
stroke-linecap:round; stroke-linejoin:round;fill-rule:evenodd;"
d="M 65725001.000000,32526920.000000
64423081.000000,32526920.000000
64423081.000000,31223080.000000
65725001.000000,31223080.000000
" /> 
</g>
<g style="fill:#000000; fill-opacity:1.0; 
stroke:#000000; stroke-width:200000.000000; stroke-opacity:1; 
stroke-linecap:round; stroke-linejoin:round;">
</g>
<g style="fill:#000000; fill-opacity:0.0; 
stroke:#000000; stroke-width:200000.000000; stroke-opacity:1; 
stroke-linecap:round; stroke-linejoin:round;">
<path d="M75726921 32526920
L74425001 32526920
" />
<path d="M74425001 32526920
L74425001 31223080
" />
<path d="M74425001 31223080
L75726921 31223080
" />
<path d="M75726921 31223080
L75726921 32526920
" />
</g>
<g style="fill:#000000; fill-opacity:1.0; 
stroke:#000000; stroke-width:21200.000000; stroke-opacity:1; 
stroke-linecap:round; stroke-linejoin:round;">
<path style="fill:#000000; fill-opacity:1.0; 
stroke:#000000; stroke-width:21200.000000; stroke-opacity:1; 
stroke-linecap:round; stroke-linejoin:round;fill-rule:evenodd;"
d="M 75726921.000000,32526920.000000
74425001.000000,32526920.000000
74425001.000000,31223080.000000
75726921.000000,31223080.000000
" /> 
</g>
<g style="fill:#000000; fill-opacity:1.0; 
stroke:#000000; stroke-width:200000.000000; stroke-opacity:1; 
stroke-linecap:round; stroke-linejoin:round;">
</g>
<g style="fill:#000000; fill-opacity:0.0; 
stroke:#000000; stroke-width:200000.000000; stroke-opacity:1; 
stroke-linecap:round; stroke-linejoin:round;">
<path d="M70725001 34626920
L69423081 34626920
" />
<path d="M69423081 34626920
L69423081 33323080
" />
<path d="M69423081 33323080
L70725001 33323080
" />
<path d="M70725001 33323080
L70725001 34626920
" />
</g>
<g style="fill:#000000; fill-opacity:1.0; 
stroke:#000000; stroke-width:21200.000000; stroke-opacity:1; 
stroke-linecap:round; stroke-linejoin:round;">
<path style="fill:#000000; fill-opacity:1.0; 
stroke:#000000; stroke-width:21200.000000; stroke-opacity:1; 
stroke-linecap:round; stroke-linejoin:round;fill-rule:evenodd;"
d="M 70725001.000000,34626920.000000
69423081.000000,34626920.000000
69423081.000000,33323080.000000
70725001.000000,33323080.000000
" /> 
</g>
<g style="fill:#000000; fill-opacity:1.0; 
stroke:#000000; stroke-width:1.000000; stroke-opacity:1; 
stroke-linecap:round; stroke-linejoin:round;">
<circle cx="74425001.000000" cy="31875000.000000" r="751920.000000" /> 
<circle cx="64423081.000000" cy="31875000.000000" r="751920.000000" /> 
<circle cx="65725001.000000" cy="31875000.000000" r="751920.000000" /> 
<circle cx="75726921.000000" cy="31875000.000000" r="751920.000000" /> 
<circle cx="69423081.000000" cy="33975000.000000" r="751920.000000" /> 
<circle cx="70725001.000000" cy="33975000.000000" r="751920.000000" /> 
<circle cx="70075001.000000" cy="28075000.000000" r="1912701.000000" /> 
<circle cx="64575001.000000" cy="28075000.000000" r="1061249.000000" /> 
<circle cx="75575001.000000" cy="28075000.000000" r="1061249.000000" /> 
</g>
<g style="fill:#000000; fill-opacity:1.0; 
stroke:#000000; stroke-width:200000.000000; stroke-opacity:1; 
stroke-linecap:round; stroke-linejoin:round;">
</g>
<g style="fill:#000000; fill-opacity:0.0; 
stroke:#000000; stroke-width:200000.000000; stroke-opacity:1; 
stroke-linecap:round; stroke-linejoin:round;">
<path d="M122250483 80827666
L121679759 81997824
" />
<path d="M121679759 81997824
L120507875 81426258
" />
<path d="M120507875 81426258
L121078599 80256101
" />
<path d="M121078599 80256101
L122250483 80827666
" />
</g>
<g style="fill:#000000; fill-opacity:1.0; 
stroke:#000000; stroke-width:21200.000000; stroke-opacity:1; 
stroke-linecap:round; stroke-linejoin:round;">
<path style="fill:#000000; fill-opacity:1.0; 
stroke:#000000; stroke-width:21200.000000; stroke-opacity:1; 
stroke-linecap:round; stroke-linejoin:round;fill-rule:evenodd;"
d="M 122250483.000000,80827666.000000
121679759.000000,81997824.000000
120507875.000000,81426258.000000
121078599.000000,80256101.000000
" /> 
</g>
<g style="fill:#000000; fill-opacity:1.0; 
stroke:#000000; stroke-width:200000.000000; stroke-opacity:1; 
stroke-linecap:round; stroke-linejoin:round;">
</g>
<g style="fill:#000000; fill-opacity:0.0; 
stroke:#000000; stroke-width:200000.000000; stroke-opacity:1; 
stroke-linecap:round; stroke-linejoin:round;">
<path d="M126635036 71838000
L126064312 73008158
" />
<path d="M126064312 73008158
L124892428 72436592
" />
<path d="M124892428 72436592
L125463152 71266434
" />
<path d="M125463152 71266434
L126635036 71838000
" />
</g>
<g style="fill:#000000; fill-opacity:1.0; 
stroke:#000000; stroke-width:21200.000000; stroke-opacity:1; 
stroke-linecap:round; stroke-linejoin:round;">
<path style="fill:#000000; fill-opacity:1.0; 
stroke:#000000; stroke-width:21200.000000; stroke-opacity:1; 
stroke-linecap:round; stroke-linejoin:round;fill-rule:evenodd;"
d="M 126635036.000000,71838000.000000
126064312.000000,73008158.000000
124892428.000000,72436592.000000
125463152.000000,71266434.000000
" /> 
</g>
<g style="fill:#000000; fill-opacity:1.0; 
stroke:#000000; stroke-width:200000.000000; stroke-opacity:1; 
stroke-linecap:round; stroke-linejoin:round;">
</g>
<g style="fill:#000000; fill-opacity:0.0; 
stroke:#000000; stroke-width:200000.000000; stroke-opacity:1; 
stroke-linecap:round; stroke-linejoin:round;">
<path d="M126329806 77254276
L125759082 78424433
" />
<path d="M125759082 78424433
L124587198 77852868
" />
<path d="M124587198 77852868
L125157922 76682710
" />
<path d="M125157922 76682710
L126329806 77254276
" />
</g>
<g style="fill:#000000; fill-opacity:1.0; 
stroke:#000000; stroke-width:21200.000000; stroke-opacity:1; 
stroke-linecap:round; stroke-linejoin:round;">
<path style="fill:#000000; fill-opacity:1.0; 
stroke:#000000; stroke-width:21200.000000; stroke-opacity:1; 
stroke-linecap:round; stroke-linejoin:round;fill-rule:evenodd;"
d="M 126329806.000000,77254276.000000
125759082.000000,78424433.000000
124587198.000000,77852868.000000
125157922.000000,76682710.000000
" /> 
</g>
<g style="fill:#000000; fill-opacity:1.0; 
stroke:#000000; stroke-width:1.000000; stroke-opacity:1; 
stroke-linecap:round; stroke-linejoin:round;">
<circle cx="125478370.000000" cy="72722375.000000" r="751920.000000" /> 
<circle cx="121093817.000000" cy="81712041.000000" r="751919.000000" /> 
<circle cx="121664541.000000" cy="80541883.000000" r="751919.000000" /> 
<circle cx="126049094.000000" cy="71552217.000000" r="751920.000000" /> 
<circle cx="125173140.000000" cy="78138651.000000" r="751920.000000" /> 
<circle cx="125743864.000000" cy="76968493.000000" r="751920.000000" /> 
<circle cx="120156038.000000" cy="74966319.000000" r="1912701.000000" /> 
<circle cx="117744997.000000" cy="79909686.000000" r="1061248.000000" /> 
<circle cx="122567079.000000" cy="70022952.000000" r="1061249.000000" /> 
</g>
<g style="fill:#000000; fill-opacity:1.0; 
stroke:#000000; stroke-width:200000.000000; stroke-opacity:1; 
stroke-linecap:round; stroke-linejoin:round;">
</g>
<g style="fill:#000000; fill-opacity:0.0; 
stroke:#000000; stroke-width:200000.000000; stroke-opacity:1; 
stroke-linecap:round; stroke-linejoin:round;">
<path d="M84144658 35452913
L82842936 35430191
" />
<path d="M82842936 35430191
L82865691 34126550
" />
<path d="M82865691 34126550
L84167413 34149272
" />
<path d="M84167413 34149272
L84144658 35452913
" />
</g>
<g style="fill:#000000; fill-opacity:1.0; 
stroke:#000000; stroke-width:21200.000000; stroke-opacity:1; 
stroke-linecap:round; stroke-linejoin:round;">
<path style="fill:#000000; fill-opacity:1.0; 
stroke:#000000; stroke-width:21200.000000; stroke-opacity:1; 
stroke-linecap:round; stroke-linejoin:round;fill-rule:evenodd;"
d="M 84144658.000000,35452913.000000
82842936.000000,35430191.000000
82865691.000000,34126550.000000
84167413.000000,34149272.000000
" /> 
</g>
<g style="fill:#000000; fill-opacity:1.0; 
stroke:#000000; stroke-width:200000.000000; stroke-opacity:1; 
stroke-linecap:round; stroke-linejoin:round;">
</g>
<g style="fill:#000000; fill-opacity:0.0; 
stroke:#000000; stroke-width:200000.000000; stroke-opacity:1; 
stroke-linecap:round; stroke-linejoin:round;">
<path d="M94145054 35627471
L92843333 35604749
" />
<path d="M92843333 35604749
L92866088 34301108
" />
<path d="M92866088 34301108
L94167810 34323829
" />
<path d="M94167810 34323829
L94145054 35627471
" />
</g>
<g style="fill:#000000; fill-opacity:1.0; 
stroke:#000000; stroke-width:21200.000000; stroke-opacity:1; 
stroke-linecap:round; stroke-linejoin:round;">
<path style="fill:#000000; fill-opacity:1.0; 
stroke:#000000; stroke-width:21200.000000; stroke-opacity:1; 
stroke-linecap:round; stroke-linejoin:round;fill-rule:evenodd;"
d="M 94145054.000000,35627471.000000
92843333.000000,35604749.000000
92866088.000000,34301108.000000
94167810.000000,34323829.000000
" /> 
</g>
<g style="fill:#000000; fill-opacity:1.0; 
stroke:#000000; stroke-width:200000.000000; stroke-opacity:1; 
stroke-linecap:round; stroke-linejoin:round;">
</g>
<g style="fill:#000000; fill-opacity:0.0; 
stroke:#000000; stroke-width:200000.000000; stroke-opacity:1; 
stroke-linecap:round; stroke-linejoin:round;">
<path d="M89107246 37639855
L87805525 37617134
" />
<path d="M87805525 37617134
L87828280 36313492
" />
<path d="M87828280 36313492
L89130001 36336214
" />
<path d="M89130001 36336214
L89107246 37639855
" />
</g>
<g style="fill:#000000; fill-opacity:1.0; 
stroke:#000000; stroke-width:21200.000000; stroke-opacity:1; 
stroke-linecap:round; stroke-linejoin:round;">
<path style="fill:#000000; fill-opacity:1.0; 
stroke:#000000; stroke-width:21200.000000; stroke-opacity:1; 
stroke-linecap:round; stroke-linejoin:round;fill-rule:evenodd;"
d="M 89107246.000000,37639855.000000
87805525.000000,37617134.000000
87828280.000000,36313492.000000
89130001.000000,36336214.000000
" /> 
</g>
<g style="fill:#000000; fill-opacity:1.0; 
stroke:#000000; stroke-width:1.000000; stroke-opacity:1; 
stroke-linecap:round; stroke-linejoin:round;">
<circle cx="92854710.000000" cy="34952928.000000" r="751920.000000" /> 
<circle cx="82854314.000000" cy="34778371.000000" r="751919.000000" /> 
<circle cx="84156035.000000" cy="34801092.000000" r="751920.000000" /> 
<circle cx="94156432.000000" cy="34975650.000000" r="751920.000000" /> 
<circle cx="87816902.000000" cy="36965313.000000" r="751920.000000" /> 
<circle cx="89118624.000000" cy="36988034.000000" r="751920.000000" /> 
<circle cx="88571692.000000" cy="31077589.000000" r="1912701.000000" /> 
<circle cx="83072530.000000" cy="30981601.000000" r="1061248.000000" /> 
<circle cx="94070854.000000" cy="31173577.000000" r="1061249.000000" /> 
</g>
<g style="fill:#000000; fill-opacity:1.0; 
stroke:#000000; stroke-width:200000.000000; stroke-opacity:1; 
stroke-linecap:round; stroke-linejoin:round;">
</g>
<g style="fill:#000000; fill-opacity:0.0; 
stroke:#000000; stroke-width:200000.000000; stroke-opacity:1; 
stroke-linecap:round; stroke-linejoin:round;">
<path d="M8834544 45825615
L7537579 45939084
" />
<path d="M7537579 45939084
L7423942 44640206
" />
<path d="M7423942 44640206
L8720907 44526736
" />
<path d="M8720907 44526736
L8834544 45825615
" />
</g>
<g style="fill:#000000; fill-opacity:1.0; 
stroke:#000000; stroke-width:21200.000000; stroke-opacity:1; 
stroke-linecap:round; stroke-linejoin:round;">
<path style="fill:#000000; fill-opacity:1.0; 
stroke:#000000; stroke-width:21200.000000; stroke-opacity:1; 
stroke-linecap:round; stroke-linejoin:round;fill-rule:evenodd;"
d="M 8834544.000000,45825615.000000
7537579.000000,45939084.000000
7423942.000000,44640206.000000
8720907.000000,44526736.000000
" /> 
</g>
<g style="fill:#000000; fill-opacity:1.0; 
stroke:#000000; stroke-width:200000.000000; stroke-opacity:1; 
stroke-linecap:round; stroke-linejoin:round;">
</g>
<g style="fill:#000000; fill-opacity:0.0; 
stroke:#000000; stroke-width:200000.000000; stroke-opacity:1; 
stroke-linecap:round; stroke-linejoin:round;">
<path d="M18798404 44953890
L17501438 45067360
" />
<path d="M17501438 45067360
L17387801 43768481
" />
<path d="M17387801 43768481
L18684767 43655011
" />
<path d="M18684767 43655011
L18798404 44953890
" />
</g>
<g style="fill:#000000; fill-opacity:1.0; 
stroke:#000000; stroke-width:21200.000000; stroke-opacity:1; 
stroke-linecap:round; stroke-linejoin:round;">
<path style="fill:#000000; fill-opacity:1.0; 
stroke:#000000; stroke-width:21200.000000; stroke-opacity:1; 
stroke-linecap:round; stroke-linejoin:round;fill-rule:evenodd;"
d="M 18798404.000000,44953890.000000
17501438.000000,45067360.000000
17387801.000000,43768481.000000
18684767.000000,43655011.000000
" /> 
</g>
<g style="fill:#000000; fill-opacity:1.0; 
stroke:#000000; stroke-width:200000.000000; stroke-opacity:1; 
stroke-linecap:round; stroke-linejoin:round;">
</g>
<g style="fill:#000000; fill-opacity:0.0; 
stroke:#000000; stroke-width:200000.000000; stroke-opacity:1; 
stroke-linecap:round; stroke-linejoin:round;">
<path d="M13998545 47481845
L12701579 47595315
" />
<path d="M12701579 47595315
L12587942 46296436
" />
<path d="M12587942 46296436
L13884908 46182966
" />
<path d="M13884908 46182966
L13998545 47481845
" />
</g>
<g style="fill:#000000; fill-opacity:1.0; 
stroke:#000000; stroke-width:21200.000000; stroke-opacity:1; 
stroke-linecap:round; stroke-linejoin:round;">
<path style="fill:#000000; fill-opacity:1.0; 
stroke:#000000; stroke-width:21200.000000; stroke-opacity:1; 
stroke-linecap:round; stroke-linejoin:round;fill-rule:evenodd;"
d="M 13998545.000000,47481845.000000
12701579.000000,47595315.000000
12587942.000000,46296436.000000
13884908.000000,46182966.000000
" /> 
</g>
<g style="fill:#000000; fill-opacity:1.0; 
stroke:#000000; stroke-width:1.000000; stroke-opacity:1; 
stroke-linecap:round; stroke-linejoin:round;">
<circle cx="17444620.000000" cy="44417920.000000" r="751920.000000" /> 
<circle cx="7480760.000000" cy="45289645.000000" r="751920.000000" /> 
<circle cx="8777726.000000" cy="45176175.000000" r="751920.000000" /> 
<circle cx="18741586.000000" cy="44304451.000000" r="751920.000000" /> 
<circle cx="12644761.000000" cy="46945875.000000" r="751920.000000" /> 
<circle cx="13941726.000000" cy="46832405.000000" r="751921.000000" /> 
<circle cx="12779981.000000" cy="41011508.000000" r="1912701.000000" /> 
<circle cx="7300910.000000" cy="41490865.000000" r="1061249.000000" /> 
<circle cx="18259052.000000" cy="40532151.000000" r="1061249.000000" /> 
</g>
<g style="fill:#000000; fill-opacity:1.0; 
stroke:#000000; stroke-width:200000.000000; stroke-opacity:1; 
stroke-linecap:round; stroke-linejoin:round;">
</g>
<g style="fill:#000000; fill-opacity:0.0; 
stroke:#000000; stroke-width:200000.000000; stroke-opacity:1; 
stroke-linecap:round; stroke-linejoin:round;">
<path d="M28247697 61192122
L26950732 61305591
" />
<path d="M26950732 61305591
L26837095 60006713
" />
<path d="M26837095 60006713
L28134060 59893243
" />
<path d="M28134060 59893243
L28247697 61192122
" />
</g>
<g style="fill:#000000; fill-opacity:1.0; 
stroke:#000000; stroke-width:21200.000000; stroke-opacity:1; 
stroke-linecap:round; stroke-linejoin:round;">
<path style="fill:#000000; fill-opacity:1.0; 
stroke:#000000; stroke-width:21200.000000; stroke-opacity:1; 
stroke-linecap:round; stroke-linejoin:round;fill-rule:evenodd;"
d="M 28247697.000000,61192122.000000
26950732.000000,61305591.000000
26837095.000000,60006713.000000
28134060.000000,59893243.000000
" /> 
</g>
<g style="fill:#000000; fill-opacity:1.0; 
stroke:#000000; stroke-width:200000.000000; stroke-opacity:1; 
stroke-linecap:round; stroke-linejoin:round;">
</g>
<g style="fill:#000000; fill-opacity:0.0; 
stroke:#000000; stroke-width:200000.000000; stroke-opacity:1; 
stroke-linecap:round; stroke-linejoin:round;">
<path d="M38211557 60320397
L36914591 60433867
" />
<path d="M36914591 60433867
L36800954 59134988
" />
<path d="M36800954 59134988
L38097920 59021518
" />
<path d="M38097920 59021518
L38211557 60320397
" />
</g>
<g style="fill:#000000; fill-opacity:1.0; 
stroke:#000000; stroke-width:21200.000000; stroke-opacity:1; 
stroke-linecap:round; stroke-linejoin:round;">
<path style="fill:#000000; fill-opacity:1.0; 
stroke:#000000; stroke-width:21200.000000; stroke-opacity:1; 
stroke-linecap:round; stroke-linejoin:round;fill-rule:evenodd;"
d="M 38211557.000000,60320397.000000
36914591.000000,60433867.000000
36800954.000000,59134988.000000
38097920.000000,59021518.000000
" /> 
</g>
<g style="fill:#000000; fill-opacity:1.0; 
stroke:#000000; stroke-width:200000.000000; stroke-opacity:1; 
stroke-linecap:round; stroke-linejoin:round;">
</g>
<g style="fill:#000000; fill-opacity:0.0; 
stroke:#000000; stroke-width:200000.000000; stroke-opacity:1; 
stroke-linecap:round; stroke-linejoin:round;">
<path d="M33411698 62848352
L32114732 62961822
" />
<path d="M32114732 62961822
L32001095 61662943
" />
<path d="M32001095 61662943
L33298061 61549473
" />
<path d="M33298061 61549473
L33411698 62848352
" />
</g>
<g style="fill:#000000; fill-opacity:1.0; 
stroke:#000000; stroke-width:21200.000000; stroke-opacity:1; 
stroke-linecap:round; stroke-linejoin:round;">
<path style="fill:#000000; fill-opacity:1.0; 
stroke:#000000; stroke-width:21200.000000; stroke-opacity:1; 
stroke-linecap:round; stroke-linejoin:round;fill-rule:evenodd;"
d="M 33411698.000000,62848352.000000
32114732.000000,62961822.000000
32001095.000000,61662943.000000
33298061.000000,61549473.000000
" /> 
</g>
<g style="fill:#000000; fill-opacity:1.0; 
stroke:#000000; stroke-width:1.000000; stroke-opacity:1; 
stroke-linecap:round; stroke-linejoin:round;">
<circle cx="36857773.000000" cy="59784427.000000" r="751920.000000" /> 
<circle cx="26893913.000000" cy="60656152.000000" r="751920.000000" /> 
<circle cx="28190879.000000" cy="60542682.000000" r="751920.000000" /> 
<circle cx="38154739.000000" cy="59670958.000000" r="751920.000000" /> 
<circle cx="32057914.000000" cy="62312382.000000" r="751920.000000" /> 
<circle cx="33354879.000000" cy="62198912.000000" r="751921.000000" /> 
<circle cx="32193134.000000" cy="56378015.000000" r="1912701.000000" /> 
<circle cx="26714063.000000" cy="56857372.000000" r="1061249.000000" /> 
<circle cx="37672205.000000" cy="55898658.000000" r="1061249.000000" /> 
</g>
<g style="fill:#000000; fill-opacity:1.0; 
stroke:#000000; stroke-width:200000.000000; stroke-opacity:1; 
stroke-linecap:round; stroke-linejoin:round;">
</g>
<g style="fill:#000000; fill-opacity:0.0; 
stroke:#000000; stroke-width:200000.000000; stroke-opacity:1; 
stroke-linecap:round; stroke-linejoin:round;">
<path d="M84441349 18455503
L83139627 18432781
" />
<path d="M83139627 18432781
L83162382 17129140
" />
<path d="M83162382 17129140
L84464104 17151862
" />
<path d="M84464104 17151862
L84441349 18455503
" />
</g>
<g style="fill:#000000; fill-opacity:1.0; 
stroke:#000000; stroke-width:21200.000000; stroke-opacity:1; 
stroke-linecap:round; stroke-linejoin:round;">
<path style="fill:#000000; fill-opacity:1.0; 
stroke:#000000; stroke-width:21200.000000; stroke-opacity:1; 
stroke-linecap:round; stroke-linejoin:round;fill-rule:evenodd;"
d="M 84441349.000000,18455503.000000
83139627.000000,18432781.000000
83162382.000000,17129140.000000
84464104.000000,17151862.000000
" /> 
</g>
<g style="fill:#000000; fill-opacity:1.0; 
stroke:#000000; stroke-width:200000.000000; stroke-opacity:1; 
stroke-linecap:round; stroke-linejoin:round;">
</g>
<g style="fill:#000000; fill-opacity:0.0; 
stroke:#000000; stroke-width:200000.000000; stroke-opacity:1; 
stroke-linecap:round; stroke-linejoin:round;">
<path d="M94441745 18630061
L93140024 18607339
" />
<path d="M93140024 18607339
L93162779 17303698
" />
<path d="M93162779 17303698
L94464501 17326419
" />
<path d="M94464501 17326419
L94441745 18630061
" />
</g>
<g style="fill:#000000; fill-opacity:1.0; 
stroke:#000000; stroke-width:21200.000000; stroke-opacity:1; 
stroke-linecap:round; stroke-linejoin:round;">
<path style="fill:#000000; fill-opacity:1.0; 
stroke:#000000; stroke-width:21200.000000; stroke-opacity:1; 
stroke-linecap:round; stroke-linejoin:round;fill-rule:evenodd;"
d="M 94441745.000000,18630061.000000
93140024.000000,18607339.000000
93162779.000000,17303698.000000
94464501.000000,17326419.000000
" /> 
</g>
<g style="fill:#000000; fill-opacity:1.0; 
stroke:#000000; stroke-width:200000.000000; stroke-opacity:1; 
stroke-linecap:round; stroke-linejoin:round;">
</g>
<g style="fill:#000000; fill-opacity:0.0; 
stroke:#000000; stroke-width:200000.000000; stroke-opacity:1; 
stroke-linecap:round; stroke-linejoin:round;">
<path d="M89403937 20642445
L88102216 20619724
" />
<path d="M88102216 20619724
L88124971 19316082
" />
<path d="M88124971 19316082
L89426692 19338804
" />
<path d="M89426692 19338804
L89403937 20642445
" />
</g>
<g style="fill:#000000; fill-opacity:1.0; 
stroke:#000000; stroke-width:21200.000000; stroke-opacity:1; 
stroke-linecap:round; stroke-linejoin:round;">
<path style="fill:#000000; fill-opacity:1.0; 
stroke:#000000; stroke-width:21200.000000; stroke-opacity:1; 
stroke-linecap:round; stroke-linejoin:round;fill-rule:evenodd;"
d="M 89403937.000000,20642445.000000
88102216.000000,20619724.000000
88124971.000000,19316082.000000
89426692.000000,19338804.000000
" /> 
</g>
<g style="fill:#000000; fill-opacity:1.0; 
stroke:#000000; stroke-width:1.000000; stroke-opacity:1; 
stroke-linecap:round; stroke-linejoin:round;">
<circle cx="93151401.000000" cy="17955518.000000" r="751920.000000" /> 
<circle cx="83151005.000000" cy="17780961.000000" r="751919.000000" /> 
<circle cx="84452726.000000" cy="17803682.000000" r="751920.000000" /> 
<circle cx="94453123.000000" cy="17978240.000000" r="751920.000000" /> 
<circle cx="88113593.000000" cy="19967903.000000" r="751920.000000" /> 
<circle cx="89415315.000000" cy="19990624.000000" r="751920.000000" /> 
<circle cx="88868383.000000" cy="14080179.000000" r="1912701.000000" /> 
<circle cx="83369221.000000" cy="13984191.000000" r="1061248.000000" /> 
<circle cx="94367545.000000" cy="14176167.000000" r="1061249.000000" /> 
</g>
<g style="fill:#000000; fill-opacity:1.0; 
stroke:#000000; stroke-width:200000.000000; stroke-opacity:1; 
stroke-linecap:round; stroke-linejoin:round;">
</g>
<g style="fill:#000000; fill-opacity:0.0; 
stroke:#000000; stroke-width:200000.000000; stroke-opacity:1; 
stroke-linecap:round; stroke-linejoin:round;">
<path d="M26766049 44256812
L25469084 44370281
" />
<path d="M25469084 44370281
L25355447 43071403
" />
<path d="M25355447 43071403
L26652412 42957933
" />
<path d="M26652412 42957933
L26766049 44256812
" />
</g>
<g style="fill:#000000; fill-opacity:1.0; 
stroke:#000000; stroke-width:21200.000000; stroke-opacity:1; 
stroke-linecap:round; stroke-linejoin:round;">
<path style="fill:#000000; fill-opacity:1.0; 
stroke:#000000; stroke-width:21200.000000; stroke-opacity:1; 
stroke-linecap:round; stroke-linejoin:round;fill-rule:evenodd;"
d="M 26766049.000000,44256812.000000
25469084.000000,44370281.000000
25355447.000000,43071403.000000
26652412.000000,42957933.000000
" /> 
</g>
<g style="fill:#000000; fill-opacity:1.0; 
stroke:#000000; stroke-width:200000.000000; stroke-opacity:1; 
stroke-linecap:round; stroke-linejoin:round;">
</g>
<g style="fill:#000000; fill-opacity:0.0; 
stroke:#000000; stroke-width:200000.000000; stroke-opacity:1; 
stroke-linecap:round; stroke-linejoin:round;">
<path d="M36729909 43385087
L35432943 43498557
" />
<path d="M35432943 43498557
L35319306 42199678
" />
<path d="M35319306 42199678
L36616272 42086208
" />
<path d="M36616272 42086208
L36729909 43385087
" />
</g>
<g style="fill:#000000; fill-opacity:1.0; 
stroke:#000000; stroke-width:21200.000000; stroke-opacity:1; 
stroke-linecap:round; stroke-linejoin:round;">
<path style="fill:#000000; fill-opacity:1.0; 
stroke:#000000; stroke-width:21200.000000; stroke-opacity:1; 
stroke-linecap:round; stroke-linejoin:round;fill-rule:evenodd;"
d="M 36729909.000000,43385087.000000
35432943.000000,43498557.000000
35319306.000000,42199678.000000
36616272.000000,42086208.000000
" /> 
</g>
<g style="fill:#000000; fill-opacity:1.0; 
stroke:#000000; stroke-width:200000.000000; stroke-opacity:1; 
stroke-linecap:round; stroke-linejoin:round;">
</g>
<g style="fill:#000000; fill-opacity:0.0; 
stroke:#000000; stroke-width:200000.000000; stroke-opacity:1; 
stroke-linecap:round; stroke-linejoin:round;">
<path d="M31930050 45913042
L30633084 46026512
" />
<path d="M30633084 46026512
L30519447 44727633
" />
<path d="M30519447 44727633
L31816413 44614163
" />
<path d="M31816413 44614163
L31930050 45913042
" />
</g>
<g style="fill:#000000; fill-opacity:1.0; 
stroke:#000000; stroke-width:21200.000000; stroke-opacity:1; 
stroke-linecap:round; stroke-linejoin:round;">
<path style="fill:#000000; fill-opacity:1.0; 
stroke:#000000; stroke-width:21200.000000; stroke-opacity:1; 
stroke-linecap:round; stroke-linejoin:round;fill-rule:evenodd;"
d="M 31930050.000000,45913042.000000
30633084.000000,46026512.000000
30519447.000000,44727633.000000
31816413.000000,44614163.000000
" /> 
</g>
<g style="fill:#000000; fill-opacity:1.0; 
stroke:#000000; stroke-width:1.000000; stroke-opacity:1; 
stroke-linecap:round; stroke-linejoin:round;">
<circle cx="35376125.000000" cy="42849117.000000" r="751920.000000" /> 
<circle cx="25412265.000000" cy="43720842.000000" r="751920.000000" /> 
<circle cx="26709231.000000" cy="43607372.000000" r="751920.000000" /> 
<circle cx="36673091.000000" cy="42735648.000000" r="751920.000000" /> 
<circle cx="30576266.000000" cy="45377072.000000" r="751920.000000" /> 
<circle cx="31873231.000000" cy="45263602.000000" r="751921.000000" /> 
<circle cx="30711486.000000" cy="39442705.000000" r="1912701.000000" /> 
<circle cx="25232415.000000" cy="39922062.000000" r="1061249.000000" /> 
<circle cx="36190557.000000" cy="38963348.000000" r="1061249.000000" /> 
</g>
<g style="fill:#000000; fill-opacity:1.0; 
stroke:#000000; stroke-width:200000.000000; stroke-opacity:1; 
stroke-linecap:round; stroke-linejoin:round;">
</g>
<g style="fill:#000000; fill-opacity:0.0; 
stroke:#000000; stroke-width:200000.000000; stroke-opacity:1; 
stroke-linecap:round; stroke-linejoin:round;">
<path d="M102475569 40696133
L101174442 40650697
" />
<path d="M101174442 40650697
L101219946 39347651
" />
<path d="M101219946 39347651
L102521072 39393087
" />
<path d="M102521072 39393087
L102475569 40696133
" />
</g>
<g style="fill:#000000; fill-opacity:1.0; 
stroke:#000000; stroke-width:21200.000000; stroke-opacity:1; 
stroke-linecap:round; stroke-linejoin:round;">
<path style="fill:#000000; fill-opacity:1.0; 
stroke:#000000; stroke-width:21200.000000; stroke-opacity:1; 
stroke-linecap:round; stroke-linejoin:round;fill-rule:evenodd;"
d="M 102475569.000000,40696133.000000
101174442.000000,40650697.000000
101219946.000000,39347651.000000
102521072.000000,39393087.000000
" /> 
</g>
<g style="fill:#000000; fill-opacity:1.0; 
stroke:#000000; stroke-width:200000.000000; stroke-opacity:1; 
stroke-linecap:round; stroke-linejoin:round;">
</g>
<g style="fill:#000000; fill-opacity:0.0; 
stroke:#000000; stroke-width:200000.000000; stroke-opacity:1; 
stroke-linecap:round; stroke-linejoin:round;">
<path d="M112471396 41045195
L111170269 40999759
" />
<path d="M111170269 40999759
L111215773 39696713
" />
<path d="M111215773 39696713
L112516900 39742149
" />
<path d="M112516900 39742149
L112471396 41045195
" />
</g>
<g style="fill:#000000; fill-opacity:1.0; 
stroke:#000000; stroke-width:21200.000000; stroke-opacity:1; 
stroke-linecap:round; stroke-linejoin:round;">
<path style="fill:#000000; fill-opacity:1.0; 
stroke:#000000; stroke-width:21200.000000; stroke-opacity:1; 
stroke-linecap:round; stroke-linejoin:round;fill-rule:evenodd;"
d="M 112471396.000000,41045195.000000
111170269.000000,40999759.000000
111215773.000000,39696713.000000
112516900.000000,39742149.000000
" /> 
</g>
<g style="fill:#000000; fill-opacity:1.0; 
stroke:#000000; stroke-width:200000.000000; stroke-opacity:1; 
stroke-linecap:round; stroke-linejoin:round;">
</g>
<g style="fill:#000000; fill-opacity:0.0; 
stroke:#000000; stroke-width:200000.000000; stroke-opacity:1; 
stroke-linecap:round; stroke-linejoin:round;">
<path d="M107399234 42969351
L106098107 42923915
" />
<path d="M106098107 42923915
L106143611 41620869
" />
<path d="M106143611 41620869
L107444738 41666306
" />
<path d="M107444738 41666306
L107399234 42969351
" />
</g>
<g style="fill:#000000; fill-opacity:1.0; 
stroke:#000000; stroke-width:21200.000000; stroke-opacity:1; 
stroke-linecap:round; stroke-linejoin:round;">
<path style="fill:#000000; fill-opacity:1.0; 
stroke:#000000; stroke-width:21200.000000; stroke-opacity:1; 
stroke-linecap:round; stroke-linejoin:round;fill-rule:evenodd;"
d="M 107399234.000000,42969351.000000
106098107.000000,42923915.000000
106143611.000000,41620869.000000
107444738.000000,41666306.000000
" /> 
</g>
<g style="fill:#000000; fill-opacity:1.0; 
stroke:#000000; stroke-width:1.000000; stroke-opacity:1; 
stroke-linecap:round; stroke-linejoin:round;">
<circle cx="111193021.000000" cy="40348236.000000" r="751920.000000" /> 
<circle cx="101197194.000000" cy="39999174.000000" r="751920.000000" /> 
<circle cx="102498321.000000" cy="40044610.000000" r="751920.000000" /> 
<circle cx="112494148.000000" cy="40393672.000000" r="751920.000000" /> 
<circle cx="106120859.000000" cy="42272392.000000" r="751920.000000" /> 
<circle cx="107421986.000000" cy="42317829.000000" r="751920.000000" /> 
<circle cx="106978289.000000" cy="36398738.000000" r="1912701.000000" /> 
<circle cx="101481639.000000" cy="36206791.000000" r="1061250.000000" /> 
<circle cx="112474939.000000" cy="36590685.000000" r="1061249.000000" /> 
</g>
<g style="fill:#000000; fill-opacity:1.0; 
stroke:#000000; stroke-width:200000.000000; stroke-opacity:1; 
stroke-linecap:round; stroke-linejoin:round;">
</g>
<g style="fill:#000000; fill-opacity:0.0; 
stroke:#000000; stroke-width:200000.000000; stroke-opacity:1; 
stroke-linecap:round; stroke-linejoin:round;">
<path d="M103068860 23706489
L101767733 23661053
" />
<path d="M101767733 23661053
L101813237 22358007
" />
<path d="M101813237 22358007
L103114363 22403443
" />
<path d="M103114363 22403443
L103068860 23706489
" />
</g>
<g style="fill:#000000; fill-opacity:1.0; 
stroke:#000000; stroke-width:21200.000000; stroke-opacity:1; 
stroke-linecap:round; stroke-linejoin:round;">
<path style="fill:#000000; fill-opacity:1.0; 
stroke:#000000; stroke-width:21200.000000; stroke-opacity:1; 
stroke-linecap:round; stroke-linejoin:round;fill-rule:evenodd;"
d="M 103068860.000000,23706489.000000
101767733.000000,23661053.000000
101813237.000000,22358007.000000
103114363.000000,22403443.000000
" /> 
</g>
<g style="fill:#000000; fill-opacity:1.0; 
stroke:#000000; stroke-width:200000.000000; stroke-opacity:1; 
stroke-linecap:round; stroke-linejoin:round;">
</g>
<g style="fill:#000000; fill-opacity:0.0; 
stroke:#000000; stroke-width:200000.000000; stroke-opacity:1; 
stroke-linecap:round; stroke-linejoin:round;">
<path d="M113064687 24055551
L111763560 24010115
" />
<path d="M111763560 24010115
L111809064 22707069
" />
<path d="M111809064 22707069
L113110191 22752505
" />
<path d="M113110191 22752505
L113064687 24055551
" />
</g>
<g style="fill:#000000; fill-opacity:1.0; 
stroke:#000000; stroke-width:21200.000000; stroke-opacity:1; 
stroke-linecap:round; stroke-linejoin:round;">
<path style="fill:#000000; fill-opacity:1.0; 
stroke:#000000; stroke-width:21200.000000; stroke-opacity:1; 
stroke-linecap:round; stroke-linejoin:round;fill-rule:evenodd;"
d="M 113064687.000000,24055551.000000
111763560.000000,24010115.000000
111809064.000000,22707069.000000
113110191.000000,22752505.000000
" /> 
</g>
<g style="fill:#000000; fill-opacity:1.0; 
stroke:#000000; stroke-width:200000.000000; stroke-opacity:1; 
stroke-linecap:round; stroke-linejoin:round;">
</g>
<g style="fill:#000000; fill-opacity:0.0; 
stroke:#000000; stroke-width:200000.000000; stroke-opacity:1; 
stroke-linecap:round; stroke-linejoin:round;">
<path d="M107992525 25979707
L106691398 25934271
" />
<path d="M106691398 25934271
L106736902 24631225
" />
<path d="M106736902 24631225
L108038029 24676662
" />
<path d="M108038029 24676662
L107992525 25979707
" />
</g>
<g style="fill:#000000; fill-opacity:1.0; 
stroke:#000000; stroke-width:21200.000000; stroke-opacity:1; 
stroke-linecap:round; stroke-linejoin:round;">
<path style="fill:#000000; fill-opacity:1.0; 
stroke:#000000; stroke-width:21200.000000; stroke-opacity:1; 
stroke-linecap:round; stroke-linejoin:round;fill-rule:evenodd;"
d="M 107992525.000000,25979707.000000
106691398.000000,25934271.000000
106736902.000000,24631225.000000
108038029.000000,24676662.000000
" /> 
</g>
<g style="fill:#000000; fill-opacity:1.0; 
stroke:#000000; stroke-width:1.000000; stroke-opacity:1; 
stroke-linecap:round; stroke-linejoin:round;">
<circle cx="111786312.000000" cy="23358592.000000" r="751920.000000" /> 
<circle cx="101790485.000000" cy="23009530.000000" r="751920.000000" /> 
<circle cx="103091612.000000" cy="23054966.000000" r="751920.000000" /> 
<circle cx="113087439.000000" cy="23404028.000000" r="751920.000000" /> 
<circle cx="106714150.000000" cy="25282748.000000" r="751920.000000" /> 
<circle cx="108015277.000000" cy="25328185.000000" r="751920.000000" /> 
<circle cx="107571580.000000" cy="19409094.000000" r="1912701.000000" /> 
<circle cx="102074930.000000" cy="19217147.000000" r="1061250.000000" /> 
<circle cx="113068230.000000" cy="19601041.000000" r="1061249.000000" /> 
</g>
<g style="fill:#000000; fill-opacity:1.0; 
stroke:#000000; stroke-width:200000.000000; stroke-opacity:1; 
stroke-linecap:round; stroke-linejoin:round;">
</g>
<g style="fill:#000000; fill-opacity:0.0; 
stroke:#000000; stroke-width:200000.000000; stroke-opacity:1; 
stroke-linecap:round; stroke-linejoin:round;">
<path d="M83847967 52450324
L82546245 52427602
" />
<path d="M82546245 52427602
L82569000 51123961
" />
<path d="M82569000 51123961
L83870722 51146683
" />
<path d="M83870722 51146683
L83847967 52450324
" />
</g>
<g style="fill:#000000; fill-opacity:1.0; 
stroke:#000000; stroke-width:21200.000000; stroke-opacity:1; 
stroke-linecap:round; stroke-linejoin:round;">
<path style="fill:#000000; fill-opacity:1.0; 
stroke:#000000; stroke-width:21200.000000; stroke-opacity:1; 
stroke-linecap:round; stroke-linejoin:round;fill-rule:evenodd;"
d="M 83847967.000000,52450324.000000
82546245.000000,52427602.000000
82569000.000000,51123961.000000
83870722.000000,51146683.000000
" /> 
</g>
<g style="fill:#000000; fill-opacity:1.0; 
stroke:#000000; stroke-width:200000.000000; stroke-opacity:1; 
stroke-linecap:round; stroke-linejoin:round;">
</g>
<g style="fill:#000000; fill-opacity:0.0; 
stroke:#000000; stroke-width:200000.000000; stroke-opacity:1; 
stroke-linecap:round; stroke-linejoin:round;">
<path d="M93848363 52624882
L92546642 52602160
" />
<path d="M92546642 52602160
L92569397 51298519
" />
<path d="M92569397 51298519
L93871119 51321240
" />
<path d="M93871119 51321240
L93848363 52624882
" />
</g>
<g style="fill:#000000; fill-opacity:1.0; 
stroke:#000000; stroke-width:21200.000000; stroke-opacity:1; 
stroke-linecap:round; stroke-linejoin:round;">
<path style="fill:#000000; fill-opacity:1.0; 
stroke:#000000; stroke-width:21200.000000; stroke-opacity:1; 
stroke-linecap:round; stroke-linejoin:round;fill-rule:evenodd;"
d="M 93848363.000000,52624882.000000
92546642.000000,52602160.000000
92569397.000000,51298519.000000
93871119.000000,51321240.000000
" /> 
</g>
<g style="fill:#000000; fill-opacity:1.0; 
stroke:#000000; stroke-width:200000.000000; stroke-opacity:1; 
stroke-linecap:round; stroke-linejoin:round;">
</g>
<g style="fill:#000000; fill-opacity:0.0; 
stroke:#000000; stroke-width:200000.000000; stroke-opacity:1; 
stroke-linecap:round; stroke-linejoin:round;">
<path d="M88810555 54637266
L87508834 54614545
" />
<path d="M87508834 54614545
L87531589 53310903
" />
<path d="M87531589 53310903
L88833310 53333625
" />
<path d="M88833310 53333625
L88810555 54637266
" />
</g>
<g style="fill:#000000; fill-opacity:1.0; 
stroke:#000000; stroke-width:21200.000000; stroke-opacity:1; 
stroke-linecap:round; stroke-linejoin:round;">
<path style="fill:#000000; fill-opacity:1.0; 
stroke:#000000; stroke-width:21200.000000; stroke-opacity:1; 
stroke-linecap:round; stroke-linejoin:round;fill-rule:evenodd;"
d="M 88810555.000000,54637266.000000
87508834.000000,54614545.000000
87531589.000000,53310903.000000
88833310.000000,53333625.000000
" /> 
</g>
<g style="fill:#000000; fill-opacity:1.0; 
stroke:#000000; stroke-width:1.000000; stroke-opacity:1; 
stroke-linecap:round; stroke-linejoin:round;">
<circle cx="92558019.000000" cy="51950339.000000" r="751920.000000" /> 
<circle cx="82557623.000000" cy="51775782.000000" r="751919.000000" /> 
<circle cx="83859344.000000" cy="51798503.000000" r="751920.000000" /> 
<circle cx="93859741.000000" cy="51973061.000000" r="751920.000000" /> 
<circle cx="87520211.000000" cy="53962724.000000" r="751920.000000" /> 
<circle cx="88821933.000000" cy="53985445.000000" r="751920.000000" /> 
<circle cx="88275001.000000" cy="48075000.000000" r="1912701.000000" /> 
<circle cx="82775839.000000" cy="47979012.000000" r="1061248.000000" /> 
<circle cx="93774163.000000" cy="48170988.000000" r="1061249.000000" /> 
</g>
<g style="fill:#000000; fill-opacity:1.0; 
stroke:#000000; stroke-width:200000.000000; stroke-opacity:1; 
stroke-linecap:round; stroke-linejoin:round;">
</g>
<g style="fill:#000000; fill-opacity:0.0; 
stroke:#000000; stroke-width:200000.000000; stroke-opacity:1; 
stroke-linecap:round; stroke-linejoin:round;">
<path d="M45353718 34806660
L44053582 34874797
" />
<path d="M44053582 34874797
L43985345 33572744
" />
<path d="M43985345 33572744
L45285480 33504607
" />
<path d="M45285480 33504607
L45353718 34806660
" />
</g>
<g style="fill:#000000; fill-opacity:1.0; 
stroke:#000000; stroke-width:21200.000000; stroke-opacity:1; 
stroke-linecap:round; stroke-linejoin:round;">
<path style="fill:#000000; fill-opacity:1.0; 
stroke:#000000; stroke-width:21200.000000; stroke-opacity:1; 
stroke-linecap:round; stroke-linejoin:round;fill-rule:evenodd;"
d="M 45353718.000000,34806660.000000
44053582.000000,34874797.000000
43985345.000000,33572744.000000
45285480.000000,33504607.000000
" /> 
</g>
<g style="fill:#000000; fill-opacity:1.0; 
stroke:#000000; stroke-width:200000.000000; stroke-opacity:1; 
stroke-linecap:round; stroke-linejoin:round;">
</g>
<g style="fill:#000000; fill-opacity:0.0; 
stroke:#000000; stroke-width:200000.000000; stroke-opacity:1; 
stroke-linecap:round; stroke-linejoin:round;">
<path d="M55341931 34283200
L54041795 34351337
" />
<path d="M54041795 34351337
L53973557 33049284
" />
<path d="M53973557 33049284
L55273693 32981147
" />
<path d="M55273693 32981147
L55341931 34283200
" />
</g>
<g style="fill:#000000; fill-opacity:1.0; 
stroke:#000000; stroke-width:21200.000000; stroke-opacity:1; 
stroke-linecap:round; stroke-linejoin:round;">
<path style="fill:#000000; fill-opacity:1.0; 
stroke:#000000; stroke-width:21200.000000; stroke-opacity:1; 
stroke-linecap:round; stroke-linejoin:round;fill-rule:evenodd;"
d="M 55341931.000000,34283200.000000
54041795.000000,34351337.000000
53973557.000000,33049284.000000
55273693.000000,32981147.000000
" /> 
</g>
<g style="fill:#000000; fill-opacity:1.0; 
stroke:#000000; stroke-width:200000.000000; stroke-opacity:1; 
stroke-linecap:round; stroke-linejoin:round;">
</g>
<g style="fill:#000000; fill-opacity:0.0; 
stroke:#000000; stroke-width:200000.000000; stroke-opacity:1; 
stroke-linecap:round; stroke-linejoin:round;">
<path d="M50456771 36642102
L49156635 36710240
" />
<path d="M49156635 36710240
L49088398 35408187
" />
<path d="M49088398 35408187
L50388533 35340049
" />
<path d="M50388533 35340049
L50456771 36642102
" />
</g>
<g style="fill:#000000; fill-opacity:1.0; 
stroke:#000000; stroke-width:21200.000000; stroke-opacity:1; 
stroke-linecap:round; stroke-linejoin:round;">
<path style="fill:#000000; fill-opacity:1.0; 
stroke:#000000; stroke-width:21200.000000; stroke-opacity:1; 
stroke-linecap:round; stroke-linejoin:round;fill-rule:evenodd;"
d="M 50456771.000000,36642102.000000
49156635.000000,36710240.000000
49088398.000000,35408187.000000
50388533.000000,35340049.000000
" /> 
</g>
<g style="fill:#000000; fill-opacity:1.0; 
stroke:#000000; stroke-width:1.000000; stroke-opacity:1; 
stroke-linecap:round; stroke-linejoin:round;">
<circle cx="54007676.000000" cy="33700311.000000" r="751920.000000" /> 
<circle cx="44019463.000000" cy="34223771.000000" r="751920.000000" /> 
<circle cx="45319599.000000" cy="34155634.000000" r="751920.000000" /> 
<circle cx="55307812.000000" cy="33632174.000000" r="751919.000000" /> 
<circle cx="49122517.000000" cy="36059213.000000" r="751919.000000" /> 
<circle cx="50422652.000000" cy="35991076.000000" r="751920.000000" /> 
<circle cx="49464761.000000" cy="30133180.000000" r="1912701.000000" /> 
<circle cx="43972299.000000" cy="30421028.000000" r="1061248.000000" /> 
<circle cx="54957223.000000" cy="29845332.000000" r="1061249.000000" /> 
</g>
<g style="fill:#000000; fill-opacity:1.0; 
stroke:#000000; stroke-width:200000.000000; stroke-opacity:1; 
stroke-linecap:round; stroke-linejoin:round;">
</g>
<g style="fill:#000000; fill-opacity:0.0; 
stroke:#000000; stroke-width:200000.000000; stroke-opacity:1; 
stroke-linecap:round; stroke-linejoin:round;">
<path d="M44464006 17829957
L43163870 17898094
" />
<path d="M43163870 17898094
L43095633 16596041
" />
<path d="M43095633 16596041
L44395768 16527904
" />
<path d="M44395768 16527904
L44464006 17829957
" />
</g>
<g style="fill:#000000; fill-opacity:1.0; 
stroke:#000000; stroke-width:21200.000000; stroke-opacity:1; 
stroke-linecap:round; stroke-linejoin:round;">
<path style="fill:#000000; fill-opacity:1.0; 
stroke:#000000; stroke-width:21200.000000; stroke-opacity:1; 
stroke-linecap:round; stroke-linejoin:round;fill-rule:evenodd;"
d="M 44464006.000000,17829957.000000
43163870.000000,17898094.000000
43095633.000000,16596041.000000
44395768.000000,16527904.000000
" /> 
</g>
<g style="fill:#000000; fill-opacity:1.0; 
stroke:#000000; stroke-width:200000.000000; stroke-opacity:1; 
stroke-linecap:round; stroke-linejoin:round;">
</g>
<g style="fill:#000000; fill-opacity:0.0; 
stroke:#000000; stroke-width:200000.000000; stroke-opacity:1; 
stroke-linecap:round; stroke-linejoin:round;">
<path d="M54452219 17306497
L53152083 17374634
" />
<path d="M53152083 17374634
L53083845 16072581
" />
<path d="M53083845 16072581
L54383981 16004444
" />
<path d="M54383981 16004444
L54452219 17306497
" />
</g>
<g style="fill:#000000; fill-opacity:1.0; 
stroke:#000000; stroke-width:21200.000000; stroke-opacity:1; 
stroke-linecap:round; stroke-linejoin:round;">
<path style="fill:#000000; fill-opacity:1.0; 
stroke:#000000; stroke-width:21200.000000; stroke-opacity:1; 
stroke-linecap:round; stroke-linejoin:round;fill-rule:evenodd;"
d="M 54452219.000000,17306497.000000
53152083.000000,17374634.000000
53083845.000000,16072581.000000
54383981.000000,16004444.000000
" /> 
</g>
<g style="fill:#000000; fill-opacity:1.0; 
stroke:#000000; stroke-width:200000.000000; stroke-opacity:1; 
stroke-linecap:round; stroke-linejoin:round;">
</g>
<g style="fill:#000000; fill-opacity:0.0; 
stroke:#000000; stroke-width:200000.000000; stroke-opacity:1; 
stroke-linecap:round; stroke-linejoin:round;">
<path d="M49567059 19665399
L48266923 19733537
" />
<path d="M48266923 19733537
L48198686 18431484
" />
<path d="M48198686 18431484
L49498821 18363346
" />
<path d="M49498821 18363346
L49567059 19665399
" />
</g>
<g style="fill:#000000; fill-opacity:1.0; 
stroke:#000000; stroke-width:21200.000000; stroke-opacity:1; 
stroke-linecap:round; stroke-linejoin:round;">
<path style="fill:#000000; fill-opacity:1.0; 
stroke:#000000; stroke-width:21200.000000; stroke-opacity:1; 
stroke-linecap:round; stroke-linejoin:round;fill-rule:evenodd;"
d="M 49567059.000000,19665399.000000
48266923.000000,19733537.000000
48198686.000000,18431484.000000
49498821.000000,18363346.000000
" /> 
</g>
<g style="fill:#000000; fill-opacity:1.0; 
stroke:#000000; stroke-width:1.000000; stroke-opacity:1; 
stroke-linecap:round; stroke-linejoin:round;">
<circle cx="53117964.000000" cy="16723608.000000" r="751920.000000" /> 
<circle cx="43129751.000000" cy="17247068.000000" r="751920.000000" /> 
<circle cx="44429887.000000" cy="17178931.000000" r="751920.000000" /> 
<circle cx="54418100.000000" cy="16655471.000000" r="751919.000000" /> 
<circle cx="48232805.000000" cy="19082510.000000" r="751919.000000" /> 
<circle cx="49532940.000000" cy="19014373.000000" r="751920.000000" /> 
<circle cx="48575049.000000" cy="13156477.000000" r="1912701.000000" /> 
<circle cx="43082587.000000" cy="13444325.000000" r="1061248.000000" /> 
<circle cx="54067511.000000" cy="12868629.000000" r="1061249.000000" /> 
</g>
<g style="fill:#000000; fill-opacity:1.0; 
stroke:#000000; stroke-width:200000.000000; stroke-opacity:1; 
stroke-linecap:round; stroke-linejoin:round;">
</g>
<g style="fill:#000000; fill-opacity:0.0; 
stroke:#000000; stroke-width:200000.000000; stroke-opacity:1; 
stroke-linecap:round; stroke-linejoin:round;">
<path d="M65725001 49526920
L64423081 49526920
" />
<path d="M64423081 49526920
L64423081 48223080
" />
<path d="M64423081 48223080
L65725001 48223080
" />
<path d="M65725001 48223080
L65725001 49526920
" />
</g>
<g style="fill:#000000; fill-opacity:1.0; 
stroke:#000000; stroke-width:21200.000000; stroke-opacity:1; 
stroke-linecap:round; stroke-linejoin:round;">
<path style="fill:#000000; fill-opacity:1.0; 
stroke:#000000; stroke-width:21200.000000; stroke-opacity:1; 
stroke-linecap:round; stroke-linejoin:round;fill-rule:evenodd;"
d="M 65725001.000000,49526920.000000
64423081.000000,49526920.000000
64423081.000000,48223080.000000
65725001.000000,48223080.000000
" /> 
</g>
<g style="fill:#000000; fill-opacity:1.0; 
stroke:#000000; stroke-width:200000.000000; stroke-opacity:1; 
stroke-linecap:round; stroke-linejoin:round;">
</g>
<g style="fill:#000000; fill-opacity:0.0; 
stroke:#000000; stroke-width:200000.000000; stroke-opacity:1; 
stroke-linecap:round; stroke-linejoin:round;">
<path d="M75726921 49526920
L74425001 49526920
" />
<path d="M74425001 49526920
L74425001 48223080
" />
<path d="M74425001 48223080
L75726921 48223080
" />
<path d="M75726921 48223080
L75726921 49526920
" />
</g>
<g style="fill:#000000; fill-opacity:1.0; 
stroke:#000000; stroke-width:21200.000000; stroke-opacity:1; 
stroke-linecap:round; stroke-linejoin:round;">
<path style="fill:#000000; fill-opacity:1.0; 
stroke:#000000; stroke-width:21200.000000; stroke-opacity:1; 
stroke-linecap:round; stroke-linejoin:round;fill-rule:evenodd;"
d="M 75726921.000000,49526920.000000
74425001.000000,49526920.000000
74425001.000000,48223080.000000
75726921.000000,48223080.000000
" /> 
</g>
<g style="fill:#000000; fill-opacity:1.0; 
stroke:#000000; stroke-width:200000.000000; stroke-opacity:1; 
stroke-linecap:round; stroke-linejoin:round;">
</g>
<g style="fill:#000000; fill-opacity:0.0; 
stroke:#000000; stroke-width:200000.000000; stroke-opacity:1; 
stroke-linecap:round; stroke-linejoin:round;">
<path d="M70725001 51626920
L69423081 51626920
" />
<path d="M69423081 51626920
L69423081 50323080
" />
<path d="M69423081 50323080
L70725001 50323080
" />
<path d="M70725001 50323080
L70725001 51626920
" />
</g>
<g style="fill:#000000; fill-opacity:1.0; 
stroke:#000000; stroke-width:21200.000000; stroke-opacity:1; 
stroke-linecap:round; stroke-linejoin:round;">
<path style="fill:#000000; fill-opacity:1.0; 
stroke:#000000; stroke-width:21200.000000; stroke-opacity:1; 
stroke-linecap:round; stroke-linejoin:round;fill-rule:evenodd;"
d="M 70725001.000000,51626920.000000
69423081.000000,51626920.000000
69423081.000000,50323080.000000
70725001.000000,50323080.000000
" /> 
</g>
<g style="fill:#000000; fill-opacity:1.0; 
stroke:#000000; stroke-width:1.000000; stroke-opacity:1; 
stroke-linecap:round; stroke-linejoin:round;">
<circle cx="74425001.000000" cy="48875000.000000" r="751920.000000" /> 
<circle cx="64423081.000000" cy="48875000.000000" r="751920.000000" /> 
<circle cx="65725001.000000" cy="48875000.000000" r="751920.000000" /> 
<circle cx="75726921.000000" cy="48875000.000000" r="751920.000000" /> 
<circle cx="69423081.000000" cy="50975000.000000" r="751920.000000" /> 
<circle cx="70725001.000000" cy="50975000.000000" r="751920.000000" /> 
<circle cx="70075001.000000" cy="45075000.000000" r="1912701.000000" /> 
<circle cx="64575001.000000" cy="45075000.000000" r="1061249.000000" /> 
<circle cx="75575001.000000" cy="45075000.000000" r="1061249.000000" /> 
</g>
<g style="fill:#000000; fill-opacity:1.0; 
stroke:#000000; stroke-width:200000.000000; stroke-opacity:1; 
stroke-linecap:round; stroke-linejoin:round;">
</g>
<g style="fill:#000000; fill-opacity:0.0; 
stroke:#000000; stroke-width:200000.000000; stroke-opacity:1; 
stroke-linecap:round; stroke-linejoin:round;">
<path d="M93008758 75923399
L91730758 75674980
" />
<path d="M91730758 75674980
L91979543 74395095
" />
<path d="M91979543 74395095
L93257543 74643513
" />
<path d="M93257543 74643513
L93008758 75923399
" />
</g>
<g style="fill:#000000; fill-opacity:1.0; 
stroke:#000000; stroke-width:21200.000000; stroke-opacity:1; 
stroke-linecap:round; stroke-linejoin:round;">
<path style="fill:#000000; fill-opacity:1.0; 
stroke:#000000; stroke-width:21200.000000; stroke-opacity:1; 
stroke-linecap:round; stroke-linejoin:round;fill-rule:evenodd;"
d="M 93008758.000000,75923399.000000
91730758.000000,75674980.000000
91979543.000000,74395095.000000
93257543.000000,74643513.000000
" /> 
</g>
<g style="fill:#000000; fill-opacity:1.0; 
stroke:#000000; stroke-width:200000.000000; stroke-opacity:1; 
stroke-linecap:round; stroke-linejoin:round;">
</g>
<g style="fill:#000000; fill-opacity:0.0; 
stroke:#000000; stroke-width:200000.000000; stroke-opacity:1; 
stroke-linecap:round; stroke-linejoin:round;">
<path d="M102826915 77831854
L101548915 77583436
" />
<path d="M101548915 77583436
L101797699 76303551
" />
<path d="M101797699 76303551
L103075699 76551969
" />
<path d="M103075699 76551969
L102826915 77831854
" />
</g>
<g style="fill:#000000; fill-opacity:1.0; 
stroke:#000000; stroke-width:21200.000000; stroke-opacity:1; 
stroke-linecap:round; stroke-linejoin:round;">
<path style="fill:#000000; fill-opacity:1.0; 
stroke:#000000; stroke-width:21200.000000; stroke-opacity:1; 
stroke-linecap:round; stroke-linejoin:round;fill-rule:evenodd;"
d="M 102826915.000000,77831854.000000
101548915.000000,77583436.000000
101797699.000000,76303551.000000
103075699.000000,76551969.000000
" /> 
</g>
<g style="fill:#000000; fill-opacity:1.0; 
stroke:#000000; stroke-width:200000.000000; stroke-opacity:1; 
stroke-linecap:round; stroke-linejoin:round;">
</g>
<g style="fill:#000000; fill-opacity:0.0; 
stroke:#000000; stroke-width:200000.000000; stroke-opacity:1; 
stroke-linecap:round; stroke-linejoin:round;">
<path d="M97516195 78938860
L96238195 78690442
" />
<path d="M96238195 78690442
L96486980 77410557
" />
<path d="M96486980 77410557
L97764980 77658975
" />
<path d="M97764980 77658975
L97516195 78938860
" />
</g>
<g style="fill:#000000; fill-opacity:1.0; 
stroke:#000000; stroke-width:21200.000000; stroke-opacity:1; 
stroke-linecap:round; stroke-linejoin:round;">
<path style="fill:#000000; fill-opacity:1.0; 
stroke:#000000; stroke-width:21200.000000; stroke-opacity:1; 
stroke-linecap:round; stroke-linejoin:round;fill-rule:evenodd;"
d="M 97516195.000000,78938860.000000
96238195.000000,78690442.000000
96486980.000000,77410557.000000
97764980.000000,77658975.000000
" /> 
</g>
<g style="fill:#000000; fill-opacity:1.0; 
stroke:#000000; stroke-width:1.000000; stroke-opacity:1; 
stroke-linecap:round; stroke-linejoin:round;">
<circle cx="101673307.000000" cy="76943493.000000" r="751920.000000" /> 
<circle cx="91855151.000000" cy="75035037.000000" r="751920.000000" /> 
<circle cx="93133151.000000" cy="75283455.000000" r="751920.000000" /> 
<circle cx="102951307.000000" cy="77191911.000000" r="751921.000000" /> 
<circle cx="96362588.000000" cy="78050499.000000" r="751920.000000" /> 
<circle cx="97640588.000000" cy="78298917.000000" r="751920.000000" /> 
<circle cx="98128303.000000" cy="72383291.000000" r="1912701.000000" /> 
<circle cx="92729353.000000" cy="71333842.000000" r="1061250.000000" /> 
<circle cx="103527253.000000" cy="73432740.000000" r="1061249.000000" /> 
</g>
<g style="fill:#000000; fill-opacity:1.0; 
stroke:#000000; stroke-width:200000.000000; stroke-opacity:1; 
stroke-linecap:round; stroke-linejoin:round;">
</g>
<g style="fill:#000000; fill-opacity:0.0; 
stroke:#000000; stroke-width:200000.000000; stroke-opacity:1; 
stroke-linecap:round; stroke-linejoin:round;">
<path d="M101882277 57685777
L100581150 57640341
" />
<path d="M100581150 57640341
L100626654 56337295
" />
<path d="M100626654 56337295
L101927780 56382731
" />
<path d="M101927780 56382731
L101882277 57685777
" />
</g>
<g style="fill:#000000; fill-opacity:1.0; 
stroke:#000000; stroke-width:21200.000000; stroke-opacity:1; 
stroke-linecap:round; stroke-linejoin:round;">
<path style="fill:#000000; fill-opacity:1.0; 
stroke:#000000; stroke-width:21200.000000; stroke-opacity:1; 
stroke-linecap:round; stroke-linejoin:round;fill-rule:evenodd;"
d="M 101882277.000000,57685777.000000
100581150.000000,57640341.000000
100626654.000000,56337295.000000
101927780.000000,56382731.000000
" /> 
</g>
<g style="fill:#000000; fill-opacity:1.0; 
stroke:#000000; stroke-width:200000.000000; stroke-opacity:1; 
stroke-linecap:round; stroke-linejoin:round;">
</g>
<g style="fill:#000000; fill-opacity:0.0; 
stroke:#000000; stroke-width:200000.000000; stroke-opacity:1; 
stroke-linecap:round; stroke-linejoin:round;">
<path d="M111878104 58034839
L110576977 57989403
" />
<path d="M110576977 57989403
L110622481 56686357
" />
<path d="M110622481 56686357
L111923608 56731793
" />
<path d="M111923608 56731793
L111878104 58034839
" />
</g>
<g style="fill:#000000; fill-opacity:1.0; 
stroke:#000000; stroke-width:21200.000000; stroke-opacity:1; 
stroke-linecap:round; stroke-linejoin:round;">
<path style="fill:#000000; fill-opacity:1.0; 
stroke:#000000; stroke-width:21200.000000; stroke-opacity:1; 
stroke-linecap:round; stroke-linejoin:round;fill-rule:evenodd;"
d="M 111878104.000000,58034839.000000
110576977.000000,57989403.000000
110622481.000000,56686357.000000
111923608.000000,56731793.000000
" /> 
</g>
<g style="fill:#000000; fill-opacity:1.0; 
stroke:#000000; stroke-width:200000.000000; stroke-opacity:1; 
stroke-linecap:round; stroke-linejoin:round;">
</g>
<g style="fill:#000000; fill-opacity:0.0; 
stroke:#000000; stroke-width:200000.000000; stroke-opacity:1; 
stroke-linecap:round; stroke-linejoin:round;">
<path d="M106805942 59958995
L105504815 59913559
" />
<path d="M105504815 59913559
L105550319 58610513
" />
<path d="M105550319 58610513
L106851446 58655950
" />
<path d="M106851446 58655950
L106805942 59958995
" />
</g>
<g style="fill:#000000; fill-opacity:1.0; 
stroke:#000000; stroke-width:21200.000000; stroke-opacity:1; 
stroke-linecap:round; stroke-linejoin:round;">
<path style="fill:#000000; fill-opacity:1.0; 
stroke:#000000; stroke-width:21200.000000; stroke-opacity:1; 
stroke-linecap:round; stroke-linejoin:round;fill-rule:evenodd;"
d="M 106805942.000000,59958995.000000
105504815.000000,59913559.000000
105550319.000000,58610513.000000
106851446.000000,58655950.000000
" /> 
</g>
<g style="fill:#000000; fill-opacity:1.0; 
stroke:#000000; stroke-width:1.000000; stroke-opacity:1; 
stroke-linecap:round; stroke-linejoin:round;">
<circle cx="110599729.000000" cy="57337880.000000" r="751920.000000" /> 
<circle cx="100603902.000000" cy="56988818.000000" r="751920.000000" /> 
<circle cx="101905029.000000" cy="57034254.000000" r="751920.000000" /> 
<circle cx="111900856.000000" cy="57383316.000000" r="751920.000000" /> 
<circle cx="105527567.000000" cy="59262036.000000" r="751920.000000" /> 
<circle cx="106828694.000000" cy="59307473.000000" r="751920.000000" /> 
<circle cx="106384997.000000" cy="53388382.000000" r="1912701.000000" /> 
<circle cx="100888347.000000" cy="53196435.000000" r="1061250.000000" /> 
<circle cx="111881647.000000" cy="53580329.000000" r="1061249.000000" /> 
</g>
<g style="fill:#000000; fill-opacity:1.0; 
stroke:#000000; stroke-width:200000.000000; stroke-opacity:1; 
stroke-linecap:round; stroke-linejoin:round;">
</g>
<g style="fill:#000000; fill-opacity:0.0; 
stroke:#000000; stroke-width:200000.000000; stroke-opacity:1; 
stroke-linecap:round; stroke-linejoin:round;">
<path d="M65725001 15526920
L64423081 15526920
" />
<path d="M64423081 15526920
L64423081 14223080
" />
<path d="M64423081 14223080
L65725001 14223080
" />
<path d="M65725001 14223080
L65725001 15526920
" />
</g>
<g style="fill:#000000; fill-opacity:1.0; 
stroke:#000000; stroke-width:21200.000000; stroke-opacity:1; 
stroke-linecap:round; stroke-linejoin:round;">
<path style="fill:#000000; fill-opacity:1.0; 
stroke:#000000; stroke-width:21200.000000; stroke-opacity:1; 
stroke-linecap:round; stroke-linejoin:round;fill-rule:evenodd;"
d="M 65725001.000000,15526920.000000
64423081.000000,15526920.000000
64423081.000000,14223080.000000
65725001.000000,14223080.000000
" /> 
</g>
<g style="fill:#000000; fill-opacity:1.0; 
stroke:#000000; stroke-width:200000.000000; stroke-opacity:1; 
stroke-linecap:round; stroke-linejoin:round;">
</g>
<g style="fill:#000000; fill-opacity:0.0; 
stroke:#000000; stroke-width:200000.000000; stroke-opacity:1; 
stroke-linecap:round; stroke-linejoin:round;">
<path d="M75726921 15526920
L74425001 15526920
" />
<path d="M74425001 15526920
L74425001 14223080
" />
<path d="M74425001 14223080
L75726921 14223080
" />
<path d="M75726921 14223080
L75726921 15526920
" />
</g>
<g style="fill:#000000; fill-opacity:1.0; 
stroke:#000000; stroke-width:21200.000000; stroke-opacity:1; 
stroke-linecap:round; stroke-linejoin:round;">
<path style="fill:#000000; fill-opacity:1.0; 
stroke:#000000; stroke-width:21200.000000; stroke-opacity:1; 
stroke-linecap:round; stroke-linejoin:round;fill-rule:evenodd;"
d="M 75726921.000000,15526920.000000
74425001.000000,15526920.000000
74425001.000000,14223080.000000
75726921.000000,14223080.000000
" /> 
</g>
<g style="fill:#000000; fill-opacity:1.0; 
stroke:#000000; stroke-width:200000.000000; stroke-opacity:1; 
stroke-linecap:round; stroke-linejoin:round;">
</g>
<g style="fill:#000000; fill-opacity:0.0; 
stroke:#000000; stroke-width:200000.000000; stroke-opacity:1; 
stroke-linecap:round; stroke-linejoin:round;">
<path d="M70725001 17626920
L69423081 17626920
" />
<path d="M69423081 17626920
L69423081 16323080
" />
<path d="M69423081 16323080
L70725001 16323080
" />
<path d="M70725001 16323080
L70725001 17626920
" />
</g>
<g style="fill:#000000; fill-opacity:1.0; 
stroke:#000000; stroke-width:21200.000000; stroke-opacity:1; 
stroke-linecap:round; stroke-linejoin:round;">
<path style="fill:#000000; fill-opacity:1.0; 
stroke:#000000; stroke-width:21200.000000; stroke-opacity:1; 
stroke-linecap:round; stroke-linejoin:round;fill-rule:evenodd;"
d="M 70725001.000000,17626920.000000
69423081.000000,17626920.000000
69423081.000000,16323080.000000
70725001.000000,16323080.000000
" /> 
</g>
<g style="fill:#000000; fill-opacity:1.0; 
stroke:#000000; stroke-width:1.000000; stroke-opacity:1; 
stroke-linecap:round; stroke-linejoin:round;">
<circle cx="74425001.000000" cy="14875000.000000" r="751920.000000" /> 
<circle cx="64423081.000000" cy="14875000.000000" r="751920.000000" /> 
<circle cx="65725001.000000" cy="14875000.000000" r="751920.000000" /> 
<circle cx="75726921.000000" cy="14875000.000000" r="751920.000000" /> 
<circle cx="69423081.000000" cy="16975000.000000" r="751920.000000" /> 
<circle cx="70725001.000000" cy="16975000.000000" r="751920.000000" /> 
<circle cx="70075001.000000" cy="11075000.000000" r="1912701.000000" /> 
<circle cx="64575001.000000" cy="11075000.000000" r="1061249.000000" /> 
<circle cx="75575001.000000" cy="11075000.000000" r="1061249.000000" /> 
<circle cx="12451629.000000" cy="13361818.000000" r="1750000.000000" /> 
<circle cx="110141629.000000" cy="70541818.000000" r="1750000.000000" /> 
<circle cx="9141629.000000" cy="65101818.000000" r="1750000.000000" /> 
<circle cx="101471629.000000" cy="7001818.000000" r="1750000.000000" /> 
<circle cx="59970201.000000" cy="49951818.000000" r="2250000.000000" /> 
<circle cx="79020201.000000" cy="30901818.000000" r="2250000.000000" /> 
<circle cx="40920201.000000" cy="30901818.000000" r="2250000.000000" /> 
<circle cx="59970201.000000" cy="11851818.000000" r="2250000.000000" /> 
<g >
</g>
<g >
</g>
<g >
</g>
<g >
</g>
<g >
</g>
<g >
</g>
<g >
</g>
<g >
</g>
<g >
</g>
<g >
</g>
<g >
</g>
<g >
</g>
<g >
</g>
<g >
</g>
<g >
</g>
<g >
</g>
<g >
</g>
<g >
</g>
<g >
</g>
<g >
</g>
<g >
</g>
<g >
</g>
<g >
</g>
<g >
</g>
<g >
</g>
<g >
</g>
<g >
</g>
<g >
</g>
<g >
</g>
<g >
</g>
<g >
</g>
<g >
</g>
<g >
</g>
<g >
</g>
<g >
</g>
<g >
</g>
<g >
</g>
<g >
</g>
<g >
</g>
<g >
</g>
<g >
</g>
<g >
</g>
<g >
</g>
<g >
</g>
<g >
</g>
<g >
</g>
<g >
</g>
<g >
</g>
<g >
</g>
<g >
</g>
<g >
</g>
<g >
</g>
<g >
</g>
<g >
</g>
<g >
</g>
<g >
</g>
<g >
</g>
<g >
</g>
<g >
</g>
<g >
</g>
</g>
<g style="fill:#000000; fill-opacity:1.0; 
stroke:#000000; stroke-width:1.000000; stroke-opacity:1; 
stroke-linecap:round; stroke-linejoin:round;">
</g>
<g style="fill:#000000; fill-opacity:0.0; 
stroke:#000000; stroke-width:150000.000000; stroke-opacity:1; 
stroke-linecap:round; stroke-linejoin:round;">
<path d="M118806158.868480 6102646.523508 A199999988.000000 199999988.000000 0.0 0 0 12178456.984480 8638351.948681" />
<path d="M8650384.506493 11503930.183737 A69999999.000000 69999999.000000 0.0 0 0 3638968.083917 67126157.972147" />
<path d="M118806159 6102646
L117075001 12345000
" />
<path d="M124570849.244653 89009070.197237 A70000000.000000 70000000.000000 0.0 0 0 131499616.410173 11503931.775824" />
<path d="M126017491 14824972
L127751602 8571972
" />
<path d="M131499591.755814 11503944.250238 A5999974.000000 5999974.000000 0.0 0 0 127971545.089965 8638351.702533" />
<path d="M12178455.922771 8638351.744640 A6000001.000000 6000001.000000 0.0 0 0 8650384.809249 11503931.895747" />
<path d="M118182486.949548 90992285.168900 A499999936.000000 499999936.000000 0.0 0 0 8927258.992001 71222291.117874" />
<path d="M117075001 12345000
L126017491 14824972
" />
<path d="M127971545.113387 8638351.625483 A131632837.000000 131632837.000000 0.0 0 0 127751601.112880 8571971.624798" />
<path d="M118182469.425798 90992340.486929 A6000020.000000 6000020.000000 0.0 0 0 124570847.945681 89009069.956210" />
<path d="M3638968.398816 67126158.867627 A6000001.000000 6000001.000000 0.0 0 0 8927259.033166 71222291.511267" />
<g >
</g>
<g >
</g>
<g >
</g>
<g >
</g>
<g >
</g>
<g >
</g>
<g >
</g>
<g >
</g>
<g >
</g>
<g >
</g>
<g >
</g>
<g >
</g>
<g >
</g>
<g >
</g>
<g >
</g>
<g >
</g>
<g >
</g>
<g >
</g>
<g >
</g>
<g >
</g>
<g >
</g>
<g >
</g>
<g >
</g>
<g >
</g>
<g >
</g>
<g >
</g>
<g >
</g>
<g >
</g>
<g >
</g>
<g >
</g>
<g >
</g>
<g >
</g>
<g >
</g>
<g >
</g>
<g >
</g>
<g >
</g>
<g >
</g>
<g >
</g>
<g >
</g>
<g >
</g>
<g >
</g>
<g >
</g>
<g >
</g>
<g >
</g>
<g >
</g>
<g >
</g>
<g >
</g>
<g >
</g>
<g >
</g>
<g >
</g>
<g >
</g>
<g >
</g>
<g >
</g>
<g >
</g>
<g >
</g>
<g >
</g>
<g >
</g>
<g >
</g>
<g >
</g>
<g >
</g>
</g> 
</svg>
