<?xml version="1.0" standalone="no"?>
 <!DOCTYPE svg PUBLIC "-//W3C//DTD SVG 1.1//EN" 
 "http://www.w3.org/Graphics/SVG/1.1/DTD/svg11.dtd"> 
<svg
  xmlns:svg="http://www.w3.org/2000/svg"
  xmlns="http://www.w3.org/2000/svg"
  xmlns:xlink="http://www.w3.org/1999/xlink"
  version="1.1"
  width="16.093440cm" height="10.977880cm" viewBox="0 0 160934400 109778800">
<title>SVG Picture created as Bottom_Plate-brd.svg date 2022/06/24 01:17:46 </title>
  <desc>Picture generated by PCBNEW </desc>
<g style="fill:#000000; fill-opacity:1.000000;stroke:#000000; stroke-opacity:1.000000;
stroke-linecap:round; stroke-linejoin:round;"
 transform="translate(0 0) scale(1 1)">
</g>
<g style="fill:#000000; fill-opacity:0.0; 
stroke:#000000; stroke-width:0.000000; stroke-opacity:1; 
stroke-linecap:round; stroke-linejoin:round;">
</g>
<g style="fill:#000000; fill-opacity:0.0; 
stroke:#000000; stroke-width:100000.000000; stroke-opacity:1; 
stroke-linecap:round; stroke-linejoin:round;">
<circle cx="138587879.000000" cy="72957000.000000" r="1100000.000000" /> 
<circle cx="133881879.000000" cy="33441000.000000" r="1100000.000000" /> 
<circle cx="77747879.000000" cy="83987000.000000" r="1100000.000000" /> 
<circle cx="78207879.000000" cy="14697000.000000" r="1100000.000000" /> 
<circle cx="12723879.000000" cy="68493000.000000" r="1100000.000000" /> 
<path d="M144981879 34100000
L141481879 25350000
" />
<circle cx="16787879.000000" cy="33187000.000000" r="1100000.000000" /> 
<g >
</g>
<g >
</g>
<g >
</g>
<g >
</g>
<g >
</g>
<g >
</g>
<g >
</g>
<g >
</g>
<g >
</g>
<g >
</g>
<g >
</g>
<g >
</g>
<g >
</g>
<g >
</g>
</g>
<g style="fill:#000000; fill-opacity:0.0; 
stroke:#000000; stroke-width:100000.000000; stroke-opacity:1; 
stroke-linecap:round; stroke-linejoin:round;">
</g>
<g style="fill:#000000; fill-opacity:0.0; 
stroke:#000000; stroke-width:150000.000000; stroke-opacity:1; 
stroke-linecap:round; stroke-linejoin:round;">
<path d="M125398737.922349 102187463.912242 A499999917.000000 499999917.000000 0.0 0 0 16143509.004010 82417472.940903" />
<path d="M135187794.996165 19833534.012682 A204401178.000000 204401178.000000 0.0 0 0 134967850.997954 19767154.006792" />
<path d="M134967850.335614 19767156.082917 A117702116.000000 117702116.000000 0.0 0 0 126022408.913478 17297828.369685" />
<path d="M10855228.280138 78321337.587812 A6000044.000000 6000044.000000 0.0 0 0 16143509.020957 82417473.691209" />
<path d="M138715841.755814 22699126.250238 A5999974.000000 5999974.000000 0.0 0 0 135187795.089965 19833533.702533" />
<path d="M19394705.490924 19833532.316711 A5999963.000000 5999963.000000 0.0 0 0 15866635.365769 22699114.199906" />
<path d="M125398719.425798 102187522.486929 A6000020.000000 6000020.000000 0.0 0 0 131787097.945681 100204251.956210" />
<path d="M15866634.506493 22699112.183737 A69999999.000000 69999999.000000 0.0 0 0 10855218.083917 78321339.972147" />
<path d="M131787097.055256 100204250.432165 A70000000.000000 70000000.000000 0.0 0 0 138715865.711849 22699114.157486" />
<path d="M126022408.868480 17297828.523508 A199999988.000000 199999988.000000 0.0 0 0 19394706.984480 19833533.948681" />
<g >
</g>
<g >
</g>
<g >
</g>
<g >
</g>
<g >
</g>
<g >
</g>
<g >
</g>
<g >
</g>
<g >
</g>
<g >
</g>
<g >
</g>
<g >
</g>
<g >
</g>
<g >
</g>
</g> 
</svg>
