<?xml version="1.0" encoding="UTF-8" standalone="no"?>
<svg
   version="1.1"
   width="16.624300cm"
   height="9.171940cm"
   viewBox="0 0 166243000 91719400"
   id="svg4215"
   sodipodi:docname="Wubbo-User_9-combined.svg"
   inkscape:version="1.1.2 (1:1.1+202202050950+0a00cf5339)"
   xmlns:inkscape="http://www.inkscape.org/namespaces/inkscape"
   xmlns:sodipodi="http://sodipodi.sourceforge.net/DTD/sodipodi-0.dtd"
   xmlns="http://www.w3.org/2000/svg"
   xmlns:svg="http://www.w3.org/2000/svg"
   xmlns:rdf="http://www.w3.org/1999/02/22-rdf-syntax-ns#"
   xmlns:cc="http://creativecommons.org/ns#"
   xmlns:dc="http://purl.org/dc/elements/1.1/">
  <defs
     id="defs4219" />
  <sodipodi:namedview
     id="namedview4217"
     pagecolor="#505050"
     bordercolor="#ffffff"
     borderopacity="1"
     inkscape:pageshadow="0"
     inkscape:pageopacity="0"
     inkscape:pagecheckerboard="1"
     inkscape:document-units="cm"
     showgrid="false"
     inkscape:zoom="1.8692883"
     inkscape:cx="372.6017"
     inkscape:cy="145.24244"
     inkscape:window-width="2283"
     inkscape:window-height="1402"
     inkscape:window-x="2235"
     inkscape:window-y="189"
     inkscape:window-maximized="1"
     inkscape:current-layer="svg4215" />
  <title
     id="title3223">SVG Picture created as Wubbo-User_9.svg date 2022/06/24 01:01:24 </title>
  <desc
     id="desc3225">Picture generated by PCBNEW </desc>
  <rect
     style="fill:#b3b3b3;stroke-width:264583"
     id="rect4346"
     width="160888848"
     height="102295552"
     x="20782506"
     y="-7557246" />
  <path
     id="path3271"
     style="fill:#000000;fill-opacity:0;stroke:#000000;stroke-width:120000;stroke-linecap:round;stroke-linejoin:round;stroke-opacity:1"
     d="M 76340793,40332121 A 373268,373268 0 0 0 76760131,40690666 M 76401218,45115514 A 1418269,1418269 0 0 0 74862912,43759389 M 72601489,43882687 74862912,43759389 M 76340792,40332121 76287932,39323506 M 75522821,38672656 72297248,38841702 M 71675749,39975783 69269052,40101912 M 76401218,45115514 76440993,45874473 M 71932097,42956451 71950937,43315958 M 81531076,44596327 83997691,44467057 M 71652198,39526399 71675749,39975783 M 69425536,43087814 71932097,42956451 M 76287932,39323506 75522821,38672656 M 69425536,43087814 69269052,40101912 M 81224005,40456725 76760131,40690666 M 81583935,45604943 81531076,44596327 M 81287855,41675053 81224005,40456725 M 83997691,44467057 83844347,41541072 M 76440993,45874473 81583935,45604943 M 72297248,38841702 71652198,39526399 M 83844347,41541072 81287855,41675053 M 71950937,43315958 72601489,43882687" />
  <path
     id="path3313"
     style="fill:#000000;fill-opacity:0;stroke:#000000;stroke-width:120000;stroke-linecap:round;stroke-linejoin:round;stroke-opacity:1"
     d="M 96420341,21408692 C 96419271,21460606 96429043,21512173 96449035,21560096 96469026,21608019 96498796,21651243 96536442,21687007 96574088,21722770 96618781,21750286 96667666,21767795 96716550,21785304 96768550,21792422 96820341,21788692 M 96230341,26188692 C 96231506,26093111 96223005,25997657 96204969,25903785 96186932,25809914 96159451,25718107 96122945,25629764 96086440,25541421 96041097,25456995 95987608,25377773 95934119,25298552 95872758,25224941 95804461,25158063 95736164,25091185 95661281,25031383 95580953,24979569 95500626,24927755 95415267,24884195 95326177,24849552 95237087,24814910 95144723,24789363 95050494,24773301 94956264,24757239 94860653,24750744 94765117,24753916 M 92500341,24758692 94765117,24753916 M 96420341,21408692 V 20398692 M 95690341,19708692 H 92460341 M 91780341,20808692 H 91657218 89370341 M 96230341,26188692 V 26948692 M 91880341,23798692 V 24158692 M 101380340,25938692 H 103850340 M 91780341,20358692 V 20808692 M 89370341,23798692 H 91880341 M 96420341,20398692 95690341,19708692 M 89370341,23798692 V 20808692 M 101290340,21788692 H 96820341 M 101380340,26948692 V 25938692 M 101290340,23008692 V 21788692 M 103850340,25938692 V 23008692 M 96230341,26948692 H 101380340 M 92460341,19708692 91780341,20358692 M 103850340,23008692 H 101290340 M 91880341,24158692 92500341,24758692" />
  <path
     id="path3355"
     style="fill:#000000;fill-opacity:0;stroke:#000000;stroke-width:120000;stroke-linecap:round;stroke-linejoin:round;stroke-opacity:1"
     d="M 139094020,70044733 A 373270,373270 0 0 0 139610910,69851796 M 143306960,72310917 A 1418270,1418270 0 0 0 141375080,72998888 M 140386560,75036549 141375080,72998888 M 139094020,70044733 138186230,69601978 M 137246060,69955622 135830120,72858726 M 136520700,73952115 135464220,76118208 M 143306960,72310918 143990040,72644080 M 139251930,75172965 139575490,75330778 M 145339870,67572536 146422650,65352514 M 136116240,73754848 136520700,73952115 M 138151620,77428938 139251930,75172965 M 138186230,69601978 137246060,69955622 M 138151620,77428938 135464220,76118208 M 141570430,65834187 139610910,69851796 M 146247660,68015291 145339870,67572536 M 142666950,66369000 141570430,65834187 M 146422650,65352514 143789180,64068087 M 143990040,72644080 146247660,68015291 M 135830120,72858726 136116240,73754848 M 143789180,64068087 142666950,66369000 M 139575490,75330778 140386560,75036549" />
  <path
     id="path3397"
     style="fill:#000000;fill-opacity:0;stroke:#000000;stroke-width:120000;stroke-linecap:round;stroke-linejoin:round;stroke-opacity:1"
     d="M 115035350,24452590 A 373269,373269 0 0 0 115428660,24839513 M 114761950,29228546 A 1418269,1418269 0 0 0 113321990,27768417 M 111057480,27733666 113321990,27768417 M 115035350,24452590 115052980,23442744 M 114335130,22740109 111105620,22683737 M 110406530,23771702 107996890,23729642 M 114761950,29228546 114748690,29988430 M 110454330,26762992 110448050,27122937 M 119915530,29068464 122385160,29111571 M 110414380,23321771 110406530,23771702 M 107944710,26719187 110454330,26762992 M 115052980,23442744 114335130,22740109 M 107944710,26719187 107996890,23729642 M 119897970,24917525 115428660,24839513 M 119897910,30078310 119915530,29068464 M 119876680,26137340 119897970,24917525 M 122385160,29111571 122436290,26182018 M 114748690,29988430 119897910,30078310 M 111105620,22683737 110414380,23321771 M 122436290,26182018 119876680,26137340 M 110448050,27122937 111057480,27733666" />
  <path
     id="path3439"
     style="fill:#000000;fill-opacity:0;stroke:#000000;stroke-width:120000;stroke-linecap:round;stroke-linejoin:round;stroke-opacity:1"
     d="M 38523927,34169952 A 373268,373268 0 0 0 38955522,34513644 M 38751252,38948323 A 1418269,1418269 0 0 0 37166555,37646709 M 34910814,37848855 37166555,37646709 M 38523925,34169952 38435898,33163796 M 37648538,32540045 34430829,32821558 M 33849288,33976638 31448459,34186684 M 38751253,38948323 38817491,39705431 M 34209504,36946545 34240880,37305175 M 43859866,38250422 46320467,38035147 M 33810068,33528351 33849288,33976638 M 31709055,37165306 34209504,36946545 M 38435898,33163796 37648538,32540045 M 31709055,37165306 31448459,34186684 M 43408513,34124058 38955522,34513644 M 43947894,39256579 43859866,38250422 M 43514843,35339416 43408513,34124058 M 46320467,38035147 46065101,35116297 M 38817491,39705431 43947894,39256579 M 34430829,32821558 33810068,33528351 M 46065101,35116297 43514843,35339416 M 34240880,37305175 34910814,37848855" />
  <path
     id="path3481"
     style="fill:#000000;fill-opacity:0;stroke:#000000;stroke-width:120000;stroke-linecap:round;stroke-linejoin:round;stroke-opacity:1"
     d="M 57937080,49536459 A 373268,373268 0 0 0 58368675,49880151 M 58164405,54314830 A 1418269,1418269 0 0 0 56579708,53013216 M 54323967,53215362 56579708,53013216 M 57937078,49536459 57849051,48530303 M 57061691,47906552 53843982,48188065 M 53262441,49343145 50861612,49553191 M 58164406,54314830 58230644,55071938 M 53622657,52313052 53654033,52671682 M 63273019,53616929 65733620,53401654 M 53223221,48894858 53262441,49343145 M 51122208,52531813 53622657,52313052 M 57849051,48530303 57061691,47906552 M 51122208,52531813 50861612,49553191 M 62821666,49490565 58368675,49880151 M 63361047,54623086 63273019,53616929 M 62927996,50705923 62821666,49490565 M 65733620,53401654 65478254,50482804 M 58230644,55071938 63361047,54623086 M 53843982,48188065 53223221,48894858 M 65478254,50482804 62927996,50705923 M 53654033,52671682 54323967,53215362" />
  <path
     id="path3523"
     style="fill:#000000;fill-opacity:0;stroke:#000000;stroke-width:120000;stroke-linecap:round;stroke-linejoin:round;stroke-opacity:1"
     d="M 115332040,7455180 A 373269,373269 0 0 0 115725350,7842103.2 M 115058650,12231136 A 1418269,1418269 0 0 0 113618690,10771007 M 111354170,10736256 113618690,10771007 M 115332040,7455180 115349670,6445334 M 114631820,5742699 111402310,5686327 M 110703220,6774292 108293580,6732232 M 115058650,12231136 115045380,12991020 M 110751020,9765582 110744740,10125527 M 120212220,12071054 122681850,12114161 M 110711070,6324361 110703220,6774292 M 108241400,9721777 110751020,9765582 M 115349670,6445334 114631820,5742699 M 108241400,9721777 108293580,6732232 M 120194670,7920115 115725350,7842103 M 120194600,13080900 120212220,12071054 M 120173370,9139930 120194670,7920115 M 122681850,12114161 122732980,9184608 M 115045380,12991020 120194600,13080900 M 111402310,5686327 110711070,6324361 M 122732980,9184608 120173370,9139930 M 110744740,10125527 111354170,10736256" />
  <path
     id="path3565"
     style="fill:#000000;fill-opacity:0;stroke:#000000;stroke-width:120000;stroke-linecap:round;stroke-linejoin:round;stroke-opacity:1"
     d="M 56455432,32601149 A 373268,373268 0 0 0 56887027,32944841 M 56682757,37379520 A 1418269,1418269 0 0 0 55098060,36077906 M 52842319,36280052 55098060,36077906 M 56455430,32601149 56367403,31594993 M 55580043,30971242 52362334,31252755 M 51780793,32407835 49379964,32617881 M 56682758,37379520 56748996,38136628 M 52141009,35377742 52172385,35736372 M 61791371,36681619 64251972,36466344 M 51741573,31959548 51780793,32407835 M 49640560,35596503 52141009,35377742 M 56367403,31594993 55580043,30971242 M 49640560,35596503 49379964,32617881 M 61340018,32555255 56887027,32944841 M 61879399,37687776 61791371,36681619 M 61446348,33770613 61340018,32555255 M 64251972,36466344 63996606,33547494 M 56748996,38136628 61879399,37687776 M 52362334,31252755 51741573,31959548 M 63996606,33547494 61446348,33770613 M 52172385,35736372 52842319,36280052" />
  <path
     id="path3649"
     style="fill:#000000;fill-opacity:0;stroke:#000000;stroke-width:120000;stroke-linecap:round;stroke-linejoin:round;stroke-opacity:1"
     d="M 134152810,12827463 A 373269,373269 0 0 0 134539310,13221191 M 133796110,17597920 A 1418269,1418269 0 0 0 132381850,16112882 M 130118290,16038616 132381850,16112882 M 134152810,12827463 134188060,11818078 M 133482590,11103022 130254560,10990296 M 129536580,12065894 127128050,11981787 M 133796110,17597920 133769590,18357457 M 129532170,15057563 129519610,15417344 M 138951700,17527805 141420190,17614006 M 129552280,11616169 129536580,12065894 M 127023700,14969965 129532170,15057563 M 134188060,11818078 133482590,11103022 M 127023700,14969965 127128050,11981787 M 139006590,13377192 134539310,13221191 M 138916450,18537189 138951700,17527805 M 138964010,14596448 139006590,13377192 M 141420190,17614006 141522450,14685791 M 133769590,18357457 138916450,18537189 M 130254560,10990296 129552280,11616169 M 141522450,14685791 138964010,14596448 M 129519610,15417344 130118290,16038616" />
  <path
     id="path3691"
     style="fill:#000000;fill-opacity:0;stroke:#000000;stroke-width:120000;stroke-linecap:round;stroke-linejoin:round;stroke-opacity:1"
     d="M 114738660,41450001 A 373269,373269 0 0 0 115131960,41836924 M 114465260,46225957 A 1418269,1418269 0 0 0 113025300,44765828 M 110760790,44731077 113025300,44765828 M 114738660,41450001 114756280,40440155 M 114038440,39737520 110808930,39681148 M 110109840,40769113 107700200,40727053 M 114465260,46225957 114452000,46985841 M 110157640,43760403 110151350,44120348 M 119618840,46065875 122088470,46108982 M 110117690,40319182 110109840,40769113 M 107648020,43716598 110157640,43760403 M 114756280,40440155 114038440,39737520 M 107648020,43716598 107700200,40727053 M 119601280,41914936 115131960,41836924 M 119601220,47075721 119618840,46065875 M 119579990,43134751 119601280,41914936 M 122088470,46108982 122139600,43179429 M 114452000,46985841 119601220,47075721 M 110808930,39681148 110117690,40319182 M 122139600,43179429 119579990,43134751 M 110151350,44120348 110760790,44731077" />
  <path
     id="path3733"
     style="fill:#000000;fill-opacity:0;stroke:#000000;stroke-width:120000;stroke-linecap:round;stroke-linejoin:round;stroke-opacity:1"
     d="M 75451082,23355419 A 373268,373268 0 0 0 75870420,23713964 M 75511507,28138812 A 1418269,1418269 0 0 0 73973201,26782687 M 71711778,26905985 73973201,26782687 M 75451081,23355419 75398221,22346804 M 74633110,21695954 71407537,21865000 M 70786038,22999081 68379341,23125210 M 75511507,28138812 75551282,28897771 M 71042386,25979749 71061226,26339256 M 80641365,27619625 83107980,27490355 M 70762487,22549697 70786038,22999081 M 68535825,26111112 71042386,25979749 M 75398221,22346804 74633110,21695954 M 68535825,26111112 68379341,23125210 M 80334294,23480023 75870420,23713964 M 80694224,28628241 80641365,27619625 M 80398144,24698351 80334294,23480023 M 83107980,27490355 82954636,24564370 M 75551282,28897771 80694224,28628241 M 71407537,21865000 70762487,22549697 M 82954636,24564370 80398144,24698351 M 71061226,26339256 71711778,26905985" />
  <path
     id="path3775"
     style="fill:#000000;fill-opacity:0;stroke:#000000;stroke-width:120000;stroke-linecap:round;stroke-linejoin:round;stroke-opacity:1"
     d="M 74561370,6378716 A 373268,373268 0 0 0 74980708,6737260.6 M 74621795,11162109 A 1418269,1418269 0 0 0 73083489,9805983.5 M 70822066,9929282 73083489,9805984 M 74561369,6378716 74508509,5370101 M 73743398,4719251 70517825,4888297 M 69896326,6022378 67489629,6148507 M 74621795,11162109 74661570,11921068 M 70152674,9003046 70171514,9362553 M 79751653,10642922 82218268,10513652 M 69872775,5572994 69896326,6022378 M 67646113,9134409 70152674,9003046 M 74508509,5370101 73743398,4719251 M 67646113,9134409 67489629,6148507 M 79444582,6503320 74980708,6737261 M 79804512,11651538 79751653,10642922 M 79508432,7721648 79444582,6503320 M 82218268,10513652 82064924,7587667 M 74661570,11921068 79804512,11651538 M 70517825,4888297 69872775,5572994 M 82064924,7587667 79508432,7721648 M 70171514,9362553 70822066,9929282" />
  <path
     id="path3817"
     style="fill:#000000;fill-opacity:0;stroke:#000000;stroke-width:120000;stroke-linecap:round;stroke-linejoin:round;stroke-opacity:1"
     d="M 96420341,38408692 A 373269,373269 0 0 0 96820341,38788692 M 96230341,43188692 A 1418269,1418269 0 0 0 94765117,41753916 M 92500341,41758692 94765117,41753916 M 96420341,38408692 V 37398692 M 95690341,36708692 H 92460341 M 91780341,37808692 H 89370341 M 96230341,43188692 V 43948692 M 91880341,40798692 V 41158692 M 101380340,42938692 H 103850340 M 91780341,37358692 V 37808692 M 89370341,40798692 H 91880341 M 96420341,37398692 95690341,36708692 M 89370341,40798692 V 37808692 M 101290340,38788692 H 96820341 M 101380340,43948692 V 42938692 M 101290340,40008692 V 38788692 M 103850340,42938692 V 40008692 M 96230341,43948692 H 101380340 M 92460341,36708692 91780341,37358692 M 103850340,40008692 H 101290340 M 91880341,41158692 92500341,41758692" />
  <path
     id="path3859"
     style="fill:#000000;fill-opacity:0;stroke:#000000;stroke-width:120000;stroke-linecap:round;stroke-linejoin:round;stroke-opacity:1"
     d="M 125728650,66282222 A 373269,373269 0 0 0 126048790,66731564 M 124630070,70938146 A 1418269,1418269 0 0 0 123465540,69250153 M 121241460,68822702 123465540,69250153 M 125728650,66282222 125921370,65290778 M 125336440,64474165 122165780,63857852 M 121288390,64807892 118922660,64348042 M 124630070,70938146 124485060,71684183 M 120816030,67762038 120747340,68115424 M 129733160,71675406 132157780,72146704 M 121374250,64366160 121288390,64807892 M 118352140,67283107 120816030,67762038 M 125921370,65290778 125336440,64474165 M 118352140,67283107 118922660,64348042 M 130436670,67584480 126048790,66731564 M 129540440,72666849 129733160,71675406 M 130203880,68782065 130436670,67584480 M 132157780,72146704 132716850,69270536 M 124485060,71684183 129540440,72666849 M 122165780,63857852 121374250,64366160 M 132716850,69270536 130203880,68782065 M 120747340,68115424 121241460,68822702" />
  <path
     id="path3901"
     style="fill:#000000;fill-opacity:0;stroke:#000000;stroke-width:120000;stroke-linecap:round;stroke-linejoin:round;stroke-opacity:1"
     d="M 132966230,46806751 A 373269,373269 0 0 0 133352730,47200479 M 132609530,51577208 A 1418269,1418269 0 0 0 131195270,50092170 M 128931710,50017904 131195270,50092170 M 132966230,46806751 133001480,45797366 M 132296000,45082310 129067970,44969584 M 128350000,46045182 125941460,45961075 M 132609530,51577208 132583000,52336745 M 128345590,49036851 128333020,49396632 M 137765110,51507093 140233610,51593294 M 128365700,45595457 128350000,46045182 M 125837120,48949253 128345590,49036851 M 133001480,45797366 132296000,45082310 M 125837120,48949253 125941460,45961075 M 137820000,47356480 133352730,47200479 M 137729870,52516477 137765110,51507093 M 137777420,48575736 137820000,47356480 M 140233610,51593294 140335870,48665079 M 132583000,52336745 137729870,52516477 M 129067970,44969584 128365700,45595457 M 140335870,48665079 137777420,48575736 M 128333020,49396632 128931710,50017904" />
  <path
     id="path3943"
     style="fill:#000000;fill-opacity:0;stroke:#000000;stroke-width:120000;stroke-linecap:round;stroke-linejoin:round;stroke-opacity:1"
     d="M 96420341,4408692 A 373269,373269 0 0 0 96820341,4788691.9 M 96230341,9188692 A 1418269,1418269 0 0 0 94765117,7753916 M 92500341,7758692 94765117,7753916 M 96420341,4408692 V 3398692 M 95690341,2708692 H 92460341 M 91780341,3808692 H 89370341 M 96230341,9188692 V 9948692 M 91880341,6798692 V 7158692 M 101380340,8938692 H 103850340 M 91780341,3358692 V 3808692 M 89370341,6798692 H 91880341 M 96420341,3398692 95690341,2708692 M 89370341,6798692 V 3808692 M 101290340,4788692 H 96820341 M 101380340,9948692 V 8938692 M 101290340,6008692 V 4788692 M 103850340,8938692 V 6008692 M 96230341,9948692 H 101380340 M 92460341,2708692 91780341,3358692 M 103850340,6008692 H 101290340 M 91880341,7158692 92500341,7758692" />
  <path
     id="path4091"
     style="fill:#000000;fill-opacity:0;stroke:#000000;stroke-width:150000;stroke-linecap:round;stroke-linejoin:round;stroke-opacity:1"
     d="M 27676696,67259341 A 6000001,6000001 0 0 0 32964987,71355474 M 142220200,91125522 A 6000020,6000020 0 0 0 148608580,89142252 M 152009270,8771534 A 204401180,204401180 0 0 0 151789330,8705154 M 141112730,12478182 150055220,14958154 M 142220220,91125467 A 499999940,499999940 0 0 0 32964987,71355473 M 36216184,8771533.7 A 6000001,6000001 0 0 0 32688113,11637114 M 155537320,11637126 A 5999974,5999974 0 0 0 152009270,8771533.7 M 150055220,14958154 151789330,8705154 M 148608580,89142252 A 70000000,70000000 0 0 0 155537340,11637114 M 142843890,6235828 141112730,12478182 M 32688113,11637112 A 69999999,69999999 0 0 0 27676696,67259340 M 142843890,6235828.5 A 199999990,199999990 0 0 0 36216185,8771533.9" />
  <metadata
     id="metadata4278">
    <rdf:RDF>
      <cc:Work
         rdf:about="">
        <dc:title>SVG Picture created as Wubbo-User_9.svg date 2022/06/24 01:01:24 </dc:title>
      </cc:Work>
    </rdf:RDF>
  </metadata>
  <path
     id="path5694"
     style="fill:#000000;fill-opacity:0;stroke:#000000;stroke-width:120000;stroke-linecap:round;stroke-linejoin:round;stroke-opacity:1"
     d="M 133559520,29817107 A 373269,373269 0 0 0 133946020,30210835 M 133202820,34587564 A 1418269,1418269 0 0 0 131788560,33102526 M 129525000,33028260 131788560,33102526 M 133559520,29817107 133594770,28807722 M 132889300,28092666 129661260,27979940 M 128943290,29055538 126534760,28971431 M 133202820,34587564 133176300,35347101 M 128938880,32047207 128926310,32406988 M 138358410,34517449 140826900,34603650 M 128958990,28605813 128943290,29055538 M 126430410,31959609 128938880,32047207 M 133594770,28807722 132889300,28092666 M 126430410,31959609 126534760,28971431 M 138413290,30366836 133946020,30210835 M 138323160,35526833 138358410,34517449 M 138370720,31586092 138413290,30366836 M 140826900,34603650 140929160,31675435 M 133176300,35347101 138323160,35526833 M 129661260,27979940 128958990,28605813 M 140929160,31675435 138370720,31586092 M 128926310,32406988 129525000,33028260 M 133559520,29817107 A 373269,373269 0 0 0 133946020,30210835 M 133202820,34587564 A 1418269,1418269 0 0 0 131788560,33102526 M 129525000,33028260 131788560,33102526 M 133559520,29817107 133594770,28807722 M 132889300,28092666 129661260,27979940 M 128943290,29055538 126534760,28971431 M 133202820,34587564 133176300,35347101 M 128938880,32047207 128926310,32406988 M 138358410,34517449 140826900,34603650 M 128958990,28605813 128943290,29055538 M 126430410,31959609 128938880,32047207 M 133594770,28807722 132889300,28092666 M 126430410,31959609 126534760,28971431 M 138413290,30366836 133946020,30210835 M 138323160,35526833 138358410,34517449 M 138370720,31586092 138413290,30366836 M 140826900,34603650 140929160,31675435 M 133176300,35347101 138323160,35526833 M 129661260,27979940 128958990,28605813 M 140929160,31675435 138370720,31586092 M 128926310,32406988 129525000,33028260 M 133559520,29817107 A 373269,373269 0 0 0 133946020,30210835 M 133202820,34587564 A 1418269,1418269 0 0 0 131788560,33102526 M 129525000,33028260 131788560,33102526 M 133559520,29817107 133594770,28807722 M 132889300,28092666 129661260,27979940 M 128943290,29055538 126534760,28971431 M 133202820,34587564 133176300,35347101 M 128938880,32047207 128926310,32406988 M 138358410,34517449 140826900,34603650 M 128958990,28605813 128943290,29055538 M 126430410,31959609 128938880,32047207 M 133594770,28807722 132889300,28092666 M 126430410,31959609 126534760,28971431 M 138413290,30366836 133946020,30210835 M 138323160,35526833 138358410,34517449 M 138370720,31586092 138413290,30366836 M 140826900,34603650 140929160,31675435 M 133176300,35347101 138323160,35526833 M 129661260,27979940 128958990,28605813 M 140929160,31675435 138370720,31586092 M 128926310,32406988 129525000,33028260" />
</svg>
