<?xml version="1.0" standalone="no"?>
 <!DOCTYPE svg PUBLIC "-//W3C//DTD SVG 1.1//EN" 
 "http://www.w3.org/Graphics/SVG/1.1/DTD/svg11.dtd"> 
<svg
  xmlns:svg="http://www.w3.org/2000/svg"
  xmlns="http://www.w3.org/2000/svg"
  xmlns:xlink="http://www.w3.org/1999/xlink"
  version="1.1"
  width="16.624300cm" height="9.171940cm" viewBox="0 0 166243000 91719400">
<title>SVG Picture created as Wubbo-Edge_Cuts.svg date 2022/06/24 01:01:24 </title>
  <desc>Picture generated by PCBNEW </desc>
<g style="fill:#000000; fill-opacity:1.000000;stroke:#000000; stroke-opacity:1.000000;
stroke-linecap:round; stroke-linejoin:round;"
 transform="translate(0 0) scale(1 1)">
</g>
<g style="fill:#000000; fill-opacity:0.0; 
stroke:#000000; stroke-width:0.000000; stroke-opacity:1; 
stroke-linecap:round; stroke-linejoin:round;">
</g>
<g style="fill:#000000; fill-opacity:0.0; 
stroke:#000000; stroke-width:150000.000000; stroke-opacity:1; 
stroke-linecap:round; stroke-linejoin:round;">
<path d="M142843886.868480 6235828.523508 A199999988.000000 199999988.000000 0.0 0 0 36216184.984480 8771533.948681" />
<path d="M32688112.506493 11637112.183737 A69999999.000000 69999999.000000 0.0 0 0 27676696.083917 67259339.972147" />
<path d="M142843887 6235828
L141112729 12478182
" />
<path d="M148608577.244653 89142252.197237 A70000000.000000 70000000.000000 0.0 0 0 155537344.410173 11637113.775824" />
<path d="M150055219 14958154
L151789330 8705154
" />
<path d="M155537319.755814 11637126.250238 A5999974.000000 5999974.000000 0.0 0 0 152009273.089965 8771533.702533" />
<path d="M36216183.922771 8771533.744640 A6000001.000000 6000001.000000 0.0 0 0 32688112.809249 11637113.895747" />
<path d="M142220214.949548 91125467.168900 A499999936.000000 499999936.000000 0.0 0 0 32964986.992001 71355473.117874" />
<path d="M141112729 12478182
L150055219 14958154
" />
<path d="M152009272.996165 8771534.012682 A204401178.000000 204401178.000000 0.0 0 0 151789328.997954 8705154.006792" />
<path d="M142220197.425798 91125522.486929 A6000020.000000 6000020.000000 0.0 0 0 148608575.945681 89142251.956210" />
<path d="M27676696.398816 67259340.867627 A6000001.000000 6000001.000000 0.0 0 0 32964987.033166 71355473.511267" />
<g >
</g>
<g >
</g>
<g >
</g>
<g >
</g>
<g >
</g>
<g >
</g>
<g >
</g>
<g >
</g>
<g >
</g>
<g >
</g>
<g >
</g>
<g >
</g>
<g >
</g>
<g >
</g>
<g >
</g>
<g >
</g>
<g >
</g>
<g >
</g>
<g >
</g>
<g >
</g>
<g >
</g>
<g >
</g>
<g >
</g>
<g >
</g>
<g >
</g>
<g >
</g>
<g >
</g>
<g >
</g>
<g >
</g>
<g >
</g>
<g >
</g>
<g >
</g>
<g >
</g>
<g >
</g>
<g >
</g>
<g >
</g>
<g >
</g>
<g >
</g>
<g >
</g>
<g >
</g>
<g >
</g>
<g >
</g>
<g >
</g>
<g >
</g>
<g >
</g>
<g >
</g>
<g >
</g>
<g >
</g>
<g >
</g>
<g >
</g>
<g >
</g>
<g >
</g>
<g >
</g>
<g >
</g>
<g >
</g>
<g >
</g>
<g >
</g>
<g >
</g>
<g >
</g>
<g >
</g>
</g> 
</svg>
