<?xml version="1.0" standalone="no"?>
 <!DOCTYPE svg PUBLIC "-//W3C//DTD SVG 1.1//EN" 
 "http://www.w3.org/Graphics/SVG/1.1/DTD/svg11.dtd"> 
<svg
  xmlns:svg="http://www.w3.org/2000/svg"
  xmlns="http://www.w3.org/2000/svg"
  xmlns:xlink="http://www.w3.org/1999/xlink"
  version="1.1"
  width="16.624300cm" height="9.171940cm" viewBox="0 0 166243000 91719400">
<title>SVG Picture created as Wubbo-User_9.svg date 2022/06/24 01:01:24 </title>
  <desc>Picture generated by PCBNEW </desc>
<g style="fill:#000000; fill-opacity:1.000000;stroke:#000000; stroke-opacity:1.000000;
stroke-linecap:round; stroke-linejoin:round;"
 transform="translate(0 0) scale(1 1)">
</g>
<g style="fill:#000000; fill-opacity:0.0; 
stroke:#000000; stroke-width:0.000000; stroke-opacity:1; 
stroke-linecap:round; stroke-linejoin:round;">
</g>
<g style="fill:#000000; fill-opacity:0.0; 
stroke:#000000; stroke-width:120000.000000; stroke-opacity:1; 
stroke-linecap:round; stroke-linejoin:round;">
<path d="M71950937 43315958
L72601489 43882687
" />
<path d="M83844347 41541072
L81287855 41675053
" />
<path d="M72297248 38841702
L71652198 39526399
" />
<path d="M76440993 45874473
L81583935 45604943
" />
<path d="M83997691 44467057
L83844347 41541072
" />
<path d="M81287855 41675053
L81224005 40456725
" />
<path d="M81583935 45604943
L81531076 44596327
" />
<path d="M81224005 40456725
L76760131 40690666
" />
<path d="M69425536 43087814
L69269052 40101912
" />
<path d="M76287932 39323506
L75522821 38672656
" />
<path d="M69425536 43087814
L71932097 42956451
" />
<path d="M71652198 39526399
L71675749 39975783
" />
<path d="M81531076 44596327
L83997691 44467057
" />
<path d="M71932097 42956451
L71950937 43315958
" />
<path d="M76401218 45115514
L76440993 45874473
" />
<path d="M71675749 39975783
L69269052 40101912
" />
<path d="M75522821 38672656
L72297248 38841702
" />
<path d="M76340792 40332121
L76287932 39323506
" />
<path d="M72601489 43882687
L74862912 43759389
" />
<path d="M76401217.855887 45115514.005792 A1418269.000000 1418269.000000 0.0 0 0 74862911.958345 43759388.514260" />
<path d="M76340793.018128 40332120.967673 A373268.000000 373268.000000 0.0 0 0 76760130.950926 40690665.607062" />
<path d="M91880341 24158692
L92500341 24758692
" />
<path d="M103850341 23008692
L101290341 23008692
" />
<path d="M92460341 19708692
L91780341 20358692
" />
<path d="M96230341 26948692
L101380341 26948692
" />
<path d="M103850341 25938692
L103850341 23008692
" />
<path d="M101290341 23008692
L101290341 21788692
" />
<path d="M101380341 26948692
L101380341 25938692
" />
<path d="M101290341 21788692
L96820341 21788692
" />
<path d="M89370341 23798692
L89370341 20808692
" />
<path d="M96420341 20398692
L95690341 19708692
" />
<path d="M89370341 23798692
L91880341 23798692
" />
<path d="M91780341 20358692
L91780341 20808692
" />
<path d="M101380341 25938692
L103850341 25938692
" />
<path d="M91880341 23798692
L91880341 24158692
" />
<path d="M96230341 26188692
L96230341 26948692
" />
<path d="M91780341 20808692
L89370341 20808692
" />
<path d="M95690341 19708692
L92460341 19708692
" />
<path d="M96420341 21408692
L96420341 20398692
" />
<path d="M92500341 24758692
L94765117 24753916
" />
<path d="M96230340.630042 26188691.995490 A1418269.000000 1418269.000000 0.0 0 0 94765116.999034 24753915.970890" />
<path d="M96420341.325117 21408692.006704 A373269.000000 373269.000000 0.0 0 0 96820340.995886 21788691.942865" />
<path d="M139575494 75330778
L140386561 75036549
" />
<path d="M143789183 64068087
L142666953 66369000
" />
<path d="M135830116 72858726
L136116240 73754848
" />
<path d="M143990044 72644080
L146247655 68015291
" />
<path d="M146422650 65352514
L143789183 64068087
" />
<path d="M142666953 66369000
L141570425 65834187
" />
<path d="M146247655 68015291
L145339873 67572536
" />
<path d="M141570425 65834187
L139610906 69851796
" />
<path d="M138151617 77428938
L135464222 76118208
" />
<path d="M138186233 69601978
L137246055 69955622
" />
<path d="M138151617 77428938
L139251928 75172965
" />
<path d="M136116240 73754848
L136520697 73952115
" />
<path d="M145339873 67572536
L146422650 65352514
" />
<path d="M139251928 75172965
L139575494 75330778
" />
<path d="M143306960 72310918
L143990044 72644080
" />
<path d="M136520697 73952115
L135464222 76118208
" />
<path d="M137246055 69955622
L135830116 72858726
" />
<path d="M139094015 70044733
L138186233 69601978
" />
<path d="M140386561 75036549
L141375080 72998888
" />
<path d="M143306960.309666 72310917.384256 A1418270.000000 1418270.000000 0.0 0 0 141375079.611446 72998887.826203" />
<path d="M139094014.830839 70044733.329416 A373270.000000 373270.000000 0.0 0 0 139610906.262199 69851796.105303" />
<path d="M110448045 27122937
L111057479 27733666
" />
<path d="M122436293 26182018
L119876682 26137340
" />
<path d="M111105620 22683737
L110414380 23321771
" />
<path d="M114748691 29988430
L119897906 30078310
" />
<path d="M122385157 29111571
L122436293 26182018
" />
<path d="M119876682 26137340
L119897974 24917525
" />
<path d="M119897906 30078310
L119915533 29068464
" />
<path d="M119897974 24917525
L115428655 24839513
" />
<path d="M107944711 26719187
L107996893 23729642
" />
<path d="M115052975 23442744
L114335128 22740109
" />
<path d="M107944711 26719187
L110454328 26762992
" />
<path d="M110414380 23321771
L110406526 23771702
" />
<path d="M119915533 29068464
L122385157 29111571
" />
<path d="M110454328 26762992
L110448045 27122937
" />
<path d="M114761954 29228546
L114748691 29988430
" />
<path d="M110406526 23771702
L107996893 23729642
" />
<path d="M114335128 22740109
L111105620 22683737
" />
<path d="M115035348 24452590
L115052975 23442744
" />
<path d="M111057479 27733666
L113321994 27768417
" />
<path d="M114761953.911815 29228545.997385 A1418269.000000 1418269.000000 0.0 0 0 113321993.992872 27768416.546998" />
<path d="M115035348.463791 24452590.017665 A373269.000000 373269.000000 0.0 0 0 115428655.008369 24839513.153604" />
<path d="M34240880 37305175
L34910814 37848855
" />
<path d="M46065101 35116297
L43514843 35339416
" />
<path d="M34430829 32821558
L33810068 33528351
" />
<path d="M38817491 39705431
L43947894 39256579
" />
<path d="M46320467 38035147
L46065101 35116297
" />
<path d="M43514843 35339416
L43408513 34124058
" />
<path d="M43947894 39256579
L43859866 38250422
" />
<path d="M43408513 34124058
L38955522 34513644
" />
<path d="M31709055 37165306
L31448459 34186684
" />
<path d="M38435898 33163796
L37648538 32540045
" />
<path d="M31709055 37165306
L34209504 36946545
" />
<path d="M33810068 33528351
L33849288 33976638
" />
<path d="M43859866 38250422
L46320467 38035147
" />
<path d="M34209504 36946545
L34240880 37305175
" />
<path d="M38751253 38948323
L38817491 39705431
" />
<path d="M33849288 33976638
L31448459 34186684
" />
<path d="M37648538 32540045
L34430829 32821558
" />
<path d="M38523925 34169952
L38435898 33163796
" />
<path d="M34910814 37848855
L37166555 37646709
" />
<path d="M38751251.836054 38948323.087550 A1418269.000000 1418269.000000 0.0 0 0 37166555.056368 37646709.465700" />
<path d="M38523926.695456 34169951.886835 A373268.000000 373268.000000 0.0 0 0 38955521.942234 34513643.640106" />
<path d="M53654033 52671682
L54323967 53215362
" />
<path d="M65478254 50482804
L62927996 50705923
" />
<path d="M53843982 48188065
L53223221 48894858
" />
<path d="M58230644 55071938
L63361047 54623086
" />
<path d="M65733620 53401654
L65478254 50482804
" />
<path d="M62927996 50705923
L62821666 49490565
" />
<path d="M63361047 54623086
L63273019 53616929
" />
<path d="M62821666 49490565
L58368675 49880151
" />
<path d="M51122208 52531813
L50861612 49553191
" />
<path d="M57849051 48530303
L57061691 47906552
" />
<path d="M51122208 52531813
L53622657 52313052
" />
<path d="M53223221 48894858
L53262441 49343145
" />
<path d="M63273019 53616929
L65733620 53401654
" />
<path d="M53622657 52313052
L53654033 52671682
" />
<path d="M58164406 54314830
L58230644 55071938
" />
<path d="M53262441 49343145
L50861612 49553191
" />
<path d="M57061691 47906552
L53843982 48188065
" />
<path d="M57937078 49536459
L57849051 48530303
" />
<path d="M54323967 53215362
L56579708 53013216
" />
<path d="M58164404.836054 54314830.087550 A1418269.000000 1418269.000000 0.0 0 0 56579708.056368 53013216.465700" />
<path d="M57937079.695456 49536458.886835 A373268.000000 373268.000000 0.0 0 0 58368674.942234 49880150.640106" />
<path d="M110744736 10125527
L111354170 10736256
" />
<path d="M122732984 9184608
L120173373 9139930
" />
<path d="M111402311 5686327
L110711071 6324361
" />
<path d="M115045382 12991020
L120194597 13080900
" />
<path d="M122681848 12114161
L122732984 9184608
" />
<path d="M120173373 9139930
L120194665 7920115
" />
<path d="M120194597 13080900
L120212224 12071054
" />
<path d="M120194665 7920115
L115725346 7842103
" />
<path d="M108241402 9721777
L108293584 6732232
" />
<path d="M115349666 6445334
L114631819 5742699
" />
<path d="M108241402 9721777
L110751019 9765582
" />
<path d="M110711071 6324361
L110703217 6774292
" />
<path d="M120212224 12071054
L122681848 12114161
" />
<path d="M110751019 9765582
L110744736 10125527
" />
<path d="M115058645 12231136
L115045382 12991020
" />
<path d="M110703217 6774292
L108293584 6732232
" />
<path d="M114631819 5742699
L111402311 5686327
" />
<path d="M115332039 7455180
L115349666 6445334
" />
<path d="M111354170 10736256
L113618685 10771007
" />
<path d="M115058644.911815 12231135.997385 A1418269.000000 1418269.000000 0.0 0 0 113618684.992872 10771006.546998" />
<path d="M115332039.463791 7455180.017665 A373269.000000 373269.000000 0.0 0 0 115725346.008369 7842103.153604" />
<path d="M52172385 35736372
L52842319 36280052
" />
<path d="M63996606 33547494
L61446348 33770613
" />
<path d="M52362334 31252755
L51741573 31959548
" />
<path d="M56748996 38136628
L61879399 37687776
" />
<path d="M64251972 36466344
L63996606 33547494
" />
<path d="M61446348 33770613
L61340018 32555255
" />
<path d="M61879399 37687776
L61791371 36681619
" />
<path d="M61340018 32555255
L56887027 32944841
" />
<path d="M49640560 35596503
L49379964 32617881
" />
<path d="M56367403 31594993
L55580043 30971242
" />
<path d="M49640560 35596503
L52141009 35377742
" />
<path d="M51741573 31959548
L51780793 32407835
" />
<path d="M61791371 36681619
L64251972 36466344
" />
<path d="M52141009 35377742
L52172385 35736372
" />
<path d="M56682758 37379520
L56748996 38136628
" />
<path d="M51780793 32407835
L49379964 32617881
" />
<path d="M55580043 30971242
L52362334 31252755
" />
<path d="M56455430 32601149
L56367403 31594993
" />
<path d="M52842319 36280052
L55098060 36077906
" />
<path d="M56682756.836054 37379520.087550 A1418269.000000 1418269.000000 0.0 0 0 55098060.056368 36077906.465700" />
<path d="M56455431.695456 32601148.886835 A373268.000000 373268.000000 0.0 0 0 56887026.942234 32944840.640106" />
<path d="M128926314 32406988
L129524997 33028260
" />
<path d="M140929157 31675435
L138370716 31586092
" />
<path d="M129661264 27979940
L128958993 28605813
" />
<path d="M133176295 35347101
L138323157 35526833
" />
<path d="M140826901 34603650
L140929157 31675435
" />
<path d="M138370716 31586092
L138413294 30366836
" />
<path d="M138323157 35526833
L138358406 34517449
" />
<path d="M138413294 30366836
L133946017 30210835
" />
<path d="M126430407 31959609
L126534756 28971431
" />
<path d="M133594771 28807722
L132889296 28092666
" />
<path d="M126430407 31959609
L128938878 32047207
" />
<path d="M128958993 28605813
L128943288 29055538
" />
<path d="M138358406 34517449
L140826901 34603650
" />
<path d="M128938878 32047207
L128926314 32406988
" />
<path d="M133202818 34587564
L133176295 35347101
" />
<path d="M128943288 29055538
L126534756 28971431
" />
<path d="M132889296 28092666
L129661264 27979940
" />
<path d="M133559522 29817107
L133594771 28807722
" />
<path d="M129524997 33028260
L131788560 33102526
" />
<path d="M133202817.366167 34587563.970127 A1418269.000000 1418269.000000 0.0 0 0 131788559.999833 33102526.097178" />
<path d="M133559522.188676 29817107.010486 A373269.000000 373269.000000 0.0 0 0 133946016.991807 30210834.778547" />
<path d="M129519605 15417344
L130118288 16038616
" />
<path d="M141522448 14685791
L138964007 14596448
" />
<path d="M130254555 10990296
L129552284 11616169
" />
<path d="M133769586 18357457
L138916448 18537189
" />
<path d="M141420192 17614006
L141522448 14685791
" />
<path d="M138964007 14596448
L139006585 13377192
" />
<path d="M138916448 18537189
L138951697 17527805
" />
<path d="M139006585 13377192
L134539308 13221191
" />
<path d="M127023698 14969965
L127128047 11981787
" />
<path d="M134188062 11818078
L133482587 11103022
" />
<path d="M127023698 14969965
L129532169 15057563
" />
<path d="M129552284 11616169
L129536579 12065894
" />
<path d="M138951697 17527805
L141420192 17614006
" />
<path d="M129532169 15057563
L129519605 15417344
" />
<path d="M133796109 17597920
L133769586 18357457
" />
<path d="M129536579 12065894
L127128047 11981787
" />
<path d="M133482587 11103022
L130254555 10990296
" />
<path d="M134152813 12827463
L134188062 11818078
" />
<path d="M130118288 16038616
L132381851 16112882
" />
<path d="M133796108.366167 17597919.970127 A1418269.000000 1418269.000000 0.0 0 0 132381850.999833 16112882.097178" />
<path d="M134152813.188676 12827463.010486 A373269.000000 373269.000000 0.0 0 0 134539307.991807 13221190.778547" />
<path d="M110151354 44120348
L110760788 44731077
" />
<path d="M122139602 43179429
L119579991 43134751
" />
<path d="M110808929 39681148
L110117689 40319182
" />
<path d="M114452000 46985841
L119601215 47075721
" />
<path d="M122088466 46108982
L122139602 43179429
" />
<path d="M119579991 43134751
L119601283 41914936
" />
<path d="M119601215 47075721
L119618842 46065875
" />
<path d="M119601283 41914936
L115131964 41836924
" />
<path d="M107648020 43716598
L107700202 40727053
" />
<path d="M114756284 40440155
L114038437 39737520
" />
<path d="M107648020 43716598
L110157637 43760403
" />
<path d="M110117689 40319182
L110109835 40769113
" />
<path d="M119618842 46065875
L122088466 46108982
" />
<path d="M110157637 43760403
L110151354 44120348
" />
<path d="M114465263 46225957
L114452000 46985841
" />
<path d="M110109835 40769113
L107700202 40727053
" />
<path d="M114038437 39737520
L110808929 39681148
" />
<path d="M114738657 41450001
L114756284 40440155
" />
<path d="M110760788 44731077
L113025303 44765828
" />
<path d="M114465262.911815 46225956.997385 A1418269.000000 1418269.000000 0.0 0 0 113025302.992872 44765827.546998" />
<path d="M114738657.463791 41450001.017665 A373269.000000 373269.000000 0.0 0 0 115131964.008369 41836924.153604" />
<path d="M71061226 26339256
L71711778 26905985
" />
<path d="M82954636 24564370
L80398144 24698351
" />
<path d="M71407537 21865000
L70762487 22549697
" />
<path d="M75551282 28897771
L80694224 28628241
" />
<path d="M83107980 27490355
L82954636 24564370
" />
<path d="M80398144 24698351
L80334294 23480023
" />
<path d="M80694224 28628241
L80641365 27619625
" />
<path d="M80334294 23480023
L75870420 23713964
" />
<path d="M68535825 26111112
L68379341 23125210
" />
<path d="M75398221 22346804
L74633110 21695954
" />
<path d="M68535825 26111112
L71042386 25979749
" />
<path d="M70762487 22549697
L70786038 22999081
" />
<path d="M80641365 27619625
L83107980 27490355
" />
<path d="M71042386 25979749
L71061226 26339256
" />
<path d="M75511507 28138812
L75551282 28897771
" />
<path d="M70786038 22999081
L68379341 23125210
" />
<path d="M74633110 21695954
L71407537 21865000
" />
<path d="M75451081 23355419
L75398221 22346804
" />
<path d="M71711778 26905985
L73973201 26782687
" />
<path d="M75511506.855887 28138812.005792 A1418269.000000 1418269.000000 0.0 0 0 73973200.958345 26782686.514260" />
<path d="M75451082.018128 23355418.967673 A373268.000000 373268.000000 0.0 0 0 75870419.950926 23713963.607062" />
<path d="M70171514 9362553
L70822066 9929282
" />
<path d="M82064924 7587667
L79508432 7721648
" />
<path d="M70517825 4888297
L69872775 5572994
" />
<path d="M74661570 11921068
L79804512 11651538
" />
<path d="M82218268 10513652
L82064924 7587667
" />
<path d="M79508432 7721648
L79444582 6503320
" />
<path d="M79804512 11651538
L79751653 10642922
" />
<path d="M79444582 6503320
L74980708 6737261
" />
<path d="M67646113 9134409
L67489629 6148507
" />
<path d="M74508509 5370101
L73743398 4719251
" />
<path d="M67646113 9134409
L70152674 9003046
" />
<path d="M69872775 5572994
L69896326 6022378
" />
<path d="M79751653 10642922
L82218268 10513652
" />
<path d="M70152674 9003046
L70171514 9362553
" />
<path d="M74621795 11162109
L74661570 11921068
" />
<path d="M69896326 6022378
L67489629 6148507
" />
<path d="M73743398 4719251
L70517825 4888297
" />
<path d="M74561369 6378716
L74508509 5370101
" />
<path d="M70822066 9929282
L73083489 9805984
" />
<path d="M74621794.855887 11162109.005792 A1418269.000000 1418269.000000 0.0 0 0 73083488.958345 9805983.514260" />
<path d="M74561370.018128 6378715.967673 A373268.000000 373268.000000 0.0 0 0 74980707.950926 6737260.607062" />
<path d="M91880341 41158692
L92500341 41758692
" />
<path d="M103850341 40008692
L101290341 40008692
" />
<path d="M92460341 36708692
L91780341 37358692
" />
<path d="M96230341 43948692
L101380341 43948692
" />
<path d="M103850341 42938692
L103850341 40008692
" />
<path d="M101290341 40008692
L101290341 38788692
" />
<path d="M101380341 43948692
L101380341 42938692
" />
<path d="M101290341 38788692
L96820341 38788692
" />
<path d="M89370341 40798692
L89370341 37808692
" />
<path d="M96420341 37398692
L95690341 36708692
" />
<path d="M89370341 40798692
L91880341 40798692
" />
<path d="M91780341 37358692
L91780341 37808692
" />
<path d="M101380341 42938692
L103850341 42938692
" />
<path d="M91880341 40798692
L91880341 41158692
" />
<path d="M96230341 43188692
L96230341 43948692
" />
<path d="M91780341 37808692
L89370341 37808692
" />
<path d="M95690341 36708692
L92460341 36708692
" />
<path d="M96420341 38408692
L96420341 37398692
" />
<path d="M92500341 41758692
L94765117 41753916
" />
<path d="M96230340.630042 43188691.995490 A1418269.000000 1418269.000000 0.0 0 0 94765116.999034 41753915.970890" />
<path d="M96420341.325117 38408692.006704 A373269.000000 373269.000000 0.0 0 0 96820340.995886 38788691.942865" />
<path d="M120747337 68115424
L121241461 68822702
" />
<path d="M132716845 69270536
L130203880 68782065
" />
<path d="M122165781 63857852
L121374249 64366160
" />
<path d="M124485059 71684183
L129540439 72666849
" />
<path d="M132157775 72146704
L132716845 69270536
" />
<path d="M130203880 68782065
L130436666 67584480
" />
<path d="M129540439 72666849
L129733156 71675406
" />
<path d="M130436666 67584480
L126048793 66731564
" />
<path d="M118352144 67283107
L118922663 64348042
" />
<path d="M125921367 65290778
L125336437 64474165
" />
<path d="M118352144 67283107
L120816029 67762038
" />
<path d="M121374249 64366160
L121288385 64807892
" />
<path d="M129733156 71675406
L132157775 72146704
" />
<path d="M120816029 67762038
L120747337 68115424
" />
<path d="M124630073 70938146
L124485059 71684183
" />
<path d="M121288385 64807892
L118922663 64348042
" />
<path d="M125336437 64474165
L122165781 63857852
" />
<path d="M125728650 66282222
L125921367 65290778
" />
<path d="M121241461 68822702
L123465538 69250153
" />
<path d="M124630073.203030 70938146.042040 A1418269.000000 1418269.000000 0.0 0 0 123465538.041784 69250152.739091" />
<path d="M125728650.228493 66282222.049324 A373269.000000 373269.000000 0.0 0 0 126048792.975497 66731564.203040" />
<path d="M128333022 49396632
L128931705 50017904
" />
<path d="M140335865 48665079
L137777424 48575736
" />
<path d="M129067972 44969584
L128365701 45595457
" />
<path d="M132583003 52336745
L137729865 52516477
" />
<path d="M140233609 51593294
L140335865 48665079
" />
<path d="M137777424 48575736
L137820002 47356480
" />
<path d="M137729865 52516477
L137765114 51507093
" />
<path d="M137820002 47356480
L133352725 47200479
" />
<path d="M125837115 48949253
L125941464 45961075
" />
<path d="M133001479 45797366
L132296004 45082310
" />
<path d="M125837115 48949253
L128345586 49036851
" />
<path d="M128365701 45595457
L128349996 46045182
" />
<path d="M137765114 51507093
L140233609 51593294
" />
<path d="M128345586 49036851
L128333022 49396632
" />
<path d="M132609526 51577208
L132583003 52336745
" />
<path d="M128349996 46045182
L125941464 45961075
" />
<path d="M132296004 45082310
L129067972 44969584
" />
<path d="M132966230 46806751
L133001479 45797366
" />
<path d="M128931705 50017904
L131195268 50092170
" />
<path d="M132609525.366167 51577207.970127 A1418269.000000 1418269.000000 0.0 0 0 131195267.999833 50092170.097178" />
<path d="M132966230.188676 46806751.010486 A373269.000000 373269.000000 0.0 0 0 133352724.991807 47200478.778547" />
<path d="M91880341 7158692
L92500341 7758692
" />
<path d="M103850341 6008692
L101290341 6008692
" />
<path d="M92460341 2708692
L91780341 3358692
" />
<path d="M96230341 9948692
L101380341 9948692
" />
<path d="M103850341 8938692
L103850341 6008692
" />
<path d="M101290341 6008692
L101290341 4788692
" />
<path d="M101380341 9948692
L101380341 8938692
" />
<path d="M101290341 4788692
L96820341 4788692
" />
<path d="M89370341 6798692
L89370341 3808692
" />
<path d="M96420341 3398692
L95690341 2708692
" />
<path d="M89370341 6798692
L91880341 6798692
" />
<path d="M91780341 3358692
L91780341 3808692
" />
<path d="M101380341 8938692
L103850341 8938692
" />
<path d="M91880341 6798692
L91880341 7158692
" />
<path d="M96230341 9188692
L96230341 9948692
" />
<path d="M91780341 3808692
L89370341 3808692
" />
<path d="M95690341 2708692
L92460341 2708692
" />
<path d="M96420341 4408692
L96420341 3398692
" />
<path d="M92500341 7758692
L94765117 7753916
" />
<path d="M96230340.630042 9188691.995490 A1418269.000000 1418269.000000 0.0 0 0 94765116.999034 7753915.970890" />
<path d="M96420341.325117 4408692.006704 A373269.000000 373269.000000 0.0 0 0 96820340.995886 4788691.942865" />
<g >
</g>
<g >
</g>
<g >
</g>
<g >
</g>
<g >
</g>
<g >
</g>
<g >
</g>
<g >
</g>
<g >
</g>
<g >
</g>
<g >
</g>
<g >
</g>
<g >
</g>
<g >
</g>
<g >
</g>
<g >
</g>
<g >
</g>
<g >
</g>
<g >
</g>
<g >
</g>
<g >
</g>
<g >
</g>
<g >
</g>
<g >
</g>
<g >
</g>
<g >
</g>
<g >
</g>
<g >
</g>
<g >
</g>
<g >
</g>
<g >
</g>
<g >
</g>
<g >
</g>
<g >
</g>
<g >
</g>
<g >
</g>
<g >
</g>
<g >
</g>
<g >
</g>
<g >
</g>
<g >
</g>
<g >
</g>
<g >
</g>
<g >
</g>
<g >
</g>
<g >
</g>
<g >
</g>
<g >
</g>
<g >
</g>
<g >
</g>
<g >
</g>
<g >
</g>
<g >
</g>
<g >
</g>
<g >
</g>
<g >
</g>
<g >
</g>
<g >
</g>
<g >
</g>
<g >
</g>
</g>
<g style="fill:#000000; fill-opacity:0.0; 
stroke:#000000; stroke-width:120000.000000; stroke-opacity:1; 
stroke-linecap:round; stroke-linejoin:round;">
</g>
<g style="fill:#000000; fill-opacity:0.0; 
stroke:#000000; stroke-width:150000.000000; stroke-opacity:1; 
stroke-linecap:round; stroke-linejoin:round;">
<path d="M142843886.868480 6235828.523508 A199999988.000000 199999988.000000 0.0 0 0 36216184.984480 8771533.948681" />
<path d="M32688112.506493 11637112.183737 A69999999.000000 69999999.000000 0.0 0 0 27676696.083917 67259339.972147" />
<path d="M142843887 6235828
L141112729 12478182
" />
<path d="M148608577.244653 89142252.197237 A70000000.000000 70000000.000000 0.0 0 0 155537344.410173 11637113.775824" />
<path d="M150055219 14958154
L151789330 8705154
" />
<path d="M155537319.755814 11637126.250238 A5999974.000000 5999974.000000 0.0 0 0 152009273.089965 8771533.702533" />
<path d="M36216183.922771 8771533.744640 A6000001.000000 6000001.000000 0.0 0 0 32688112.809249 11637113.895747" />
<path d="M142220214.949548 91125467.168900 A499999936.000000 499999936.000000 0.0 0 0 32964986.992001 71355473.117874" />
<path d="M141112729 12478182
L150055219 14958154
" />
<path d="M152009272.996165 8771534.012682 A204401178.000000 204401178.000000 0.0 0 0 151789328.997954 8705154.006792" />
<path d="M142220197.425798 91125522.486929 A6000020.000000 6000020.000000 0.0 0 0 148608575.945681 89142251.956210" />
<path d="M27676696.398816 67259340.867627 A6000001.000000 6000001.000000 0.0 0 0 32964987.033166 71355473.511267" />
<g >
</g>
<g >
</g>
<g >
</g>
<g >
</g>
<g >
</g>
<g >
</g>
<g >
</g>
<g >
</g>
<g >
</g>
<g >
</g>
<g >
</g>
<g >
</g>
<g >
</g>
<g >
</g>
<g >
</g>
<g >
</g>
<g >
</g>
<g >
</g>
<g >
</g>
<g >
</g>
<g >
</g>
<g >
</g>
<g >
</g>
<g >
</g>
<g >
</g>
<g >
</g>
<g >
</g>
<g >
</g>
<g >
</g>
<g >
</g>
<g >
</g>
<g >
</g>
<g >
</g>
<g >
</g>
<g >
</g>
<g >
</g>
<g >
</g>
<g >
</g>
<g >
</g>
<g >
</g>
<g >
</g>
<g >
</g>
<g >
</g>
<g >
</g>
<g >
</g>
<g >
</g>
<g >
</g>
<g >
</g>
<g >
</g>
<g >
</g>
<g >
</g>
<g >
</g>
<g >
</g>
<g >
</g>
<g >
</g>
<g >
</g>
<g >
</g>
<g >
</g>
<g >
</g>
<g >
</g>
</g> 
</svg>
