<?xml version="1.0" encoding="UTF-8" standalone="no"?>
<svg
   version="1.1"
   width="14.218920cm"
   height="9.131300cm"
   viewBox="0 0 142189200 91313000"
   id="svg1976"
   sodipodi:docname="Wubbo-brd.svg"
   inkscape:version="1.1.2 (1:1.1+202202050950+0a00cf5339)"
   xmlns:inkscape="http://www.inkscape.org/namespaces/inkscape"
   xmlns:sodipodi="http://sodipodi.sourceforge.net/DTD/sodipodi-0.dtd"
   xmlns="http://www.w3.org/2000/svg"
   xmlns:svg="http://www.w3.org/2000/svg"
   xmlns:rdf="http://www.w3.org/1999/02/22-rdf-syntax-ns#"
   xmlns:cc="http://creativecommons.org/ns#"
   xmlns:dc="http://purl.org/dc/elements/1.1/">
  <defs
     id="defs1980" />
  <sodipodi:namedview
     id="namedview1978"
     pagecolor="#505050"
     bordercolor="#ffffff"
     borderopacity="1"
     inkscape:pageshadow="0"
     inkscape:pageopacity="0"
     inkscape:pagecheckerboard="1"
     inkscape:document-units="cm"
     showgrid="false"
     inkscape:zoom="3.8053026"
     inkscape:cx="404.82983"
     inkscape:cy="234.80393"
     inkscape:window-width="1727"
     inkscape:window-height="1402"
     inkscape:window-x="2791"
     inkscape:window-y="189"
     inkscape:window-maximized="1"
     inkscape:current-layer="svg1976" />
  <title
     id="title2">SVG Picture created as Wubbo-brd.svg date 2022/07/02 23:12:09 </title>
  <desc
     id="desc4">Picture generated by PCBNEW </desc>
  <path
     id="rect4482"
     style="fill:#999999;stroke:#000000;stroke-width:0.377953;stroke-miterlimit:4;stroke-dasharray:none"
     d="M 435.52344 250.79492 L 431.28125 259.49219 L 429.65039 258.69727 L 427.02344 259.60156 L 418.73828 276.58789 L 419.60938 279.11328 L 423.00586 280.77148 A 1.8706621 1.8706621 0 0 1 423.75 281.4082 A 1.8706621 1.8706621 0 0 1 424.06836 282.33594 A 1.8706621 1.8706621 0 0 1 423.875 283.29688 L 416.41992 298.58398 L 420.32617 300.49023 L 416.06055 309.23633 L 431.68555 316.85742 L 435.95312 308.11133 L 439.17969 309.68555 L 449.94922 287.60352 L 446.72266 286.03125 A 5.4578646 5.4578646 0 0 1 444.44727 282.78906 A 5.4578646 5.4578646 0 0 1 444.96094 278.86328 L 447.61133 273.42773 L 446.12891 268.71094 L 451.14844 258.41797 L 435.52344 250.79492 z "
     transform="scale(264583.33)" />
  <path
     id="path7913"
     style="fill:#999999;stroke:#000000;stroke-width:0.377953;stroke-miterlimit:4;stroke-dasharray:none"
     d="M 449.03125 23.064453 A 755.90548 755.90548 0 0 0 46.029297 32.648438 A 22.677169 22.677169 0 0 0 32.695312 43.478516 A 264.56693 264.56693 0 0 0 13.753906 253.70508 A 22.677169 22.677169 0 0 0 33.740234 269.1875 A 1889.7636 1889.7636 0 0 1 446.67383 343.9082 A 22.677241 22.677241 0 0 0 470.81836 336.41211 A 264.56693 264.56693 0 0 0 510.16602 269.43555 A 264.56693 264.56693 0 0 0 528.36719 193.91992 A 264.56693 264.56693 0 0 0 523.84961 116.37305 A 264.56693 264.56693 0 0 0 497.00586 43.478516 A 22.677067 22.677067 0 0 0 483.67188 32.648438 A 498.74627 498.74627 0 0 0 482.83984 32.398438 A 446.69076 446.69076 0 0 0 449.03125 23.064453 z M 435.52344 250.79492 L 451.14844 258.41797 L 446.12891 268.71094 L 447.61133 273.42773 L 444.96094 278.86328 A 5.4578646 5.4578646 0 0 0 444.44727 282.78906 A 5.4578646 5.4578646 0 0 0 446.72266 286.03125 L 449.94922 287.60352 L 439.17969 309.68555 L 435.95312 308.11133 L 431.68555 316.85742 L 416.06055 309.23633 L 420.32617 300.49023 L 416.41992 298.58398 L 423.875 283.29688 A 1.8706621 1.8706621 0 0 0 424.06836 282.33594 A 1.8706621 1.8706621 0 0 0 423.75 281.4082 A 1.8706621 1.8706621 0 0 0 423.00586 280.77148 L 419.60938 279.11328 L 418.73828 276.58789 L 427.02344 259.60156 L 429.65039 258.69727 L 431.28125 259.49219 L 435.52344 250.79492 z "
     transform="scale(264583.33)" />
  <path
     d="M 122631630,28981818 H 118781630"
     id="path10"
     style="fill:none;fill-opacity:0;stroke:#000000;stroke-width:99999.99992814;stroke-linecap:round;stroke-linejoin:round;stroke-opacity:1;stroke-miterlimit:4;stroke-dasharray:none" />
  <path
     d="M 118781630,28981818 V 25591818"
     id="path12"
     style="fill:none;fill-opacity:0;stroke:#000000;stroke-width:99999.99992814;stroke-linecap:round;stroke-linejoin:round;stroke-opacity:1;stroke-miterlimit:4;stroke-dasharray:none" />
  <path
     d="M 118781630,25591818 H 122631630"
     id="path14"
     style="fill:none;fill-opacity:0;stroke:#000000;stroke-width:99999.99992814;stroke-linecap:round;stroke-linejoin:round;stroke-opacity:1;stroke-miterlimit:4;stroke-dasharray:none" />
  <path
     d="M 122631630,25591818 V 28981818"
     id="path16"
     style="fill:none;fill-opacity:0;stroke:#000000;stroke-width:99999.99992814;stroke-linecap:round;stroke-linejoin:round;stroke-opacity:1;stroke-miterlimit:4;stroke-dasharray:none" />
  <path
     style="fill:none;fill-opacity:1;fill-rule:evenodd;stroke:#000000;stroke-width:99999.99992814;stroke-linecap:round;stroke-linejoin:round;stroke-opacity:1;stroke-miterlimit:4;stroke-dasharray:none"
     d="M 122631630,28981818 H 118781630 V 25591818 H 122631630"
     id="path20" />
  <path
     style="fill:none;fill-opacity:1;fill-rule:evenodd;stroke:#000000;stroke-width:99999.99992814;stroke-linecap:round;stroke-linejoin:round;stroke-opacity:1;stroke-miterlimit:4;stroke-dasharray:none"
     d="M 116598130,7846769 115582340,12134902 111639530,11031777 112694980,6869852 Z"
     id="path24" />
  <path
     d="M 131041630,29046818 H 136321630"
     id="path28"
     style="fill:none;fill-opacity:0;stroke:#000000;stroke-width:99999.99992814;stroke-linecap:round;stroke-linejoin:round;stroke-opacity:1;stroke-miterlimit:4;stroke-dasharray:none" />
  <path
     d="M 136321630,29046818 V 33666818"
     id="path30"
     style="fill:none;fill-opacity:0;stroke:#000000;stroke-width:99999.99992814;stroke-linecap:round;stroke-linejoin:round;stroke-opacity:1;stroke-miterlimit:4;stroke-dasharray:none" />
  <path
     d="M 136321630,33666818 H 131041630"
     id="path32"
     style="fill:none;fill-opacity:0;stroke:#000000;stroke-width:99999.99992814;stroke-linecap:round;stroke-linejoin:round;stroke-opacity:1;stroke-miterlimit:4;stroke-dasharray:none" />
  <path
     d="M 131041630,33666818 V 29046818"
     id="path34"
     style="fill:none;fill-opacity:0;stroke:#000000;stroke-width:99999.99992814;stroke-linecap:round;stroke-linejoin:round;stroke-opacity:1;stroke-miterlimit:4;stroke-dasharray:none" />
  <path
     style="fill:none;fill-opacity:1;fill-rule:evenodd;stroke:#000000;stroke-width:99999.99992814;stroke-linecap:round;stroke-linejoin:round;stroke-opacity:1;stroke-miterlimit:4;stroke-dasharray:none"
     d="M 131041630,29046818 H 136321630 V 33666818 H 131041630"
     id="path38" />
  <path
     d="M 118606630,19596818 H 120216630"
     id="path44"
     style="fill:none;fill-opacity:0;stroke:#000000;stroke-width:99999.99992814;stroke-linecap:round;stroke-linejoin:round;stroke-opacity:1;stroke-miterlimit:4;stroke-dasharray:none" />
  <path
     d="M 120216630,19596818 V 16436818"
     id="path46"
     style="fill:none;fill-opacity:0;stroke:#000000;stroke-width:99999.99992814;stroke-linecap:round;stroke-linejoin:round;stroke-opacity:1;stroke-miterlimit:4;stroke-dasharray:none" />
  <path
     d="M 120216630,16436818 H 118606630"
     id="path48"
     style="fill:none;fill-opacity:0;stroke:#000000;stroke-width:99999.99992814;stroke-linecap:round;stroke-linejoin:round;stroke-opacity:1;stroke-miterlimit:4;stroke-dasharray:none" />
  <path
     d="M 118606630,16436818 V 19596818"
     id="path50"
     style="fill:none;fill-opacity:0;stroke:#000000;stroke-width:99999.99992814;stroke-linecap:round;stroke-linejoin:round;stroke-opacity:1;stroke-miterlimit:4;stroke-dasharray:none" />
  <path
     style="fill:none;fill-opacity:1;fill-rule:evenodd;stroke:#000000;stroke-width:99999.99992814;stroke-linecap:round;stroke-linejoin:round;stroke-opacity:1;stroke-miterlimit:4;stroke-dasharray:none"
     d="M 118606630,19596818 H 120216630 V 16436818 H 118606630"
     id="path54" />
  <path
     d="M 137221630,24281818 133721630,15531818"
     id="path60"
     style="fill:none;fill-opacity:0;stroke:#000000;stroke-width:99999.99992814;stroke-linecap:round;stroke-linejoin:round;stroke-opacity:1;stroke-miterlimit:4;stroke-dasharray:none" />
  <path
     d="M 142161630,54081818 H 119851630"
     id="path62"
     style="fill:none;fill-opacity:0;stroke:#000000;stroke-width:99999.99992814;stroke-linecap:round;stroke-linejoin:round;stroke-opacity:1;stroke-miterlimit:4;stroke-dasharray:none" />
  <path
     d="M 119851630,54081818 V 37731818"
     id="path64"
     style="fill:none;fill-opacity:0;stroke:#000000;stroke-width:99999.99992814;stroke-linecap:round;stroke-linejoin:round;stroke-opacity:1;stroke-miterlimit:4;stroke-dasharray:none" />
  <path
     d="M 119851630,37731818 H 142161630"
     id="path66"
     style="fill:none;fill-opacity:0;stroke:#000000;stroke-width:99999.99992814;stroke-linecap:round;stroke-linejoin:round;stroke-opacity:1;stroke-miterlimit:4;stroke-dasharray:none" />
  <path
     d="M 142161630,37731818 V 54081818"
     id="path68"
     style="fill:none;fill-opacity:0;stroke:#000000;stroke-width:99999.99992814;stroke-linecap:round;stroke-linejoin:round;stroke-opacity:1;stroke-miterlimit:4;stroke-dasharray:none" />
  <path
     style="fill:none;fill-opacity:1;fill-rule:evenodd;stroke:#000000;stroke-width:99999.99992814;stroke-linecap:round;stroke-linejoin:round;stroke-opacity:1;stroke-miterlimit:4;stroke-dasharray:none"
     d="M 142161630,54081818 H 119851630 V 37731818 H 142161630"
     id="path72" />
  <path
     d="M 128941630,17381818 132321630,26091818"
     id="path78"
     style="fill:none;fill-opacity:0;stroke:#000000;stroke-width:99999.99992814;stroke-linecap:round;stroke-linejoin:round;stroke-opacity:1;stroke-miterlimit:4;stroke-dasharray:none" />
  <path
     d="M 131131630,54066818 H 118451630"
     id="path80"
     style="fill:none;fill-opacity:0;stroke:#000000;stroke-width:99999.99992814;stroke-linecap:round;stroke-linejoin:round;stroke-opacity:1;stroke-miterlimit:4;stroke-dasharray:none" />
  <path
     d="M 118451630,54066818 V 29046818"
     id="path82"
     style="fill:none;fill-opacity:0;stroke:#000000;stroke-width:99999.99992814;stroke-linecap:round;stroke-linejoin:round;stroke-opacity:1;stroke-miterlimit:4;stroke-dasharray:none" />
  <path
     d="M 118451630,29046818 H 131131630"
     id="path84"
     style="fill:none;fill-opacity:0;stroke:#000000;stroke-width:99999.99992814;stroke-linecap:round;stroke-linejoin:round;stroke-opacity:1;stroke-miterlimit:4;stroke-dasharray:none" />
  <path
     d="M 131131630,29046818 V 54066818"
     id="path86"
     style="fill:none;fill-opacity:0;stroke:#000000;stroke-width:99999.99992814;stroke-linecap:round;stroke-linejoin:round;stroke-opacity:1;stroke-miterlimit:4;stroke-dasharray:none" />
  <path
     style="fill:none;fill-opacity:1;fill-rule:evenodd;stroke:#000000;stroke-width:99999.99992814;stroke-linecap:round;stroke-linejoin:round;stroke-opacity:1;stroke-miterlimit:4;stroke-dasharray:none"
     d="M 131131630,54066818 H 118451630 V 29046818 H 131131630"
     id="path90" />
  <path
     d="M 133721630,15531818 128941630,17381818"
     id="path96"
     style="fill:none;fill-opacity:0;stroke:#000000;stroke-width:99999.99992814;stroke-linecap:round;stroke-linejoin:round;stroke-opacity:1;stroke-miterlimit:4;stroke-dasharray:none" />
  <path
     d="M 116961630,48901818 H 119051630"
     id="path98"
     style="fill:none;fill-opacity:0;stroke:#000000;stroke-width:99999.99992814;stroke-linecap:round;stroke-linejoin:round;stroke-opacity:1;stroke-miterlimit:4;stroke-dasharray:none" />
  <path
     d="M 119051630,48901818 V 52511818"
     id="path100"
     style="fill:none;fill-opacity:0;stroke:#000000;stroke-width:99999.99992814;stroke-linecap:round;stroke-linejoin:round;stroke-opacity:1;stroke-miterlimit:4;stroke-dasharray:none" />
  <path
     d="M 119051630,52511818 H 116961630"
     id="path102"
     style="fill:none;fill-opacity:0;stroke:#000000;stroke-width:99999.99992814;stroke-linecap:round;stroke-linejoin:round;stroke-opacity:1;stroke-miterlimit:4;stroke-dasharray:none" />
  <path
     d="M 116961630,52511818 V 48901818"
     id="path104"
     style="fill:none;fill-opacity:0;stroke:#000000;stroke-width:99999.99992814;stroke-linecap:round;stroke-linejoin:round;stroke-opacity:1;stroke-miterlimit:4;stroke-dasharray:none" />
  <path
     style="fill:none;fill-opacity:1;fill-rule:evenodd;stroke:#000000;stroke-width:99999.99992814;stroke-linecap:round;stroke-linejoin:round;stroke-opacity:1;stroke-miterlimit:4;stroke-dasharray:none"
     d="M 116961630,48901818 H 119051630 V 52511818 H 116961630"
     id="path108" />
  <path
     style="fill:none;fill-opacity:1;fill-rule:evenodd;stroke:#000000;stroke-width:99999.99992814;stroke-linecap:round;stroke-linejoin:round;stroke-opacity:1;stroke-miterlimit:4;stroke-dasharray:none"
     d="M 129511630,8761818 127391630,16531818 115011630,13231818 117031630,5356818 Z"
     id="path112" />
  <path
     d="M 121331630,19611818 H 122941630"
     id="path116"
     style="fill:none;fill-opacity:0;stroke:#000000;stroke-width:99999.99992814;stroke-linecap:round;stroke-linejoin:round;stroke-opacity:1;stroke-miterlimit:4;stroke-dasharray:none" />
  <path
     d="M 122941630,19611818 V 16451818"
     id="path118"
     style="fill:none;fill-opacity:0;stroke:#000000;stroke-width:99999.99992814;stroke-linecap:round;stroke-linejoin:round;stroke-opacity:1;stroke-miterlimit:4;stroke-dasharray:none" />
  <path
     d="M 122941630,16451818 H 121331630"
     id="path120"
     style="fill:none;fill-opacity:0;stroke:#000000;stroke-width:99999.99992814;stroke-linecap:round;stroke-linejoin:round;stroke-opacity:1;stroke-miterlimit:4;stroke-dasharray:none" />
  <path
     d="M 121331630,16451818 V 19611818"
     id="path122"
     style="fill:none;fill-opacity:0;stroke:#000000;stroke-width:99999.99992814;stroke-linecap:round;stroke-linejoin:round;stroke-opacity:1;stroke-miterlimit:4;stroke-dasharray:none" />
  <path
     style="fill:none;fill-opacity:1;fill-rule:evenodd;stroke:#000000;stroke-width:99999.99992814;stroke-linecap:round;stroke-linejoin:round;stroke-opacity:1;stroke-miterlimit:4;stroke-dasharray:none"
     d="M 121331630,19611818 H 122941630 V 16451818 H 121331630"
     id="path126" />
  <path
     d="M 119491630,24631818 H 121891630"
     id="path132"
     style="fill:none;fill-opacity:0;stroke:#000000;stroke-width:99999.99992814;stroke-linecap:round;stroke-linejoin:round;stroke-opacity:1;stroke-miterlimit:4;stroke-dasharray:none" />
  <path
     d="M 121891630,24631818 V 21471818"
     id="path134"
     style="fill:none;fill-opacity:0;stroke:#000000;stroke-width:99999.99992814;stroke-linecap:round;stroke-linejoin:round;stroke-opacity:1;stroke-miterlimit:4;stroke-dasharray:none" />
  <path
     d="M 121891630,21471818 H 119491630"
     id="path136"
     style="fill:none;fill-opacity:0;stroke:#000000;stroke-width:99999.99992814;stroke-linecap:round;stroke-linejoin:round;stroke-opacity:1;stroke-miterlimit:4;stroke-dasharray:none" />
  <path
     d="M 119491630,21471818 V 24631818"
     id="path138"
     style="fill:none;fill-opacity:0;stroke:#000000;stroke-width:99999.99992814;stroke-linecap:round;stroke-linejoin:round;stroke-opacity:1;stroke-miterlimit:4;stroke-dasharray:none" />
  <path
     style="fill:none;fill-opacity:1;fill-rule:evenodd;stroke:#000000;stroke-width:99999.99992814;stroke-linecap:round;stroke-linejoin:round;stroke-opacity:1;stroke-miterlimit:4;stroke-dasharray:none"
     d="M 119491630,24631818 H 121891630 V 21471818 H 119491630"
     id="path142" />
  <path
     d="M 123581630,29021818 H 125051630"
     id="path148"
     style="fill:none;fill-opacity:0;stroke:#000000;stroke-width:99999.99992814;stroke-linecap:round;stroke-linejoin:round;stroke-opacity:1;stroke-miterlimit:4;stroke-dasharray:none" />
  <path
     d="M 125051630,29021818 V 25931818"
     id="path150"
     style="fill:none;fill-opacity:0;stroke:#000000;stroke-width:99999.99992814;stroke-linecap:round;stroke-linejoin:round;stroke-opacity:1;stroke-miterlimit:4;stroke-dasharray:none" />
  <path
     d="M 125051630,25931818 H 123581630"
     id="path152"
     style="fill:none;fill-opacity:0;stroke:#000000;stroke-width:99999.99992814;stroke-linecap:round;stroke-linejoin:round;stroke-opacity:1;stroke-miterlimit:4;stroke-dasharray:none" />
  <path
     d="M 123581630,25931818 V 29021818"
     id="path154"
     style="fill:none;fill-opacity:0;stroke:#000000;stroke-width:99999.99992814;stroke-linecap:round;stroke-linejoin:round;stroke-opacity:1;stroke-miterlimit:4;stroke-dasharray:none" />
  <path
     style="fill:none;fill-opacity:1;fill-rule:evenodd;stroke:#000000;stroke-width:99999.99992814;stroke-linecap:round;stroke-linejoin:round;stroke-opacity:1;stroke-miterlimit:4;stroke-dasharray:none"
     d="M 123581630,29021818 H 125051630 V 25931818 H 123581630"
     id="path158" />
  <path
     d="M 132321630,26091818 137221630,24281818"
     id="path164"
     style="fill:none;fill-opacity:0;stroke:#000000;stroke-width:99999.99992814;stroke-linecap:round;stroke-linejoin:round;stroke-opacity:1;stroke-miterlimit:4;stroke-dasharray:none" />
  <path
     id="path224"
     style="fill:none;fill-opacity:0;stroke:#000000;stroke-width:99999.99992814;stroke-linecap:round;stroke-linejoin:round;stroke-opacity:1;stroke-miterlimit:4;stroke-dasharray:none"
     d="M 50213165,44413583 A 1444060,1444060 0 0 0 48780641,45740373 M 46482450,40102926 A 494946,494946 0 0 0 46955597,39577442 M 42048803,41486861 41988617,40338437 M 46903261,38578813 47376407,38053330 M 39718078,46215322 39477332,41621626 M 46955597,39577442 46903261,38578813 M 39477332,41621626 42048803,41486861 M 55738415,43222781 55497670,38629085 M 42339268,47029255 42289549,46080557 M 52712568,43381359 51810972,44329845 M 47376407,38053330 52369555,37791650 M 55738415,43222781 52712568,43381359 M 41988617,40338437 46482450,40102925 M 42289549,46080557 39718078,46215322 M 51810972,44329845 50213165,44413582 M 52369555,37791650 52916057,38283723 M 48830360,46689071 42339268,47029255 M 48830360,46689071 48780641,45740373 M 52916057,38283723 52941178,38763065 M 52941178,38763065 55497670,38629085" />
  <path
     id="path228"
     style="fill:none;fill-opacity:0;stroke:#000000;stroke-width:99999.99992814;stroke-linecap:round;stroke-linejoin:round;stroke-opacity:1;stroke-miterlimit:4;stroke-dasharray:none"
     d="M 56247701,51507480 A 900000,900000 0 0 0 56153496,49709948 M 54845292,49778507 A 900001,900001 0 0 0 54939496,51576041 M 56153496,49709948 54845292,49778508 M 56247701,51507481 54939496,51576041" />
  <path
     id="path284"
     style="fill:none;fill-opacity:0;stroke:#000000;stroke-width:99999.99992814;stroke-linecap:round;stroke-linejoin:round;stroke-opacity:1;stroke-miterlimit:4;stroke-dasharray:none"
     d="M 75730001,32775000 A 900000,900000 0 0 0 75730001,30975000 M 74420001,30975000 A 900000,900000 0 0 0 74420001,32775000 M 75730001,30975000 H 74420001 M 75730001,32775000 H 74420001" />
  <path
     id="path344"
     style="fill:none;fill-opacity:0;stroke:#000000;stroke-width:99999.99992814;stroke-linecap:round;stroke-linejoin:round;stroke-opacity:1;stroke-miterlimit:4;stroke-dasharray:none"
     d="M 126859360,71943983 A 900000.31,900000.31 0 0 0 125241530,71154915 M 124667260,72332335 A 900001,900001 0 0 0 126285090,73121403 M 125241530,71154915 124667260,72332335 M 126859360,71943983 126285090,73121403" />
  <path
     id="path402"
     style="fill:none;fill-opacity:0;stroke:#000000;stroke-width:99999.99992814;stroke-linecap:round;stroke-linejoin:round;stroke-opacity:1;stroke-miterlimit:4;stroke-dasharray:none"
     d="M 92865418,34052979 A 900000,900000 0 0 0 92834004,35852704 M 94143804,35875566 A 900000,900000 0 0 0 94175219,34075841 M 94143804,35875567 92834004,35852704 M 94175219,34075841 92865418,34052978" />
  <path
     id="path458"
     style="fill:none;fill-opacity:0;stroke:#000000;stroke-width:99999.99992814;stroke-linecap:round;stroke-linejoin:round;stroke-opacity:1;stroke-miterlimit:4;stroke-dasharray:none"
     d="M 8665778,34143951 A 494946,494946 0 0 0 9120297.8,33602276 M 12544660,38321782 A 1444061,1444061 0 0 0 11159313,39697759 M 4182902,34536152 8665778,34143951 M 4766846,41210657 4684048,40264272 M 4684048,40264272 2118846,40488698 M 18024987,36938878 15006517,37202960 M 2118846,40488698 1717930,35906202 M 15073812,32579501 17624070,32356382 M 14468635,31628627 15031977,32101328 M 14138572,38182333 12544660,38321782 M 9487661,32064406 14468635,31628627 M 9033142,32606081 9487661,32064406 M 9120298,33602276 9033142,32606081 M 15031977,32101328 15073812,32579501 M 1717930,35906202 4283131,35681776 M 18024987,36938878 17624070,32356382 M 11242111,40644144 11159313,39697759 M 15006517,37202960 14138572,38182333 M 11242111,40644144 4766846,41210657 M 4283131,35681776 4182902,34536152" />
  <path
     id="path464"
     style="fill:none;fill-opacity:0;stroke:#000000;stroke-width:99999.99992814;stroke-linecap:round;stroke-linejoin:round;stroke-opacity:1;stroke-miterlimit:4;stroke-dasharray:none"
     d="M 18823094,45200758 A 900001,900001 0 0 0 18666214,43407607 M 17361199,43521782 A 900000,900000 0 0 0 17518079,45314931 M 18823094,45200757 17518079,45314931 M 18666214,43407607 17361199,43521781" />
  <path
     id="path522"
     style="fill:none;fill-opacity:0;stroke:#000000;stroke-width:99999.99992814;stroke-linecap:round;stroke-linejoin:round;stroke-opacity:1;stroke-miterlimit:4;stroke-dasharray:none"
     d="M 36774352,58888289 A 900000,900000 0 0 0 36931232,60681438 M 38236247,60567265 A 900001,900001 0 0 0 38079367,58774114 M 38079367,58774114 36774352,58888288 M 38236247,60567264 36931232,60681438" />
  <path
     id="path526"
     style="fill:none;fill-opacity:0;stroke:#000000;stroke-width:99999.99992814;stroke-linecap:round;stroke-linejoin:round;stroke-opacity:1;stroke-miterlimit:4;stroke-dasharray:none"
     d="M 28078931,49510458 A 494946,494946 0 0 0 28533451,48968783 M 31957813,53688289 A 1444061,1444061 0 0 0 30572466,55064266 M 21131083,51272709 23696284,51048283 M 24179999,56577164 24097201,55630779 M 33551725,53548840 31957813,53688289 M 23596055,49902659 28078931,49510458 M 34419670,52569467 33551725,53548840 M 28900814,47430913 33881788,46995134 M 23696284,51048283 23596055,49902659 M 34486965,47946008 37037223,47722889 M 34445130,47467835 34486965,47946008 M 37438140,52305385 34419670,52569467 M 24097201,55630779 21531999,55855205 M 30655264,56010651 24179999,56577164 M 30655264,56010651 30572466,55064266 M 37438140,52305385 37037223,47722889 M 33881788,46995134 34445130,47467835 M 28533451,48968783 28446295,47972588 M 21531999,55855205 21131083,51272709 M 28446295,47972588 28900814,47430913" />
  <path
     id="path576"
     style="fill:none;fill-opacity:0;stroke:#000000;stroke-width:99999.99992814;stroke-linecap:round;stroke-linejoin:round;stroke-opacity:1;stroke-miterlimit:4;stroke-dasharray:none"
     d="M 94440495,18878156 A 900000,900000 0 0 0 94471910,17078431 M 93162109,17055569 A 900000,900000 0 0 0 93130695,18855294 M 94471910,17078431 93162109,17055568 M 94440495,18878157 93130695,18855294" />
  <path
     id="path582"
     style="fill:none;fill-opacity:0;stroke:#000000;stroke-width:99999.99992814;stroke-linecap:round;stroke-linejoin:round;stroke-opacity:1;stroke-miterlimit:4;stroke-dasharray:none"
     d="M 85494573,6820191.9 A 494946,494946 0 0 0 86003223,6328995 M 88915504,11380590 A 1444061,1444061 0 0 0 87393917,12604221 M 86020676,5329147 86529326,4837949 M 80878328,13440636 80894907,12490781 M 91528564,4925211 92039410,5454207 M 87377338,13554077 80878328,13440636 M 80894907,12490781 78320300,12445841 M 86529326,4837949 91528564,4925211 M 87377338,13554077 87393917,12604221 M 78320300,12445841 78400581,7846541 M 94510362,10578112 91480823,10525231 M 80975188,7891481 80995259,6741656 M 90515261,11408514 88915504,11380590 M 86003223,6328995 86020676,5329147 M 91480823,10525231 90515261,11408514 M 78400581,7846541 80975188,7891481 M 80995259,6741656 85494573,6820192 M 92031033,5934134 94590643,5978812 M 92039410,5454207 92031033,5934134 M 94510362,10578112 94590643,5978812" />
  <path
     id="path640"
     style="fill:none;fill-opacity:0;stroke:#000000;stroke-width:99999.99992814;stroke-linecap:round;stroke-linejoin:round;stroke-opacity:1;stroke-miterlimit:4;stroke-dasharray:none"
     d="M 26597283,32575148 A 494946,494946 0 0 0 27051803,32033473 M 30476165,36752979 A 1444061,1444061 0 0 0 29090818,38128956 M 22214636,34112973 22114407,32967349 M 27419166,30495603 32400140,30059824 M 22615553,38695469 20050351,38919895 M 19649435,34337399 22214636,34112973 M 27051803,32033473 26964647,31037278 M 29173616,39075341 29090818,38128956 M 29173616,39075341 22698351,39641854 M 22114407,32967349 26597283,32575148 M 33005317,31010698 35555575,30787579 M 26964647,31037278 27419166,30495603 M 32963482,30532525 33005317,31010698 M 32400140,30059824 32963482,30532525 M 35956492,35370075 35555575,30787579 M 32938022,35634157 32070077,36613530 M 35956492,35370075 32938022,35634157 M 22698351,39641854 22615553,38695469 M 32070077,36613530 30476165,36752979 M 20050351,38919895 19649435,34337399" />
  <path
     id="path644"
     style="fill:none;fill-opacity:0;stroke:#000000;stroke-width:99999.99992814;stroke-linecap:round;stroke-linejoin:round;stroke-opacity:1;stroke-miterlimit:4;stroke-dasharray:none"
     d="M 35292704,41952979 A 900000,900000 0 0 0 35449584,43746128 M 36754599,43631955 A 900001,900001 0 0 0 36597719,41838804 M 36597719,41838804 35292704,41952978 M 36754599,43631954 35449584,43746128" />
  <path
     id="path700"
     style="fill:none;fill-opacity:0;stroke:#000000;stroke-width:99999.99992814;stroke-linecap:round;stroke-linejoin:round;stroke-opacity:1;stroke-miterlimit:4;stroke-dasharray:none"
     d="M 103731700,29080976 A 494946,494946 0 0 0 104248840,28598730 M 107072520,33700383 A 1444060,1444060 0 0 0 105529810,34897272 M 105496650,35846693 99000612,35619847 M 104800890,27117094 109797840,27291591 M 110282630,28309130 112841070,28398472 M 110299380,27829422 110282630,28309130 M 99033767,34670425 96460335,34580559 M 104283740,27599339 104800890,27117094 M 99234439,28923928 103731700,29080976 M 105496650,35846693 105529810,34897272 M 104248840,28598730 104283740,27599339 M 99194304,30073228 99234439,28923928 M 112680530,32995670 109652370,32889925 M 96460335,34580559 96620873,29983361 M 112680530,32995670 112841070,28398472 M 99000612,35619847 99033767,34670425 M 109797840,27291591 110299380,27829422 M 109652370,32889925 108671540,33756222 M 96620873,29983361 99194304,30073228 M 108671540,33756222 107072520,33700383" />
  <path
     id="path704"
     style="fill:none;fill-opacity:0;stroke:#000000;stroke-width:99999.99992814;stroke-linecap:round;stroke-linejoin:round;stroke-opacity:1;stroke-miterlimit:4;stroke-dasharray:none"
     d="M 111219430,39448610 A 900000,900000 0 0 0 111156620,41247513 M 112465820,41293231 A 900000,900000 0 0 0 112528640,39494328 M 112528640,39494328 111219430,39448610 M 112465820,41293232 111156620,41247513" />
  <path
     id="path760"
     style="fill:none;fill-opacity:0;stroke:#000000;stroke-width:99999.99992814;stroke-linecap:round;stroke-linejoin:round;stroke-opacity:1;stroke-miterlimit:4;stroke-dasharray:none"
     d="M 111812730,22458966 A 900000,900000 0 0 0 111749910,24257869 M 113059110,24303587 A 900000,900000 0 0 0 113121930,22504684 M 113121930,22504684 111812730,22458966 M 113059110,24303588 111749910,24257869" />
  <path
     id="path766"
     style="fill:none;fill-opacity:0;stroke:#000000;stroke-width:99999.99992814;stroke-linecap:round;stroke-linejoin:round;stroke-opacity:1;stroke-miterlimit:4;stroke-dasharray:none"
     d="M 104324990,12091332 A 494946,494946 0 0 0 104842130,11609086 M 107665810,16710739 A 1444060,1444060 0 0 0 106123100,17907628 M 106089940,18857049 106123100,17907628 M 99593903,18630203 99627058,17680781 M 97214164,12993717 99787595,13083584 M 110245670,15900281 109264830,16766578 M 113273820,16006026 113434360,11408828 M 110875920,11319486 113434360,11408828 M 104877030,10609695 105394180,10127450 M 110391130,10301947 110892670,10839778 M 113273820,16006026 110245670,15900281 M 99827730,11934284 104324990,12091332 M 106089940,18857049 99593903,18630203 M 97053626,17590915 97214164,12993717 M 104842130,11609086 104877030,10609695 M 110892670,10839778 110875920,11319486 M 99787595,13083584 99827730,11934284 M 105394180,10127450 110391130,10301947 M 109264830,16766578 107665810,16710739 M 99627058,17680781 97053626,17590915" />
  <path
     id="path822"
     style="fill:none;fill-opacity:0;stroke:#000000;stroke-width:99999.99992814;stroke-linecap:round;stroke-linejoin:round;stroke-opacity:1;stroke-miterlimit:4;stroke-dasharray:none"
     d="M 93847113,52872977 A 900000,900000 0 0 0 93878528,51073252 M 92568727,51050390 A 900000,900000 0 0 0 92537313,52850115 M 93878528,51073252 92568727,51050389 M 93847113,52872978 92537313,52850115" />
  <path
     id="path826"
     style="fill:none;fill-opacity:0;stroke:#000000;stroke-width:99999.99992814;stroke-linecap:round;stroke-linejoin:round;stroke-opacity:1;stroke-miterlimit:4;stroke-dasharray:none"
     d="M 84901191,40815013 A 494946,494946 0 0 0 85409841,40323816 M 88322122,45375411 A 1444061,1444061 0 0 0 86800535,46599042 M 93916980,44572933 90887441,44520052 M 89921879,45403335 88322122,45375411 M 90887441,44520052 89921879,45403335 M 85935944,38832770 90935182,38920032 M 90935182,38920032 91446028,39449028 M 86783956,47548898 80284946,47435457 M 91437651,39928955 93997261,39973633 M 86783956,47548898 86800535,46599042 M 85409841,40323816 85427294,39323968 M 85427294,39323968 85935944,38832770 M 80301525,46485602 77726918,46440662 M 80284946,47435457 80301525,46485602 M 80401877,40736477 84901191,40815013 M 77726918,46440662 77807199,41841362 M 91446028,39449028 91437651,39928955 M 80381806,41886302 80401877,40736477 M 77807199,41841362 80381806,41886302 M 93916980,44572933 93997261,39973633" />
  <path
     id="path886"
     style="fill:none;fill-opacity:0;stroke:#000000;stroke-width:99999.99992814;stroke-linecap:round;stroke-linejoin:round;stroke-opacity:1;stroke-miterlimit:4;stroke-dasharray:none"
     d="M 53955581,32801805 A 900001,900001 0 0 0 54049785,34599339 M 55357990,34530778 A 900000,900000 0 0 0 55263785,32733246 M 55263785,32733246 53955581,32801806 M 55357990,34530779 54049785,34599339" />
  <path
     id="path890"
     style="fill:none;fill-opacity:0;stroke:#000000;stroke-width:99999.99992814;stroke-linecap:round;stroke-linejoin:round;stroke-opacity:1;stroke-miterlimit:4;stroke-dasharray:none"
     d="M 45592739,23126224 A 494946,494946 0 0 0 46065886,22600740 M 49323454,27436881 A 1444060,1444060 0 0 0 47890930,28763671 M 52051467,21786363 54607959,21652383 M 38587621,24644924 41159092,24510159 M 46486696,21076628 51479844,20814948 M 52026346,21307021 52051467,21786363 M 41159092,24510159 41098906,23361735 M 38828367,29238620 38587621,24644924 M 50921261,27353143 49323454,27436880 M 41449557,30052553 41399838,29103855 M 46013550,21602111 46486696,21076628 M 47940649,29712369 41449557,30052553 M 54848704,26246079 54607959,21652383 M 41399838,29103855 38828367,29238620 M 54848704,26246079 51822857,26404657 M 51822857,26404657 50921261,27353143 M 41098906,23361735 45592739,23126223 M 46065886,22600740 46013550,21602111 M 47940649,29712369 47890930,28763671 M 51479844,20814948 52026346,21307021" />
  <path
     id="path942"
     style="fill:none;fill-opacity:0;stroke:#000000;stroke-width:99999.99992814;stroke-linecap:round;stroke-linejoin:round;stroke-opacity:1;stroke-miterlimit:4;stroke-dasharray:none"
     d="M 48433742,10460178 A 1444060,1444060 0 0 0 47001218,11786968 M 44703027,6149520.5 A 494946,494946 0 0 0 45176174,5624037 M 50590132,3838245 51136634,4330318 M 45123838,4625408 45596984,4099925 M 50031549,10376440 48433742,10460177 M 40269380,7533456 40209194,6385032 M 37697909,7668221 40269380,7533456 M 37938655,12261917 37697909,7668221 M 53958992,9269376 50933145,9427954 M 53958992,9269376 53718247,4675680 M 47050937,12735666 40559845,13075850 M 45176174,5624037 45123838,4625408 M 50933145,9427954 50031549,10376440 M 51161755,4809660 53718247,4675680 M 40559845,13075850 40510126,12127152 M 47050937,12735666 47001218,11786968 M 40510126,12127152 37938655,12261917 M 45596984,4099925 50590132,3838245 M 40209194,6385032 44703027,6149520 M 51136634,4330318 51161755,4809660" />
  <path
     id="path948"
     style="fill:none;fill-opacity:0;stroke:#000000;stroke-width:99999.99992814;stroke-linecap:round;stroke-linejoin:round;stroke-opacity:1;stroke-miterlimit:4;stroke-dasharray:none"
     d="M 53065869,15825102 A 900001,900001 0 0 0 53160073,17622636 M 54468278,17554075 A 900000,900000 0 0 0 54374073,15756543 M 54468278,17554076 53160073,17622636 M 54374073,15756543 53065869,15825103" />
  <path
     id="path1002"
     style="fill:none;fill-opacity:0;stroke:#000000;stroke-width:99999.99992814;stroke-linecap:round;stroke-linejoin:round;stroke-opacity:1;stroke-miterlimit:4;stroke-dasharray:none"
     d="M 66575001,37875000 A 494946,494946 0 0 0 67075001,37375000 M 70075001,42375001 A 1444060,1444060 0 0 0 68575001,43625000 M 75655001,41475000 V 36875000 M 67575001,35875000 H 72575001 M 62075001,44575000 V 43625000 M 71675001,42375000 H 70075001 M 62075001,43625000 H 59500001 M 62075001,39025000 V 37875000 M 72575001,35875000 73095001,36395000 M 62075001,37875000 H 66575001 M 68575001,44575000 H 62075001 M 67075001,36375000 67575001,35875000 M 73095001,36875000 H 75655001 M 68575001,44575000 V 43625000 M 75655001,41475000 H 72625001 M 59500001,43625000 V 39025000 M 72625001,41475000 71675001,42375000 M 73095001,36395000 V 36875000 M 59500001,39025000 H 62075001 M 67075001,37375000 V 36375000" />
  <path
     id="path1008"
     style="fill:none;fill-opacity:0;stroke:#000000;stroke-width:99999.99992814;stroke-linecap:round;stroke-linejoin:round;stroke-opacity:1;stroke-miterlimit:4;stroke-dasharray:none"
     d="M 74420001,47975000 A 900000,900000 0 0 0 74420001,49775000 M 75730001,49775000 A 900000,900000 0 0 0 75730001,47975000 M 75730001,49775000 H 74420001 M 75730001,47975000 H 74420001" />
  <path
     id="path1062"
     style="fill:none;fill-opacity:0;stroke:#000000;stroke-width:99999.99992814;stroke-linecap:round;stroke-linejoin:round;stroke-opacity:1;stroke-miterlimit:4;stroke-dasharray:none"
     d="M 96066433,64647745 A 494947,494947 0 0 0 96652651,64252335 M 98643487,69732897 A 1444061,1444061 0 0 0 96932535,70673718 M 96843460,63270708 97429678,62875298 M 104292700,69914147 101318370,69335996 M 96751267,71606264 96932535,70673718 M 101318370,69335996 100214090,70038192 M 96652651,64252335 96843460,63270708 M 88901990,64426641 91429680,64917975 M 97429678,62875298 102337810,63829343 M 102337810,63829343 102749040,64439010 M 91649110,63789103 96066433,64647744 M 102749040,64439010 102657450,64910191 M 104292700,69914147 105170420,65398662 M 100214090,70038192 98643487,69732898 M 90370690,70366005 90551959,69433460 M 96751267,71606264 90370690,70366005 M 90551959,69433460 88024269,68942126 M 102657450,64910191 105170420,65398662 M 91429680,64917975 91649110,63789103 M 88024269,68942126 88901990,64426641" />
  <path
     id="path1068"
     style="fill:none;fill-opacity:0;stroke:#000000;stroke-width:99999.99992814;stroke-linecap:round;stroke-linejoin:round;stroke-opacity:1;stroke-miterlimit:4;stroke-dasharray:none"
     d="M 101840130,76059074 A 900001,900001 0 0 0 101496670,77826004 M 102782600,78075963 A 900000,900000 0 0 0 103126060,76309035 M 103126060,76309035 101840130,76059075 M 102782600,78075964 101496670,77826004" />
  <path
     id="path1130"
     style="fill:none;fill-opacity:0;stroke:#000000;stroke-width:99999.99992814;stroke-linecap:round;stroke-linejoin:round;stroke-opacity:1;stroke-miterlimit:4;stroke-dasharray:none"
     d="M 111872520,58282875 A 900000,900000 0 0 0 111935340,56483972 M 110626140,56438254 A 900000,900000 0 0 0 110563320,58237157 M 111872520,58282876 110563320,58237157 M 111935340,56483972 110626140,56438254" />
  <path
     id="path1134"
     style="fill:none;fill-opacity:0;stroke:#000000;stroke-width:99999.99992814;stroke-linecap:round;stroke-linejoin:round;stroke-opacity:1;stroke-miterlimit:4;stroke-dasharray:none"
     d="M 103138410,46070620 A 494946,494946 0 0 0 103655550,45588374 M 106479230,50690027 A 1444060,1444060 0 0 0 104936520,51886916 M 109204550,44281235 109706090,44819066 M 109689330,45298774 112247770,45388116 M 98601012,47062872 98641147,45913572 M 108078250,50745866 106479230,50690027 M 98407320,52609491 98440475,51660069 M 104207600,44106738 109204550,44281235 M 112087240,49985314 112247770,45388116 M 103690450,44588983 104207600,44106738 M 95867043,51570203 96027581,46973005 M 109706090,44819066 109689330,45298774 M 112087240,49985314 109059080,49879569 M 104903360,52836337 104936520,51886916 M 96027581,46973005 98601012,47062872 M 98440475,51660069 95867043,51570203 M 109059080,49879569 108078250,50745866 M 103655550,45588374 103690450,44588983 M 98641147,45913572 103138410,46070620 M 104903360,52836337 98407320,52609491" />
  <path
     id="path1186"
     style="fill:none;fill-opacity:0;stroke:#000000;stroke-width:99999.99992814;stroke-linecap:round;stroke-linejoin:round;stroke-opacity:1;stroke-miterlimit:4;stroke-dasharray:none"
     d="M 66575001,3874999.9 A 494946,494946 0 0 0 67075001,3375000 M 70075001,8375000.7 A 1444060,1444060 0 0 0 68575001,9625000 M 72575001,1875000 73095001,2395000 M 67575001,1875000 H 72575001 M 68575001,10575000 V 9625000 M 75655001,7475000 H 72625001 M 59500001,5025000 H 62075001 M 73095001,2395000 V 2875000 M 73095001,2875000 H 75655001 M 59500001,9625000 V 5025000 M 62075001,10575000 V 9625000 M 62075001,9625000 H 59500001 M 75655001,7475000 V 2875000 M 68575001,10575000 H 62075001 M 71675001,8375000 H 70075001 M 62075001,5025000 V 3875000 M 67075001,2375000 67575001,1875000 M 67075001,3375000 V 2375000 M 72625001,7475000 71675001,8375000 M 62075001,3875000 H 66575001" />
  <path
     id="path1192"
     style="fill:none;fill-opacity:0;stroke:#000000;stroke-width:99999.99992814;stroke-linecap:round;stroke-linejoin:round;stroke-opacity:1;stroke-miterlimit:4;stroke-dasharray:none"
     d="M 75730001,15775000 A 900000,900000 0 0 0 75730001,13975000 M 74420001,13975000 A 900000,900000 0 0 0 74420001,15775000 M 75730001,15775000 H 74420001 M 75730001,13975000 H 74420001" />
  <path
     id="circle1318"
     style="stroke:#000000;stroke-linecap:round;stroke-linejoin:round;fill:none;stroke-width:99999.99992814;stroke-miterlimit:4;stroke-dasharray:none"
     d="M 128415630,22245818 A 1750000,1750000 0 0 1 126665630,23995818 1750000,1750000 0 0 1 124915630,22245818 1750000,1750000 0 0 1 126665630,20495818 1750000,1750000 0 0 1 128415630,22245818 Z" />
  <path
     d="M 86211629,70536818 H 39311629"
     id="path1324"
     style="fill:none;fill-opacity:0;stroke:#000000;stroke-width:99999.99992814;stroke-linecap:round;stroke-linejoin:round;stroke-opacity:1;stroke-miterlimit:4;stroke-dasharray:none" />
  <path
     d="M 39311629,70536818 V 52946818"
     id="path1326"
     style="fill:none;fill-opacity:0;stroke:#000000;stroke-width:99999.99992814;stroke-linecap:round;stroke-linejoin:round;stroke-opacity:1;stroke-miterlimit:4;stroke-dasharray:none" />
  <path
     d="M 39311629,52946818 H 86211629"
     id="path1328"
     style="fill:none;fill-opacity:0;stroke:#000000;stroke-width:99999.99992814;stroke-linecap:round;stroke-linejoin:round;stroke-opacity:1;stroke-miterlimit:4;stroke-dasharray:none" />
  <path
     d="M 86211629,52946818 V 70536818"
     id="path1330"
     style="fill:none;fill-opacity:0;stroke:#000000;stroke-width:99999.99992814;stroke-linecap:round;stroke-linejoin:round;stroke-opacity:1;stroke-miterlimit:4;stroke-dasharray:none" />
  <path
     style="fill:none;fill-opacity:1;fill-rule:evenodd;stroke:#000000;stroke-width:99999.99992814;stroke-linecap:round;stroke-linejoin:round;stroke-opacity:1;stroke-miterlimit:4;stroke-dasharray:none"
     d="M 86211629,70536818 H 39311629 V 52946818 H 86211629"
     id="path1334" />
  <path
     id="circle1338"
     style="stroke:#000000;stroke-linecap:round;stroke-linejoin:round;fill:none;stroke-width:99999.99992814;stroke-miterlimit:4;stroke-dasharray:none"
     d="M 72741632,3501818 A 1750000,1750000 0 0 1 70991632,5251818 1750000,1750000 0 0 1 69241632,3501818 1750000,1750000 0 0 1 70991632,1751818 1750000,1750000 0 0 1 72741632,3501818 Z" />
  <path
     id="circle1340"
     style="stroke:#000000;stroke-linecap:round;stroke-linejoin:round;fill:none;stroke-width:99999.99992814;stroke-miterlimit:4;stroke-dasharray:none"
     d="M 11321629,21991818 A 1750000,1750000 0 0 1 9571629,23741818 1750000,1750000 0 0 1 7821629,21991818 1750000,1750000 0 0 1 9571629,20241818 1750000,1750000 0 0 1 11321629,21991818 Z" />
  <path
     id="circle1342"
     style="stroke:#000000;stroke-linecap:round;stroke-linejoin:round;fill:none;stroke-width:99999.99992814;stroke-miterlimit:4;stroke-dasharray:none"
     d="M 7257629,57297816 A 1750000,1750000 0 0 1 5507629,59047816 1750000,1750000 0 0 1 3757629,57297816 1750000,1750000 0 0 1 5507629,55547816 1750000,1750000 0 0 1 7257629,57297816 Z" />
  <path
     id="circle1344"
     style="stroke:#000000;stroke-linecap:round;stroke-linejoin:round;fill:none;stroke-width:99999.99992814;stroke-miterlimit:4;stroke-dasharray:none"
     d="M 72281632,72791816 A 1750000,1750000 0 0 1 70531632,74541816 1750000,1750000 0 0 1 68781632,72791816 1750000,1750000 0 0 1 70531632,71041816 1750000,1750000 0 0 1 72281632,72791816 Z" />
  <path
     id="circle1346"
     style="stroke:#000000;stroke-linecap:round;stroke-linejoin:round;fill:none;stroke-width:99999.99992814;stroke-miterlimit:4;stroke-dasharray:none"
     d="M 133121630,61761816 A 1750000,1750000 0 0 1 131371630,63511816 1750000,1750000 0 0 1 129621630,61761816 1750000,1750000 0 0 1 131371630,60011816 1750000,1750000 0 0 1 133121630,61761816 Z" />
  <path
     id="path1360"
     style="fill:none;fill-opacity:0;stroke:#000000;stroke-width:99999.99992814;stroke-linecap:round;stroke-linejoin:round;stroke-opacity:1;stroke-miterlimit:4;stroke-dasharray:none"
     d="M 49962049,52137309 A 900001,900001 0 0 0 50056254,53934843 M 51364459,53866282 A 900000,900000 0 0 0 51270254,52068750 M 51364459,53866283 50056254,53934843 M 51270254,52068750 49962049,52137310" />
  <path
     id="circle1364"
     style="stroke:#000000;stroke-linecap:round;stroke-linejoin:round;fill:none;stroke-width:99999.99992814;stroke-miterlimit:4;stroke-dasharray:none"
     d="M 46122009,47397728 A 1260001,1260001 0 0 1 44862008,48657729 1260001,1260001 0 0 1 43602007,47397728 1260001,1260001 0 0 1 44862008,46137727 1260001,1260001 0 0 1 46122009,47397728 Z" />
  <path
     id="circle1366"
     style="stroke:#000000;stroke-linecap:round;stroke-linejoin:round;fill:none;stroke-width:99999.99992814;stroke-miterlimit:4;stroke-dasharray:none"
     d="M 57106936,46822032 A 1260000,1260000 0 0 1 55846936,48082032 1260000,1260000 0 0 1 54586936,46822032 1260000,1260000 0 0 1 55846936,45562032 1260000,1260000 0 0 1 57106936,46822032 Z" />
  <path
     id="circle1368"
     style="stroke:#000000;stroke-linecap:round;stroke-linejoin:round;fill:none;stroke-width:99999.99992814;stroke-miterlimit:4;stroke-dasharray:none"
     d="M 52414472,47109880 A 2060000,2060000 0 0 1 50354472,49169880 2060000,2060000 0 0 1 48294472,47109880 2060000,2060000 0 0 1 50354472,45049880 2060000,2060000 0 0 1 52414472,47109880 Z" />
  <path
     id="path1380"
     style="fill:none;fill-opacity:0;stroke:#000000;stroke-width:99999.99992814;stroke-linecap:round;stroke-linejoin:round;stroke-opacity:1;stroke-miterlimit:4;stroke-dasharray:none"
     d="M 69420001,33075000 A 900000,900000 0 0 0 69420001,34875000 M 70730001,34875000 A 900000,900000 0 0 0 70730001,33075000 M 70730001,34875000 H 69420001 M 70730001,33075000 H 69420001" />
  <path
     id="circle1384"
     style="stroke:#000000;stroke-linecap:round;stroke-linejoin:round;fill:none;stroke-width:99999.99992814;stroke-miterlimit:4;stroke-dasharray:none"
     d="M 65835000,28075000 A 1260000,1260000 0 0 1 64575000,29335000 1260000,1260000 0 0 1 63315000,28075000 1260000,1260000 0 0 1 64575000,26815000 1260000,1260000 0 0 1 65835000,28075000 Z" />
  <path
     id="circle1386"
     style="stroke:#000000;stroke-linecap:round;stroke-linejoin:round;fill:none;stroke-width:99999.99992814;stroke-miterlimit:4;stroke-dasharray:none"
     d="M 72135000,28075000 A 2060000,2060000 0 0 1 70075000,30135000 2060000,2060000 0 0 1 68015000,28075000 2060000,2060000 0 0 1 70075000,26015000 2060000,2060000 0 0 1 72135000,28075000 Z" />
  <path
     id="circle1388"
     style="stroke:#000000;stroke-linecap:round;stroke-linejoin:round;fill:none;stroke-width:99999.99992814;stroke-miterlimit:4;stroke-dasharray:none"
     d="M 76835000,28075000 A 1260000,1260000 0 0 1 75575000,29335000 1260000,1260000 0 0 1 74315000,28075000 1260000,1260000 0 0 1 75575000,26815000 1260000,1260000 0 0 1 76835000,28075000 Z" />
  <path
     id="path1400"
     style="fill:none;fill-opacity:0;stroke:#000000;stroke-width:99999.99992814;stroke-linecap:round;stroke-linejoin:round;stroke-opacity:1;stroke-miterlimit:4;stroke-dasharray:none"
     d="M 124362880,77746885 A 900000,900000 0 0 0 125980700,78535953 M 126554970,77358533 A 900001,900001 0 0 0 124937140,76569465 M 126554970,77358533 125980700,78535953 M 124937140,76569465 124362880,77746885" />
  <path
     id="circle1404"
     style="stroke:#000000;stroke-linecap:round;stroke-linejoin:round;fill:none;stroke-width:99999.99992814;stroke-miterlimit:4;stroke-dasharray:none"
     d="M 122216040,74966320 A 2060000,2060000 0 0 1 120156040,77026320 2060000,2060000 0 0 1 118096040,74966320 2060000,2060000 0 0 1 120156040,72906320 2060000,2060000 0 0 1 122216040,74966320 Z" />
  <path
     id="circle1406"
     style="stroke:#000000;stroke-linecap:round;stroke-linejoin:round;fill:none;stroke-width:99999.99992814;stroke-miterlimit:4;stroke-dasharray:none"
     d="M 119005000,79909688 A 1260000,1260000 0 0 1 117745000,81169688 1260000,1260000 0 0 1 116485000,79909688 1260000,1260000 0 0 1 117745000,78649688 1260000,1260000 0 0 1 119005000,79909688 Z" />
  <path
     id="circle1408"
     style="stroke:#000000;stroke-linecap:round;stroke-linejoin:round;fill:none;stroke-width:99999.99992814;stroke-miterlimit:4;stroke-dasharray:none"
     d="M 123827080,70022952 A 1260000,1260000 0 0 1 122567080,71282952 1260000,1260000 0 0 1 121307080,70022952 1260000,1260000 0 0 1 122567080,68762952 1260000,1260000 0 0 1 123827080,70022952 Z" />
  <path
     id="path1420"
     style="fill:none;fill-opacity:0;stroke:#000000;stroke-width:99999.99992814;stroke-linecap:round;stroke-linejoin:round;stroke-opacity:1;stroke-miterlimit:4;stroke-dasharray:none"
     d="M 87829530,36065397 A 900000,900000 0 0 0 87798115,37865122 M 89107916,37887984 A 900000,900000 0 0 0 89139330,36088259 M 89139330,36088259 87829530,36065396 M 89107916,37887985 87798115,37865122" />
  <path
     id="circle1424"
     style="stroke:#000000;stroke-linecap:round;stroke-linejoin:round;fill:none;stroke-width:99999.99992814;stroke-miterlimit:4;stroke-dasharray:none"
     d="M 84332529,30981600 A 1260001,1260001 0 0 1 83072528,32241601 1260001,1260001 0 0 1 81812527,30981600 1260001,1260001 0 0 1 83072528,29721599 1260001,1260001 0 0 1 84332529,30981600 Z" />
  <path
     id="circle1426"
     style="stroke:#000000;stroke-linecap:round;stroke-linejoin:round;fill:none;stroke-width:99999.99992814;stroke-miterlimit:4;stroke-dasharray:none"
     d="M 90631696,31077588 A 2060000,2060000 0 0 1 88571696,33137588 2060000,2060000 0 0 1 86511696,31077588 2060000,2060000 0 0 1 88571696,29017588 2060000,2060000 0 0 1 90631696,31077588 Z" />
  <path
     id="circle1428"
     style="stroke:#000000;stroke-linecap:round;stroke-linejoin:round;fill:none;stroke-width:99999.99992814;stroke-miterlimit:4;stroke-dasharray:none"
     d="M 95330856,31173576 A 1260000,1260000 0 0 1 94070856,32433576 1260000,1260000 0 0 1 92810856,31173576 1260000,1260000 0 0 1 94070856,29913576 1260000,1260000 0 0 1 95330856,31173576 Z" />
  <path
     id="circle1430"
     style="stroke:#000000;stroke-linecap:round;stroke-linejoin:round;fill:none;stroke-width:99999.99992814;stroke-miterlimit:4;stroke-dasharray:none"
     d="M 14201629,13361818 A 1750000,1750000 0 0 1 12451629,15111818 1750000,1750000 0 0 1 10701629,13361818 1750000,1750000 0 0 1 12451629,11611818 1750000,1750000 0 0 1 14201629,13361818 Z" />
  <path
     id="path1442"
     style="fill:none;fill-opacity:0;stroke:#000000;stroke-width:99999.99992814;stroke-linecap:round;stroke-linejoin:round;stroke-opacity:1;stroke-miterlimit:4;stroke-dasharray:none"
     d="M 14025148,47728545 A 900001,900001 0 0 0 13868267,45935394 M 12563252,46049568 A 900001,900001 0 0 0 12720133,47842719 M 14025148,47728545 12720133,47842719 M 13868267,45935394 12563252,46049569" />
  <path
     id="circle1446"
     style="stroke:#000000;stroke-linecap:round;stroke-linejoin:round;fill:none;stroke-width:99999.99992814;stroke-miterlimit:4;stroke-dasharray:none"
     d="M 8560909,41490864 A 1259999,1259999 0 0 1 7300910,42750863 1259999,1259999 0 0 1 6040911,41490864 1259999,1259999 0 0 1 7300910,40230865 1259999,1259999 0 0 1 8560909,41490864 Z" />
  <path
     id="circle1448"
     style="stroke:#000000;stroke-linecap:round;stroke-linejoin:round;fill:none;stroke-width:99999.99992814;stroke-miterlimit:4;stroke-dasharray:none"
     d="M 14839981,41011508 A 2060000,2060000 0 0 1 12779981,43071508 2060000,2060000 0 0 1 10719981,41011508 2060000,2060000 0 0 1 12779981,38951508 2060000,2060000 0 0 1 14839981,41011508 Z" />
  <path
     id="circle1450"
     style="stroke:#000000;stroke-linecap:round;stroke-linejoin:round;fill:none;stroke-width:99999.99992814;stroke-miterlimit:4;stroke-dasharray:none"
     d="M 19519052,40532152 A 1260000,1260000 0 0 1 18259052,41792152 1260000,1260000 0 0 1 16999052,40532152 1260000,1260000 0 0 1 18259052,39272152 1260000,1260000 0 0 1 19519052,40532152 Z" />
  <path
     id="circle1452"
     style="stroke:#000000;stroke-linecap:round;stroke-linejoin:round;fill:none;stroke-width:99999.99992814;stroke-miterlimit:4;stroke-dasharray:none"
     d="M 111891630,70541816 A 1750000,1750000 0 0 1 110141630,72291816 1750000,1750000 0 0 1 108391630,70541816 1750000,1750000 0 0 1 110141630,68791816 1750000,1750000 0 0 1 111891630,70541816 Z" />
  <path
     id="path1464"
     style="fill:none;fill-opacity:0;stroke:#000000;stroke-width:99999.99992814;stroke-linecap:round;stroke-linejoin:round;stroke-opacity:1;stroke-miterlimit:4;stroke-dasharray:none"
     d="M 33438301,63095052 A 900001,900001 0 0 0 33281420,61301901 M 31976405,61416075 A 900001,900001 0 0 0 32133286,63209226 M 33438301,63095052 32133286,63209226 M 33281420,61301901 31976405,61416076" />
  <path
     id="circle1468"
     style="stroke:#000000;stroke-linecap:round;stroke-linejoin:round;fill:none;stroke-width:99999.99992814;stroke-miterlimit:4;stroke-dasharray:none"
     d="M 27974063,56857372 A 1259999,1259999 0 0 1 26714064,58117371 1259999,1259999 0 0 1 25454065,56857372 1259999,1259999 0 0 1 26714064,55597373 1259999,1259999 0 0 1 27974063,56857372 Z" />
  <path
     id="circle1470"
     style="stroke:#000000;stroke-linecap:round;stroke-linejoin:round;fill:none;stroke-width:99999.99992814;stroke-miterlimit:4;stroke-dasharray:none"
     d="M 34253134,56378016 A 2060000,2060000 0 0 1 32193134,58438016 2060000,2060000 0 0 1 30133134,56378016 2060000,2060000 0 0 1 32193134,54318016 2060000,2060000 0 0 1 34253134,56378016 Z" />
  <path
     id="circle1472"
     style="stroke:#000000;stroke-linecap:round;stroke-linejoin:round;fill:none;stroke-width:99999.99992814;stroke-miterlimit:4;stroke-dasharray:none"
     d="M 38932204,55898656 A 1260000,1260000 0 0 1 37672204,57158656 1260000,1260000 0 0 1 36412204,55898656 1260000,1260000 0 0 1 37672204,54638656 1260000,1260000 0 0 1 38932204,55898656 Z" />
  <path
     id="path1480"
     style="fill:none;fill-opacity:0;stroke:#000000;stroke-width:99999.99992814;stroke-linecap:round;stroke-linejoin:round;stroke-opacity:1;stroke-miterlimit:4;stroke-dasharray:none"
     d="M 89404607,20890575 88094806,20867712 M 85197882,23817602 A 494946,494946 0 0 0 85706532,23326405 M 88618813,28378000 A 1444061,1444061 0 0 0 87097226,29601631 M 91734342,22931544 94293952,22976222 M 90218570,28405924 88618813,28378000 M 80678497,24888891 80698568,23739066 M 87080647,30551487 87097226,29601631 M 80598216,29488191 78023609,29443251 M 85723985,22326557 86232635,21835359 M 78023609,29443251 78103890,24843951 M 91231873,21922621 91742719,22451617 M 80698568,23739066 85197882,23817602 M 94213671,27575522 91184132,27522641 M 91184132,27522641 90218570,28405924 M 87080647,30551487 80581637,30438046 M 78103890,24843951 80678497,24888891 M 80581637,30438046 80598216,29488191 M 94213671,27575522 94293952,22976222 M 86232635,21835359 91231873,21922621 M 85706532,23326405 85723985,22326557 M 91742719,22451617 91734342,22931544" />
  <path
     id="path1484"
     style="fill:none;fill-opacity:0;stroke:#000000;stroke-width:99999.99992814;stroke-linecap:round;stroke-linejoin:round;stroke-opacity:1;stroke-miterlimit:4;stroke-dasharray:none"
     d="M 89404607,20890574 A 900000,900000 0 0 0 89436021,19090849 M 88126221,19067987 A 900000,900000 0 0 0 88094806,20867712 M 89436021,19090849 88126221,19067986" />
  <path
     id="circle1488"
     style="stroke:#000000;stroke-linecap:round;stroke-linejoin:round;fill:none;stroke-width:99999.99992814;stroke-miterlimit:4;stroke-dasharray:none"
     d="M 90928384,14080179 A 2060000,2060000 0 0 1 88868384,16140179 2060000,2060000 0 0 1 86808384,14080179 2060000,2060000 0 0 1 88868384,12020179 2060000,2060000 0 0 1 90928384,14080179 Z" />
  <path
     id="circle1490"
     style="stroke:#000000;stroke-linecap:round;stroke-linejoin:round;fill:none;stroke-width:99999.99992814;stroke-miterlimit:4;stroke-dasharray:none"
     d="M 84629225,13984191 A 1260001,1260001 0 0 1 83369224,15244192 1260001,1260001 0 0 1 82109223,13984191 1260001,1260001 0 0 1 83369224,12724190 1260001,1260001 0 0 1 84629225,13984191 Z" />
  <path
     id="circle1492"
     style="stroke:#000000;stroke-linecap:round;stroke-linejoin:round;fill:none;stroke-width:99999.99992814;stroke-miterlimit:4;stroke-dasharray:none"
     d="M 95627544,14176167 A 1260000,1260000 0 0 1 94367544,15436167 1260000,1260000 0 0 1 93107544,14176167 1260000,1260000 0 0 1 94367544,12916167 1260000,1260000 0 0 1 95627544,14176167 Z" />
  <path
     id="circle1494"
     style="stroke:#000000;stroke-linecap:round;stroke-linejoin:round;fill:none;stroke-width:99999.99992814;stroke-miterlimit:4;stroke-dasharray:none"
     d="M 10891629,65101816 A 1750000,1750000 0 0 1 9141629,66851816 1750000,1750000 0 0 1 7391629,65101816 1750000,1750000 0 0 1 9141629,63351816 1750000,1750000 0 0 1 10891629,65101816 Z" />
  <path
     id="path1506"
     style="fill:none;fill-opacity:0;stroke:#000000;stroke-width:99999.99992814;stroke-linecap:round;stroke-linejoin:round;stroke-opacity:1;stroke-miterlimit:4;stroke-dasharray:none"
     d="M 31956653,46159742 A 900001,900001 0 0 0 31799772,44366591 M 30494757,44480765 A 900001,900001 0 0 0 30651638,46273916 M 31956653,46159742 30651638,46273916 M 31799772,44366591 30494757,44480766" />
  <path
     id="circle1510"
     style="stroke:#000000;stroke-linecap:round;stroke-linejoin:round;fill:none;stroke-width:99999.99992814;stroke-miterlimit:4;stroke-dasharray:none"
     d="M 37450556,38963348 A 1260000,1260000 0 0 1 36190556,40223348 1260000,1260000 0 0 1 34930556,38963348 1260000,1260000 0 0 1 36190556,37703348 1260000,1260000 0 0 1 37450556,38963348 Z" />
  <path
     id="circle1512"
     style="stroke:#000000;stroke-linecap:round;stroke-linejoin:round;fill:none;stroke-width:99999.99992814;stroke-miterlimit:4;stroke-dasharray:none"
     d="M 26492415,39922064 A 1259999,1259999 0 0 1 25232416,41182063 1259999,1259999 0 0 1 23972417,39922064 1259999,1259999 0 0 1 25232416,38662065 1259999,1259999 0 0 1 26492415,39922064 Z" />
  <path
     id="circle1514"
     style="stroke:#000000;stroke-linecap:round;stroke-linejoin:round;fill:none;stroke-width:99999.99992814;stroke-miterlimit:4;stroke-dasharray:none"
     d="M 32771486,39442704 A 2060000,2060000 0 0 1 30711486,41502704 2060000,2060000 0 0 1 28651486,39442704 2060000,2060000 0 0 1 30711486,37382704 2060000,2060000 0 0 1 32771486,39442704 Z" />
  <path
     id="path1526"
     style="fill:none;fill-opacity:0;stroke:#000000;stroke-width:99999.99992814;stroke-linecap:round;stroke-linejoin:round;stroke-opacity:1;stroke-miterlimit:4;stroke-dasharray:none"
     d="M 107395570,43217456 A 900001,900001 0 0 0 107458390,41418551 M 106149190,41372833 A 900000,900000 0 0 0 106086370,43171736 M 107395570,43217455 106086370,43171736 M 107458390,41418551 106149190,41372833" />
  <path
     id="circle1530"
     style="stroke:#000000;stroke-linecap:round;stroke-linejoin:round;fill:none;stroke-width:99999.99992814;stroke-miterlimit:4;stroke-dasharray:none"
     d="M 113734940,36590684 A 1260000,1260000 0 0 1 112474940,37850684 1260000,1260000 0 0 1 111214940,36590684 1260000,1260000 0 0 1 112474940,35330684 1260000,1260000 0 0 1 113734940,36590684 Z" />
  <path
     id="circle1532"
     style="stroke:#000000;stroke-linecap:round;stroke-linejoin:round;fill:none;stroke-width:99999.99992814;stroke-miterlimit:4;stroke-dasharray:none"
     d="M 102741640,36206792 A 1260000,1260000 0 0 1 101481640,37466792 1260000,1260000 0 0 1 100221640,36206792 1260000,1260000 0 0 1 101481640,34946792 1260000,1260000 0 0 1 102741640,36206792 Z" />
  <path
     id="circle1534"
     style="stroke:#000000;stroke-linecap:round;stroke-linejoin:round;fill:none;stroke-width:99999.99992814;stroke-miterlimit:4;stroke-dasharray:none"
     d="M 109038290,36398736 A 2060000,2060000 0 0 1 106978290,38458736 2060000,2060000 0 0 1 104918290,36398736 2060000,2060000 0 0 1 106978290,34338736 2060000,2060000 0 0 1 109038290,36398736 Z" />
  <path
     id="path1546"
     style="fill:none;fill-opacity:0;stroke:#000000;stroke-width:99999.99992814;stroke-linecap:round;stroke-linejoin:round;stroke-opacity:1;stroke-miterlimit:4;stroke-dasharray:none"
     d="M 107988860,26227812 A 900001,900001 0 0 0 108051680,24428907 M 106742480,24383189 A 900000,900000 0 0 0 106679660,26182092 M 107988860,26227811 106679660,26182092 M 108051680,24428907 106742480,24383189" />
  <path
     id="circle1550"
     style="stroke:#000000;stroke-linecap:round;stroke-linejoin:round;fill:none;stroke-width:99999.99992814;stroke-miterlimit:4;stroke-dasharray:none"
     d="M 109631580,19409094 A 2060000,2060000 0 0 1 107571580,21469094 2060000,2060000 0 0 1 105511580,19409094 2060000,2060000 0 0 1 107571580,17349094 2060000,2060000 0 0 1 109631580,19409094 Z" />
  <path
     id="circle1552"
     style="stroke:#000000;stroke-linecap:round;stroke-linejoin:round;fill:none;stroke-width:99999.99992814;stroke-miterlimit:4;stroke-dasharray:none"
     d="M 114328230,19601040 A 1260000,1260000 0 0 1 113068230,20861040 1260000,1260000 0 0 1 111808230,19601040 1260000,1260000 0 0 1 113068230,18341040 1260000,1260000 0 0 1 114328230,19601040 Z" />
  <path
     id="circle1554"
     style="stroke:#000000;stroke-linecap:round;stroke-linejoin:round;fill:none;stroke-width:99999.99992814;stroke-miterlimit:4;stroke-dasharray:none"
     d="M 103334930,19217148 A 1260000,1260000 0 0 1 102074930,20477148 1260000,1260000 0 0 1 100814930,19217148 1260000,1260000 0 0 1 102074930,17957148 1260000,1260000 0 0 1 103334930,19217148 Z" />
  <path
     id="path1566"
     style="fill:none;fill-opacity:0;stroke:#000000;stroke-width:99999.99992814;stroke-linecap:round;stroke-linejoin:round;stroke-opacity:1;stroke-miterlimit:4;stroke-dasharray:none"
     d="M 88811225,54885395 A 900000,900000 0 0 0 88842639,53085670 M 87532839,53062808 A 900000,900000 0 0 0 87501424,54862533 M 88842639,53085670 87532839,53062807 M 88811225,54885396 87501424,54862533" />
  <path
     id="circle1570"
     style="stroke:#000000;stroke-linecap:round;stroke-linejoin:round;fill:none;stroke-width:99999.99992814;stroke-miterlimit:4;stroke-dasharray:none"
     d="M 95034160,48170988 A 1260000,1260000 0 0 1 93774160,49430988 1260000,1260000 0 0 1 92514160,48170988 1260000,1260000 0 0 1 93774160,46910988 1260000,1260000 0 0 1 95034160,48170988 Z" />
  <path
     id="circle1572"
     style="stroke:#000000;stroke-linecap:round;stroke-linejoin:round;fill:none;stroke-width:99999.99992814;stroke-miterlimit:4;stroke-dasharray:none"
     d="M 84035841,47979012 A 1260001,1260001 0 0 1 82775840,49239013 1260001,1260001 0 0 1 81515839,47979012 1260001,1260001 0 0 1 82775840,46719011 1260001,1260001 0 0 1 84035841,47979012 Z" />
  <path
     id="circle1574"
     style="stroke:#000000;stroke-linecap:round;stroke-linejoin:round;fill:none;stroke-width:99999.99992814;stroke-miterlimit:4;stroke-dasharray:none"
     d="M 90335000,48075000 A 2060000,2060000 0 0 1 88275000,50135000 2060000,2060000 0 0 1 86215000,48075000 2060000,2060000 0 0 1 88275000,46015000 2060000,2060000 0 0 1 90335000,48075000 Z" />
  <path
     id="circle1576"
     style="stroke:#000000;stroke-linecap:round;stroke-linejoin:round;fill:none;stroke-width:99999.99992814;stroke-miterlimit:4;stroke-dasharray:none"
     d="M 103221630,7001818 A 1750000,1750000 0 0 1 101471630,8751818 1750000,1750000 0 0 1 99721632,7001818 1750000,1750000 0 0 1 101471630,5251818 1750000,1750000 0 0 1 103221630,7001818 Z" />
  <path
     id="path1588"
     style="fill:none;fill-opacity:0;stroke:#000000;stroke-width:99999.99992814;stroke-linecap:round;stroke-linejoin:round;stroke-opacity:1;stroke-miterlimit:4;stroke-dasharray:none"
     d="M 50474748,36889580 A 900000,900000 0 0 0 50380543,35092048 M 49072338,35160607 A 900001,900001 0 0 0 49166543,36958141 M 50474748,36889581 49166543,36958141 M 50380543,35092048 49072338,35160608" />
  <path
     id="circle1592"
     style="stroke:#000000;stroke-linecap:round;stroke-linejoin:round;fill:none;stroke-width:99999.99992814;stroke-miterlimit:4;stroke-dasharray:none"
     d="M 45232301,30421028 A 1260001,1260001 0 0 1 43972300,31681029 1260001,1260001 0 0 1 42712299,30421028 1260001,1260001 0 0 1 43972300,29161027 1260001,1260001 0 0 1 45232301,30421028 Z" />
  <path
     id="circle1594"
     style="stroke:#000000;stroke-linecap:round;stroke-linejoin:round;fill:none;stroke-width:99999.99992814;stroke-miterlimit:4;stroke-dasharray:none"
     d="M 56217224,29845332 A 1260000,1260000 0 0 1 54957224,31105332 1260000,1260000 0 0 1 53697224,29845332 1260000,1260000 0 0 1 54957224,28585332 1260000,1260000 0 0 1 56217224,29845332 Z" />
  <path
     id="circle1596"
     style="stroke:#000000;stroke-linecap:round;stroke-linejoin:round;fill:none;stroke-width:99999.99992814;stroke-miterlimit:4;stroke-dasharray:none"
     d="M 51524760,30133180 A 2060000,2060000 0 0 1 49464760,32193180 2060000,2060000 0 0 1 47404760,30133180 2060000,2060000 0 0 1 49464760,28073180 2060000,2060000 0 0 1 51524760,30133180 Z" />
  <path
     id="path1608"
     style="fill:none;fill-opacity:0;stroke:#000000;stroke-width:99999.99992814;stroke-linecap:round;stroke-linejoin:round;stroke-opacity:1;stroke-miterlimit:4;stroke-dasharray:none"
     d="M 49585036,19912877 A 900000,900000 0 0 0 49490831,18115345 M 48182626,18183904 A 900001,900001 0 0 0 48276831,19981438 M 49490831,18115345 48182626,18183905 M 49585036,19912878 48276831,19981438" />
  <path
     id="circle1612"
     style="stroke:#000000;stroke-linecap:round;stroke-linejoin:round;fill:none;stroke-width:99999.99992814;stroke-miterlimit:4;stroke-dasharray:none"
     d="M 55327512,12868629 A 1260000,1260000 0 0 1 54067512,14128629 1260000,1260000 0 0 1 52807512,12868629 1260000,1260000 0 0 1 54067512,11608629 1260000,1260000 0 0 1 55327512,12868629 Z" />
  <path
     id="circle1614"
     style="stroke:#000000;stroke-linecap:round;stroke-linejoin:round;fill:none;stroke-width:99999.99992814;stroke-miterlimit:4;stroke-dasharray:none"
     d="M 44342589,13444325 A 1260001,1260001 0 0 1 43082588,14704326 1260001,1260001 0 0 1 41822587,13444325 1260001,1260001 0 0 1 43082588,12184324 1260001,1260001 0 0 1 44342589,13444325 Z" />
  <path
     id="circle1616"
     style="stroke:#000000;stroke-linecap:round;stroke-linejoin:round;fill:none;stroke-width:99999.99992814;stroke-miterlimit:4;stroke-dasharray:none"
     d="M 50635048,13156477 A 2060000,2060000 0 0 1 48575048,15216477 2060000,2060000 0 0 1 46515048,13156477 2060000,2060000 0 0 1 48575048,11096477 2060000,2060000 0 0 1 50635048,13156477 Z" />
  <path
     id="path1628"
     style="fill:none;fill-opacity:0;stroke:#000000;stroke-width:99999.99992814;stroke-linecap:round;stroke-linejoin:round;stroke-opacity:1;stroke-miterlimit:4;stroke-dasharray:none"
     d="M 70730001,51875000 A 900000,900000 0 0 0 70730001,50075000 M 69420001,50075000 A 900000,900000 0 0 0 69420001,51875000 M 70730001,50075000 H 69420001 M 70730001,51875000 H 69420001" />
  <path
     id="circle1632"
     style="stroke:#000000;stroke-linecap:round;stroke-linejoin:round;fill:none;stroke-width:99999.99992814;stroke-miterlimit:4;stroke-dasharray:none"
     d="M 76835000,45075000 A 1260000,1260000 0 0 1 75575000,46335000 1260000,1260000 0 0 1 74315000,45075000 1260000,1260000 0 0 1 75575000,43815000 1260000,1260000 0 0 1 76835000,45075000 Z" />
  <path
     id="circle1634"
     style="stroke:#000000;stroke-linecap:round;stroke-linejoin:round;fill:none;stroke-width:99999.99992814;stroke-miterlimit:4;stroke-dasharray:none"
     d="M 72135000,45075000 A 2060000,2060000 0 0 1 70075000,47135000 2060000,2060000 0 0 1 68015000,45075000 2060000,2060000 0 0 1 70075000,43015000 2060000,2060000 0 0 1 72135000,45075000 Z" />
  <path
     id="circle1636"
     style="stroke:#000000;stroke-linecap:round;stroke-linejoin:round;fill:none;stroke-width:99999.99992814;stroke-miterlimit:4;stroke-dasharray:none"
     d="M 65835000,45075000 A 1260000,1260000 0 0 1 64575000,46335000 1260000,1260000 0 0 1 63315000,45075000 1260000,1260000 0 0 1 64575000,43815000 1260000,1260000 0 0 1 65835000,45075000 Z" />
  <path
     id="path1648"
     style="fill:none;fill-opacity:0;stroke:#000000;stroke-width:99999.99992814;stroke-linecap:round;stroke-linejoin:round;stroke-opacity:1;stroke-miterlimit:4;stroke-dasharray:none"
     d="M 97473768,79183335 A 900000,900000 0 0 0 97817224,77416407 M 96531292,77166446 A 900001,900001 0 0 0 96187836,78933376 M 97817224,77416407 96531292,77166447 M 97473768,79183336 96187836,78933376" />
  <path
     id="circle1652"
     style="stroke:#000000;stroke-linecap:round;stroke-linejoin:round;fill:none;stroke-width:99999.99992814;stroke-miterlimit:4;stroke-dasharray:none"
     d="M 93989351,71333840 A 1259999,1259999 0 0 1 92729352,72593839 1259999,1259999 0 0 1 91469353,71333840 1259999,1259999 0 0 1 92729352,70073841 1259999,1259999 0 0 1 93989351,71333840 Z" />
  <path
     id="circle1654"
     style="stroke:#000000;stroke-linecap:round;stroke-linejoin:round;fill:none;stroke-width:99999.99992814;stroke-miterlimit:4;stroke-dasharray:none"
     d="M 104787260,73432736 A 1260000,1260000 0 0 1 103527260,74692736 1260000,1260000 0 0 1 102267260,73432736 1260000,1260000 0 0 1 103527260,72172736 1260000,1260000 0 0 1 104787260,73432736 Z" />
  <path
     id="circle1656"
     style="stroke:#000000;stroke-linecap:round;stroke-linejoin:round;fill:none;stroke-width:99999.99992814;stroke-miterlimit:4;stroke-dasharray:none"
     d="M 100188300,72383288 A 2060000,2060000 0 0 1 98128304,74443288 2060000,2060000 0 0 1 96068304,72383288 2060000,2060000 0 0 1 98128304,70323288 2060000,2060000 0 0 1 100188300,72383288 Z" />
  <path
     id="path1668"
     style="fill:none;fill-opacity:0;stroke:#000000;stroke-width:99999.99992814;stroke-linecap:round;stroke-linejoin:round;stroke-opacity:1;stroke-miterlimit:4;stroke-dasharray:none"
     d="M 106802280,60207100 A 900001,900001 0 0 0 106865100,58408195 M 105555900,58362477 A 900000,900000 0 0 0 105493080,60161380 M 106865100,58408195 105555900,58362477 M 106802280,60207099 105493080,60161380" />
  <path
     id="circle1672"
     style="stroke:#000000;stroke-linecap:round;stroke-linejoin:round;fill:none;stroke-width:99999.99992814;stroke-miterlimit:4;stroke-dasharray:none"
     d="M 108445000,53388384 A 2060000,2060000 0 0 1 106385000,55448384 2060000,2060000 0 0 1 104325000,53388384 2060000,2060000 0 0 1 106385000,51328384 2060000,2060000 0 0 1 108445000,53388384 Z" />
  <path
     id="circle1674"
     style="stroke:#000000;stroke-linecap:round;stroke-linejoin:round;fill:none;stroke-width:99999.99992814;stroke-miterlimit:4;stroke-dasharray:none"
     d="M 102148340,53196436 A 1260000,1260000 0 0 1 100888340,54456436 1260000,1260000 0 0 1 99628344,53196436 1260000,1260000 0 0 1 100888340,51936436 1260000,1260000 0 0 1 102148340,53196436 Z" />
  <path
     id="circle1676"
     style="stroke:#000000;stroke-linecap:round;stroke-linejoin:round;fill:none;stroke-width:99999.99992814;stroke-miterlimit:4;stroke-dasharray:none"
     d="M 113141650,53580328 A 1260000,1260000 0 0 1 111881650,54840328 1260000,1260000 0 0 1 110621650,53580328 1260000,1260000 0 0 1 111881650,52320328 1260000,1260000 0 0 1 113141650,53580328 Z" />
  <path
     id="circle1678"
     style="stroke:#000000;stroke-linecap:round;stroke-linejoin:round;fill:none;stroke-width:99999.99992814;stroke-miterlimit:4;stroke-dasharray:none"
     d="M 62220200,49951816 A 2250000,2250000 0 0 1 59970200,52201816 2250000,2250000 0 0 1 57720200,49951816 2250000,2250000 0 0 1 59970200,47701816 2250000,2250000 0 0 1 62220200,49951816 Z" />
  <path
     id="circle1680"
     style="stroke:#000000;stroke-linecap:round;stroke-linejoin:round;fill:none;stroke-width:99999.99992814;stroke-miterlimit:4;stroke-dasharray:none"
     d="M 81270200,30901818 A 2250000,2250000 0 0 1 79020200,33151818 2250000,2250000 0 0 1 76770200,30901818 2250000,2250000 0 0 1 79020200,28651818 2250000,2250000 0 0 1 81270200,30901818 Z" />
  <path
     id="circle1682"
     style="stroke:#000000;stroke-linecap:round;stroke-linejoin:round;fill:none;stroke-width:99999.99992814;stroke-miterlimit:4;stroke-dasharray:none"
     d="M 43170200,30901818 A 2250000,2250000 0 0 1 40920200,33151818 2250000,2250000 0 0 1 38670200,30901818 2250000,2250000 0 0 1 40920200,28651818 2250000,2250000 0 0 1 43170200,30901818 Z" />
  <path
     id="circle1684"
     style="stroke:#000000;stroke-linecap:round;stroke-linejoin:round;fill:none;stroke-width:99999.99992814;stroke-miterlimit:4;stroke-dasharray:none"
     d="M 62220200,11851818 A 2250000,2250000 0 0 1 59970200,14101818 2250000,2250000 0 0 1 57720200,11851818 2250000,2250000 0 0 1 59970200,9601818 2250000,2250000 0 0 1 62220200,11851818 Z" />
  <path
     id="path1690"
     style="fill:none;fill-opacity:0;stroke:#000000;stroke-width:99999.99992814;stroke-linecap:round;stroke-linejoin:round;stroke-opacity:1;stroke-miterlimit:4;stroke-dasharray:none"
     d="M 70730001,17875000 H 69420001 M 70075001,25375001 A 1444060,1444060 0 0 0 68575001,26625000 M 66575001,20875000 A 494946,494946 0 0 0 67075001,20375000 M 73095001,19395000 V 19875000 M 72575001,18875000 73095001,19395000 M 62075001,22025000 V 20875000 M 73095001,19875000 H 75655001 M 68575001,27575000 H 62075001 M 62075001,20875000 H 66575001 M 68575001,27575000 V 26625000 M 62075001,27575000 V 26625000 M 59500001,26625000 V 22025000 M 67075001,20375000 V 19375000 M 75655001,24475000 H 72625001 M 75655001,24475000 V 19875000 M 71675001,25375000 H 70075001 M 62075001,26625000 H 59500001 M 67575001,18875000 H 72575001 M 67075001,19375000 67575001,18875000 M 72625001,24475000 71675001,25375000 M 59500001,22025000 H 62075001" />
  <path
     id="path1696"
     style="fill:none;fill-opacity:0;stroke:#000000;stroke-width:99999.99992814;stroke-linecap:round;stroke-linejoin:round;stroke-opacity:1;stroke-miterlimit:4;stroke-dasharray:none"
     d="M 70730001,17875000 A 900000,900000 0 0 0 70730001,16075000 M 69420001,16075000 A 900000,900000 0 0 0 69420001,17875000 M 70730001,16075000 H 69420001" />
  <path
     id="circle1700"
     style="stroke:#000000;stroke-linecap:round;stroke-linejoin:round;fill:none;stroke-width:99999.99992814;stroke-miterlimit:4;stroke-dasharray:none"
     d="M 76835000,11075000 A 1260000,1260000 0 0 1 75575000,12335000 1260000,1260000 0 0 1 74315000,11075000 1260000,1260000 0 0 1 75575000,9815000 1260000,1260000 0 0 1 76835000,11075000 Z" />
  <path
     id="circle1702"
     style="stroke:#000000;stroke-linecap:round;stroke-linejoin:round;fill:none;stroke-width:99999.99992814;stroke-miterlimit:4;stroke-dasharray:none"
     d="M 72135000,11075000 A 2060000,2060000 0 0 1 70075000,13135000 2060000,2060000 0 0 1 68015000,11075000 2060000,2060000 0 0 1 70075000,9015000 2060000,2060000 0 0 1 72135000,11075000 Z" />
  <path
     id="circle1704"
     style="stroke:#000000;stroke-linecap:round;stroke-linejoin:round;fill:none;stroke-width:99999.99992814;stroke-miterlimit:4;stroke-dasharray:none"
     d="M 65835000,11075000 A 1260000,1260000 0 0 1 64575000,12335000 1260000,1260000 0 0 1 63315000,11075000 1260000,1260000 0 0 1 64575000,9815000 1260000,1260000 0 0 1 65835000,11075000 Z" />
  <path
     d="M 118806160,6102646 117075000,12345000"
     id="path1834"
     style="fill:none;fill-opacity:0;stroke:#000000;stroke-width:99999.99992814;stroke-linecap:round;stroke-linejoin:round;stroke-opacity:1;stroke-miterlimit:4;stroke-dasharray:none" />
  <path
     d="M 126017490,14824972 127751600,8571972"
     id="path1838"
     style="fill:none;fill-opacity:0;stroke:#000000;stroke-width:99999.99992814;stroke-linecap:round;stroke-linejoin:round;stroke-opacity:1;stroke-miterlimit:4;stroke-dasharray:none" />
  <path
     d="M 117075000,12345000 126017490,14824972"
     id="path1846"
     style="fill:none;fill-opacity:0;stroke:#000000;stroke-width:99999.99992814;stroke-linecap:round;stroke-linejoin:round;stroke-opacity:1;stroke-miterlimit:4;stroke-dasharray:none" />
  <metadata
     id="metadata2797">
    <rdf:RDF>
      <cc:Work
         rdf:about="">
        <dc:title>SVG Picture created as Wubbo-brd.svg date 2022/07/02 23:12:09 </dc:title>
      </cc:Work>
    </rdf:RDF>
  </metadata>
</svg>
