M48
; DRILL file {KiCad 6.0.4-6f826c9f35~116~ubuntu20.04.1} date vr 20 mei 2022 17:44:34 CEST
; FORMAT={-:-/ absolute / metric / decimal}
; #@! TF.CreationDate,2022-05-20T17:44:34+02:00
; #@! TF.GenerationSoftware,Kicad,Pcbnew,6.0.4-6f826c9f35~116~ubuntu20.04.1
; #@! TF.FileFunction,Plated,1,2,PTH
FMAT,2
METRIC
; #@! TA.AperFunction,Plated,PTH,ViaDrill
T1C0.200
; #@! TA.AperFunction,Plated,PTH,ComponentDrill
T2C0.200
; #@! TA.AperFunction,Plated,PTH,ComponentDrill
T3C0.300
; #@! TA.AperFunction,Plated,PTH,ViaDrill
T4C0.400
; #@! TA.AperFunction,Plated,PTH,ComponentDrill
T5C0.400
; #@! TA.AperFunction,Plated,PTH,ComponentDrill
T6C0.500
; #@! TA.AperFunction,Plated,PTH,ComponentDrill
T7C0.600
; #@! TA.AperFunction,Plated,PTH,ComponentDrill
T8C0.635
; #@! TA.AperFunction,Plated,PTH,ComponentDrill
T9C0.800
; #@! TA.AperFunction,Plated,PTH,ComponentDrill
T10C2.200
%
G90
G05
T1
X103.19Y32.53
X105.9Y32.95
X105.95Y42.375
X106.4Y7.55
X106.4Y6.5
X106.925Y42.1
X106.95Y32.9
X108.15Y18.675
X108.925Y15.275
X108.975Y31.15
X109.125Y24.725
X109.75Y26.5
X110.0Y4.0
X110.86Y29.715
X111.1Y20.15
X111.1Y4.0
X112.2Y17.6
X112.2Y4.0
X113.27Y17.6
X113.3Y4.0
X113.51Y13.935
X114.34Y4.0
X114.37Y17.6
X117.7Y4.0
X117.72Y17.6
X118.45Y4.0
X118.8Y17.6
X119.55Y4.0
X119.92Y17.6
X120.56Y4.0
X121.0Y17.6
X121.19Y24.44
T2
X114.1Y27.787
X114.1Y26.212
X116.04Y27.787
X116.04Y26.212
T3
X114.755Y41.772
X115.698Y45.371
T4
X104.5Y43.475
X105.19Y37.195
X107.675Y29.85
X107.96Y37.205
X108.975Y22.875
X109.225Y42.075
X113.16Y35.12
X116.5Y35.9
X116.51Y31.98
X117.225Y33.975
X121.78Y26.9
T5
X-6.77Y-7.155
X-6.287Y-5.988
X-6.287Y-8.322
X-5.12Y-5.505
X-5.12Y-8.805
X-3.953Y-5.988
X-3.953Y-8.322
X-3.47Y-7.155
X-3.46Y44.585
X-2.977Y45.752
X-2.977Y43.418
X-1.81Y46.235
X-1.81Y42.935
X-0.643Y45.752
X-0.643Y43.418
X-0.16Y44.585
X25.009Y27.045
X25.492Y28.212
X25.492Y25.878
X26.659Y28.695
X26.659Y25.395
X27.825Y28.212
X27.825Y25.878
X28.309Y27.045
X44.059Y46.095
X44.059Y7.995
X44.542Y47.262
X44.542Y44.928
X44.542Y9.162
X44.542Y6.828
X45.709Y47.745
X45.709Y44.445
X45.709Y9.645
X45.709Y6.345
X46.875Y47.262
X46.875Y44.928
X46.875Y9.162
X46.875Y6.828
X47.359Y46.095
X47.359Y7.995
X63.109Y27.045
X63.592Y28.212
X63.592Y25.878
X64.759Y28.695
X64.759Y25.395
X65.925Y28.212
X65.925Y25.878
X66.409Y27.045
X85.56Y50.945
X86.043Y52.112
X86.043Y49.778
X87.21Y52.595
X87.21Y49.295
X88.377Y52.112
X88.377Y49.778
X88.86Y50.945
X94.23Y-12.595
X94.713Y-11.428
X94.713Y-13.762
X95.88Y-10.945
X95.88Y-14.245
X97.047Y-11.428
X97.047Y-13.762
X97.53Y-12.595
T6
X67.74Y3.88
X70.24Y3.88
T9
X115.14Y14.13
X115.14Y12.13
X115.14Y10.13
X115.14Y8.13
X118.07Y14.15
X118.07Y12.15
X118.07Y10.15
X118.07Y8.15
X122.629Y30.024
X123.011Y28.061
X123.392Y26.098
X123.774Y24.135
T10
X-5.12Y-7.155
X-1.81Y44.585
X26.659Y27.045
X45.709Y46.095
X45.709Y7.995
X64.759Y27.045
X87.21Y50.945
X95.88Y-12.595
T7
G00X102.115Y46.761
M15
G01X101.901Y45.99
M16
G05
G00X103.237Y50.808
M15
G01X102.916Y49.652
M16
G05
G00X112.946Y43.757
M15
G01X112.732Y42.986
M16
G05
G00X114.068Y47.804
M15
G01X113.747Y46.648
M16
G05
T8
G00X-5.815Y12.742
M15
G01X-6.448Y12.686
M16
G05
G00X-0.651Y11.085
M15
G01X-1.284Y11.03
M16
G05
G00X4.147Y13.613
M15
G01X3.514Y13.558
M16
G05
G00X12.116Y14.31
M15
G01X11.484Y14.255
M16
G05
G00X13.598Y-2.625
M15
G01X12.965Y-2.68
M16
G05
G00X17.28Y12.654
M15
G01X16.648Y12.599
M16
G05
G00X18.762Y-4.281
M15
G01X18.129Y-4.336
M16
G05
G00X22.078Y15.182
M15
G01X21.446Y15.127
M16
G05
G00X23.56Y-1.753
M15
G01X22.927Y-1.809
M16
G05
G00X29.836Y40.75
M15
G01X29.202Y40.717
M16
G05
G00X30.726Y23.774
M15
G01X30.092Y23.741
M16
G05
G00X31.616Y6.797
M15
G01X30.982Y6.764
M16
G05
G00X34.939Y38.915
M15
G01X34.305Y38.882
M16
G05
G00X35.829Y21.938
M15
G01X35.195Y21.905
M16
G05
G00X36.719Y4.962
M15
G01X36.085Y4.928
M16
G05
G00X39.823Y41.274
M15
G01X39.188Y41.241
M16
G05
G00X40.712Y24.297
M15
G01X40.078Y24.264
M16
G05
G00X41.602Y7.32
M15
G01X40.968Y7.287
M16
G05
G00X51.131Y43.072
M15
G01X50.496Y43.072
M16
G05
G00X51.131Y26.072
M15
G01X50.496Y26.072
M16
G05
G00X51.131Y9.072
M15
G01X50.496Y9.072
M16
G05
G00X56.131Y40.972
M15
G01X55.496Y40.972
M16
G05
G00X56.131Y23.972
M15
G01X55.496Y23.972
M16
G05
G00X56.131Y6.972
M15
G01X55.496Y6.972
M16
G05
G00X61.131Y43.072
M15
G01X60.496Y43.072
M16
G05
G00X61.131Y26.072
M15
G01X60.496Y26.072
M16
G05
G00X61.131Y9.072
M15
G01X60.496Y9.072
M16
G05
G00X69.265Y6.154
M15
G01X68.63Y6.165
M16
G05
G00X69.562Y23.152
M15
G01X68.927Y23.163
M16
G05
G00X69.859Y40.149
M15
G01X69.224Y40.16
M16
G05
G00X74.228Y3.967
M15
G01X73.593Y3.978
M16
G05
G00X74.525Y20.965
M15
G01X73.89Y20.976
M16
G05
G00X74.821Y37.962
M15
G01X74.186Y37.973
M16
G05
G00X78.545Y-17.273
M15
G01X77.922Y-17.152
M16
G05
G00X79.264Y5.98
M15
G01X78.629Y5.991
M16
G05
G00X79.56Y22.977
M15
G01X78.926Y22.988
M16
G05
G00X79.857Y39.974
M15
G01X79.222Y39.985
M16
G05
G00X83.053Y-20.289
M15
G01X82.429Y-20.167
M16
G05
G00X87.311Y0.924
M15
G01X86.676Y0.946
M16
G05
G00X87.904Y17.914
M15
G01X87.27Y17.936
M16
G05
G00X88.361Y-19.181
M15
G01X87.738Y-19.06
M16
G05
G00X88.498Y34.903
M15
G01X87.863Y34.926
M16
G05
G00X92.235Y-1.349
M15
G01X91.6Y-1.327
M16
G05
G00X92.828Y15.641
M15
G01X92.193Y15.663
M16
G05
G00X93.421Y32.63
M15
G01X92.787Y32.652
M16
G05
G00X97.305Y0.575
M15
G01X96.67Y0.597
M16
G05
G00X97.898Y17.565
M15
G01X97.264Y17.587
M16
G05
G00X98.492Y34.554
M15
G01X97.857Y34.577
M16
G05
G00X107.257Y-22.894
M15
G01X106.979Y-23.465
M16
G05
G00X111.336Y-19.321
M15
G01X111.058Y-19.891
M16
G05
G00X111.641Y-13.906
M15
G01X111.362Y-14.477
M16
G05
T0
M30
