M48
; DRILL file {KiCad 6.0.4-6f826c9f35~116~ubuntu20.04.1} date di 03 mei 2022 15:57:33 CEST
; FORMAT={-:-/ absolute / metric / decimal}
; #@! TF.CreationDate,2022-05-03T15:57:33+02:00
; #@! TF.GenerationSoftware,Kicad,Pcbnew,6.0.4-6f826c9f35~116~ubuntu20.04.1
; #@! TF.FileFunction,NonPlated,1,2,NPTH
FMAT,2
METRIC
; #@! TA.AperFunction,NonPlated,NPTH,ComponentDrill
T1C0.900
; #@! TA.AperFunction,NonPlated,NPTH,ComponentDrill
T2C1.702
; #@! TA.AperFunction,NonPlated,NPTH,ComponentDrill
T3C3.429
%
G90
G05
T1
X118.846Y38.644
X118.846Y38.644
X119.921Y35.843
X119.921Y35.843
T2
X-6.961Y16.456
X3.997Y17.415
X10.971Y18.025
X12.452Y1.089
X21.929Y18.983
X23.411Y2.048
X28.821Y44.502
X29.711Y27.526
X30.6Y10.549
X39.806Y45.078
X40.696Y28.101
X41.585Y11.125
X50.313Y46.872
X50.313Y29.872
X50.313Y12.872
X61.313Y46.872
X61.313Y29.872
X61.313Y12.872
X68.514Y9.968
X68.811Y26.965
X69.108Y43.963
X78.468Y-13.387
X79.513Y9.776
X79.809Y26.773
X80.106Y43.771
X86.627Y4.75
X87.22Y21.74
X87.813Y38.73
X89.266Y-15.486
X97.62Y4.366
X98.213Y21.356
X98.807Y38.346
X103.483Y-21.963
X108.305Y-12.076
T3
X-1.482Y16.935
X-1.482Y16.935
X16.45Y18.504
X16.45Y18.504
X17.932Y1.569
X17.932Y1.569
X34.313Y44.79
X34.313Y44.79
X35.203Y27.814
X35.203Y27.814
X36.093Y10.837
X36.093Y10.837
X55.813Y46.872
X55.813Y46.872
X55.813Y29.872
X55.813Y29.872
X55.813Y12.872
X55.813Y12.872
X74.013Y9.872
X74.013Y9.872
X74.31Y26.869
X74.31Y26.869
X74.607Y43.867
X74.607Y43.867
X83.867Y-14.436
X83.867Y-14.436
X92.123Y4.558
X92.123Y4.558
X92.717Y21.548
X92.717Y21.548
X93.31Y38.538
X93.31Y38.538
X105.894Y-17.02
X105.894Y-17.02
T0
M30
