<?xml version="1.0" encoding="UTF-8" standalone="no"?>
<svg
   version="1.1"
   width="16.624300cm"
   height="9.171940cm"
   viewBox="0 0 166243000 91719400"
   id="svg7542"
   sodipodi:docname="Wubbo-brd.svg"
   inkscape:version="1.1.2 (b8e25be833, 2022-02-05)"
   xmlns:inkscape="http://www.inkscape.org/namespaces/inkscape"
   xmlns:sodipodi="http://sodipodi.sourceforge.net/DTD/sodipodi-0.dtd"
   xmlns="http://www.w3.org/2000/svg"
   xmlns:svg="http://www.w3.org/2000/svg">
  <defs
     id="defs7546" />
  <sodipodi:namedview
     id="namedview7544"
     pagecolor="#ffffff"
     bordercolor="#666666"
     borderopacity="1.0"
     inkscape:pageshadow="2"
     inkscape:pageopacity="0.0"
     inkscape:pagecheckerboard="0"
     inkscape:document-units="cm"
     showgrid="false"
     inkscape:zoom="3.3981815"
     inkscape:cx="249.39809"
     inkscape:cy="173.328"
     inkscape:window-width="3440"
     inkscape:window-height="1387"
     inkscape:window-x="-8"
     inkscape:window-y="-8"
     inkscape:window-maximized="1"
     inkscape:current-layer="svg7542" />
  <title
     id="title5664">SVG Picture created as Wubbo-brd.svg date 2022/04/21 22:01:43 </title>
  <desc
     id="desc5666">Picture generated by PCBNEW </desc>
  <path
     style="fill:#aade87;stroke-width:0.294275"
     d="m 541.12898,344.7048 c -0.99468,-0.14301 -3.11346,-0.64052 -4.7084,-1.10553 -36.89512,-10.75675 -54.46637,-15.54346 -83.82557,-22.83548 -106.32079,-26.40718 -211.18932,-43.05345 -321.66411,-51.05923 -8.59743,-0.62304 -10.73768,-1.00172 -14.12301,-2.49888 -4.70857,-2.08235 -9.03268,-6.56603 -11.12379,-11.53428 -0.90509,-2.1504 -3.52482,-10.62832 -5.1666,-16.72007 -3.187365,-11.82653 -5.890319,-26.11488 -7.240002,-38.27209 -1.935677,-17.43551 -2.138965,-37.0933 -0.559781,-54.13027 2.709311,-29.22931 10.512713,-58.502582 22.803493,-85.543795 2.19346,-4.825863 7.85421,-15.920606 9.19021,-18.012257 2.25793,-3.53505 5.92699,-6.705057 9.7319,-8.408197 4.48463,-2.007397 32.9595,-9.753558 51.83278,-14.100329 44.91778,-10.345171 87.28093,-16.0908881 137.42644,-18.6391586 10.02194,-0.5092901 53.87626,-0.5061956 64.00482,0.00452 32.96066,1.6619742 59.6193,4.3895767 88.57679,9.0628176 11.16259,1.801447 29.29061,5.184714 29.63711,5.531228 0.0886,0.08857 -0.66785,3.481402 -1.68098,7.539621 -1.01313,4.058218 -1.79176,7.417717 -1.73028,7.465554 0.30098,0.234231 22.38888,5.521271 22.51975,5.39041 0.0833,-0.08325 1.01442,-3.572705 2.06928,-7.754337 1.05483,-4.181631 1.94172,-7.6287 1.97085,-7.660155 0.19046,-0.20578 3.71446,0.930531 3.71202,1.196937 -0.003,0.182395 -1.71857,6.549141 -3.81531,14.148324 -2.09671,7.599182 -3.75748,13.871422 -3.69059,13.938313 0.29683,0.296821 47.10813,12.639625 47.26907,12.463504 0.0991,-0.108408 1.79958,-6.156177 3.77891,-13.439485 1.97935,-7.283307 3.64939,-13.294042 3.71122,-13.357191 0.23765,-0.2427 3.34705,2.354051 4.66249,3.893812 0.75888,0.888258 1.97538,2.652566 2.70336,3.920685 2.28466,3.97975 7.52402,14.556907 7.38724,14.913238 -0.0719,0.187292 -3.88855,1.787183 -8.48141,3.555311 -4.5929,1.768128 -8.39788,3.249891 -8.45553,3.292805 -0.0577,0.04292 2.78947,7.565332 6.32692,16.716479 4.51988,11.692657 6.56295,16.639758 6.87314,16.642848 0.24278,0.0024 4.14928,-1.370212 8.68112,-3.050287 5.59443,-2.074012 8.30179,-2.947421 8.43312,-2.720564 0.327,0.564838 2.49457,8.288469 3.8927,13.870769 2.44543,9.76377 4.92767,23.54872 6.16006,34.20947 l 0.14458,1.25067 h -5.71038 -5.71034 v -16.62654 -16.62654 h -0.88283 -0.88283 v -2.06602 -2.06601 l -5.95906,0.0797 -5.95907,0.0797 -0.087,1.98636 -0.087,1.98635 h -2.78216 -2.78217 v -6.62119 -6.621181 H 557.8042 528.08825 l -0.0794,56.574371 -0.0794,56.57438 -0.7745,2.79899 c -0.93392,3.37505 -2.11072,6.03956 -3.85557,8.7296 -4.8031,7.40504 -13.58659,12.49816 -22.00182,12.75778 -1.05204,0.0325 -22.67022,0.0438 -48.0404,0.0252 l -46.12762,-0.0338 v -12.9481 -12.94811 H 330.17662 253.2237 v 28.10327 28.10327 h 76.95292 76.95292 v -7.05345 -7.05345 l 48.48182,-0.10576 c 51.98168,-0.11339 48.99694,-0.0302 54.80872,-1.52725 4.89386,-1.26058 10.7969,-4.1281 15.19745,-7.38248 10.53202,-7.78878 17.40784,-20.22049 18.2578,-33.01058 l 0.18086,-2.72204 h 36.74 c 29.19665,0 36.73968,0.0755 36.73848,0.36784 0,0.20232 -0.39942,2.8839 -0.88577,5.95907 -5.96961,37.7462 -19.79638,73.38293 -40.76098,105.05619 -6.2808,9.48899 -13.72711,19.31916 -16.90522,22.31723 -3.37362,3.1825 -7.68596,5.18168 -12.47155,5.78174 -2.65774,0.33327 -2.8351,0.33212 -5.38214,-0.0341 z m 9.38819,-33.12854 c 0.8188,-0.73054 3.16131,-5.85372 3.16131,-6.91387 0,-1.38719 -1.40525,-2.58906 -3.02712,-2.58906 -1.74693,0 -2.39813,0.69316 -3.97291,4.22882 -1.32145,2.96688 -1.39019,3.84664 -0.39089,5.002 1.0161,1.1748 3.06982,1.30693 4.22961,0.27211 z m -13.57511,-5.09425 c 3.02232,-0.83951 4.04352,-4.66179 1.83539,-6.86988 -2.94072,-2.94075 -7.96861,-0.0159 -6.86202,3.99187 0.40784,1.47708 1.10595,2.24432 2.48804,2.73446 1.44115,0.51107 1.25361,0.50047 2.53859,0.14355 z m -75.05476,-7.91735 c 0.69246,-0.69246 0.8602,-1.11501 0.8602,-2.16693 0,-1.97071 -0.80858,-2.61721 -4.05073,-3.23872 -3.93042,-0.75345 -4.86298,-0.68846 -5.78133,0.40292 -1.21859,1.44819 -0.97431,3.63797 0.49556,4.44251 0.77012,0.42152 5.22521,1.35773 6.63708,1.39475 0.71115,0.0185 1.21439,-0.2097 1.83922,-0.83453 z m 103.42847,-0.0823 c 1.06151,-0.48367 3.66502,-5.63508 3.66502,-7.25176 0,-1.6134 -1.11116,-2.69395 -2.77028,-2.69395 -0.67024,0 -1.52947,0.21774 -1.9094,0.48385 -0.85164,0.59651 -3.26575,5.70686 -3.26575,6.91314 0,1.16783 0.42917,1.91426 1.40519,2.44392 0.98729,0.53579 1.85953,0.56757 2.87522,0.1048 z m -83.41497,-3.93607 c 0.93253,-0.84394 1.24331,-2.27795 0.74967,-3.45937 -0.55577,-1.33012 -1.07973,-1.58751 -4.63457,-2.27662 -3.36006,-0.65134 -4.08978,-0.55666 -5.11677,0.66388 -1.00712,1.1969 -0.9792,2.61038 0.0744,3.76751 0.68263,0.74968 1.2467,0.97732 3.60487,1.45477 3.09269,0.62618 4.50868,0.58622 5.32238,-0.15017 z m 65.5656,-3.79117 c 3.02335,-1.0667 4.74542,-3.58057 4.73423,-6.91108 -0.0135,-4.06079 -2.66898,-6.97309 -6.66756,-7.31267 -2.92674,-0.24854 -5.58281,1.196 -7.00557,3.81007 -2.12064,3.8963 -0.2102,8.95599 3.94199,10.4402 1.42149,0.50812 3.51302,0.49702 4.99691,-0.0265 z m -103.18266,-3.12223 c 1.60215,-0.72999 2.00357,-3.33062 0.71329,-4.62092 -0.75764,-0.75762 -4.79165,-1.79718 -7.06484,-1.82059 -2.43353,-0.0251 -3.78219,2.98769 -2.17425,4.85702 1.07331,1.24781 6.89154,2.3291 8.5258,1.58449 z m -84.67964,-5.60516 c 0.7281,-0.20156 1.69761,-0.84637 2.54167,-1.69044 4.3209,-4.3209 1.38143,-11.34602 -4.74874,-11.34913 -4.00118,-0.002 -6.59941,2.59659 -6.59941,6.60039 0,4.74814 4.09613,7.74318 8.80648,6.43918 z m 124.94979,-0.63684 c 0.62531,-0.42007 1.15418,-1.11431 1.4117,-1.85313 1.51343,-4.34203 -3.69362,-7.57544 -6.86635,-4.26381 -1.07069,1.11754 -1.3589,3.27668 -0.62651,4.69301 1.06451,2.05849 4.08404,2.76554 6.08116,1.42393 z m -19.57417,-0.73743 c 2.62985,-1.34165 4.05764,-3.72017 4.03539,-6.72234 -0.03,-4.04947 -3.19674,-7.19129 -7.21456,-7.1579 -3.05222,0.0254 -5.30705,1.37852 -6.55813,3.93561 -2.08903,4.2698 -0.0359,9.00052 4.56041,10.50778 1.1658,0.3823 3.90845,0.084 5.17689,-0.56315 z m 101.91542,-2.90238 c 0.92638,-0.64886 3.26275,-5.6176 3.26275,-6.93886 0,-2.08474 -2.12882,-3.40526 -4.14399,-2.57055 -0.71567,0.29644 -1.1909,0.95699 -2.34928,3.26535 -1.68743,3.36257 -1.82009,4.48194 -0.69031,5.8246 0.62742,0.74566 0.97932,0.90541 1.99445,0.90541 0.67792,0 1.54479,-0.21868 1.92638,-0.48595 z m -123.04198,-4.36363 c 1.81847,-1.53016 2.04509,-4.42813 0.47443,-6.06753 -3.15148,-3.28945 -8.36233,-0.0432 -6.85811,4.27241 0.57369,1.64594 1.95357,2.52485 3.96403,2.52485 1.22318,0 1.73631,-0.15476 2.41965,-0.72973 z m 65.91422,-0.0216 c 3.6451,-1.52264 5.20823,-6.23125 3.2018,-9.64473 -1.97453,-3.35923 -6.39539,-4.36024 -9.62991,-2.1805 -3.38281,2.27968 -3.91407,7.30299 -1.08041,10.21595 1.89284,1.94581 5.07181,2.62716 7.50852,1.60928 z m 46.59327,-4.76666 c 2.42142,-1.40783 2.37012,-5.52195 -0.0869,-6.97337 -2.1525,-1.27151 -5.11844,-0.25079 -6.00321,2.06598 -0.85687,2.24362 0.15138,4.48099 2.37801,5.27708 1.2758,0.45613 2.50175,0.33404 3.71213,-0.36969 z M 128.09266,252.76665 c 4.2598,-1.77942 5.37596,-7.36329 2.16402,-10.82595 -3.23167,-3.48392 -9.23578,-2.43601 -11.05968,1.93029 -0.56246,1.34648 -0.59301,4.04439 -0.0602,5.31585 0.60039,1.43273 1.81725,2.72886 3.20853,3.41753 1.51729,0.75105 4.15928,0.82564 5.74733,0.16228 z m 462.01181,-12.65383 c 2.4441,-1.02095 3.87245,-3.26475 3.88322,-6.10005 0.0154,-4.05631 -2.58582,-6.6853 -6.61471,-6.6853 -3.99923,0 -6.62119,2.62195 -6.62119,6.62118 0,3.94061 2.63605,6.59984 6.55706,6.61473 0.93586,0.004 2.19388,-0.1992 2.79562,-0.45056 z M 215.97942,238.6378 c 2.24565,-0.20519 3.13747,-0.6361 3.65154,-1.76437 0.4524,-0.9929 0.42811,-1.75295 -0.0879,-2.7508 -0.6703,-1.29621 -1.7619,-1.58627 -5.07328,-1.34804 -3.22603,0.23209 -4.55715,0.70386 -5.05232,1.79064 -1.10405,2.42314 0.63048,4.70232 3.34339,4.39321 0.64741,-0.0738 2.09576,-0.21805 3.21857,-0.32064 z m -19.1111,-6.29767 c 1.66975,-0.21501 2.18354,-0.4107 2.72205,-1.03675 0.97052,-1.1283 0.91771,-3.05319 -0.11202,-4.08292 -0.67203,-0.67203 -1.0165,-0.77453 -2.57491,-0.76619 -0.9895,0.005 -2.7253,0.12889 -3.85734,0.27466 -1.66975,0.21501 -2.18354,0.41069 -2.72204,1.03675 -0.97052,1.1283 -0.91771,3.05319 0.11202,4.08292 0.67203,0.67203 1.01649,0.77453 2.5749,0.76619 0.9895,-0.005 2.7253,-0.12889 3.85734,-0.27466 z m 39.64449,-3.72091 c 1.03828,-0.53691 1.40856,-1.26172 1.40856,-2.75716 0,-0.89213 -0.18967,-1.39949 -0.72231,-1.93213 -0.88234,-0.88234 -1.05068,-0.89943 -5.55852,-0.56417 -2.26856,0.16872 -2.71727,0.29618 -3.49786,0.99365 -0.73894,0.66023 -0.89547,1.02474 -0.89547,2.08523 0,1.08126 0.15338,1.42218 0.96679,2.14896 l 0.96679,0.86383 3.26473,-0.2116 c 1.81618,-0.11771 3.62083,-0.39574 4.06729,-0.62661 z m 260.09895,-1.85767 c 0.69519,-0.69518 0.86019,-1.11353 0.86019,-2.1809 0,-1.0979 -0.14484,-1.44259 -0.85855,-2.04313 -0.75052,-0.63152 -1.25979,-0.74842 -4.04775,-0.92911 -3.48863,-0.22611 -4.51003,-0.016 -5.20678,1.07109 -0.74405,1.1609 -0.72598,2.80864 0.0412,3.75611 0.68837,0.85011 1.96096,1.11957 5.45963,1.15601 2.82151,0.0294 2.91273,0.009 3.75201,-0.83007 z M 113.84934,223.4758 c 1.51881,-0.42172 3.76563,-2.68888 4.23666,-4.27504 0.71656,-2.4129 0.13003,-5.08999 -1.49778,-6.83639 -1.84989,-1.98465 -5.5883,-2.58555 -8.04584,-1.29325 -4.03194,2.12019 -4.84815,7.61456 -1.60203,10.78431 1.81232,1.76968 4.28372,2.3493 6.90899,1.62037 z m 101.23157,-2.98208 c 0.7352,-0.21833 1.7538,-0.89995 2.59172,-1.73431 5.43893,-5.41581 0.0946,-14.3201 -7.31111,-12.1811 -6.19082,1.7881 -6.99608,10.63541 -1.22956,13.509 1.72898,0.86158 3.91364,1.01083 5.94895,0.40641 z m 300.49384,-0.70052 c 1.41076,-0.92437 1.53653,-3.35871 0.23672,-4.58134 -0.67172,-0.63184 -1.02479,-0.69291 -4.52157,-0.78212 -3.7262,-0.0951 -3.80609,-0.0836 -4.53846,0.64875 -0.55606,0.55603 -0.74551,1.05296 -0.74551,1.95532 0,2.6278 0.988,3.20317 5.52801,3.21927 2.56602,0.009 3.48457,-0.0954 4.04081,-0.45988 z m -322.61878,-0.41116 c 0.32951,0 1.11322,-0.51412 1.74159,-1.14248 1.03493,-1.03493 1.14248,-1.2869 1.14248,-2.67664 0,-2.68838 -1.54809,-4.25531 -4.16512,-4.21583 -3.05514,0.0461 -4.92175,3.07085 -3.60607,5.84345 0.25769,0.54303 0.65371,1.14102 0.88004,1.32886 0.60943,0.50578 2.56532,1.15267 3.01607,0.99753 0.21555,-0.0742 0.66151,-0.13489 0.99101,-0.13489 z m 284.51116,-0.73873 c 1.0611,-0.54872 1.46549,-1.26883 1.46549,-2.60968 0,-2.2678 -1.69449,-3.08813 -6.42991,-3.11282 -2.40914,-0.0126 -2.47676,0.007 -3.45773,0.98771 -1.16756,1.16756 -1.28754,2.20357 -0.42002,3.6264 0.59317,0.97285 1.05245,1.17319 3.09793,1.35137 3.00802,0.26203 4.92442,0.18096 5.74424,-0.24298 z M 235.47931,215.2741 c 2.57478,-1.56993 2.4369,-5.72599 -0.23519,-7.08919 -1.43505,-0.73211 -2.80529,-0.72765 -4.0202,0.0131 -3.64507,2.22243 -2.23459,7.64702 1.98905,7.6497 0.79675,5.8e-4 1.69951,-0.22798 2.26634,-0.5736 z m 259.6681,-5.94409 c 4.44126,-1.51377 6.43483,-6.46554 4.23094,-10.50904 -1.38662,-2.54405 -3.56705,-3.83792 -6.46766,-3.83792 -4.18801,0 -7.20974,3.03907 -7.20974,7.25113 0,2.18419 0.54823,3.67272 1.85414,5.03412 2.01434,2.09997 5.05644,2.92606 7.59232,2.06171 z m -67.4536,-2.04515 c 1.87691,-0.6543 2.37159,-3.14533 0.9423,-4.74501 l -0.85832,-0.96062 -3.49843,-0.10328 c -3.42762,-0.1012 -3.5172,-0.0875 -4.4286,0.67944 -1.15841,0.97473 -1.47997,2.3811 -0.83124,3.63559 0.25596,0.49495 0.63184,1.00527 0.8353,1.13404 0.94633,0.59891 6.43094,0.85068 7.83899,0.35984 z m 88.55101,-0.9921 c 1.81847,-1.53016 2.04509,-4.42812 0.47443,-6.06753 -3.15148,-3.28944 -8.36233,-0.0432 -6.85811,4.27241 0.57369,1.64594 1.95357,2.52485 3.96403,2.52485 1.22318,0 1.73631,-0.15475 2.41965,-0.72973 z m -41.64831,-1.39708 c 2.32451,-1.62281 2.19361,-5.2908 -0.24581,-6.88918 -0.46922,-0.30744 -1.34784,-0.514 -2.1864,-0.514 -2.34102,0 -4.1165,1.73591 -4.11876,4.02695 -0.003,3.41441 3.73588,5.34155 6.55097,3.37623 z M 286.0211,203.36896 c 1.18652,-0.49575 1.63275,-1.2264 1.63275,-2.67338 0,-2.55411 -1.1861,-3.13083 -5.81125,-2.82561 -2.58185,0.17037 -3.42402,0.33508 -3.89561,0.76186 -1.26163,1.14176 -1.24879,3.58999 0.0243,4.63865 0.51093,0.42086 1.2126,0.51498 3.83908,0.51498 2.10563,0 3.55761,-0.14362 4.2107,-0.4165 z m 161.60066,-4.40961 c 1.04123,-1.04124 1.22995,-1.88903 0.71938,-3.2319 -0.47201,-1.24156 -1.40113,-1.59718 -4.74642,-1.81672 -2.59903,-0.17057 -3.28664,-0.12287 -4.15266,0.28808 -1.80541,0.85672 -2.25953,3.00047 -0.96222,4.54225 0.89239,1.06052 1.18084,1.12724 5.09564,1.17875 l 3.04574,0.0401 z m -38.5937,-0.005 c 1.18652,-0.49576 1.63276,-1.2264 1.63276,-2.67339 0,-2.42879 -1.22089,-3.08989 -5.70635,-3.08989 -2.84891,0 -3.14121,0.0542 -3.94723,0.73247 -0.99771,0.83952 -1.28242,1.86531 -0.90104,3.24656 0.37302,1.35097 1.31938,1.86051 3.68073,1.9818 1.1101,0.057 2.5192,0.12961 3.13132,0.16131 0.61216,0.0317 1.56157,-0.12978 2.10981,-0.35886 z m -142.05121,-2.61141 c 0.80934,-0.36876 1.54965,-1.6228 1.54802,-2.62227 -0.002,-1.03523 -1.06404,-2.55021 -1.94299,-2.77081 -0.43188,-0.1084 -2.18421,-0.11786 -3.89407,-0.021 -2.39788,0.13579 -3.28031,0.3037 -3.85871,0.73423 -1.60268,1.19294 -1.56229,3.76531 0.0753,4.79707 0.85101,0.53617 1.24571,0.57416 4.15121,0.39951 1.76592,-0.10615 3.53047,-0.33867 3.92121,-0.5167 z m 93.03607,-0.96254 c 1.12666,-0.94802 1.43719,-2.36717 0.79127,-3.61623 -0.25877,-0.50042 -0.72527,-1.0462 -1.03666,-1.21285 -0.31138,-0.16666 -2.17413,-0.30301 -4.13944,-0.30301 -3.55705,0 -3.57719,0.004 -4.43347,0.86019 -0.67462,0.67462 -0.86019,1.12388 -0.86019,2.08256 0,0.95868 0.18557,1.40794 0.86019,2.08256 0.85516,0.85516 0.88083,0.86019 4.39155,0.86019 3.35962,0 3.5749,-0.0366 4.42675,-0.75342 z m -35.66724,-0.15582 c 2.52953,-1.22453 3.85554,-3.82347 3.53506,-6.92862 -0.20583,-1.99426 -1.19292,-3.60453 -2.9035,-4.73654 -1.68522,-1.11522 -4.8757,-1.31397 -6.64047,-0.41365 -4.23753,2.16182 -5.07509,7.73746 -1.65021,10.98547 1.87356,1.7768 5.25124,2.25897 7.65912,1.09334 z m -20.96575,-0.54151 c 1.79482,-0.29455 2.81325,-1.327 2.81325,-2.852 0,-2.49373 -1.30459,-3.19825 -5.42214,-2.92816 -1.63059,0.10696 -3.33511,0.33966 -3.78784,0.51711 -0.87878,0.34445 -1.6782,1.58009 -1.6782,2.59394 0,0.82648 0.75981,2.2533 1.3978,2.6249 0.61064,0.35567 4.61755,0.38219 6.67713,0.0442 z m 124.64311,-6.02663 c 1.5302,-0.78628 3.07912,-2.64764 3.51788,-4.22749 0.72789,-2.62093 0.18725,-5.04272 -1.57193,-7.04124 -1.55459,-1.7661 -3.04901,-2.42878 -5.47725,-2.42878 -2.43327,0 -3.92289,0.66295 -5.48996,2.44323 -1.44854,1.64564 -2.00993,3.43004 -1.77999,5.65792 0.53247,5.15921 6.06919,8.0279 10.80125,5.59636 z m -86.83371,-1.2299 c 0.78052,-0.65677 0.9054,-0.95757 0.9054,-2.1809 0,-1.22334 -0.12488,-1.52414 -0.9054,-2.18091 -0.86255,-0.72578 -1.07041,-0.76184 -4.39155,-0.76184 -3.32114,0 -3.529,0.0361 -4.39155,0.76184 -0.76336,0.64233 -0.9054,0.96905 -0.9054,2.08257 0,1.06737 0.165,1.48571 0.86019,2.1809 0.85516,0.85516 0.88083,0.86019 4.39155,0.86019 3.36978,0 3.57278,-0.0349 4.43676,-0.76185 z m 37.36867,0.33431 c 1.69379,-0.87589 1.93355,-3.66423 0.41762,-4.85666 -0.6758,-0.53159 -1.18441,-0.6013 -4.38677,-0.6013 -3.33299,0 -3.68388,0.0529 -4.39264,0.66257 -1.46293,1.25837 -1.20826,4.00641 0.449,4.84494 1.06273,0.53772 6.84719,0.5015 7.91279,-0.0496 z m 68.20592,-1.35772 c 1.26138,-0.47792 2.12549,-1.4351 2.47827,-2.74521 1.15544,-4.29099 -4.36699,-7.07123 -7.24703,-3.64849 -0.94959,1.12851 -1.01322,3.44339 -0.1343,4.885 0.95142,1.5605 3.05666,2.20829 4.90306,1.5087 z m -40.00225,-1.87331 c 0.82736,-0.90072 0.95639,-1.25129 0.95639,-2.59855 0,-2.20759 -0.92296,-3.45983 -2.97647,-4.03835 -1.50289,-0.4234 -2.82116,-0.0724 -3.94358,1.05001 -1.3037,1.30369 -1.56648,2.86417 -0.7813,4.63924 1.19349,2.69806 4.68636,3.1888 6.74496,0.94765 z m -123.19157,1.00496 c 0.58633,-0.16286 1.66037,-0.81925 2.38676,-1.45864 4.56383,-4.01725 2.72108,-11.37135 -3.18028,-12.69202 -5.4605,-1.222 -10.18553,3.84939 -8.66069,9.29558 0.46502,1.6609 2.37729,3.88157 3.96263,4.6017 1.32066,0.5999 3.82765,0.71557 5.49158,0.25338 z m -21.23392,-2.27596 c 3.76915,-1.90138 2.28931,-7.72734 -1.96173,-7.72316 -2.29103,0.002 -4.02694,1.77773 -4.02694,4.11875 0,3.18384 3.11083,5.05617 5.98867,3.60441 z m 41.40971,-2.11637 c 1.45339,-0.65986 2.24737,-1.97063 2.24958,-3.71381 0.003,-2.333 -1.69471,-4.00305 -4.06928,-4.00305 -3.21122,0 -5.08135,3.24624 -3.55931,6.17838 0.51782,0.99756 2.38429,2.09744 3.55931,2.09744 0.3237,0 1.14257,-0.25153 1.8197,-0.55896 z m -160.88328,-0.59127 c 1.84066,-0.213 2.30837,-0.38146 2.86918,-1.03345 0.97685,-1.13565 0.92715,-3.05725 -0.10577,-4.09018 -0.69913,-0.69913 -0.98274,-0.77336 -2.86919,-0.75098 -3.88422,0.0461 -5.48821,0.36976 -6.25609,1.26247 -0.99768,1.15987 -0.95411,2.96901 0.0979,4.06711 0.6851,0.71508 1.00947,0.82363 2.42777,0.81244 0.90037,-0.007 2.62664,-0.12744 3.83617,-0.26741 z m 215.17982,-2.71422 c 1.51096,-0.45269 3.71295,-2.41232 4.39304,-3.90952 0.61947,-1.36375 0.71385,-3.81965 0.21127,-5.49714 -0.44355,-1.48041 -2.05992,-3.35165 -3.55323,-4.11348 -3.97438,-2.02758 -9.13207,0.0528 -10.35698,4.17754 -0.57317,1.93008 -0.5782,2.7184 -0.0291,4.55902 1.15858,3.88338 5.28385,5.99733 9.33496,4.78358 z m -147.69484,-3.16342 c 1.77248,-0.18592 2.45834,-0.39406 3.01181,-0.91403 1.3776,-1.29418 1.21347,-3.58446 -0.32931,-4.59533 -0.87294,-0.57197 -1.43503,-0.60085 -5.25186,-0.26986 -2.33507,0.2025 -2.72097,0.3205 -3.45773,1.05725 -1.17954,1.17955 -1.16642,2.93696 0.0309,4.13425 0.96138,0.96138 1.72254,1.03599 5.99621,0.58772 z m 127.3461,-0.77002 c 3.71375,-3.55801 -0.90087,-9.23885 -5.23034,-6.43882 -1.49851,0.96913 -2.11816,4.07065 -1.11819,5.5968 1.3608,2.07685 4.60985,2.50777 6.34853,0.84202 z m 40.873,0.50477 c 1.93322,-1.0368 2.64174,-3.684 1.49111,-5.57118 -2.23398,-3.66402 -7.65274,-2.19642 -7.65274,2.07264 0,3.17401 3.28688,5.04029 6.16163,3.49854 z m -255.854,-0.0431 c 2.41713,-0.25202 2.71916,-0.35479 3.45773,-1.17651 1.34765,-1.49939 0.95224,-3.71393 -0.81266,-4.55143 -0.80428,-0.38165 -1.44231,-0.40519 -4.11611,-0.15185 -3.56208,0.33751 -4.07571,0.52813 -4.70569,1.74637 -1.10596,2.13868 0.24641,4.39023 2.64543,4.40436 0.48555,0.003 2.07464,-0.11906 3.5313,-0.27094 z m 38.829,-3.43446 c 2.60664,-0.31467 3.80136,-2.31882 2.67766,-4.49181 -0.69449,-1.34299 -1.69638,-1.57901 -5.28949,-1.24611 -3.37726,0.31291 -4.41275,0.7342 -4.89001,1.98951 -0.43944,1.15581 -0.33489,2.02481 0.34805,2.89303 1.08272,1.37646 1.96416,1.48186 7.15379,0.85538 z m 30.3913,-2.65072 c 1.74586,-0.23423 2.72995,-1.27902 2.72995,-2.89833 0,-1.4787 -0.81069,-2.66962 -1.98995,-2.92329 -1.04704,-0.22523 -6.68388,0.31904 -7.42786,0.71721 -1.81322,0.9704 -1.55792,4.48121 0.38601,5.30817 0.60978,0.2594 3.5608,0.16399 6.30185,-0.20376 z m 36.69673,-3.21104 c 1.70777,-0.156 2.17261,-0.32083 2.86918,-1.0174 1.19661,-1.1966 1.17019,-2.93704 -0.0633,-4.17053 l -0.89454,-0.89454 -3.15174,0.21181 c -4.58177,0.30791 -5.71193,0.94918 -5.71193,3.24106 0,2.00714 1.50143,3.19024 3.73729,2.94491 0.6474,-0.071 2.09417,-0.21293 3.21504,-0.31531 z m 269.68239,-2.01898 c 1.55845,-0.80591 1.99506,-3.10846 0.84336,-4.44741 -0.79746,-0.9271 -2.32501,-1.28194 -5.59729,-1.30021 -2.67102,-0.0149 -3.77781,0.42955 -4.31816,1.73406 -0.46825,1.13046 -0.18489,2.71002 0.61621,3.43501 1.00833,0.91252 7.01525,1.32352 8.45588,0.57855 z m -356.17727,-0.87173 c 1.73168,-0.82004 3.17391,-2.24905 3.81066,-3.77572 0.62873,-1.50743 0.57787,-4.49536 -0.102,-5.9923 -2.86181,-6.30113 -12.45787,-5.26436 -13.86166,1.49762 -1.23862,5.96644 4.73787,10.83475 10.153,8.2704 z m -21.64736,-1.30657 c 1.42439,-0.76391 2.14473,-2.20425 1.98953,-3.97815 -0.10159,-1.16129 -0.32436,-1.62559 -1.20011,-2.50134 -0.99732,-0.99732 -1.20277,-1.07536 -2.8312,-1.07536 -1.62588,0 -1.8348,0.079 -2.82272,1.06689 -3.42371,3.42371 0.59185,8.77941 4.8645,6.48796 z m 41.19574,-3.50902 c 2.16048,-1.10166 2.94384,-3.54233 1.79373,-5.58867 -0.81328,-1.44703 -1.94978,-2.13559 -3.52492,-2.13559 -2.45039,0 -4.13023,1.66066 -4.1323,4.08511 -0.003,3.15045 3.07538,5.06084 5.86349,3.63915 z m 48.45432,-1.18799 c 3.27379,-1.67016 4.84234,-5.20278 3.84043,-8.64923 -1.74695,-6.00931 -9.99341,-7.18228 -13.26717,-1.8871 -0.69919,1.13092 -0.90663,1.84396 -0.99586,3.42308 -0.13741,2.43174 0.23442,3.64625 1.60741,5.25028 1.02143,1.19331 2.12698,1.93052 3.63831,2.42613 1.1658,0.3823 3.90845,0.0839 5.17688,-0.56316 z m 307.95629,-0.92241 c 1.18911,-1.18911 1.20994,-2.95519 0.0486,-4.11656 -0.75726,-0.75723 -1.03141,-0.82497 -4.09148,-1.01083 -1.80394,-0.10956 -3.5906,-0.0804 -3.97036,0.0648 -1.58617,0.60647 -2.41479,2.6904 -1.65298,4.15713 0.68881,1.32616 2.08497,1.76468 5.61995,1.76519 3.12938,5.9e-4 3.20142,-0.0149 4.04628,-0.85973 z M 188.04476,155.1002 c 2.84069,-1.18691 2.95121,-5.92298 0.17175,-7.36029 -3.49377,-1.8067 -7.48725,1.98815 -5.70783,5.42393 1.0721,2.07005 3.32781,2.85903 5.53608,1.93636 z M 480.27069,154.04 c 0.90393,-0.84919 1.19573,-2.32541 0.67601,-3.41972 -0.67221,-1.41533 -2.02811,-1.86327 -5.64158,-1.86379 -3.12937,-5.9e-4 -3.20141,0.0149 -4.04628,0.85973 -1.12831,1.12829 -1.19208,2.84043 -0.15099,4.05251 0.64752,0.75389 0.93529,0.84171 3.31059,1.01021 3.82461,0.27132 5.02254,0.14053 5.85225,-0.63894 z m -250.41663,-2.77212 c 1.79968,-1.17919 2.41732,-3.84643 1.31089,-5.66102 -0.7336,-1.20315 -1.99884,-1.8538 -3.60216,-1.8524 -4.3364,0.004 -5.59335,5.72305 -1.70083,7.73902 1.18449,0.61347 2.85566,0.51903 3.9921,-0.2256 z m 267.49091,-6.18183 c 3.10758,-0.92713 5.12133,-3.71077 5.12677,-7.08685 0.006,-4.08282 -3.07753,-7.19658 -7.12384,-7.1923 -2.20535,0.002 -3.46973,0.42789 -4.89435,1.64732 -1.84151,1.57624 -2.52626,3.07726 -2.5368,5.56077 -0.0118,2.79437 1.10704,4.86977 3.36245,6.23701 2.15962,1.30913 3.74341,1.52691 6.06577,0.83405 z m -67.75403,-2.52255 c 0.93953,-0.73904 1.28583,-2.31254 0.77853,-3.53733 -0.59096,-1.42667 -1.58172,-1.74686 -5.4053,-1.74686 -3.15124,0 -3.43878,0.0485 -4.20801,0.7102 -0.70679,0.60795 -0.82568,0.92942 -0.82568,2.23255 0,1.30312 0.11889,1.62459 0.82568,2.23254 0.77609,0.66758 1.04308,0.71021 4.44799,0.71021 3.20236,0 3.71099,-0.0697 4.38679,-0.60131 z m 88.48071,-0.18145 c 1.25808,-0.74318 2.1623,-2.5598 1.97376,-3.96547 -0.68911,-5.13763 -8.15398,-4.85395 -8.15398,0.30988 0,1.57109 0.65873,2.83893 1.85349,3.56743 1.16365,0.70952 3.20445,0.7511 4.32673,0.0882 z m -41.0657,-1.89301 c 3.72923,-3.27429 0.015,-8.96366 -4.46407,-6.83816 -1.41116,0.66964 -2.14079,1.95836 -2.14214,3.78365 -0.003,2.43397 1.60995,3.96149 4.18209,3.96352 1.13225,8.9e-4 1.57831,-0.16636 2.42412,-0.90901 z m -193.44772,-1.96371 c 1.15019,-1.28743 1.15927,-2.66588 0.0259,-3.93432 -0.90896,-1.01731 -0.98205,-1.02916 -5.59723,-0.90768 -2.36544,0.0623 -2.49456,0.10204 -3.45773,1.06521 -1.34652,1.34651 -1.3855,2.77963 -0.11029,4.05483 l 0.89024,0.89025 3.69525,-0.10363 3.69526,-0.10362 0.85859,-0.96104 z m 164.97831,-3.47367 c 0.35749,-0.23015 0.80585,-0.93875 0.99639,-1.57468 0.30142,-1.00608 0.27226,-1.28321 -0.22465,-2.13403 -0.8569,-1.46719 -1.60165,-1.70559 -5.34345,-1.71046 -3.29423,-0.004 -3.34331,0.006 -4.19342,0.85585 -1.12828,1.12826 -1.19207,2.84041 -0.15105,4.05251 0.65597,0.76379 0.91511,0.83897 3.45773,1.00317 3.2109,0.20735 4.5608,0.0856 5.45845,-0.49236 z m -37.55882,-0.98674 c 1.12849,-1.12847 1.19214,-2.84057 0.15067,-4.05251 -0.69702,-0.81113 -0.77433,-0.82738 -4.38958,-0.92271 -4.06291,-0.10715 -4.63851,0.0499 -5.37067,1.46575 -0.64591,1.24906 -0.33539,2.66821 0.79128,3.61623 0.85186,0.71678 1.06712,0.75342 4.42675,0.75342 3.51073,0 3.53639,-0.005 4.39155,-0.86018 z m -148.68246,-1.49225 c 1.50938,-0.003 2.69941,-1.34417 2.69941,-3.04286 0,-1.12781 -0.13919,-1.43784 -0.95302,-2.12263 -0.94662,-0.79653 -0.97601,-0.80085 -4.37972,-0.64403 -3.93544,0.18132 -4.78509,0.54115 -5.24952,2.22319 -0.23372,0.84643 -0.18982,1.27496 0.21522,2.10091 0.75038,1.53017 1.56433,1.83987 4.3344,1.64922 1.29481,-0.0891 2.79477,-0.16283 3.33323,-0.1638 z m 97.87002,-1.44664 c 1.58244,-1.4883 1.12637,-4.07294 -0.86555,-4.90522 -1.03067,-0.43064 -4.9002,-0.56913 -6.57013,-0.23515 -1.43929,0.28786 -2.39638,1.43918 -2.38862,2.87337 0.007,1.34868 0.6336,2.3491 1.7591,2.80985 0.40463,0.16564 2.21517,0.27083 4.02343,0.23375 3.02102,-0.0619 3.34891,-0.12495 4.04177,-0.7766 z m -58.69212,-0.90311 c 1.68813,-0.90346 1.83627,-3.52887 0.27331,-4.84402 -0.98591,-0.82958 -1.99328,-0.91193 -6.11192,-0.49962 -1.86381,0.18658 -2.27069,0.33239 -2.86918,1.02818 -1.04682,1.217 -0.96091,2.91391 0.20665,4.08146 l 0.90405,0.90405 3.5015,-0.17605 c 1.92583,-0.0968 3.76884,-0.31913 4.09559,-0.494 z m -53.90561,-2.7061 c 1.73735,-0.43747 3.99165,-2.58938 4.45293,-4.25068 0.75923,-2.73441 0.19694,-5.02453 -1.69922,-6.9207 -4.01127,-4.01127 -10.62917,-1.72426 -11.40576,3.94159 -0.42375,3.09155 1.43115,6.05492 4.46697,7.13638 1.44238,0.51382 2.42811,0.53582 4.18508,0.0934 z m 180.85418,-2.70739 c 1.387,-0.57953 3.06493,-2.1414 3.80332,-3.54025 0.90981,-1.72358 0.88986,-4.84294 -0.0423,-6.61265 -1.62372,-3.08274 -4.75499,-4.56314 -8.15763,-3.85675 -6.60595,1.37139 -7.85547,10.64953 -1.83804,13.64814 1.76912,0.88159 4.5974,1.04559 6.23463,0.36151 z m -87.79248,-1.21696 c 1.05486,-0.54549 1.52434,-1.3733 1.52434,-2.68781 0,-2.22436 -1.44242,-3.04423 -5.35581,-3.04423 -3.95923,0 -5.29695,0.76377 -5.29695,3.0243 0,2.49318 1.0524,3.12415 5.238,3.14042 2.14727,0.008 3.28151,-0.1178 3.89042,-0.43268 z m 38.56894,-0.66372 c 1.16244,-1.302 1.17097,-2.74399 0.023,-3.89193 -1.01152,-1.01152 -2.62232,-1.31068 -6.00342,-1.11495 -2.22564,0.12884 -2.43669,0.19914 -3.21587,1.07119 -1.02493,1.1471 -1.10313,2.5623 -0.20471,3.70446 0.93258,1.18559 1.54494,1.33372 5.20754,1.25969 l 3.3354,-0.0674 0.85802,-0.96104 z m 68.96977,-0.9455 c 1.49112,-0.72183 2.26904,-1.9851 2.26904,-3.68468 0,-2.41093 -1.61086,-4.02176 -4.02177,-4.02176 -1.69958,0 -2.96285,0.77791 -3.68467,2.26902 -0.72083,1.48898 -0.72042,2.00853 0.003,3.60189 0.43679,0.96237 0.87038,1.39597 1.83274,1.83276 1.59338,0.72318 2.11293,0.72358 3.6019,0.003 z m -167.42957,-0.85003 c 2.82842,-1.28935 4.3347,-3.59605 4.34912,-6.66023 0.01,-2.0811 -0.61261,-3.72115 -1.93627,-5.10203 -1.56584,-1.63353 -3.01124,-2.23737 -5.3556,-2.23737 -2.34437,0 -3.78977,0.60384 -5.35561,2.23737 -1.31833,1.37532 -1.92133,2.99972 -1.90897,5.14246 0.0237,4.10775 3.13057,7.17779 7.24878,7.16285 1.08476,-0.004 2.24179,-0.21632 2.95855,-0.54305 z m 126.12448,0.0938 c 1.22236,-0.63212 2.02988,-2.07498 2.03121,-3.62942 0.004,-4.25463 -5.41731,-5.68841 -7.65166,-2.02378 -0.75964,1.24593 -0.74307,2.66111 0.0477,4.06803 1.06204,1.88967 3.59218,2.60937 5.57277,1.58517 z m -14.8055,-1.4727 c 5.72753,-2.39253 5.27523,-10.92209 -0.67083,-12.65066 -6.06589,-1.7634 -10.95051,4.68512 -7.62422,10.06526 1.6198,2.61995 5.39529,3.7967 8.29505,2.5854 z m -132.14385,-1.3871 c 2.59534,-2.59534 0.79545,-6.98413 -2.86427,-6.98413 -2.23552,0 -4.12195,1.88516 -4.11804,4.11526 0.003,1.67591 0.96563,3.09944 2.63676,3.89895 0.24822,0.11875 1.093,0.17008 1.87729,0.11406 1.16906,-0.0835 1.61377,-0.28965 2.46826,-1.14414 z m 40.92319,-1.5778 c 1.73454,-1.11751 2.33778,-3.82632 1.24956,-5.61105 -0.83783,-1.37408 -1.85009,-1.92311 -3.54569,-1.92311 -3.56483,0 -5.38006,4.05913 -3.05233,6.82548 1.23333,1.46574 3.67187,1.78885 5.34846,0.70868 z m 58.25603,-3.60959 c 4.31297,-2.21836 5.25478,-8.33763 1.81296,-11.77945 -3.07262,-3.072624 -8.44847,-2.69363 -11.06161,0.77983 -3.06718,4.077 -1.11838,10.0384 3.76967,11.53146 1.36738,0.41766 4.15995,0.14659 5.47898,-0.53184 z m -22.68196,-2.69917 c 2.8641,-1.08518 3.54146,-4.71949 1.28291,-6.88333 -0.69163,-0.66262 -1.21897,-0.8707 -2.43434,-0.96055 -2.62164,-0.19382 -4.39612,1.3727 -4.39612,3.88094 0,3.07331 2.73638,5.02807 5.54755,3.96294 z m 41.87392,-0.20156 c 3.88193,-1.95035 2.58459,-7.72426 -1.73557,-7.72426 -0.6768,0 -1.6271,0.20507 -2.11177,0.4557 -2.67401,1.38278 -2.6962,5.59447 -0.0376,7.13562 1.33415,0.77338 2.52884,0.81427 3.88494,0.13294 z M 500.25747,98.899596 c 0.97743,-0.408398 1.92288,-1.72201 1.92288,-2.671659 0,-0.949649 -0.94545,-2.26326 -1.92288,-2.671658 -0.65164,-0.272275 -2.09047,-0.41823 -4.12294,-0.41823 -3.05825,0 -3.13953,0.01757 -3.98216,0.86019 -1.12831,1.128289 -1.19208,2.840434 -0.15099,4.052509 0.65005,0.756828 0.92605,0.839834 3.31059,0.99562 1.43077,0.09348 2.90361,0.192795 3.27296,0.220707 0.36937,0.02793 1.12201,-0.137453 1.67254,-0.367479 z m 51.65536,-11.205635 v -6.326913 h -4.85554 -4.85553 v 6.326913 6.326914 h 4.85553 4.85554 z m -31.81428,3.513562 c 1.12666,-0.948022 1.43718,-2.367169 0.79128,-3.616226 -0.66989,-1.295381 -1.1836,-1.47759 -4.78224,-1.696154 -3.45005,-0.209541 -4.72455,0.107893 -5.38455,1.341106 -0.53373,0.997295 -0.3544,2.572193 0.39168,3.439542 0.78095,0.907904 2.05474,1.180096 5.83038,1.24584 2.02408,0.03524 2.35082,-0.03875 3.15345,-0.714108 z m 52.6418,-0.684269 c 4.02995,-2.055926 4.82356,-7.422079 1.57773,-10.667921 -2.74467,-2.744662 -6.69599,-2.730816 -9.47215,0.03319 -4.44132,4.42185 -1.04977,11.825807 5.20084,11.353728 0.82906,-0.06262 2.04118,-0.386162 2.69358,-0.718993 z M 129.01343,90.028675 c 5.62568,-1.67065 6.42178,-9.545806 1.2387,-12.253483 -2.94534,-1.538659 -6.23861,-0.939415 -8.34199,1.517911 -3.18065,3.715876 -1.40916,9.528411 3.29029,10.795916 1.77996,0.48008 2.00519,0.476513 3.813,-0.06034 z m 353.55749,-0.314916 c 0.57499,-0.574987 0.77583,-1.075145 0.77583,-1.932136 0,-2.577655 -1.06825,-3.17755 -5.65826,-3.17755 -3.81275,0 -4.43982,0.253118 -4.91804,1.98508 -0.2406,0.871351 -0.19941,1.289136 0.20925,2.122494 0.7452,1.519565 1.50325,1.768646 5.3978,1.773589 3.30292,0.0042 3.44367,-0.02169 4.19342,-0.771477 z m 17.5144,-8.998057 c 1.29325,-0.393239 3.14839,-2.083287 3.94682,-3.59557 0.88114,-1.668925 0.88332,-4.845765 0.004,-6.494123 -2.00392,-3.758557 -6.4925,-5.168641 -10.14004,-3.185513 -2.66225,1.447422 -3.93069,3.831979 -3.72838,7.009055 0.31346,4.92301 4.86872,7.801243 9.91713,6.266151 z m -69.847,-2.054422 c 1.35587,-0.617766 1.97947,-2.496573 1.28159,-3.861197 -0.75561,-1.477496 -1.33471,-1.659211 -5.30993,-1.666191 l -3.72584,-0.0065 -0.76185,0.905405 c -1.27462,1.514786 -0.97149,3.645032 0.64334,4.52138 1.01063,0.54844 6.73322,0.626326 7.87269,0.107148 z m 89.71139,-0.350826 c 1.45684,-0.608716 2.30926,-1.985953 2.30926,-3.731107 0,-2.396479 -1.67787,-4.098274 -4.04063,-4.098274 -2.34802,0 -4.08589,1.751375 -4.08589,4.117649 0,3.101432 2.87995,4.939009 5.81726,3.711732 z m -41.4555,-1.48696 c 1.33519,-0.557872 2.20186,-2.012732 2.20186,-3.696147 0,-5.203304 -7.50084,-5.552926 -8.13226,-0.379056 -0.1736,1.42237 0.58775,2.937833 1.92464,3.830923 1.14876,0.767419 2.54931,0.852826 4.00576,0.24428 z M 279.41415,74.96611 c 2.07765,-1.037908 2.09963,-4.137166 0.0369,-5.203848 -0.75026,-0.387975 -1.44108,-0.421746 -4.33981,-0.212164 -3.23794,0.234108 -3.48922,0.297745 -4.13356,1.04684 -0.99307,1.154505 -0.95126,3.067761 0.0898,4.108794 0.74523,0.745228 0.90475,0.775797 4.04628,0.775359 2.52403,-2.94e-4 3.50554,-0.117889 4.30043,-0.514981 z m 266.02463,-6.409664 v -6.336551 l -3.31059,0.08321 -3.3106,0.08321 -0.0794,6.253345 -0.0794,6.253344 h 3.39002 3.39002 z m 10.29963,0 v -6.336551 l -3.3106,0.08321 -3.31059,0.08321 -0.0794,6.253345 -0.0794,6.253344 h 3.39002 3.39002 z m -106.43466,2.462909 c 1.01569,-0.54096 1.35905,-1.180326 1.36911,-2.549476 0.007,-1.022073 -0.16035,-1.443027 -0.85084,-2.133494 -0.85854,-0.858544 -0.86719,-0.860189 -4.52112,-0.860189 -3.52212,0 -3.68912,0.02816 -4.40383,0.742885 -0.87576,0.875748 -1.0836,1.704253 -0.75028,2.990626 0.46113,1.779543 1.35252,2.15199 5.15037,2.15199 1.99289,0 3.6258,-0.139522 4.00659,-0.342342 z m -37.89904,-0.597776 c 1.7319,-0.789104 2.13338,-3.290492 0.75011,-4.673744 -0.81635,-0.816369 -1.00001,-0.863214 -3.60487,-0.919586 -4.44338,-0.09616 -4.71564,-0.05052 -5.61385,0.941012 -1.36353,1.505158 -0.80688,3.956887 1.0706,4.715475 0.95601,0.386272 6.51581,0.338808 7.39801,-0.06316 z M 260.31839,67.954151 c 1.63828,-0.832737 1.8478,-3.648049 0.35867,-4.819404 -0.64475,-0.507157 -1.1844,-0.600201 -3.44679,-0.59428 -3.39339,0.0089 -4.86225,0.348657 -5.69868,1.31822 -1.12217,1.300778 -0.7574,3.399868 0.75805,4.362236 0.67011,0.425548 1.2673,0.471793 4.02392,0.311605 1.78036,-0.103456 3.58254,-0.363727 4.00483,-0.578377 z m 99.44914,-0.721027 c 0.31139,-0.166651 0.77789,-0.712434 1.03666,-1.212852 0.64592,-1.249056 0.33539,-2.668203 -0.79127,-3.616225 -0.84166,-0.708211 -1.08918,-0.753427 -4.12446,-0.753427 -4.43301,0 -5.55403,0.624323 -5.55403,3.093178 0,0.792415 0.22431,1.296255 0.86019,1.932134 0.85628,0.856281 0.87642,0.860189 4.43347,0.860189 1.96531,0 3.82806,-0.136349 4.13944,-0.302997 z M 296.45729,66.38404 c 1.19994,-0.170379 1.76343,-0.423609 2.28063,-1.024889 0.94126,-1.094279 0.92971,-2.806157 -0.0264,-3.912828 -0.71101,-0.82297 -0.72455,-0.825506 -4.14644,-0.776786 -3.97775,0.05664 -4.92018,0.353145 -5.58669,1.757713 -0.7098,1.495795 -0.23371,3.061682 1.17681,3.870615 0.66496,0.381357 3.91064,0.425739 6.3021,0.08617 z M 429.2743,60.642213 c 1.69935,-0.60643 2.94764,-1.710962 3.89217,-3.4439 0.70185,-1.287704 0.86134,-1.934517 0.86134,-3.493119 0,-6.390444 -7.30305,-9.697092 -12.09706,-5.47725 -1.76609,1.554585 -2.42877,3.04901 -2.42877,5.47725 0,2.29446 0.63458,3.861992 2.14783,5.305644 1.96376,1.873449 5.0786,2.539917 7.62449,1.631375 z M 341.28599,58.84781 c 0.86996,-0.869963 1.08366,-1.703982 0.75832,-2.959507 -0.46958,-1.812181 -1.05247,-2.035971 -5.3029,-2.035971 h -3.82016 l -0.71021,0.825665 c -1.01757,1.182997 -0.98743,3.083849 0.0656,4.136883 0.75697,0.756961 0.86684,0.775815 4.52114,0.775815 3.61232,0 3.7717,-0.0264 4.48821,-0.742885 z m 37.68963,0.141584 c 1.51593,-1.192432 1.27617,-3.980773 -0.41762,-4.856665 -1.0375,-0.536514 -6.64863,-0.591308 -7.77967,-0.07597 -1.7319,0.789104 -2.13336,3.290492 -0.75011,4.673744 0.85856,0.858556 0.86715,0.860189 4.52158,0.860189 3.24168,0 3.74902,-0.06893 4.42582,-0.601301 z m 70.73593,-1.446712 c 2.70439,-1.648961 2.41789,-5.905544 -0.48558,-7.214835 -3.51488,-1.584986 -7.11286,2.058012 -5.46413,5.532474 1.00731,2.122726 3.89044,2.937974 5.94971,1.682361 z M 141.03887,56.9759 c 3.977,-2.028918 4.82918,-7.567162 1.65307,-10.743267 -3.19053,-3.190533 -8.66598,-2.332662 -10.78081,1.689095 -0.97804,1.859927 -0.91534,4.621006 0.14593,6.426354 1.86592,3.174163 5.70768,4.298152 8.98181,2.627818 z m 135.8398,0.196996 c 1.6164,-0.477582 4.05422,-2.9154 4.5318,-4.531806 0.60117,-2.034685 0.45053,-3.944616 -0.45138,-5.723002 -2.68091,-5.286207 -10.31648,-5.363542 -13.0056,-0.131721 -0.99469,1.93523 -1.0423,5.002773 -0.10508,6.77169 1.70758,3.222906 5.38051,4.693192 9.03026,3.614839 z m 131.06278,-0.229087 c 3.68379,-2.246034 2.27869,-7.650539 -1.98904,-7.650539 -2.62746,0 -4.33949,1.965216 -4.03848,4.635697 0.32161,2.853394 3.60157,4.493962 6.02752,3.014842 z m -152.3845,-1.988402 c 1.51282,-0.771407 2.19403,-1.879376 2.19403,-3.568538 0,-2.4036 -1.72143,-4.153524 -4.0859,-4.153524 -2.36276,0 -4.04062,1.701795 -4.04062,4.098274 0,3.185215 3.09045,5.072978 5.93249,3.623788 z m 41.83784,-2.300577 c 1.20269,-0.614146 1.85526,-1.849078 1.85526,-3.510899 0,-2.484632 -1.59763,-4.066092 -4.11089,-4.069285 -2.40606,-0.0031 -3.95401,1.632594 -3.95401,4.17802 0,1.245996 0.14911,1.659126 0.91272,2.528835 1.40078,1.595391 3.2771,1.904748 5.29692,0.873329 z m 18.40794,-0.859534 c 1.69781,-0.504196 3.47495,-2.067885 4.15522,-3.65614 0.67308,-1.571447 0.59254,-4.330225 -0.16956,-5.808654 -2.45622,-4.764887 -9.4306,-4.845515 -11.89012,-0.137456 -1.75874,3.366618 -0.61482,7.42475 2.55999,9.081698 1.98644,1.036731 3.20623,1.155539 5.34447,0.520552 z m 43.81668,-3.247695 c 3.81948,-2.361434 4.52334,-7.643797 1.49574,-11.225313 -2.4354,-2.880964 -7.5927,-3.030312 -10.43866,-0.302288 -1.63353,1.56584 -2.23737,3.01124 -2.23737,5.355605 0,2.34456 0.60411,3.790439 2.23737,5.354982 1.53334,1.468827 2.72632,1.872655 5.27226,1.784681 1.89133,-0.06535 2.44902,-0.212375 3.67066,-0.967667 z M 337.45218,45.63883 c 1.04955,-0.687691 1.78627,-2.61622 1.54499,-4.044363 -0.48438,-2.867016 -4.3304,-4.330325 -6.63563,-2.524683 -2.04322,1.600415 -1.96995,5.372565 0.12996,6.6912 1.45554,0.914003 3.45443,0.864783 4.96068,-0.122154 z m 41.63814,-0.07341 c 2.54715,-1.893613 1.67303,-6.338196 -1.40979,-7.168316 -2.72239,-0.733063 -5.27547,1.190051 -5.27547,3.973766 0,3.493481 3.82474,5.321132 6.68526,3.19455 z m 98.40586,-12.69295 c 2.34384,-1.224426 3.31065,-2.760179 3.44781,-5.476739 0.12363,-2.447984 -0.38517,-3.792799 -2.05124,-5.421698 -0.93112,-0.910336 -3.18623,-1.816196 -4.52139,-1.816196 -1.48288,0 -3.57176,0.896488 -4.60755,1.977434 -1.71265,1.787346 -2.08956,2.795573 -1.96526,5.257111 0.0913,1.808714 0.24684,2.34223 0.99138,3.401617 1.19609,1.70179 3.50273,2.90049 5.58143,2.90049 1.12646,0 1.98224,-0.225126 3.12482,-0.822019 z M 361.9583,19.893037 c 3.33416,-1.546989 4.85539,-5.557983 3.35943,-8.857723 -1.22629,-2.7049124 -3.16744,-3.9509438 -6.15505,-3.9509438 -2.9876,0 -4.92875,1.2460314 -6.15504,3.9509438 -1.99936,4.410115 1.26917,9.403875 6.15504,9.403875 0.95763,0 2.09916,-0.223011 2.79562,-0.546152 z"
     id="path7702"
     transform="scale(264583.33)" />
</svg>
