%TF.GenerationSoftware,KiCad,Pcbnew,6.0.2-378541a8eb~116~ubuntu20.04.1*%
%TF.CreationDate,2022-03-20T18:30:42+01:00*%
%TF.ProjectId,Bottom_Plate,426f7474-6f6d-45f5-906c-6174652e6b69,v0.1*%
%TF.SameCoordinates,Original*%
%TF.FileFunction,Copper,L1,Top*%
%TF.FilePolarity,Positive*%
%FSLAX46Y46*%
G04 Gerber Fmt 4.6, Leading zero omitted, Abs format (unit mm)*
G04 Created by KiCad (PCBNEW 6.0.2-378541a8eb~116~ubuntu20.04.1) date 2022-03-20 18:30:42*
%MOMM*%
%LPD*%
G01*
G04 APERTURE LIST*
%TA.AperFunction,EtchedComponent*%
%ADD10C,0.010000*%
%TD*%
%TA.AperFunction,ComponentPad*%
%ADD11C,0.700000*%
%TD*%
%TA.AperFunction,ComponentPad*%
%ADD12C,4.400000*%
%TD*%
G04 APERTURE END LIST*
D10*
%TO.C,Ref\u002A\u002A*%
X162068339Y-131026523D02*
X162124386Y-131078700D01*
X162124386Y-131078700D02*
X162182492Y-131157604D01*
X162182492Y-131157604D02*
X162223573Y-131229916D01*
X162223573Y-131229916D02*
X162342309Y-131436306D01*
X162342309Y-131436306D02*
X162480399Y-131629740D01*
X162480399Y-131629740D02*
X162634126Y-131807885D01*
X162634126Y-131807885D02*
X162799771Y-131968407D01*
X162799771Y-131968407D02*
X162973615Y-132108971D01*
X162973615Y-132108971D02*
X163151942Y-132227244D01*
X163151942Y-132227244D02*
X163331033Y-132320890D01*
X163331033Y-132320890D02*
X163507170Y-132387576D01*
X163507170Y-132387576D02*
X163676635Y-132424968D01*
X163676635Y-132424968D02*
X163835709Y-132430730D01*
X163835709Y-132430730D02*
X163980676Y-132402530D01*
X163980676Y-132402530D02*
X164047115Y-132374758D01*
X164047115Y-132374758D02*
X164148179Y-132335148D01*
X164148179Y-132335148D02*
X164225347Y-132328091D01*
X164225347Y-132328091D02*
X164276994Y-132350137D01*
X164276994Y-132350137D02*
X164301497Y-132397838D01*
X164301497Y-132397838D02*
X164297231Y-132467746D01*
X164297231Y-132467746D02*
X164262572Y-132556410D01*
X164262572Y-132556410D02*
X164195896Y-132660384D01*
X164195896Y-132660384D02*
X164187063Y-132671931D01*
X164187063Y-132671931D02*
X164073965Y-132843377D01*
X164073965Y-132843377D02*
X163984539Y-133037607D01*
X163984539Y-133037607D02*
X163917200Y-133259173D01*
X163917200Y-133259173D02*
X163870363Y-133512629D01*
X163870363Y-133512629D02*
X163857650Y-133617879D01*
X163857650Y-133617879D02*
X163847034Y-133856266D01*
X163847034Y-133856266D02*
X163862974Y-134098380D01*
X163862974Y-134098380D02*
X163904051Y-134327674D01*
X163904051Y-134327674D02*
X163925027Y-134404916D01*
X163925027Y-134404916D02*
X163964649Y-134537128D01*
X163964649Y-134537128D02*
X163993325Y-134635145D01*
X163993325Y-134635145D02*
X164012219Y-134705335D01*
X164012219Y-134705335D02*
X164022498Y-134754066D01*
X164022498Y-134754066D02*
X164025326Y-134787708D01*
X164025326Y-134787708D02*
X164021869Y-134812629D01*
X164021869Y-134812629D02*
X164013293Y-134835197D01*
X164013293Y-134835197D02*
X164006426Y-134849730D01*
X164006426Y-134849730D02*
X163962199Y-134902515D01*
X163962199Y-134902515D02*
X163903287Y-134918842D01*
X163903287Y-134918842D02*
X163839641Y-134896680D01*
X163839641Y-134896680D02*
X163826101Y-134886529D01*
X163826101Y-134886529D02*
X163791543Y-134850906D01*
X163791543Y-134850906D02*
X163743352Y-134792737D01*
X163743352Y-134792737D02*
X163691786Y-134724424D01*
X163691786Y-134724424D02*
X163690343Y-134722416D01*
X163690343Y-134722416D02*
X163531876Y-134528499D01*
X163531876Y-134528499D02*
X163346374Y-134347371D01*
X163346374Y-134347371D02*
X163141222Y-134184107D01*
X163141222Y-134184107D02*
X162923802Y-134043782D01*
X162923802Y-134043782D02*
X162701498Y-133931468D01*
X162701498Y-133931468D02*
X162481694Y-133852240D01*
X162481694Y-133852240D02*
X162391843Y-133830040D01*
X162391843Y-133830040D02*
X162257136Y-133810379D01*
X162257136Y-133810379D02*
X162134910Y-133814142D01*
X162134910Y-133814142D02*
X162009623Y-133843105D01*
X162009623Y-133843105D02*
X161893558Y-133886965D01*
X161893558Y-133886965D02*
X161805874Y-133919216D01*
X161805874Y-133919216D02*
X161721557Y-133941744D01*
X161721557Y-133941744D02*
X161659994Y-133949833D01*
X161659994Y-133949833D02*
X161605023Y-133947095D01*
X161605023Y-133947095D02*
X161580398Y-133933868D01*
X161580398Y-133933868D02*
X161574234Y-133902633D01*
X161574234Y-133902633D02*
X161574167Y-133895525D01*
X161574167Y-133895525D02*
X161579940Y-133845784D01*
X161579940Y-133845784D02*
X161600546Y-133795239D01*
X161600546Y-133795239D02*
X161640912Y-133735694D01*
X161640912Y-133735694D02*
X161705967Y-133658952D01*
X161705967Y-133658952D02*
X161736771Y-133625112D01*
X161736771Y-133625112D02*
X161851236Y-133479336D01*
X161851236Y-133479336D02*
X161855123Y-133472247D01*
X161855123Y-133472247D02*
X162235613Y-133472247D01*
X162235613Y-133472247D02*
X162260251Y-133483655D01*
X162260251Y-133483655D02*
X162276334Y-133484166D01*
X162276334Y-133484166D02*
X162379311Y-133497111D01*
X162379311Y-133497111D02*
X162507535Y-133533495D01*
X162507535Y-133533495D02*
X162653739Y-133589646D01*
X162653739Y-133589646D02*
X162810660Y-133661891D01*
X162810660Y-133661891D02*
X162971033Y-133746556D01*
X162971033Y-133746556D02*
X163127592Y-133839969D01*
X163127592Y-133839969D02*
X163273072Y-133938455D01*
X163273072Y-133938455D02*
X163400208Y-134038342D01*
X163400208Y-134038342D02*
X163436834Y-134070925D01*
X163436834Y-134070925D02*
X163553250Y-134178288D01*
X163553250Y-134178288D02*
X163566226Y-133847102D01*
X163566226Y-133847102D02*
X163579200Y-133635064D01*
X163579200Y-133635064D02*
X163600192Y-133443697D01*
X163600192Y-133443697D02*
X163625061Y-133297851D01*
X163625061Y-133297851D02*
X163652123Y-133182318D01*
X163652123Y-133182318D02*
X163685345Y-133059482D01*
X163685345Y-133059482D02*
X163719115Y-132949564D01*
X163719115Y-132949564D02*
X163732176Y-132911940D01*
X163732176Y-132911940D02*
X163793432Y-132744094D01*
X163793432Y-132744094D02*
X163715674Y-132723636D01*
X163715674Y-132723636D02*
X163654472Y-132707913D01*
X163654472Y-132707913D02*
X163570975Y-132686937D01*
X163570975Y-132686937D02*
X163489750Y-132666845D01*
X163489750Y-132666845D02*
X163221483Y-132582330D01*
X163221483Y-132582330D02*
X162976693Y-132464884D01*
X162976693Y-132464884D02*
X162748374Y-132310952D01*
X162748374Y-132310952D02*
X162681302Y-132256500D01*
X162681302Y-132256500D02*
X162584199Y-132174620D01*
X162584199Y-132174620D02*
X162514347Y-132116562D01*
X162514347Y-132116562D02*
X162466634Y-132078861D01*
X162466634Y-132078861D02*
X162435943Y-132058052D01*
X162435943Y-132058052D02*
X162417163Y-132050669D01*
X162417163Y-132050669D02*
X162405178Y-132053249D01*
X162405178Y-132053249D02*
X162394875Y-132062325D01*
X162394875Y-132062325D02*
X162394816Y-132062384D01*
X162394816Y-132062384D02*
X162385141Y-132093379D01*
X162385141Y-132093379D02*
X162376129Y-132165790D01*
X162376129Y-132165790D02*
X162367850Y-132278704D01*
X162367850Y-132278704D02*
X162360373Y-132431209D01*
X162360373Y-132431209D02*
X162355081Y-132579050D01*
X162355081Y-132579050D02*
X162348803Y-132755938D01*
X162348803Y-132755938D02*
X162341542Y-132898957D01*
X162341542Y-132898957D02*
X162332165Y-133016573D01*
X162332165Y-133016573D02*
X162319538Y-133117251D01*
X162319538Y-133117251D02*
X162302527Y-133209455D01*
X162302527Y-133209455D02*
X162279999Y-133301650D01*
X162279999Y-133301650D02*
X162250820Y-133402301D01*
X162250820Y-133402301D02*
X162240248Y-133436541D01*
X162240248Y-133436541D02*
X162235613Y-133472247D01*
X162235613Y-133472247D02*
X161855123Y-133472247D01*
X161855123Y-133472247D02*
X161942330Y-133313243D01*
X161942330Y-133313243D02*
X162015086Y-133117420D01*
X162015086Y-133117420D02*
X162023738Y-133088332D01*
X162023738Y-133088332D02*
X162040061Y-133028332D01*
X162040061Y-133028332D02*
X162052186Y-132971698D01*
X162052186Y-132971698D02*
X162060701Y-132910751D01*
X162060701Y-132910751D02*
X162066193Y-132837814D01*
X162066193Y-132837814D02*
X162069252Y-132745209D01*
X162069252Y-132745209D02*
X162070465Y-132625259D01*
X162070465Y-132625259D02*
X162070443Y-132478750D01*
X162070443Y-132478750D02*
X162069529Y-132321811D01*
X162069529Y-132321811D02*
X162067177Y-132197627D01*
X162067177Y-132197627D02*
X162062612Y-132096623D01*
X162062612Y-132096623D02*
X162055058Y-132009226D01*
X162055058Y-132009226D02*
X162043740Y-131925861D01*
X162043740Y-131925861D02*
X162027883Y-131836954D01*
X162027883Y-131836954D02*
X162012173Y-131759083D01*
X162012173Y-131759083D02*
X161972095Y-131545475D01*
X161972095Y-131545475D02*
X161947519Y-131366069D01*
X161947519Y-131366069D02*
X161938434Y-131221841D01*
X161938434Y-131221841D02*
X161944829Y-131113766D01*
X161944829Y-131113766D02*
X161966693Y-131042820D01*
X161966693Y-131042820D02*
X162004016Y-131009979D01*
X162004016Y-131009979D02*
X162020378Y-131007666D01*
X162020378Y-131007666D02*
X162068339Y-131026523D01*
X162068339Y-131026523D02*
X162068339Y-131026523D01*
G36*
X162015086Y-133117420D02*
G01*
X162023738Y-133088332D01*
X162040061Y-133028332D01*
X162052186Y-132971698D01*
X162060701Y-132910751D01*
X162066193Y-132837814D01*
X162069252Y-132745209D01*
X162070465Y-132625259D01*
X162070443Y-132478750D01*
X162069529Y-132321811D01*
X162067177Y-132197627D01*
X162062612Y-132096623D01*
X162055058Y-132009226D01*
X162043740Y-131925861D01*
X162027883Y-131836954D01*
X162012173Y-131759083D01*
X161972095Y-131545475D01*
X161947519Y-131366069D01*
X161938434Y-131221841D01*
X161944829Y-131113766D01*
X161966693Y-131042820D01*
X162004016Y-131009979D01*
X162020378Y-131007666D01*
X162068339Y-131026523D01*
X162124386Y-131078700D01*
X162182492Y-131157604D01*
X162223573Y-131229916D01*
X162342309Y-131436306D01*
X162480399Y-131629740D01*
X162634126Y-131807885D01*
X162799771Y-131968407D01*
X162973615Y-132108971D01*
X163151942Y-132227244D01*
X163331033Y-132320890D01*
X163507170Y-132387576D01*
X163676635Y-132424968D01*
X163835709Y-132430730D01*
X163980676Y-132402530D01*
X164047115Y-132374758D01*
X164148179Y-132335148D01*
X164225347Y-132328091D01*
X164276994Y-132350137D01*
X164301497Y-132397838D01*
X164297231Y-132467746D01*
X164262572Y-132556410D01*
X164195896Y-132660384D01*
X164187063Y-132671931D01*
X164073965Y-132843377D01*
X163984539Y-133037607D01*
X163917200Y-133259173D01*
X163870363Y-133512629D01*
X163857650Y-133617879D01*
X163847034Y-133856266D01*
X163862974Y-134098380D01*
X163904051Y-134327674D01*
X163925027Y-134404916D01*
X163964649Y-134537128D01*
X163993325Y-134635145D01*
X164012219Y-134705335D01*
X164022498Y-134754066D01*
X164025326Y-134787708D01*
X164021869Y-134812629D01*
X164013293Y-134835197D01*
X164006426Y-134849730D01*
X163962199Y-134902515D01*
X163903287Y-134918842D01*
X163839641Y-134896680D01*
X163826101Y-134886529D01*
X163791543Y-134850906D01*
X163743352Y-134792737D01*
X163691786Y-134724424D01*
X163690343Y-134722416D01*
X163531876Y-134528499D01*
X163346374Y-134347371D01*
X163141222Y-134184107D01*
X162923802Y-134043782D01*
X162701498Y-133931468D01*
X162481694Y-133852240D01*
X162391843Y-133830040D01*
X162257136Y-133810379D01*
X162134910Y-133814142D01*
X162009623Y-133843105D01*
X161893558Y-133886965D01*
X161805874Y-133919216D01*
X161721557Y-133941744D01*
X161659994Y-133949833D01*
X161605023Y-133947095D01*
X161580398Y-133933868D01*
X161574234Y-133902633D01*
X161574167Y-133895525D01*
X161579940Y-133845784D01*
X161600546Y-133795239D01*
X161640912Y-133735694D01*
X161705967Y-133658952D01*
X161736771Y-133625112D01*
X161851236Y-133479336D01*
X161855123Y-133472247D01*
X162235613Y-133472247D01*
X162260251Y-133483655D01*
X162276334Y-133484166D01*
X162379311Y-133497111D01*
X162507535Y-133533495D01*
X162653739Y-133589646D01*
X162810660Y-133661891D01*
X162971033Y-133746556D01*
X163127592Y-133839969D01*
X163273072Y-133938455D01*
X163400208Y-134038342D01*
X163436834Y-134070925D01*
X163553250Y-134178288D01*
X163566226Y-133847102D01*
X163579200Y-133635064D01*
X163600192Y-133443697D01*
X163625061Y-133297851D01*
X163652123Y-133182318D01*
X163685345Y-133059482D01*
X163719115Y-132949564D01*
X163732176Y-132911940D01*
X163793432Y-132744094D01*
X163715674Y-132723636D01*
X163654472Y-132707913D01*
X163570975Y-132686937D01*
X163489750Y-132666845D01*
X163221483Y-132582330D01*
X162976693Y-132464884D01*
X162748374Y-132310952D01*
X162681302Y-132256500D01*
X162584199Y-132174620D01*
X162514347Y-132116562D01*
X162466634Y-132078861D01*
X162435943Y-132058052D01*
X162417163Y-132050669D01*
X162405178Y-132053249D01*
X162394875Y-132062325D01*
X162394816Y-132062384D01*
X162385141Y-132093379D01*
X162376129Y-132165790D01*
X162367850Y-132278704D01*
X162360373Y-132431209D01*
X162355081Y-132579050D01*
X162348803Y-132755938D01*
X162341542Y-132898957D01*
X162332165Y-133016573D01*
X162319538Y-133117251D01*
X162302527Y-133209455D01*
X162279999Y-133301650D01*
X162250820Y-133402301D01*
X162240248Y-133436541D01*
X162235613Y-133472247D01*
X161855123Y-133472247D01*
X161942330Y-133313243D01*
X162015086Y-133117420D01*
G37*
X162015086Y-133117420D02*
X162023738Y-133088332D01*
X162040061Y-133028332D01*
X162052186Y-132971698D01*
X162060701Y-132910751D01*
X162066193Y-132837814D01*
X162069252Y-132745209D01*
X162070465Y-132625259D01*
X162070443Y-132478750D01*
X162069529Y-132321811D01*
X162067177Y-132197627D01*
X162062612Y-132096623D01*
X162055058Y-132009226D01*
X162043740Y-131925861D01*
X162027883Y-131836954D01*
X162012173Y-131759083D01*
X161972095Y-131545475D01*
X161947519Y-131366069D01*
X161938434Y-131221841D01*
X161944829Y-131113766D01*
X161966693Y-131042820D01*
X162004016Y-131009979D01*
X162020378Y-131007666D01*
X162068339Y-131026523D01*
X162124386Y-131078700D01*
X162182492Y-131157604D01*
X162223573Y-131229916D01*
X162342309Y-131436306D01*
X162480399Y-131629740D01*
X162634126Y-131807885D01*
X162799771Y-131968407D01*
X162973615Y-132108971D01*
X163151942Y-132227244D01*
X163331033Y-132320890D01*
X163507170Y-132387576D01*
X163676635Y-132424968D01*
X163835709Y-132430730D01*
X163980676Y-132402530D01*
X164047115Y-132374758D01*
X164148179Y-132335148D01*
X164225347Y-132328091D01*
X164276994Y-132350137D01*
X164301497Y-132397838D01*
X164297231Y-132467746D01*
X164262572Y-132556410D01*
X164195896Y-132660384D01*
X164187063Y-132671931D01*
X164073965Y-132843377D01*
X163984539Y-133037607D01*
X163917200Y-133259173D01*
X163870363Y-133512629D01*
X163857650Y-133617879D01*
X163847034Y-133856266D01*
X163862974Y-134098380D01*
X163904051Y-134327674D01*
X163925027Y-134404916D01*
X163964649Y-134537128D01*
X163993325Y-134635145D01*
X164012219Y-134705335D01*
X164022498Y-134754066D01*
X164025326Y-134787708D01*
X164021869Y-134812629D01*
X164013293Y-134835197D01*
X164006426Y-134849730D01*
X163962199Y-134902515D01*
X163903287Y-134918842D01*
X163839641Y-134896680D01*
X163826101Y-134886529D01*
X163791543Y-134850906D01*
X163743352Y-134792737D01*
X163691786Y-134724424D01*
X163690343Y-134722416D01*
X163531876Y-134528499D01*
X163346374Y-134347371D01*
X163141222Y-134184107D01*
X162923802Y-134043782D01*
X162701498Y-133931468D01*
X162481694Y-133852240D01*
X162391843Y-133830040D01*
X162257136Y-133810379D01*
X162134910Y-133814142D01*
X162009623Y-133843105D01*
X161893558Y-133886965D01*
X161805874Y-133919216D01*
X161721557Y-133941744D01*
X161659994Y-133949833D01*
X161605023Y-133947095D01*
X161580398Y-133933868D01*
X161574234Y-133902633D01*
X161574167Y-133895525D01*
X161579940Y-133845784D01*
X161600546Y-133795239D01*
X161640912Y-133735694D01*
X161705967Y-133658952D01*
X161736771Y-133625112D01*
X161851236Y-133479336D01*
X161855123Y-133472247D01*
X162235613Y-133472247D01*
X162260251Y-133483655D01*
X162276334Y-133484166D01*
X162379311Y-133497111D01*
X162507535Y-133533495D01*
X162653739Y-133589646D01*
X162810660Y-133661891D01*
X162971033Y-133746556D01*
X163127592Y-133839969D01*
X163273072Y-133938455D01*
X163400208Y-134038342D01*
X163436834Y-134070925D01*
X163553250Y-134178288D01*
X163566226Y-133847102D01*
X163579200Y-133635064D01*
X163600192Y-133443697D01*
X163625061Y-133297851D01*
X163652123Y-133182318D01*
X163685345Y-133059482D01*
X163719115Y-132949564D01*
X163732176Y-132911940D01*
X163793432Y-132744094D01*
X163715674Y-132723636D01*
X163654472Y-132707913D01*
X163570975Y-132686937D01*
X163489750Y-132666845D01*
X163221483Y-132582330D01*
X162976693Y-132464884D01*
X162748374Y-132310952D01*
X162681302Y-132256500D01*
X162584199Y-132174620D01*
X162514347Y-132116562D01*
X162466634Y-132078861D01*
X162435943Y-132058052D01*
X162417163Y-132050669D01*
X162405178Y-132053249D01*
X162394875Y-132062325D01*
X162394816Y-132062384D01*
X162385141Y-132093379D01*
X162376129Y-132165790D01*
X162367850Y-132278704D01*
X162360373Y-132431209D01*
X162355081Y-132579050D01*
X162348803Y-132755938D01*
X162341542Y-132898957D01*
X162332165Y-133016573D01*
X162319538Y-133117251D01*
X162302527Y-133209455D01*
X162279999Y-133301650D01*
X162250820Y-133402301D01*
X162240248Y-133436541D01*
X162235613Y-133472247D01*
X161855123Y-133472247D01*
X161942330Y-133313243D01*
X162015086Y-133117420D01*
X196140739Y-159722158D02*
X196232034Y-159729129D01*
X196232034Y-159729129D02*
X196309492Y-159743032D01*
X196309492Y-159743032D02*
X196387301Y-159765734D01*
X196387301Y-159765734D02*
X196400231Y-159770135D01*
X196400231Y-159770135D02*
X196538232Y-159830249D01*
X196538232Y-159830249D02*
X196682715Y-159914353D01*
X196682715Y-159914353D02*
X196818791Y-160012536D01*
X196818791Y-160012536D02*
X196931571Y-160114886D01*
X196931571Y-160114886D02*
X196952425Y-160137718D01*
X196952425Y-160137718D02*
X197009273Y-160210757D01*
X197009273Y-160210757D02*
X197064784Y-160295812D01*
X197064784Y-160295812D02*
X197113732Y-160383061D01*
X197113732Y-160383061D02*
X197150893Y-160462686D01*
X197150893Y-160462686D02*
X197171042Y-160524866D01*
X197171042Y-160524866D02*
X197172524Y-160551371D01*
X197172524Y-160551371D02*
X197151785Y-160581730D01*
X197151785Y-160581730D02*
X197103517Y-160591109D01*
X197103517Y-160591109D02*
X197025486Y-160579208D01*
X197025486Y-160579208D02*
X196915460Y-160545729D01*
X196915460Y-160545729D02*
X196797748Y-160501142D01*
X196797748Y-160501142D02*
X196708626Y-160465703D01*
X196708626Y-160465703D02*
X196637989Y-160439807D01*
X196637989Y-160439807D02*
X196575865Y-160421519D01*
X196575865Y-160421519D02*
X196512285Y-160408903D01*
X196512285Y-160408903D02*
X196437277Y-160400025D01*
X196437277Y-160400025D02*
X196340869Y-160392950D01*
X196340869Y-160392950D02*
X196213092Y-160385744D01*
X196213092Y-160385744D02*
X196199180Y-160384994D01*
X196199180Y-160384994D02*
X196006257Y-160372341D01*
X196006257Y-160372341D02*
X195850304Y-160356464D01*
X195850304Y-160356464D02*
X195726003Y-160336027D01*
X195726003Y-160336027D02*
X195628033Y-160309697D01*
X195628033Y-160309697D02*
X195551074Y-160276139D01*
X195551074Y-160276139D02*
X195489807Y-160234019D01*
X195489807Y-160234019D02*
X195452475Y-160197699D01*
X195452475Y-160197699D02*
X195414932Y-160128409D01*
X195414932Y-160128409D02*
X195414593Y-160050172D01*
X195414593Y-160050172D02*
X195448781Y-159968238D01*
X195448781Y-159968238D02*
X195514815Y-159887856D01*
X195514815Y-159887856D02*
X195610020Y-159814276D01*
X195610020Y-159814276D02*
X195663667Y-159783750D01*
X195663667Y-159783750D02*
X195721443Y-159755553D01*
X195721443Y-159755553D02*
X195771179Y-159737207D01*
X195771179Y-159737207D02*
X195824698Y-159726613D01*
X195824698Y-159726613D02*
X195893821Y-159721672D01*
X195893821Y-159721672D02*
X195990372Y-159720286D01*
X195990372Y-159720286D02*
X196021420Y-159720250D01*
X196021420Y-159720250D02*
X196140739Y-159722158D01*
X196140739Y-159722158D02*
X196140739Y-159722158D01*
G36*
X196140739Y-159722158D02*
G01*
X196232034Y-159729129D01*
X196309492Y-159743032D01*
X196387301Y-159765734D01*
X196400231Y-159770135D01*
X196538232Y-159830249D01*
X196682715Y-159914353D01*
X196818791Y-160012536D01*
X196931571Y-160114886D01*
X196952425Y-160137718D01*
X197009273Y-160210757D01*
X197064784Y-160295812D01*
X197113732Y-160383061D01*
X197150893Y-160462686D01*
X197171042Y-160524866D01*
X197172524Y-160551371D01*
X197151785Y-160581730D01*
X197103517Y-160591109D01*
X197025486Y-160579208D01*
X196915460Y-160545729D01*
X196797748Y-160501142D01*
X196708626Y-160465703D01*
X196637989Y-160439807D01*
X196575865Y-160421519D01*
X196512285Y-160408903D01*
X196437277Y-160400025D01*
X196340869Y-160392950D01*
X196213092Y-160385744D01*
X196199180Y-160384994D01*
X196006257Y-160372341D01*
X195850304Y-160356464D01*
X195726003Y-160336027D01*
X195628033Y-160309697D01*
X195551074Y-160276139D01*
X195489807Y-160234019D01*
X195452475Y-160197699D01*
X195414932Y-160128409D01*
X195414593Y-160050172D01*
X195448781Y-159968238D01*
X195514815Y-159887856D01*
X195610020Y-159814276D01*
X195663667Y-159783750D01*
X195721443Y-159755553D01*
X195771179Y-159737207D01*
X195824698Y-159726613D01*
X195893821Y-159721672D01*
X195990372Y-159720286D01*
X196021420Y-159720250D01*
X196140739Y-159722158D01*
G37*
X196140739Y-159722158D02*
X196232034Y-159729129D01*
X196309492Y-159743032D01*
X196387301Y-159765734D01*
X196400231Y-159770135D01*
X196538232Y-159830249D01*
X196682715Y-159914353D01*
X196818791Y-160012536D01*
X196931571Y-160114886D01*
X196952425Y-160137718D01*
X197009273Y-160210757D01*
X197064784Y-160295812D01*
X197113732Y-160383061D01*
X197150893Y-160462686D01*
X197171042Y-160524866D01*
X197172524Y-160551371D01*
X197151785Y-160581730D01*
X197103517Y-160591109D01*
X197025486Y-160579208D01*
X196915460Y-160545729D01*
X196797748Y-160501142D01*
X196708626Y-160465703D01*
X196637989Y-160439807D01*
X196575865Y-160421519D01*
X196512285Y-160408903D01*
X196437277Y-160400025D01*
X196340869Y-160392950D01*
X196213092Y-160385744D01*
X196199180Y-160384994D01*
X196006257Y-160372341D01*
X195850304Y-160356464D01*
X195726003Y-160336027D01*
X195628033Y-160309697D01*
X195551074Y-160276139D01*
X195489807Y-160234019D01*
X195452475Y-160197699D01*
X195414932Y-160128409D01*
X195414593Y-160050172D01*
X195448781Y-159968238D01*
X195514815Y-159887856D01*
X195610020Y-159814276D01*
X195663667Y-159783750D01*
X195721443Y-159755553D01*
X195771179Y-159737207D01*
X195824698Y-159726613D01*
X195893821Y-159721672D01*
X195990372Y-159720286D01*
X196021420Y-159720250D01*
X196140739Y-159722158D01*
X247606189Y-159827119D02*
X247633690Y-159850534D01*
X247633690Y-159850534D02*
X247643156Y-159891392D01*
X247643156Y-159891392D02*
X247641882Y-159934796D01*
X247641882Y-159934796D02*
X247627893Y-159998960D01*
X247627893Y-159998960D02*
X247602070Y-160049881D01*
X247602070Y-160049881D02*
X247597422Y-160055163D01*
X247597422Y-160055163D02*
X247566801Y-160073474D01*
X247566801Y-160073474D02*
X247502585Y-160102896D01*
X247502585Y-160102896D02*
X247411213Y-160140791D01*
X247411213Y-160140791D02*
X247299130Y-160184520D01*
X247299130Y-160184520D02*
X247172775Y-160231446D01*
X247172775Y-160231446D02*
X247125030Y-160248615D01*
X247125030Y-160248615D02*
X246550748Y-160462714D01*
X246550748Y-160462714D02*
X245993081Y-160690316D01*
X245993081Y-160690316D02*
X245440835Y-160936384D01*
X245440835Y-160936384D02*
X244882813Y-161205880D01*
X244882813Y-161205880D02*
X244378475Y-161466153D01*
X244378475Y-161466153D02*
X243689377Y-161843507D01*
X243689377Y-161843507D02*
X243000159Y-162244012D01*
X243000159Y-162244012D02*
X242314310Y-162665057D01*
X242314310Y-162665057D02*
X241635321Y-163104033D01*
X241635321Y-163104033D02*
X240966684Y-163558332D01*
X240966684Y-163558332D02*
X240311888Y-164025344D01*
X240311888Y-164025344D02*
X239674426Y-164502461D01*
X239674426Y-164502461D02*
X239057787Y-164987072D01*
X239057787Y-164987072D02*
X238465463Y-165476570D01*
X238465463Y-165476570D02*
X237900944Y-165968344D01*
X237900944Y-165968344D02*
X237367722Y-166459785D01*
X237367722Y-166459785D02*
X236869286Y-166948285D01*
X236869286Y-166948285D02*
X236434408Y-167403750D01*
X236434408Y-167403750D02*
X236188904Y-167677515D01*
X236188904Y-167677515D02*
X235957153Y-167950692D01*
X235957153Y-167950692D02*
X235741267Y-168220191D01*
X235741267Y-168220191D02*
X235543361Y-168482923D01*
X235543361Y-168482923D02*
X235365547Y-168735802D01*
X235365547Y-168735802D02*
X235209937Y-168975739D01*
X235209937Y-168975739D02*
X235078646Y-169199644D01*
X235078646Y-169199644D02*
X234973786Y-169404431D01*
X234973786Y-169404431D02*
X234897469Y-169587011D01*
X234897469Y-169587011D02*
X234861462Y-169702672D01*
X234861462Y-169702672D02*
X234822374Y-169932505D01*
X234822374Y-169932505D02*
X234823848Y-170154376D01*
X234823848Y-170154376D02*
X234864677Y-170367211D01*
X234864677Y-170367211D02*
X234943656Y-170569939D01*
X234943656Y-170569939D02*
X235059576Y-170761487D01*
X235059576Y-170761487D02*
X235211232Y-170940784D01*
X235211232Y-170940784D02*
X235397416Y-171106757D01*
X235397416Y-171106757D02*
X235616923Y-171258334D01*
X235616923Y-171258334D02*
X235868546Y-171394443D01*
X235868546Y-171394443D02*
X236151077Y-171514012D01*
X236151077Y-171514012D02*
X236463311Y-171615969D01*
X236463311Y-171615969D02*
X236804040Y-171699241D01*
X236804040Y-171699241D02*
X237172059Y-171762757D01*
X237172059Y-171762757D02*
X237181500Y-171764069D01*
X237181500Y-171764069D02*
X237336958Y-171781240D01*
X237336958Y-171781240D02*
X237524063Y-171794981D01*
X237524063Y-171794981D02*
X237732248Y-171805048D01*
X237732248Y-171805048D02*
X237950946Y-171811198D01*
X237950946Y-171811198D02*
X238169592Y-171813188D01*
X238169592Y-171813188D02*
X238377619Y-171810775D01*
X238377619Y-171810775D02*
X238564460Y-171803717D01*
X238564460Y-171803717D02*
X238652584Y-171797907D01*
X238652584Y-171797907D02*
X239001798Y-171763221D01*
X239001798Y-171763221D02*
X239382544Y-171712227D01*
X239382544Y-171712227D02*
X239787899Y-171646319D01*
X239787899Y-171646319D02*
X240210941Y-171566895D01*
X240210941Y-171566895D02*
X240644747Y-171475351D01*
X240644747Y-171475351D02*
X241082395Y-171373081D01*
X241082395Y-171373081D02*
X241516963Y-171261483D01*
X241516963Y-171261483D02*
X241941529Y-171141953D01*
X241941529Y-171141953D02*
X242018084Y-171119184D01*
X242018084Y-171119184D02*
X242857539Y-170848602D01*
X242857539Y-170848602D02*
X243687935Y-170543759D01*
X243687935Y-170543759D02*
X244505913Y-170206401D01*
X244505913Y-170206401D02*
X245308113Y-169838272D01*
X245308113Y-169838272D02*
X246091175Y-169441120D01*
X246091175Y-169441120D02*
X246851740Y-169016690D01*
X246851740Y-169016690D02*
X247586446Y-168566727D01*
X247586446Y-168566727D02*
X248291936Y-168092977D01*
X248291936Y-168092977D02*
X248964849Y-167597187D01*
X248964849Y-167597187D02*
X249287604Y-167341924D01*
X249287604Y-167341924D02*
X249532501Y-167138264D01*
X249532501Y-167138264D02*
X249795431Y-166909932D01*
X249795431Y-166909932D02*
X250067454Y-166664885D01*
X250067454Y-166664885D02*
X250339632Y-166411079D01*
X250339632Y-166411079D02*
X250426010Y-166328631D01*
X250426010Y-166328631D02*
X250565030Y-166196008D01*
X250565030Y-166196008D02*
X250678468Y-166091281D01*
X250678468Y-166091281D02*
X250770823Y-166012559D01*
X250770823Y-166012559D02*
X250846591Y-165957950D01*
X250846591Y-165957950D02*
X250910271Y-165925563D01*
X250910271Y-165925563D02*
X250966362Y-165913506D01*
X250966362Y-165913506D02*
X251019361Y-165919888D01*
X251019361Y-165919888D02*
X251073766Y-165942818D01*
X251073766Y-165942818D02*
X251134076Y-165980404D01*
X251134076Y-165980404D02*
X251178911Y-166012041D01*
X251178911Y-166012041D02*
X251267314Y-166080451D01*
X251267314Y-166080451D02*
X251321783Y-166135747D01*
X251321783Y-166135747D02*
X251346338Y-166183568D01*
X251346338Y-166183568D02*
X251344998Y-166229548D01*
X251344998Y-166229548D02*
X251341569Y-166240136D01*
X251341569Y-166240136D02*
X251319934Y-166271216D01*
X251319934Y-166271216D02*
X251271017Y-166326259D01*
X251271017Y-166326259D02*
X251199159Y-166401082D01*
X251199159Y-166401082D02*
X251108698Y-166491499D01*
X251108698Y-166491499D02*
X251003973Y-166593326D01*
X251003973Y-166593326D02*
X250889323Y-166702378D01*
X250889323Y-166702378D02*
X250769085Y-166814470D01*
X250769085Y-166814470D02*
X250647600Y-166925418D01*
X250647600Y-166925418D02*
X250529205Y-167031037D01*
X250529205Y-167031037D02*
X250450548Y-167099510D01*
X250450548Y-167099510D02*
X249877234Y-167572812D01*
X249877234Y-167572812D02*
X249264640Y-168040753D01*
X249264640Y-168040753D02*
X248615661Y-168501638D01*
X248615661Y-168501638D02*
X247933192Y-168953774D01*
X247933192Y-168953774D02*
X247220126Y-169395467D01*
X247220126Y-169395467D02*
X246479359Y-169825023D01*
X246479359Y-169825023D02*
X245713784Y-170240748D01*
X245713784Y-170240748D02*
X244926297Y-170640948D01*
X244926297Y-170640948D02*
X244119792Y-171023930D01*
X244119792Y-171023930D02*
X243297164Y-171387999D01*
X243297164Y-171387999D02*
X242695417Y-171637910D01*
X242695417Y-171637910D02*
X241980856Y-171916998D01*
X241980856Y-171916998D02*
X241275496Y-172173443D01*
X241275496Y-172173443D02*
X240581247Y-172406832D01*
X240581247Y-172406832D02*
X239900016Y-172616748D01*
X239900016Y-172616748D02*
X239233711Y-172802778D01*
X239233711Y-172802778D02*
X238584242Y-172964506D01*
X238584242Y-172964506D02*
X237953515Y-173101518D01*
X237953515Y-173101518D02*
X237343439Y-173213399D01*
X237343439Y-173213399D02*
X236755922Y-173299734D01*
X236755922Y-173299734D02*
X236192872Y-173360109D01*
X236192872Y-173360109D02*
X235656199Y-173394109D01*
X235656199Y-173394109D02*
X235147809Y-173401318D01*
X235147809Y-173401318D02*
X234673250Y-173381588D01*
X234673250Y-173381588D02*
X234424026Y-173358663D01*
X234424026Y-173358663D02*
X234176614Y-173326722D01*
X234176614Y-173326722D02*
X233937688Y-173287141D01*
X233937688Y-173287141D02*
X233713919Y-173241298D01*
X233713919Y-173241298D02*
X233511979Y-173190570D01*
X233511979Y-173190570D02*
X233338540Y-173136334D01*
X233338540Y-173136334D02*
X233200275Y-173079967D01*
X233200275Y-173079967D02*
X233191815Y-173075843D01*
X233191815Y-173075843D02*
X233000997Y-172958279D01*
X233000997Y-172958279D02*
X232830485Y-172804082D01*
X232830485Y-172804082D02*
X232680033Y-172612970D01*
X232680033Y-172612970D02*
X232549395Y-172384661D01*
X232549395Y-172384661D02*
X232504644Y-172287511D01*
X232504644Y-172287511D02*
X232444362Y-172133735D01*
X232444362Y-172133735D02*
X232399739Y-171983473D01*
X232399739Y-171983473D02*
X232371748Y-171834445D01*
X232371748Y-171834445D02*
X232361361Y-171684370D01*
X232361361Y-171684370D02*
X232369551Y-171530970D01*
X232369551Y-171530970D02*
X232397291Y-171371964D01*
X232397291Y-171371964D02*
X232445553Y-171205073D01*
X232445553Y-171205073D02*
X232515309Y-171028016D01*
X232515309Y-171028016D02*
X232607533Y-170838515D01*
X232607533Y-170838515D02*
X232723196Y-170634289D01*
X232723196Y-170634289D02*
X232863271Y-170413058D01*
X232863271Y-170413058D02*
X233028732Y-170172544D01*
X233028732Y-170172544D02*
X233220549Y-169910465D01*
X233220549Y-169910465D02*
X233439697Y-169624543D01*
X233439697Y-169624543D02*
X233687147Y-169312497D01*
X233687147Y-169312497D02*
X233870217Y-169086500D01*
X233870217Y-169086500D02*
X234374538Y-168488155D01*
X234374538Y-168488155D02*
X234915207Y-167884273D01*
X234915207Y-167884273D02*
X235487500Y-167279580D01*
X235487500Y-167279580D02*
X236086697Y-166678802D01*
X236086697Y-166678802D02*
X236708073Y-166086663D01*
X236708073Y-166086663D02*
X237346907Y-165507891D01*
X237346907Y-165507891D02*
X237998476Y-164947210D01*
X237998476Y-164947210D02*
X238049334Y-164904677D01*
X238049334Y-164904677D02*
X238784374Y-164308394D01*
X238784374Y-164308394D02*
X239533015Y-163734616D01*
X239533015Y-163734616D02*
X240290374Y-163186739D01*
X240290374Y-163186739D02*
X241051568Y-162668162D01*
X241051568Y-162668162D02*
X241811716Y-162182282D01*
X241811716Y-162182282D02*
X242565935Y-161732498D01*
X242565935Y-161732498D02*
X242790667Y-161604911D01*
X242790667Y-161604911D02*
X242956394Y-161514103D01*
X242956394Y-161514103D02*
X243150321Y-161411457D01*
X243150321Y-161411457D02*
X243364699Y-161300803D01*
X243364699Y-161300803D02*
X243591779Y-161185974D01*
X243591779Y-161185974D02*
X243823810Y-161070801D01*
X243823810Y-161070801D02*
X244053044Y-160959117D01*
X244053044Y-160959117D02*
X244271731Y-160854752D01*
X244271731Y-160854752D02*
X244472121Y-160761539D01*
X244472121Y-160761539D02*
X244646466Y-160683309D01*
X244646466Y-160683309D02*
X244710499Y-160655655D01*
X244710499Y-160655655D02*
X245318251Y-160411776D01*
X245318251Y-160411776D02*
X245906834Y-160205455D01*
X245906834Y-160205455D02*
X246476475Y-160036625D01*
X246476475Y-160036625D02*
X247027402Y-159905213D01*
X247027402Y-159905213D02*
X247357706Y-159842834D01*
X247357706Y-159842834D02*
X247473974Y-159825138D01*
X247473974Y-159825138D02*
X247554876Y-159819277D01*
X247554876Y-159819277D02*
X247606189Y-159827119D01*
X247606189Y-159827119D02*
X247606189Y-159827119D01*
G36*
X247606189Y-159827119D02*
G01*
X247633690Y-159850534D01*
X247643156Y-159891392D01*
X247641882Y-159934796D01*
X247627893Y-159998960D01*
X247602070Y-160049881D01*
X247597422Y-160055163D01*
X247566801Y-160073474D01*
X247502585Y-160102896D01*
X247411213Y-160140791D01*
X247299130Y-160184520D01*
X247172775Y-160231446D01*
X247125030Y-160248615D01*
X246550748Y-160462714D01*
X245993081Y-160690316D01*
X245440835Y-160936384D01*
X244882813Y-161205880D01*
X244378475Y-161466153D01*
X243689377Y-161843507D01*
X243000159Y-162244012D01*
X242314310Y-162665057D01*
X241635321Y-163104033D01*
X240966684Y-163558332D01*
X240311888Y-164025344D01*
X239674426Y-164502461D01*
X239057787Y-164987072D01*
X238465463Y-165476570D01*
X237900944Y-165968344D01*
X237367722Y-166459785D01*
X236869286Y-166948285D01*
X236434408Y-167403750D01*
X236188904Y-167677515D01*
X235957153Y-167950692D01*
X235741267Y-168220191D01*
X235543361Y-168482923D01*
X235365547Y-168735802D01*
X235209937Y-168975739D01*
X235078646Y-169199644D01*
X234973786Y-169404431D01*
X234897469Y-169587011D01*
X234861462Y-169702672D01*
X234822374Y-169932505D01*
X234823848Y-170154376D01*
X234864677Y-170367211D01*
X234943656Y-170569939D01*
X235059576Y-170761487D01*
X235211232Y-170940784D01*
X235397416Y-171106757D01*
X235616923Y-171258334D01*
X235868546Y-171394443D01*
X236151077Y-171514012D01*
X236463311Y-171615969D01*
X236804040Y-171699241D01*
X237172059Y-171762757D01*
X237181500Y-171764069D01*
X237336958Y-171781240D01*
X237524063Y-171794981D01*
X237732248Y-171805048D01*
X237950946Y-171811198D01*
X238169592Y-171813188D01*
X238377619Y-171810775D01*
X238564460Y-171803717D01*
X238652584Y-171797907D01*
X239001798Y-171763221D01*
X239382544Y-171712227D01*
X239787899Y-171646319D01*
X240210941Y-171566895D01*
X240644747Y-171475351D01*
X241082395Y-171373081D01*
X241516963Y-171261483D01*
X241941529Y-171141953D01*
X242018084Y-171119184D01*
X242857539Y-170848602D01*
X243687935Y-170543759D01*
X244505913Y-170206401D01*
X245308113Y-169838272D01*
X246091175Y-169441120D01*
X246851740Y-169016690D01*
X247586446Y-168566727D01*
X248291936Y-168092977D01*
X248964849Y-167597187D01*
X249287604Y-167341924D01*
X249532501Y-167138264D01*
X249795431Y-166909932D01*
X250067454Y-166664885D01*
X250339632Y-166411079D01*
X250426010Y-166328631D01*
X250565030Y-166196008D01*
X250678468Y-166091281D01*
X250770823Y-166012559D01*
X250846591Y-165957950D01*
X250910271Y-165925563D01*
X250966362Y-165913506D01*
X251019361Y-165919888D01*
X251073766Y-165942818D01*
X251134076Y-165980404D01*
X251178911Y-166012041D01*
X251267314Y-166080451D01*
X251321783Y-166135747D01*
X251346338Y-166183568D01*
X251344998Y-166229548D01*
X251341569Y-166240136D01*
X251319934Y-166271216D01*
X251271017Y-166326259D01*
X251199159Y-166401082D01*
X251108698Y-166491499D01*
X251003973Y-166593326D01*
X250889323Y-166702378D01*
X250769085Y-166814470D01*
X250647600Y-166925418D01*
X250529205Y-167031037D01*
X250450548Y-167099510D01*
X249877234Y-167572812D01*
X249264640Y-168040753D01*
X248615661Y-168501638D01*
X247933192Y-168953774D01*
X247220126Y-169395467D01*
X246479359Y-169825023D01*
X245713784Y-170240748D01*
X244926297Y-170640948D01*
X244119792Y-171023930D01*
X243297164Y-171387999D01*
X242695417Y-171637910D01*
X241980856Y-171916998D01*
X241275496Y-172173443D01*
X240581247Y-172406832D01*
X239900016Y-172616748D01*
X239233711Y-172802778D01*
X238584242Y-172964506D01*
X237953515Y-173101518D01*
X237343439Y-173213399D01*
X236755922Y-173299734D01*
X236192872Y-173360109D01*
X235656199Y-173394109D01*
X235147809Y-173401318D01*
X234673250Y-173381588D01*
X234424026Y-173358663D01*
X234176614Y-173326722D01*
X233937688Y-173287141D01*
X233713919Y-173241298D01*
X233511979Y-173190570D01*
X233338540Y-173136334D01*
X233200275Y-173079967D01*
X233191815Y-173075843D01*
X233000997Y-172958279D01*
X232830485Y-172804082D01*
X232680033Y-172612970D01*
X232549395Y-172384661D01*
X232504644Y-172287511D01*
X232444362Y-172133735D01*
X232399739Y-171983473D01*
X232371748Y-171834445D01*
X232361361Y-171684370D01*
X232369551Y-171530970D01*
X232397291Y-171371964D01*
X232445553Y-171205073D01*
X232515309Y-171028016D01*
X232607533Y-170838515D01*
X232723196Y-170634289D01*
X232863271Y-170413058D01*
X233028732Y-170172544D01*
X233220549Y-169910465D01*
X233439697Y-169624543D01*
X233687147Y-169312497D01*
X233870217Y-169086500D01*
X234374538Y-168488155D01*
X234915207Y-167884273D01*
X235487500Y-167279580D01*
X236086697Y-166678802D01*
X236708073Y-166086663D01*
X237346907Y-165507891D01*
X237998476Y-164947210D01*
X238049334Y-164904677D01*
X238784374Y-164308394D01*
X239533015Y-163734616D01*
X240290374Y-163186739D01*
X241051568Y-162668162D01*
X241811716Y-162182282D01*
X242565935Y-161732498D01*
X242790667Y-161604911D01*
X242956394Y-161514103D01*
X243150321Y-161411457D01*
X243364699Y-161300803D01*
X243591779Y-161185974D01*
X243823810Y-161070801D01*
X244053044Y-160959117D01*
X244271731Y-160854752D01*
X244472121Y-160761539D01*
X244646466Y-160683309D01*
X244710499Y-160655655D01*
X245318251Y-160411776D01*
X245906834Y-160205455D01*
X246476475Y-160036625D01*
X247027402Y-159905213D01*
X247357706Y-159842834D01*
X247473974Y-159825138D01*
X247554876Y-159819277D01*
X247606189Y-159827119D01*
G37*
X247606189Y-159827119D02*
X247633690Y-159850534D01*
X247643156Y-159891392D01*
X247641882Y-159934796D01*
X247627893Y-159998960D01*
X247602070Y-160049881D01*
X247597422Y-160055163D01*
X247566801Y-160073474D01*
X247502585Y-160102896D01*
X247411213Y-160140791D01*
X247299130Y-160184520D01*
X247172775Y-160231446D01*
X247125030Y-160248615D01*
X246550748Y-160462714D01*
X245993081Y-160690316D01*
X245440835Y-160936384D01*
X244882813Y-161205880D01*
X244378475Y-161466153D01*
X243689377Y-161843507D01*
X243000159Y-162244012D01*
X242314310Y-162665057D01*
X241635321Y-163104033D01*
X240966684Y-163558332D01*
X240311888Y-164025344D01*
X239674426Y-164502461D01*
X239057787Y-164987072D01*
X238465463Y-165476570D01*
X237900944Y-165968344D01*
X237367722Y-166459785D01*
X236869286Y-166948285D01*
X236434408Y-167403750D01*
X236188904Y-167677515D01*
X235957153Y-167950692D01*
X235741267Y-168220191D01*
X235543361Y-168482923D01*
X235365547Y-168735802D01*
X235209937Y-168975739D01*
X235078646Y-169199644D01*
X234973786Y-169404431D01*
X234897469Y-169587011D01*
X234861462Y-169702672D01*
X234822374Y-169932505D01*
X234823848Y-170154376D01*
X234864677Y-170367211D01*
X234943656Y-170569939D01*
X235059576Y-170761487D01*
X235211232Y-170940784D01*
X235397416Y-171106757D01*
X235616923Y-171258334D01*
X235868546Y-171394443D01*
X236151077Y-171514012D01*
X236463311Y-171615969D01*
X236804040Y-171699241D01*
X237172059Y-171762757D01*
X237181500Y-171764069D01*
X237336958Y-171781240D01*
X237524063Y-171794981D01*
X237732248Y-171805048D01*
X237950946Y-171811198D01*
X238169592Y-171813188D01*
X238377619Y-171810775D01*
X238564460Y-171803717D01*
X238652584Y-171797907D01*
X239001798Y-171763221D01*
X239382544Y-171712227D01*
X239787899Y-171646319D01*
X240210941Y-171566895D01*
X240644747Y-171475351D01*
X241082395Y-171373081D01*
X241516963Y-171261483D01*
X241941529Y-171141953D01*
X242018084Y-171119184D01*
X242857539Y-170848602D01*
X243687935Y-170543759D01*
X244505913Y-170206401D01*
X245308113Y-169838272D01*
X246091175Y-169441120D01*
X246851740Y-169016690D01*
X247586446Y-168566727D01*
X248291936Y-168092977D01*
X248964849Y-167597187D01*
X249287604Y-167341924D01*
X249532501Y-167138264D01*
X249795431Y-166909932D01*
X250067454Y-166664885D01*
X250339632Y-166411079D01*
X250426010Y-166328631D01*
X250565030Y-166196008D01*
X250678468Y-166091281D01*
X250770823Y-166012559D01*
X250846591Y-165957950D01*
X250910271Y-165925563D01*
X250966362Y-165913506D01*
X251019361Y-165919888D01*
X251073766Y-165942818D01*
X251134076Y-165980404D01*
X251178911Y-166012041D01*
X251267314Y-166080451D01*
X251321783Y-166135747D01*
X251346338Y-166183568D01*
X251344998Y-166229548D01*
X251341569Y-166240136D01*
X251319934Y-166271216D01*
X251271017Y-166326259D01*
X251199159Y-166401082D01*
X251108698Y-166491499D01*
X251003973Y-166593326D01*
X250889323Y-166702378D01*
X250769085Y-166814470D01*
X250647600Y-166925418D01*
X250529205Y-167031037D01*
X250450548Y-167099510D01*
X249877234Y-167572812D01*
X249264640Y-168040753D01*
X248615661Y-168501638D01*
X247933192Y-168953774D01*
X247220126Y-169395467D01*
X246479359Y-169825023D01*
X245713784Y-170240748D01*
X244926297Y-170640948D01*
X244119792Y-171023930D01*
X243297164Y-171387999D01*
X242695417Y-171637910D01*
X241980856Y-171916998D01*
X241275496Y-172173443D01*
X240581247Y-172406832D01*
X239900016Y-172616748D01*
X239233711Y-172802778D01*
X238584242Y-172964506D01*
X237953515Y-173101518D01*
X237343439Y-173213399D01*
X236755922Y-173299734D01*
X236192872Y-173360109D01*
X235656199Y-173394109D01*
X235147809Y-173401318D01*
X234673250Y-173381588D01*
X234424026Y-173358663D01*
X234176614Y-173326722D01*
X233937688Y-173287141D01*
X233713919Y-173241298D01*
X233511979Y-173190570D01*
X233338540Y-173136334D01*
X233200275Y-173079967D01*
X233191815Y-173075843D01*
X233000997Y-172958279D01*
X232830485Y-172804082D01*
X232680033Y-172612970D01*
X232549395Y-172384661D01*
X232504644Y-172287511D01*
X232444362Y-172133735D01*
X232399739Y-171983473D01*
X232371748Y-171834445D01*
X232361361Y-171684370D01*
X232369551Y-171530970D01*
X232397291Y-171371964D01*
X232445553Y-171205073D01*
X232515309Y-171028016D01*
X232607533Y-170838515D01*
X232723196Y-170634289D01*
X232863271Y-170413058D01*
X233028732Y-170172544D01*
X233220549Y-169910465D01*
X233439697Y-169624543D01*
X233687147Y-169312497D01*
X233870217Y-169086500D01*
X234374538Y-168488155D01*
X234915207Y-167884273D01*
X235487500Y-167279580D01*
X236086697Y-166678802D01*
X236708073Y-166086663D01*
X237346907Y-165507891D01*
X237998476Y-164947210D01*
X238049334Y-164904677D01*
X238784374Y-164308394D01*
X239533015Y-163734616D01*
X240290374Y-163186739D01*
X241051568Y-162668162D01*
X241811716Y-162182282D01*
X242565935Y-161732498D01*
X242790667Y-161604911D01*
X242956394Y-161514103D01*
X243150321Y-161411457D01*
X243364699Y-161300803D01*
X243591779Y-161185974D01*
X243823810Y-161070801D01*
X244053044Y-160959117D01*
X244271731Y-160854752D01*
X244472121Y-160761539D01*
X244646466Y-160683309D01*
X244710499Y-160655655D01*
X245318251Y-160411776D01*
X245906834Y-160205455D01*
X246476475Y-160036625D01*
X247027402Y-159905213D01*
X247357706Y-159842834D01*
X247473974Y-159825138D01*
X247554876Y-159819277D01*
X247606189Y-159827119D01*
X218892585Y-140169220D02*
X218944890Y-140215479D01*
X218944890Y-140215479D02*
X218999756Y-140280842D01*
X218999756Y-140280842D02*
X219049453Y-140355707D01*
X219049453Y-140355707D02*
X219086252Y-140430473D01*
X219086252Y-140430473D02*
X219094682Y-140454933D01*
X219094682Y-140454933D02*
X219120981Y-140575511D01*
X219120981Y-140575511D02*
X219125149Y-140693401D01*
X219125149Y-140693401D02*
X219105506Y-140814661D01*
X219105506Y-140814661D02*
X219060373Y-140945345D01*
X219060373Y-140945345D02*
X218988071Y-141091510D01*
X218988071Y-141091510D02*
X218886921Y-141259212D01*
X218886921Y-141259212D02*
X218860393Y-141299958D01*
X218860393Y-141299958D02*
X218787417Y-141410006D01*
X218787417Y-141410006D02*
X218734188Y-141487938D01*
X218734188Y-141487938D02*
X218697804Y-141537399D01*
X218697804Y-141537399D02*
X218675359Y-141562034D01*
X218675359Y-141562034D02*
X218663950Y-141565490D01*
X218663950Y-141565490D02*
X218660670Y-141551411D01*
X218660670Y-141551411D02*
X218660667Y-141550639D01*
X218660667Y-141550639D02*
X218668812Y-141523116D01*
X218668812Y-141523116D02*
X218690284Y-141468425D01*
X218690284Y-141468425D02*
X218720634Y-141397821D01*
X218720634Y-141397821D02*
X218724268Y-141389690D01*
X218724268Y-141389690D02*
X218759261Y-141307151D01*
X218759261Y-141307151D02*
X218783233Y-141234992D01*
X218783233Y-141234992D02*
X218797055Y-141163635D01*
X218797055Y-141163635D02*
X218801598Y-141083502D01*
X218801598Y-141083502D02*
X218797734Y-140985016D01*
X218797734Y-140985016D02*
X218786334Y-140858598D01*
X218786334Y-140858598D02*
X218778888Y-140789231D01*
X218778888Y-140789231D02*
X218766502Y-140668395D01*
X218766502Y-140668395D02*
X218756179Y-140551510D01*
X218756179Y-140551510D02*
X218748853Y-140450386D01*
X218748853Y-140450386D02*
X218745460Y-140376832D01*
X218745460Y-140376832D02*
X218745334Y-140365316D01*
X218745334Y-140365316D02*
X218754953Y-140265361D01*
X218754953Y-140265361D02*
X218782241Y-140194142D01*
X218782241Y-140194142D02*
X218824837Y-140156448D01*
X218824837Y-140156448D02*
X218850568Y-140151666D01*
X218850568Y-140151666D02*
X218892585Y-140169220D01*
X218892585Y-140169220D02*
X218892585Y-140169220D01*
G36*
X218892585Y-140169220D02*
G01*
X218944890Y-140215479D01*
X218999756Y-140280842D01*
X219049453Y-140355707D01*
X219086252Y-140430473D01*
X219094682Y-140454933D01*
X219120981Y-140575511D01*
X219125149Y-140693401D01*
X219105506Y-140814661D01*
X219060373Y-140945345D01*
X218988071Y-141091510D01*
X218886921Y-141259212D01*
X218860393Y-141299958D01*
X218787417Y-141410006D01*
X218734188Y-141487938D01*
X218697804Y-141537399D01*
X218675359Y-141562034D01*
X218663950Y-141565490D01*
X218660670Y-141551411D01*
X218660667Y-141550639D01*
X218668812Y-141523116D01*
X218690284Y-141468425D01*
X218720634Y-141397821D01*
X218724268Y-141389690D01*
X218759261Y-141307151D01*
X218783233Y-141234992D01*
X218797055Y-141163635D01*
X218801598Y-141083502D01*
X218797734Y-140985016D01*
X218786334Y-140858598D01*
X218778888Y-140789231D01*
X218766502Y-140668395D01*
X218756179Y-140551510D01*
X218748853Y-140450386D01*
X218745460Y-140376832D01*
X218745334Y-140365316D01*
X218754953Y-140265361D01*
X218782241Y-140194142D01*
X218824837Y-140156448D01*
X218850568Y-140151666D01*
X218892585Y-140169220D01*
G37*
X218892585Y-140169220D02*
X218944890Y-140215479D01*
X218999756Y-140280842D01*
X219049453Y-140355707D01*
X219086252Y-140430473D01*
X219094682Y-140454933D01*
X219120981Y-140575511D01*
X219125149Y-140693401D01*
X219105506Y-140814661D01*
X219060373Y-140945345D01*
X218988071Y-141091510D01*
X218886921Y-141259212D01*
X218860393Y-141299958D01*
X218787417Y-141410006D01*
X218734188Y-141487938D01*
X218697804Y-141537399D01*
X218675359Y-141562034D01*
X218663950Y-141565490D01*
X218660670Y-141551411D01*
X218660667Y-141550639D01*
X218668812Y-141523116D01*
X218690284Y-141468425D01*
X218720634Y-141397821D01*
X218724268Y-141389690D01*
X218759261Y-141307151D01*
X218783233Y-141234992D01*
X218797055Y-141163635D01*
X218801598Y-141083502D01*
X218797734Y-140985016D01*
X218786334Y-140858598D01*
X218778888Y-140789231D01*
X218766502Y-140668395D01*
X218756179Y-140551510D01*
X218748853Y-140450386D01*
X218745460Y-140376832D01*
X218745334Y-140365316D01*
X218754953Y-140265361D01*
X218782241Y-140194142D01*
X218824837Y-140156448D01*
X218850568Y-140151666D01*
X218892585Y-140169220D01*
X195917038Y-154977291D02*
X195977252Y-155005526D01*
X195977252Y-155005526D02*
X196009108Y-155053239D01*
X196009108Y-155053239D02*
X196012334Y-155078533D01*
X196012334Y-155078533D02*
X196003035Y-155112251D01*
X196003035Y-155112251D02*
X195970525Y-155140261D01*
X195970525Y-155140261D02*
X195907879Y-155167004D01*
X195907879Y-155167004D02*
X195843000Y-155187174D01*
X195843000Y-155187174D02*
X195771987Y-155211584D01*
X195771987Y-155211584D02*
X195678633Y-155249147D01*
X195678633Y-155249147D02*
X195578197Y-155293560D01*
X195578197Y-155293560D02*
X195529346Y-155316729D01*
X195529346Y-155316729D02*
X195423129Y-155367073D01*
X195423129Y-155367073D02*
X195349486Y-155397857D01*
X195349486Y-155397857D02*
X195303919Y-155409966D01*
X195303919Y-155409966D02*
X195281934Y-155404285D01*
X195281934Y-155404285D02*
X195279033Y-155381698D01*
X195279033Y-155381698D02*
X195283071Y-155365208D01*
X195283071Y-155365208D02*
X195340418Y-155248437D01*
X195340418Y-155248437D02*
X195437567Y-155143800D01*
X195437567Y-155143800D02*
X195573467Y-155052318D01*
X195573467Y-155052318D02*
X195636839Y-155020384D01*
X195636839Y-155020384D02*
X195739773Y-154983627D01*
X195739773Y-154983627D02*
X195835526Y-154969627D01*
X195835526Y-154969627D02*
X195917038Y-154977291D01*
X195917038Y-154977291D02*
X195917038Y-154977291D01*
G36*
X195917038Y-154977291D02*
G01*
X195977252Y-155005526D01*
X196009108Y-155053239D01*
X196012334Y-155078533D01*
X196003035Y-155112251D01*
X195970525Y-155140261D01*
X195907879Y-155167004D01*
X195843000Y-155187174D01*
X195771987Y-155211584D01*
X195678633Y-155249147D01*
X195578197Y-155293560D01*
X195529346Y-155316729D01*
X195423129Y-155367073D01*
X195349486Y-155397857D01*
X195303919Y-155409966D01*
X195281934Y-155404285D01*
X195279033Y-155381698D01*
X195283071Y-155365208D01*
X195340418Y-155248437D01*
X195437567Y-155143800D01*
X195573467Y-155052318D01*
X195636839Y-155020384D01*
X195739773Y-154983627D01*
X195835526Y-154969627D01*
X195917038Y-154977291D01*
G37*
X195917038Y-154977291D02*
X195977252Y-155005526D01*
X196009108Y-155053239D01*
X196012334Y-155078533D01*
X196003035Y-155112251D01*
X195970525Y-155140261D01*
X195907879Y-155167004D01*
X195843000Y-155187174D01*
X195771987Y-155211584D01*
X195678633Y-155249147D01*
X195578197Y-155293560D01*
X195529346Y-155316729D01*
X195423129Y-155367073D01*
X195349486Y-155397857D01*
X195303919Y-155409966D01*
X195281934Y-155404285D01*
X195279033Y-155381698D01*
X195283071Y-155365208D01*
X195340418Y-155248437D01*
X195437567Y-155143800D01*
X195573467Y-155052318D01*
X195636839Y-155020384D01*
X195739773Y-154983627D01*
X195835526Y-154969627D01*
X195917038Y-154977291D01*
X267470181Y-147620975D02*
X267562951Y-147642415D01*
X267562951Y-147642415D02*
X267661543Y-147683638D01*
X267661543Y-147683638D02*
X267665000Y-147685438D01*
X267665000Y-147685438D02*
X267733903Y-147720024D01*
X267733903Y-147720024D02*
X267789213Y-147741140D01*
X267789213Y-147741140D02*
X267843950Y-147750691D01*
X267843950Y-147750691D02*
X267911135Y-147750580D01*
X267911135Y-147750580D02*
X268003789Y-147742712D01*
X268003789Y-147742712D02*
X268034771Y-147739514D01*
X268034771Y-147739514D02*
X268162751Y-147731724D01*
X268162751Y-147731724D02*
X268261359Y-147740528D01*
X268261359Y-147740528D02*
X268341097Y-147768293D01*
X268341097Y-147768293D02*
X268412463Y-147817386D01*
X268412463Y-147817386D02*
X268423526Y-147827125D01*
X268423526Y-147827125D02*
X268504477Y-147921373D01*
X268504477Y-147921373D02*
X268552184Y-148030938D01*
X268552184Y-148030938D02*
X268569035Y-148162663D01*
X268569035Y-148162663D02*
X268566745Y-148237452D01*
X268566745Y-148237452D02*
X268545110Y-148376110D01*
X268545110Y-148376110D02*
X268498443Y-148505901D01*
X268498443Y-148505901D02*
X268422878Y-148633966D01*
X268422878Y-148633966D02*
X268314548Y-148767443D01*
X268314548Y-148767443D02*
X268234552Y-148850778D01*
X268234552Y-148850778D02*
X268045861Y-149017253D01*
X268045861Y-149017253D02*
X267856539Y-149142558D01*
X267856539Y-149142558D02*
X267667236Y-149226367D01*
X267667236Y-149226367D02*
X267478601Y-149268358D01*
X267478601Y-149268358D02*
X267386334Y-149273570D01*
X267386334Y-149273570D02*
X267295396Y-149269335D01*
X267295396Y-149269335D02*
X267223129Y-149252495D01*
X267223129Y-149252495D02*
X267146417Y-149217230D01*
X267146417Y-149217230D02*
X267132492Y-149209658D01*
X267132492Y-149209658D02*
X267060296Y-149166526D01*
X267060296Y-149166526D02*
X266995668Y-149122281D01*
X266995668Y-149122281D02*
X266963159Y-149095895D01*
X266963159Y-149095895D02*
X266916924Y-149058159D01*
X266916924Y-149058159D02*
X266850166Y-149010087D01*
X266850166Y-149010087D02*
X266788978Y-148969588D01*
X266788978Y-148969588D02*
X266707927Y-148913766D01*
X266707927Y-148913766D02*
X266658296Y-148864610D01*
X266658296Y-148864610D02*
X266632908Y-148811399D01*
X266632908Y-148811399D02*
X266624588Y-148743407D01*
X266624588Y-148743407D02*
X266624334Y-148723576D01*
X266624334Y-148723576D02*
X266628721Y-148664065D01*
X266628721Y-148664065D02*
X266645358Y-148634166D01*
X266645358Y-148634166D02*
X266666925Y-148624398D01*
X266666925Y-148624398D02*
X266697911Y-148600489D01*
X266697911Y-148600489D02*
X266743072Y-148544357D01*
X266743072Y-148544357D02*
X266797976Y-148461801D01*
X266797976Y-148461801D02*
X266823860Y-148418974D01*
X266823860Y-148418974D02*
X266885125Y-148317919D01*
X266885125Y-148317919D02*
X266946099Y-148224843D01*
X266946099Y-148224843D02*
X267013656Y-148130166D01*
X267013656Y-148130166D02*
X267094667Y-148024308D01*
X267094667Y-148024308D02*
X267196006Y-147897691D01*
X267196006Y-147897691D02*
X267211652Y-147878443D01*
X267211652Y-147878443D02*
X267264177Y-147807675D01*
X267264177Y-147807675D02*
X267288644Y-147756817D01*
X267288644Y-147756817D02*
X267289667Y-147720641D01*
X267289667Y-147720641D02*
X267292976Y-147669152D01*
X267292976Y-147669152D02*
X267328576Y-147634964D01*
X267328576Y-147634964D02*
X267389851Y-147618698D01*
X267389851Y-147618698D02*
X267470181Y-147620975D01*
X267470181Y-147620975D02*
X267470181Y-147620975D01*
G36*
X267470181Y-147620975D02*
G01*
X267562951Y-147642415D01*
X267661543Y-147683638D01*
X267665000Y-147685438D01*
X267733903Y-147720024D01*
X267789213Y-147741140D01*
X267843950Y-147750691D01*
X267911135Y-147750580D01*
X268003789Y-147742712D01*
X268034771Y-147739514D01*
X268162751Y-147731724D01*
X268261359Y-147740528D01*
X268341097Y-147768293D01*
X268412463Y-147817386D01*
X268423526Y-147827125D01*
X268504477Y-147921373D01*
X268552184Y-148030938D01*
X268569035Y-148162663D01*
X268566745Y-148237452D01*
X268545110Y-148376110D01*
X268498443Y-148505901D01*
X268422878Y-148633966D01*
X268314548Y-148767443D01*
X268234552Y-148850778D01*
X268045861Y-149017253D01*
X267856539Y-149142558D01*
X267667236Y-149226367D01*
X267478601Y-149268358D01*
X267386334Y-149273570D01*
X267295396Y-149269335D01*
X267223129Y-149252495D01*
X267146417Y-149217230D01*
X267132492Y-149209658D01*
X267060296Y-149166526D01*
X266995668Y-149122281D01*
X266963159Y-149095895D01*
X266916924Y-149058159D01*
X266850166Y-149010087D01*
X266788978Y-148969588D01*
X266707927Y-148913766D01*
X266658296Y-148864610D01*
X266632908Y-148811399D01*
X266624588Y-148743407D01*
X266624334Y-148723576D01*
X266628721Y-148664065D01*
X266645358Y-148634166D01*
X266666925Y-148624398D01*
X266697911Y-148600489D01*
X266743072Y-148544357D01*
X266797976Y-148461801D01*
X266823860Y-148418974D01*
X266885125Y-148317919D01*
X266946099Y-148224843D01*
X267013656Y-148130166D01*
X267094667Y-148024308D01*
X267196006Y-147897691D01*
X267211652Y-147878443D01*
X267264177Y-147807675D01*
X267288644Y-147756817D01*
X267289667Y-147720641D01*
X267292976Y-147669152D01*
X267328576Y-147634964D01*
X267389851Y-147618698D01*
X267470181Y-147620975D01*
G37*
X267470181Y-147620975D02*
X267562951Y-147642415D01*
X267661543Y-147683638D01*
X267665000Y-147685438D01*
X267733903Y-147720024D01*
X267789213Y-147741140D01*
X267843950Y-147750691D01*
X267911135Y-147750580D01*
X268003789Y-147742712D01*
X268034771Y-147739514D01*
X268162751Y-147731724D01*
X268261359Y-147740528D01*
X268341097Y-147768293D01*
X268412463Y-147817386D01*
X268423526Y-147827125D01*
X268504477Y-147921373D01*
X268552184Y-148030938D01*
X268569035Y-148162663D01*
X268566745Y-148237452D01*
X268545110Y-148376110D01*
X268498443Y-148505901D01*
X268422878Y-148633966D01*
X268314548Y-148767443D01*
X268234552Y-148850778D01*
X268045861Y-149017253D01*
X267856539Y-149142558D01*
X267667236Y-149226367D01*
X267478601Y-149268358D01*
X267386334Y-149273570D01*
X267295396Y-149269335D01*
X267223129Y-149252495D01*
X267146417Y-149217230D01*
X267132492Y-149209658D01*
X267060296Y-149166526D01*
X266995668Y-149122281D01*
X266963159Y-149095895D01*
X266916924Y-149058159D01*
X266850166Y-149010087D01*
X266788978Y-148969588D01*
X266707927Y-148913766D01*
X266658296Y-148864610D01*
X266632908Y-148811399D01*
X266624588Y-148743407D01*
X266624334Y-148723576D01*
X266628721Y-148664065D01*
X266645358Y-148634166D01*
X266666925Y-148624398D01*
X266697911Y-148600489D01*
X266743072Y-148544357D01*
X266797976Y-148461801D01*
X266823860Y-148418974D01*
X266885125Y-148317919D01*
X266946099Y-148224843D01*
X267013656Y-148130166D01*
X267094667Y-148024308D01*
X267196006Y-147897691D01*
X267211652Y-147878443D01*
X267264177Y-147807675D01*
X267288644Y-147756817D01*
X267289667Y-147720641D01*
X267292976Y-147669152D01*
X267328576Y-147634964D01*
X267389851Y-147618698D01*
X267470181Y-147620975D01*
X177145215Y-159148493D02*
X177251927Y-159181142D01*
X177251927Y-159181142D02*
X177338633Y-159235676D01*
X177338633Y-159235676D02*
X177383829Y-159288399D01*
X177383829Y-159288399D02*
X177398938Y-159328539D01*
X177398938Y-159328539D02*
X177415402Y-159396337D01*
X177415402Y-159396337D02*
X177431716Y-159481577D01*
X177431716Y-159481577D02*
X177446375Y-159574046D01*
X177446375Y-159574046D02*
X177457873Y-159663527D01*
X177457873Y-159663527D02*
X177464706Y-159739807D01*
X177464706Y-159739807D02*
X177465369Y-159792671D01*
X177465369Y-159792671D02*
X177460811Y-159810911D01*
X177460811Y-159810911D02*
X177436008Y-159817315D01*
X177436008Y-159817315D02*
X177378434Y-159825237D01*
X177378434Y-159825237D02*
X177297566Y-159833517D01*
X177297566Y-159833517D02*
X177232134Y-159838908D01*
X177232134Y-159838908D02*
X177107893Y-159851402D01*
X177107893Y-159851402D02*
X176968725Y-159870340D01*
X176968725Y-159870340D02*
X176839524Y-159892218D01*
X176839524Y-159892218D02*
X176806545Y-159898806D01*
X176806545Y-159898806D02*
X176679042Y-159924084D01*
X176679042Y-159924084D02*
X176584607Y-159938161D01*
X176584607Y-159938161D02*
X176515344Y-159940514D01*
X176515344Y-159940514D02*
X176463357Y-159930623D01*
X176463357Y-159930623D02*
X176420750Y-159907966D01*
X176420750Y-159907966D02*
X176379628Y-159872023D01*
X176379628Y-159872023D02*
X176378134Y-159870533D01*
X176378134Y-159870533D02*
X176331653Y-159817256D01*
X176331653Y-159817256D02*
X176311296Y-159768992D01*
X176311296Y-159768992D02*
X176316272Y-159713668D01*
X176316272Y-159713668D02*
X176345788Y-159639213D01*
X176345788Y-159639213D02*
X176360920Y-159608103D01*
X176360920Y-159608103D02*
X176438836Y-159489622D01*
X176438836Y-159489622D02*
X176546649Y-159378173D01*
X176546649Y-159378173D02*
X176674372Y-159280707D01*
X176674372Y-159280707D02*
X176812020Y-159204172D01*
X176812020Y-159204172D02*
X176949606Y-159155521D01*
X176949606Y-159155521D02*
X177029946Y-159142451D01*
X177029946Y-159142451D02*
X177145215Y-159148493D01*
X177145215Y-159148493D02*
X177145215Y-159148493D01*
G36*
X177145215Y-159148493D02*
G01*
X177251927Y-159181142D01*
X177338633Y-159235676D01*
X177383829Y-159288399D01*
X177398938Y-159328539D01*
X177415402Y-159396337D01*
X177431716Y-159481577D01*
X177446375Y-159574046D01*
X177457873Y-159663527D01*
X177464706Y-159739807D01*
X177465369Y-159792671D01*
X177460811Y-159810911D01*
X177436008Y-159817315D01*
X177378434Y-159825237D01*
X177297566Y-159833517D01*
X177232134Y-159838908D01*
X177107893Y-159851402D01*
X176968725Y-159870340D01*
X176839524Y-159892218D01*
X176806545Y-159898806D01*
X176679042Y-159924084D01*
X176584607Y-159938161D01*
X176515344Y-159940514D01*
X176463357Y-159930623D01*
X176420750Y-159907966D01*
X176379628Y-159872023D01*
X176378134Y-159870533D01*
X176331653Y-159817256D01*
X176311296Y-159768992D01*
X176316272Y-159713668D01*
X176345788Y-159639213D01*
X176360920Y-159608103D01*
X176438836Y-159489622D01*
X176546649Y-159378173D01*
X176674372Y-159280707D01*
X176812020Y-159204172D01*
X176949606Y-159155521D01*
X177029946Y-159142451D01*
X177145215Y-159148493D01*
G37*
X177145215Y-159148493D02*
X177251927Y-159181142D01*
X177338633Y-159235676D01*
X177383829Y-159288399D01*
X177398938Y-159328539D01*
X177415402Y-159396337D01*
X177431716Y-159481577D01*
X177446375Y-159574046D01*
X177457873Y-159663527D01*
X177464706Y-159739807D01*
X177465369Y-159792671D01*
X177460811Y-159810911D01*
X177436008Y-159817315D01*
X177378434Y-159825237D01*
X177297566Y-159833517D01*
X177232134Y-159838908D01*
X177107893Y-159851402D01*
X176968725Y-159870340D01*
X176839524Y-159892218D01*
X176806545Y-159898806D01*
X176679042Y-159924084D01*
X176584607Y-159938161D01*
X176515344Y-159940514D01*
X176463357Y-159930623D01*
X176420750Y-159907966D01*
X176379628Y-159872023D01*
X176378134Y-159870533D01*
X176331653Y-159817256D01*
X176311296Y-159768992D01*
X176316272Y-159713668D01*
X176345788Y-159639213D01*
X176360920Y-159608103D01*
X176438836Y-159489622D01*
X176546649Y-159378173D01*
X176674372Y-159280707D01*
X176812020Y-159204172D01*
X176949606Y-159155521D01*
X177029946Y-159142451D01*
X177145215Y-159148493D01*
X198880359Y-161099912D02*
X198938328Y-161135784D01*
X198938328Y-161135784D02*
X198985137Y-161182065D01*
X198985137Y-161182065D02*
X199007100Y-161227704D01*
X199007100Y-161227704D02*
X199007417Y-161232869D01*
X199007417Y-161232869D02*
X199003721Y-161258669D01*
X199003721Y-161258669D02*
X198987114Y-161277364D01*
X198987114Y-161277364D02*
X198949317Y-161293232D01*
X198949317Y-161293232D02*
X198882054Y-161310551D01*
X198882054Y-161310551D02*
X198838084Y-161320369D01*
X198838084Y-161320369D02*
X198743626Y-161342721D01*
X198743626Y-161342721D02*
X198652104Y-161367169D01*
X198652104Y-161367169D02*
X198581798Y-161388800D01*
X198581798Y-161388800D02*
X198576131Y-161390801D01*
X198576131Y-161390801D02*
X198494214Y-161417308D01*
X198494214Y-161417308D02*
X198448391Y-161424323D01*
X198448391Y-161424323D02*
X198437095Y-161411687D01*
X198437095Y-161411687D02*
X198458757Y-161379239D01*
X198458757Y-161379239D02*
X198459095Y-161378859D01*
X198459095Y-161378859D02*
X198511903Y-161324897D01*
X198511903Y-161324897D02*
X198578850Y-161263981D01*
X198578850Y-161263981D02*
X198651458Y-161202911D01*
X198651458Y-161202911D02*
X198721247Y-161148484D01*
X198721247Y-161148484D02*
X198779741Y-161107500D01*
X198779741Y-161107500D02*
X198818459Y-161086758D01*
X198818459Y-161086758D02*
X198824913Y-161085500D01*
X198824913Y-161085500D02*
X198880359Y-161099912D01*
X198880359Y-161099912D02*
X198880359Y-161099912D01*
G36*
X198880359Y-161099912D02*
G01*
X198938328Y-161135784D01*
X198985137Y-161182065D01*
X199007100Y-161227704D01*
X199007417Y-161232869D01*
X199003721Y-161258669D01*
X198987114Y-161277364D01*
X198949317Y-161293232D01*
X198882054Y-161310551D01*
X198838084Y-161320369D01*
X198743626Y-161342721D01*
X198652104Y-161367169D01*
X198581798Y-161388800D01*
X198576131Y-161390801D01*
X198494214Y-161417308D01*
X198448391Y-161424323D01*
X198437095Y-161411687D01*
X198458757Y-161379239D01*
X198459095Y-161378859D01*
X198511903Y-161324897D01*
X198578850Y-161263981D01*
X198651458Y-161202911D01*
X198721247Y-161148484D01*
X198779741Y-161107500D01*
X198818459Y-161086758D01*
X198824913Y-161085500D01*
X198880359Y-161099912D01*
G37*
X198880359Y-161099912D02*
X198938328Y-161135784D01*
X198985137Y-161182065D01*
X199007100Y-161227704D01*
X199007417Y-161232869D01*
X199003721Y-161258669D01*
X198987114Y-161277364D01*
X198949317Y-161293232D01*
X198882054Y-161310551D01*
X198838084Y-161320369D01*
X198743626Y-161342721D01*
X198652104Y-161367169D01*
X198581798Y-161388800D01*
X198576131Y-161390801D01*
X198494214Y-161417308D01*
X198448391Y-161424323D01*
X198437095Y-161411687D01*
X198458757Y-161379239D01*
X198459095Y-161378859D01*
X198511903Y-161324897D01*
X198578850Y-161263981D01*
X198651458Y-161202911D01*
X198721247Y-161148484D01*
X198779741Y-161107500D01*
X198818459Y-161086758D01*
X198824913Y-161085500D01*
X198880359Y-161099912D01*
X179282349Y-156373635D02*
X179309314Y-156396926D01*
X179309314Y-156396926D02*
X179325617Y-156420148D01*
X179325617Y-156420148D02*
X179342204Y-156451651D01*
X179342204Y-156451651D02*
X179353447Y-156491917D01*
X179353447Y-156491917D02*
X179360310Y-156549213D01*
X179360310Y-156549213D02*
X179363756Y-156631804D01*
X179363756Y-156631804D02*
X179364748Y-156747955D01*
X179364748Y-156747955D02*
X179364750Y-156755971D01*
X179364750Y-156755971D02*
X179363995Y-156873084D01*
X179363995Y-156873084D02*
X179360929Y-156957176D01*
X179360929Y-156957176D02*
X179354352Y-157017544D01*
X179354352Y-157017544D02*
X179343063Y-157063486D01*
X179343063Y-157063486D02*
X179325861Y-157104298D01*
X179325861Y-157104298D02*
X179317739Y-157119994D01*
X179317739Y-157119994D02*
X179234352Y-157234473D01*
X179234352Y-157234473D02*
X179126018Y-157316717D01*
X179126018Y-157316717D02*
X178996645Y-157365472D01*
X178996645Y-157365472D02*
X178850140Y-157379482D01*
X178850140Y-157379482D02*
X178690407Y-157357491D01*
X178690407Y-157357491D02*
X178631037Y-157340717D01*
X178631037Y-157340717D02*
X178486346Y-157282615D01*
X178486346Y-157282615D02*
X178370426Y-157207782D01*
X178370426Y-157207782D02*
X178306417Y-157148592D01*
X178306417Y-157148592D02*
X178264628Y-157095917D01*
X178264628Y-157095917D02*
X178246288Y-157040967D01*
X178246288Y-157040967D02*
X178242917Y-156981420D01*
X178242917Y-156981420D02*
X178259510Y-156882529D01*
X178259510Y-156882529D02*
X178311103Y-156791314D01*
X178311103Y-156791314D02*
X178400416Y-156703969D01*
X178400416Y-156703969D02*
X178482677Y-156645738D01*
X178482677Y-156645738D02*
X178573202Y-156594101D01*
X178573202Y-156594101D02*
X178685207Y-156539564D01*
X178685207Y-156539564D02*
X178808176Y-156486303D01*
X178808176Y-156486303D02*
X178931593Y-156438495D01*
X178931593Y-156438495D02*
X179044943Y-156400316D01*
X179044943Y-156400316D02*
X179137710Y-156375942D01*
X179137710Y-156375942D02*
X179177450Y-156369818D01*
X179177450Y-156369818D02*
X179243384Y-156366294D01*
X179243384Y-156366294D02*
X179282349Y-156373635D01*
X179282349Y-156373635D02*
X179282349Y-156373635D01*
G36*
X179282349Y-156373635D02*
G01*
X179309314Y-156396926D01*
X179325617Y-156420148D01*
X179342204Y-156451651D01*
X179353447Y-156491917D01*
X179360310Y-156549213D01*
X179363756Y-156631804D01*
X179364748Y-156747955D01*
X179364750Y-156755971D01*
X179363995Y-156873084D01*
X179360929Y-156957176D01*
X179354352Y-157017544D01*
X179343063Y-157063486D01*
X179325861Y-157104298D01*
X179317739Y-157119994D01*
X179234352Y-157234473D01*
X179126018Y-157316717D01*
X178996645Y-157365472D01*
X178850140Y-157379482D01*
X178690407Y-157357491D01*
X178631037Y-157340717D01*
X178486346Y-157282615D01*
X178370426Y-157207782D01*
X178306417Y-157148592D01*
X178264628Y-157095917D01*
X178246288Y-157040967D01*
X178242917Y-156981420D01*
X178259510Y-156882529D01*
X178311103Y-156791314D01*
X178400416Y-156703969D01*
X178482677Y-156645738D01*
X178573202Y-156594101D01*
X178685207Y-156539564D01*
X178808176Y-156486303D01*
X178931593Y-156438495D01*
X179044943Y-156400316D01*
X179137710Y-156375942D01*
X179177450Y-156369818D01*
X179243384Y-156366294D01*
X179282349Y-156373635D01*
G37*
X179282349Y-156373635D02*
X179309314Y-156396926D01*
X179325617Y-156420148D01*
X179342204Y-156451651D01*
X179353447Y-156491917D01*
X179360310Y-156549213D01*
X179363756Y-156631804D01*
X179364748Y-156747955D01*
X179364750Y-156755971D01*
X179363995Y-156873084D01*
X179360929Y-156957176D01*
X179354352Y-157017544D01*
X179343063Y-157063486D01*
X179325861Y-157104298D01*
X179317739Y-157119994D01*
X179234352Y-157234473D01*
X179126018Y-157316717D01*
X178996645Y-157365472D01*
X178850140Y-157379482D01*
X178690407Y-157357491D01*
X178631037Y-157340717D01*
X178486346Y-157282615D01*
X178370426Y-157207782D01*
X178306417Y-157148592D01*
X178264628Y-157095917D01*
X178246288Y-157040967D01*
X178242917Y-156981420D01*
X178259510Y-156882529D01*
X178311103Y-156791314D01*
X178400416Y-156703969D01*
X178482677Y-156645738D01*
X178573202Y-156594101D01*
X178685207Y-156539564D01*
X178808176Y-156486303D01*
X178931593Y-156438495D01*
X179044943Y-156400316D01*
X179137710Y-156375942D01*
X179177450Y-156369818D01*
X179243384Y-156366294D01*
X179282349Y-156373635D01*
X265344431Y-142071654D02*
X265493649Y-142128566D01*
X265493649Y-142128566D02*
X265623846Y-142216296D01*
X265623846Y-142216296D02*
X265730236Y-142330068D01*
X265730236Y-142330068D02*
X265808034Y-142465104D01*
X265808034Y-142465104D02*
X265852458Y-142616626D01*
X265852458Y-142616626D02*
X265861139Y-142729502D01*
X265861139Y-142729502D02*
X265853822Y-142831184D01*
X265853822Y-142831184D02*
X265835738Y-142916566D01*
X265835738Y-142916566D02*
X265809514Y-142977070D01*
X265809514Y-142977070D02*
X265777777Y-143004117D01*
X265777777Y-143004117D02*
X265776974Y-143004283D01*
X265776974Y-143004283D02*
X265742473Y-142994020D01*
X265742473Y-142994020D02*
X265698594Y-142960758D01*
X265698594Y-142960758D02*
X265689602Y-142951624D01*
X265689602Y-142951624D02*
X265621959Y-142864051D01*
X265621959Y-142864051D02*
X265588890Y-142779121D01*
X265588890Y-142779121D02*
X265583772Y-142707028D01*
X265583772Y-142707028D02*
X265569884Y-142610971D01*
X265569884Y-142610971D02*
X265526366Y-142511910D01*
X265526366Y-142511910D02*
X265460880Y-142426871D01*
X265460880Y-142426871D02*
X265455238Y-142421478D01*
X265455238Y-142421478D02*
X265415663Y-142394894D01*
X265415663Y-142394894D02*
X265346357Y-142358348D01*
X265346357Y-142358348D02*
X265257224Y-142316739D01*
X265257224Y-142316739D02*
X265162136Y-142276552D01*
X265162136Y-142276552D02*
X265045147Y-142228740D01*
X265045147Y-142228740D02*
X264962597Y-142192531D01*
X264962597Y-142192531D02*
X264909139Y-142165070D01*
X264909139Y-142165070D02*
X264879426Y-142143501D01*
X264879426Y-142143501D02*
X264868109Y-142124969D01*
X264868109Y-142124969D02*
X264867500Y-142119216D01*
X264867500Y-142119216D02*
X264887077Y-142097825D01*
X264887077Y-142097825D02*
X264939454Y-142078183D01*
X264939454Y-142078183D02*
X265015098Y-142062385D01*
X265015098Y-142062385D02*
X265104476Y-142052527D01*
X265104476Y-142052527D02*
X265180975Y-142050339D01*
X265180975Y-142050339D02*
X265344431Y-142071654D01*
X265344431Y-142071654D02*
X265344431Y-142071654D01*
G36*
X265344431Y-142071654D02*
G01*
X265493649Y-142128566D01*
X265623846Y-142216296D01*
X265730236Y-142330068D01*
X265808034Y-142465104D01*
X265852458Y-142616626D01*
X265861139Y-142729502D01*
X265853822Y-142831184D01*
X265835738Y-142916566D01*
X265809514Y-142977070D01*
X265777777Y-143004117D01*
X265776974Y-143004283D01*
X265742473Y-142994020D01*
X265698594Y-142960758D01*
X265689602Y-142951624D01*
X265621959Y-142864051D01*
X265588890Y-142779121D01*
X265583772Y-142707028D01*
X265569884Y-142610971D01*
X265526366Y-142511910D01*
X265460880Y-142426871D01*
X265455238Y-142421478D01*
X265415663Y-142394894D01*
X265346357Y-142358348D01*
X265257224Y-142316739D01*
X265162136Y-142276552D01*
X265045147Y-142228740D01*
X264962597Y-142192531D01*
X264909139Y-142165070D01*
X264879426Y-142143501D01*
X264868109Y-142124969D01*
X264867500Y-142119216D01*
X264887077Y-142097825D01*
X264939454Y-142078183D01*
X265015098Y-142062385D01*
X265104476Y-142052527D01*
X265180975Y-142050339D01*
X265344431Y-142071654D01*
G37*
X265344431Y-142071654D02*
X265493649Y-142128566D01*
X265623846Y-142216296D01*
X265730236Y-142330068D01*
X265808034Y-142465104D01*
X265852458Y-142616626D01*
X265861139Y-142729502D01*
X265853822Y-142831184D01*
X265835738Y-142916566D01*
X265809514Y-142977070D01*
X265777777Y-143004117D01*
X265776974Y-143004283D01*
X265742473Y-142994020D01*
X265698594Y-142960758D01*
X265689602Y-142951624D01*
X265621959Y-142864051D01*
X265588890Y-142779121D01*
X265583772Y-142707028D01*
X265569884Y-142610971D01*
X265526366Y-142511910D01*
X265460880Y-142426871D01*
X265455238Y-142421478D01*
X265415663Y-142394894D01*
X265346357Y-142358348D01*
X265257224Y-142316739D01*
X265162136Y-142276552D01*
X265045147Y-142228740D01*
X264962597Y-142192531D01*
X264909139Y-142165070D01*
X264879426Y-142143501D01*
X264868109Y-142124969D01*
X264867500Y-142119216D01*
X264887077Y-142097825D01*
X264939454Y-142078183D01*
X265015098Y-142062385D01*
X265104476Y-142052527D01*
X265180975Y-142050339D01*
X265344431Y-142071654D01*
X247681644Y-160402449D02*
X247700224Y-160440728D01*
X247700224Y-160440728D02*
X247712460Y-160505435D01*
X247712460Y-160505435D02*
X247725133Y-160588083D01*
X247725133Y-160588083D02*
X247517442Y-160671271D01*
X247517442Y-160671271D02*
X246954489Y-160908479D01*
X246954489Y-160908479D02*
X246371080Y-161176769D01*
X246371080Y-161176769D02*
X245772129Y-161473331D01*
X245772129Y-161473331D02*
X245162553Y-161795359D01*
X245162553Y-161795359D02*
X244547264Y-162140044D01*
X244547264Y-162140044D02*
X243931177Y-162504579D01*
X243931177Y-162504579D02*
X243319207Y-162886155D01*
X243319207Y-162886155D02*
X242716268Y-163281966D01*
X242716268Y-163281966D02*
X242127274Y-163689202D01*
X242127274Y-163689202D02*
X241721750Y-163982629D01*
X241721750Y-163982629D02*
X241069870Y-164475688D01*
X241069870Y-164475688D02*
X240414376Y-164995125D01*
X240414376Y-164995125D02*
X239761822Y-165535199D01*
X239761822Y-165535199D02*
X239118758Y-166090168D01*
X239118758Y-166090168D02*
X238491736Y-166654292D01*
X238491736Y-166654292D02*
X237887308Y-167221829D01*
X237887308Y-167221829D02*
X237312026Y-167787039D01*
X237312026Y-167787039D02*
X236911726Y-168197500D01*
X236911726Y-168197500D02*
X236722602Y-168397113D01*
X236722602Y-168397113D02*
X236562006Y-168571098D01*
X236562006Y-168571098D02*
X236427476Y-168722664D01*
X236427476Y-168722664D02*
X236316546Y-168855020D01*
X236316546Y-168855020D02*
X236226754Y-168971375D01*
X236226754Y-168971375D02*
X236155634Y-169074936D01*
X236155634Y-169074936D02*
X236100723Y-169168914D01*
X236100723Y-169168914D02*
X236059557Y-169256516D01*
X236059557Y-169256516D02*
X236029671Y-169340952D01*
X236029671Y-169340952D02*
X236027213Y-169349326D01*
X236027213Y-169349326D02*
X236004072Y-169464318D01*
X236004072Y-169464318D02*
X236004852Y-169576601D01*
X236004852Y-169576601D02*
X236030836Y-169697975D01*
X236030836Y-169697975D02*
X236079566Y-169831333D01*
X236079566Y-169831333D02*
X236181567Y-170023689D01*
X236181567Y-170023689D02*
X236318299Y-170194346D01*
X236318299Y-170194346D02*
X236490178Y-170343562D01*
X236490178Y-170343562D02*
X236697623Y-170471598D01*
X236697623Y-170471598D02*
X236941052Y-170578710D01*
X236941052Y-170578710D02*
X237220883Y-170665159D01*
X237220883Y-170665159D02*
X237531384Y-170730172D01*
X237531384Y-170730172D02*
X237651443Y-170745309D01*
X237651443Y-170745309D02*
X237805772Y-170756964D01*
X237805772Y-170756964D02*
X237986447Y-170765135D01*
X237986447Y-170765135D02*
X238185549Y-170769819D01*
X238185549Y-170769819D02*
X238395156Y-170771015D01*
X238395156Y-170771015D02*
X238607345Y-170768719D01*
X238607345Y-170768719D02*
X238814197Y-170762929D01*
X238814197Y-170762929D02*
X239007790Y-170753643D01*
X239007790Y-170753643D02*
X239180202Y-170740859D01*
X239180202Y-170740859D02*
X239277000Y-170730691D01*
X239277000Y-170730691D02*
X239926651Y-170635991D01*
X239926651Y-170635991D02*
X240597434Y-170507154D01*
X240597434Y-170507154D02*
X241286583Y-170344989D01*
X241286583Y-170344989D02*
X241991332Y-170150300D01*
X241991332Y-170150300D02*
X242708914Y-169923895D01*
X242708914Y-169923895D02*
X243436563Y-169666580D01*
X243436563Y-169666580D02*
X244171512Y-169379161D01*
X244171512Y-169379161D02*
X244738000Y-169139005D01*
X244738000Y-169139005D02*
X245609841Y-168738305D01*
X245609841Y-168738305D02*
X246446002Y-168315820D01*
X246446002Y-168315820D02*
X247247446Y-167870971D01*
X247247446Y-167870971D02*
X248015135Y-167403175D01*
X248015135Y-167403175D02*
X248750030Y-166911850D01*
X248750030Y-166911850D02*
X249453093Y-166396415D01*
X249453093Y-166396415D02*
X250013906Y-165949251D01*
X250013906Y-165949251D02*
X250170382Y-165820822D01*
X250170382Y-165820822D02*
X250298551Y-165718739D01*
X250298551Y-165718739D02*
X250401674Y-165641142D01*
X250401674Y-165641142D02*
X250483013Y-165586173D01*
X250483013Y-165586173D02*
X250545830Y-165551972D01*
X250545830Y-165551972D02*
X250593387Y-165536681D01*
X250593387Y-165536681D02*
X250628945Y-165538439D01*
X250628945Y-165538439D02*
X250655766Y-165555390D01*
X250655766Y-165555390D02*
X250670807Y-165574848D01*
X250670807Y-165574848D02*
X250684019Y-165619011D01*
X250684019Y-165619011D02*
X250671053Y-165673383D01*
X250671053Y-165673383D02*
X250629631Y-165742493D01*
X250629631Y-165742493D02*
X250557477Y-165830870D01*
X250557477Y-165830870D02*
X250523181Y-165868664D01*
X250523181Y-165868664D02*
X250424405Y-165970291D01*
X250424405Y-165970291D02*
X250296737Y-166093661D01*
X250296737Y-166093661D02*
X250144848Y-166234719D01*
X250144848Y-166234719D02*
X249973410Y-166389409D01*
X249973410Y-166389409D02*
X249787092Y-166553675D01*
X249787092Y-166553675D02*
X249590566Y-166723460D01*
X249590566Y-166723460D02*
X249388503Y-166894709D01*
X249388503Y-166894709D02*
X249185574Y-167063365D01*
X249185574Y-167063365D02*
X248986450Y-167225373D01*
X248986450Y-167225373D02*
X248795801Y-167376675D01*
X248795801Y-167376675D02*
X248708823Y-167444191D01*
X248708823Y-167444191D02*
X248182456Y-167831376D01*
X248182456Y-167831376D02*
X247618872Y-168211925D01*
X247618872Y-168211925D02*
X247022981Y-168583344D01*
X247022981Y-168583344D02*
X246399697Y-168943141D01*
X246399697Y-168943141D02*
X245753931Y-169288824D01*
X245753931Y-169288824D02*
X245090596Y-169617900D01*
X245090596Y-169617900D02*
X244414604Y-169927875D01*
X244414604Y-169927875D02*
X243730866Y-170216258D01*
X243730866Y-170216258D02*
X243044295Y-170480555D01*
X243044295Y-170480555D02*
X242359804Y-170718274D01*
X242359804Y-170718274D02*
X242081584Y-170807266D01*
X242081584Y-170807266D02*
X241572862Y-170959750D01*
X241572862Y-170959750D02*
X241090056Y-171091412D01*
X241090056Y-171091412D02*
X240623515Y-171204391D01*
X240623515Y-171204391D02*
X240163589Y-171300828D01*
X240163589Y-171300828D02*
X239700631Y-171382863D01*
X239700631Y-171382863D02*
X239224989Y-171452635D01*
X239224989Y-171452635D02*
X239097084Y-171469153D01*
X239097084Y-171469153D02*
X238969838Y-171481876D01*
X238969838Y-171481876D02*
X238811322Y-171492567D01*
X238811322Y-171492567D02*
X238629187Y-171501146D01*
X238629187Y-171501146D02*
X238431085Y-171507530D01*
X238431085Y-171507530D02*
X238224666Y-171511638D01*
X238224666Y-171511638D02*
X238017583Y-171513387D01*
X238017583Y-171513387D02*
X237817486Y-171512696D01*
X237817486Y-171512696D02*
X237632027Y-171509484D01*
X237632027Y-171509484D02*
X237468858Y-171503668D01*
X237468858Y-171503668D02*
X237335629Y-171495166D01*
X237335629Y-171495166D02*
X237272567Y-171488657D01*
X237272567Y-171488657D02*
X236889807Y-171430070D01*
X236889807Y-171430070D02*
X236542579Y-171355767D01*
X236542579Y-171355767D02*
X236231453Y-171266041D01*
X236231453Y-171266041D02*
X235957002Y-171161187D01*
X235957002Y-171161187D02*
X235719799Y-171041497D01*
X235719799Y-171041497D02*
X235520415Y-170907267D01*
X235520415Y-170907267D02*
X235359422Y-170758791D01*
X235359422Y-170758791D02*
X235237392Y-170596361D01*
X235237392Y-170596361D02*
X235154898Y-170420271D01*
X235154898Y-170420271D02*
X235147268Y-170396908D01*
X235147268Y-170396908D02*
X235109988Y-170219461D01*
X235109988Y-170219461D02*
X235106241Y-170031976D01*
X235106241Y-170031976D02*
X235136577Y-169832552D01*
X235136577Y-169832552D02*
X235201548Y-169619288D01*
X235201548Y-169619288D02*
X235301706Y-169390285D01*
X235301706Y-169390285D02*
X235437600Y-169143642D01*
X235437600Y-169143642D02*
X235571674Y-168933454D01*
X235571674Y-168933454D02*
X235850960Y-168541570D01*
X235850960Y-168541570D02*
X236168272Y-168139119D01*
X236168272Y-168139119D02*
X236521159Y-167727934D01*
X236521159Y-167727934D02*
X236907170Y-167309848D01*
X236907170Y-167309848D02*
X237323855Y-166886696D01*
X237323855Y-166886696D02*
X237768763Y-166460311D01*
X237768763Y-166460311D02*
X238239444Y-166032527D01*
X238239444Y-166032527D02*
X238733448Y-165605177D01*
X238733448Y-165605177D02*
X239248323Y-165180096D01*
X239248323Y-165180096D02*
X239781620Y-164759118D01*
X239781620Y-164759118D02*
X240330887Y-164344075D01*
X240330887Y-164344075D02*
X240893674Y-163936802D01*
X240893674Y-163936802D02*
X241467531Y-163539133D01*
X241467531Y-163539133D02*
X242050007Y-163152900D01*
X242050007Y-163152900D02*
X242638652Y-162779939D01*
X242638652Y-162779939D02*
X243231014Y-162422083D01*
X243231014Y-162422083D02*
X243824644Y-162081165D01*
X243824644Y-162081165D02*
X244417091Y-161759020D01*
X244417091Y-161759020D02*
X245005904Y-161457480D01*
X245005904Y-161457480D02*
X245588633Y-161178381D01*
X245588633Y-161178381D02*
X246162828Y-160923555D01*
X246162828Y-160923555D02*
X246417577Y-160817373D01*
X246417577Y-160817373D02*
X246568078Y-160757058D01*
X246568078Y-160757058D02*
X246727729Y-160695029D01*
X246727729Y-160695029D02*
X246890468Y-160633461D01*
X246890468Y-160633461D02*
X247050234Y-160574533D01*
X247050234Y-160574533D02*
X247200963Y-160520419D01*
X247200963Y-160520419D02*
X247336594Y-160473296D01*
X247336594Y-160473296D02*
X247451065Y-160435342D01*
X247451065Y-160435342D02*
X247538314Y-160408732D01*
X247538314Y-160408732D02*
X247592120Y-160395668D01*
X247592120Y-160395668D02*
X247648693Y-160390242D01*
X247648693Y-160390242D02*
X247681644Y-160402449D01*
X247681644Y-160402449D02*
X247681644Y-160402449D01*
G36*
X247681644Y-160402449D02*
G01*
X247700224Y-160440728D01*
X247712460Y-160505435D01*
X247725133Y-160588083D01*
X247517442Y-160671271D01*
X246954489Y-160908479D01*
X246371080Y-161176769D01*
X245772129Y-161473331D01*
X245162553Y-161795359D01*
X244547264Y-162140044D01*
X243931177Y-162504579D01*
X243319207Y-162886155D01*
X242716268Y-163281966D01*
X242127274Y-163689202D01*
X241721750Y-163982629D01*
X241069870Y-164475688D01*
X240414376Y-164995125D01*
X239761822Y-165535199D01*
X239118758Y-166090168D01*
X238491736Y-166654292D01*
X237887308Y-167221829D01*
X237312026Y-167787039D01*
X236911726Y-168197500D01*
X236722602Y-168397113D01*
X236562006Y-168571098D01*
X236427476Y-168722664D01*
X236316546Y-168855020D01*
X236226754Y-168971375D01*
X236155634Y-169074936D01*
X236100723Y-169168914D01*
X236059557Y-169256516D01*
X236029671Y-169340952D01*
X236027213Y-169349326D01*
X236004072Y-169464318D01*
X236004852Y-169576601D01*
X236030836Y-169697975D01*
X236079566Y-169831333D01*
X236181567Y-170023689D01*
X236318299Y-170194346D01*
X236490178Y-170343562D01*
X236697623Y-170471598D01*
X236941052Y-170578710D01*
X237220883Y-170665159D01*
X237531384Y-170730172D01*
X237651443Y-170745309D01*
X237805772Y-170756964D01*
X237986447Y-170765135D01*
X238185549Y-170769819D01*
X238395156Y-170771015D01*
X238607345Y-170768719D01*
X238814197Y-170762929D01*
X239007790Y-170753643D01*
X239180202Y-170740859D01*
X239277000Y-170730691D01*
X239926651Y-170635991D01*
X240597434Y-170507154D01*
X241286583Y-170344989D01*
X241991332Y-170150300D01*
X242708914Y-169923895D01*
X243436563Y-169666580D01*
X244171512Y-169379161D01*
X244738000Y-169139005D01*
X245609841Y-168738305D01*
X246446002Y-168315820D01*
X247247446Y-167870971D01*
X248015135Y-167403175D01*
X248750030Y-166911850D01*
X249453093Y-166396415D01*
X250013906Y-165949251D01*
X250170382Y-165820822D01*
X250298551Y-165718739D01*
X250401674Y-165641142D01*
X250483013Y-165586173D01*
X250545830Y-165551972D01*
X250593387Y-165536681D01*
X250628945Y-165538439D01*
X250655766Y-165555390D01*
X250670807Y-165574848D01*
X250684019Y-165619011D01*
X250671053Y-165673383D01*
X250629631Y-165742493D01*
X250557477Y-165830870D01*
X250523181Y-165868664D01*
X250424405Y-165970291D01*
X250296737Y-166093661D01*
X250144848Y-166234719D01*
X249973410Y-166389409D01*
X249787092Y-166553675D01*
X249590566Y-166723460D01*
X249388503Y-166894709D01*
X249185574Y-167063365D01*
X248986450Y-167225373D01*
X248795801Y-167376675D01*
X248708823Y-167444191D01*
X248182456Y-167831376D01*
X247618872Y-168211925D01*
X247022981Y-168583344D01*
X246399697Y-168943141D01*
X245753931Y-169288824D01*
X245090596Y-169617900D01*
X244414604Y-169927875D01*
X243730866Y-170216258D01*
X243044295Y-170480555D01*
X242359804Y-170718274D01*
X242081584Y-170807266D01*
X241572862Y-170959750D01*
X241090056Y-171091412D01*
X240623515Y-171204391D01*
X240163589Y-171300828D01*
X239700631Y-171382863D01*
X239224989Y-171452635D01*
X239097084Y-171469153D01*
X238969838Y-171481876D01*
X238811322Y-171492567D01*
X238629187Y-171501146D01*
X238431085Y-171507530D01*
X238224666Y-171511638D01*
X238017583Y-171513387D01*
X237817486Y-171512696D01*
X237632027Y-171509484D01*
X237468858Y-171503668D01*
X237335629Y-171495166D01*
X237272567Y-171488657D01*
X236889807Y-171430070D01*
X236542579Y-171355767D01*
X236231453Y-171266041D01*
X235957002Y-171161187D01*
X235719799Y-171041497D01*
X235520415Y-170907267D01*
X235359422Y-170758791D01*
X235237392Y-170596361D01*
X235154898Y-170420271D01*
X235147268Y-170396908D01*
X235109988Y-170219461D01*
X235106241Y-170031976D01*
X235136577Y-169832552D01*
X235201548Y-169619288D01*
X235301706Y-169390285D01*
X235437600Y-169143642D01*
X235571674Y-168933454D01*
X235850960Y-168541570D01*
X236168272Y-168139119D01*
X236521159Y-167727934D01*
X236907170Y-167309848D01*
X237323855Y-166886696D01*
X237768763Y-166460311D01*
X238239444Y-166032527D01*
X238733448Y-165605177D01*
X239248323Y-165180096D01*
X239781620Y-164759118D01*
X240330887Y-164344075D01*
X240893674Y-163936802D01*
X241467531Y-163539133D01*
X242050007Y-163152900D01*
X242638652Y-162779939D01*
X243231014Y-162422083D01*
X243824644Y-162081165D01*
X244417091Y-161759020D01*
X245005904Y-161457480D01*
X245588633Y-161178381D01*
X246162828Y-160923555D01*
X246417577Y-160817373D01*
X246568078Y-160757058D01*
X246727729Y-160695029D01*
X246890468Y-160633461D01*
X247050234Y-160574533D01*
X247200963Y-160520419D01*
X247336594Y-160473296D01*
X247451065Y-160435342D01*
X247538314Y-160408732D01*
X247592120Y-160395668D01*
X247648693Y-160390242D01*
X247681644Y-160402449D01*
G37*
X247681644Y-160402449D02*
X247700224Y-160440728D01*
X247712460Y-160505435D01*
X247725133Y-160588083D01*
X247517442Y-160671271D01*
X246954489Y-160908479D01*
X246371080Y-161176769D01*
X245772129Y-161473331D01*
X245162553Y-161795359D01*
X244547264Y-162140044D01*
X243931177Y-162504579D01*
X243319207Y-162886155D01*
X242716268Y-163281966D01*
X242127274Y-163689202D01*
X241721750Y-163982629D01*
X241069870Y-164475688D01*
X240414376Y-164995125D01*
X239761822Y-165535199D01*
X239118758Y-166090168D01*
X238491736Y-166654292D01*
X237887308Y-167221829D01*
X237312026Y-167787039D01*
X236911726Y-168197500D01*
X236722602Y-168397113D01*
X236562006Y-168571098D01*
X236427476Y-168722664D01*
X236316546Y-168855020D01*
X236226754Y-168971375D01*
X236155634Y-169074936D01*
X236100723Y-169168914D01*
X236059557Y-169256516D01*
X236029671Y-169340952D01*
X236027213Y-169349326D01*
X236004072Y-169464318D01*
X236004852Y-169576601D01*
X236030836Y-169697975D01*
X236079566Y-169831333D01*
X236181567Y-170023689D01*
X236318299Y-170194346D01*
X236490178Y-170343562D01*
X236697623Y-170471598D01*
X236941052Y-170578710D01*
X237220883Y-170665159D01*
X237531384Y-170730172D01*
X237651443Y-170745309D01*
X237805772Y-170756964D01*
X237986447Y-170765135D01*
X238185549Y-170769819D01*
X238395156Y-170771015D01*
X238607345Y-170768719D01*
X238814197Y-170762929D01*
X239007790Y-170753643D01*
X239180202Y-170740859D01*
X239277000Y-170730691D01*
X239926651Y-170635991D01*
X240597434Y-170507154D01*
X241286583Y-170344989D01*
X241991332Y-170150300D01*
X242708914Y-169923895D01*
X243436563Y-169666580D01*
X244171512Y-169379161D01*
X244738000Y-169139005D01*
X245609841Y-168738305D01*
X246446002Y-168315820D01*
X247247446Y-167870971D01*
X248015135Y-167403175D01*
X248750030Y-166911850D01*
X249453093Y-166396415D01*
X250013906Y-165949251D01*
X250170382Y-165820822D01*
X250298551Y-165718739D01*
X250401674Y-165641142D01*
X250483013Y-165586173D01*
X250545830Y-165551972D01*
X250593387Y-165536681D01*
X250628945Y-165538439D01*
X250655766Y-165555390D01*
X250670807Y-165574848D01*
X250684019Y-165619011D01*
X250671053Y-165673383D01*
X250629631Y-165742493D01*
X250557477Y-165830870D01*
X250523181Y-165868664D01*
X250424405Y-165970291D01*
X250296737Y-166093661D01*
X250144848Y-166234719D01*
X249973410Y-166389409D01*
X249787092Y-166553675D01*
X249590566Y-166723460D01*
X249388503Y-166894709D01*
X249185574Y-167063365D01*
X248986450Y-167225373D01*
X248795801Y-167376675D01*
X248708823Y-167444191D01*
X248182456Y-167831376D01*
X247618872Y-168211925D01*
X247022981Y-168583344D01*
X246399697Y-168943141D01*
X245753931Y-169288824D01*
X245090596Y-169617900D01*
X244414604Y-169927875D01*
X243730866Y-170216258D01*
X243044295Y-170480555D01*
X242359804Y-170718274D01*
X242081584Y-170807266D01*
X241572862Y-170959750D01*
X241090056Y-171091412D01*
X240623515Y-171204391D01*
X240163589Y-171300828D01*
X239700631Y-171382863D01*
X239224989Y-171452635D01*
X239097084Y-171469153D01*
X238969838Y-171481876D01*
X238811322Y-171492567D01*
X238629187Y-171501146D01*
X238431085Y-171507530D01*
X238224666Y-171511638D01*
X238017583Y-171513387D01*
X237817486Y-171512696D01*
X237632027Y-171509484D01*
X237468858Y-171503668D01*
X237335629Y-171495166D01*
X237272567Y-171488657D01*
X236889807Y-171430070D01*
X236542579Y-171355767D01*
X236231453Y-171266041D01*
X235957002Y-171161187D01*
X235719799Y-171041497D01*
X235520415Y-170907267D01*
X235359422Y-170758791D01*
X235237392Y-170596361D01*
X235154898Y-170420271D01*
X235147268Y-170396908D01*
X235109988Y-170219461D01*
X235106241Y-170031976D01*
X235136577Y-169832552D01*
X235201548Y-169619288D01*
X235301706Y-169390285D01*
X235437600Y-169143642D01*
X235571674Y-168933454D01*
X235850960Y-168541570D01*
X236168272Y-168139119D01*
X236521159Y-167727934D01*
X236907170Y-167309848D01*
X237323855Y-166886696D01*
X237768763Y-166460311D01*
X238239444Y-166032527D01*
X238733448Y-165605177D01*
X239248323Y-165180096D01*
X239781620Y-164759118D01*
X240330887Y-164344075D01*
X240893674Y-163936802D01*
X241467531Y-163539133D01*
X242050007Y-163152900D01*
X242638652Y-162779939D01*
X243231014Y-162422083D01*
X243824644Y-162081165D01*
X244417091Y-161759020D01*
X245005904Y-161457480D01*
X245588633Y-161178381D01*
X246162828Y-160923555D01*
X246417577Y-160817373D01*
X246568078Y-160757058D01*
X246727729Y-160695029D01*
X246890468Y-160633461D01*
X247050234Y-160574533D01*
X247200963Y-160520419D01*
X247336594Y-160473296D01*
X247451065Y-160435342D01*
X247538314Y-160408732D01*
X247592120Y-160395668D01*
X247648693Y-160390242D01*
X247681644Y-160402449D01*
X205009121Y-177411360D02*
X205023467Y-177418428D01*
X205023467Y-177418428D02*
X205053679Y-177462167D01*
X205053679Y-177462167D02*
X205055121Y-177536549D01*
X205055121Y-177536549D02*
X205027777Y-177641709D01*
X205027777Y-177641709D02*
X204988752Y-177739995D01*
X204988752Y-177739995D02*
X204925529Y-177906925D01*
X204925529Y-177906925D02*
X204883797Y-178076266D01*
X204883797Y-178076266D02*
X204861146Y-178260862D01*
X204861146Y-178260862D02*
X204855086Y-178452750D01*
X204855086Y-178452750D02*
X204871543Y-178748269D01*
X204871543Y-178748269D02*
X204918881Y-179037356D01*
X204918881Y-179037356D02*
X204995028Y-179314467D01*
X204995028Y-179314467D02*
X205097912Y-179574061D01*
X205097912Y-179574061D02*
X205225463Y-179810594D01*
X205225463Y-179810594D02*
X205375607Y-180018525D01*
X205375607Y-180018525D02*
X205484111Y-180135500D01*
X205484111Y-180135500D02*
X205546126Y-180199202D01*
X205546126Y-180199202D02*
X205598813Y-180259639D01*
X205598813Y-180259639D02*
X205631892Y-180304923D01*
X205631892Y-180304923D02*
X205634214Y-180309073D01*
X205634214Y-180309073D02*
X205659844Y-180382817D01*
X205659844Y-180382817D02*
X205661675Y-180451956D01*
X205661675Y-180451956D02*
X205641926Y-180506216D01*
X205641926Y-180506216D02*
X205602814Y-180535323D01*
X205602814Y-180535323D02*
X205584856Y-180537666D01*
X205584856Y-180537666D02*
X205550169Y-180529159D01*
X205550169Y-180529159D02*
X205493362Y-180507448D01*
X205493362Y-180507448D02*
X205456797Y-180491203D01*
X205456797Y-180491203D02*
X205326667Y-180452357D01*
X205326667Y-180452357D02*
X205170925Y-180444293D01*
X205170925Y-180444293D02*
X204992524Y-180466546D01*
X204992524Y-180466546D02*
X204794412Y-180518652D01*
X204794412Y-180518652D02*
X204579540Y-180600146D01*
X204579540Y-180600146D02*
X204480882Y-180644986D01*
X204480882Y-180644986D02*
X204184232Y-180805552D01*
X204184232Y-180805552D02*
X203920530Y-180988474D01*
X203920530Y-180988474D02*
X203691367Y-181192435D01*
X203691367Y-181192435D02*
X203498333Y-181416121D01*
X203498333Y-181416121D02*
X203429270Y-181514337D01*
X203429270Y-181514337D02*
X203352478Y-181626159D01*
X203352478Y-181626159D02*
X203291406Y-181703173D01*
X203291406Y-181703173D02*
X203242487Y-181748257D01*
X203242487Y-181748257D02*
X203202156Y-181764290D01*
X203202156Y-181764290D02*
X203166847Y-181754147D01*
X203166847Y-181754147D02*
X203149734Y-181739933D01*
X203149734Y-181739933D02*
X203130853Y-181694423D01*
X203130853Y-181694423D02*
X203125869Y-181610866D01*
X203125869Y-181610866D02*
X203134733Y-181491183D01*
X203134733Y-181491183D02*
X203157396Y-181337299D01*
X203157396Y-181337299D02*
X203160290Y-181320833D01*
X203160290Y-181320833D02*
X203176094Y-181210494D01*
X203176094Y-181210494D02*
X203187128Y-181080686D01*
X203187128Y-181080686D02*
X203193808Y-180924254D01*
X203193808Y-180924254D02*
X203196552Y-180734047D01*
X203196552Y-180734047D02*
X203196659Y-180696416D01*
X203196659Y-180696416D02*
X203196316Y-180543729D01*
X203196316Y-180543729D02*
X203194380Y-180424833D01*
X203194380Y-180424833D02*
X203190197Y-180331195D01*
X203190197Y-180331195D02*
X203183116Y-180254284D01*
X203183116Y-180254284D02*
X203172484Y-180185568D01*
X203172484Y-180185568D02*
X203157649Y-180116515D01*
X203157649Y-180116515D02*
X203149923Y-180085020D01*
X203149923Y-180085020D02*
X203085946Y-179877474D01*
X203085946Y-179877474D02*
X203007829Y-179705702D01*
X203007829Y-179705702D02*
X202916457Y-179570991D01*
X202916457Y-179570991D02*
X202812713Y-179474626D01*
X202812713Y-179474626D02*
X202697480Y-179417893D01*
X202697480Y-179417893D02*
X202690045Y-179415729D01*
X202690045Y-179415729D02*
X202597723Y-179376807D01*
X202597723Y-179376807D02*
X202510819Y-179318618D01*
X202510819Y-179318618D02*
X202500243Y-179309418D01*
X202500243Y-179309418D02*
X202488351Y-179299416D01*
X202488351Y-179299416D02*
X203083974Y-179299416D01*
X203083974Y-179299416D02*
X203181536Y-179458166D01*
X203181536Y-179458166D02*
X203257703Y-179589629D01*
X203257703Y-179589629D02*
X203318536Y-179714230D01*
X203318536Y-179714230D02*
X203366386Y-179840354D01*
X203366386Y-179840354D02*
X203403602Y-179976387D01*
X203403602Y-179976387D02*
X203432535Y-180130712D01*
X203432535Y-180130712D02*
X203455535Y-180311716D01*
X203455535Y-180311716D02*
X203472431Y-180495964D01*
X203472431Y-180495964D02*
X203484503Y-180638620D01*
X203484503Y-180638620D02*
X203495018Y-180744139D01*
X203495018Y-180744139D02*
X203504853Y-180817648D01*
X203504853Y-180817648D02*
X203514886Y-180864274D01*
X203514886Y-180864274D02*
X203525995Y-180889142D01*
X203525995Y-180889142D02*
X203539058Y-180897381D01*
X203539058Y-180897381D02*
X203541191Y-180897500D01*
X203541191Y-180897500D02*
X203562167Y-180885649D01*
X203562167Y-180885649D02*
X203609451Y-180853583D01*
X203609451Y-180853583D02*
X203675516Y-180806527D01*
X203675516Y-180806527D02*
X203735734Y-180762415D01*
X203735734Y-180762415D02*
X203916499Y-180632858D01*
X203916499Y-180632858D02*
X204074449Y-180529339D01*
X204074449Y-180529339D02*
X204216278Y-180447543D01*
X204216278Y-180447543D02*
X204256750Y-180426562D01*
X204256750Y-180426562D02*
X204361490Y-180379967D01*
X204361490Y-180379967D02*
X204492316Y-180330874D01*
X204492316Y-180330874D02*
X204633671Y-180284390D01*
X204633671Y-180284390D02*
X204769998Y-180245618D01*
X204769998Y-180245618D02*
X204885738Y-180219666D01*
X204885738Y-180219666D02*
X204888997Y-180219092D01*
X204888997Y-180219092D02*
X204986431Y-180200018D01*
X204986431Y-180200018D02*
X205046214Y-180179851D01*
X205046214Y-180179851D02*
X205072751Y-180152676D01*
X205072751Y-180152676D02*
X205070451Y-180112573D01*
X205070451Y-180112573D02*
X205043719Y-180053625D01*
X205043719Y-180053625D02*
X205030385Y-180029207D01*
X205030385Y-180029207D02*
X204913125Y-179808739D01*
X204913125Y-179808739D02*
X204818728Y-179607051D01*
X204818728Y-179607051D02*
X204743937Y-179413586D01*
X204743937Y-179413586D02*
X204685496Y-179217786D01*
X204685496Y-179217786D02*
X204640148Y-179009094D01*
X204640148Y-179009094D02*
X204604635Y-178776952D01*
X204604635Y-178776952D02*
X204581941Y-178575562D01*
X204581941Y-178575562D02*
X204571193Y-178476753D01*
X204571193Y-178476753D02*
X204560472Y-178393743D01*
X204560472Y-178393743D02*
X204551039Y-178335402D01*
X204551039Y-178335402D02*
X204544297Y-178310752D01*
X204544297Y-178310752D02*
X204525393Y-178319379D01*
X204525393Y-178319379D02*
X204481006Y-178352690D01*
X204481006Y-178352690D02*
X204416439Y-178406313D01*
X204416439Y-178406313D02*
X204336998Y-178475876D01*
X204336998Y-178475876D02*
X204267742Y-178538734D01*
X204267742Y-178538734D02*
X204087298Y-178699864D01*
X204087298Y-178699864D02*
X203922786Y-178834383D01*
X203922786Y-178834383D02*
X203763997Y-178948979D01*
X203763997Y-178948979D02*
X203600724Y-179050342D01*
X203600724Y-179050342D02*
X203422760Y-179145160D01*
X203422760Y-179145160D02*
X203219898Y-179240122D01*
X203219898Y-179240122D02*
X203151779Y-179270020D01*
X203151779Y-179270020D02*
X203083974Y-179299416D01*
X203083974Y-179299416D02*
X202488351Y-179299416D01*
X202488351Y-179299416D02*
X202430330Y-179250617D01*
X202430330Y-179250617D02*
X202349716Y-179189055D01*
X202349716Y-179189055D02*
X202313477Y-179163529D01*
X202313477Y-179163529D02*
X202249986Y-179112067D01*
X202249986Y-179112067D02*
X202197817Y-179055054D01*
X202197817Y-179055054D02*
X202177891Y-179023698D01*
X202177891Y-179023698D02*
X202157242Y-178973430D01*
X202157242Y-178973430D02*
X202157727Y-178938751D01*
X202157727Y-178938751D02*
X202179763Y-178898330D01*
X202179763Y-178898330D02*
X202180356Y-178897424D01*
X202180356Y-178897424D02*
X202215502Y-178854262D01*
X202215502Y-178854262D02*
X202246835Y-178830468D01*
X202246835Y-178830468D02*
X202277524Y-178835924D01*
X202277524Y-178835924D02*
X202332858Y-178860573D01*
X202332858Y-178860573D02*
X202402602Y-178899619D01*
X202402602Y-178899619D02*
X202427215Y-178914961D01*
X202427215Y-178914961D02*
X202527538Y-178973429D01*
X202527538Y-178973429D02*
X202612768Y-179008505D01*
X202612768Y-179008505D02*
X202697405Y-179026350D01*
X202697405Y-179026350D02*
X202855912Y-179027725D01*
X202855912Y-179027725D02*
X203033999Y-178995126D01*
X203033999Y-178995126D02*
X203227892Y-178929887D01*
X203227892Y-178929887D02*
X203433814Y-178833342D01*
X203433814Y-178833342D02*
X203647990Y-178706824D01*
X203647990Y-178706824D02*
X203700153Y-178672180D01*
X203700153Y-178672180D02*
X203825407Y-178578323D01*
X203825407Y-178578323D02*
X203967312Y-178456960D01*
X203967312Y-178456960D02*
X204118502Y-178315442D01*
X204118502Y-178315442D02*
X204271609Y-178161123D01*
X204271609Y-178161123D02*
X204419264Y-178001355D01*
X204419264Y-178001355D02*
X204554101Y-177843491D01*
X204554101Y-177843491D02*
X204639104Y-177735143D01*
X204639104Y-177735143D02*
X204743684Y-177601912D01*
X204743684Y-177601912D02*
X204830919Y-177504612D01*
X204830919Y-177504612D02*
X204902866Y-177441550D01*
X204902866Y-177441550D02*
X204961581Y-177411030D01*
X204961581Y-177411030D02*
X205009121Y-177411360D01*
X205009121Y-177411360D02*
X205009121Y-177411360D01*
G36*
X202349716Y-179189055D02*
G01*
X202313477Y-179163529D01*
X202249986Y-179112067D01*
X202197817Y-179055054D01*
X202177891Y-179023698D01*
X202157242Y-178973430D01*
X202157727Y-178938751D01*
X202179763Y-178898330D01*
X202180356Y-178897424D01*
X202215502Y-178854262D01*
X202246835Y-178830468D01*
X202277524Y-178835924D01*
X202332858Y-178860573D01*
X202402602Y-178899619D01*
X202427215Y-178914961D01*
X202527538Y-178973429D01*
X202612768Y-179008505D01*
X202697405Y-179026350D01*
X202855912Y-179027725D01*
X203033999Y-178995126D01*
X203227892Y-178929887D01*
X203433814Y-178833342D01*
X203647990Y-178706824D01*
X203700153Y-178672180D01*
X203825407Y-178578323D01*
X203967312Y-178456960D01*
X204118502Y-178315442D01*
X204271609Y-178161123D01*
X204419264Y-178001355D01*
X204554101Y-177843491D01*
X204639104Y-177735143D01*
X204743684Y-177601912D01*
X204830919Y-177504612D01*
X204902866Y-177441550D01*
X204961581Y-177411030D01*
X205009121Y-177411360D01*
X205023467Y-177418428D01*
X205053679Y-177462167D01*
X205055121Y-177536549D01*
X205027777Y-177641709D01*
X204988752Y-177739995D01*
X204925529Y-177906925D01*
X204883797Y-178076266D01*
X204861146Y-178260862D01*
X204855086Y-178452750D01*
X204871543Y-178748269D01*
X204918881Y-179037356D01*
X204995028Y-179314467D01*
X205097912Y-179574061D01*
X205225463Y-179810594D01*
X205375607Y-180018525D01*
X205484111Y-180135500D01*
X205546126Y-180199202D01*
X205598813Y-180259639D01*
X205631892Y-180304923D01*
X205634214Y-180309073D01*
X205659844Y-180382817D01*
X205661675Y-180451956D01*
X205641926Y-180506216D01*
X205602814Y-180535323D01*
X205584856Y-180537666D01*
X205550169Y-180529159D01*
X205493362Y-180507448D01*
X205456797Y-180491203D01*
X205326667Y-180452357D01*
X205170925Y-180444293D01*
X204992524Y-180466546D01*
X204794412Y-180518652D01*
X204579540Y-180600146D01*
X204480882Y-180644986D01*
X204184232Y-180805552D01*
X203920530Y-180988474D01*
X203691367Y-181192435D01*
X203498333Y-181416121D01*
X203429270Y-181514337D01*
X203352478Y-181626159D01*
X203291406Y-181703173D01*
X203242487Y-181748257D01*
X203202156Y-181764290D01*
X203166847Y-181754147D01*
X203149734Y-181739933D01*
X203130853Y-181694423D01*
X203125869Y-181610866D01*
X203134733Y-181491183D01*
X203157396Y-181337299D01*
X203160290Y-181320833D01*
X203176094Y-181210494D01*
X203187128Y-181080686D01*
X203193808Y-180924254D01*
X203196552Y-180734047D01*
X203196659Y-180696416D01*
X203196316Y-180543729D01*
X203194380Y-180424833D01*
X203190197Y-180331195D01*
X203183116Y-180254284D01*
X203172484Y-180185568D01*
X203157649Y-180116515D01*
X203149923Y-180085020D01*
X203085946Y-179877474D01*
X203007829Y-179705702D01*
X202916457Y-179570991D01*
X202812713Y-179474626D01*
X202697480Y-179417893D01*
X202690045Y-179415729D01*
X202597723Y-179376807D01*
X202510819Y-179318618D01*
X202500243Y-179309418D01*
X202488351Y-179299416D01*
X203083974Y-179299416D01*
X203181536Y-179458166D01*
X203257703Y-179589629D01*
X203318536Y-179714230D01*
X203366386Y-179840354D01*
X203403602Y-179976387D01*
X203432535Y-180130712D01*
X203455535Y-180311716D01*
X203472431Y-180495964D01*
X203484503Y-180638620D01*
X203495018Y-180744139D01*
X203504853Y-180817648D01*
X203514886Y-180864274D01*
X203525995Y-180889142D01*
X203539058Y-180897381D01*
X203541191Y-180897500D01*
X203562167Y-180885649D01*
X203609451Y-180853583D01*
X203675516Y-180806527D01*
X203735734Y-180762415D01*
X203916499Y-180632858D01*
X204074449Y-180529339D01*
X204216278Y-180447543D01*
X204256750Y-180426562D01*
X204361490Y-180379967D01*
X204492316Y-180330874D01*
X204633671Y-180284390D01*
X204769998Y-180245618D01*
X204885738Y-180219666D01*
X204888997Y-180219092D01*
X204986431Y-180200018D01*
X205046214Y-180179851D01*
X205072751Y-180152676D01*
X205070451Y-180112573D01*
X205043719Y-180053625D01*
X205030385Y-180029207D01*
X204913125Y-179808739D01*
X204818728Y-179607051D01*
X204743937Y-179413586D01*
X204685496Y-179217786D01*
X204640148Y-179009094D01*
X204604635Y-178776952D01*
X204581941Y-178575562D01*
X204571193Y-178476753D01*
X204560472Y-178393743D01*
X204551039Y-178335402D01*
X204544297Y-178310752D01*
X204525393Y-178319379D01*
X204481006Y-178352690D01*
X204416439Y-178406313D01*
X204336998Y-178475876D01*
X204267742Y-178538734D01*
X204087298Y-178699864D01*
X203922786Y-178834383D01*
X203763997Y-178948979D01*
X203600724Y-179050342D01*
X203422760Y-179145160D01*
X203219898Y-179240122D01*
X203151779Y-179270020D01*
X203083974Y-179299416D01*
X202488351Y-179299416D01*
X202430330Y-179250617D01*
X202349716Y-179189055D01*
G37*
X202349716Y-179189055D02*
X202313477Y-179163529D01*
X202249986Y-179112067D01*
X202197817Y-179055054D01*
X202177891Y-179023698D01*
X202157242Y-178973430D01*
X202157727Y-178938751D01*
X202179763Y-178898330D01*
X202180356Y-178897424D01*
X202215502Y-178854262D01*
X202246835Y-178830468D01*
X202277524Y-178835924D01*
X202332858Y-178860573D01*
X202402602Y-178899619D01*
X202427215Y-178914961D01*
X202527538Y-178973429D01*
X202612768Y-179008505D01*
X202697405Y-179026350D01*
X202855912Y-179027725D01*
X203033999Y-178995126D01*
X203227892Y-178929887D01*
X203433814Y-178833342D01*
X203647990Y-178706824D01*
X203700153Y-178672180D01*
X203825407Y-178578323D01*
X203967312Y-178456960D01*
X204118502Y-178315442D01*
X204271609Y-178161123D01*
X204419264Y-178001355D01*
X204554101Y-177843491D01*
X204639104Y-177735143D01*
X204743684Y-177601912D01*
X204830919Y-177504612D01*
X204902866Y-177441550D01*
X204961581Y-177411030D01*
X205009121Y-177411360D01*
X205023467Y-177418428D01*
X205053679Y-177462167D01*
X205055121Y-177536549D01*
X205027777Y-177641709D01*
X204988752Y-177739995D01*
X204925529Y-177906925D01*
X204883797Y-178076266D01*
X204861146Y-178260862D01*
X204855086Y-178452750D01*
X204871543Y-178748269D01*
X204918881Y-179037356D01*
X204995028Y-179314467D01*
X205097912Y-179574061D01*
X205225463Y-179810594D01*
X205375607Y-180018525D01*
X205484111Y-180135500D01*
X205546126Y-180199202D01*
X205598813Y-180259639D01*
X205631892Y-180304923D01*
X205634214Y-180309073D01*
X205659844Y-180382817D01*
X205661675Y-180451956D01*
X205641926Y-180506216D01*
X205602814Y-180535323D01*
X205584856Y-180537666D01*
X205550169Y-180529159D01*
X205493362Y-180507448D01*
X205456797Y-180491203D01*
X205326667Y-180452357D01*
X205170925Y-180444293D01*
X204992524Y-180466546D01*
X204794412Y-180518652D01*
X204579540Y-180600146D01*
X204480882Y-180644986D01*
X204184232Y-180805552D01*
X203920530Y-180988474D01*
X203691367Y-181192435D01*
X203498333Y-181416121D01*
X203429270Y-181514337D01*
X203352478Y-181626159D01*
X203291406Y-181703173D01*
X203242487Y-181748257D01*
X203202156Y-181764290D01*
X203166847Y-181754147D01*
X203149734Y-181739933D01*
X203130853Y-181694423D01*
X203125869Y-181610866D01*
X203134733Y-181491183D01*
X203157396Y-181337299D01*
X203160290Y-181320833D01*
X203176094Y-181210494D01*
X203187128Y-181080686D01*
X203193808Y-180924254D01*
X203196552Y-180734047D01*
X203196659Y-180696416D01*
X203196316Y-180543729D01*
X203194380Y-180424833D01*
X203190197Y-180331195D01*
X203183116Y-180254284D01*
X203172484Y-180185568D01*
X203157649Y-180116515D01*
X203149923Y-180085020D01*
X203085946Y-179877474D01*
X203007829Y-179705702D01*
X202916457Y-179570991D01*
X202812713Y-179474626D01*
X202697480Y-179417893D01*
X202690045Y-179415729D01*
X202597723Y-179376807D01*
X202510819Y-179318618D01*
X202500243Y-179309418D01*
X202488351Y-179299416D01*
X203083974Y-179299416D01*
X203181536Y-179458166D01*
X203257703Y-179589629D01*
X203318536Y-179714230D01*
X203366386Y-179840354D01*
X203403602Y-179976387D01*
X203432535Y-180130712D01*
X203455535Y-180311716D01*
X203472431Y-180495964D01*
X203484503Y-180638620D01*
X203495018Y-180744139D01*
X203504853Y-180817648D01*
X203514886Y-180864274D01*
X203525995Y-180889142D01*
X203539058Y-180897381D01*
X203541191Y-180897500D01*
X203562167Y-180885649D01*
X203609451Y-180853583D01*
X203675516Y-180806527D01*
X203735734Y-180762415D01*
X203916499Y-180632858D01*
X204074449Y-180529339D01*
X204216278Y-180447543D01*
X204256750Y-180426562D01*
X204361490Y-180379967D01*
X204492316Y-180330874D01*
X204633671Y-180284390D01*
X204769998Y-180245618D01*
X204885738Y-180219666D01*
X204888997Y-180219092D01*
X204986431Y-180200018D01*
X205046214Y-180179851D01*
X205072751Y-180152676D01*
X205070451Y-180112573D01*
X205043719Y-180053625D01*
X205030385Y-180029207D01*
X204913125Y-179808739D01*
X204818728Y-179607051D01*
X204743937Y-179413586D01*
X204685496Y-179217786D01*
X204640148Y-179009094D01*
X204604635Y-178776952D01*
X204581941Y-178575562D01*
X204571193Y-178476753D01*
X204560472Y-178393743D01*
X204551039Y-178335402D01*
X204544297Y-178310752D01*
X204525393Y-178319379D01*
X204481006Y-178352690D01*
X204416439Y-178406313D01*
X204336998Y-178475876D01*
X204267742Y-178538734D01*
X204087298Y-178699864D01*
X203922786Y-178834383D01*
X203763997Y-178948979D01*
X203600724Y-179050342D01*
X203422760Y-179145160D01*
X203219898Y-179240122D01*
X203151779Y-179270020D01*
X203083974Y-179299416D01*
X202488351Y-179299416D01*
X202430330Y-179250617D01*
X202349716Y-179189055D01*
X174094772Y-155151701D02*
X174200361Y-155176403D01*
X174200361Y-155176403D02*
X174231762Y-155191760D01*
X174231762Y-155191760D02*
X174311291Y-155255660D01*
X174311291Y-155255660D02*
X174369997Y-155336565D01*
X174369997Y-155336565D02*
X174399356Y-155421668D01*
X174399356Y-155421668D02*
X174401167Y-155446296D01*
X174401167Y-155446296D02*
X174396576Y-155481572D01*
X174396576Y-155481572D02*
X174379925Y-155516819D01*
X174379925Y-155516819D02*
X174346897Y-155556019D01*
X174346897Y-155556019D02*
X174293175Y-155603156D01*
X174293175Y-155603156D02*
X174214441Y-155662214D01*
X174214441Y-155662214D02*
X174106378Y-155737174D01*
X174106378Y-155737174D02*
X174030750Y-155788046D01*
X174030750Y-155788046D02*
X173853915Y-155910010D01*
X173853915Y-155910010D02*
X173691620Y-156030894D01*
X173691620Y-156030894D02*
X173535375Y-156157838D01*
X173535375Y-156157838D02*
X173376692Y-156297984D01*
X173376692Y-156297984D02*
X173207082Y-156458470D01*
X173207082Y-156458470D02*
X173057084Y-156607046D01*
X173057084Y-156607046D02*
X172899723Y-156763486D01*
X172899723Y-156763486D02*
X172766031Y-156891874D01*
X172766031Y-156891874D02*
X172651622Y-156995863D01*
X172651622Y-156995863D02*
X172552112Y-157079107D01*
X172552112Y-157079107D02*
X172463115Y-157145259D01*
X172463115Y-157145259D02*
X172380248Y-157197970D01*
X172380248Y-157197970D02*
X172299126Y-157240896D01*
X172299126Y-157240896D02*
X172292484Y-157244062D01*
X172292484Y-157244062D02*
X172204684Y-157277316D01*
X172204684Y-157277316D02*
X172108411Y-157300865D01*
X172108411Y-157300865D02*
X172017451Y-157312457D01*
X172017451Y-157312457D02*
X171945590Y-157309845D01*
X171945590Y-157309845D02*
X171924667Y-157304072D01*
X171924667Y-157304072D02*
X171844278Y-157249806D01*
X171844278Y-157249806D02*
X171784478Y-157166048D01*
X171784478Y-157166048D02*
X171747911Y-157061649D01*
X171747911Y-157061649D02*
X171737221Y-156945461D01*
X171737221Y-156945461D02*
X171755053Y-156826333D01*
X171755053Y-156826333D02*
X171769207Y-156783803D01*
X171769207Y-156783803D02*
X171837990Y-156644851D01*
X171837990Y-156644851D02*
X171939926Y-156491966D01*
X171939926Y-156491966D02*
X172070115Y-156329759D01*
X172070115Y-156329759D02*
X172223657Y-156162842D01*
X172223657Y-156162842D02*
X172395649Y-155995827D01*
X172395649Y-155995827D02*
X172581192Y-155833325D01*
X172581192Y-155833325D02*
X172775385Y-155679949D01*
X172775385Y-155679949D02*
X172973325Y-155540310D01*
X172973325Y-155540310D02*
X173170113Y-155419019D01*
X173170113Y-155419019D02*
X173285440Y-155357049D01*
X173285440Y-155357049D02*
X173465543Y-155275500D01*
X173465543Y-155275500D02*
X173642313Y-155213180D01*
X173642313Y-155213180D02*
X173809963Y-155171100D01*
X173809963Y-155171100D02*
X173962711Y-155150271D01*
X173962711Y-155150271D02*
X174094772Y-155151701D01*
X174094772Y-155151701D02*
X174094772Y-155151701D01*
G36*
X174094772Y-155151701D02*
G01*
X174200361Y-155176403D01*
X174231762Y-155191760D01*
X174311291Y-155255660D01*
X174369997Y-155336565D01*
X174399356Y-155421668D01*
X174401167Y-155446296D01*
X174396576Y-155481572D01*
X174379925Y-155516819D01*
X174346897Y-155556019D01*
X174293175Y-155603156D01*
X174214441Y-155662214D01*
X174106378Y-155737174D01*
X174030750Y-155788046D01*
X173853915Y-155910010D01*
X173691620Y-156030894D01*
X173535375Y-156157838D01*
X173376692Y-156297984D01*
X173207082Y-156458470D01*
X173057084Y-156607046D01*
X172899723Y-156763486D01*
X172766031Y-156891874D01*
X172651622Y-156995863D01*
X172552112Y-157079107D01*
X172463115Y-157145259D01*
X172380248Y-157197970D01*
X172299126Y-157240896D01*
X172292484Y-157244062D01*
X172204684Y-157277316D01*
X172108411Y-157300865D01*
X172017451Y-157312457D01*
X171945590Y-157309845D01*
X171924667Y-157304072D01*
X171844278Y-157249806D01*
X171784478Y-157166048D01*
X171747911Y-157061649D01*
X171737221Y-156945461D01*
X171755053Y-156826333D01*
X171769207Y-156783803D01*
X171837990Y-156644851D01*
X171939926Y-156491966D01*
X172070115Y-156329759D01*
X172223657Y-156162842D01*
X172395649Y-155995827D01*
X172581192Y-155833325D01*
X172775385Y-155679949D01*
X172973325Y-155540310D01*
X173170113Y-155419019D01*
X173285440Y-155357049D01*
X173465543Y-155275500D01*
X173642313Y-155213180D01*
X173809963Y-155171100D01*
X173962711Y-155150271D01*
X174094772Y-155151701D01*
G37*
X174094772Y-155151701D02*
X174200361Y-155176403D01*
X174231762Y-155191760D01*
X174311291Y-155255660D01*
X174369997Y-155336565D01*
X174399356Y-155421668D01*
X174401167Y-155446296D01*
X174396576Y-155481572D01*
X174379925Y-155516819D01*
X174346897Y-155556019D01*
X174293175Y-155603156D01*
X174214441Y-155662214D01*
X174106378Y-155737174D01*
X174030750Y-155788046D01*
X173853915Y-155910010D01*
X173691620Y-156030894D01*
X173535375Y-156157838D01*
X173376692Y-156297984D01*
X173207082Y-156458470D01*
X173057084Y-156607046D01*
X172899723Y-156763486D01*
X172766031Y-156891874D01*
X172651622Y-156995863D01*
X172552112Y-157079107D01*
X172463115Y-157145259D01*
X172380248Y-157197970D01*
X172299126Y-157240896D01*
X172292484Y-157244062D01*
X172204684Y-157277316D01*
X172108411Y-157300865D01*
X172017451Y-157312457D01*
X171945590Y-157309845D01*
X171924667Y-157304072D01*
X171844278Y-157249806D01*
X171784478Y-157166048D01*
X171747911Y-157061649D01*
X171737221Y-156945461D01*
X171755053Y-156826333D01*
X171769207Y-156783803D01*
X171837990Y-156644851D01*
X171939926Y-156491966D01*
X172070115Y-156329759D01*
X172223657Y-156162842D01*
X172395649Y-155995827D01*
X172581192Y-155833325D01*
X172775385Y-155679949D01*
X172973325Y-155540310D01*
X173170113Y-155419019D01*
X173285440Y-155357049D01*
X173465543Y-155275500D01*
X173642313Y-155213180D01*
X173809963Y-155171100D01*
X173962711Y-155150271D01*
X174094772Y-155151701D01*
X262259184Y-144359647D02*
X262264000Y-144380704D01*
X262264000Y-144380704D02*
X262278438Y-144415656D01*
X262278438Y-144415656D02*
X262315626Y-144465459D01*
X262315626Y-144465459D02*
X262350460Y-144502412D01*
X262350460Y-144502412D02*
X262407481Y-144564453D01*
X262407481Y-144564453D02*
X262456779Y-144629652D01*
X262456779Y-144629652D02*
X262475249Y-144660280D01*
X262475249Y-144660280D02*
X262507310Y-144727337D01*
X262507310Y-144727337D02*
X262544181Y-144812070D01*
X262544181Y-144812070D02*
X262581993Y-144904554D01*
X262581993Y-144904554D02*
X262616877Y-144994870D01*
X262616877Y-144994870D02*
X262644964Y-145073093D01*
X262644964Y-145073093D02*
X262662386Y-145129304D01*
X262662386Y-145129304D02*
X262666167Y-145149912D01*
X262666167Y-145149912D02*
X262647750Y-145198649D01*
X262647750Y-145198649D02*
X262598886Y-145231807D01*
X262598886Y-145231807D02*
X262529160Y-145247586D01*
X262529160Y-145247586D02*
X262448153Y-145244184D01*
X262448153Y-145244184D02*
X262365448Y-145219801D01*
X262365448Y-145219801D02*
X262345544Y-145210171D01*
X262345544Y-145210171D02*
X262236730Y-145129847D01*
X262236730Y-145129847D02*
X262148951Y-145019006D01*
X262148951Y-145019006D02*
X262086907Y-144886184D01*
X262086907Y-144886184D02*
X262055299Y-144739920D01*
X262055299Y-144739920D02*
X262052229Y-144677419D01*
X262052229Y-144677419D02*
X262061668Y-144555273D01*
X262061668Y-144555273D02*
X262091840Y-144461585D01*
X262091840Y-144461585D02*
X262142100Y-144390291D01*
X262142100Y-144390291D02*
X262189009Y-144354256D01*
X262189009Y-144354256D02*
X262231636Y-144343758D01*
X262231636Y-144343758D02*
X262259184Y-144359647D01*
X262259184Y-144359647D02*
X262259184Y-144359647D01*
G36*
X262259184Y-144359647D02*
G01*
X262264000Y-144380704D01*
X262278438Y-144415656D01*
X262315626Y-144465459D01*
X262350460Y-144502412D01*
X262407481Y-144564453D01*
X262456779Y-144629652D01*
X262475249Y-144660280D01*
X262507310Y-144727337D01*
X262544181Y-144812070D01*
X262581993Y-144904554D01*
X262616877Y-144994870D01*
X262644964Y-145073093D01*
X262662386Y-145129304D01*
X262666167Y-145149912D01*
X262647750Y-145198649D01*
X262598886Y-145231807D01*
X262529160Y-145247586D01*
X262448153Y-145244184D01*
X262365448Y-145219801D01*
X262345544Y-145210171D01*
X262236730Y-145129847D01*
X262148951Y-145019006D01*
X262086907Y-144886184D01*
X262055299Y-144739920D01*
X262052229Y-144677419D01*
X262061668Y-144555273D01*
X262091840Y-144461585D01*
X262142100Y-144390291D01*
X262189009Y-144354256D01*
X262231636Y-144343758D01*
X262259184Y-144359647D01*
G37*
X262259184Y-144359647D02*
X262264000Y-144380704D01*
X262278438Y-144415656D01*
X262315626Y-144465459D01*
X262350460Y-144502412D01*
X262407481Y-144564453D01*
X262456779Y-144629652D01*
X262475249Y-144660280D01*
X262507310Y-144727337D01*
X262544181Y-144812070D01*
X262581993Y-144904554D01*
X262616877Y-144994870D01*
X262644964Y-145073093D01*
X262662386Y-145129304D01*
X262666167Y-145149912D01*
X262647750Y-145198649D01*
X262598886Y-145231807D01*
X262529160Y-145247586D01*
X262448153Y-145244184D01*
X262365448Y-145219801D01*
X262345544Y-145210171D01*
X262236730Y-145129847D01*
X262148951Y-145019006D01*
X262086907Y-144886184D01*
X262055299Y-144739920D01*
X262052229Y-144677419D01*
X262061668Y-144555273D01*
X262091840Y-144461585D01*
X262142100Y-144390291D01*
X262189009Y-144354256D01*
X262231636Y-144343758D01*
X262259184Y-144359647D01*
%TD*%
D11*
%TO.P,REF\u002A\u002A,1*%
%TO.N,N/C*%
X277376000Y-174103000D03*
X275726000Y-175753000D03*
D12*
X275726000Y-174103000D03*
D11*
X274559274Y-172936274D03*
X274559274Y-175269726D03*
X274076000Y-174103000D03*
X276892726Y-172936274D03*
X275726000Y-172453000D03*
X276892726Y-175269726D03*
%TD*%
%TO.P,REF\u002A\u002A,1*%
%TO.N,N/C*%
X203121247Y-122491490D03*
X224876233Y-142079767D03*
X203293956Y-125786968D03*
D12*
X185180709Y-144160121D03*
D11*
X185094354Y-142512383D03*
X221580755Y-142252476D03*
X206305667Y-160960825D03*
X201981413Y-123035163D03*
X223142140Y-140518383D03*
X206849340Y-162100660D03*
X203553863Y-162273368D03*
X223314848Y-143813860D03*
X206427790Y-163291079D03*
X204433790Y-125243294D03*
X222002305Y-141062056D03*
X204097536Y-163413203D03*
X183532970Y-144246476D03*
X202103536Y-125365418D03*
D12*
X223228494Y-142166121D03*
D11*
X205115247Y-160539275D03*
X184076643Y-145386310D03*
D12*
X205201601Y-162187014D03*
D11*
X222124429Y-143392310D03*
X186406897Y-145264187D03*
X224332559Y-140939933D03*
X224454683Y-143270187D03*
X186284774Y-142933933D03*
D12*
X203207601Y-124139229D03*
D11*
X185267063Y-145807860D03*
X203975413Y-161082949D03*
X205287956Y-163834753D03*
X201559863Y-124225583D03*
X186828447Y-144073767D03*
X204855340Y-124052874D03*
X183954520Y-143056056D03*
X204311667Y-122913040D03*
%TD*%
%TO.P,REF\u002A\u002A,1*%
%TO.N,N/C*%
X270899999Y-136126022D03*
D12*
X270899999Y-134476022D03*
D11*
X269733273Y-135642748D03*
X270899999Y-132826022D03*
X272066725Y-135642748D03*
X272066725Y-133309296D03*
X269249999Y-134476022D03*
X272549999Y-134476022D03*
X269733273Y-133309296D03*
%TD*%
%TO.P,REF\u002A\u002A,1*%
%TO.N,N/C*%
X149735978Y-171434999D03*
X148085978Y-169784999D03*
X150902704Y-170951725D03*
X149735978Y-168134999D03*
X151385978Y-169784999D03*
D12*
X149735978Y-169784999D03*
D11*
X150902704Y-168618273D03*
X148569252Y-170951725D03*
X148569252Y-168618273D03*
%TD*%
%TO.P,REF\u002A\u002A,1*%
%TO.N,N/C*%
X215923415Y-183858273D03*
X213589963Y-186191725D03*
X214756689Y-183374999D03*
X216406689Y-185024999D03*
X213589963Y-183858273D03*
X214756689Y-186674999D03*
X213106689Y-185024999D03*
X215923415Y-186191725D03*
D12*
X214756689Y-185024999D03*
%TD*%
D11*
%TO.P,REF\u002A\u002A,1*%
%TO.N,N/C*%
X154960061Y-135381451D03*
X154960061Y-133047999D03*
X153793335Y-132564725D03*
X152143335Y-134214725D03*
X152626609Y-135381451D03*
D12*
X153793335Y-134214725D03*
D11*
X155443335Y-134214725D03*
X153793335Y-135864725D03*
X152626609Y-133047999D03*
%TD*%
%TO.P,REF\u002A\u002A,1*%
%TO.N,N/C*%
X213608945Y-115672725D03*
X214092219Y-114505999D03*
X216908945Y-115672725D03*
X215258945Y-117322725D03*
X215258945Y-114022725D03*
X216425671Y-114505999D03*
X216425671Y-116839451D03*
X214092219Y-116839451D03*
D12*
X215258945Y-115672725D03*
%TD*%
M02*
