M48
; DRILL file {KiCad 6.0.4-6f826c9f35~116~ubuntu20.04.1} date vr 03 jun 2022 00:45:19 CEST
; FORMAT={-:-/ absolute / metric / decimal}
; #@! TF.CreationDate,2022-06-03T00:45:19+02:00
; #@! TF.GenerationSoftware,Kicad,Pcbnew,6.0.4-6f826c9f35~116~ubuntu20.04.1
; #@! TF.FileFunction,Plated,1,2,PTH
FMAT,2
METRIC
; #@! TA.AperFunction,Plated,PTH,ComponentDrill
T1C0.400
; #@! TA.AperFunction,Plated,PTH,ComponentDrill
T2C2.200
%
G90
G05
T1
X148.086Y-169.785
X148.569Y-168.618
X148.569Y-170.952
X149.736Y-168.135
X149.736Y-171.435
X150.903Y-168.618
X150.903Y-170.952
X151.386Y-169.785
X152.143Y-134.215
X152.627Y-133.048
X152.627Y-135.381
X153.793Y-132.565
X153.793Y-135.865
X154.96Y-133.048
X154.96Y-135.381
X155.443Y-134.215
X183.533Y-144.246
X183.955Y-143.056
X184.077Y-145.386
X185.094Y-142.512
X185.267Y-145.808
X186.285Y-142.934
X186.407Y-145.264
X186.828Y-144.074
X201.56Y-124.226
X201.981Y-123.035
X202.104Y-125.365
X203.121Y-122.491
X203.294Y-125.787
X203.554Y-162.273
X203.975Y-161.083
X204.098Y-163.413
X204.312Y-122.913
X204.434Y-125.243
X204.855Y-124.053
X205.115Y-160.539
X205.288Y-163.835
X206.306Y-160.961
X206.428Y-163.291
X206.849Y-162.101
X213.107Y-185.025
X213.59Y-183.858
X213.59Y-186.192
X213.609Y-115.673
X214.092Y-114.506
X214.092Y-116.839
X214.757Y-183.375
X214.757Y-186.675
X215.259Y-114.023
X215.259Y-117.323
X215.923Y-183.858
X215.923Y-186.192
X216.407Y-185.025
X216.426Y-114.506
X216.426Y-116.839
X216.909Y-115.673
X221.581Y-142.252
X222.002Y-141.062
X222.124Y-143.392
X223.142Y-140.518
X223.315Y-143.814
X224.333Y-140.94
X224.455Y-143.27
X224.876Y-142.08
X269.25Y-134.476
X269.733Y-133.309
X269.733Y-135.643
X270.9Y-132.826
X270.9Y-136.126
X272.067Y-133.309
X272.067Y-135.643
X272.55Y-134.476
X274.076Y-174.103
X274.559Y-172.936
X274.559Y-175.27
X275.726Y-172.453
X275.726Y-175.753
X276.893Y-172.936
X276.893Y-175.27
X277.376Y-174.103
T2
X149.736Y-169.785
X153.793Y-134.215
X185.181Y-144.16
X203.208Y-124.139
X205.202Y-162.187
X214.757Y-185.025
X215.259Y-115.673
X223.228Y-142.166
X270.9Y-134.476
X275.726Y-174.103
T0
M30
