M48
; DRILL file {KiCad 6.0.4-6f826c9f35~116~ubuntu20.04.1} date vr 20 mei 2022 17:44:35 CEST
; FORMAT={-:-/ absolute / metric / decimal}
; #@! TF.CreationDate,2022-05-20T17:44:35+02:00
; #@! TF.GenerationSoftware,Kicad,Pcbnew,6.0.4-6f826c9f35~116~ubuntu20.04.1
; #@! TF.FileFunction,NonPlated,1,2,NPTH
FMAT,2
METRIC
; #@! TA.AperFunction,NonPlated,NPTH,ComponentDrill
T1C0.900
; #@! TA.AperFunction,NonPlated,NPTH,ComponentDrill
T2C1.702
; #@! TA.AperFunction,NonPlated,NPTH,ComponentDrill
T3C3.000
; #@! TA.AperFunction,NonPlated,NPTH,ComponentDrill
T4C3.429
%
G90
G05
T1
X118.846Y38.644
X118.846Y38.644
X119.921Y35.843
X119.921Y35.843
T2
X-6.961Y16.456
X-6.961Y16.456
X3.997Y17.415
X3.997Y17.415
X10.971Y18.025
X10.971Y18.025
X12.452Y1.089
X12.452Y1.089
X21.929Y18.983
X21.929Y18.983
X23.411Y2.048
X23.411Y2.048
X28.821Y44.502
X28.821Y44.502
X29.711Y27.526
X29.711Y27.526
X30.6Y10.549
X30.6Y10.549
X39.806Y45.078
X39.806Y45.078
X40.696Y28.101
X40.696Y28.101
X41.585Y11.125
X41.585Y11.125
X50.313Y46.872
X50.313Y29.872
X50.313Y12.872
X50.313Y46.872
X50.313Y29.872
X50.313Y12.872
X61.313Y46.872
X61.313Y46.872
X61.313Y29.872
X61.313Y29.872
X61.313Y12.872
X61.313Y12.872
X68.514Y9.968
X68.514Y9.968
X68.811Y26.965
X68.811Y26.965
X69.108Y43.963
X69.108Y43.963
X78.468Y-13.387
X78.468Y-13.387
X79.513Y9.776
X79.513Y9.776
X79.809Y26.773
X79.809Y26.773
X80.106Y43.771
X80.106Y43.771
X86.627Y4.75
X86.627Y4.75
X87.22Y21.74
X87.22Y21.74
X87.813Y38.73
X87.813Y38.73
X89.266Y-15.486
X89.266Y-15.486
X97.62Y4.366
X97.62Y4.366
X98.213Y21.356
X98.213Y21.356
X98.807Y38.346
X98.807Y38.346
X103.483Y-21.963
X103.483Y-21.963
X108.305Y-12.076
X108.305Y-12.076
T3
X-6.789Y20.235
X-2.0Y22.863
X3.172Y21.107
X11.142Y21.804
X12.624Y4.869
X15.931Y24.431
X17.413Y7.496
X21.104Y22.676
X22.586Y5.74
X29.124Y48.274
X30.014Y31.297
X30.903Y14.32
X34.002Y50.732
X34.892Y33.755
X35.781Y16.779
X39.11Y48.797
X40.0Y31.82
X40.89Y14.843
X50.813Y50.622
X50.813Y33.622
X50.813Y16.622
X55.813Y52.822
X55.813Y35.822
X55.813Y18.822
X60.813Y50.622
X60.813Y33.622
X60.813Y16.622
X69.08Y13.709
X69.376Y30.706
X69.673Y47.703
X74.117Y15.821
X74.414Y32.818
X74.711Y49.816
X79.078Y13.534
X79.375Y30.531
X79.671Y47.529
X79.674Y-9.801
X85.002Y-8.596
X87.257Y8.481
X87.851Y25.47
X88.444Y42.46
X89.49Y-11.709
X92.331Y10.505
X92.924Y27.494
X93.518Y44.484
X97.251Y8.132
X97.844Y25.121
X98.438Y42.111
X100.332Y-19.87
X100.547Y-14.411
X104.716Y-10.882
T4
X-1.482Y16.935
X-1.482Y16.935
X-1.482Y16.935
X16.45Y18.504
X16.45Y18.504
X16.45Y18.504
X17.932Y1.569
X17.932Y1.569
X17.932Y1.569
X34.313Y44.79
X34.313Y44.79
X34.313Y44.79
X35.203Y27.814
X35.203Y27.814
X35.203Y27.814
X36.093Y10.837
X36.093Y10.837
X36.093Y10.837
X55.813Y46.872
X55.813Y46.872
X55.813Y46.872
X55.813Y29.872
X55.813Y29.872
X55.813Y29.872
X55.813Y12.872
X55.813Y12.872
X55.813Y12.872
X74.013Y9.872
X74.013Y9.872
X74.013Y9.872
X74.31Y26.869
X74.31Y26.869
X74.31Y26.869
X74.607Y43.867
X74.607Y43.867
X74.607Y43.867
X83.867Y-14.436
X83.867Y-14.436
X83.867Y-14.436
X92.123Y4.558
X92.123Y4.558
X92.123Y4.558
X92.717Y21.548
X92.717Y21.548
X92.717Y21.548
X93.31Y38.538
X93.31Y38.538
X93.31Y38.538
X105.894Y-17.02
X105.894Y-17.02
X105.894Y-17.02
T0
M30
