M48
METRIC,TZ
T1C0.900
T2C1.702
T3C3.000
T4C3.429
%
G90
G05
T1
X118846Y38644
X118846Y38644
X119921Y35843
X119921Y35843
T2
X-6961Y16456
X-6961Y16456
X3997Y17415
X3997Y17415
X10971Y18025
X10971Y18025
X12452Y1089
X12452Y1089
X21929Y18983
X21929Y18983
X23411Y2048
X23411Y2048
X28821Y44502
X28821Y44502
X29711Y27526
X29711Y27526
X30600Y10549
X30600Y10549
X39806Y45078
X39806Y45078
X40696Y28101
X40696Y28101
X41585Y11125
X41585Y11125
X50313Y46872
X50313Y29872
X50313Y12872
X50313Y46872
X50313Y29872
X50313Y12872
X61313Y46872
X61313Y46872
X61313Y29872
X61313Y29872
X61313Y12872
X61313Y12872
X68514Y9968
X68514Y9968
X68811Y26965
X68811Y26965
X69108Y43963
X69108Y43963
X78468Y-13387
X78468Y-13387
X79513Y9776
X79513Y9776
X79809Y26773
X79809Y26773
X80106Y43771
X80106Y43771
X86627Y4750
X86627Y4750
X87220Y21740
X87220Y21740
X87813Y38730
X87813Y38730
X89266Y-15486
X89266Y-15486
X97620Y4366
X97620Y4366
X98213Y21356
X98213Y21356
X98807Y38346
X98807Y38346
X103483Y-21963
X103483Y-21963
X108305Y-12076
X108305Y-12076
T3
X-6789Y20235
X-2000Y22863
X3172Y21107
X11142Y21804
X12624Y4869
X15931Y24431
X17413Y7496
X21104Y22676
X22586Y5740
X29124Y48274
X30014Y31297
X30903Y14320
X34002Y50732
X34892Y33755
X35781Y16779
X39110Y48797
X40000Y31820
X40890Y14843
X50813Y50622
X50813Y33622
X50813Y16622
X55813Y52822
X55813Y35822
X55813Y18822
X60813Y50622
X60813Y33622
X60813Y16622
X69080Y13709
X69376Y30706
X69673Y47703
X74117Y15821
X74414Y32818
X74711Y49816
X79078Y13534
X79375Y30531
X79671Y47529
X79674Y-9801
X85002Y-8596
X87257Y8481
X87851Y25470
X88444Y42460
X89490Y-11709
X92331Y10505
X92924Y27494
X93518Y44484
X97251Y8132
X97844Y25121
X98438Y42111
X100332Y-19870
X100547Y-14411
X104716Y-10882
T4
X-1482Y16935
X-1482Y16935
X-1482Y16935
X16450Y18504
X16450Y18504
X16450Y18504
X17932Y1569
X17932Y1569
X17932Y1569
X34313Y44790
X34313Y44790
X34313Y44790
X35203Y27814
X35203Y27814
X35203Y27814
X36093Y10837
X36093Y10837
X36093Y10837
X55813Y46872
X55813Y46872
X55813Y46872
X55813Y29872
X55813Y29872
X55813Y29872
X55813Y12872
X55813Y12872
X55813Y12872
X74013Y9872
X74013Y9872
X74013Y9872
X74310Y26869
X74310Y26869
X74310Y26869
X74607Y43867
X74607Y43867
X74607Y43867
X83867Y-14436
X83867Y-14436
X83867Y-14436
X92123Y4558
X92123Y4558
X92123Y4558
X92717Y21548
X92717Y21548
X92717Y21548
X93310Y38538
X93310Y38538
X93310Y38538
X105894Y-17020
X105894Y-17020
X105894Y-17020
T0
M30
