M48
METRIC,TZ
T1C0.200
T2C0.200
T3C0.300
T4C0.400
T5C0.400
T6C0.500
T7C0.600
T8C0.635
T9C0.800
T10C2.200
%
G90
G05
T1
X103190Y32530
X105900Y32950
X105950Y42375
X106225Y6500
X106365Y7550
X106925Y42100
X106950Y32900
X108150Y18675
X108925Y15275
X108975Y31150
X109125Y24725
X109750Y26500
X110100Y3825
X110860Y29715
X111090Y3705
X111100Y20150
X112180Y3635
X112200Y17575
X113270Y17545
X113273Y3650
X113510Y13935
X114340Y3635
X114370Y17545
X117150Y3785
X117950Y3575
X119110Y3145
X119570Y17145
X119580Y15135
X120160Y2935
X120280Y17205
X121110Y17195
X121190Y24440
T2
X114100Y27848
X114100Y26272
X116040Y27808
X116040Y26233
T3
X114755Y41772
X115698Y45371
T4
X104500Y43475
X105190Y37195
X107675Y29850
X107960Y37205
X108975Y22875
X109225Y42075
X113160Y35120
X116500Y35900
X116510Y31980
X117225Y33975
X121780Y26900
T5
X-6770Y-7155
X-6287Y-5988
X-6287Y-8322
X-5120Y-5505
X-5120Y-8805
X-3953Y-5988
X-3953Y-8322
X-3470Y-7155
X-3460Y44585
X-2977Y45752
X-2977Y43418
X-1810Y46235
X-1810Y42935
X-643Y45752
X-643Y43418
X-160Y44585
X25037Y25961
X25459Y27151
X25581Y24821
X26598Y27695
X26771Y24399
X27789Y27273
X27911Y24943
X28332Y26133
X43064Y45981
X43485Y47172
X43608Y44842
X44625Y47716
X44798Y44420
X45058Y7934
X45479Y9124
X45602Y6794
X45816Y47294
X45938Y44964
X46359Y46154
X46619Y9668
X46792Y6372
X47810Y9246
X47932Y6916
X48353Y8106
X63085Y27955
X63506Y29145
X63628Y26815
X64646Y29689
X64819Y26393
X65837Y29267
X65959Y26937
X66380Y28127
X85560Y50945
X86043Y52112
X86043Y49778
X87210Y52595
X87210Y49295
X88377Y52112
X88377Y49778
X88860Y50945
X94230Y-12595
X94713Y-11428
X94713Y-13762
X95880Y-10945
X95880Y-14245
X97047Y-11428
X97047Y-13762
X97530Y-12595
T6
X79110Y-7590
X79110Y-10090
T9
X115140Y14130
X115140Y12130
X115140Y10130
X115140Y8130
X118070Y14150
X118070Y12150
X118070Y10150
X118070Y8150
X122629Y30024
X123011Y28061
X123392Y26098
X123774Y24135
T10
X-5120Y-7155
X-1810Y44585
X26685Y26047
X44712Y46068
X46706Y8020
X64732Y28041
X87210Y50945
X95880Y-12595
T7
G00X102115Y46761
M15
G01X101901Y45990
M16
G05
G00X103237Y50808
M15
G01X102916Y49652
M16
G05
G00X112946Y43757
M15
G01X112732Y42986
M16
G05
G00X114068Y47804
M15
G01X113747Y46648
M16
G05
T8
G00X-5815Y12742
M15
G01X-6448Y12686
M16
G05
G00X-651Y11085
M15
G01X-1284Y11030
M16
G05
G00X4147Y13613
M15
G01X3514Y13558
M16
G05
G00X12116Y14310
M15
G01X11484Y14255
M16
G05
G00X13598Y-2625
M15
G01X12965Y-2680
M16
G05
G00X17280Y12654
M15
G01X16648Y12599
M16
G05
G00X18762Y-4281
M15
G01X18129Y-4336
M16
G05
G00X22078Y15182
M15
G01X21446Y15127
M16
G05
G00X23560Y-1753
M15
G01X22927Y-1809
M16
G05
G00X29836Y40750
M15
G01X29202Y40717
M16
G05
G00X30726Y23774
M15
G01X30092Y23741
M16
G05
G00X31616Y6797
M15
G01X30982Y6764
M16
G05
G00X34939Y38915
M15
G01X34305Y38882
M16
G05
G00X35829Y21938
M15
G01X35195Y21905
M16
G05
G00X36719Y4962
M15
G01X36085Y4928
M16
G05
G00X39823Y41274
M15
G01X39188Y41241
M16
G05
G00X40712Y24297
M15
G01X40078Y24264
M16
G05
G00X41602Y7320
M15
G01X40968Y7287
M16
G05
G00X51131Y43072
M15
G01X50496Y43072
M16
G05
G00X51131Y26072
M15
G01X50496Y26072
M16
G05
G00X51131Y9072
M15
G01X50496Y9072
M16
G05
G00X56131Y40972
M15
G01X55496Y40972
M16
G05
G00X56131Y23972
M15
G01X55496Y23972
M16
G05
G00X56131Y6972
M15
G01X55496Y6972
M16
G05
G00X61131Y43072
M15
G01X60496Y43072
M16
G05
G00X61131Y26072
M15
G01X60496Y26072
M16
G05
G00X61131Y9072
M15
G01X60496Y9072
M16
G05
G00X69265Y6154
M15
G01X68630Y6165
M16
G05
G00X69562Y23152
M15
G01X68927Y23163
M16
G05
G00X69859Y40149
M15
G01X69224Y40160
M16
G05
G00X74228Y3967
M15
G01X73593Y3978
M16
G05
G00X74525Y20965
M15
G01X73890Y20976
M16
G05
G00X74821Y37962
M15
G01X74186Y37973
M16
G05
G00X78545Y-17273
M15
G01X77922Y-17152
M16
G05
G00X79264Y5980
M15
G01X78629Y5991
M16
G05
G00X79560Y22977
M15
G01X78926Y22988
M16
G05
G00X79857Y39974
M15
G01X79222Y39985
M16
G05
G00X83053Y-20289
M15
G01X82429Y-20167
M16
G05
G00X87311Y924
M15
G01X86676Y946
M16
G05
G00X87904Y17914
M15
G01X87270Y17936
M16
G05
G00X88361Y-19181
M15
G01X87738Y-19060
M16
G05
G00X88498Y34903
M15
G01X87863Y34926
M16
G05
G00X92235Y-1349
M15
G01X91600Y-1327
M16
G05
G00X92828Y15641
M15
G01X92193Y15663
M16
G05
G00X93421Y32630
M15
G01X92787Y32652
M16
G05
G00X97305Y575
M15
G01X96670Y597
M16
G05
G00X97898Y17565
M15
G01X97264Y17587
M16
G05
G00X98492Y34554
M15
G01X97857Y34577
M16
G05
G00X107257Y-22894
M15
G01X106979Y-23465
M16
G05
G00X111336Y-19321
M15
G01X111058Y-19891
M16
G05
G00X111641Y-13906
M15
G01X111362Y-14477
M16
G05
T0
M30
