%TF.GenerationSoftware,KiCad,Pcbnew,6.0.4-6f826c9f35~116~ubuntu20.04.1*%
%TF.CreationDate,2022-05-20T17:44:35+02:00*%
%TF.ProjectId,Wubbo,57756262-6f2e-46b6-9963-61645f706362,v0.3*%
%TF.SameCoordinates,Original*%
%TF.FileFunction,Soldermask,Top*%
%TF.FilePolarity,Negative*%
%FSLAX46Y46*%
G04 Gerber Fmt 4.6, Leading zero omitted, Abs format (unit mm)*
G04 Created by KiCad (PCBNEW 6.0.4-6f826c9f35~116~ubuntu20.04.1) date 2022-05-20 17:44:35*
%MOMM*%
%LPD*%
G01*
G04 APERTURE LIST*
G04 Aperture macros list*
%AMRoundRect*
0 Rectangle with rounded corners*
0 $1 Rounding radius*
0 $2 $3 $4 $5 $6 $7 $8 $9 X,Y pos of 4 corners*
0 Add a 4 corners polygon primitive as box body*
4,1,4,$2,$3,$4,$5,$6,$7,$8,$9,$2,$3,0*
0 Add four circle primitives for the rounded corners*
1,1,$1+$1,$2,$3*
1,1,$1+$1,$4,$5*
1,1,$1+$1,$6,$7*
1,1,$1+$1,$8,$9*
0 Add four rect primitives between the rounded corners*
20,1,$1+$1,$2,$3,$4,$5,0*
20,1,$1+$1,$4,$5,$6,$7,0*
20,1,$1+$1,$6,$7,$8,$9,0*
20,1,$1+$1,$8,$9,$2,$3,0*%
%AMHorizOval*
0 Thick line with rounded ends*
0 $1 width*
0 $2 $3 position (X,Y) of the first rounded end (center of the circle)*
0 $4 $5 position (X,Y) of the second rounded end (center of the circle)*
0 Add line between two ends*
20,1,$1,$2,$3,$4,$5,0*
0 Add two circle primitives to create the rounded ends*
1,1,$1,$2,$3*
1,1,$1,$4,$5*%
G04 Aperture macros list end*
%TA.AperFunction,Profile*%
%ADD10C,0.150000*%
%TD*%
%ADD11C,0.010000*%
%ADD12C,0.120000*%
%ADD13RoundRect,0.250000X0.275000X-0.200000X0.275000X0.200000X-0.275000X0.200000X-0.275000X-0.200000X0*%
%ADD14C,3.100000*%
%ADD15C,1.801800*%
%ADD16C,3.529000*%
%ADD17HorizOval,1.200000X-0.449383X-0.023551X0.449383X0.023551X0*%
%ADD18RoundRect,0.050000X1.230182X1.366255X-1.366255X1.230182X-1.230182X-1.366255X1.366255X-1.230182X0*%
%ADD19O,2.100000X1.200000*%
%ADD20RoundRect,0.050000X1.300000X1.300000X-1.300000X1.300000X-1.300000X-1.300000X1.300000X-1.300000X0*%
%ADD21RoundRect,0.275000X-0.250000X0.225000X-0.250000X-0.225000X0.250000X-0.225000X0.250000X0.225000X0*%
%ADD22RoundRect,0.050000X-0.187500X0.250000X-0.187500X-0.250000X0.187500X-0.250000X0.187500X0.250000X0*%
%ADD23RoundRect,0.050000X-0.150000X0.325000X-0.150000X-0.325000X0.150000X-0.325000X0.150000X0.325000X0*%
%ADD24RoundRect,0.268750X0.256250X-0.218750X0.256250X0.218750X-0.256250X0.218750X-0.256250X-0.218750X0*%
%ADD25RoundRect,0.050000X-0.675000X-0.675000X0.675000X-0.675000X0.675000X0.675000X-0.675000X0.675000X0*%
%ADD26O,1.450000X1.450000*%
%ADD27RoundRect,0.200000X0.150000X-0.587500X0.150000X0.587500X-0.150000X0.587500X-0.150000X-0.587500X0*%
%ADD28RoundRect,0.250000X-0.275000X0.200000X-0.275000X-0.200000X0.275000X-0.200000X0.275000X0.200000X0*%
%ADD29HorizOval,1.200000X-0.197267X-0.404457X0.197267X0.404457X0*%
%ADD30RoundRect,0.050000X-0.598550X1.738315X-1.738315X-0.598550X0.598550X-1.738315X1.738315X0.598550X0*%
%ADD31RoundRect,0.320833X0.379167X0.654167X-0.379167X0.654167X-0.379167X-0.654167X0.379167X-0.654167X0*%
%ADD32O,1.400000X1.950000*%
%ADD33HorizOval,1.200000X-0.449931X0.007854X0.449931X-0.007854X0*%
%ADD34RoundRect,0.050000X1.322490X1.277114X-1.277114X1.322490X-1.322490X-1.277114X1.277114X-1.322490X0*%
%ADD35RoundRect,0.050000X0.300000X0.225000X-0.300000X0.225000X-0.300000X-0.225000X0.300000X-0.225000X0*%
%ADD36RoundRect,0.275000X0.225000X0.250000X-0.225000X0.250000X-0.225000X-0.250000X0.225000X-0.250000X0*%
%ADD37RoundRect,0.050000X-0.350000X0.762000X-0.350000X-0.762000X0.350000X-0.762000X0.350000X0.762000X0*%
%ADD38RoundRect,0.050000X-0.762000X-0.350000X0.762000X-0.350000X0.762000X0.350000X-0.762000X0.350000X0*%
%ADD39RoundRect,0.050000X0.350000X-0.762000X0.350000X0.762000X-0.350000X0.762000X-0.350000X-0.762000X0*%
%ADD40C,0.800000*%
%ADD41C,4.500000*%
%ADD42RoundRect,0.050000X1.181751X1.408356X-1.408356X1.181751X-1.181751X-1.408356X1.408356X-1.181751X0*%
%ADD43HorizOval,1.200000X-0.448288X-0.039220X0.448288X0.039220X0*%
%ADD44RoundRect,0.550000X0.612372X0.353553X-0.353553X0.612372X-0.612372X-0.353553X0.353553X-0.612372X0*%
%ADD45RoundRect,0.250000X-0.200000X-0.275000X0.200000X-0.275000X0.200000X0.275000X-0.200000X0.275000X0*%
%ADD46RoundRect,0.050000X0.552616X-0.323443X0.194248X0.610137X-0.552616X0.323443X-0.194248X-0.610137X0*%
%ADD47C,1.000000*%
%ADD48RoundRect,0.050000X0.825614X-0.057977X0.574757X0.595529X-0.825614X0.057977X-0.574757X-0.595529X0*%
%ADD49HorizOval,1.200000X-0.449726X0.015705X0.449726X-0.015705X0*%
%ADD50RoundRect,0.050000X1.344577X1.253839X-1.253839X1.344577X-1.344577X-1.253839X1.253839X-1.344577X0*%
%ADD51RoundRect,0.200000X-0.587500X-0.150000X0.587500X-0.150000X0.587500X0.150000X-0.587500X0.150000X0*%
%ADD52RoundRect,0.050000X-0.442751X-0.473916X0.135427X-0.634259X0.442751X0.473916X-0.135427X0.634259X0*%
%ADD53RoundRect,0.050000X-0.298207X-0.514002X-0.009117X-0.594173X0.298207X0.514002X0.009117X0.594173X0*%
%ADD54HorizOval,1.100000X-0.160343X-0.578178X0.160343X0.578178X0*%
%ADD55HorizOval,1.100000X-0.106895X-0.385452X0.106895X0.385452X0*%
%ADD56RoundRect,0.050000X-0.533802X-0.791394X0.791394X-0.533802X0.533802X0.791394X-0.791394X0.533802X0*%
%ADD57HorizOval,1.450000X0.000000X0.000000X0.000000X0.000000X0*%
%ADD58RoundRect,0.200000X0.150000X-0.512500X0.150000X0.512500X-0.150000X0.512500X-0.150000X-0.512500X0*%
%ADD59RoundRect,0.050000X1.524167X1.028064X-1.028064X1.524167X-1.524167X-1.028064X1.028064X-1.524167X0*%
%ADD60HorizOval,1.200000X-0.441732X0.085864X0.441732X-0.085864X0*%
%ADD61RoundRect,0.250000X-0.266217X-0.211551X0.119236X-0.318446X0.266217X0.211551X-0.119236X0.318446X0*%
%ADD62RoundRect,0.300000X-0.367846X-0.390915X0.113969X-0.524534X0.367846X0.390915X-0.113969X0.524534X0*%
G04 APERTURE END LIST*
D10*
X104544530Y51844171D02*
G75*
G03*
X-2083172Y49308466I-48731160J-193972341D01*
G01*
X-5611244Y46442888D02*
G75*
G03*
X-10622661Y-9179340I61424614J-33571068D01*
G01*
X104544530Y51844172D02*
X102813372Y45601818D01*
X110309220Y-31062252D02*
G75*
G03*
X117237987Y46442886I-54495848J43934070D01*
G01*
X111755862Y43121846D02*
X113489973Y49374846D01*
X117237963Y46442874D02*
G75*
G03*
X113709916Y49308466I-5264963J-2877474D01*
G01*
X-2083173Y49308466D02*
G75*
G03*
X-5611244Y46442886I1736897J-5743100D01*
G01*
X103920858Y-33045467D02*
G75*
G03*
X-5334370Y-13275473I-143107476J-479082651D01*
G01*
X102813372Y45601818D02*
X111755862Y43121846D01*
X113709916Y49308466D02*
G75*
G03*
X113489972Y49374846I-59168016J-195650166D01*
G01*
X103920840Y-33045522D02*
G75*
G03*
X110309219Y-31062252I1717260J5749022D01*
G01*
X-10622661Y-9179341D02*
G75*
G03*
X-5334370Y-13275474I5694518J1890101D01*
G01*
%TO.C,GR1*%
G36*
X1864112Y6058478D02*
G01*
X1864388Y6057768D01*
X1849463Y6037082D01*
X1809391Y5988445D01*
X1747270Y5915436D01*
X1666198Y5821637D01*
X1569273Y5710628D01*
X1459593Y5585991D01*
X1340258Y5451306D01*
X1317631Y5425867D01*
X776612Y4817981D01*
X-1295733Y4636352D01*
X-1649633Y4605433D01*
X-1963498Y4578237D01*
X-2239445Y4554604D01*
X-2479595Y4534378D01*
X-2686067Y4517399D01*
X-2860979Y4503510D01*
X-3006451Y4492550D01*
X-3124604Y4484364D01*
X-3217554Y4478792D01*
X-3287421Y4475675D01*
X-3336326Y4474855D01*
X-3366386Y4476175D01*
X-3379721Y4479475D01*
X-3380662Y4480531D01*
X-3385629Y4507887D01*
X-3393107Y4571567D01*
X-3402529Y4665670D01*
X-3413333Y4784299D01*
X-3424956Y4921556D01*
X-3435542Y5054725D01*
X-3477839Y5603111D01*
X-803857Y5842448D01*
X-381831Y5880109D01*
X-660Y5913883D01*
X340942Y5943871D01*
X644265Y5970179D01*
X910595Y5992911D01*
X1141221Y6012169D01*
X1337433Y6028060D01*
X1500516Y6040684D01*
X1631761Y6050149D01*
X1732454Y6056557D01*
X1803885Y6060011D01*
X1847342Y6060616D01*
X1864112Y6058478D01*
G37*
D11*
X1864112Y6058478D02*
X1864388Y6057768D01*
X1849463Y6037082D01*
X1809391Y5988445D01*
X1747270Y5915436D01*
X1666198Y5821637D01*
X1569273Y5710628D01*
X1459593Y5585991D01*
X1340258Y5451306D01*
X1317631Y5425867D01*
X776612Y4817981D01*
X-1295733Y4636352D01*
X-1649633Y4605433D01*
X-1963498Y4578237D01*
X-2239445Y4554604D01*
X-2479595Y4534378D01*
X-2686067Y4517399D01*
X-2860979Y4503510D01*
X-3006451Y4492550D01*
X-3124604Y4484364D01*
X-3217554Y4478792D01*
X-3287421Y4475675D01*
X-3336326Y4474855D01*
X-3366386Y4476175D01*
X-3379721Y4479475D01*
X-3380662Y4480531D01*
X-3385629Y4507887D01*
X-3393107Y4571567D01*
X-3402529Y4665670D01*
X-3413333Y4784299D01*
X-3424956Y4921556D01*
X-3435542Y5054725D01*
X-3477839Y5603111D01*
X-803857Y5842448D01*
X-381831Y5880109D01*
X-660Y5913883D01*
X340942Y5943871D01*
X644265Y5970179D01*
X910595Y5992911D01*
X1141221Y6012169D01*
X1337433Y6028060D01*
X1500516Y6040684D01*
X1631761Y6050149D01*
X1732454Y6056557D01*
X1803885Y6060011D01*
X1847342Y6060616D01*
X1864112Y6058478D01*
G36*
X-3011519Y536520D02*
G01*
X-2962275Y500833D01*
X-2885707Y443231D01*
X-2784702Y365948D01*
X-2662150Y271222D01*
X-2520944Y161283D01*
X-2363971Y38369D01*
X-2194123Y-95286D01*
X-2014289Y-237448D01*
X-1998671Y-249824D01*
X-983074Y-1054761D01*
X4360897Y-571553D01*
X4461654Y-1723212D01*
X2379323Y-1904506D01*
X296991Y-2085801D01*
X-159788Y-1721988D01*
X-291512Y-1617268D01*
X-423209Y-1512920D01*
X-548029Y-1414348D01*
X-659118Y-1326954D01*
X-749624Y-1256145D01*
X-803787Y-1214158D01*
X-991006Y-1070140D01*
X-1536328Y-1682909D01*
X-1657547Y-1818784D01*
X-1770040Y-1944230D01*
X-1870699Y-2055831D01*
X-1956417Y-2150171D01*
X-2024089Y-2223834D01*
X-2070605Y-2273403D01*
X-2092860Y-2295463D01*
X-2094204Y-2296286D01*
X-2112596Y-2283619D01*
X-2161251Y-2246903D01*
X-2237269Y-2188404D01*
X-2337750Y-2110386D01*
X-2459794Y-2015112D01*
X-2600501Y-1904847D01*
X-2756970Y-1781854D01*
X-2926303Y-1648399D01*
X-3105597Y-1506744D01*
X-3111163Y-1502340D01*
X-3290740Y-1360110D01*
X-3460281Y-1225498D01*
X-3616893Y-1100818D01*
X-3757686Y-988391D01*
X-3879767Y-890534D01*
X-3980247Y-809564D01*
X-4056234Y-747800D01*
X-4104836Y-707557D01*
X-4123162Y-691155D01*
X-4123208Y-691071D01*
X-4111105Y-672878D01*
X-4074374Y-627388D01*
X-4016696Y-558779D01*
X-3941753Y-471226D01*
X-3853229Y-368906D01*
X-3754805Y-255994D01*
X-3650165Y-136667D01*
X-3542990Y-15101D01*
X-3436965Y104526D01*
X-3335771Y218040D01*
X-3243091Y321264D01*
X-3162608Y410021D01*
X-3098003Y480135D01*
X-3052960Y527430D01*
X-3031163Y547731D01*
X-3030546Y548058D01*
X-3011519Y536520D01*
G37*
X-3011519Y536520D02*
X-2962275Y500833D01*
X-2885707Y443231D01*
X-2784702Y365948D01*
X-2662150Y271222D01*
X-2520944Y161283D01*
X-2363971Y38369D01*
X-2194123Y-95286D01*
X-2014289Y-237448D01*
X-1998671Y-249824D01*
X-983074Y-1054761D01*
X4360897Y-571553D01*
X4461654Y-1723212D01*
X2379323Y-1904506D01*
X296991Y-2085801D01*
X-159788Y-1721988D01*
X-291512Y-1617268D01*
X-423209Y-1512920D01*
X-548029Y-1414348D01*
X-659118Y-1326954D01*
X-749624Y-1256145D01*
X-803787Y-1214158D01*
X-991006Y-1070140D01*
X-1536328Y-1682909D01*
X-1657547Y-1818784D01*
X-1770040Y-1944230D01*
X-1870699Y-2055831D01*
X-1956417Y-2150171D01*
X-2024089Y-2223834D01*
X-2070605Y-2273403D01*
X-2092860Y-2295463D01*
X-2094204Y-2296286D01*
X-2112596Y-2283619D01*
X-2161251Y-2246903D01*
X-2237269Y-2188404D01*
X-2337750Y-2110386D01*
X-2459794Y-2015112D01*
X-2600501Y-1904847D01*
X-2756970Y-1781854D01*
X-2926303Y-1648399D01*
X-3105597Y-1506744D01*
X-3111163Y-1502340D01*
X-3290740Y-1360110D01*
X-3460281Y-1225498D01*
X-3616893Y-1100818D01*
X-3757686Y-988391D01*
X-3879767Y-890534D01*
X-3980247Y-809564D01*
X-4056234Y-747800D01*
X-4104836Y-707557D01*
X-4123162Y-691155D01*
X-4123208Y-691071D01*
X-4111105Y-672878D01*
X-4074374Y-627388D01*
X-4016696Y-558779D01*
X-3941753Y-471226D01*
X-3853229Y-368906D01*
X-3754805Y-255994D01*
X-3650165Y-136667D01*
X-3542990Y-15101D01*
X-3436965Y104526D01*
X-3335771Y218040D01*
X-3243091Y321264D01*
X-3162608Y410021D01*
X-3098003Y480135D01*
X-3052960Y527430D01*
X-3031163Y547731D01*
X-3030546Y548058D01*
X-3011519Y536520D01*
G36*
X5293218Y-3456500D02*
G01*
X2625824Y-3689866D01*
X2241504Y-3723336D01*
X1881282Y-3754401D01*
X1546764Y-3782930D01*
X1239559Y-3808795D01*
X961272Y-3831868D01*
X713510Y-3852018D01*
X497882Y-3869119D01*
X315993Y-3883040D01*
X169451Y-3893655D01*
X59863Y-3900831D01*
X-11163Y-3904442D01*
X-42023Y-3904360D01*
X-43272Y-3903781D01*
X-30027Y-3884173D01*
X8465Y-3836590D01*
X69166Y-3764559D01*
X149043Y-3671606D01*
X245060Y-3561257D01*
X354183Y-3437039D01*
X473376Y-3302477D01*
X500599Y-3271892D01*
X1046171Y-2659454D01*
X5191754Y-2296763D01*
X5293218Y-3456500D01*
G37*
X5293218Y-3456500D02*
X2625824Y-3689866D01*
X2241504Y-3723336D01*
X1881282Y-3754401D01*
X1546764Y-3782930D01*
X1239559Y-3808795D01*
X961272Y-3831868D01*
X713510Y-3852018D01*
X497882Y-3869119D01*
X315993Y-3883040D01*
X169451Y-3893655D01*
X59863Y-3900831D01*
X-11163Y-3904442D01*
X-42023Y-3904360D01*
X-43272Y-3903781D01*
X-30027Y-3884173D01*
X8465Y-3836590D01*
X69166Y-3764559D01*
X149043Y-3671606D01*
X245060Y-3561257D01*
X354183Y-3437039D01*
X473376Y-3302477D01*
X500599Y-3271892D01*
X1046171Y-2659454D01*
X5191754Y-2296763D01*
X5293218Y-3456500D01*
G36*
X3940429Y4437741D02*
G01*
X3990370Y4400395D01*
X4066204Y4342314D01*
X4164439Y4266257D01*
X4281585Y4174985D01*
X4414154Y4071254D01*
X4558653Y3957825D01*
X4711594Y3837455D01*
X4869486Y3712906D01*
X5028840Y3586933D01*
X5186164Y3462297D01*
X5337970Y3341757D01*
X5480766Y3228073D01*
X5611064Y3124001D01*
X5725372Y3032302D01*
X5820200Y2955734D01*
X5892059Y2897057D01*
X5937459Y2859029D01*
X5952915Y2844477D01*
X5939703Y2824859D01*
X5901636Y2778183D01*
X5842444Y2708616D01*
X5765860Y2620324D01*
X5675615Y2517471D01*
X5575440Y2404224D01*
X5469067Y2284748D01*
X5360228Y2163207D01*
X5252655Y2043770D01*
X5150080Y1930602D01*
X5056233Y1827865D01*
X4974847Y1739729D01*
X4909654Y1670356D01*
X4864384Y1623915D01*
X4842771Y1604568D01*
X4841884Y1604260D01*
X4820485Y1616709D01*
X4769921Y1652650D01*
X4694075Y1709124D01*
X4596836Y1783173D01*
X4482091Y1871841D01*
X4353724Y1972168D01*
X4225082Y2073695D01*
X4063605Y2201833D01*
X3891451Y2338650D01*
X3716767Y2477654D01*
X3547705Y2612356D01*
X3392413Y2736266D01*
X3259040Y2842892D01*
X3215360Y2877881D01*
X2799249Y3211444D01*
X129781Y2974898D01*
X-202268Y2945562D01*
X-522606Y2917433D01*
X-828711Y2890723D01*
X-1118059Y2865645D01*
X-1388126Y2842413D01*
X-1636390Y2821239D01*
X-1860324Y2802337D01*
X-2057407Y2785918D01*
X-2225115Y2772196D01*
X-2360924Y2761384D01*
X-2462311Y2753694D01*
X-2526750Y2749341D01*
X-2551719Y2748537D01*
X-2551921Y2748616D01*
X-2556386Y2771647D01*
X-2562728Y2831324D01*
X-2570496Y2922020D01*
X-2579240Y3038113D01*
X-2588512Y3173977D01*
X-2597642Y3320327D01*
X-2631129Y3881772D01*
X1520537Y4244996D01*
X2118610Y3771445D01*
X2258266Y3660970D01*
X2389054Y3557708D01*
X2506866Y3464887D01*
X2607594Y3385736D01*
X2687128Y3323484D01*
X2741363Y3281358D01*
X2765316Y3263202D01*
X2782520Y3252200D01*
X2799252Y3248537D01*
X2819741Y3255880D01*
X2848216Y3277900D01*
X2888907Y3318264D01*
X2946043Y3380642D01*
X3023851Y3468703D01*
X3092161Y3546767D01*
X3281726Y3763051D01*
X3444859Y3947938D01*
X3582430Y4102383D01*
X3695316Y4227338D01*
X3784385Y4323758D01*
X3850512Y4392597D01*
X3894569Y4434807D01*
X3917427Y4451343D01*
X3919870Y4451594D01*
X3940429Y4437741D01*
G37*
X3940429Y4437741D02*
X3990370Y4400395D01*
X4066204Y4342314D01*
X4164439Y4266257D01*
X4281585Y4174985D01*
X4414154Y4071254D01*
X4558653Y3957825D01*
X4711594Y3837455D01*
X4869486Y3712906D01*
X5028840Y3586933D01*
X5186164Y3462297D01*
X5337970Y3341757D01*
X5480766Y3228073D01*
X5611064Y3124001D01*
X5725372Y3032302D01*
X5820200Y2955734D01*
X5892059Y2897057D01*
X5937459Y2859029D01*
X5952915Y2844477D01*
X5939703Y2824859D01*
X5901636Y2778183D01*
X5842444Y2708616D01*
X5765860Y2620324D01*
X5675615Y2517471D01*
X5575440Y2404224D01*
X5469067Y2284748D01*
X5360228Y2163207D01*
X5252655Y2043770D01*
X5150080Y1930602D01*
X5056233Y1827865D01*
X4974847Y1739729D01*
X4909654Y1670356D01*
X4864384Y1623915D01*
X4842771Y1604568D01*
X4841884Y1604260D01*
X4820485Y1616709D01*
X4769921Y1652650D01*
X4694075Y1709124D01*
X4596836Y1783173D01*
X4482091Y1871841D01*
X4353724Y1972168D01*
X4225082Y2073695D01*
X4063605Y2201833D01*
X3891451Y2338650D01*
X3716767Y2477654D01*
X3547705Y2612356D01*
X3392413Y2736266D01*
X3259040Y2842892D01*
X3215360Y2877881D01*
X2799249Y3211444D01*
X129781Y2974898D01*
X-202268Y2945562D01*
X-522606Y2917433D01*
X-828711Y2890723D01*
X-1118059Y2865645D01*
X-1388126Y2842413D01*
X-1636390Y2821239D01*
X-1860324Y2802337D01*
X-2057407Y2785918D01*
X-2225115Y2772196D01*
X-2360924Y2761384D01*
X-2462311Y2753694D01*
X-2526750Y2749341D01*
X-2551719Y2748537D01*
X-2551921Y2748616D01*
X-2556386Y2771647D01*
X-2562728Y2831324D01*
X-2570496Y2922020D01*
X-2579240Y3038113D01*
X-2588512Y3173977D01*
X-2597642Y3320327D01*
X-2631129Y3881772D01*
X1520537Y4244996D01*
X2118610Y3771445D01*
X2258266Y3660970D01*
X2389054Y3557708D01*
X2506866Y3464887D01*
X2607594Y3385736D01*
X2687128Y3323484D01*
X2741363Y3281358D01*
X2765316Y3263202D01*
X2782520Y3252200D01*
X2799252Y3248537D01*
X2819741Y3255880D01*
X2848216Y3277900D01*
X2888907Y3318264D01*
X2946043Y3380642D01*
X3023851Y3468703D01*
X3092161Y3546767D01*
X3281726Y3763051D01*
X3444859Y3947938D01*
X3582430Y4102383D01*
X3695316Y4227338D01*
X3784385Y4323758D01*
X3850512Y4392597D01*
X3894569Y4434807D01*
X3917427Y4451343D01*
X3919870Y4451594D01*
X3940429Y4437741D01*
D12*
%TO.C,D1*%
X114520000Y27620000D02*
X113680000Y27620000D01*
X113680000Y27620000D02*
X113680000Y26410000D01*
X113680000Y26410000D02*
X114520000Y26410000D01*
X114520000Y26410000D02*
X114520000Y27620000D01*
G36*
X114520000Y27620000D02*
G01*
X113680000Y27620000D01*
X113680000Y26410000D01*
X114520000Y26410000D01*
X114520000Y27620000D01*
G37*
%TO.C,GR4*%
G36*
X10639499Y46333424D02*
G01*
X10694255Y46311018D01*
X10727619Y46292359D01*
X10783620Y46254767D01*
X10830097Y46210094D01*
X10872182Y46150659D01*
X10915003Y46068781D01*
X10963690Y45956780D01*
X10982216Y45911158D01*
X11068305Y45728320D01*
X11168334Y45580013D01*
X11287808Y45461655D01*
X11432230Y45368660D01*
X11607106Y45296446D01*
X11776688Y45249616D01*
X11840539Y45239620D01*
X11938756Y45230169D01*
X12063374Y45221521D01*
X12206426Y45213935D01*
X12359946Y45207671D01*
X12515969Y45202987D01*
X12666528Y45200141D01*
X12803657Y45199394D01*
X12919391Y45201003D01*
X13005762Y45205229D01*
X13037112Y45208647D01*
X13131259Y45237818D01*
X13246314Y45300698D01*
X13287005Y45327497D01*
X13381978Y45388402D01*
X13450781Y45421809D01*
X13498869Y45428365D01*
X13531693Y45408717D01*
X13554709Y45363512D01*
X13556087Y45359425D01*
X13566939Y45261857D01*
X13539179Y45151396D01*
X13472626Y45027828D01*
X13367100Y44890939D01*
X13222419Y44740514D01*
X13038402Y44576339D01*
X12814867Y44398199D01*
X12625209Y44258197D01*
X12521398Y44184630D01*
X12436809Y44129177D01*
X12362300Y44088890D01*
X12288729Y44060822D01*
X12206953Y44042023D01*
X12107832Y44029548D01*
X11982224Y44020448D01*
X11868633Y44014246D01*
X11732687Y44006261D01*
X11598580Y43996772D01*
X11477326Y43986670D01*
X11379938Y43976849D01*
X11333341Y43970844D01*
X11054135Y43916725D01*
X10812679Y43844018D01*
X10609058Y43752764D01*
X10443359Y43643003D01*
X10315667Y43514776D01*
X10285993Y43474485D01*
X10237063Y43396472D01*
X10199551Y43318552D01*
X10170632Y43231288D01*
X10147482Y43125239D01*
X10127278Y42990968D01*
X10117537Y42911500D01*
X10094366Y42742008D01*
X10066037Y42609125D01*
X10028004Y42507131D01*
X9975721Y42430306D01*
X9904642Y42372929D01*
X9810220Y42329280D01*
X9687909Y42293640D01*
X9612929Y42276620D01*
X9385876Y42211216D01*
X9189800Y42118263D01*
X9022680Y41996735D01*
X8976175Y41952836D01*
X8921691Y41893934D01*
X8848816Y41809012D01*
X8764218Y41706168D01*
X8674566Y41593503D01*
X8590635Y41484547D01*
X8429197Y41278066D01*
X8282494Y41105911D01*
X8146467Y40964473D01*
X8017055Y40850146D01*
X7890200Y40759321D01*
X7761842Y40688393D01*
X7636628Y40636793D01*
X7489917Y40600824D01*
X7326553Y40586524D01*
X7166870Y40594975D01*
X7095088Y40607994D01*
X6967468Y40652264D01*
X6860324Y40717468D01*
X6780417Y40798040D01*
X6734509Y40888416D01*
X6729707Y40908725D01*
X6730377Y40985046D01*
X6752862Y41081170D01*
X6793060Y41183429D01*
X6835419Y41260792D01*
X6861802Y41299459D01*
X6909223Y41366035D01*
X6973342Y41454545D01*
X7049819Y41559015D01*
X7134314Y41673472D01*
X7177252Y41731290D01*
X7276526Y41864802D01*
X7381653Y42006373D01*
X7485157Y42145920D01*
X7579561Y42273363D01*
X7657389Y42378621D01*
X7668205Y42393274D01*
X7778345Y42536605D01*
X7876665Y42649716D01*
X7971096Y42739831D01*
X8069567Y42814171D01*
X8180010Y42879961D01*
X8232144Y42906916D01*
X8483225Y43048114D01*
X8694166Y43200838D01*
X8864797Y43364895D01*
X8994951Y43540091D01*
X9084459Y43726234D01*
X9133151Y43923129D01*
X9135739Y43943152D01*
X9154116Y44091916D01*
X9170481Y44207243D01*
X9186787Y44297840D01*
X9204985Y44372419D01*
X9227026Y44439689D01*
X9254862Y44508359D01*
X9270058Y44542611D01*
X9308864Y44632770D01*
X9330795Y44697704D01*
X9338822Y44749586D01*
X9335914Y44800586D01*
X9334843Y44808083D01*
X9321111Y44899656D01*
X9433285Y44911112D01*
X9491153Y44915518D01*
X9581989Y44920626D01*
X9696444Y44925992D01*
X9825167Y44931171D01*
X9937042Y44935037D01*
X10067592Y44940194D01*
X10188892Y44946830D01*
X10292424Y44954339D01*
X10369669Y44962113D01*
X10409200Y44968708D01*
X10481072Y44999913D01*
X10554996Y45051291D01*
X10618533Y45112134D01*
X10659244Y45171735D01*
X10665573Y45189401D01*
X10663006Y45261422D01*
X10622938Y45333453D01*
X10549993Y45401308D01*
X10448794Y45460801D01*
X10323965Y45507745D01*
X10309416Y45511847D01*
X10247989Y45523933D01*
X10155757Y45536273D01*
X10044216Y45547573D01*
X9924866Y45556536D01*
X9899233Y45558037D01*
X9790125Y45564985D01*
X9696443Y45572667D01*
X9626156Y45580297D01*
X9587236Y45587091D01*
X9582379Y45589238D01*
X9588049Y45609774D01*
X9619754Y45643585D01*
X9634625Y45655908D01*
X9675827Y45694703D01*
X9733516Y45757509D01*
X9798851Y45834416D01*
X9842352Y45888710D01*
X9985055Y46054614D01*
X10123856Y46180680D01*
X10261622Y46268859D01*
X10401218Y46321104D01*
X10501297Y46337317D01*
X10581609Y46340914D01*
X10639499Y46333424D01*
G37*
D11*
X10639499Y46333424D02*
X10694255Y46311018D01*
X10727619Y46292359D01*
X10783620Y46254767D01*
X10830097Y46210094D01*
X10872182Y46150659D01*
X10915003Y46068781D01*
X10963690Y45956780D01*
X10982216Y45911158D01*
X11068305Y45728320D01*
X11168334Y45580013D01*
X11287808Y45461655D01*
X11432230Y45368660D01*
X11607106Y45296446D01*
X11776688Y45249616D01*
X11840539Y45239620D01*
X11938756Y45230169D01*
X12063374Y45221521D01*
X12206426Y45213935D01*
X12359946Y45207671D01*
X12515969Y45202987D01*
X12666528Y45200141D01*
X12803657Y45199394D01*
X12919391Y45201003D01*
X13005762Y45205229D01*
X13037112Y45208647D01*
X13131259Y45237818D01*
X13246314Y45300698D01*
X13287005Y45327497D01*
X13381978Y45388402D01*
X13450781Y45421809D01*
X13498869Y45428365D01*
X13531693Y45408717D01*
X13554709Y45363512D01*
X13556087Y45359425D01*
X13566939Y45261857D01*
X13539179Y45151396D01*
X13472626Y45027828D01*
X13367100Y44890939D01*
X13222419Y44740514D01*
X13038402Y44576339D01*
X12814867Y44398199D01*
X12625209Y44258197D01*
X12521398Y44184630D01*
X12436809Y44129177D01*
X12362300Y44088890D01*
X12288729Y44060822D01*
X12206953Y44042023D01*
X12107832Y44029548D01*
X11982224Y44020448D01*
X11868633Y44014246D01*
X11732687Y44006261D01*
X11598580Y43996772D01*
X11477326Y43986670D01*
X11379938Y43976849D01*
X11333341Y43970844D01*
X11054135Y43916725D01*
X10812679Y43844018D01*
X10609058Y43752764D01*
X10443359Y43643003D01*
X10315667Y43514776D01*
X10285993Y43474485D01*
X10237063Y43396472D01*
X10199551Y43318552D01*
X10170632Y43231288D01*
X10147482Y43125239D01*
X10127278Y42990968D01*
X10117537Y42911500D01*
X10094366Y42742008D01*
X10066037Y42609125D01*
X10028004Y42507131D01*
X9975721Y42430306D01*
X9904642Y42372929D01*
X9810220Y42329280D01*
X9687909Y42293640D01*
X9612929Y42276620D01*
X9385876Y42211216D01*
X9189800Y42118263D01*
X9022680Y41996735D01*
X8976175Y41952836D01*
X8921691Y41893934D01*
X8848816Y41809012D01*
X8764218Y41706168D01*
X8674566Y41593503D01*
X8590635Y41484547D01*
X8429197Y41278066D01*
X8282494Y41105911D01*
X8146467Y40964473D01*
X8017055Y40850146D01*
X7890200Y40759321D01*
X7761842Y40688393D01*
X7636628Y40636793D01*
X7489917Y40600824D01*
X7326553Y40586524D01*
X7166870Y40594975D01*
X7095088Y40607994D01*
X6967468Y40652264D01*
X6860324Y40717468D01*
X6780417Y40798040D01*
X6734509Y40888416D01*
X6729707Y40908725D01*
X6730377Y40985046D01*
X6752862Y41081170D01*
X6793060Y41183429D01*
X6835419Y41260792D01*
X6861802Y41299459D01*
X6909223Y41366035D01*
X6973342Y41454545D01*
X7049819Y41559015D01*
X7134314Y41673472D01*
X7177252Y41731290D01*
X7276526Y41864802D01*
X7381653Y42006373D01*
X7485157Y42145920D01*
X7579561Y42273363D01*
X7657389Y42378621D01*
X7668205Y42393274D01*
X7778345Y42536605D01*
X7876665Y42649716D01*
X7971096Y42739831D01*
X8069567Y42814171D01*
X8180010Y42879961D01*
X8232144Y42906916D01*
X8483225Y43048114D01*
X8694166Y43200838D01*
X8864797Y43364895D01*
X8994951Y43540091D01*
X9084459Y43726234D01*
X9133151Y43923129D01*
X9135739Y43943152D01*
X9154116Y44091916D01*
X9170481Y44207243D01*
X9186787Y44297840D01*
X9204985Y44372419D01*
X9227026Y44439689D01*
X9254862Y44508359D01*
X9270058Y44542611D01*
X9308864Y44632770D01*
X9330795Y44697704D01*
X9338822Y44749586D01*
X9335914Y44800586D01*
X9334843Y44808083D01*
X9321111Y44899656D01*
X9433285Y44911112D01*
X9491153Y44915518D01*
X9581989Y44920626D01*
X9696444Y44925992D01*
X9825167Y44931171D01*
X9937042Y44935037D01*
X10067592Y44940194D01*
X10188892Y44946830D01*
X10292424Y44954339D01*
X10369669Y44962113D01*
X10409200Y44968708D01*
X10481072Y44999913D01*
X10554996Y45051291D01*
X10618533Y45112134D01*
X10659244Y45171735D01*
X10665573Y45189401D01*
X10663006Y45261422D01*
X10622938Y45333453D01*
X10549993Y45401308D01*
X10448794Y45460801D01*
X10323965Y45507745D01*
X10309416Y45511847D01*
X10247989Y45523933D01*
X10155757Y45536273D01*
X10044216Y45547573D01*
X9924866Y45556536D01*
X9899233Y45558037D01*
X9790125Y45564985D01*
X9696443Y45572667D01*
X9626156Y45580297D01*
X9587236Y45587091D01*
X9582379Y45589238D01*
X9588049Y45609774D01*
X9619754Y45643585D01*
X9634625Y45655908D01*
X9675827Y45694703D01*
X9733516Y45757509D01*
X9798851Y45834416D01*
X9842352Y45888710D01*
X9985055Y46054614D01*
X10123856Y46180680D01*
X10261622Y46268859D01*
X10401218Y46321104D01*
X10501297Y46337317D01*
X10581609Y46340914D01*
X10639499Y46333424D01*
G36*
X15576908Y46467346D02*
G01*
X15615660Y46452360D01*
X15708634Y46395340D01*
X15766587Y46319093D01*
X15792885Y46231062D01*
X15788821Y46143222D01*
X15755424Y46048425D01*
X15699515Y45961741D01*
X15648724Y45912487D01*
X15540091Y45843000D01*
X15411224Y45781763D01*
X15271232Y45731128D01*
X15129220Y45693450D01*
X14994296Y45671083D01*
X14875568Y45666380D01*
X14782142Y45681696D01*
X14771278Y45685701D01*
X14727133Y45717750D01*
X14714122Y45767096D01*
X14732866Y45835674D01*
X14783986Y45925417D01*
X14868101Y46038257D01*
X14894870Y46070918D01*
X15032219Y46225840D01*
X15156246Y46343183D01*
X15269841Y46424476D01*
X15375890Y46471249D01*
X15477283Y46485029D01*
X15576908Y46467346D01*
G37*
X15576908Y46467346D02*
X15615660Y46452360D01*
X15708634Y46395340D01*
X15766587Y46319093D01*
X15792885Y46231062D01*
X15788821Y46143222D01*
X15755424Y46048425D01*
X15699515Y45961741D01*
X15648724Y45912487D01*
X15540091Y45843000D01*
X15411224Y45781763D01*
X15271232Y45731128D01*
X15129220Y45693450D01*
X14994296Y45671083D01*
X14875568Y45666380D01*
X14782142Y45681696D01*
X14771278Y45685701D01*
X14727133Y45717750D01*
X14714122Y45767096D01*
X14732866Y45835674D01*
X14783986Y45925417D01*
X14868101Y46038257D01*
X14894870Y46070918D01*
X15032219Y46225840D01*
X15156246Y46343183D01*
X15269841Y46424476D01*
X15375890Y46471249D01*
X15477283Y46485029D01*
X15576908Y46467346D01*
G36*
X18024419Y34315156D02*
G01*
X18128261Y34283838D01*
X18128542Y34283710D01*
X18250945Y34213289D01*
X18335128Y34128774D01*
X18384226Y34025110D01*
X18401375Y33897242D01*
X18400396Y33845554D01*
X18379441Y33702260D01*
X18329337Y33567575D01*
X18246384Y33433942D01*
X18133844Y33301146D01*
X17997017Y33175800D01*
X17856531Y33088682D01*
X17704846Y33035865D01*
X17588792Y33017278D01*
X17484170Y33002985D01*
X17375104Y32978811D01*
X17255842Y32942699D01*
X17120628Y32892590D01*
X16963712Y32826426D01*
X16779338Y32742150D01*
X16657572Y32684169D01*
X16501251Y32609808D01*
X16377176Y32553085D01*
X16280140Y32511908D01*
X16204934Y32484184D01*
X16146352Y32467823D01*
X16101947Y32460946D01*
X15990709Y32451722D01*
X15990709Y32530450D01*
X16006756Y32617456D01*
X16057163Y32693034D01*
X16145326Y32761626D01*
X16184943Y32784380D01*
X16370402Y32894913D01*
X16528250Y33014027D01*
X16671498Y33151023D01*
X16818283Y33327126D01*
X16933511Y33514257D01*
X17015019Y33696270D01*
X17082701Y33859865D01*
X17147246Y33988117D01*
X17213768Y34087204D01*
X17287381Y34163305D01*
X17373197Y34222597D01*
X17476330Y34271259D01*
X17497839Y34279636D01*
X17618246Y34312454D01*
X17755452Y34329374D01*
X17895496Y34330305D01*
X18024419Y34315156D01*
G37*
X18024419Y34315156D02*
X18128261Y34283838D01*
X18128542Y34283710D01*
X18250945Y34213289D01*
X18335128Y34128774D01*
X18384226Y34025110D01*
X18401375Y33897242D01*
X18400396Y33845554D01*
X18379441Y33702260D01*
X18329337Y33567575D01*
X18246384Y33433942D01*
X18133844Y33301146D01*
X17997017Y33175800D01*
X17856531Y33088682D01*
X17704846Y33035865D01*
X17588792Y33017278D01*
X17484170Y33002985D01*
X17375104Y32978811D01*
X17255842Y32942699D01*
X17120628Y32892590D01*
X16963712Y32826426D01*
X16779338Y32742150D01*
X16657572Y32684169D01*
X16501251Y32609808D01*
X16377176Y32553085D01*
X16280140Y32511908D01*
X16204934Y32484184D01*
X16146352Y32467823D01*
X16101947Y32460946D01*
X15990709Y32451722D01*
X15990709Y32530450D01*
X16006756Y32617456D01*
X16057163Y32693034D01*
X16145326Y32761626D01*
X16184943Y32784380D01*
X16370402Y32894913D01*
X16528250Y33014027D01*
X16671498Y33151023D01*
X16818283Y33327126D01*
X16933511Y33514257D01*
X17015019Y33696270D01*
X17082701Y33859865D01*
X17147246Y33988117D01*
X17213768Y34087204D01*
X17287381Y34163305D01*
X17373197Y34222597D01*
X17476330Y34271259D01*
X17497839Y34279636D01*
X17618246Y34312454D01*
X17755452Y34329374D01*
X17895496Y34330305D01*
X18024419Y34315156D01*
G36*
X7379989Y38661824D02*
G01*
X7401827Y38655673D01*
X7440296Y38642272D01*
X7468803Y38625776D01*
X7489609Y38599785D01*
X7504977Y38557896D01*
X7517168Y38493710D01*
X7528444Y38400824D01*
X7541066Y38272838D01*
X7542528Y38257454D01*
X7570532Y38073716D01*
X7617162Y37925294D01*
X7684058Y37808729D01*
X7772858Y37720562D01*
X7808180Y37696533D01*
X7920964Y37644516D01*
X8030170Y37631504D01*
X8138659Y37658165D01*
X8249290Y37725166D01*
X8357021Y37824707D01*
X8411979Y37880159D01*
X8457500Y37920780D01*
X8484741Y37938762D01*
X8486510Y37939029D01*
X8510360Y37924652D01*
X8554634Y37886503D01*
X8611026Y37831904D01*
X8629448Y37813013D01*
X8705814Y37739471D01*
X8771395Y37691872D01*
X8839314Y37661222D01*
X8860862Y37654356D01*
X8928524Y37636723D01*
X8981496Y37632517D01*
X9040229Y37641877D01*
X9093457Y37655939D01*
X9163986Y37672592D01*
X9220620Y37680363D01*
X9245663Y37678805D01*
X9269304Y37651948D01*
X9287766Y37601343D01*
X9289342Y37593718D01*
X9322327Y37503012D01*
X9378933Y37434988D01*
X9450467Y37399324D01*
X9489706Y37386976D01*
X9508118Y37363991D01*
X9513478Y37317030D01*
X9513709Y37290814D01*
X9532767Y37176127D01*
X9585159Y37077980D01*
X9663713Y37000615D01*
X9761256Y36948271D01*
X9870616Y36925189D01*
X9984620Y36935610D01*
X10064042Y36965464D01*
X10125130Y36991942D01*
X10177010Y37006699D01*
X10188550Y37007797D01*
X10214027Y37001520D01*
X10244553Y36980611D01*
X10282464Y36941956D01*
X10330094Y36882440D01*
X10389777Y36798949D01*
X10463847Y36688367D01*
X10554640Y36547579D01*
X10664490Y36373472D01*
X10667071Y36369351D01*
X10837244Y36102520D01*
X10992148Y35871452D01*
X11134814Y35673735D01*
X11268270Y35506959D01*
X11395545Y35368709D01*
X11519668Y35256576D01*
X11643669Y35168147D01*
X11770575Y35101011D01*
X11903416Y35052755D01*
X12045221Y35020967D01*
X12199019Y35003236D01*
X12367838Y34997151D01*
X12390470Y34997089D01*
X12520148Y34999512D01*
X12653441Y35007160D01*
X12794982Y35020787D01*
X12949403Y35041143D01*
X13121336Y35068980D01*
X13315414Y35105051D01*
X13536270Y35150107D01*
X13788536Y35204899D01*
X14076843Y35270180D01*
X14085709Y35272219D01*
X14241383Y35307425D01*
X14392970Y35340590D01*
X14532643Y35370084D01*
X14652577Y35394281D01*
X14744947Y35411553D01*
X14791032Y35418929D01*
X15002410Y35438180D01*
X15214594Y35439916D01*
X15417905Y35424936D01*
X15602664Y35394037D01*
X15759195Y35348019D01*
X15786982Y35336764D01*
X15907138Y35269109D01*
X16002166Y35182758D01*
X16066740Y35084241D01*
X16095537Y34980086D01*
X16096542Y34957160D01*
X16080941Y34885381D01*
X16035562Y34788614D01*
X15962539Y34669684D01*
X15864005Y34531418D01*
X15742096Y34376641D01*
X15598945Y34208181D01*
X15436686Y34028864D01*
X15257455Y33841516D01*
X15242941Y33826767D01*
X14978117Y33571982D01*
X14720003Y33353601D01*
X14461922Y33167864D01*
X14197199Y33011015D01*
X13919158Y32879294D01*
X13621121Y32768944D01*
X13296413Y32676208D01*
X13128904Y32636799D01*
X12836424Y32566113D01*
X12585404Y32492399D01*
X12375053Y32415217D01*
X12204576Y32334130D01*
X12073181Y32248697D01*
X11980073Y32158480D01*
X11924462Y32063039D01*
X11905552Y31961936D01*
X11905542Y31959547D01*
X11918185Y31875161D01*
X11958184Y31794848D01*
X12028647Y31715410D01*
X12132680Y31633648D01*
X12273392Y31546364D01*
X12345530Y31506561D01*
X12507844Y31409739D01*
X12628066Y31316377D01*
X12706341Y31227037D01*
X12742811Y31142279D01*
X12737618Y31062665D01*
X12690907Y30988756D01*
X12602820Y30921114D01*
X12473499Y30860301D01*
X12303089Y30806876D01*
X12158938Y30774078D01*
X12074159Y30761738D01*
X11953081Y30750771D01*
X11801726Y30741579D01*
X11626115Y30734562D01*
X11524542Y30731846D01*
X11367310Y30728589D01*
X11243053Y30727135D01*
X11142429Y30728063D01*
X11056097Y30731950D01*
X10974717Y30739375D01*
X10888948Y30750917D01*
X10789448Y30767154D01*
X10699042Y30782964D01*
X10447667Y30830212D01*
X10226330Y30878277D01*
X10022797Y30930215D01*
X9824834Y30989082D01*
X9675197Y31038742D01*
X9205998Y31221615D01*
X8738666Y31445740D01*
X8275140Y31710038D01*
X7817359Y32013428D01*
X7493072Y32254946D01*
X7278625Y32429078D01*
X7064258Y32616126D01*
X6853572Y32812126D01*
X6650168Y33013117D01*
X6457646Y33215136D01*
X6279607Y33414222D01*
X6119653Y33606412D01*
X5981382Y33787744D01*
X5868397Y33954256D01*
X5784298Y34101986D01*
X5753605Y34169026D01*
X5718687Y34265437D01*
X5706380Y34334518D01*
X5716170Y34384399D01*
X5738077Y34414475D01*
X5762251Y34431660D01*
X5794040Y34438160D01*
X5838364Y34432412D01*
X5900139Y34412848D01*
X5984284Y34377904D01*
X6095717Y34326013D01*
X6239355Y34255610D01*
X6243459Y34253570D01*
X6398759Y34178499D01*
X6526546Y34122779D01*
X6635695Y34084126D01*
X6735080Y34060253D01*
X6833574Y34048876D01*
X6940052Y34047711D01*
X7026626Y34051911D01*
X7211834Y34072439D01*
X7358178Y34107997D01*
X7466677Y34159425D01*
X7538351Y34227565D01*
X7574221Y34313260D01*
X7575306Y34417349D01*
X7559064Y34491124D01*
X7525283Y34586212D01*
X7476780Y34686789D01*
X7411099Y34796179D01*
X7325784Y34917702D01*
X7218379Y35054681D01*
X7086428Y35210438D01*
X6927477Y35388295D01*
X6769734Y35558871D01*
X6622472Y35717425D01*
X6502219Y35849986D01*
X6405980Y35960425D01*
X6330759Y36052614D01*
X6273561Y36130423D01*
X6231389Y36197723D01*
X6201248Y36258386D01*
X6180143Y36316281D01*
X6177987Y36323532D01*
X6159940Y36408014D01*
X6156123Y36496526D01*
X6167374Y36598432D01*
X6194532Y36723101D01*
X6223154Y36827880D01*
X6265790Y36957367D01*
X6323478Y37105165D01*
X6393692Y37266784D01*
X6473906Y37437733D01*
X6561596Y37613523D01*
X6654235Y37789662D01*
X6749298Y37961662D01*
X6844259Y38125030D01*
X6936592Y38275278D01*
X7023771Y38407914D01*
X7103272Y38518449D01*
X7172568Y38602392D01*
X7229134Y38655253D01*
X7260100Y38671433D01*
X7312146Y38673150D01*
X7379989Y38661824D01*
G37*
X7379989Y38661824D02*
X7401827Y38655673D01*
X7440296Y38642272D01*
X7468803Y38625776D01*
X7489609Y38599785D01*
X7504977Y38557896D01*
X7517168Y38493710D01*
X7528444Y38400824D01*
X7541066Y38272838D01*
X7542528Y38257454D01*
X7570532Y38073716D01*
X7617162Y37925294D01*
X7684058Y37808729D01*
X7772858Y37720562D01*
X7808180Y37696533D01*
X7920964Y37644516D01*
X8030170Y37631504D01*
X8138659Y37658165D01*
X8249290Y37725166D01*
X8357021Y37824707D01*
X8411979Y37880159D01*
X8457500Y37920780D01*
X8484741Y37938762D01*
X8486510Y37939029D01*
X8510360Y37924652D01*
X8554634Y37886503D01*
X8611026Y37831904D01*
X8629448Y37813013D01*
X8705814Y37739471D01*
X8771395Y37691872D01*
X8839314Y37661222D01*
X8860862Y37654356D01*
X8928524Y37636723D01*
X8981496Y37632517D01*
X9040229Y37641877D01*
X9093457Y37655939D01*
X9163986Y37672592D01*
X9220620Y37680363D01*
X9245663Y37678805D01*
X9269304Y37651948D01*
X9287766Y37601343D01*
X9289342Y37593718D01*
X9322327Y37503012D01*
X9378933Y37434988D01*
X9450467Y37399324D01*
X9489706Y37386976D01*
X9508118Y37363991D01*
X9513478Y37317030D01*
X9513709Y37290814D01*
X9532767Y37176127D01*
X9585159Y37077980D01*
X9663713Y37000615D01*
X9761256Y36948271D01*
X9870616Y36925189D01*
X9984620Y36935610D01*
X10064042Y36965464D01*
X10125130Y36991942D01*
X10177010Y37006699D01*
X10188550Y37007797D01*
X10214027Y37001520D01*
X10244553Y36980611D01*
X10282464Y36941956D01*
X10330094Y36882440D01*
X10389777Y36798949D01*
X10463847Y36688367D01*
X10554640Y36547579D01*
X10664490Y36373472D01*
X10667071Y36369351D01*
X10837244Y36102520D01*
X10992148Y35871452D01*
X11134814Y35673735D01*
X11268270Y35506959D01*
X11395545Y35368709D01*
X11519668Y35256576D01*
X11643669Y35168147D01*
X11770575Y35101011D01*
X11903416Y35052755D01*
X12045221Y35020967D01*
X12199019Y35003236D01*
X12367838Y34997151D01*
X12390470Y34997089D01*
X12520148Y34999512D01*
X12653441Y35007160D01*
X12794982Y35020787D01*
X12949403Y35041143D01*
X13121336Y35068980D01*
X13315414Y35105051D01*
X13536270Y35150107D01*
X13788536Y35204899D01*
X14076843Y35270180D01*
X14085709Y35272219D01*
X14241383Y35307425D01*
X14392970Y35340590D01*
X14532643Y35370084D01*
X14652577Y35394281D01*
X14744947Y35411553D01*
X14791032Y35418929D01*
X15002410Y35438180D01*
X15214594Y35439916D01*
X15417905Y35424936D01*
X15602664Y35394037D01*
X15759195Y35348019D01*
X15786982Y35336764D01*
X15907138Y35269109D01*
X16002166Y35182758D01*
X16066740Y35084241D01*
X16095537Y34980086D01*
X16096542Y34957160D01*
X16080941Y34885381D01*
X16035562Y34788614D01*
X15962539Y34669684D01*
X15864005Y34531418D01*
X15742096Y34376641D01*
X15598945Y34208181D01*
X15436686Y34028864D01*
X15257455Y33841516D01*
X15242941Y33826767D01*
X14978117Y33571982D01*
X14720003Y33353601D01*
X14461922Y33167864D01*
X14197199Y33011015D01*
X13919158Y32879294D01*
X13621121Y32768944D01*
X13296413Y32676208D01*
X13128904Y32636799D01*
X12836424Y32566113D01*
X12585404Y32492399D01*
X12375053Y32415217D01*
X12204576Y32334130D01*
X12073181Y32248697D01*
X11980073Y32158480D01*
X11924462Y32063039D01*
X11905552Y31961936D01*
X11905542Y31959547D01*
X11918185Y31875161D01*
X11958184Y31794848D01*
X12028647Y31715410D01*
X12132680Y31633648D01*
X12273392Y31546364D01*
X12345530Y31506561D01*
X12507844Y31409739D01*
X12628066Y31316377D01*
X12706341Y31227037D01*
X12742811Y31142279D01*
X12737618Y31062665D01*
X12690907Y30988756D01*
X12602820Y30921114D01*
X12473499Y30860301D01*
X12303089Y30806876D01*
X12158938Y30774078D01*
X12074159Y30761738D01*
X11953081Y30750771D01*
X11801726Y30741579D01*
X11626115Y30734562D01*
X11524542Y30731846D01*
X11367310Y30728589D01*
X11243053Y30727135D01*
X11142429Y30728063D01*
X11056097Y30731950D01*
X10974717Y30739375D01*
X10888948Y30750917D01*
X10789448Y30767154D01*
X10699042Y30782964D01*
X10447667Y30830212D01*
X10226330Y30878277D01*
X10022797Y30930215D01*
X9824834Y30989082D01*
X9675197Y31038742D01*
X9205998Y31221615D01*
X8738666Y31445740D01*
X8275140Y31710038D01*
X7817359Y32013428D01*
X7493072Y32254946D01*
X7278625Y32429078D01*
X7064258Y32616126D01*
X6853572Y32812126D01*
X6650168Y33013117D01*
X6457646Y33215136D01*
X6279607Y33414222D01*
X6119653Y33606412D01*
X5981382Y33787744D01*
X5868397Y33954256D01*
X5784298Y34101986D01*
X5753605Y34169026D01*
X5718687Y34265437D01*
X5706380Y34334518D01*
X5716170Y34384399D01*
X5738077Y34414475D01*
X5762251Y34431660D01*
X5794040Y34438160D01*
X5838364Y34432412D01*
X5900139Y34412848D01*
X5984284Y34377904D01*
X6095717Y34326013D01*
X6239355Y34255610D01*
X6243459Y34253570D01*
X6398759Y34178499D01*
X6526546Y34122779D01*
X6635695Y34084126D01*
X6735080Y34060253D01*
X6833574Y34048876D01*
X6940052Y34047711D01*
X7026626Y34051911D01*
X7211834Y34072439D01*
X7358178Y34107997D01*
X7466677Y34159425D01*
X7538351Y34227565D01*
X7574221Y34313260D01*
X7575306Y34417349D01*
X7559064Y34491124D01*
X7525283Y34586212D01*
X7476780Y34686789D01*
X7411099Y34796179D01*
X7325784Y34917702D01*
X7218379Y35054681D01*
X7086428Y35210438D01*
X6927477Y35388295D01*
X6769734Y35558871D01*
X6622472Y35717425D01*
X6502219Y35849986D01*
X6405980Y35960425D01*
X6330759Y36052614D01*
X6273561Y36130423D01*
X6231389Y36197723D01*
X6201248Y36258386D01*
X6180143Y36316281D01*
X6177987Y36323532D01*
X6159940Y36408014D01*
X6156123Y36496526D01*
X6167374Y36598432D01*
X6194532Y36723101D01*
X6223154Y36827880D01*
X6265790Y36957367D01*
X6323478Y37105165D01*
X6393692Y37266784D01*
X6473906Y37437733D01*
X6561596Y37613523D01*
X6654235Y37789662D01*
X6749298Y37961662D01*
X6844259Y38125030D01*
X6936592Y38275278D01*
X7023771Y38407914D01*
X7103272Y38518449D01*
X7172568Y38602392D01*
X7229134Y38655253D01*
X7260100Y38671433D01*
X7312146Y38673150D01*
X7379989Y38661824D01*
G36*
X13663058Y47788544D02*
G01*
X13748115Y47727904D01*
X13752145Y47723760D01*
X13810300Y47644325D01*
X13865141Y47535805D01*
X13910859Y47411377D01*
X13938562Y47301100D01*
X13952985Y47143114D01*
X13931443Y47004205D01*
X13873486Y46883980D01*
X13778664Y46782048D01*
X13646525Y46698017D01*
X13476619Y46631496D01*
X13268495Y46582093D01*
X13080292Y46555295D01*
X12923126Y46540447D01*
X12763683Y46529519D01*
X12609125Y46522630D01*
X12466613Y46519897D01*
X12343311Y46521438D01*
X12246380Y46527372D01*
X12182983Y46537817D01*
X12175217Y46540360D01*
X12101567Y46572371D01*
X12049626Y46609219D01*
X12014450Y46659301D01*
X11991097Y46731017D01*
X11974626Y46832765D01*
X11967933Y46892602D01*
X11959293Y47062987D01*
X11971745Y47200580D01*
X12005036Y47303808D01*
X12042638Y47356847D01*
X12112037Y47397470D01*
X12217239Y47416878D01*
X12357375Y47415008D01*
X12527832Y47392459D01*
X12620928Y47377529D01*
X12692469Y47372667D01*
X12752736Y47381123D01*
X12812008Y47406149D01*
X12880566Y47450995D01*
X12968690Y47518913D01*
X12995626Y47540392D01*
X13164455Y47664277D01*
X13314696Y47750812D01*
X13447266Y47800220D01*
X13563081Y47812724D01*
X13663058Y47788544D01*
G37*
X13663058Y47788544D02*
X13748115Y47727904D01*
X13752145Y47723760D01*
X13810300Y47644325D01*
X13865141Y47535805D01*
X13910859Y47411377D01*
X13938562Y47301100D01*
X13952985Y47143114D01*
X13931443Y47004205D01*
X13873486Y46883980D01*
X13778664Y46782048D01*
X13646525Y46698017D01*
X13476619Y46631496D01*
X13268495Y46582093D01*
X13080292Y46555295D01*
X12923126Y46540447D01*
X12763683Y46529519D01*
X12609125Y46522630D01*
X12466613Y46519897D01*
X12343311Y46521438D01*
X12246380Y46527372D01*
X12182983Y46537817D01*
X12175217Y46540360D01*
X12101567Y46572371D01*
X12049626Y46609219D01*
X12014450Y46659301D01*
X11991097Y46731017D01*
X11974626Y46832765D01*
X11967933Y46892602D01*
X11959293Y47062987D01*
X11971745Y47200580D01*
X12005036Y47303808D01*
X12042638Y47356847D01*
X12112037Y47397470D01*
X12217239Y47416878D01*
X12357375Y47415008D01*
X12527832Y47392459D01*
X12620928Y47377529D01*
X12692469Y47372667D01*
X12752736Y47381123D01*
X12812008Y47406149D01*
X12880566Y47450995D01*
X12968690Y47518913D01*
X12995626Y47540392D01*
X13164455Y47664277D01*
X13314696Y47750812D01*
X13447266Y47800220D01*
X13563081Y47812724D01*
X13663058Y47788544D01*
%TO.C,GR6*%
G36*
X50402114Y-1822374D02*
G01*
X50501617Y-1658841D01*
X50602121Y-1474295D01*
X50700362Y-1275375D01*
X50793073Y-1068722D01*
X50876990Y-860975D01*
X50948848Y-658775D01*
X51005381Y-468762D01*
X51009622Y-452421D01*
X51052524Y-295164D01*
X51091516Y-179160D01*
X51128844Y-103781D01*
X51166755Y-68397D01*
X51207498Y-72380D01*
X51253320Y-115099D01*
X51306467Y-195926D01*
X51369188Y-314232D01*
X51385456Y-347193D01*
X51455790Y-483644D01*
X51525750Y-600400D01*
X51600467Y-701910D01*
X51685071Y-792621D01*
X51784692Y-876981D01*
X51904460Y-959437D01*
X52049505Y-1044439D01*
X52224957Y-1136432D01*
X52388899Y-1217200D01*
X52524530Y-1283649D01*
X52626763Y-1336055D01*
X52700874Y-1377584D01*
X52752143Y-1411402D01*
X52785849Y-1440675D01*
X52806861Y-1467897D01*
X52834363Y-1518999D01*
X52848443Y-1556878D01*
X52848920Y-1561289D01*
X52836110Y-1587277D01*
X52801643Y-1636864D01*
X52751579Y-1701650D01*
X52719251Y-1741122D01*
X52518189Y-2006415D01*
X52357242Y-2274440D01*
X52234244Y-2549981D01*
X52147027Y-2837821D01*
X52096945Y-3114337D01*
X52074074Y-3264087D01*
X52049224Y-3372761D01*
X52022001Y-3441585D01*
X51992015Y-3471787D01*
X51982302Y-3473500D01*
X51955350Y-3460941D01*
X51911551Y-3429637D01*
X51897161Y-3417891D01*
X51858855Y-3378706D01*
X51804141Y-3313761D01*
X51740474Y-3232262D01*
X51678578Y-3148016D01*
X51507516Y-2925687D01*
X51334908Y-2736247D01*
X51162601Y-2580800D01*
X50992441Y-2460450D01*
X50826273Y-2376303D01*
X50665944Y-2329462D01*
X50513300Y-2321034D01*
X50370186Y-2352121D01*
X50357076Y-2357201D01*
X50266692Y-2379442D01*
X50194018Y-2364439D01*
X50135042Y-2311281D01*
X50131219Y-2305959D01*
X50105398Y-2258140D01*
X50102872Y-2213411D01*
X50126571Y-2163574D01*
X50179425Y-2100429D01*
X50219174Y-2059841D01*
X50225735Y-2052241D01*
X50571672Y-2052241D01*
X50598219Y-2066789D01*
X50651347Y-2081023D01*
X50679345Y-2085966D01*
X50899542Y-2139473D01*
X51116228Y-2231530D01*
X51323576Y-2358416D01*
X51515759Y-2516411D01*
X51686951Y-2701794D01*
X51728819Y-2756063D01*
X51778504Y-2821385D01*
X51818093Y-2870251D01*
X51841522Y-2895311D01*
X51845108Y-2896947D01*
X51854005Y-2875320D01*
X51873040Y-2821707D01*
X51899335Y-2744406D01*
X51927264Y-2660111D01*
X52006981Y-2446968D01*
X52108914Y-2220965D01*
X52224928Y-1998751D01*
X52346885Y-1796976D01*
X52355248Y-1784327D01*
X52411566Y-1696603D01*
X52444839Y-1636052D01*
X52457961Y-1596390D01*
X52453824Y-1571332D01*
X52453519Y-1570829D01*
X52428702Y-1550655D01*
X52372406Y-1515084D01*
X52290947Y-1467784D01*
X52190643Y-1412424D01*
X52078149Y-1352848D01*
X51908311Y-1262745D01*
X51771393Y-1185020D01*
X51661426Y-1115319D01*
X51572443Y-1049288D01*
X51498478Y-982573D01*
X51433562Y-910820D01*
X51383528Y-846033D01*
X51332954Y-780492D01*
X51290038Y-731745D01*
X51261647Y-707329D01*
X51255980Y-706034D01*
X51241013Y-727281D01*
X51214699Y-780495D01*
X51180557Y-858003D01*
X51142106Y-952135D01*
X51136147Y-967309D01*
X50995939Y-1288187D01*
X50825551Y-1607998D01*
X50690540Y-1828855D01*
X50639696Y-1911263D01*
X50600248Y-1981273D01*
X50576360Y-2031064D01*
X50571672Y-2052241D01*
X50225735Y-2052241D01*
X50306878Y-1958254D01*
X50402114Y-1822374D01*
G37*
X50402114Y-1822374D02*
X50501617Y-1658841D01*
X50602121Y-1474295D01*
X50700362Y-1275375D01*
X50793073Y-1068722D01*
X50876990Y-860975D01*
X50948848Y-658775D01*
X51005381Y-468762D01*
X51009622Y-452421D01*
X51052524Y-295164D01*
X51091516Y-179160D01*
X51128844Y-103781D01*
X51166755Y-68397D01*
X51207498Y-72380D01*
X51253320Y-115099D01*
X51306467Y-195926D01*
X51369188Y-314232D01*
X51385456Y-347193D01*
X51455790Y-483644D01*
X51525750Y-600400D01*
X51600467Y-701910D01*
X51685071Y-792621D01*
X51784692Y-876981D01*
X51904460Y-959437D01*
X52049505Y-1044439D01*
X52224957Y-1136432D01*
X52388899Y-1217200D01*
X52524530Y-1283649D01*
X52626763Y-1336055D01*
X52700874Y-1377584D01*
X52752143Y-1411402D01*
X52785849Y-1440675D01*
X52806861Y-1467897D01*
X52834363Y-1518999D01*
X52848443Y-1556878D01*
X52848920Y-1561289D01*
X52836110Y-1587277D01*
X52801643Y-1636864D01*
X52751579Y-1701650D01*
X52719251Y-1741122D01*
X52518189Y-2006415D01*
X52357242Y-2274440D01*
X52234244Y-2549981D01*
X52147027Y-2837821D01*
X52096945Y-3114337D01*
X52074074Y-3264087D01*
X52049224Y-3372761D01*
X52022001Y-3441585D01*
X51992015Y-3471787D01*
X51982302Y-3473500D01*
X51955350Y-3460941D01*
X51911551Y-3429637D01*
X51897161Y-3417891D01*
X51858855Y-3378706D01*
X51804141Y-3313761D01*
X51740474Y-3232262D01*
X51678578Y-3148016D01*
X51507516Y-2925687D01*
X51334908Y-2736247D01*
X51162601Y-2580800D01*
X50992441Y-2460450D01*
X50826273Y-2376303D01*
X50665944Y-2329462D01*
X50513300Y-2321034D01*
X50370186Y-2352121D01*
X50357076Y-2357201D01*
X50266692Y-2379442D01*
X50194018Y-2364439D01*
X50135042Y-2311281D01*
X50131219Y-2305959D01*
X50105398Y-2258140D01*
X50102872Y-2213411D01*
X50126571Y-2163574D01*
X50179425Y-2100429D01*
X50219174Y-2059841D01*
X50225735Y-2052241D01*
X50571672Y-2052241D01*
X50598219Y-2066789D01*
X50651347Y-2081023D01*
X50679345Y-2085966D01*
X50899542Y-2139473D01*
X51116228Y-2231530D01*
X51323576Y-2358416D01*
X51515759Y-2516411D01*
X51686951Y-2701794D01*
X51728819Y-2756063D01*
X51778504Y-2821385D01*
X51818093Y-2870251D01*
X51841522Y-2895311D01*
X51845108Y-2896947D01*
X51854005Y-2875320D01*
X51873040Y-2821707D01*
X51899335Y-2744406D01*
X51927264Y-2660111D01*
X52006981Y-2446968D01*
X52108914Y-2220965D01*
X52224928Y-1998751D01*
X52346885Y-1796976D01*
X52355248Y-1784327D01*
X52411566Y-1696603D01*
X52444839Y-1636052D01*
X52457961Y-1596390D01*
X52453824Y-1571332D01*
X52453519Y-1570829D01*
X52428702Y-1550655D01*
X52372406Y-1515084D01*
X52290947Y-1467784D01*
X52190643Y-1412424D01*
X52078149Y-1352848D01*
X51908311Y-1262745D01*
X51771393Y-1185020D01*
X51661426Y-1115319D01*
X51572443Y-1049288D01*
X51498478Y-982573D01*
X51433562Y-910820D01*
X51383528Y-846033D01*
X51332954Y-780492D01*
X51290038Y-731745D01*
X51261647Y-707329D01*
X51255980Y-706034D01*
X51241013Y-727281D01*
X51214699Y-780495D01*
X51180557Y-858003D01*
X51142106Y-952135D01*
X51136147Y-967309D01*
X50995939Y-1288187D01*
X50825551Y-1607998D01*
X50690540Y-1828855D01*
X50639696Y-1911263D01*
X50600248Y-1981273D01*
X50576360Y-2031064D01*
X50571672Y-2052241D01*
X50225735Y-2052241D01*
X50306878Y-1958254D01*
X50402114Y-1822374D01*
G36*
X46096833Y-17152539D02*
G01*
X45952826Y-17095239D01*
X45799555Y-17036080D01*
X45649797Y-16979872D01*
X45516328Y-16931425D01*
X45431570Y-16902059D01*
X45327002Y-16864979D01*
X45234206Y-16828340D01*
X45162130Y-16795938D01*
X45119719Y-16771568D01*
X45115555Y-16767963D01*
X45090229Y-16729690D01*
X45092037Y-16688315D01*
X45123601Y-16639944D01*
X45187542Y-16580686D01*
X45286483Y-16506646D01*
X45296144Y-16499859D01*
X45464192Y-16369367D01*
X45642023Y-16208149D01*
X45824645Y-16022495D01*
X46007068Y-15818692D01*
X46184299Y-15603032D01*
X46351347Y-15381802D01*
X46503222Y-15161291D01*
X46634930Y-14947789D01*
X46741482Y-14747586D01*
X46807322Y-14595802D01*
X46838790Y-14502981D01*
X46853357Y-14428030D01*
X46854224Y-14351563D01*
X46852187Y-14324228D01*
X46841231Y-14200039D01*
X46914318Y-14211899D01*
X46967564Y-14230563D01*
X47038415Y-14268410D01*
X47112016Y-14317449D01*
X47115756Y-14320243D01*
X47217234Y-14388638D01*
X47315965Y-14435670D01*
X47422536Y-14464014D01*
X47547536Y-14476345D01*
X47701554Y-14475337D01*
X47725603Y-14474303D01*
X47807526Y-14469841D01*
X47880547Y-14463716D01*
X47951729Y-14454496D01*
X48028132Y-14440746D01*
X48116819Y-14421030D01*
X48224852Y-14393915D01*
X48359293Y-14357966D01*
X48527205Y-14311748D01*
X48531000Y-14310696D01*
X48761186Y-14263188D01*
X48977278Y-14251178D01*
X49176782Y-14273829D01*
X49357207Y-14330308D01*
X49516060Y-14419779D01*
X49650849Y-14541408D01*
X49759081Y-14694358D01*
X49777117Y-14728229D01*
X49843316Y-14902584D01*
X49878656Y-15098001D01*
X49883388Y-15306826D01*
X49857758Y-15521407D01*
X49802016Y-15734091D01*
X49739379Y-15890366D01*
X49606449Y-16124830D01*
X49437541Y-16337474D01*
X49233294Y-16527725D01*
X48994346Y-16695007D01*
X48721335Y-16838746D01*
X48650587Y-16869773D01*
X48516301Y-16927796D01*
X48408640Y-16978255D01*
X48315615Y-17028049D01*
X48225241Y-17084076D01*
X48125530Y-17153233D01*
X48009434Y-17238726D01*
X47898304Y-17321072D01*
X47811949Y-17381384D01*
X47741424Y-17423221D01*
X47677786Y-17450144D01*
X47612090Y-17465716D01*
X47535391Y-17473496D01*
X47438747Y-17477046D01*
X47409166Y-17477717D01*
X47295127Y-17478064D01*
X47180999Y-17474765D01*
X47082518Y-17468450D01*
X47031721Y-17462633D01*
X46910779Y-17438270D01*
X46763876Y-17397731D01*
X46588281Y-17340112D01*
X46381263Y-17264506D01*
X46228096Y-17204490D01*
X47345666Y-17204490D01*
X47364353Y-17223863D01*
X47413885Y-17231144D01*
X47484471Y-17226105D01*
X47562523Y-17209581D01*
X47609309Y-17188642D01*
X47680194Y-17147247D01*
X47766021Y-17091134D01*
X47857633Y-17026042D01*
X47869339Y-17017332D01*
X48014033Y-16912292D01*
X48142382Y-16827530D01*
X48268788Y-16754715D01*
X48407654Y-16685515D01*
X48562750Y-16616174D01*
X48765939Y-16522077D01*
X48933523Y-16428385D01*
X49071784Y-16329374D01*
X49187006Y-16219320D01*
X49285469Y-16092497D01*
X49373457Y-15943182D01*
X49430841Y-15825153D01*
X49518116Y-15612376D01*
X49580150Y-15414023D01*
X49616027Y-15234442D01*
X49624834Y-15077982D01*
X49610923Y-14968764D01*
X49591473Y-14905718D01*
X49571586Y-14868265D01*
X49555463Y-14860961D01*
X49547307Y-14888360D01*
X49547000Y-14899470D01*
X49538605Y-14970621D01*
X49515643Y-15069512D01*
X49481449Y-15185520D01*
X49439357Y-15308024D01*
X49392700Y-15426400D01*
X49356394Y-15506750D01*
X49211587Y-15757135D01*
X49028741Y-15990362D01*
X48809092Y-16205076D01*
X48553876Y-16399919D01*
X48525744Y-16418722D01*
X48454429Y-16463223D01*
X48356725Y-16520645D01*
X48243888Y-16584543D01*
X48127171Y-16648469D01*
X48089173Y-16668762D01*
X47974598Y-16730758D01*
X47861021Y-16794398D01*
X47759383Y-16853409D01*
X47680624Y-16901517D01*
X47660512Y-16914601D01*
X47571261Y-16978353D01*
X47488371Y-17045018D01*
X47418692Y-17108287D01*
X47369076Y-17161854D01*
X47346374Y-17199409D01*
X47345666Y-17204490D01*
X46228096Y-17204490D01*
X46140089Y-17170006D01*
X46096833Y-17152539D01*
G37*
X46096833Y-17152539D02*
X45952826Y-17095239D01*
X45799555Y-17036080D01*
X45649797Y-16979872D01*
X45516328Y-16931425D01*
X45431570Y-16902059D01*
X45327002Y-16864979D01*
X45234206Y-16828340D01*
X45162130Y-16795938D01*
X45119719Y-16771568D01*
X45115555Y-16767963D01*
X45090229Y-16729690D01*
X45092037Y-16688315D01*
X45123601Y-16639944D01*
X45187542Y-16580686D01*
X45286483Y-16506646D01*
X45296144Y-16499859D01*
X45464192Y-16369367D01*
X45642023Y-16208149D01*
X45824645Y-16022495D01*
X46007068Y-15818692D01*
X46184299Y-15603032D01*
X46351347Y-15381802D01*
X46503222Y-15161291D01*
X46634930Y-14947789D01*
X46741482Y-14747586D01*
X46807322Y-14595802D01*
X46838790Y-14502981D01*
X46853357Y-14428030D01*
X46854224Y-14351563D01*
X46852187Y-14324228D01*
X46841231Y-14200039D01*
X46914318Y-14211899D01*
X46967564Y-14230563D01*
X47038415Y-14268410D01*
X47112016Y-14317449D01*
X47115756Y-14320243D01*
X47217234Y-14388638D01*
X47315965Y-14435670D01*
X47422536Y-14464014D01*
X47547536Y-14476345D01*
X47701554Y-14475337D01*
X47725603Y-14474303D01*
X47807526Y-14469841D01*
X47880547Y-14463716D01*
X47951729Y-14454496D01*
X48028132Y-14440746D01*
X48116819Y-14421030D01*
X48224852Y-14393915D01*
X48359293Y-14357966D01*
X48527205Y-14311748D01*
X48531000Y-14310696D01*
X48761186Y-14263188D01*
X48977278Y-14251178D01*
X49176782Y-14273829D01*
X49357207Y-14330308D01*
X49516060Y-14419779D01*
X49650849Y-14541408D01*
X49759081Y-14694358D01*
X49777117Y-14728229D01*
X49843316Y-14902584D01*
X49878656Y-15098001D01*
X49883388Y-15306826D01*
X49857758Y-15521407D01*
X49802016Y-15734091D01*
X49739379Y-15890366D01*
X49606449Y-16124830D01*
X49437541Y-16337474D01*
X49233294Y-16527725D01*
X48994346Y-16695007D01*
X48721335Y-16838746D01*
X48650587Y-16869773D01*
X48516301Y-16927796D01*
X48408640Y-16978255D01*
X48315615Y-17028049D01*
X48225241Y-17084076D01*
X48125530Y-17153233D01*
X48009434Y-17238726D01*
X47898304Y-17321072D01*
X47811949Y-17381384D01*
X47741424Y-17423221D01*
X47677786Y-17450144D01*
X47612090Y-17465716D01*
X47535391Y-17473496D01*
X47438747Y-17477046D01*
X47409166Y-17477717D01*
X47295127Y-17478064D01*
X47180999Y-17474765D01*
X47082518Y-17468450D01*
X47031721Y-17462633D01*
X46910779Y-17438270D01*
X46763876Y-17397731D01*
X46588281Y-17340112D01*
X46381263Y-17264506D01*
X46228096Y-17204490D01*
X47345666Y-17204490D01*
X47364353Y-17223863D01*
X47413885Y-17231144D01*
X47484471Y-17226105D01*
X47562523Y-17209581D01*
X47609309Y-17188642D01*
X47680194Y-17147247D01*
X47766021Y-17091134D01*
X47857633Y-17026042D01*
X47869339Y-17017332D01*
X48014033Y-16912292D01*
X48142382Y-16827530D01*
X48268788Y-16754715D01*
X48407654Y-16685515D01*
X48562750Y-16616174D01*
X48765939Y-16522077D01*
X48933523Y-16428385D01*
X49071784Y-16329374D01*
X49187006Y-16219320D01*
X49285469Y-16092497D01*
X49373457Y-15943182D01*
X49430841Y-15825153D01*
X49518116Y-15612376D01*
X49580150Y-15414023D01*
X49616027Y-15234442D01*
X49624834Y-15077982D01*
X49610923Y-14968764D01*
X49591473Y-14905718D01*
X49571586Y-14868265D01*
X49555463Y-14860961D01*
X49547307Y-14888360D01*
X49547000Y-14899470D01*
X49538605Y-14970621D01*
X49515643Y-15069512D01*
X49481449Y-15185520D01*
X49439357Y-15308024D01*
X49392700Y-15426400D01*
X49356394Y-15506750D01*
X49211587Y-15757135D01*
X49028741Y-15990362D01*
X48809092Y-16205076D01*
X48553876Y-16399919D01*
X48525744Y-16418722D01*
X48454429Y-16463223D01*
X48356725Y-16520645D01*
X48243888Y-16584543D01*
X48127171Y-16648469D01*
X48089173Y-16668762D01*
X47974598Y-16730758D01*
X47861021Y-16794398D01*
X47759383Y-16853409D01*
X47680624Y-16901517D01*
X47660512Y-16914601D01*
X47571261Y-16978353D01*
X47488371Y-17045018D01*
X47418692Y-17108287D01*
X47369076Y-17161854D01*
X47346374Y-17199409D01*
X47345666Y-17204490D01*
X46228096Y-17204490D01*
X46140089Y-17170006D01*
X46096833Y-17152539D01*
G36*
X31795492Y-5488893D02*
G01*
X31904370Y-5414036D01*
X31915396Y-5408074D01*
X31977766Y-5377935D01*
X32033338Y-5359662D01*
X32096648Y-5350368D01*
X32182232Y-5347165D01*
X32223181Y-5346944D01*
X32318769Y-5348148D01*
X32388513Y-5354496D01*
X32448879Y-5369743D01*
X32516332Y-5397646D01*
X32579737Y-5428276D01*
X32750274Y-5531983D01*
X32902646Y-5666434D01*
X33038220Y-5833620D01*
X33158363Y-6035530D01*
X33264441Y-6274156D01*
X33357821Y-6551486D01*
X33362879Y-6568812D01*
X33413311Y-6775518D01*
X33449741Y-6994102D01*
X33471789Y-7215667D01*
X33479073Y-7431317D01*
X33471214Y-7632157D01*
X33447831Y-7809289D01*
X33420641Y-7918823D01*
X33363826Y-8060857D01*
X33283864Y-8209407D01*
X33188359Y-8353329D01*
X33084915Y-8481478D01*
X32981135Y-8582709D01*
X32952333Y-8605240D01*
X32869963Y-8660065D01*
X32807368Y-8686774D01*
X32755633Y-8688376D01*
X32730083Y-8680296D01*
X32685301Y-8669735D01*
X32616885Y-8662336D01*
X32571333Y-8660374D01*
X32411024Y-8638478D01*
X32241293Y-8579694D01*
X32067723Y-8486718D01*
X31895903Y-8362247D01*
X31823925Y-8299690D01*
X31652885Y-8115091D01*
X31509832Y-7902832D01*
X31395876Y-7667961D01*
X31312131Y-7415525D01*
X31259706Y-7150575D01*
X31239715Y-6878157D01*
X31253269Y-6603320D01*
X31301479Y-6331113D01*
X31352148Y-6157331D01*
X31390766Y-6053284D01*
X31434934Y-5948843D01*
X31477392Y-5860722D01*
X31493961Y-5830917D01*
X31579164Y-5708494D01*
X31590550Y-5695632D01*
X31915742Y-5695632D01*
X31953553Y-5711667D01*
X32031534Y-5717306D01*
X32031583Y-5717307D01*
X32152416Y-5738870D01*
X32272686Y-5798436D01*
X32390713Y-5891688D01*
X32504817Y-6014311D01*
X32613315Y-6161987D01*
X32714527Y-6330402D01*
X32806773Y-6515239D01*
X32888371Y-6712182D01*
X32957641Y-6916915D01*
X33012901Y-7125121D01*
X33052471Y-7332485D01*
X33074671Y-7534691D01*
X33077818Y-7727422D01*
X33060233Y-7906363D01*
X33020234Y-8067197D01*
X32982232Y-8158364D01*
X32953848Y-8216716D01*
X32935307Y-8257715D01*
X32931166Y-8269489D01*
X32944910Y-8278709D01*
X32985153Y-8257013D01*
X33050414Y-8205251D01*
X33064422Y-8193054D01*
X33126081Y-8133199D01*
X33180677Y-8070806D01*
X33205389Y-8036443D01*
X33281600Y-7876840D01*
X33333147Y-7689862D01*
X33361082Y-7481763D01*
X33366456Y-7258798D01*
X33350321Y-7027220D01*
X33313730Y-6793283D01*
X33257733Y-6563240D01*
X33183382Y-6343345D01*
X33091728Y-6139853D01*
X32983825Y-5959015D01*
X32860722Y-5807087D01*
X32824473Y-5771327D01*
X32719065Y-5685818D01*
X32608289Y-5625854D01*
X32477870Y-5584668D01*
X32395818Y-5568125D01*
X32244680Y-5552900D01*
X32113078Y-5561780D01*
X32007325Y-5593925D01*
X31955800Y-5626594D01*
X31916893Y-5667755D01*
X31915742Y-5695632D01*
X31590550Y-5695632D01*
X31683382Y-5590766D01*
X31795492Y-5488893D01*
G37*
X31795492Y-5488893D02*
X31904370Y-5414036D01*
X31915396Y-5408074D01*
X31977766Y-5377935D01*
X32033338Y-5359662D01*
X32096648Y-5350368D01*
X32182232Y-5347165D01*
X32223181Y-5346944D01*
X32318769Y-5348148D01*
X32388513Y-5354496D01*
X32448879Y-5369743D01*
X32516332Y-5397646D01*
X32579737Y-5428276D01*
X32750274Y-5531983D01*
X32902646Y-5666434D01*
X33038220Y-5833620D01*
X33158363Y-6035530D01*
X33264441Y-6274156D01*
X33357821Y-6551486D01*
X33362879Y-6568812D01*
X33413311Y-6775518D01*
X33449741Y-6994102D01*
X33471789Y-7215667D01*
X33479073Y-7431317D01*
X33471214Y-7632157D01*
X33447831Y-7809289D01*
X33420641Y-7918823D01*
X33363826Y-8060857D01*
X33283864Y-8209407D01*
X33188359Y-8353329D01*
X33084915Y-8481478D01*
X32981135Y-8582709D01*
X32952333Y-8605240D01*
X32869963Y-8660065D01*
X32807368Y-8686774D01*
X32755633Y-8688376D01*
X32730083Y-8680296D01*
X32685301Y-8669735D01*
X32616885Y-8662336D01*
X32571333Y-8660374D01*
X32411024Y-8638478D01*
X32241293Y-8579694D01*
X32067723Y-8486718D01*
X31895903Y-8362247D01*
X31823925Y-8299690D01*
X31652885Y-8115091D01*
X31509832Y-7902832D01*
X31395876Y-7667961D01*
X31312131Y-7415525D01*
X31259706Y-7150575D01*
X31239715Y-6878157D01*
X31253269Y-6603320D01*
X31301479Y-6331113D01*
X31352148Y-6157331D01*
X31390766Y-6053284D01*
X31434934Y-5948843D01*
X31477392Y-5860722D01*
X31493961Y-5830917D01*
X31579164Y-5708494D01*
X31590550Y-5695632D01*
X31915742Y-5695632D01*
X31953553Y-5711667D01*
X32031534Y-5717306D01*
X32031583Y-5717307D01*
X32152416Y-5738870D01*
X32272686Y-5798436D01*
X32390713Y-5891688D01*
X32504817Y-6014311D01*
X32613315Y-6161987D01*
X32714527Y-6330402D01*
X32806773Y-6515239D01*
X32888371Y-6712182D01*
X32957641Y-6916915D01*
X33012901Y-7125121D01*
X33052471Y-7332485D01*
X33074671Y-7534691D01*
X33077818Y-7727422D01*
X33060233Y-7906363D01*
X33020234Y-8067197D01*
X32982232Y-8158364D01*
X32953848Y-8216716D01*
X32935307Y-8257715D01*
X32931166Y-8269489D01*
X32944910Y-8278709D01*
X32985153Y-8257013D01*
X33050414Y-8205251D01*
X33064422Y-8193054D01*
X33126081Y-8133199D01*
X33180677Y-8070806D01*
X33205389Y-8036443D01*
X33281600Y-7876840D01*
X33333147Y-7689862D01*
X33361082Y-7481763D01*
X33366456Y-7258798D01*
X33350321Y-7027220D01*
X33313730Y-6793283D01*
X33257733Y-6563240D01*
X33183382Y-6343345D01*
X33091728Y-6139853D01*
X32983825Y-5959015D01*
X32860722Y-5807087D01*
X32824473Y-5771327D01*
X32719065Y-5685818D01*
X32608289Y-5625854D01*
X32477870Y-5584668D01*
X32395818Y-5568125D01*
X32244680Y-5552900D01*
X32113078Y-5561780D01*
X32007325Y-5593925D01*
X31955800Y-5626594D01*
X31916893Y-5667755D01*
X31915742Y-5695632D01*
X31590550Y-5695632D01*
X31683382Y-5590766D01*
X31795492Y-5488893D01*
G36*
X41864781Y-2180856D02*
G01*
X42021831Y-2209559D01*
X42165605Y-2261644D01*
X42309014Y-2340684D01*
X42322614Y-2349417D01*
X42433404Y-2434089D01*
X42549711Y-2544594D01*
X42659548Y-2668221D01*
X42750927Y-2792257D01*
X42771906Y-2825888D01*
X42885689Y-3055790D01*
X42970141Y-3309410D01*
X43024681Y-3579390D01*
X43048725Y-3858374D01*
X43041689Y-4139002D01*
X43002992Y-4413917D01*
X42932049Y-4675761D01*
X42920974Y-4706960D01*
X42817779Y-4937384D01*
X42686150Y-5145189D01*
X42529836Y-5326320D01*
X42352586Y-5476723D01*
X42158149Y-5592343D01*
X42065501Y-5632150D01*
X42015453Y-5639367D01*
X41993164Y-5625126D01*
X41985754Y-5594621D01*
X41979919Y-5524695D01*
X41975770Y-5418238D01*
X41973420Y-5278137D01*
X41972979Y-5107280D01*
X41972994Y-5102398D01*
X41966783Y-4759080D01*
X41946534Y-4418224D01*
X41913166Y-4084709D01*
X41867600Y-3763411D01*
X41810753Y-3459210D01*
X41743547Y-3176983D01*
X41666899Y-2921607D01*
X41581730Y-2697962D01*
X41526995Y-2587610D01*
X41789833Y-2587610D01*
X41799001Y-2606363D01*
X41831511Y-2649677D01*
X41882100Y-2710904D01*
X41939162Y-2776301D01*
X42058492Y-2915677D01*
X42154470Y-3042314D01*
X42236664Y-3170085D01*
X42314645Y-3312862D01*
X42329256Y-3341792D01*
X42450796Y-3628061D01*
X42532661Y-3919895D01*
X42574021Y-4213550D01*
X42576907Y-4457750D01*
X42572336Y-4558126D01*
X42570709Y-4621113D01*
X42572679Y-4651592D01*
X42578897Y-4654443D01*
X42590014Y-4634547D01*
X42598094Y-4616500D01*
X42616837Y-4562706D01*
X42639641Y-4481241D01*
X42662740Y-4386040D01*
X42672457Y-4341333D01*
X42693815Y-4222552D01*
X42704949Y-4111859D01*
X42707219Y-3990421D01*
X42704588Y-3896833D01*
X42676460Y-3644030D01*
X42614301Y-3409219D01*
X42519945Y-3195496D01*
X42395221Y-3005958D01*
X42241961Y-2843699D01*
X42061998Y-2711817D01*
X41975648Y-2664616D01*
X41898079Y-2627694D01*
X41835683Y-2600838D01*
X41797348Y-2587732D01*
X41789833Y-2587610D01*
X41526995Y-2587610D01*
X41488958Y-2510925D01*
X41482502Y-2499838D01*
X41419846Y-2387298D01*
X41384602Y-2303564D01*
X41379284Y-2244494D01*
X41406405Y-2205948D01*
X41468480Y-2183785D01*
X41568022Y-2173864D01*
X41681544Y-2171962D01*
X41864781Y-2180856D01*
G37*
X41864781Y-2180856D02*
X42021831Y-2209559D01*
X42165605Y-2261644D01*
X42309014Y-2340684D01*
X42322614Y-2349417D01*
X42433404Y-2434089D01*
X42549711Y-2544594D01*
X42659548Y-2668221D01*
X42750927Y-2792257D01*
X42771906Y-2825888D01*
X42885689Y-3055790D01*
X42970141Y-3309410D01*
X43024681Y-3579390D01*
X43048725Y-3858374D01*
X43041689Y-4139002D01*
X43002992Y-4413917D01*
X42932049Y-4675761D01*
X42920974Y-4706960D01*
X42817779Y-4937384D01*
X42686150Y-5145189D01*
X42529836Y-5326320D01*
X42352586Y-5476723D01*
X42158149Y-5592343D01*
X42065501Y-5632150D01*
X42015453Y-5639367D01*
X41993164Y-5625126D01*
X41985754Y-5594621D01*
X41979919Y-5524695D01*
X41975770Y-5418238D01*
X41973420Y-5278137D01*
X41972979Y-5107280D01*
X41972994Y-5102398D01*
X41966783Y-4759080D01*
X41946534Y-4418224D01*
X41913166Y-4084709D01*
X41867600Y-3763411D01*
X41810753Y-3459210D01*
X41743547Y-3176983D01*
X41666899Y-2921607D01*
X41581730Y-2697962D01*
X41526995Y-2587610D01*
X41789833Y-2587610D01*
X41799001Y-2606363D01*
X41831511Y-2649677D01*
X41882100Y-2710904D01*
X41939162Y-2776301D01*
X42058492Y-2915677D01*
X42154470Y-3042314D01*
X42236664Y-3170085D01*
X42314645Y-3312862D01*
X42329256Y-3341792D01*
X42450796Y-3628061D01*
X42532661Y-3919895D01*
X42574021Y-4213550D01*
X42576907Y-4457750D01*
X42572336Y-4558126D01*
X42570709Y-4621113D01*
X42572679Y-4651592D01*
X42578897Y-4654443D01*
X42590014Y-4634547D01*
X42598094Y-4616500D01*
X42616837Y-4562706D01*
X42639641Y-4481241D01*
X42662740Y-4386040D01*
X42672457Y-4341333D01*
X42693815Y-4222552D01*
X42704949Y-4111859D01*
X42707219Y-3990421D01*
X42704588Y-3896833D01*
X42676460Y-3644030D01*
X42614301Y-3409219D01*
X42519945Y-3195496D01*
X42395221Y-3005958D01*
X42241961Y-2843699D01*
X42061998Y-2711817D01*
X41975648Y-2664616D01*
X41898079Y-2627694D01*
X41835683Y-2600838D01*
X41797348Y-2587732D01*
X41789833Y-2587610D01*
X41526995Y-2587610D01*
X41488958Y-2510925D01*
X41482502Y-2499838D01*
X41419846Y-2387298D01*
X41384602Y-2303564D01*
X41379284Y-2244494D01*
X41406405Y-2205948D01*
X41468480Y-2183785D01*
X41568022Y-2173864D01*
X41681544Y-2171962D01*
X41864781Y-2180856D01*
G36*
X33975985Y-9785790D02*
G01*
X34094909Y-9804278D01*
X34229643Y-9842347D01*
X34367776Y-9894884D01*
X34496899Y-9956777D01*
X34604603Y-10022916D01*
X34658454Y-10066916D01*
X34706793Y-10117233D01*
X34736452Y-10163105D01*
X34754935Y-10220333D01*
X34768995Y-10299750D01*
X34774970Y-10357951D01*
X34781179Y-10451904D01*
X34787341Y-10575030D01*
X34793176Y-10720752D01*
X34798403Y-10882489D01*
X34802741Y-11053664D01*
X34804201Y-11125250D01*
X34810824Y-11409086D01*
X34819620Y-11656011D01*
X34831228Y-11871421D01*
X34846286Y-12060708D01*
X34865433Y-12229269D01*
X34889309Y-12382498D01*
X34918553Y-12525790D01*
X34953803Y-12664538D01*
X34995698Y-12804139D01*
X35007267Y-12839750D01*
X35047447Y-12947586D01*
X35105140Y-13083177D01*
X35176081Y-13237978D01*
X35256006Y-13403442D01*
X35340649Y-13571022D01*
X35425744Y-13732172D01*
X35507027Y-13878347D01*
X35580232Y-14000999D01*
X35609407Y-14046250D01*
X35839141Y-14364892D01*
X36080269Y-14648729D01*
X36331344Y-14896797D01*
X36590920Y-15108131D01*
X36857552Y-15281770D01*
X37129792Y-15416750D01*
X37406194Y-15512108D01*
X37685312Y-15566880D01*
X37913640Y-15580833D01*
X38148002Y-15566375D01*
X38375923Y-15521410D01*
X38606718Y-15443545D01*
X38809881Y-15350836D01*
X38903841Y-15308059D01*
X38979893Y-15288112D01*
X39046767Y-15293309D01*
X39113193Y-15325968D01*
X39187901Y-15388403D01*
X39270393Y-15472997D01*
X39370368Y-15582137D01*
X39444018Y-15671242D01*
X39490618Y-15746370D01*
X39509441Y-15813582D01*
X39499759Y-15878936D01*
X39460847Y-15948493D01*
X39391977Y-16028311D01*
X39292422Y-16124450D01*
X39180036Y-16226305D01*
X39018162Y-16362693D01*
X38866459Y-16469163D01*
X38716027Y-16549093D01*
X38557963Y-16605864D01*
X38383367Y-16642857D01*
X38183336Y-16663452D01*
X38011166Y-16670172D01*
X37886678Y-16671866D01*
X37767122Y-16672228D01*
X37663522Y-16671313D01*
X37586904Y-16669173D01*
X37566666Y-16668015D01*
X37416923Y-16655853D01*
X37249845Y-16640176D01*
X37074232Y-16622001D01*
X36898886Y-16602342D01*
X36732607Y-16582216D01*
X36584196Y-16562638D01*
X36462453Y-16544625D01*
X36392812Y-16532535D01*
X36207249Y-16492078D01*
X36032570Y-16443364D01*
X35866594Y-16384376D01*
X35707141Y-16313097D01*
X35552032Y-16227512D01*
X35399088Y-16125604D01*
X35246127Y-16005355D01*
X35090971Y-15864751D01*
X34931439Y-15701774D01*
X34765353Y-15514408D01*
X34590531Y-15300636D01*
X34404795Y-15058442D01*
X34205965Y-14785810D01*
X33991860Y-14480723D01*
X33760301Y-14141164D01*
X33682286Y-14025083D01*
X33461621Y-13691374D01*
X33267037Y-13387575D01*
X33097212Y-13111329D01*
X32950826Y-12860276D01*
X32826558Y-12632059D01*
X32723086Y-12424319D01*
X32639091Y-12234698D01*
X32573251Y-12060838D01*
X32560155Y-12021661D01*
X32508609Y-11830116D01*
X32476354Y-11636766D01*
X32464382Y-11452375D01*
X32473687Y-11287711D01*
X32486127Y-11218293D01*
X32530958Y-11076803D01*
X32600499Y-10922656D01*
X32687358Y-10770792D01*
X32757295Y-10670166D01*
X32847339Y-10561385D01*
X32958460Y-10442107D01*
X33083954Y-10318249D01*
X33217120Y-10195726D01*
X33351256Y-10080454D01*
X33479659Y-9978347D01*
X33595626Y-9895322D01*
X33692456Y-9837294D01*
X33711401Y-9828066D01*
X33781994Y-9799298D01*
X33844850Y-9785270D01*
X33919085Y-9782927D01*
X33975985Y-9785790D01*
G37*
X33975985Y-9785790D02*
X34094909Y-9804278D01*
X34229643Y-9842347D01*
X34367776Y-9894884D01*
X34496899Y-9956777D01*
X34604603Y-10022916D01*
X34658454Y-10066916D01*
X34706793Y-10117233D01*
X34736452Y-10163105D01*
X34754935Y-10220333D01*
X34768995Y-10299750D01*
X34774970Y-10357951D01*
X34781179Y-10451904D01*
X34787341Y-10575030D01*
X34793176Y-10720752D01*
X34798403Y-10882489D01*
X34802741Y-11053664D01*
X34804201Y-11125250D01*
X34810824Y-11409086D01*
X34819620Y-11656011D01*
X34831228Y-11871421D01*
X34846286Y-12060708D01*
X34865433Y-12229269D01*
X34889309Y-12382498D01*
X34918553Y-12525790D01*
X34953803Y-12664538D01*
X34995698Y-12804139D01*
X35007267Y-12839750D01*
X35047447Y-12947586D01*
X35105140Y-13083177D01*
X35176081Y-13237978D01*
X35256006Y-13403442D01*
X35340649Y-13571022D01*
X35425744Y-13732172D01*
X35507027Y-13878347D01*
X35580232Y-14000999D01*
X35609407Y-14046250D01*
X35839141Y-14364892D01*
X36080269Y-14648729D01*
X36331344Y-14896797D01*
X36590920Y-15108131D01*
X36857552Y-15281770D01*
X37129792Y-15416750D01*
X37406194Y-15512108D01*
X37685312Y-15566880D01*
X37913640Y-15580833D01*
X38148002Y-15566375D01*
X38375923Y-15521410D01*
X38606718Y-15443545D01*
X38809881Y-15350836D01*
X38903841Y-15308059D01*
X38979893Y-15288112D01*
X39046767Y-15293309D01*
X39113193Y-15325968D01*
X39187901Y-15388403D01*
X39270393Y-15472997D01*
X39370368Y-15582137D01*
X39444018Y-15671242D01*
X39490618Y-15746370D01*
X39509441Y-15813582D01*
X39499759Y-15878936D01*
X39460847Y-15948493D01*
X39391977Y-16028311D01*
X39292422Y-16124450D01*
X39180036Y-16226305D01*
X39018162Y-16362693D01*
X38866459Y-16469163D01*
X38716027Y-16549093D01*
X38557963Y-16605864D01*
X38383367Y-16642857D01*
X38183336Y-16663452D01*
X38011166Y-16670172D01*
X37886678Y-16671866D01*
X37767122Y-16672228D01*
X37663522Y-16671313D01*
X37586904Y-16669173D01*
X37566666Y-16668015D01*
X37416923Y-16655853D01*
X37249845Y-16640176D01*
X37074232Y-16622001D01*
X36898886Y-16602342D01*
X36732607Y-16582216D01*
X36584196Y-16562638D01*
X36462453Y-16544625D01*
X36392812Y-16532535D01*
X36207249Y-16492078D01*
X36032570Y-16443364D01*
X35866594Y-16384376D01*
X35707141Y-16313097D01*
X35552032Y-16227512D01*
X35399088Y-16125604D01*
X35246127Y-16005355D01*
X35090971Y-15864751D01*
X34931439Y-15701774D01*
X34765353Y-15514408D01*
X34590531Y-15300636D01*
X34404795Y-15058442D01*
X34205965Y-14785810D01*
X33991860Y-14480723D01*
X33760301Y-14141164D01*
X33682286Y-14025083D01*
X33461621Y-13691374D01*
X33267037Y-13387575D01*
X33097212Y-13111329D01*
X32950826Y-12860276D01*
X32826558Y-12632059D01*
X32723086Y-12424319D01*
X32639091Y-12234698D01*
X32573251Y-12060838D01*
X32560155Y-12021661D01*
X32508609Y-11830116D01*
X32476354Y-11636766D01*
X32464382Y-11452375D01*
X32473687Y-11287711D01*
X32486127Y-11218293D01*
X32530958Y-11076803D01*
X32600499Y-10922656D01*
X32687358Y-10770792D01*
X32757295Y-10670166D01*
X32847339Y-10561385D01*
X32958460Y-10442107D01*
X33083954Y-10318249D01*
X33217120Y-10195726D01*
X33351256Y-10080454D01*
X33479659Y-9978347D01*
X33595626Y-9895322D01*
X33692456Y-9837294D01*
X33711401Y-9828066D01*
X33781994Y-9799298D01*
X33844850Y-9785270D01*
X33919085Y-9782927D01*
X33975985Y-9785790D01*
G36*
X48562303Y-13677001D02*
G01*
X48353479Y-13629651D01*
X48207951Y-13601638D01*
X48066901Y-13571428D01*
X47949873Y-13534688D01*
X47859858Y-13493561D01*
X47799848Y-13450188D01*
X47772834Y-13406711D01*
X47781806Y-13365274D01*
X47827487Y-13329175D01*
X47898840Y-13276525D01*
X47981565Y-13188915D01*
X48073042Y-13071343D01*
X48170651Y-12928803D01*
X48271772Y-12766290D01*
X48373784Y-12588800D01*
X48474067Y-12401328D01*
X48570002Y-12208870D01*
X48658967Y-12016421D01*
X48738344Y-11828976D01*
X48805510Y-11651531D01*
X48857847Y-11489082D01*
X48892735Y-11346622D01*
X48903675Y-11277423D01*
X48920429Y-11189811D01*
X48945191Y-11142253D01*
X48952853Y-11136625D01*
X48994690Y-11132313D01*
X49073130Y-11143353D01*
X49185010Y-11169245D01*
X49311012Y-11199197D01*
X49413037Y-11215007D01*
X49506816Y-11217210D01*
X49608078Y-11206343D01*
X49711934Y-11187199D01*
X49877654Y-11142101D01*
X50069750Y-11068885D01*
X50289529Y-10967001D01*
X50510083Y-10851435D01*
X50721977Y-10743120D01*
X50907916Y-10666183D01*
X51071079Y-10621291D01*
X51214645Y-10609107D01*
X51341793Y-10630299D01*
X51455703Y-10685530D01*
X51559554Y-10775468D01*
X51656526Y-10900778D01*
X51749797Y-11062124D01*
X51777047Y-11116655D01*
X51849753Y-11274383D01*
X51902216Y-11409867D01*
X51938079Y-11535816D01*
X51960987Y-11664937D01*
X51974218Y-11804383D01*
X51970437Y-12033429D01*
X51926907Y-12251327D01*
X51842405Y-12463910D01*
X51831499Y-12485403D01*
X51778460Y-12582394D01*
X51721938Y-12672829D01*
X51656534Y-12763725D01*
X51576847Y-12862098D01*
X51477476Y-12974965D01*
X51353021Y-13109345D01*
X51343713Y-13119227D01*
X51241861Y-13229908D01*
X51130332Y-13355446D01*
X51021491Y-13481677D01*
X50927702Y-13594435D01*
X50913271Y-13612333D01*
X50836650Y-13705880D01*
X50761808Y-13793586D01*
X50696110Y-13867065D01*
X50646917Y-13917928D01*
X50636861Y-13927189D01*
X50520487Y-14008711D01*
X50389287Y-14059360D01*
X50236997Y-14080758D01*
X50065583Y-14075333D01*
X49954217Y-14060524D01*
X49825855Y-14035044D01*
X49675091Y-13997540D01*
X49496517Y-13946654D01*
X49284724Y-13881033D01*
X49264128Y-13874447D01*
X49028410Y-13802184D01*
X48883752Y-13761538D01*
X49758666Y-13761538D01*
X49778301Y-13780102D01*
X49831168Y-13796063D01*
X49908211Y-13808756D01*
X50000372Y-13817517D01*
X50098595Y-13821681D01*
X50193824Y-13820584D01*
X50277000Y-13813561D01*
X50328404Y-13803338D01*
X50369002Y-13788997D01*
X50407683Y-13767577D01*
X50449355Y-13734315D01*
X50498928Y-13684453D01*
X50561310Y-13613229D01*
X50641410Y-13515883D01*
X50699983Y-13443000D01*
X50785443Y-13339334D01*
X50889592Y-13217916D01*
X51001489Y-13091231D01*
X51110197Y-12971761D01*
X51153403Y-12925540D01*
X51313709Y-12749810D01*
X51442740Y-12593915D01*
X51543415Y-12452733D01*
X51618654Y-12321143D01*
X51671376Y-12194024D01*
X51704502Y-12066252D01*
X51720950Y-11932708D01*
X51721152Y-11929583D01*
X51723224Y-11804614D01*
X51710648Y-11685862D01*
X51688359Y-11578283D01*
X51658575Y-11468066D01*
X51623775Y-11361634D01*
X51587436Y-11267770D01*
X51553038Y-11195254D01*
X51524059Y-11152866D01*
X51517863Y-11147877D01*
X51503632Y-11144258D01*
X51496799Y-11158545D01*
X51497822Y-11195496D01*
X51507162Y-11259868D01*
X51525279Y-11356421D01*
X51549463Y-11474738D01*
X51579883Y-11653484D01*
X51591613Y-11817475D01*
X51582725Y-11971101D01*
X51551291Y-12118750D01*
X51495382Y-12264811D01*
X51413069Y-12413672D01*
X51302425Y-12569723D01*
X51161521Y-12737352D01*
X50988428Y-12920948D01*
X50856241Y-13052393D01*
X50693143Y-13208633D01*
X50552325Y-13336511D01*
X50428401Y-13439711D01*
X50315984Y-13521912D01*
X50209690Y-13586797D01*
X50104132Y-13638046D01*
X49993923Y-13679342D01*
X49896732Y-13708243D01*
X49827413Y-13729174D01*
X49777852Y-13748273D01*
X49758669Y-13761441D01*
X49758666Y-13761538D01*
X48883752Y-13761538D01*
X48790873Y-13735441D01*
X48562303Y-13677001D01*
G37*
X48562303Y-13677001D02*
X48353479Y-13629651D01*
X48207951Y-13601638D01*
X48066901Y-13571428D01*
X47949873Y-13534688D01*
X47859858Y-13493561D01*
X47799848Y-13450188D01*
X47772834Y-13406711D01*
X47781806Y-13365274D01*
X47827487Y-13329175D01*
X47898840Y-13276525D01*
X47981565Y-13188915D01*
X48073042Y-13071343D01*
X48170651Y-12928803D01*
X48271772Y-12766290D01*
X48373784Y-12588800D01*
X48474067Y-12401328D01*
X48570002Y-12208870D01*
X48658967Y-12016421D01*
X48738344Y-11828976D01*
X48805510Y-11651531D01*
X48857847Y-11489082D01*
X48892735Y-11346622D01*
X48903675Y-11277423D01*
X48920429Y-11189811D01*
X48945191Y-11142253D01*
X48952853Y-11136625D01*
X48994690Y-11132313D01*
X49073130Y-11143353D01*
X49185010Y-11169245D01*
X49311012Y-11199197D01*
X49413037Y-11215007D01*
X49506816Y-11217210D01*
X49608078Y-11206343D01*
X49711934Y-11187199D01*
X49877654Y-11142101D01*
X50069750Y-11068885D01*
X50289529Y-10967001D01*
X50510083Y-10851435D01*
X50721977Y-10743120D01*
X50907916Y-10666183D01*
X51071079Y-10621291D01*
X51214645Y-10609107D01*
X51341793Y-10630299D01*
X51455703Y-10685530D01*
X51559554Y-10775468D01*
X51656526Y-10900778D01*
X51749797Y-11062124D01*
X51777047Y-11116655D01*
X51849753Y-11274383D01*
X51902216Y-11409867D01*
X51938079Y-11535816D01*
X51960987Y-11664937D01*
X51974218Y-11804383D01*
X51970437Y-12033429D01*
X51926907Y-12251327D01*
X51842405Y-12463910D01*
X51831499Y-12485403D01*
X51778460Y-12582394D01*
X51721938Y-12672829D01*
X51656534Y-12763725D01*
X51576847Y-12862098D01*
X51477476Y-12974965D01*
X51353021Y-13109345D01*
X51343713Y-13119227D01*
X51241861Y-13229908D01*
X51130332Y-13355446D01*
X51021491Y-13481677D01*
X50927702Y-13594435D01*
X50913271Y-13612333D01*
X50836650Y-13705880D01*
X50761808Y-13793586D01*
X50696110Y-13867065D01*
X50646917Y-13917928D01*
X50636861Y-13927189D01*
X50520487Y-14008711D01*
X50389287Y-14059360D01*
X50236997Y-14080758D01*
X50065583Y-14075333D01*
X49954217Y-14060524D01*
X49825855Y-14035044D01*
X49675091Y-13997540D01*
X49496517Y-13946654D01*
X49284724Y-13881033D01*
X49264128Y-13874447D01*
X49028410Y-13802184D01*
X48883752Y-13761538D01*
X49758666Y-13761538D01*
X49778301Y-13780102D01*
X49831168Y-13796063D01*
X49908211Y-13808756D01*
X50000372Y-13817517D01*
X50098595Y-13821681D01*
X50193824Y-13820584D01*
X50277000Y-13813561D01*
X50328404Y-13803338D01*
X50369002Y-13788997D01*
X50407683Y-13767577D01*
X50449355Y-13734315D01*
X50498928Y-13684453D01*
X50561310Y-13613229D01*
X50641410Y-13515883D01*
X50699983Y-13443000D01*
X50785443Y-13339334D01*
X50889592Y-13217916D01*
X51001489Y-13091231D01*
X51110197Y-12971761D01*
X51153403Y-12925540D01*
X51313709Y-12749810D01*
X51442740Y-12593915D01*
X51543415Y-12452733D01*
X51618654Y-12321143D01*
X51671376Y-12194024D01*
X51704502Y-12066252D01*
X51720950Y-11932708D01*
X51721152Y-11929583D01*
X51723224Y-11804614D01*
X51710648Y-11685862D01*
X51688359Y-11578283D01*
X51658575Y-11468066D01*
X51623775Y-11361634D01*
X51587436Y-11267770D01*
X51553038Y-11195254D01*
X51524059Y-11152866D01*
X51517863Y-11147877D01*
X51503632Y-11144258D01*
X51496799Y-11158545D01*
X51497822Y-11195496D01*
X51507162Y-11259868D01*
X51525279Y-11356421D01*
X51549463Y-11474738D01*
X51579883Y-11653484D01*
X51591613Y-11817475D01*
X51582725Y-11971101D01*
X51551291Y-12118750D01*
X51495382Y-12264811D01*
X51413069Y-12413672D01*
X51302425Y-12569723D01*
X51161521Y-12737352D01*
X50988428Y-12920948D01*
X50856241Y-13052393D01*
X50693143Y-13208633D01*
X50552325Y-13336511D01*
X50428401Y-13439711D01*
X50315984Y-13521912D01*
X50209690Y-13586797D01*
X50104132Y-13638046D01*
X49993923Y-13679342D01*
X49896732Y-13708243D01*
X49827413Y-13729174D01*
X49777852Y-13748273D01*
X49758669Y-13761441D01*
X49758666Y-13761538D01*
X48883752Y-13761538D01*
X48790873Y-13735441D01*
X48562303Y-13677001D01*
G36*
X64850500Y-13544385D02*
G01*
X64778329Y-13511303D01*
X64746337Y-13464910D01*
X64754494Y-13405139D01*
X64773144Y-13370939D01*
X64836481Y-13310402D01*
X64922268Y-13283259D01*
X65024848Y-13291249D01*
X65029123Y-13292299D01*
X65199782Y-13315876D01*
X65374024Y-13300706D01*
X65554668Y-13246212D01*
X65744535Y-13151819D01*
X65759361Y-13143033D01*
X65941438Y-13021253D01*
X66115881Y-12877425D01*
X66286591Y-12707450D01*
X66457469Y-12507228D01*
X66632416Y-12272658D01*
X66746403Y-12105508D01*
X66850295Y-11950177D01*
X66935121Y-11828271D01*
X67003956Y-11737129D01*
X67059871Y-11674094D01*
X67105940Y-11636505D01*
X67145236Y-11621703D01*
X67180831Y-11627029D01*
X67215797Y-11649823D01*
X67242709Y-11675983D01*
X67292798Y-11729300D01*
X67235072Y-11959396D01*
X67186440Y-12206858D01*
X67163866Y-12452095D01*
X67166799Y-12688937D01*
X67194686Y-12911210D01*
X67246977Y-13112741D01*
X67323120Y-13287359D01*
X67359012Y-13346607D01*
X67437237Y-13454466D01*
X67533502Y-13572020D01*
X67640693Y-13691910D01*
X67751698Y-13806772D01*
X67859403Y-13909247D01*
X67956697Y-13991973D01*
X68036212Y-14047444D01*
X68066642Y-14086747D01*
X68074541Y-14145589D01*
X68060208Y-14207855D01*
X68032486Y-14249754D01*
X67985103Y-14278596D01*
X67906154Y-14306383D01*
X67833166Y-14324033D01*
X67686959Y-14364889D01*
X67521539Y-14430183D01*
X67342408Y-14516132D01*
X67155064Y-14618954D01*
X66965010Y-14734865D01*
X66777744Y-14860085D01*
X66598768Y-14990829D01*
X66433581Y-15123316D01*
X66287684Y-15253764D01*
X66166577Y-15378389D01*
X66075762Y-15493409D01*
X66036361Y-15559666D01*
X66001510Y-15623623D01*
X65968121Y-15676245D01*
X65956003Y-15691958D01*
X65907599Y-15722432D01*
X65851512Y-15726129D01*
X65806810Y-15701837D01*
X65806485Y-15701450D01*
X65792321Y-15671062D01*
X65777427Y-15611640D01*
X65761349Y-15520373D01*
X65743634Y-15394447D01*
X65723829Y-15231051D01*
X65708602Y-15094000D01*
X65663250Y-14787374D01*
X65596665Y-14505108D01*
X65510076Y-14250568D01*
X65404717Y-14027115D01*
X65281817Y-13838114D01*
X65222868Y-13767142D01*
X65109819Y-13664573D01*
X64981243Y-13591799D01*
X65434792Y-13591799D01*
X65452491Y-13631067D01*
X65479669Y-13678564D01*
X65521773Y-13746696D01*
X65569918Y-13821096D01*
X65572151Y-13824463D01*
X65701443Y-14045207D01*
X65803915Y-14280148D01*
X65882507Y-14537291D01*
X65940154Y-14824638D01*
X65940905Y-14829416D01*
X65959428Y-14944630D01*
X65973850Y-15024290D01*
X65985926Y-15074768D01*
X65997410Y-15102435D01*
X66010056Y-15113664D01*
X66019560Y-15115166D01*
X66044774Y-15101893D01*
X66092691Y-15066369D01*
X66154889Y-15015037D01*
X66186246Y-14987650D01*
X66431313Y-14786379D01*
X66706006Y-14589886D01*
X66997759Y-14406405D01*
X67294007Y-14244172D01*
X67400063Y-14192210D01*
X67501567Y-14141194D01*
X67564782Y-14102536D01*
X67588924Y-14076742D01*
X67588224Y-14071208D01*
X67569897Y-14046035D01*
X67530324Y-13995217D01*
X67475101Y-13925842D01*
X67409828Y-13844998D01*
X67401358Y-13834583D01*
X67269495Y-13667721D01*
X67164742Y-13521792D01*
X67083601Y-13388488D01*
X67022574Y-13259499D01*
X66978163Y-13126513D01*
X66946869Y-12981222D01*
X66925194Y-12815316D01*
X66913362Y-12675386D01*
X66905397Y-12586235D01*
X66895956Y-12514055D01*
X66886469Y-12468532D01*
X66881252Y-12457978D01*
X66862171Y-12469279D01*
X66824236Y-12508235D01*
X66773470Y-12568248D01*
X66731180Y-12622341D01*
X66539208Y-12855875D01*
X66345486Y-13050783D01*
X66145448Y-13210677D01*
X65934531Y-13339171D01*
X65708170Y-13439878D01*
X65689773Y-13446655D01*
X65604597Y-13479141D01*
X65529893Y-13510394D01*
X65478484Y-13534963D01*
X65469407Y-13540290D01*
X65437991Y-13565199D01*
X65434792Y-13591799D01*
X64981243Y-13591799D01*
X64976029Y-13588848D01*
X64850500Y-13544385D01*
G37*
X64850500Y-13544385D02*
X64778329Y-13511303D01*
X64746337Y-13464910D01*
X64754494Y-13405139D01*
X64773144Y-13370939D01*
X64836481Y-13310402D01*
X64922268Y-13283259D01*
X65024848Y-13291249D01*
X65029123Y-13292299D01*
X65199782Y-13315876D01*
X65374024Y-13300706D01*
X65554668Y-13246212D01*
X65744535Y-13151819D01*
X65759361Y-13143033D01*
X65941438Y-13021253D01*
X66115881Y-12877425D01*
X66286591Y-12707450D01*
X66457469Y-12507228D01*
X66632416Y-12272658D01*
X66746403Y-12105508D01*
X66850295Y-11950177D01*
X66935121Y-11828271D01*
X67003956Y-11737129D01*
X67059871Y-11674094D01*
X67105940Y-11636505D01*
X67145236Y-11621703D01*
X67180831Y-11627029D01*
X67215797Y-11649823D01*
X67242709Y-11675983D01*
X67292798Y-11729300D01*
X67235072Y-11959396D01*
X67186440Y-12206858D01*
X67163866Y-12452095D01*
X67166799Y-12688937D01*
X67194686Y-12911210D01*
X67246977Y-13112741D01*
X67323120Y-13287359D01*
X67359012Y-13346607D01*
X67437237Y-13454466D01*
X67533502Y-13572020D01*
X67640693Y-13691910D01*
X67751698Y-13806772D01*
X67859403Y-13909247D01*
X67956697Y-13991973D01*
X68036212Y-14047444D01*
X68066642Y-14086747D01*
X68074541Y-14145589D01*
X68060208Y-14207855D01*
X68032486Y-14249754D01*
X67985103Y-14278596D01*
X67906154Y-14306383D01*
X67833166Y-14324033D01*
X67686959Y-14364889D01*
X67521539Y-14430183D01*
X67342408Y-14516132D01*
X67155064Y-14618954D01*
X66965010Y-14734865D01*
X66777744Y-14860085D01*
X66598768Y-14990829D01*
X66433581Y-15123316D01*
X66287684Y-15253764D01*
X66166577Y-15378389D01*
X66075762Y-15493409D01*
X66036361Y-15559666D01*
X66001510Y-15623623D01*
X65968121Y-15676245D01*
X65956003Y-15691958D01*
X65907599Y-15722432D01*
X65851512Y-15726129D01*
X65806810Y-15701837D01*
X65806485Y-15701450D01*
X65792321Y-15671062D01*
X65777427Y-15611640D01*
X65761349Y-15520373D01*
X65743634Y-15394447D01*
X65723829Y-15231051D01*
X65708602Y-15094000D01*
X65663250Y-14787374D01*
X65596665Y-14505108D01*
X65510076Y-14250568D01*
X65404717Y-14027115D01*
X65281817Y-13838114D01*
X65222868Y-13767142D01*
X65109819Y-13664573D01*
X64981243Y-13591799D01*
X65434792Y-13591799D01*
X65452491Y-13631067D01*
X65479669Y-13678564D01*
X65521773Y-13746696D01*
X65569918Y-13821096D01*
X65572151Y-13824463D01*
X65701443Y-14045207D01*
X65803915Y-14280148D01*
X65882507Y-14537291D01*
X65940154Y-14824638D01*
X65940905Y-14829416D01*
X65959428Y-14944630D01*
X65973850Y-15024290D01*
X65985926Y-15074768D01*
X65997410Y-15102435D01*
X66010056Y-15113664D01*
X66019560Y-15115166D01*
X66044774Y-15101893D01*
X66092691Y-15066369D01*
X66154889Y-15015037D01*
X66186246Y-14987650D01*
X66431313Y-14786379D01*
X66706006Y-14589886D01*
X66997759Y-14406405D01*
X67294007Y-14244172D01*
X67400063Y-14192210D01*
X67501567Y-14141194D01*
X67564782Y-14102536D01*
X67588924Y-14076742D01*
X67588224Y-14071208D01*
X67569897Y-14046035D01*
X67530324Y-13995217D01*
X67475101Y-13925842D01*
X67409828Y-13844998D01*
X67401358Y-13834583D01*
X67269495Y-13667721D01*
X67164742Y-13521792D01*
X67083601Y-13388488D01*
X67022574Y-13259499D01*
X66978163Y-13126513D01*
X66946869Y-12981222D01*
X66925194Y-12815316D01*
X66913362Y-12675386D01*
X66905397Y-12586235D01*
X66895956Y-12514055D01*
X66886469Y-12468532D01*
X66881252Y-12457978D01*
X66862171Y-12469279D01*
X66824236Y-12508235D01*
X66773470Y-12568248D01*
X66731180Y-12622341D01*
X66539208Y-12855875D01*
X66345486Y-13050783D01*
X66145448Y-13210677D01*
X65934531Y-13339171D01*
X65708170Y-13439878D01*
X65689773Y-13446655D01*
X65604597Y-13479141D01*
X65529893Y-13510394D01*
X65478484Y-13534963D01*
X65469407Y-13540290D01*
X65437991Y-13565199D01*
X65434792Y-13591799D01*
X64981243Y-13591799D01*
X64976029Y-13588848D01*
X64850500Y-13544385D01*
D12*
%TO.C,D2*%
X116460000Y27620000D02*
X115620000Y27620000D01*
X115620000Y27620000D02*
X115620000Y26410000D01*
X115620000Y26410000D02*
X116460000Y26410000D01*
X116460000Y26410000D02*
X116460000Y27620000D01*
G36*
X116460000Y27620000D02*
G01*
X115620000Y27620000D01*
X115620000Y26410000D01*
X116460000Y26410000D01*
X116460000Y27620000D01*
G37*
%TD*%
D13*
%TO.C,R9*%
X110050000Y29700000D03*
X110050000Y31350000D03*
%TD*%
D14*
%TO.C,SW12*%
X35781444Y16778782D03*
X40889731Y14843477D03*
D15*
X30600382Y10549088D03*
X41585305Y11124784D03*
X41585305Y11124784D03*
D16*
X36092843Y10836936D03*
D14*
X30903435Y14320117D03*
D15*
X30600381Y10549088D03*
D16*
X36092843Y10836936D03*
X36092843Y10836936D03*
D17*
X36401625Y4945022D03*
D18*
X39051956Y16950182D03*
X27632924Y14148717D03*
D17*
X31298572Y6780464D03*
X41284867Y7303824D03*
%TD*%
D16*
%TO.C,SW8*%
X55813372Y29871818D03*
D14*
X55813372Y35821818D03*
D15*
X50313373Y29871818D03*
D14*
X60813372Y33621818D03*
X50813372Y33621818D03*
D16*
X55813372Y29871818D03*
D15*
X50313372Y29871818D03*
X61313372Y29871818D03*
D16*
X55813372Y29871818D03*
D15*
X61313372Y29871818D03*
D19*
X55813372Y23971818D03*
D20*
X59088372Y35821818D03*
D19*
X50813372Y26071818D03*
X60813372Y26071818D03*
D20*
X47538372Y33621818D03*
%TD*%
D21*
%TO.C,C1*%
X108575000Y28050000D03*
X108575000Y26500000D03*
%TD*%
D22*
%TO.C,ESD1*%
X106962500Y35750000D03*
D23*
X106425000Y35825000D03*
D22*
X105887500Y35750000D03*
X105887500Y34050000D03*
D23*
X106425000Y33975000D03*
D22*
X106962500Y34050000D03*
%TD*%
D24*
%TO.C,D1*%
X114100000Y26212500D03*
X114100000Y27787500D03*
%TD*%
D25*
%TO.C,J2*%
X118070000Y14150000D03*
D26*
X118070000Y12150000D03*
X118070000Y10150000D03*
X118070000Y8150000D03*
%TD*%
D27*
%TO.C,U2*%
X105125000Y23062500D03*
X107025000Y23062500D03*
X106075000Y24937500D03*
%TD*%
D28*
%TO.C,R1*%
X107860000Y40740000D03*
X107860000Y39090000D03*
%TD*%
D15*
%TO.C,SW17*%
X108305450Y-12076134D03*
D16*
X105894409Y-17019501D03*
D14*
X100332076Y-19869579D03*
D15*
X108305450Y-12076134D03*
D14*
X100546584Y-14411193D03*
D15*
X103483368Y-21962867D03*
D16*
X105894409Y-17019501D03*
D14*
X104715787Y-10881639D03*
D16*
X105894409Y-17019501D03*
D15*
X103483368Y-21962868D03*
D29*
X111197294Y-19605891D03*
D30*
X101982250Y-11467642D03*
D29*
X107117971Y-23179282D03*
X111501682Y-14191341D03*
D30*
X98896410Y-22813130D03*
%TD*%
D31*
%TO.C,J4*%
X70240000Y3880000D03*
D32*
X67740000Y3880000D03*
%TD*%
D14*
%TO.C,SW9*%
X69376271Y30705920D03*
D15*
X79809225Y26773241D03*
D16*
X74310063Y26869229D03*
D15*
X68810901Y26965217D03*
X79809225Y26773241D03*
D14*
X74413905Y32818323D03*
D15*
X68810902Y26965217D03*
D16*
X74310063Y26869229D03*
D14*
X79374748Y30531396D03*
D16*
X74310063Y26869229D03*
D33*
X74207094Y20970128D03*
D34*
X77688406Y32761166D03*
D33*
X79242982Y22982546D03*
X69244505Y23157070D03*
D34*
X66101770Y30763077D03*
%TD*%
D35*
%TO.C,D3*%
X107125000Y27975000D03*
X105025000Y27975000D03*
%TD*%
D28*
%TO.C,R4*%
X110025000Y22800000D03*
X110025000Y21150000D03*
%TD*%
D13*
%TO.C,R8*%
X117580000Y26005000D03*
X117580000Y27655000D03*
%TD*%
D36*
%TO.C,C2*%
X106850000Y20900000D03*
X105300000Y20900000D03*
%TD*%
D37*
%TO.C,U1*%
X122103372Y18721818D03*
X121003372Y18721818D03*
X119903372Y18721818D03*
X118803372Y18721818D03*
X117703372Y18721818D03*
X116603372Y18721818D03*
X115503372Y18721818D03*
X114403372Y18721818D03*
X113303372Y18721818D03*
X112203372Y18721818D03*
X111103372Y18721818D03*
X110003372Y18721818D03*
X108903372Y18721818D03*
D38*
X107403372Y17471818D03*
X107403372Y16371818D03*
X107403372Y15271818D03*
X107403372Y14171818D03*
X107403372Y13071818D03*
X107403372Y11971818D03*
X107403372Y10871818D03*
X107403372Y9771818D03*
X107403372Y8671818D03*
X107403372Y7571818D03*
X107403372Y6471818D03*
D39*
X108903372Y5221818D03*
X110003372Y5221818D03*
X111103372Y5221818D03*
X112203372Y5221818D03*
X113303372Y5221818D03*
X114403372Y5221818D03*
X115503372Y5221818D03*
X116603372Y5221818D03*
X117703372Y5221818D03*
X118803372Y5221818D03*
X119903372Y5221818D03*
X121003372Y5221818D03*
X122103372Y5221818D03*
%TD*%
D40*
%TO.C,*%
X-160000Y44585000D03*
X-2976726Y45751726D03*
X-1810000Y42935000D03*
D41*
X-1810000Y44585000D03*
D40*
X-1810000Y46235000D03*
X-643274Y43418274D03*
X-2976726Y43418274D03*
X-3460000Y44585000D03*
X-643274Y45751726D03*
%TD*%
D15*
%TO.C,SW1*%
X-6960719Y16455953D03*
D16*
X-1481648Y16935310D03*
D15*
X3997423Y17414667D03*
D14*
X-6789456Y20235261D03*
D15*
X-6960718Y16455954D03*
D14*
X3172491Y21106819D03*
D15*
X3997423Y17414667D03*
D16*
X-1481648Y16935310D03*
D14*
X-2000225Y22862668D03*
D16*
X-1481648Y16935310D03*
D42*
X1262313Y23148104D03*
D43*
X-967429Y11057761D03*
X3830517Y13585549D03*
D42*
X-10051993Y19949826D03*
D43*
X-6131430Y12713991D03*
%TD*%
D40*
%TO.C,REF\u002A\u002A*%
X97530000Y-12595000D03*
X97046726Y-13761726D03*
X94713274Y-11428274D03*
X97046726Y-11428274D03*
D41*
X95880000Y-12595000D03*
D40*
X94713274Y-13761726D03*
X95880000Y-14245000D03*
X95880000Y-10945000D03*
X94230000Y-12595000D03*
%TD*%
D15*
%TO.C,SW11*%
X23410576Y2048160D03*
D14*
X17412928Y7496161D03*
D16*
X17931505Y1568803D03*
D15*
X12452435Y1089447D03*
D16*
X17931505Y1568803D03*
X17931505Y1568803D03*
D15*
X12452434Y1089446D03*
X23410576Y2048160D03*
D14*
X22585644Y5740312D03*
X12623697Y4868754D03*
D42*
X20675466Y7781597D03*
D43*
X18445724Y-4308746D03*
D42*
X9361160Y4583319D03*
D43*
X13281723Y-2652516D03*
X23243670Y-1780958D03*
%TD*%
D15*
%TO.C,SW4*%
X80105916Y43770651D03*
D16*
X74606754Y43866639D03*
D15*
X69107592Y43962627D03*
X69107593Y43962627D03*
D16*
X74606754Y43866639D03*
D14*
X79671439Y47528806D03*
D15*
X80105916Y43770651D03*
D16*
X74606754Y43866639D03*
D14*
X74710596Y49815733D03*
X69672962Y47703330D03*
D34*
X77985097Y49758576D03*
D33*
X74503785Y37967538D03*
X79539673Y39979956D03*
X69541196Y40154480D03*
D34*
X66398461Y47760487D03*
%TD*%
D41*
%TO.C,*%
X-5120000Y-7155000D03*
D40*
X-3953274Y-8321726D03*
X-5120000Y-8805000D03*
X-5120000Y-5505000D03*
X-6286726Y-5988274D03*
X-3470000Y-7155000D03*
X-6770000Y-7155000D03*
X-3953274Y-5988274D03*
X-6286726Y-8321726D03*
%TD*%
D44*
%TO.C,R_TACT1*%
X114754782Y41772447D03*
X115698270Y45370867D03*
%TD*%
D45*
%TO.C,R5*%
X111800000Y21150000D03*
X113450000Y21150000D03*
%TD*%
D14*
%TO.C,SW6*%
X11142049Y21804064D03*
D16*
X16449857Y18504113D03*
D14*
X15931280Y24431471D03*
D15*
X10970786Y18024756D03*
X21928928Y18983470D03*
X10970787Y18024757D03*
D16*
X16449857Y18504113D03*
D15*
X21928928Y18983470D03*
D14*
X21103996Y22675622D03*
D16*
X16449857Y18504113D03*
D43*
X16964076Y12626564D03*
D42*
X19193818Y24716907D03*
X7879512Y21518629D03*
D43*
X11800075Y14282794D03*
X21762022Y15154352D03*
%TD*%
D46*
%TO.C,SW_POW1*%
X119654850Y33437904D03*
X119101977Y41045035D03*
D47*
X118845530Y38643632D03*
D46*
X117038764Y40253042D03*
D47*
X119920633Y35842891D03*
D46*
X121718063Y34229898D03*
D48*
X118546308Y34511978D03*
X117471204Y37312719D03*
X116933652Y38713090D03*
%TD*%
D28*
%TO.C,R2*%
X105150000Y40710000D03*
X105150000Y39060000D03*
%TD*%
%TO.C,R6*%
X114070000Y24825000D03*
X114070000Y23175000D03*
%TD*%
D15*
%TO.C,SW10*%
X98213310Y21356133D03*
X98213310Y21356133D03*
D16*
X92716660Y21548080D03*
X92716660Y21548080D03*
X92716660Y21548080D03*
D14*
X92924312Y27494455D03*
X97844487Y25121298D03*
D15*
X87220011Y21740027D03*
X87220010Y21740027D03*
D14*
X87850579Y25470293D03*
D49*
X92510753Y15651674D03*
D50*
X96197317Y27380160D03*
D49*
X97580996Y17575897D03*
X87587088Y17924892D03*
D50*
X84577574Y25584589D03*
%TD*%
D16*
%TO.C,SW5*%
X93309951Y38537724D03*
D14*
X98437778Y42110942D03*
D15*
X98806601Y38345777D03*
X98806601Y38345777D03*
X87813302Y38729671D03*
D14*
X88443870Y42459937D03*
X93517603Y44484099D03*
D16*
X93309951Y38537724D03*
D15*
X87813301Y38729671D03*
D16*
X93309951Y38537724D03*
D50*
X96790608Y44369804D03*
D49*
X93104044Y32641318D03*
X98174287Y34565541D03*
D50*
X85170865Y42574233D03*
D49*
X88180379Y34914536D03*
%TD*%
D51*
%TO.C,Q1*%
X105512500Y31600000D03*
X105512500Y29700000D03*
X107387500Y30650000D03*
%TD*%
D28*
%TO.C,R7*%
X116030000Y24825000D03*
X116030000Y23175000D03*
%TD*%
%TO.C,R3*%
X103775000Y8000000D03*
X103775000Y6350000D03*
%TD*%
D52*
%TO.C,J1*%
X104012194Y44641795D03*
X110227611Y42918108D03*
X104759008Y44434686D03*
X109480797Y43125218D03*
D53*
X108324440Y43445904D03*
X107360810Y43713142D03*
X106878995Y43846761D03*
X105915364Y44114000D03*
X105433549Y44247619D03*
X106397180Y43980380D03*
X107842625Y43579523D03*
X108806256Y43312285D03*
D54*
X103076568Y50230074D03*
D55*
X102007615Y46375552D03*
X112838821Y43371793D03*
D54*
X113907776Y47226314D03*
%TD*%
D16*
%TO.C,SW14*%
X74013372Y9871818D03*
X74013372Y9871818D03*
D15*
X68514210Y9967806D03*
X68514211Y9967806D03*
D14*
X69079580Y13708509D03*
D15*
X79512534Y9775830D03*
D14*
X79078057Y13533985D03*
D16*
X74013372Y9871818D03*
D14*
X74117214Y15820912D03*
D15*
X79512534Y9775830D03*
D33*
X73910403Y3972717D03*
D34*
X77391715Y15763755D03*
D33*
X68947814Y6159659D03*
X78946291Y5985135D03*
D34*
X65805079Y13765666D03*
%TD*%
D41*
%TO.C,*%
X87210000Y50945000D03*
D40*
X87210000Y52595000D03*
X87210000Y49295000D03*
X88860000Y50945000D03*
X86043274Y49778274D03*
X85560000Y50945000D03*
X88376726Y49778274D03*
X88376726Y52111726D03*
X86043274Y52111726D03*
%TD*%
D15*
%TO.C,SW7*%
X40695594Y28101486D03*
D16*
X35203132Y27813638D03*
X35203132Y27813638D03*
D14*
X30013724Y31296819D03*
D15*
X29710670Y27525790D03*
D16*
X35203132Y27813638D03*
D14*
X40000020Y31820179D03*
D15*
X40695594Y28101486D03*
X29710671Y27525790D03*
D14*
X34891733Y33755484D03*
D17*
X35511914Y21921724D03*
D18*
X38162245Y33926884D03*
D17*
X30408861Y23757166D03*
X40395156Y24280526D03*
D18*
X26743213Y31125419D03*
%TD*%
D56*
%TO.C,J5*%
X122629056Y30024423D03*
D57*
X123010674Y28061169D03*
X123392292Y26097914D03*
X123773910Y24134660D03*
%TD*%
D16*
%TO.C,SW2*%
X34313420Y44790341D03*
D14*
X29124012Y48273522D03*
X34002021Y50732187D03*
D15*
X39805882Y45078189D03*
X39805882Y45078189D03*
X28820959Y44502493D03*
D14*
X39110308Y48796882D03*
D16*
X34313420Y44790341D03*
D15*
X28820958Y44502493D03*
D16*
X34313420Y44790341D03*
D18*
X37272533Y50903587D03*
D17*
X34622202Y38898427D03*
X29519149Y40733869D03*
X39505444Y41257229D03*
D18*
X25853501Y48102122D03*
%TD*%
D16*
%TO.C,SW13*%
X55813372Y12871818D03*
D14*
X60813372Y16621818D03*
X50813372Y16621818D03*
D15*
X50313373Y12871818D03*
X61313372Y12871818D03*
D16*
X55813372Y12871818D03*
D14*
X55813372Y18821818D03*
D16*
X55813372Y12871818D03*
D15*
X50313372Y12871818D03*
X61313372Y12871818D03*
D19*
X55813372Y6971818D03*
D20*
X59088372Y18821818D03*
X47538372Y16621818D03*
D19*
X60813372Y9071818D03*
X50813372Y9071818D03*
%TD*%
D58*
%TO.C,U3*%
X119270000Y25402500D03*
X120220000Y25402500D03*
X121170000Y25402500D03*
X121170000Y27677500D03*
X119270000Y27677500D03*
%TD*%
D14*
%TO.C,SW16*%
X85001988Y-8595791D03*
D16*
X83866674Y-14436473D03*
X83866674Y-14436473D03*
D15*
X89265624Y-15485922D03*
D14*
X79674072Y-9801326D03*
D16*
X83866674Y-14436473D03*
D15*
X78467725Y-13387024D03*
X78467724Y-13387024D03*
X89265624Y-15485922D03*
D14*
X89490344Y-11709416D03*
D59*
X88216817Y-9220691D03*
D60*
X82740901Y-20228073D03*
X88049736Y-19120701D03*
D59*
X76459243Y-9176427D03*
D60*
X78233464Y-17212611D03*
%TD*%
D25*
%TO.C,J3*%
X115140000Y14130000D03*
D26*
X115140000Y12130000D03*
X115140000Y10130000D03*
X115140000Y8130000D03*
%TD*%
D61*
%TO.C,R10*%
X98745005Y47460472D03*
X100334995Y47019528D03*
%TD*%
D62*
%TO.C,C3*%
X99214551Y49703876D03*
X101045449Y49196124D03*
%TD*%
D16*
%TO.C,SW15*%
X92123368Y4558436D03*
X92123368Y4558436D03*
D14*
X92331020Y10504811D03*
D15*
X86626718Y4750383D03*
D16*
X92123368Y4558436D03*
D14*
X87257287Y8480649D03*
D15*
X97620018Y4366489D03*
X86626719Y4750383D03*
X97620018Y4366489D03*
D14*
X97251195Y8131654D03*
D49*
X91917461Y-1337970D03*
D50*
X95604025Y10390516D03*
D49*
X96987704Y586253D03*
D50*
X83984282Y8594945D03*
D49*
X86993796Y935248D03*
%TD*%
D27*
%TO.C,Q2*%
X110300000Y24887500D03*
X112200000Y24887500D03*
X111250000Y26762500D03*
%TD*%
D40*
%TO.C,TENT1*%
X28308572Y27045000D03*
X45708572Y9645000D03*
X44541846Y47261726D03*
X45708572Y6345000D03*
X64758572Y28695000D03*
X27825298Y25878274D03*
X63591846Y25878274D03*
X65925298Y25878274D03*
X66408572Y27045000D03*
X26658572Y25395000D03*
X45708572Y44445000D03*
X47358572Y7995000D03*
X65925298Y28211726D03*
X25008572Y27045000D03*
D41*
X45708572Y46095000D03*
D40*
X45708572Y47745000D03*
X46875298Y9161726D03*
X46875298Y6828274D03*
X26658572Y28695000D03*
X25491846Y25878274D03*
D41*
X45708572Y7995000D03*
D40*
X27825298Y28211726D03*
X44541846Y9161726D03*
X64758572Y25395000D03*
X47358572Y46095000D03*
X46875298Y44928274D03*
X44058572Y46095000D03*
X63108572Y27045000D03*
X25491846Y28211726D03*
D41*
X26658572Y27045000D03*
D40*
X63591846Y28211726D03*
X44541846Y6828274D03*
X46875298Y47261726D03*
X44541846Y44928274D03*
X44058572Y7995000D03*
D41*
X64758572Y27045000D03*
%TD*%
D15*
%TO.C,SW3*%
X50313372Y46871818D03*
D16*
X55813372Y46871818D03*
D14*
X50813372Y50621818D03*
D16*
X55813372Y46871818D03*
X55813372Y46871818D03*
D15*
X61313372Y46871818D03*
D14*
X55813372Y52821818D03*
D15*
X50313373Y46871818D03*
D14*
X60813372Y50621818D03*
D15*
X61313372Y46871818D03*
D19*
X55813372Y40971818D03*
D20*
X59088372Y52821818D03*
D19*
X50813372Y43071818D03*
D20*
X47538372Y50621818D03*
D19*
X60813372Y43071818D03*
%TD*%
D24*
%TO.C,D2*%
X116040000Y26212500D03*
X116040000Y27787500D03*
%TD*%
D47*
%TO.C,SW_POW2*%
X119920633Y35842891D03*
X118845530Y38643632D03*
%TD*%
M02*
