%TF.GenerationSoftware,KiCad,Pcbnew,6.0.4-6f826c9f35~116~ubuntu20.04.1*%
%TF.CreationDate,2022-05-20T17:44:35+02:00*%
%TF.ProjectId,Wubbo,57756262-6f2e-46b6-9963-61645f706362,v0.3*%
%TF.SameCoordinates,Original*%
%TF.FileFunction,Soldermask,Bot*%
%TF.FilePolarity,Negative*%
%FSLAX46Y46*%
G04 Gerber Fmt 4.6, Leading zero omitted, Abs format (unit mm)*
G04 Created by KiCad (PCBNEW 6.0.4-6f826c9f35~116~ubuntu20.04.1) date 2022-05-20 17:44:35*
%MOMM*%
%LPD*%
G01*
G04 APERTURE LIST*
G04 Aperture macros list*
%AMRoundRect*
0 Rectangle with rounded corners*
0 $1 Rounding radius*
0 $2 $3 $4 $5 $6 $7 $8 $9 X,Y pos of 4 corners*
0 Add a 4 corners polygon primitive as box body*
4,1,4,$2,$3,$4,$5,$6,$7,$8,$9,$2,$3,0*
0 Add four circle primitives for the rounded corners*
1,1,$1+$1,$2,$3*
1,1,$1+$1,$4,$5*
1,1,$1+$1,$6,$7*
1,1,$1+$1,$8,$9*
0 Add four rect primitives between the rounded corners*
20,1,$1+$1,$2,$3,$4,$5,0*
20,1,$1+$1,$4,$5,$6,$7,0*
20,1,$1+$1,$6,$7,$8,$9,0*
20,1,$1+$1,$8,$9,$2,$3,0*%
%AMHorizOval*
0 Thick line with rounded ends*
0 $1 width*
0 $2 $3 position (X,Y) of the first rounded end (center of the circle)*
0 $4 $5 position (X,Y) of the second rounded end (center of the circle)*
0 Add line between two ends*
20,1,$1,$2,$3,$4,$5,0*
0 Add two circle primitives to create the rounded ends*
1,1,$1,$2,$3*
1,1,$1,$4,$5*%
G04 Aperture macros list end*
%TA.AperFunction,Profile*%
%ADD10C,0.150000*%
%TD*%
%ADD11C,0.120000*%
%ADD12C,0.010000*%
%ADD13C,3.100000*%
%ADD14C,1.801800*%
%ADD15C,3.529000*%
%ADD16HorizOval,1.200000X-0.449383X-0.023551X0.449383X0.023551X0*%
%ADD17RoundRect,0.050000X1.230182X1.366255X-1.366255X1.230182X-1.230182X-1.366255X1.366255X-1.230182X0*%
%ADD18RoundRect,0.050000X1.300000X1.300000X-1.300000X1.300000X-1.300000X-1.300000X1.300000X-1.300000X0*%
%ADD19O,2.100000X1.200000*%
%ADD20RoundRect,0.268750X0.256250X-0.218750X0.256250X0.218750X-0.256250X0.218750X-0.256250X-0.218750X0*%
%ADD21RoundRect,0.050000X-0.675000X-0.675000X0.675000X-0.675000X0.675000X0.675000X-0.675000X0.675000X0*%
%ADD22O,1.450000X1.450000*%
%ADD23RoundRect,0.050000X-0.598550X1.738315X-1.738315X-0.598550X0.598550X-1.738315X1.738315X0.598550X0*%
%ADD24HorizOval,1.200000X-0.197267X-0.404457X0.197267X0.404457X0*%
%ADD25RoundRect,0.320833X0.379167X0.654167X-0.379167X0.654167X-0.379167X-0.654167X0.379167X-0.654167X0*%
%ADD26O,1.400000X1.950000*%
%ADD27HorizOval,1.200000X-0.449931X0.007854X0.449931X-0.007854X0*%
%ADD28RoundRect,0.050000X1.322490X1.277114X-1.277114X1.322490X-1.322490X-1.277114X1.277114X-1.322490X0*%
%ADD29C,0.800000*%
%ADD30C,4.500000*%
%ADD31RoundRect,0.050000X1.181751X1.408356X-1.408356X1.181751X-1.181751X-1.408356X1.408356X-1.181751X0*%
%ADD32HorizOval,1.200000X-0.448288X-0.039220X0.448288X0.039220X0*%
%ADD33RoundRect,0.550000X0.612372X0.353553X-0.353553X0.612372X-0.612372X-0.353553X0.353553X-0.612372X0*%
%ADD34C,1.000000*%
%ADD35HorizOval,1.200000X-0.449726X0.015705X0.449726X-0.015705X0*%
%ADD36RoundRect,0.050000X1.344577X1.253839X-1.253839X1.344577X-1.344577X-1.253839X1.253839X-1.344577X0*%
%ADD37HorizOval,1.100000X-0.160343X-0.578178X0.160343X0.578178X0*%
%ADD38HorizOval,1.100000X-0.106895X-0.385452X0.106895X0.385452X0*%
%ADD39RoundRect,0.050000X-0.533802X-0.791394X0.791394X-0.533802X0.533802X0.791394X-0.791394X0.533802X0*%
%ADD40HorizOval,1.450000X0.000000X0.000000X0.000000X0.000000X0*%
%ADD41RoundRect,0.050000X1.524167X1.028064X-1.028064X1.524167X-1.524167X-1.028064X1.028064X-1.524167X0*%
%ADD42HorizOval,1.200000X-0.441732X0.085864X0.441732X-0.085864X0*%
%ADD43RoundRect,0.050000X-0.552616X0.323443X-0.194248X-0.610137X0.552616X-0.323443X0.194248X0.610137X0*%
%ADD44RoundRect,0.050000X-0.825614X0.057977X-0.574757X-0.595529X0.825614X-0.057977X0.574757X0.595529X0*%
G04 APERTURE END LIST*
D10*
X104544530Y51844171D02*
G75*
G03*
X-2083172Y49308466I-48731160J-193972341D01*
G01*
X-5611244Y46442888D02*
G75*
G03*
X-10622661Y-9179340I61424614J-33571068D01*
G01*
X104544530Y51844172D02*
X102813372Y45601818D01*
X110309220Y-31062252D02*
G75*
G03*
X117237987Y46442886I-54495848J43934070D01*
G01*
X111755862Y43121846D02*
X113489973Y49374846D01*
X117237963Y46442874D02*
G75*
G03*
X113709916Y49308466I-5264963J-2877474D01*
G01*
X-2083173Y49308466D02*
G75*
G03*
X-5611244Y46442886I1736897J-5743100D01*
G01*
X103920858Y-33045467D02*
G75*
G03*
X-5334370Y-13275473I-143107476J-479082651D01*
G01*
X102813372Y45601818D02*
X111755862Y43121846D01*
X113709916Y49308466D02*
G75*
G03*
X113489972Y49374846I-59168016J-195650166D01*
G01*
X103920840Y-33045522D02*
G75*
G03*
X110309219Y-31062252I1717260J5749022D01*
G01*
X-10622661Y-9179341D02*
G75*
G03*
X-5334370Y-13275474I5694518J1890101D01*
G01*
D11*
%TO.C,D1*%
X113680000Y27630000D02*
X114520000Y27630000D01*
X114520000Y27630000D02*
X114520000Y26390000D01*
X114520000Y26390000D02*
X113680000Y26390000D01*
X113680000Y26390000D02*
X113680000Y27630000D01*
G36*
X113680000Y27630000D02*
G01*
X114520000Y27630000D01*
X114520000Y26390000D01*
X113680000Y26390000D01*
X113680000Y27630000D01*
G37*
%TO.C,GR5*%
G36*
X48104326Y-8795072D02*
G01*
X48214333Y-8685930D01*
X48324709Y-8606323D01*
X48333240Y-8601567D01*
X48488168Y-8535738D01*
X48667980Y-8489541D01*
X48859269Y-8464560D01*
X49048627Y-8462375D01*
X49222645Y-8484570D01*
X49256509Y-8492613D01*
X49435609Y-8559346D01*
X49612720Y-8663898D01*
X49781795Y-8801950D01*
X49936790Y-8969181D01*
X49954268Y-8991149D01*
X50090619Y-9192616D01*
X50193486Y-9402611D01*
X50263364Y-9617135D01*
X50300746Y-9832189D01*
X50306128Y-10043774D01*
X50280004Y-10247893D01*
X50222870Y-10440545D01*
X50135219Y-10617733D01*
X50017546Y-10775457D01*
X49870345Y-10909719D01*
X49704358Y-11011523D01*
X49632311Y-11045680D01*
X49573057Y-11068166D01*
X49513368Y-11081848D01*
X49440018Y-11089593D01*
X49339779Y-11094268D01*
X49319416Y-11094953D01*
X49217709Y-11097239D01*
X49125637Y-11097422D01*
X49055184Y-11095579D01*
X49024416Y-11093020D01*
X48889787Y-11068663D01*
X48781506Y-11037860D01*
X48683599Y-10995072D01*
X48594992Y-10944141D01*
X48386976Y-10793748D01*
X48207969Y-10621978D01*
X48059361Y-10432732D01*
X47942540Y-10229912D01*
X47858897Y-10017420D01*
X47809820Y-9799159D01*
X47796699Y-9579030D01*
X47820922Y-9360935D01*
X47883879Y-9148777D01*
X47923868Y-9059002D01*
X47984128Y-8957117D01*
X49142376Y-8957117D01*
X49163747Y-9014708D01*
X49216505Y-9089328D01*
X49276902Y-9158596D01*
X49398119Y-9319133D01*
X49483153Y-9493892D01*
X49531520Y-9677472D01*
X49542732Y-9864467D01*
X49516305Y-10049477D01*
X49451752Y-10227098D01*
X49383524Y-10344281D01*
X49321109Y-10448010D01*
X49292381Y-10528853D01*
X49296819Y-10588856D01*
X49314400Y-10614933D01*
X49366479Y-10638607D01*
X49437188Y-10625133D01*
X49492070Y-10596771D01*
X49605114Y-10502802D01*
X49695341Y-10377747D01*
X49760605Y-10227465D01*
X49798755Y-10057815D01*
X49807644Y-9874657D01*
X49798204Y-9761953D01*
X49765341Y-9577607D01*
X49718822Y-9406184D01*
X49661035Y-9251160D01*
X49594369Y-9116011D01*
X49521215Y-9004211D01*
X49443961Y-8919238D01*
X49364998Y-8864567D01*
X49286713Y-8843673D01*
X49211498Y-8860033D01*
X49187876Y-8874116D01*
X49150912Y-8911829D01*
X49142376Y-8957117D01*
X47984128Y-8957117D01*
X48004301Y-8923010D01*
X48104326Y-8795072D01*
G37*
D12*
X48104326Y-8795072D02*
X48214333Y-8685930D01*
X48324709Y-8606323D01*
X48333240Y-8601567D01*
X48488168Y-8535738D01*
X48667980Y-8489541D01*
X48859269Y-8464560D01*
X49048627Y-8462375D01*
X49222645Y-8484570D01*
X49256509Y-8492613D01*
X49435609Y-8559346D01*
X49612720Y-8663898D01*
X49781795Y-8801950D01*
X49936790Y-8969181D01*
X49954268Y-8991149D01*
X50090619Y-9192616D01*
X50193486Y-9402611D01*
X50263364Y-9617135D01*
X50300746Y-9832189D01*
X50306128Y-10043774D01*
X50280004Y-10247893D01*
X50222870Y-10440545D01*
X50135219Y-10617733D01*
X50017546Y-10775457D01*
X49870345Y-10909719D01*
X49704358Y-11011523D01*
X49632311Y-11045680D01*
X49573057Y-11068166D01*
X49513368Y-11081848D01*
X49440018Y-11089593D01*
X49339779Y-11094268D01*
X49319416Y-11094953D01*
X49217709Y-11097239D01*
X49125637Y-11097422D01*
X49055184Y-11095579D01*
X49024416Y-11093020D01*
X48889787Y-11068663D01*
X48781506Y-11037860D01*
X48683599Y-10995072D01*
X48594992Y-10944141D01*
X48386976Y-10793748D01*
X48207969Y-10621978D01*
X48059361Y-10432732D01*
X47942540Y-10229912D01*
X47858897Y-10017420D01*
X47809820Y-9799159D01*
X47796699Y-9579030D01*
X47820922Y-9360935D01*
X47883879Y-9148777D01*
X47923868Y-9059002D01*
X47984128Y-8957117D01*
X49142376Y-8957117D01*
X49163747Y-9014708D01*
X49216505Y-9089328D01*
X49276902Y-9158596D01*
X49398119Y-9319133D01*
X49483153Y-9493892D01*
X49531520Y-9677472D01*
X49542732Y-9864467D01*
X49516305Y-10049477D01*
X49451752Y-10227098D01*
X49383524Y-10344281D01*
X49321109Y-10448010D01*
X49292381Y-10528853D01*
X49296819Y-10588856D01*
X49314400Y-10614933D01*
X49366479Y-10638607D01*
X49437188Y-10625133D01*
X49492070Y-10596771D01*
X49605114Y-10502802D01*
X49695341Y-10377747D01*
X49760605Y-10227465D01*
X49798755Y-10057815D01*
X49807644Y-9874657D01*
X49798204Y-9761953D01*
X49765341Y-9577607D01*
X49718822Y-9406184D01*
X49661035Y-9251160D01*
X49594369Y-9116011D01*
X49521215Y-9004211D01*
X49443961Y-8919238D01*
X49364998Y-8864567D01*
X49286713Y-8843673D01*
X49211498Y-8860033D01*
X49187876Y-8874116D01*
X49150912Y-8911829D01*
X49142376Y-8957117D01*
X47984128Y-8957117D01*
X48004301Y-8923010D01*
X48104326Y-8795072D01*
G36*
X35643983Y-14672583D02*
G01*
X35672739Y-14322111D01*
X35726676Y-13999570D01*
X35805179Y-13706143D01*
X35907635Y-13443018D01*
X36033428Y-13211378D01*
X36181944Y-13012410D01*
X36352570Y-12847299D01*
X36544691Y-12717230D01*
X36693799Y-12646807D01*
X36730850Y-12633100D01*
X36768644Y-12622238D01*
X36812729Y-12613795D01*
X36868655Y-12607346D01*
X36941972Y-12602467D01*
X37038230Y-12598733D01*
X37162979Y-12595719D01*
X37321767Y-12593001D01*
X37414500Y-12591636D01*
X37653446Y-12588149D01*
X37853627Y-12585188D01*
X38018610Y-12582872D01*
X38151960Y-12581318D01*
X38257245Y-12580647D01*
X38338030Y-12580977D01*
X38397882Y-12582426D01*
X38440368Y-12585114D01*
X38469053Y-12589160D01*
X38487505Y-12594682D01*
X38499289Y-12601799D01*
X38507972Y-12610631D01*
X38517120Y-12621295D01*
X38524315Y-12628621D01*
X38561436Y-12673290D01*
X38589009Y-12732422D01*
X38609446Y-12814119D01*
X38625162Y-12926483D01*
X38631170Y-12987363D01*
X38654725Y-13170734D01*
X38693584Y-13382232D01*
X38744997Y-13611694D01*
X38806214Y-13848955D01*
X38874485Y-14083853D01*
X38947060Y-14306223D01*
X39021190Y-14505902D01*
X39077932Y-14638522D01*
X39111733Y-14715091D01*
X39137070Y-14778899D01*
X39149563Y-14818711D01*
X39150166Y-14823730D01*
X39140277Y-14837805D01*
X39106440Y-14846689D01*
X39042400Y-14851284D01*
X38950614Y-14852500D01*
X38717857Y-14861176D01*
X38518280Y-14888456D01*
X38346173Y-14936217D01*
X38195829Y-15006334D01*
X38061537Y-15100684D01*
X37986676Y-15169323D01*
X37935392Y-15226896D01*
X37867812Y-15311936D01*
X37790184Y-15416083D01*
X37708760Y-15530975D01*
X37637895Y-15635901D01*
X37519942Y-15810553D01*
X37416928Y-15951561D01*
X37324329Y-16062877D01*
X37237620Y-16148450D01*
X37152276Y-16212231D01*
X37063772Y-16258170D01*
X36967586Y-16290218D01*
X36864039Y-16311546D01*
X36663658Y-16330905D01*
X36478658Y-16319802D01*
X36398500Y-16305223D01*
X36224482Y-16246817D01*
X36072436Y-16152734D01*
X35942686Y-16023677D01*
X35835558Y-15860350D01*
X35751376Y-15663457D01*
X35690467Y-15433702D01*
X35653155Y-15171788D01*
X35639952Y-14882500D01*
X35890037Y-14882500D01*
X35903502Y-15148526D01*
X35934851Y-15394711D01*
X35965341Y-15540416D01*
X36013935Y-15694245D01*
X36076142Y-15826866D01*
X36147903Y-15930919D01*
X36214540Y-15992203D01*
X36303507Y-16048330D01*
X36362972Y-16075044D01*
X36393635Y-16072592D01*
X36398500Y-16057522D01*
X36387319Y-16028132D01*
X36358806Y-15978322D01*
X36337896Y-15946397D01*
X36227877Y-15750121D01*
X36145861Y-15525204D01*
X36092593Y-15275394D01*
X36068821Y-15004443D01*
X36075291Y-14716099D01*
X36080553Y-14653783D01*
X36130606Y-14291485D01*
X36209269Y-13959719D01*
X36316960Y-13657432D01*
X36454100Y-13383572D01*
X36621110Y-13137086D01*
X36743387Y-12993729D01*
X36798126Y-12932424D01*
X36837900Y-12883085D01*
X36856727Y-12853358D01*
X36856969Y-12848580D01*
X36827893Y-12847805D01*
X36774378Y-12872663D01*
X36702139Y-12919078D01*
X36616894Y-12982970D01*
X36524358Y-13060262D01*
X36430248Y-13146876D01*
X36407196Y-13169456D01*
X36293065Y-13288201D01*
X36205826Y-13394518D01*
X36138285Y-13500547D01*
X36083247Y-13618431D01*
X36033515Y-13760313D01*
X36009308Y-13840878D01*
X35954092Y-14075823D01*
X35915618Y-14335105D01*
X35894171Y-14607678D01*
X35890037Y-14882500D01*
X35639952Y-14882500D01*
X35639765Y-14878418D01*
X35643983Y-14672583D01*
G37*
X35643983Y-14672583D02*
X35672739Y-14322111D01*
X35726676Y-13999570D01*
X35805179Y-13706143D01*
X35907635Y-13443018D01*
X36033428Y-13211378D01*
X36181944Y-13012410D01*
X36352570Y-12847299D01*
X36544691Y-12717230D01*
X36693799Y-12646807D01*
X36730850Y-12633100D01*
X36768644Y-12622238D01*
X36812729Y-12613795D01*
X36868655Y-12607346D01*
X36941972Y-12602467D01*
X37038230Y-12598733D01*
X37162979Y-12595719D01*
X37321767Y-12593001D01*
X37414500Y-12591636D01*
X37653446Y-12588149D01*
X37853627Y-12585188D01*
X38018610Y-12582872D01*
X38151960Y-12581318D01*
X38257245Y-12580647D01*
X38338030Y-12580977D01*
X38397882Y-12582426D01*
X38440368Y-12585114D01*
X38469053Y-12589160D01*
X38487505Y-12594682D01*
X38499289Y-12601799D01*
X38507972Y-12610631D01*
X38517120Y-12621295D01*
X38524315Y-12628621D01*
X38561436Y-12673290D01*
X38589009Y-12732422D01*
X38609446Y-12814119D01*
X38625162Y-12926483D01*
X38631170Y-12987363D01*
X38654725Y-13170734D01*
X38693584Y-13382232D01*
X38744997Y-13611694D01*
X38806214Y-13848955D01*
X38874485Y-14083853D01*
X38947060Y-14306223D01*
X39021190Y-14505902D01*
X39077932Y-14638522D01*
X39111733Y-14715091D01*
X39137070Y-14778899D01*
X39149563Y-14818711D01*
X39150166Y-14823730D01*
X39140277Y-14837805D01*
X39106440Y-14846689D01*
X39042400Y-14851284D01*
X38950614Y-14852500D01*
X38717857Y-14861176D01*
X38518280Y-14888456D01*
X38346173Y-14936217D01*
X38195829Y-15006334D01*
X38061537Y-15100684D01*
X37986676Y-15169323D01*
X37935392Y-15226896D01*
X37867812Y-15311936D01*
X37790184Y-15416083D01*
X37708760Y-15530975D01*
X37637895Y-15635901D01*
X37519942Y-15810553D01*
X37416928Y-15951561D01*
X37324329Y-16062877D01*
X37237620Y-16148450D01*
X37152276Y-16212231D01*
X37063772Y-16258170D01*
X36967586Y-16290218D01*
X36864039Y-16311546D01*
X36663658Y-16330905D01*
X36478658Y-16319802D01*
X36398500Y-16305223D01*
X36224482Y-16246817D01*
X36072436Y-16152734D01*
X35942686Y-16023677D01*
X35835558Y-15860350D01*
X35751376Y-15663457D01*
X35690467Y-15433702D01*
X35653155Y-15171788D01*
X35639952Y-14882500D01*
X35890037Y-14882500D01*
X35903502Y-15148526D01*
X35934851Y-15394711D01*
X35965341Y-15540416D01*
X36013935Y-15694245D01*
X36076142Y-15826866D01*
X36147903Y-15930919D01*
X36214540Y-15992203D01*
X36303507Y-16048330D01*
X36362972Y-16075044D01*
X36393635Y-16072592D01*
X36398500Y-16057522D01*
X36387319Y-16028132D01*
X36358806Y-15978322D01*
X36337896Y-15946397D01*
X36227877Y-15750121D01*
X36145861Y-15525204D01*
X36092593Y-15275394D01*
X36068821Y-15004443D01*
X36075291Y-14716099D01*
X36080553Y-14653783D01*
X36130606Y-14291485D01*
X36209269Y-13959719D01*
X36316960Y-13657432D01*
X36454100Y-13383572D01*
X36621110Y-13137086D01*
X36743387Y-12993729D01*
X36798126Y-12932424D01*
X36837900Y-12883085D01*
X36856727Y-12853358D01*
X36856969Y-12848580D01*
X36827893Y-12847805D01*
X36774378Y-12872663D01*
X36702139Y-12919078D01*
X36616894Y-12982970D01*
X36524358Y-13060262D01*
X36430248Y-13146876D01*
X36407196Y-13169456D01*
X36293065Y-13288201D01*
X36205826Y-13394518D01*
X36138285Y-13500547D01*
X36083247Y-13618431D01*
X36033515Y-13760313D01*
X36009308Y-13840878D01*
X35954092Y-14075823D01*
X35915618Y-14335105D01*
X35894171Y-14607678D01*
X35890037Y-14882500D01*
X35639952Y-14882500D01*
X35639765Y-14878418D01*
X35643983Y-14672583D01*
G36*
X41666453Y-7682298D02*
G01*
X41720092Y-7500388D01*
X41806200Y-7339398D01*
X41925667Y-7198522D01*
X42079384Y-7076956D01*
X42268242Y-6973893D01*
X42493130Y-6888530D01*
X42754941Y-6820061D01*
X43054565Y-6767682D01*
X43392892Y-6730586D01*
X43505587Y-6722077D01*
X43725775Y-6711557D01*
X43979344Y-6707153D01*
X44258123Y-6708478D01*
X44553942Y-6715143D01*
X44858630Y-6726760D01*
X45164017Y-6742942D01*
X45461932Y-6763300D01*
X45744205Y-6787447D01*
X46002665Y-6814994D01*
X46229142Y-6845554D01*
X46281298Y-6853866D01*
X46534303Y-6902967D01*
X46772127Y-6963370D01*
X46990844Y-7033347D01*
X47186528Y-7111173D01*
X47355255Y-7195120D01*
X47493097Y-7283464D01*
X47596130Y-7374477D01*
X47656580Y-7458650D01*
X47671570Y-7492699D01*
X47676318Y-7525030D01*
X47668286Y-7563415D01*
X47644935Y-7615626D01*
X47603726Y-7689434D01*
X47553869Y-7773118D01*
X47447704Y-7977474D01*
X47353245Y-8215775D01*
X47272441Y-8480773D01*
X47207244Y-8765219D01*
X47159603Y-9061864D01*
X47133138Y-9336539D01*
X47126466Y-9451007D01*
X47119906Y-9540394D01*
X47108648Y-9607922D01*
X47087881Y-9656813D01*
X47052796Y-9690290D01*
X46998582Y-9711577D01*
X46920429Y-9723895D01*
X46813526Y-9730468D01*
X46673063Y-9734518D01*
X46533768Y-9738095D01*
X46367378Y-9743347D01*
X46194100Y-9749707D01*
X46025275Y-9756695D01*
X45872243Y-9763832D01*
X45746347Y-9770641D01*
X45711833Y-9772790D01*
X45605051Y-9778431D01*
X45467549Y-9783634D01*
X45304657Y-9788356D01*
X45121703Y-9792553D01*
X44924016Y-9796179D01*
X44716924Y-9799191D01*
X44505756Y-9801544D01*
X44295839Y-9803193D01*
X44092504Y-9804095D01*
X43901078Y-9804204D01*
X43726891Y-9803476D01*
X43575270Y-9801867D01*
X43451544Y-9799332D01*
X43361041Y-9795827D01*
X43320000Y-9792739D01*
X43024472Y-9751365D01*
X42766195Y-9694079D01*
X42542244Y-9618311D01*
X42349694Y-9521489D01*
X42185620Y-9401043D01*
X42047095Y-9254403D01*
X41931196Y-9078998D01*
X41834998Y-8872258D01*
X41755574Y-8631612D01*
X41691436Y-8361591D01*
X41653015Y-8112094D01*
X41644698Y-7893991D01*
X42287390Y-7893991D01*
X42305081Y-7929897D01*
X42312924Y-7942022D01*
X42346968Y-7981565D01*
X42388057Y-7991631D01*
X42420211Y-7988050D01*
X42478842Y-7972442D01*
X42554480Y-7944523D01*
X42603562Y-7922978D01*
X42707587Y-7880558D01*
X42831799Y-7842956D01*
X42980297Y-7809412D01*
X43157181Y-7779166D01*
X43366552Y-7751457D01*
X43612509Y-7725525D01*
X43722166Y-7715469D01*
X43840877Y-7707437D01*
X43995437Y-7700778D01*
X44179384Y-7695491D01*
X44386257Y-7691572D01*
X44609595Y-7689020D01*
X44842935Y-7687830D01*
X45079815Y-7688002D01*
X45313775Y-7689532D01*
X45538353Y-7692418D01*
X45747085Y-7696656D01*
X45933512Y-7702246D01*
X46091172Y-7709183D01*
X46201622Y-7716454D01*
X46364483Y-7727963D01*
X46490188Y-7732124D01*
X46583369Y-7728382D01*
X46648654Y-7716183D01*
X46690672Y-7694974D01*
X46714054Y-7664200D01*
X46717604Y-7654714D01*
X46722836Y-7610955D01*
X46700728Y-7580563D01*
X46644821Y-7556580D01*
X46619857Y-7549423D01*
X46509374Y-7526034D01*
X46361470Y-7504491D01*
X46181022Y-7484911D01*
X45972906Y-7467409D01*
X45742000Y-7452100D01*
X45493179Y-7439100D01*
X45231320Y-7428524D01*
X44961301Y-7420488D01*
X44687998Y-7415107D01*
X44416288Y-7412496D01*
X44151047Y-7412772D01*
X43897152Y-7416049D01*
X43659481Y-7422444D01*
X43442909Y-7432071D01*
X43252314Y-7445046D01*
X43092572Y-7461485D01*
X43064529Y-7465230D01*
X42900535Y-7496620D01*
X42742966Y-7542508D01*
X42598872Y-7599635D01*
X42475305Y-7664740D01*
X42379315Y-7734566D01*
X42317954Y-7805853D01*
X42314544Y-7811906D01*
X42290462Y-7861298D01*
X42287390Y-7893991D01*
X41644698Y-7893991D01*
X41644390Y-7885931D01*
X41666453Y-7682298D01*
G37*
X41666453Y-7682298D02*
X41720092Y-7500388D01*
X41806200Y-7339398D01*
X41925667Y-7198522D01*
X42079384Y-7076956D01*
X42268242Y-6973893D01*
X42493130Y-6888530D01*
X42754941Y-6820061D01*
X43054565Y-6767682D01*
X43392892Y-6730586D01*
X43505587Y-6722077D01*
X43725775Y-6711557D01*
X43979344Y-6707153D01*
X44258123Y-6708478D01*
X44553942Y-6715143D01*
X44858630Y-6726760D01*
X45164017Y-6742942D01*
X45461932Y-6763300D01*
X45744205Y-6787447D01*
X46002665Y-6814994D01*
X46229142Y-6845554D01*
X46281298Y-6853866D01*
X46534303Y-6902967D01*
X46772127Y-6963370D01*
X46990844Y-7033347D01*
X47186528Y-7111173D01*
X47355255Y-7195120D01*
X47493097Y-7283464D01*
X47596130Y-7374477D01*
X47656580Y-7458650D01*
X47671570Y-7492699D01*
X47676318Y-7525030D01*
X47668286Y-7563415D01*
X47644935Y-7615626D01*
X47603726Y-7689434D01*
X47553869Y-7773118D01*
X47447704Y-7977474D01*
X47353245Y-8215775D01*
X47272441Y-8480773D01*
X47207244Y-8765219D01*
X47159603Y-9061864D01*
X47133138Y-9336539D01*
X47126466Y-9451007D01*
X47119906Y-9540394D01*
X47108648Y-9607922D01*
X47087881Y-9656813D01*
X47052796Y-9690290D01*
X46998582Y-9711577D01*
X46920429Y-9723895D01*
X46813526Y-9730468D01*
X46673063Y-9734518D01*
X46533768Y-9738095D01*
X46367378Y-9743347D01*
X46194100Y-9749707D01*
X46025275Y-9756695D01*
X45872243Y-9763832D01*
X45746347Y-9770641D01*
X45711833Y-9772790D01*
X45605051Y-9778431D01*
X45467549Y-9783634D01*
X45304657Y-9788356D01*
X45121703Y-9792553D01*
X44924016Y-9796179D01*
X44716924Y-9799191D01*
X44505756Y-9801544D01*
X44295839Y-9803193D01*
X44092504Y-9804095D01*
X43901078Y-9804204D01*
X43726891Y-9803476D01*
X43575270Y-9801867D01*
X43451544Y-9799332D01*
X43361041Y-9795827D01*
X43320000Y-9792739D01*
X43024472Y-9751365D01*
X42766195Y-9694079D01*
X42542244Y-9618311D01*
X42349694Y-9521489D01*
X42185620Y-9401043D01*
X42047095Y-9254403D01*
X41931196Y-9078998D01*
X41834998Y-8872258D01*
X41755574Y-8631612D01*
X41691436Y-8361591D01*
X41653015Y-8112094D01*
X41644698Y-7893991D01*
X42287390Y-7893991D01*
X42305081Y-7929897D01*
X42312924Y-7942022D01*
X42346968Y-7981565D01*
X42388057Y-7991631D01*
X42420211Y-7988050D01*
X42478842Y-7972442D01*
X42554480Y-7944523D01*
X42603562Y-7922978D01*
X42707587Y-7880558D01*
X42831799Y-7842956D01*
X42980297Y-7809412D01*
X43157181Y-7779166D01*
X43366552Y-7751457D01*
X43612509Y-7725525D01*
X43722166Y-7715469D01*
X43840877Y-7707437D01*
X43995437Y-7700778D01*
X44179384Y-7695491D01*
X44386257Y-7691572D01*
X44609595Y-7689020D01*
X44842935Y-7687830D01*
X45079815Y-7688002D01*
X45313775Y-7689532D01*
X45538353Y-7692418D01*
X45747085Y-7696656D01*
X45933512Y-7702246D01*
X46091172Y-7709183D01*
X46201622Y-7716454D01*
X46364483Y-7727963D01*
X46490188Y-7732124D01*
X46583369Y-7728382D01*
X46648654Y-7716183D01*
X46690672Y-7694974D01*
X46714054Y-7664200D01*
X46717604Y-7654714D01*
X46722836Y-7610955D01*
X46700728Y-7580563D01*
X46644821Y-7556580D01*
X46619857Y-7549423D01*
X46509374Y-7526034D01*
X46361470Y-7504491D01*
X46181022Y-7484911D01*
X45972906Y-7467409D01*
X45742000Y-7452100D01*
X45493179Y-7439100D01*
X45231320Y-7428524D01*
X44961301Y-7420488D01*
X44687998Y-7415107D01*
X44416288Y-7412496D01*
X44151047Y-7412772D01*
X43897152Y-7416049D01*
X43659481Y-7422444D01*
X43442909Y-7432071D01*
X43252314Y-7445046D01*
X43092572Y-7461485D01*
X43064529Y-7465230D01*
X42900535Y-7496620D01*
X42742966Y-7542508D01*
X42598872Y-7599635D01*
X42475305Y-7664740D01*
X42379315Y-7734566D01*
X42317954Y-7805853D01*
X42314544Y-7811906D01*
X42290462Y-7861298D01*
X42287390Y-7893991D01*
X41644698Y-7893991D01*
X41644390Y-7885931D01*
X41666453Y-7682298D01*
G36*
X55785149Y-9814833D02*
G01*
X55789717Y-9635956D01*
X55794081Y-9494176D01*
X55798668Y-9384259D01*
X55803902Y-9300974D01*
X55810208Y-9239089D01*
X55818013Y-9193370D01*
X55827741Y-9158586D01*
X55839817Y-9129505D01*
X55841069Y-9126916D01*
X55874478Y-9070688D01*
X55910987Y-9043774D01*
X55950720Y-9035653D01*
X55994575Y-9037185D01*
X56037009Y-9055251D01*
X56089706Y-9096014D01*
X56123530Y-9126810D01*
X56232424Y-9244651D01*
X56342865Y-9393332D01*
X56447664Y-9562273D01*
X56537275Y-9735806D01*
X56601737Y-9880593D01*
X56647885Y-10003138D01*
X56678594Y-10116619D01*
X56696738Y-10234210D01*
X56705192Y-10369089D01*
X56706897Y-10513333D01*
X56705920Y-10639583D01*
X56702656Y-10734400D01*
X56695788Y-10808673D01*
X56684001Y-10873291D01*
X56665980Y-10939143D01*
X56649138Y-10991243D01*
X56553746Y-11212030D01*
X56424123Y-11408520D01*
X56262118Y-11578563D01*
X56069576Y-11720010D01*
X55979194Y-11770814D01*
X55863162Y-11826395D01*
X55768860Y-11857844D01*
X55683502Y-11865438D01*
X55594303Y-11849455D01*
X55488478Y-11810172D01*
X55427333Y-11782803D01*
X55346572Y-11745712D01*
X55279814Y-11715447D01*
X55236769Y-11696391D01*
X55227054Y-11692394D01*
X55216635Y-11667442D01*
X55230225Y-11610186D01*
X55266993Y-11522603D01*
X55326109Y-11406671D01*
X55406518Y-11264750D01*
X55497968Y-11107580D01*
X55572573Y-10972929D01*
X55632176Y-10853743D01*
X55678619Y-10742970D01*
X55713742Y-10633558D01*
X55739388Y-10518452D01*
X55757399Y-10390600D01*
X55769616Y-10242950D01*
X55777881Y-10068448D01*
X55782362Y-9916725D01*
X55938581Y-9916725D01*
X55946643Y-9967771D01*
X55974243Y-10041666D01*
X55996617Y-10092363D01*
X56032760Y-10178150D01*
X56064860Y-10264670D01*
X56083013Y-10322833D01*
X56117187Y-10423876D01*
X56160076Y-10508407D01*
X56206637Y-10568658D01*
X56251823Y-10596862D01*
X56261717Y-10598000D01*
X56313072Y-10584060D01*
X56339483Y-10563859D01*
X56361971Y-10507988D01*
X56366354Y-10424322D01*
X56354692Y-10322290D01*
X56329046Y-10211318D01*
X56291476Y-10100833D01*
X56244042Y-10000264D01*
X56202177Y-9935625D01*
X56131119Y-9859474D01*
X56065243Y-9823262D01*
X56005998Y-9827570D01*
X55978307Y-9846003D01*
X55949366Y-9879234D01*
X55938581Y-9916725D01*
X55782362Y-9916725D01*
X55784037Y-9860042D01*
X55785149Y-9814833D01*
G37*
X55785149Y-9814833D02*
X55789717Y-9635956D01*
X55794081Y-9494176D01*
X55798668Y-9384259D01*
X55803902Y-9300974D01*
X55810208Y-9239089D01*
X55818013Y-9193370D01*
X55827741Y-9158586D01*
X55839817Y-9129505D01*
X55841069Y-9126916D01*
X55874478Y-9070688D01*
X55910987Y-9043774D01*
X55950720Y-9035653D01*
X55994575Y-9037185D01*
X56037009Y-9055251D01*
X56089706Y-9096014D01*
X56123530Y-9126810D01*
X56232424Y-9244651D01*
X56342865Y-9393332D01*
X56447664Y-9562273D01*
X56537275Y-9735806D01*
X56601737Y-9880593D01*
X56647885Y-10003138D01*
X56678594Y-10116619D01*
X56696738Y-10234210D01*
X56705192Y-10369089D01*
X56706897Y-10513333D01*
X56705920Y-10639583D01*
X56702656Y-10734400D01*
X56695788Y-10808673D01*
X56684001Y-10873291D01*
X56665980Y-10939143D01*
X56649138Y-10991243D01*
X56553746Y-11212030D01*
X56424123Y-11408520D01*
X56262118Y-11578563D01*
X56069576Y-11720010D01*
X55979194Y-11770814D01*
X55863162Y-11826395D01*
X55768860Y-11857844D01*
X55683502Y-11865438D01*
X55594303Y-11849455D01*
X55488478Y-11810172D01*
X55427333Y-11782803D01*
X55346572Y-11745712D01*
X55279814Y-11715447D01*
X55236769Y-11696391D01*
X55227054Y-11692394D01*
X55216635Y-11667442D01*
X55230225Y-11610186D01*
X55266993Y-11522603D01*
X55326109Y-11406671D01*
X55406518Y-11264750D01*
X55497968Y-11107580D01*
X55572573Y-10972929D01*
X55632176Y-10853743D01*
X55678619Y-10742970D01*
X55713742Y-10633558D01*
X55739388Y-10518452D01*
X55757399Y-10390600D01*
X55769616Y-10242950D01*
X55777881Y-10068448D01*
X55782362Y-9916725D01*
X55938581Y-9916725D01*
X55946643Y-9967771D01*
X55974243Y-10041666D01*
X55996617Y-10092363D01*
X56032760Y-10178150D01*
X56064860Y-10264670D01*
X56083013Y-10322833D01*
X56117187Y-10423876D01*
X56160076Y-10508407D01*
X56206637Y-10568658D01*
X56251823Y-10596862D01*
X56261717Y-10598000D01*
X56313072Y-10584060D01*
X56339483Y-10563859D01*
X56361971Y-10507988D01*
X56366354Y-10424322D01*
X56354692Y-10322290D01*
X56329046Y-10211318D01*
X56291476Y-10100833D01*
X56244042Y-10000264D01*
X56202177Y-9935625D01*
X56131119Y-9859474D01*
X56065243Y-9823262D01*
X56005998Y-9827570D01*
X55978307Y-9846003D01*
X55949366Y-9879234D01*
X55938581Y-9916725D01*
X55782362Y-9916725D01*
X55784037Y-9860042D01*
X55785149Y-9814833D01*
G36*
X40875261Y-15279229D02*
G01*
X40881865Y-15361564D01*
X40884139Y-15436312D01*
X40882449Y-15477002D01*
X40875250Y-15540416D01*
X40610666Y-15552215D01*
X40504176Y-15558561D01*
X40408962Y-15567156D01*
X40335315Y-15576881D01*
X40293526Y-15586616D01*
X40293166Y-15586769D01*
X40211673Y-15640382D01*
X40143187Y-15718714D01*
X40103058Y-15802321D01*
X40088109Y-15892859D01*
X40082953Y-16014439D01*
X40087415Y-16156959D01*
X40101323Y-16310318D01*
X40113250Y-16397666D01*
X40131246Y-16542286D01*
X40141352Y-16685502D01*
X40143531Y-16818218D01*
X40137744Y-16931338D01*
X40123955Y-17015767D01*
X40115879Y-17040221D01*
X40061478Y-17122626D01*
X39975123Y-17197033D01*
X39867193Y-17255266D01*
X39821992Y-17271671D01*
X39728735Y-17293752D01*
X39615178Y-17310183D01*
X39498499Y-17319366D01*
X39395880Y-17319702D01*
X39351250Y-17315474D01*
X39223713Y-17285182D01*
X39077889Y-17232405D01*
X38933677Y-17165268D01*
X38759476Y-17053579D01*
X38593315Y-16906273D01*
X38439397Y-16729892D01*
X38301928Y-16530978D01*
X38185111Y-16316072D01*
X38093151Y-16091717D01*
X38030253Y-15864454D01*
X38007623Y-15724341D01*
X37996463Y-15552610D01*
X38004882Y-15409769D01*
X38032317Y-15298392D01*
X38078208Y-15221056D01*
X38124690Y-15186810D01*
X38173484Y-15172576D01*
X38191953Y-15187055D01*
X38178801Y-15229193D01*
X38178214Y-15230295D01*
X38158872Y-15304181D01*
X38160718Y-15408291D01*
X38182101Y-15537209D01*
X38221368Y-15685515D01*
X38276868Y-15847792D01*
X38346948Y-16018623D01*
X38429956Y-16192589D01*
X38523788Y-16363505D01*
X38586249Y-16464109D01*
X38656225Y-16567809D01*
X38728486Y-16667786D01*
X38797801Y-16757221D01*
X38858942Y-16829296D01*
X38906677Y-16877194D01*
X38929849Y-16892896D01*
X38933784Y-16885383D01*
X38913061Y-16853586D01*
X38872067Y-16804019D01*
X38863741Y-16794676D01*
X38718876Y-16611990D01*
X38583081Y-16399034D01*
X38463160Y-16167810D01*
X38365921Y-15930319D01*
X38353991Y-15895727D01*
X38318379Y-15764094D01*
X38297839Y-15631474D01*
X38292023Y-15505278D01*
X38300583Y-15392912D01*
X38323168Y-15301786D01*
X38359429Y-15239308D01*
X38385850Y-15219466D01*
X38413008Y-15216070D01*
X38478445Y-15212329D01*
X38578110Y-15208356D01*
X38707953Y-15204261D01*
X38863920Y-15200157D01*
X39041962Y-15196156D01*
X39238027Y-15192370D01*
X39448064Y-15188909D01*
X39541750Y-15187549D01*
X39759117Y-15184292D01*
X39966324Y-15180753D01*
X40159010Y-15177036D01*
X40332814Y-15173245D01*
X40483373Y-15169484D01*
X40606327Y-15165858D01*
X40697313Y-15162470D01*
X40751969Y-15159426D01*
X40762228Y-15158391D01*
X40860873Y-15144872D01*
X40875261Y-15279229D01*
G37*
X40875261Y-15279229D02*
X40881865Y-15361564D01*
X40884139Y-15436312D01*
X40882449Y-15477002D01*
X40875250Y-15540416D01*
X40610666Y-15552215D01*
X40504176Y-15558561D01*
X40408962Y-15567156D01*
X40335315Y-15576881D01*
X40293526Y-15586616D01*
X40293166Y-15586769D01*
X40211673Y-15640382D01*
X40143187Y-15718714D01*
X40103058Y-15802321D01*
X40088109Y-15892859D01*
X40082953Y-16014439D01*
X40087415Y-16156959D01*
X40101323Y-16310318D01*
X40113250Y-16397666D01*
X40131246Y-16542286D01*
X40141352Y-16685502D01*
X40143531Y-16818218D01*
X40137744Y-16931338D01*
X40123955Y-17015767D01*
X40115879Y-17040221D01*
X40061478Y-17122626D01*
X39975123Y-17197033D01*
X39867193Y-17255266D01*
X39821992Y-17271671D01*
X39728735Y-17293752D01*
X39615178Y-17310183D01*
X39498499Y-17319366D01*
X39395880Y-17319702D01*
X39351250Y-17315474D01*
X39223713Y-17285182D01*
X39077889Y-17232405D01*
X38933677Y-17165268D01*
X38759476Y-17053579D01*
X38593315Y-16906273D01*
X38439397Y-16729892D01*
X38301928Y-16530978D01*
X38185111Y-16316072D01*
X38093151Y-16091717D01*
X38030253Y-15864454D01*
X38007623Y-15724341D01*
X37996463Y-15552610D01*
X38004882Y-15409769D01*
X38032317Y-15298392D01*
X38078208Y-15221056D01*
X38124690Y-15186810D01*
X38173484Y-15172576D01*
X38191953Y-15187055D01*
X38178801Y-15229193D01*
X38178214Y-15230295D01*
X38158872Y-15304181D01*
X38160718Y-15408291D01*
X38182101Y-15537209D01*
X38221368Y-15685515D01*
X38276868Y-15847792D01*
X38346948Y-16018623D01*
X38429956Y-16192589D01*
X38523788Y-16363505D01*
X38586249Y-16464109D01*
X38656225Y-16567809D01*
X38728486Y-16667786D01*
X38797801Y-16757221D01*
X38858942Y-16829296D01*
X38906677Y-16877194D01*
X38929849Y-16892896D01*
X38933784Y-16885383D01*
X38913061Y-16853586D01*
X38872067Y-16804019D01*
X38863741Y-16794676D01*
X38718876Y-16611990D01*
X38583081Y-16399034D01*
X38463160Y-16167810D01*
X38365921Y-15930319D01*
X38353991Y-15895727D01*
X38318379Y-15764094D01*
X38297839Y-15631474D01*
X38292023Y-15505278D01*
X38300583Y-15392912D01*
X38323168Y-15301786D01*
X38359429Y-15239308D01*
X38385850Y-15219466D01*
X38413008Y-15216070D01*
X38478445Y-15212329D01*
X38578110Y-15208356D01*
X38707953Y-15204261D01*
X38863920Y-15200157D01*
X39041962Y-15196156D01*
X39238027Y-15192370D01*
X39448064Y-15188909D01*
X39541750Y-15187549D01*
X39759117Y-15184292D01*
X39966324Y-15180753D01*
X40159010Y-15177036D01*
X40332814Y-15173245D01*
X40483373Y-15169484D01*
X40606327Y-15165858D01*
X40697313Y-15162470D01*
X40751969Y-15159426D01*
X40762228Y-15158391D01*
X40860873Y-15144872D01*
X40875261Y-15279229D01*
D11*
%TO.C,D2*%
X115620000Y27630000D02*
X116460000Y27630000D01*
X116460000Y27630000D02*
X116460000Y26390000D01*
X116460000Y26390000D02*
X115620000Y26390000D01*
X115620000Y26390000D02*
X115620000Y27630000D01*
G36*
X115620000Y27630000D02*
G01*
X116460000Y27630000D01*
X116460000Y26390000D01*
X115620000Y26390000D01*
X115620000Y27630000D01*
G37*
%TO.C,GR2*%
G36*
X4895957Y1179074D02*
G01*
X4920949Y1162866D01*
X4973520Y1124112D01*
X5049318Y1066281D01*
X5143992Y992848D01*
X5253187Y907286D01*
X5372556Y813068D01*
X5497744Y713670D01*
X5624400Y612562D01*
X5748171Y513218D01*
X5864706Y419113D01*
X5969653Y333719D01*
X6058662Y260510D01*
X6127377Y202959D01*
X6171449Y164539D01*
X6186527Y148724D01*
X6186497Y148633D01*
X6171297Y129297D01*
X6130421Y81227D01*
X6066315Y7206D01*
X5981421Y-89982D01*
X5878187Y-207552D01*
X5759056Y-342719D01*
X5626474Y-492700D01*
X5482884Y-654708D01*
X5330733Y-825961D01*
X5326016Y-831264D01*
X5174044Y-1001901D01*
X5030458Y-1162733D01*
X4897724Y-1311028D01*
X4778302Y-1444051D01*
X4674656Y-1559070D01*
X4589249Y-1653352D01*
X4524545Y-1724163D01*
X4483004Y-1768769D01*
X4467091Y-1784437D01*
X4465624Y-1783860D01*
X4439877Y-1766000D01*
X4385460Y-1725262D01*
X4306025Y-1664469D01*
X4205227Y-1586447D01*
X4086718Y-1494021D01*
X3954151Y-1390014D01*
X3811178Y-1277253D01*
X3167735Y-768488D01*
X3008369Y-942828D01*
X2962320Y-993583D01*
X2885485Y-1079032D01*
X2791259Y-1184388D01*
X2685452Y-1303138D01*
X2573875Y-1428770D01*
X2462338Y-1554772D01*
X2075673Y-1992378D01*
X-6505Y-2175430D01*
X-2088682Y-2358483D01*
X-2189439Y-1206823D01*
X3157253Y-754720D01*
X4017646Y214345D01*
X4030877Y229245D01*
X4183293Y400475D01*
X4327351Y561594D01*
X4460596Y709898D01*
X4580566Y842687D01*
X4684806Y957255D01*
X4770857Y1050903D01*
X4836260Y1120925D01*
X4878559Y1164621D01*
X4895293Y1179289D01*
X4895957Y1179074D01*
G37*
D12*
X4895957Y1179074D02*
X4920949Y1162866D01*
X4973520Y1124112D01*
X5049318Y1066281D01*
X5143992Y992848D01*
X5253187Y907286D01*
X5372556Y813068D01*
X5497744Y713670D01*
X5624400Y612562D01*
X5748171Y513218D01*
X5864706Y419113D01*
X5969653Y333719D01*
X6058662Y260510D01*
X6127377Y202959D01*
X6171449Y164539D01*
X6186527Y148724D01*
X6186497Y148633D01*
X6171297Y129297D01*
X6130421Y81227D01*
X6066315Y7206D01*
X5981421Y-89982D01*
X5878187Y-207552D01*
X5759056Y-342719D01*
X5626474Y-492700D01*
X5482884Y-654708D01*
X5330733Y-825961D01*
X5326016Y-831264D01*
X5174044Y-1001901D01*
X5030458Y-1162733D01*
X4897724Y-1311028D01*
X4778302Y-1444051D01*
X4674656Y-1559070D01*
X4589249Y-1653352D01*
X4524545Y-1724163D01*
X4483004Y-1768769D01*
X4467091Y-1784437D01*
X4465624Y-1783860D01*
X4439877Y-1766000D01*
X4385460Y-1725262D01*
X4306025Y-1664469D01*
X4205227Y-1586447D01*
X4086718Y-1494021D01*
X3954151Y-1390014D01*
X3811178Y-1277253D01*
X3167735Y-768488D01*
X3008369Y-942828D01*
X2962320Y-993583D01*
X2885485Y-1079032D01*
X2791259Y-1184388D01*
X2685452Y-1303138D01*
X2573875Y-1428770D01*
X2462338Y-1554772D01*
X2075673Y-1992378D01*
X-6505Y-2175430D01*
X-2088682Y-2358483D01*
X-2189439Y-1206823D01*
X3157253Y-754720D01*
X4017646Y214345D01*
X4030877Y229245D01*
X4183293Y400475D01*
X4327351Y561594D01*
X4460596Y709898D01*
X4580566Y842687D01*
X4684806Y957255D01*
X4770857Y1050903D01*
X4836260Y1120925D01*
X4878559Y1164621D01*
X4895293Y1179289D01*
X4895957Y1179074D01*
G36*
X2081122Y-3195805D02*
G01*
X2113242Y-3221198D01*
X2253990Y-3333018D01*
X2383026Y-3436400D01*
X2496746Y-3528400D01*
X2591551Y-3606069D01*
X2663838Y-3666466D01*
X2710007Y-3706642D01*
X2726456Y-3723652D01*
X2725326Y-3724439D01*
X2694950Y-3729879D01*
X2624375Y-3738656D01*
X2515207Y-3750618D01*
X2369047Y-3765612D01*
X2187504Y-3783487D01*
X1972183Y-3804089D01*
X1724686Y-3827268D01*
X1446620Y-3852870D01*
X1139590Y-3880743D01*
X805201Y-3910736D01*
X445057Y-3942696D01*
X60764Y-3976471D01*
X-2606630Y-4209837D01*
X-2708094Y-3050100D01*
X1437489Y-2687409D01*
X2081122Y-3195805D01*
G37*
X2081122Y-3195805D02*
X2113242Y-3221198D01*
X2253990Y-3333018D01*
X2383026Y-3436400D01*
X2496746Y-3528400D01*
X2591551Y-3606069D01*
X2663838Y-3666466D01*
X2710007Y-3706642D01*
X2726456Y-3723652D01*
X2725326Y-3724439D01*
X2694950Y-3729879D01*
X2624375Y-3738656D01*
X2515207Y-3750618D01*
X2369047Y-3765612D01*
X2187504Y-3783487D01*
X1972183Y-3804089D01*
X1724686Y-3827268D01*
X1446620Y-3852870D01*
X1139590Y-3880743D01*
X805201Y-3910736D01*
X445057Y-3942696D01*
X60764Y-3976471D01*
X-2606630Y-4209837D01*
X-2708094Y-3050100D01*
X1437489Y-2687409D01*
X2081122Y-3195805D01*
G36*
X4511562Y5687816D02*
G01*
X4524261Y5554831D01*
X4536649Y5417642D01*
X4546609Y5298939D01*
X4553670Y5204629D01*
X4557364Y5140618D01*
X4557223Y5112815D01*
X4556480Y5111612D01*
X4543920Y5106047D01*
X4514546Y5099527D01*
X4466242Y5091842D01*
X4396895Y5082779D01*
X4304389Y5072126D01*
X4186611Y5059671D01*
X4041445Y5045203D01*
X3866778Y5028508D01*
X3660495Y5009376D01*
X3420481Y4987593D01*
X3144622Y4962949D01*
X2830803Y4935230D01*
X2476911Y4904225D01*
X404510Y4723236D01*
X-233848Y5227940D01*
X-260549Y5249063D01*
X-401459Y5360980D01*
X-531115Y5464677D01*
X-645844Y5557169D01*
X-741973Y5635465D01*
X-815828Y5696577D01*
X-863737Y5737518D01*
X-882027Y5755297D01*
X-881879Y5756044D01*
X-865734Y5761062D01*
X-822833Y5768013D01*
X-751888Y5777014D01*
X-651611Y5788189D01*
X-520717Y5801659D01*
X-357919Y5817545D01*
X-161929Y5835968D01*
X68538Y5857050D01*
X334769Y5880911D01*
X638052Y5907675D01*
X979672Y5937460D01*
X1360917Y5970389D01*
X1783071Y6006584D01*
X4457990Y6235215D01*
X4511562Y5687816D01*
G37*
X4511562Y5687816D02*
X4524261Y5554831D01*
X4536649Y5417642D01*
X4546609Y5298939D01*
X4553670Y5204629D01*
X4557364Y5140618D01*
X4557223Y5112815D01*
X4556480Y5111612D01*
X4543920Y5106047D01*
X4514546Y5099527D01*
X4466242Y5091842D01*
X4396895Y5082779D01*
X4304389Y5072126D01*
X4186611Y5059671D01*
X4041445Y5045203D01*
X3866778Y5028508D01*
X3660495Y5009376D01*
X3420481Y4987593D01*
X3144622Y4962949D01*
X2830803Y4935230D01*
X2476911Y4904225D01*
X404510Y4723236D01*
X-233848Y5227940D01*
X-260549Y5249063D01*
X-401459Y5360980D01*
X-531115Y5464677D01*
X-645844Y5557169D01*
X-741973Y5635465D01*
X-815828Y5696577D01*
X-863737Y5737518D01*
X-882027Y5755297D01*
X-881879Y5756044D01*
X-865734Y5761062D01*
X-822833Y5768013D01*
X-751888Y5777014D01*
X-651611Y5788189D01*
X-520717Y5801659D01*
X-357919Y5817545D01*
X-161929Y5835968D01*
X68538Y5857050D01*
X334769Y5880911D01*
X638052Y5907675D01*
X979672Y5937460D01*
X1360917Y5970389D01*
X1783071Y6006584D01*
X4457990Y6235215D01*
X4511562Y5687816D01*
G36*
X3987566Y3834267D02*
G01*
X4003988Y3688556D01*
X4018450Y3553146D01*
X4029998Y3437298D01*
X4038097Y3346630D01*
X4042214Y3286760D01*
X4041816Y3263303D01*
X4041631Y3263190D01*
X4016902Y3259646D01*
X3952685Y3252743D01*
X3851504Y3242710D01*
X3715881Y3229775D01*
X3548338Y3214166D01*
X3351398Y3196113D01*
X3127583Y3175842D01*
X2879415Y3153584D01*
X2609416Y3129567D01*
X2320109Y3104019D01*
X2014017Y3077168D01*
X1693660Y3049244D01*
X1361562Y3020474D01*
X-1308426Y2789879D01*
X-1660293Y2389126D01*
X-1697234Y2347084D01*
X-1810066Y2218917D01*
X-1941481Y2069924D01*
X-2084584Y1907911D01*
X-2232476Y1740685D01*
X-2378257Y1576053D01*
X-2515030Y1421821D01*
X-2624088Y1299498D01*
X-2733082Y1178405D01*
X-2830688Y1071159D01*
X-2913591Y981349D01*
X-2978477Y912562D01*
X-3022033Y868387D01*
X-3040945Y852411D01*
X-3041872Y852561D01*
X-3066516Y867860D01*
X-3119163Y905735D01*
X-3195412Y962733D01*
X-3290866Y1035398D01*
X-3401127Y1120277D01*
X-3521796Y1213915D01*
X-3648474Y1312858D01*
X-3776765Y1413652D01*
X-3902269Y1512841D01*
X-4020587Y1606973D01*
X-4127321Y1692592D01*
X-4218074Y1766244D01*
X-4288447Y1824476D01*
X-4334040Y1863832D01*
X-4350458Y1880858D01*
X-4337763Y1897873D01*
X-4299658Y1943207D01*
X-4239079Y2013471D01*
X-4158987Y2105342D01*
X-4062339Y2215498D01*
X-3952093Y2340614D01*
X-3831207Y2477368D01*
X-3702640Y2622437D01*
X-3569348Y2772498D01*
X-3434290Y2924229D01*
X-3300425Y3074304D01*
X-3170709Y3219402D01*
X-3048102Y3356201D01*
X-2935560Y3481376D01*
X-2836042Y3591604D01*
X-2752507Y3683563D01*
X-2687911Y3753930D01*
X-2645214Y3799381D01*
X-2627372Y3816594D01*
X-2624924Y3816771D01*
X-2599541Y3804455D01*
X-2548823Y3770537D01*
X-2471747Y3714227D01*
X-2367288Y3634739D01*
X-2234420Y3531284D01*
X-2072119Y3403075D01*
X-1879359Y3249324D01*
X-1655117Y3069244D01*
X-1574289Y3004227D01*
X-1482371Y2931015D01*
X-1415271Y2879507D01*
X-1368190Y2846822D01*
X-1336323Y2830081D01*
X-1314871Y2826407D01*
X-1299029Y2832921D01*
X-1283996Y2846742D01*
X-1263560Y2868782D01*
X-1217465Y2919685D01*
X-1149949Y2994803D01*
X-1064496Y3090243D01*
X-964591Y3202112D01*
X-853722Y3326516D01*
X-735372Y3459563D01*
X-228615Y4029775D01*
X3923051Y4392998D01*
X3987566Y3834267D01*
G37*
X3987566Y3834267D02*
X4003988Y3688556D01*
X4018450Y3553146D01*
X4029998Y3437298D01*
X4038097Y3346630D01*
X4042214Y3286760D01*
X4041816Y3263303D01*
X4041631Y3263190D01*
X4016902Y3259646D01*
X3952685Y3252743D01*
X3851504Y3242710D01*
X3715881Y3229775D01*
X3548338Y3214166D01*
X3351398Y3196113D01*
X3127583Y3175842D01*
X2879415Y3153584D01*
X2609416Y3129567D01*
X2320109Y3104019D01*
X2014017Y3077168D01*
X1693660Y3049244D01*
X1361562Y3020474D01*
X-1308426Y2789879D01*
X-1660293Y2389126D01*
X-1697234Y2347084D01*
X-1810066Y2218917D01*
X-1941481Y2069924D01*
X-2084584Y1907911D01*
X-2232476Y1740685D01*
X-2378257Y1576053D01*
X-2515030Y1421821D01*
X-2624088Y1299498D01*
X-2733082Y1178405D01*
X-2830688Y1071159D01*
X-2913591Y981349D01*
X-2978477Y912562D01*
X-3022033Y868387D01*
X-3040945Y852411D01*
X-3041872Y852561D01*
X-3066516Y867860D01*
X-3119163Y905735D01*
X-3195412Y962733D01*
X-3290866Y1035398D01*
X-3401127Y1120277D01*
X-3521796Y1213915D01*
X-3648474Y1312858D01*
X-3776765Y1413652D01*
X-3902269Y1512841D01*
X-4020587Y1606973D01*
X-4127321Y1692592D01*
X-4218074Y1766244D01*
X-4288447Y1824476D01*
X-4334040Y1863832D01*
X-4350458Y1880858D01*
X-4337763Y1897873D01*
X-4299658Y1943207D01*
X-4239079Y2013471D01*
X-4158987Y2105342D01*
X-4062339Y2215498D01*
X-3952093Y2340614D01*
X-3831207Y2477368D01*
X-3702640Y2622437D01*
X-3569348Y2772498D01*
X-3434290Y2924229D01*
X-3300425Y3074304D01*
X-3170709Y3219402D01*
X-3048102Y3356201D01*
X-2935560Y3481376D01*
X-2836042Y3591604D01*
X-2752507Y3683563D01*
X-2687911Y3753930D01*
X-2645214Y3799381D01*
X-2627372Y3816594D01*
X-2624924Y3816771D01*
X-2599541Y3804455D01*
X-2548823Y3770537D01*
X-2471747Y3714227D01*
X-2367288Y3634739D01*
X-2234420Y3531284D01*
X-2072119Y3403075D01*
X-1879359Y3249324D01*
X-1655117Y3069244D01*
X-1574289Y3004227D01*
X-1482371Y2931015D01*
X-1415271Y2879507D01*
X-1368190Y2846822D01*
X-1336323Y2830081D01*
X-1314871Y2826407D01*
X-1299029Y2832921D01*
X-1283996Y2846742D01*
X-1263560Y2868782D01*
X-1217465Y2919685D01*
X-1149949Y2994803D01*
X-1064496Y3090243D01*
X-964591Y3202112D01*
X-853722Y3326516D01*
X-735372Y3459563D01*
X-228615Y4029775D01*
X3923051Y4392998D01*
X3987566Y3834267D01*
%TD*%
D13*
%TO.C,SW12*%
X35781444Y16778782D03*
X40889731Y14843477D03*
D14*
X30600382Y10549088D03*
X41585305Y11124784D03*
X41585305Y11124784D03*
D15*
X36092843Y10836936D03*
D13*
X30903435Y14320117D03*
D14*
X30600381Y10549088D03*
D15*
X36092843Y10836936D03*
X36092843Y10836936D03*
D16*
X36401625Y4945022D03*
D17*
X32510932Y16607381D03*
X44160243Y15014877D03*
D16*
X31298572Y6780464D03*
X41284867Y7303824D03*
%TD*%
D15*
%TO.C,SW8*%
X55813372Y29871818D03*
D13*
X55813372Y35821818D03*
D14*
X50313373Y29871818D03*
D13*
X60813372Y33621818D03*
X50813372Y33621818D03*
D15*
X55813372Y29871818D03*
D14*
X50313372Y29871818D03*
X61313372Y29871818D03*
D15*
X55813372Y29871818D03*
D14*
X61313372Y29871818D03*
D18*
X52538372Y35821818D03*
D19*
X55813372Y23971818D03*
D18*
X64088372Y33621818D03*
D19*
X50813372Y26071818D03*
X60813372Y26071818D03*
%TD*%
D20*
%TO.C,D1*%
X114100000Y26212500D03*
X114100000Y27787500D03*
%TD*%
D21*
%TO.C,J2*%
X118070000Y14150000D03*
D22*
X118070000Y12150000D03*
X118070000Y10150000D03*
X118070000Y8150000D03*
%TD*%
D14*
%TO.C,SW17*%
X108305450Y-12076134D03*
D15*
X105894409Y-17019501D03*
D13*
X100332076Y-19869579D03*
D14*
X108305450Y-12076134D03*
D13*
X100546584Y-14411193D03*
D14*
X103483368Y-21962867D03*
D15*
X105894409Y-17019501D03*
D13*
X104715787Y-10881639D03*
D15*
X105894409Y-17019501D03*
D14*
X103483368Y-21962868D03*
D23*
X99110919Y-17354743D03*
D24*
X111197294Y-19605891D03*
D23*
X106151453Y-7938088D03*
D24*
X107117971Y-23179282D03*
X111501682Y-14191341D03*
%TD*%
D25*
%TO.C,J4*%
X70240000Y3880000D03*
D26*
X67740000Y3880000D03*
%TD*%
D13*
%TO.C,SW9*%
X69376271Y30705920D03*
D14*
X79809225Y26773241D03*
D15*
X74310063Y26869229D03*
D14*
X68810901Y26965217D03*
X79809225Y26773241D03*
D13*
X74413905Y32818323D03*
D14*
X68810902Y26965217D03*
D15*
X74310063Y26869229D03*
D13*
X79374748Y30531396D03*
D15*
X74310063Y26869229D03*
D27*
X74207094Y20970128D03*
D28*
X71139404Y32875479D03*
X82649249Y30474239D03*
D27*
X79242982Y22982546D03*
X69244505Y23157070D03*
%TD*%
D29*
%TO.C,*%
X-160000Y44585000D03*
X-2976726Y45751726D03*
X-1810000Y42935000D03*
D30*
X-1810000Y44585000D03*
D29*
X-1810000Y46235000D03*
X-643274Y43418274D03*
X-2976726Y43418274D03*
X-3460000Y44585000D03*
X-643274Y45751726D03*
%TD*%
D14*
%TO.C,SW1*%
X-6960719Y16455953D03*
D15*
X-1481648Y16935310D03*
D14*
X3997423Y17414667D03*
D13*
X-6789456Y20235261D03*
D14*
X-6960718Y16455954D03*
D13*
X3172491Y21106819D03*
D14*
X3997423Y17414667D03*
D15*
X-1481648Y16935310D03*
D13*
X-2000225Y22862668D03*
D15*
X-1481648Y16935310D03*
D31*
X-5262762Y22577233D03*
D32*
X-967429Y11057761D03*
X3830517Y13585549D03*
X-6131430Y12713991D03*
D31*
X6435029Y21392254D03*
%TD*%
D29*
%TO.C,REF\u002A\u002A*%
X97530000Y-12595000D03*
X97046726Y-13761726D03*
X94713274Y-11428274D03*
X97046726Y-11428274D03*
D30*
X95880000Y-12595000D03*
D29*
X94713274Y-13761726D03*
X95880000Y-14245000D03*
X95880000Y-10945000D03*
X94230000Y-12595000D03*
%TD*%
D14*
%TO.C,SW11*%
X23410576Y2048160D03*
D13*
X17412928Y7496161D03*
D15*
X17931505Y1568803D03*
D14*
X12452435Y1089447D03*
D15*
X17931505Y1568803D03*
X17931505Y1568803D03*
D14*
X12452434Y1089446D03*
X23410576Y2048160D03*
D13*
X22585644Y5740312D03*
X12623697Y4868754D03*
D32*
X18445724Y-4308746D03*
D31*
X14150391Y7210726D03*
X25848182Y6025747D03*
D32*
X13281723Y-2652516D03*
X23243670Y-1780958D03*
%TD*%
D14*
%TO.C,SW4*%
X80105916Y43770651D03*
D15*
X74606754Y43866639D03*
D14*
X69107592Y43962627D03*
X69107593Y43962627D03*
D15*
X74606754Y43866639D03*
D13*
X79671439Y47528806D03*
D14*
X80105916Y43770651D03*
D15*
X74606754Y43866639D03*
D13*
X74710596Y49815733D03*
X69672962Y47703330D03*
D27*
X74503785Y37967538D03*
D28*
X71436095Y49872889D03*
X82945940Y47471649D03*
D27*
X79539673Y39979956D03*
X69541196Y40154480D03*
%TD*%
D30*
%TO.C,*%
X-5120000Y-7155000D03*
D29*
X-3953274Y-8321726D03*
X-5120000Y-8805000D03*
X-5120000Y-5505000D03*
X-6286726Y-5988274D03*
X-3470000Y-7155000D03*
X-6770000Y-7155000D03*
X-3953274Y-5988274D03*
X-6286726Y-8321726D03*
%TD*%
D33*
%TO.C,R_TACT1*%
X114754782Y41772447D03*
X115698270Y45370867D03*
%TD*%
D13*
%TO.C,SW6*%
X11142049Y21804064D03*
D15*
X16449857Y18504113D03*
D13*
X15931280Y24431471D03*
D14*
X10970786Y18024756D03*
X21928928Y18983470D03*
X10970787Y18024757D03*
D15*
X16449857Y18504113D03*
D14*
X21928928Y18983470D03*
D13*
X21103996Y22675622D03*
D15*
X16449857Y18504113D03*
D32*
X16964076Y12626564D03*
D31*
X12668743Y24146036D03*
X24366534Y22961057D03*
D32*
X11800075Y14282794D03*
X21762022Y15154352D03*
%TD*%
D34*
%TO.C,SW_POW1*%
X118845530Y38643632D03*
X119920633Y35842891D03*
%TD*%
D14*
%TO.C,SW10*%
X98213310Y21356133D03*
X98213310Y21356133D03*
D15*
X92716660Y21548080D03*
X92716660Y21548080D03*
X92716660Y21548080D03*
D13*
X92924312Y27494455D03*
X97844487Y25121298D03*
D14*
X87220011Y21740027D03*
X87220010Y21740027D03*
D13*
X87850579Y25470293D03*
D35*
X92510753Y15651674D03*
D36*
X89651307Y27608751D03*
D35*
X97580996Y17575897D03*
X87587088Y17924892D03*
D36*
X101117492Y25007002D03*
%TD*%
D15*
%TO.C,SW5*%
X93309951Y38537724D03*
D13*
X98437778Y42110942D03*
D14*
X98806601Y38345777D03*
X98806601Y38345777D03*
X87813302Y38729671D03*
D13*
X88443870Y42459937D03*
X93517603Y44484099D03*
D15*
X93309951Y38537724D03*
D14*
X87813301Y38729671D03*
D15*
X93309951Y38537724D03*
D36*
X90244598Y44598395D03*
D35*
X93104044Y32641318D03*
D36*
X101710783Y41996646D03*
D35*
X98174287Y34565541D03*
X88180379Y34914536D03*
%TD*%
D37*
%TO.C,J1*%
X103076568Y50230074D03*
D38*
X102007615Y46375552D03*
X112838821Y43371793D03*
D37*
X113907776Y47226314D03*
%TD*%
D15*
%TO.C,SW14*%
X74013372Y9871818D03*
X74013372Y9871818D03*
D14*
X68514210Y9967806D03*
X68514211Y9967806D03*
D13*
X69079580Y13708509D03*
D14*
X79512534Y9775830D03*
D13*
X79078057Y13533985D03*
D15*
X74013372Y9871818D03*
D13*
X74117214Y15820912D03*
D14*
X79512534Y9775830D03*
D28*
X70842713Y15878068D03*
D27*
X73910403Y3972717D03*
X68947814Y6159659D03*
X78946291Y5985135D03*
D28*
X82352558Y13476828D03*
%TD*%
D30*
%TO.C,*%
X87210000Y50945000D03*
D29*
X87210000Y52595000D03*
X87210000Y49295000D03*
X88860000Y50945000D03*
X86043274Y49778274D03*
X85560000Y50945000D03*
X88376726Y49778274D03*
X88376726Y52111726D03*
X86043274Y52111726D03*
%TD*%
D14*
%TO.C,SW7*%
X40695594Y28101486D03*
D15*
X35203132Y27813638D03*
X35203132Y27813638D03*
D13*
X30013724Y31296819D03*
D14*
X29710670Y27525790D03*
D15*
X35203132Y27813638D03*
D13*
X40000020Y31820179D03*
D14*
X40695594Y28101486D03*
X29710671Y27525790D03*
D13*
X34891733Y33755484D03*
D17*
X31621221Y33584083D03*
D16*
X35511914Y21921724D03*
X30408861Y23757166D03*
D17*
X43270532Y31991579D03*
D16*
X40395156Y24280526D03*
%TD*%
D39*
%TO.C,J5*%
X122629056Y30024423D03*
D40*
X123010674Y28061169D03*
X123392292Y26097914D03*
X123773910Y24134660D03*
%TD*%
D15*
%TO.C,SW2*%
X34313420Y44790341D03*
D13*
X29124012Y48273522D03*
X34002021Y50732187D03*
D14*
X39805882Y45078189D03*
X39805882Y45078189D03*
X28820959Y44502493D03*
D13*
X39110308Y48796882D03*
D15*
X34313420Y44790341D03*
D14*
X28820958Y44502493D03*
D15*
X34313420Y44790341D03*
D17*
X30731509Y50560786D03*
D16*
X34622202Y38898427D03*
X29519149Y40733869D03*
X39505444Y41257229D03*
D17*
X42380820Y48968282D03*
%TD*%
D15*
%TO.C,SW13*%
X55813372Y12871818D03*
D13*
X60813372Y16621818D03*
X50813372Y16621818D03*
D14*
X50313373Y12871818D03*
X61313372Y12871818D03*
D15*
X55813372Y12871818D03*
D13*
X55813372Y18821818D03*
D15*
X55813372Y12871818D03*
D14*
X50313372Y12871818D03*
X61313372Y12871818D03*
D18*
X52538372Y18821818D03*
D19*
X55813372Y6971818D03*
D18*
X64088372Y16621818D03*
D19*
X60813372Y9071818D03*
X50813372Y9071818D03*
%TD*%
D13*
%TO.C,SW16*%
X85001988Y-8595791D03*
D15*
X83866674Y-14436473D03*
X83866674Y-14436473D03*
D14*
X89265624Y-15485922D03*
D13*
X79674072Y-9801326D03*
D15*
X83866674Y-14436473D03*
D14*
X78467725Y-13387024D03*
X78467724Y-13387024D03*
X89265624Y-15485922D03*
D13*
X89490344Y-11709416D03*
D41*
X81787158Y-7970892D03*
D42*
X82740901Y-20228073D03*
X88049736Y-19120701D03*
D41*
X92705173Y-12334315D03*
D42*
X78233464Y-17212611D03*
%TD*%
D21*
%TO.C,J3*%
X115140000Y14130000D03*
D22*
X115140000Y12130000D03*
X115140000Y10130000D03*
X115140000Y8130000D03*
%TD*%
D15*
%TO.C,SW15*%
X92123368Y4558436D03*
X92123368Y4558436D03*
D13*
X92331020Y10504811D03*
D14*
X86626718Y4750383D03*
D15*
X92123368Y4558436D03*
D13*
X87257287Y8480649D03*
D14*
X97620018Y4366489D03*
X86626719Y4750383D03*
X97620018Y4366489D03*
D13*
X97251195Y8131654D03*
D35*
X91917461Y-1337970D03*
D36*
X89058015Y10619107D03*
D35*
X96987704Y586253D03*
D36*
X100524200Y8017358D03*
D35*
X86993796Y935248D03*
%TD*%
D29*
%TO.C,TENT1*%
X28308572Y27045000D03*
X45708572Y9645000D03*
X44541846Y47261726D03*
X45708572Y6345000D03*
X64758572Y28695000D03*
X27825298Y25878274D03*
X63591846Y25878274D03*
X65925298Y25878274D03*
X66408572Y27045000D03*
X26658572Y25395000D03*
X45708572Y44445000D03*
X47358572Y7995000D03*
X65925298Y28211726D03*
X25008572Y27045000D03*
D30*
X45708572Y46095000D03*
D29*
X45708572Y47745000D03*
X46875298Y9161726D03*
X46875298Y6828274D03*
X26658572Y28695000D03*
X25491846Y25878274D03*
D30*
X45708572Y7995000D03*
D29*
X27825298Y28211726D03*
X44541846Y9161726D03*
X64758572Y25395000D03*
X47358572Y46095000D03*
X46875298Y44928274D03*
X44058572Y46095000D03*
X63108572Y27045000D03*
X25491846Y28211726D03*
D30*
X26658572Y27045000D03*
D29*
X63591846Y28211726D03*
X44541846Y6828274D03*
X46875298Y47261726D03*
X44541846Y44928274D03*
X44058572Y7995000D03*
D30*
X64758572Y27045000D03*
%TD*%
D14*
%TO.C,SW3*%
X50313372Y46871818D03*
D15*
X55813372Y46871818D03*
D13*
X50813372Y50621818D03*
D15*
X55813372Y46871818D03*
X55813372Y46871818D03*
D14*
X61313372Y46871818D03*
D13*
X55813372Y52821818D03*
D14*
X50313373Y46871818D03*
D13*
X60813372Y50621818D03*
D14*
X61313372Y46871818D03*
D19*
X55813372Y40971818D03*
D18*
X52538372Y52821818D03*
D19*
X50813372Y43071818D03*
X60813372Y43071818D03*
D18*
X64088372Y50621818D03*
%TD*%
D20*
%TO.C,D2*%
X116040000Y26212500D03*
X116040000Y27787500D03*
%TD*%
D43*
%TO.C,SW_POW2*%
X119654850Y33437904D03*
D34*
X119920633Y35842891D03*
D43*
X119101977Y41045035D03*
X117038764Y40253042D03*
D34*
X118845530Y38643632D03*
D43*
X121718063Y34229898D03*
D44*
X116933652Y38713090D03*
X118008756Y35912349D03*
X118546308Y34511978D03*
%TD*%
M02*
